<?xml version="1.0" encoding="utf-8" standalone="no"?>
<!DOCTYPE svg PUBLIC "-//W3C//DTD SVG 1.1//EN"
  "http://www.w3.org/Graphics/SVG/1.1/DTD/svg11.dtd">
<!-- Created with matplotlib (https://matplotlib.org/) -->
<svg height="576pt" version="1.1" viewBox="0 0 1152 576" width="1152pt" xmlns="http://www.w3.org/2000/svg" xmlns:xlink="http://www.w3.org/1999/xlink">
 <defs>
  <style type="text/css">
*{stroke-linecap:butt;stroke-linejoin:round;}
  </style>
 </defs>
 <g id="figure_1">
  <g id="patch_1">
   <path d="M 0 576 
L 1152 576 
L 1152 0 
L 0 0 
z
" style="fill:#ffffff;"/>
  </g>
  <g id="axes_1">
   <g id="patch_2">
    <path d="M 144 504 
L 549.818182 504 
L 549.818182 69.12 
L 144 69.12 
z
" style="fill:#ffffff;"/>
   </g>
   <g id="matplotlib.axis_1">
    <g id="xtick_1">
     <g id="line2d_1">
      <defs>
       <path d="M 0 0 
L 0 3.5 
" id="m1cd151ca0b" style="stroke:#000000;stroke-width:0.8;"/>
      </defs>
      <g>
       <use style="stroke:#000000;stroke-width:0.8;" x="151.545597" xlink:href="#m1cd151ca0b" y="504"/>
      </g>
     </g>
     <g id="text_1">
      <!-- 1980 -->
      <defs>
       <path d="M 12.40625 8.296875 
L 28.515625 8.296875 
L 28.515625 63.921875 
L 10.984375 60.40625 
L 10.984375 69.390625 
L 28.421875 72.90625 
L 38.28125 72.90625 
L 38.28125 8.296875 
L 54.390625 8.296875 
L 54.390625 0 
L 12.40625 0 
z
" id="DejaVuSans-49"/>
       <path d="M 10.984375 1.515625 
L 10.984375 10.5 
Q 14.703125 8.734375 18.5 7.8125 
Q 22.3125 6.890625 25.984375 6.890625 
Q 35.75 6.890625 40.890625 13.453125 
Q 46.046875 20.015625 46.78125 33.40625 
Q 43.953125 29.203125 39.59375 26.953125 
Q 35.25 24.703125 29.984375 24.703125 
Q 19.046875 24.703125 12.671875 31.3125 
Q 6.296875 37.9375 6.296875 49.421875 
Q 6.296875 60.640625 12.9375 67.421875 
Q 19.578125 74.21875 30.609375 74.21875 
Q 43.265625 74.21875 49.921875 64.515625 
Q 56.59375 54.828125 56.59375 36.375 
Q 56.59375 19.140625 48.40625 8.859375 
Q 40.234375 -1.421875 26.421875 -1.421875 
Q 22.703125 -1.421875 18.890625 -0.6875 
Q 15.09375 0.046875 10.984375 1.515625 
z
M 30.609375 32.421875 
Q 37.25 32.421875 41.125 36.953125 
Q 45.015625 41.5 45.015625 49.421875 
Q 45.015625 57.28125 41.125 61.84375 
Q 37.25 66.40625 30.609375 66.40625 
Q 23.96875 66.40625 20.09375 61.84375 
Q 16.21875 57.28125 16.21875 49.421875 
Q 16.21875 41.5 20.09375 36.953125 
Q 23.96875 32.421875 30.609375 32.421875 
z
" id="DejaVuSans-57"/>
       <path d="M 31.78125 34.625 
Q 24.75 34.625 20.71875 30.859375 
Q 16.703125 27.09375 16.703125 20.515625 
Q 16.703125 13.921875 20.71875 10.15625 
Q 24.75 6.390625 31.78125 6.390625 
Q 38.8125 6.390625 42.859375 10.171875 
Q 46.921875 13.96875 46.921875 20.515625 
Q 46.921875 27.09375 42.890625 30.859375 
Q 38.875 34.625 31.78125 34.625 
z
M 21.921875 38.8125 
Q 15.578125 40.375 12.03125 44.71875 
Q 8.5 49.078125 8.5 55.328125 
Q 8.5 64.0625 14.71875 69.140625 
Q 20.953125 74.21875 31.78125 74.21875 
Q 42.671875 74.21875 48.875 69.140625 
Q 55.078125 64.0625 55.078125 55.328125 
Q 55.078125 49.078125 51.53125 44.71875 
Q 48 40.375 41.703125 38.8125 
Q 48.828125 37.15625 52.796875 32.3125 
Q 56.78125 27.484375 56.78125 20.515625 
Q 56.78125 9.90625 50.3125 4.234375 
Q 43.84375 -1.421875 31.78125 -1.421875 
Q 19.734375 -1.421875 13.25 4.234375 
Q 6.78125 9.90625 6.78125 20.515625 
Q 6.78125 27.484375 10.78125 32.3125 
Q 14.796875 37.15625 21.921875 38.8125 
z
M 18.3125 54.390625 
Q 18.3125 48.734375 21.84375 45.5625 
Q 25.390625 42.390625 31.78125 42.390625 
Q 38.140625 42.390625 41.71875 45.5625 
Q 45.3125 48.734375 45.3125 54.390625 
Q 45.3125 60.0625 41.71875 63.234375 
Q 38.140625 66.40625 31.78125 66.40625 
Q 25.390625 66.40625 21.84375 63.234375 
Q 18.3125 60.0625 18.3125 54.390625 
z
" id="DejaVuSans-56"/>
       <path d="M 31.78125 66.40625 
Q 24.171875 66.40625 20.328125 58.90625 
Q 16.5 51.421875 16.5 36.375 
Q 16.5 21.390625 20.328125 13.890625 
Q 24.171875 6.390625 31.78125 6.390625 
Q 39.453125 6.390625 43.28125 13.890625 
Q 47.125 21.390625 47.125 36.375 
Q 47.125 51.421875 43.28125 58.90625 
Q 39.453125 66.40625 31.78125 66.40625 
z
M 31.78125 74.21875 
Q 44.046875 74.21875 50.515625 64.515625 
Q 56.984375 54.828125 56.984375 36.375 
Q 56.984375 17.96875 50.515625 8.265625 
Q 44.046875 -1.421875 31.78125 -1.421875 
Q 19.53125 -1.421875 13.0625 8.265625 
Q 6.59375 17.96875 6.59375 36.375 
Q 6.59375 54.828125 13.0625 64.515625 
Q 19.53125 74.21875 31.78125 74.21875 
z
" id="DejaVuSans-48"/>
      </defs>
      <g transform="translate(138.820597 518.598438)scale(0.1 -0.1)">
       <use xlink:href="#DejaVuSans-49"/>
       <use x="63.623047" xlink:href="#DejaVuSans-57"/>
       <use x="127.246094" xlink:href="#DejaVuSans-56"/>
       <use x="190.869141" xlink:href="#DejaVuSans-48"/>
      </g>
     </g>
    </g>
    <g id="xtick_2">
     <g id="line2d_2">
      <g>
       <use style="stroke:#000000;stroke-width:0.8;" x="195.058984" xlink:href="#m1cd151ca0b" y="504"/>
      </g>
     </g>
     <g id="text_2">
      <!-- 1984 -->
      <defs>
       <path d="M 37.796875 64.3125 
L 12.890625 25.390625 
L 37.796875 25.390625 
z
M 35.203125 72.90625 
L 47.609375 72.90625 
L 47.609375 25.390625 
L 58.015625 25.390625 
L 58.015625 17.1875 
L 47.609375 17.1875 
L 47.609375 0 
L 37.796875 0 
L 37.796875 17.1875 
L 4.890625 17.1875 
L 4.890625 26.703125 
z
" id="DejaVuSans-52"/>
      </defs>
      <g transform="translate(182.333984 518.598438)scale(0.1 -0.1)">
       <use xlink:href="#DejaVuSans-49"/>
       <use x="63.623047" xlink:href="#DejaVuSans-57"/>
       <use x="127.246094" xlink:href="#DejaVuSans-56"/>
       <use x="190.869141" xlink:href="#DejaVuSans-52"/>
      </g>
     </g>
    </g>
    <g id="xtick_3">
     <g id="line2d_3">
      <g>
       <use style="stroke:#000000;stroke-width:0.8;" x="238.572372" xlink:href="#m1cd151ca0b" y="504"/>
      </g>
     </g>
     <g id="text_3">
      <!-- 1988 -->
      <g transform="translate(225.847372 518.598438)scale(0.1 -0.1)">
       <use xlink:href="#DejaVuSans-49"/>
       <use x="63.623047" xlink:href="#DejaVuSans-57"/>
       <use x="127.246094" xlink:href="#DejaVuSans-56"/>
       <use x="190.869141" xlink:href="#DejaVuSans-56"/>
      </g>
     </g>
    </g>
    <g id="xtick_4">
     <g id="line2d_4">
      <g>
       <use style="stroke:#000000;stroke-width:0.8;" x="282.085759" xlink:href="#m1cd151ca0b" y="504"/>
      </g>
     </g>
     <g id="text_4">
      <!-- 1992 -->
      <defs>
       <path d="M 19.1875 8.296875 
L 53.609375 8.296875 
L 53.609375 0 
L 7.328125 0 
L 7.328125 8.296875 
Q 12.9375 14.109375 22.625 23.890625 
Q 32.328125 33.6875 34.8125 36.53125 
Q 39.546875 41.84375 41.421875 45.53125 
Q 43.3125 49.21875 43.3125 52.78125 
Q 43.3125 58.59375 39.234375 62.25 
Q 35.15625 65.921875 28.609375 65.921875 
Q 23.96875 65.921875 18.8125 64.3125 
Q 13.671875 62.703125 7.8125 59.421875 
L 7.8125 69.390625 
Q 13.765625 71.78125 18.9375 73 
Q 24.125 74.21875 28.421875 74.21875 
Q 39.75 74.21875 46.484375 68.546875 
Q 53.21875 62.890625 53.21875 53.421875 
Q 53.21875 48.921875 51.53125 44.890625 
Q 49.859375 40.875 45.40625 35.40625 
Q 44.1875 33.984375 37.640625 27.21875 
Q 31.109375 20.453125 19.1875 8.296875 
z
" id="DejaVuSans-50"/>
      </defs>
      <g transform="translate(269.360759 518.598438)scale(0.1 -0.1)">
       <use xlink:href="#DejaVuSans-49"/>
       <use x="63.623047" xlink:href="#DejaVuSans-57"/>
       <use x="127.246094" xlink:href="#DejaVuSans-57"/>
       <use x="190.869141" xlink:href="#DejaVuSans-50"/>
      </g>
     </g>
    </g>
    <g id="xtick_5">
     <g id="line2d_5">
      <g>
       <use style="stroke:#000000;stroke-width:0.8;" x="325.599147" xlink:href="#m1cd151ca0b" y="504"/>
      </g>
     </g>
     <g id="text_5">
      <!-- 1996 -->
      <defs>
       <path d="M 33.015625 40.375 
Q 26.375 40.375 22.484375 35.828125 
Q 18.609375 31.296875 18.609375 23.390625 
Q 18.609375 15.53125 22.484375 10.953125 
Q 26.375 6.390625 33.015625 6.390625 
Q 39.65625 6.390625 43.53125 10.953125 
Q 47.40625 15.53125 47.40625 23.390625 
Q 47.40625 31.296875 43.53125 35.828125 
Q 39.65625 40.375 33.015625 40.375 
z
M 52.59375 71.296875 
L 52.59375 62.3125 
Q 48.875 64.0625 45.09375 64.984375 
Q 41.3125 65.921875 37.59375 65.921875 
Q 27.828125 65.921875 22.671875 59.328125 
Q 17.53125 52.734375 16.796875 39.40625 
Q 19.671875 43.65625 24.015625 45.921875 
Q 28.375 48.1875 33.59375 48.1875 
Q 44.578125 48.1875 50.953125 41.515625 
Q 57.328125 34.859375 57.328125 23.390625 
Q 57.328125 12.15625 50.6875 5.359375 
Q 44.046875 -1.421875 33.015625 -1.421875 
Q 20.359375 -1.421875 13.671875 8.265625 
Q 6.984375 17.96875 6.984375 36.375 
Q 6.984375 53.65625 15.1875 63.9375 
Q 23.390625 74.21875 37.203125 74.21875 
Q 40.921875 74.21875 44.703125 73.484375 
Q 48.484375 72.75 52.59375 71.296875 
z
" id="DejaVuSans-54"/>
      </defs>
      <g transform="translate(312.874147 518.598438)scale(0.1 -0.1)">
       <use xlink:href="#DejaVuSans-49"/>
       <use x="63.623047" xlink:href="#DejaVuSans-57"/>
       <use x="127.246094" xlink:href="#DejaVuSans-57"/>
       <use x="190.869141" xlink:href="#DejaVuSans-54"/>
      </g>
     </g>
    </g>
    <g id="xtick_6">
     <g id="line2d_6">
      <g>
       <use style="stroke:#000000;stroke-width:0.8;" x="369.112534" xlink:href="#m1cd151ca0b" y="504"/>
      </g>
     </g>
     <g id="text_6">
      <!-- 2000 -->
      <g transform="translate(356.387534 518.598438)scale(0.1 -0.1)">
       <use xlink:href="#DejaVuSans-50"/>
       <use x="63.623047" xlink:href="#DejaVuSans-48"/>
       <use x="127.246094" xlink:href="#DejaVuSans-48"/>
       <use x="190.869141" xlink:href="#DejaVuSans-48"/>
      </g>
     </g>
    </g>
    <g id="xtick_7">
     <g id="line2d_7">
      <g>
       <use style="stroke:#000000;stroke-width:0.8;" x="412.625921" xlink:href="#m1cd151ca0b" y="504"/>
      </g>
     </g>
     <g id="text_7">
      <!-- 2004 -->
      <g transform="translate(399.900921 518.598438)scale(0.1 -0.1)">
       <use xlink:href="#DejaVuSans-50"/>
       <use x="63.623047" xlink:href="#DejaVuSans-48"/>
       <use x="127.246094" xlink:href="#DejaVuSans-48"/>
       <use x="190.869141" xlink:href="#DejaVuSans-52"/>
      </g>
     </g>
    </g>
    <g id="xtick_8">
     <g id="line2d_8">
      <g>
       <use style="stroke:#000000;stroke-width:0.8;" x="456.139309" xlink:href="#m1cd151ca0b" y="504"/>
      </g>
     </g>
     <g id="text_8">
      <!-- 2008 -->
      <g transform="translate(443.414309 518.598438)scale(0.1 -0.1)">
       <use xlink:href="#DejaVuSans-50"/>
       <use x="63.623047" xlink:href="#DejaVuSans-48"/>
       <use x="127.246094" xlink:href="#DejaVuSans-48"/>
       <use x="190.869141" xlink:href="#DejaVuSans-56"/>
      </g>
     </g>
    </g>
    <g id="xtick_9">
     <g id="line2d_9">
      <g>
       <use style="stroke:#000000;stroke-width:0.8;" x="499.652696" xlink:href="#m1cd151ca0b" y="504"/>
      </g>
     </g>
     <g id="text_9">
      <!-- 2012 -->
      <g transform="translate(486.927696 518.598438)scale(0.1 -0.1)">
       <use xlink:href="#DejaVuSans-50"/>
       <use x="63.623047" xlink:href="#DejaVuSans-48"/>
       <use x="127.246094" xlink:href="#DejaVuSans-49"/>
       <use x="190.869141" xlink:href="#DejaVuSans-50"/>
      </g>
     </g>
    </g>
    <g id="xtick_10">
     <g id="line2d_10">
      <g>
       <use style="stroke:#000000;stroke-width:0.8;" x="543.166084" xlink:href="#m1cd151ca0b" y="504"/>
      </g>
     </g>
     <g id="text_10">
      <!-- 2016 -->
      <g transform="translate(530.441084 518.598438)scale(0.1 -0.1)">
       <use xlink:href="#DejaVuSans-50"/>
       <use x="63.623047" xlink:href="#DejaVuSans-48"/>
       <use x="127.246094" xlink:href="#DejaVuSans-49"/>
       <use x="190.869141" xlink:href="#DejaVuSans-54"/>
      </g>
     </g>
    </g>
   </g>
   <g id="matplotlib.axis_2">
    <g id="ytick_1">
     <g id="line2d_11">
      <defs>
       <path d="M 0 0 
L -3.5 0 
" id="m7d23315e56" style="stroke:#000000;stroke-width:0.8;"/>
      </defs>
      <g>
       <use style="stroke:#000000;stroke-width:0.8;" x="144" xlink:href="#m7d23315e56" y="483.25718"/>
      </g>
     </g>
     <g id="text_11">
      <!-- 0.00 -->
      <defs>
       <path d="M 10.6875 12.40625 
L 21 12.40625 
L 21 0 
L 10.6875 0 
z
" id="DejaVuSans-46"/>
      </defs>
      <g transform="translate(114.734375 487.056399)scale(0.1 -0.1)">
       <use xlink:href="#DejaVuSans-48"/>
       <use x="63.623047" xlink:href="#DejaVuSans-46"/>
       <use x="95.410156" xlink:href="#DejaVuSans-48"/>
       <use x="159.033203" xlink:href="#DejaVuSans-48"/>
      </g>
     </g>
    </g>
    <g id="ytick_2">
     <g id="line2d_12">
      <g>
       <use style="stroke:#000000;stroke-width:0.8;" x="144" xlink:href="#m7d23315e56" y="421.699301"/>
      </g>
     </g>
     <g id="text_12">
      <!-- 0.02 -->
      <g transform="translate(114.734375 425.49852)scale(0.1 -0.1)">
       <use xlink:href="#DejaVuSans-48"/>
       <use x="63.623047" xlink:href="#DejaVuSans-46"/>
       <use x="95.410156" xlink:href="#DejaVuSans-48"/>
       <use x="159.033203" xlink:href="#DejaVuSans-50"/>
      </g>
     </g>
    </g>
    <g id="ytick_3">
     <g id="line2d_13">
      <g>
       <use style="stroke:#000000;stroke-width:0.8;" x="144" xlink:href="#m7d23315e56" y="360.141422"/>
      </g>
     </g>
     <g id="text_13">
      <!-- 0.04 -->
      <g transform="translate(114.734375 363.94064)scale(0.1 -0.1)">
       <use xlink:href="#DejaVuSans-48"/>
       <use x="63.623047" xlink:href="#DejaVuSans-46"/>
       <use x="95.410156" xlink:href="#DejaVuSans-48"/>
       <use x="159.033203" xlink:href="#DejaVuSans-52"/>
      </g>
     </g>
    </g>
    <g id="ytick_4">
     <g id="line2d_14">
      <g>
       <use style="stroke:#000000;stroke-width:0.8;" x="144" xlink:href="#m7d23315e56" y="298.583542"/>
      </g>
     </g>
     <g id="text_14">
      <!-- 0.06 -->
      <g transform="translate(114.734375 302.382761)scale(0.1 -0.1)">
       <use xlink:href="#DejaVuSans-48"/>
       <use x="63.623047" xlink:href="#DejaVuSans-46"/>
       <use x="95.410156" xlink:href="#DejaVuSans-48"/>
       <use x="159.033203" xlink:href="#DejaVuSans-54"/>
      </g>
     </g>
    </g>
    <g id="ytick_5">
     <g id="line2d_15">
      <g>
       <use style="stroke:#000000;stroke-width:0.8;" x="144" xlink:href="#m7d23315e56" y="237.025663"/>
      </g>
     </g>
     <g id="text_15">
      <!-- 0.08 -->
      <g transform="translate(114.734375 240.824882)scale(0.1 -0.1)">
       <use xlink:href="#DejaVuSans-48"/>
       <use x="63.623047" xlink:href="#DejaVuSans-46"/>
       <use x="95.410156" xlink:href="#DejaVuSans-48"/>
       <use x="159.033203" xlink:href="#DejaVuSans-56"/>
      </g>
     </g>
    </g>
    <g id="ytick_6">
     <g id="line2d_16">
      <g>
       <use style="stroke:#000000;stroke-width:0.8;" x="144" xlink:href="#m7d23315e56" y="175.467783"/>
      </g>
     </g>
     <g id="text_16">
      <!-- 0.10 -->
      <g transform="translate(114.734375 179.267002)scale(0.1 -0.1)">
       <use xlink:href="#DejaVuSans-48"/>
       <use x="63.623047" xlink:href="#DejaVuSans-46"/>
       <use x="95.410156" xlink:href="#DejaVuSans-49"/>
       <use x="159.033203" xlink:href="#DejaVuSans-48"/>
      </g>
     </g>
    </g>
    <g id="ytick_7">
     <g id="line2d_17">
      <g>
       <use style="stroke:#000000;stroke-width:0.8;" x="144" xlink:href="#m7d23315e56" y="113.909904"/>
      </g>
     </g>
     <g id="text_17">
      <!-- 0.12 -->
      <g transform="translate(114.734375 117.709123)scale(0.1 -0.1)">
       <use xlink:href="#DejaVuSans-48"/>
       <use x="63.623047" xlink:href="#DejaVuSans-46"/>
       <use x="95.410156" xlink:href="#DejaVuSans-49"/>
       <use x="159.033203" xlink:href="#DejaVuSans-50"/>
      </g>
     </g>
    </g>
   </g>
   <g id="line2d_18">
    <path clip-path="url(#p5f98002ed6)" d="M 162.446281 425.353893 
L 163.369563 344.925626 
L 164.203495 285.657224 
L 165.126777 284.566623 
L 166.020276 349.695663 
L 166.943558 363.44741 
L 167.837057 405.861975 
L 168.760339 421.112283 
L 169.683621 456.828533 
L 170.577119 446.382294 
L 171.500401 454.349756 
L 172.3939 423.415386 
L 173.317182 384.514861 
L 174.240464 366.495756 
L 175.074396 293.193055 
L 175.997678 231.303141 
L 176.891177 326.328357 
L 177.814459 385.333917 
L 178.707958 381.74875 
L 179.63124 400.255938 
L 180.554522 410.098703 
L 181.44802 423.546929 
L 184.188083 376.489807 
L 185.111365 313.507942 
L 185.945297 148.60601 
L 186.868579 112.193923 
L 187.762078 99.537652 
L 188.68536 256.313456 
L 189.578859 322.331741 
L 190.502141 330.173642 
L 191.425423 372.082653 
L 192.318921 337.714788 
L 193.242203 360.465348 
L 194.135702 388.545105 
L 195.058984 347.069977 
L 195.982266 350.306994 
L 196.845982 330.229921 
L 197.769264 319.665839 
L 198.662762 357.327643 
L 199.586044 422.572643 
L 200.479543 426.578695 
L 201.402825 474.108659 
L 202.326107 427.025301 
L 203.219606 461.603771 
L 204.142888 430.952849 
L 205.036386 397.243605 
L 205.959668 384.296923 
L 206.88295 325.79964 
L 207.716883 328.043722 
L 208.640165 298.214891 
L 209.533663 365.076081 
L 210.456945 398.985138 
L 211.350444 412.513046 
L 212.273726 446.252563 
L 213.197008 449.109691 
L 214.090507 454.182039 
L 215.013789 425.635763 
L 215.907287 406.157854 
L 216.83057 410.315673 
L 218.587784 220.40638 
L 219.511066 257.660477 
L 220.404564 338.467785 
L 221.327846 379.659328 
L 222.221345 392.957756 
L 223.144627 409.167334 
L 224.067909 423.403266 
L 224.961408 399.718366 
L 225.88469 420.842631 
L 226.778189 437.157537 
L 227.701471 406.730261 
L 228.624753 370.584663 
L 229.458685 329.167922 
L 230.381967 340.205714 
L 231.275465 405.672451 
L 232.198747 431.974989 
L 233.092246 449.364729 
L 234.015528 459.27848 
L 234.93881 467.701097 
L 235.832309 449.578835 
L 236.755591 393.975407 
L 237.64909 409.112181 
L 238.572372 395.678255 
L 240.359369 330.26303 
L 241.282651 311.939299 
L 242.17615 341.022183 
L 243.099432 404.709808 
L 243.99293 422.108187 
L 244.916212 442.728332 
L 245.839494 459.730465 
L 246.732993 473.785492 
L 248.549774 423.778273 
L 250.396338 354.215506 
L 251.23027 308.089117 
L 252.153552 318.09942 
L 253.047051 383.814785 
L 253.970333 416.406586 
L 254.863832 427.100117 
L 255.787114 454.708344 
L 256.710396 446.612955 
L 257.603894 457.408981 
L 258.527176 455.466766 
L 259.420675 465.290795 
L 260.343957 423.535622 
L 261.267239 372.062401 
L 262.101171 357.130376 
L 263.024453 346.509465 
L 263.917952 377.586201 
L 264.841234 389.246098 
L 265.734733 429.808554 
L 266.658015 455.059812 
L 267.581297 463.377992 
L 268.474795 475.859615 
L 269.398077 467.152951 
L 270.291576 468.131766 
L 271.214858 431.603727 
L 272.13814 424.33721 
L 272.972072 263.385473 
L 273.895354 245.093305 
L 274.788853 340.742737 
L 275.712135 393.966899 
L 276.605634 385.315051 
L 277.528916 411.966525 
L 278.452198 433.40276 
L 279.345696 441.997993 
L 280.268978 448.36447 
L 281.162477 449.328316 
L 282.085759 387.715815 
L 283.009041 294.695205 
L 283.872756 231.432861 
L 284.796039 189.451658 
L 285.689537 314.653594 
L 286.612819 370.933556 
L 287.506318 347.25781 
L 289.352882 420.806011 
L 290.246381 438.145359 
L 291.169663 423.392432 
L 292.063161 403.15564 
L 293.909725 257.646436 
L 294.743658 150.148782 
L 295.66694 107.804046 
L 296.560438 241.116321 
L 297.48372 336.968075 
L 298.377219 375.126911 
L 299.300501 384.752633 
L 300.223783 408.893001 
L 301.117282 429.328031 
L 302.040564 427.192943 
L 302.934062 418.209418 
L 303.857344 422.718156 
L 304.780626 340.993394 
L 305.614559 292.337033 
L 306.537841 297.83265 
L 307.431339 344.706864 
L 308.354621 378.631869 
L 309.24812 406.550372 
L 310.171402 423.344498 
L 311.094684 449.981021 
L 311.988183 434.461765 
L 312.911465 441.155835 
L 313.804963 443.921943 
L 316.48546 151.706258 
L 317.408742 106.408358 
L 318.30224 253.112321 
L 319.225522 286.631654 
L 320.119021 338.041197 
L 322.859084 440.826339 
L 323.782366 446.083465 
L 324.675865 433.130633 
L 325.599147 412.143965 
L 326.522429 342.92739 
L 327.386144 209.439299 
L 328.309426 196.621471 
L 329.202925 319.93396 
L 330.126207 375.45134 
L 331.019705 386.011241 
L 331.942987 412.612257 
L 332.866269 447.045007 
L 333.759768 454.890237 
L 334.68305 415.001905 
L 335.576549 389.331124 
L 336.499831 347.935936 
L 337.423113 265.739441 
L 338.257045 260.374483 
L 339.180327 292.343086 
L 340.073826 332.497621 
L 340.997108 398.977893 
L 341.890606 404.564459 
L 342.813888 421.183138 
L 343.73717 428.963927 
L 344.630669 444.968336 
L 345.553951 433.740559 
L 346.44745 380.136013 
L 347.370732 387.543633 
L 348.294014 290.520695 
L 349.127946 180.407985 
L 350.051228 88.887273 
L 351.868009 242.202588 
L 352.761507 315.866201 
L 353.68479 352.841877 
L 354.608072 394.872547 
L 355.50157 422.865965 
L 357.318351 404.666674 
L 358.241633 416.214707 
L 359.164915 355.076829 
L 359.998847 349.649077 
L 360.922129 274.400902 
L 361.815628 345.170779 
L 362.73891 362.162172 
L 363.632409 388.630182 
L 364.555691 419.375604 
L 365.478973 444.573157 
L 366.372471 452.178141 
L 367.295753 464.497382 
L 368.189252 465.389532 
L 369.112534 458.201933 
L 370.035816 377.591379 
L 370.899531 276.848723 
L 371.822813 261.020858 
L 372.716312 307.020878 
L 373.639594 377.533663 
L 374.533093 395.833168 
L 376.379657 442.491539 
L 377.273156 442.637347 
L 378.196438 438.572528 
L 379.089936 456.7941 
L 380.013218 414.469577 
L 380.9365 342.484219 
L 381.770432 247.059472 
L 382.693714 244.4519 
L 384.510495 368.822552 
L 385.403994 389.093475 
L 386.327276 406.44019 
L 388.144057 458.866759 
L 389.067339 441.139931 
L 389.960837 421.475434 
L 390.884119 425.123044 
L 391.807401 391.380114 
L 392.641334 396.291622 
L 393.564616 412.649598 
L 394.458114 430.986348 
L 395.381396 454.223907 
L 397.198177 474.069882 
L 398.121459 476.789515 
L 399.014958 484.232727 
L 399.93824 422.933844 
L 400.831738 421.775205 
L 401.75502 406.817771 
L 402.678302 370.063053 
L 403.512235 240.157434 
L 404.435517 280.337422 
L 405.329015 264.485492 
L 406.252297 365.581331 
L 407.145796 365.847127 
L 408.069078 392.544169 
L 408.99236 429.875108 
L 409.885859 449.321793 
L 410.809141 437.061847 
L 411.702639 436.559977 
L 412.625921 426.282586 
L 413.549203 373.285004 
L 414.412919 291.163227 
L 415.336201 326.340086 
L 416.2297 378.403544 
L 417.152982 425.640071 
L 418.04648 437.1868 
L 418.969762 457.800562 
L 419.893044 470.676722 
L 420.786543 412.276581 
L 421.709825 383.992153 
L 422.603324 388.132884 
L 423.526606 304.519364 
L 424.449888 257.911466 
L 425.28382 144.733684 
L 426.207102 113.660683 
L 427.100601 172.853607 
L 428.023883 318.770237 
L 428.917381 340.137488 
L 429.840663 374.031276 
L 430.763945 400.046414 
L 431.657444 405.759868 
L 432.580726 415.076234 
L 433.474225 443.213015 
L 434.397507 396.051525 
L 435.320789 383.542092 
L 436.154721 299.670411 
L 437.078003 244.747684 
L 437.971502 282.154816 
L 438.894784 334.195247 
L 439.788282 366.891055 
L 440.711564 409.850949 
L 441.634846 435.463544 
L 442.528345 454.804189 
L 443.451627 457.60379 
L 444.345126 437.970598 
L 445.268408 446.742957 
L 446.19169 403.387901 
L 447.025622 383.305664 
L 447.948904 399.376984 
L 449.765685 456.355954 
L 450.659183 463.674199 
L 451.582465 472.392567 
L 452.505747 456.554444 
L 453.399246 438.71289 
L 454.322528 465.887265 
L 455.216027 417.572093 
L 456.139309 379.157653 
L 457.062591 310.063431 
L 457.926306 278.097775 
L 458.849588 315.744816 
L 459.743087 358.378591 
L 460.666369 388.756102 
L 461.559868 423.000333 
L 462.48315 445.823744 
L 463.406432 462.355128 
L 464.299931 464.445843 
L 465.223213 449.271726 
L 466.116711 421.386327 
L 467.039993 401.504651 
L 467.963275 341.612033 
L 468.797207 324.989757 
L 469.720489 341.813648 
L 470.613988 372.863284 
L 471.53727 427.535867 
L 472.430769 426.521665 
L 474.277333 464.782632 
L 475.170832 441.604705 
L 476.094114 460.259359 
L 477.910894 379.568842 
L 478.834176 305.321215 
L 479.668108 249.451836 
L 480.59139 263.293658 
L 482.408171 385.037294 
L 483.30167 397.480271 
L 485.148234 440.862781 
L 486.041733 419.692782 
L 486.965015 417.229679 
L 487.858513 395.419271 
L 488.781795 313.175004 
L 489.705077 285.130414 
L 490.53901 193.112273 
L 491.462292 152.069503 
L 492.35579 257.175356 
L 493.279072 347.311981 
L 495.095853 383.082193 
L 496.019135 406.899684 
L 496.912634 397.456935 
L 498.729414 415.327989 
L 500.575978 388.274037 
L 501.439694 340.458667 
L 502.362976 272.892757 
L 503.256475 354.713729 
L 504.179757 412.337129 
L 505.073255 425.174741 
L 506.919819 460.01478 
L 507.813318 461.42165 
L 508.7366 457.558149 
L 509.630099 417.80205 
L 510.553381 409.977802 
L 511.476663 374.148898 
L 512.310595 361.34662 
L 513.233877 392.522227 
L 514.127376 394.447578 
L 515.050658 445.903165 
L 517.79072 474.608459 
L 518.684219 468.68193 
L 519.607501 459.159632 
L 520.501 438.801372 
L 521.424282 456.584098 
L 522.347564 435.739964 
L 523.181496 338.883929 
L 524.104778 343.741433 
L 525.921559 450.634536 
L 526.815057 455.05542 
L 527.738339 461.134571 
L 528.661621 469.975167 
L 529.55512 481.337713 
L 530.478402 450.053862 
L 531.371901 399.681884 
L 531.371901 399.681884 
" style="fill:none;stroke:#1f77b4;stroke-linecap:square;stroke-width:1.5;"/>
   </g>
   <g id="patch_3">
    <path d="M 144 504 
L 144 69.12 
" style="fill:none;stroke:#000000;stroke-linecap:square;stroke-linejoin:miter;stroke-width:0.8;"/>
   </g>
   <g id="patch_4">
    <path d="M 549.818182 504 
L 549.818182 69.12 
" style="fill:none;stroke:#000000;stroke-linecap:square;stroke-linejoin:miter;stroke-width:0.8;"/>
   </g>
   <g id="patch_5">
    <path d="M 144 504 
L 549.818182 504 
" style="fill:none;stroke:#000000;stroke-linecap:square;stroke-linejoin:miter;stroke-width:0.8;"/>
   </g>
   <g id="patch_6">
    <path d="M 144 69.12 
L 549.818182 69.12 
" style="fill:none;stroke:#000000;stroke-linecap:square;stroke-linejoin:miter;stroke-width:0.8;"/>
   </g>
   <g id="text_18">
    <!-- Monthly Evaporation -->
    <defs>
     <path d="M 9.8125 72.90625 
L 24.515625 72.90625 
L 43.109375 23.296875 
L 61.8125 72.90625 
L 76.515625 72.90625 
L 76.515625 0 
L 66.890625 0 
L 66.890625 64.015625 
L 48.09375 14.015625 
L 38.1875 14.015625 
L 19.390625 64.015625 
L 19.390625 0 
L 9.8125 0 
z
" id="DejaVuSans-77"/>
     <path d="M 30.609375 48.390625 
Q 23.390625 48.390625 19.1875 42.75 
Q 14.984375 37.109375 14.984375 27.296875 
Q 14.984375 17.484375 19.15625 11.84375 
Q 23.34375 6.203125 30.609375 6.203125 
Q 37.796875 6.203125 41.984375 11.859375 
Q 46.1875 17.53125 46.1875 27.296875 
Q 46.1875 37.015625 41.984375 42.703125 
Q 37.796875 48.390625 30.609375 48.390625 
z
M 30.609375 56 
Q 42.328125 56 49.015625 48.375 
Q 55.71875 40.765625 55.71875 27.296875 
Q 55.71875 13.875 49.015625 6.21875 
Q 42.328125 -1.421875 30.609375 -1.421875 
Q 18.84375 -1.421875 12.171875 6.21875 
Q 5.515625 13.875 5.515625 27.296875 
Q 5.515625 40.765625 12.171875 48.375 
Q 18.84375 56 30.609375 56 
z
" id="DejaVuSans-111"/>
     <path d="M 54.890625 33.015625 
L 54.890625 0 
L 45.90625 0 
L 45.90625 32.71875 
Q 45.90625 40.484375 42.875 44.328125 
Q 39.84375 48.1875 33.796875 48.1875 
Q 26.515625 48.1875 22.3125 43.546875 
Q 18.109375 38.921875 18.109375 30.90625 
L 18.109375 0 
L 9.078125 0 
L 9.078125 54.6875 
L 18.109375 54.6875 
L 18.109375 46.1875 
Q 21.34375 51.125 25.703125 53.5625 
Q 30.078125 56 35.796875 56 
Q 45.21875 56 50.046875 50.171875 
Q 54.890625 44.34375 54.890625 33.015625 
z
" id="DejaVuSans-110"/>
     <path d="M 18.3125 70.21875 
L 18.3125 54.6875 
L 36.8125 54.6875 
L 36.8125 47.703125 
L 18.3125 47.703125 
L 18.3125 18.015625 
Q 18.3125 11.328125 20.140625 9.421875 
Q 21.96875 7.515625 27.59375 7.515625 
L 36.8125 7.515625 
L 36.8125 0 
L 27.59375 0 
Q 17.1875 0 13.234375 3.875 
Q 9.28125 7.765625 9.28125 18.015625 
L 9.28125 47.703125 
L 2.6875 47.703125 
L 2.6875 54.6875 
L 9.28125 54.6875 
L 9.28125 70.21875 
z
" id="DejaVuSans-116"/>
     <path d="M 54.890625 33.015625 
L 54.890625 0 
L 45.90625 0 
L 45.90625 32.71875 
Q 45.90625 40.484375 42.875 44.328125 
Q 39.84375 48.1875 33.796875 48.1875 
Q 26.515625 48.1875 22.3125 43.546875 
Q 18.109375 38.921875 18.109375 30.90625 
L 18.109375 0 
L 9.078125 0 
L 9.078125 75.984375 
L 18.109375 75.984375 
L 18.109375 46.1875 
Q 21.34375 51.125 25.703125 53.5625 
Q 30.078125 56 35.796875 56 
Q 45.21875 56 50.046875 50.171875 
Q 54.890625 44.34375 54.890625 33.015625 
z
" id="DejaVuSans-104"/>
     <path d="M 9.421875 75.984375 
L 18.40625 75.984375 
L 18.40625 0 
L 9.421875 0 
z
" id="DejaVuSans-108"/>
     <path d="M 32.171875 -5.078125 
Q 28.375 -14.84375 24.75 -17.8125 
Q 21.140625 -20.796875 15.09375 -20.796875 
L 7.90625 -20.796875 
L 7.90625 -13.28125 
L 13.1875 -13.28125 
Q 16.890625 -13.28125 18.9375 -11.515625 
Q 21 -9.765625 23.484375 -3.21875 
L 25.09375 0.875 
L 2.984375 54.6875 
L 12.5 54.6875 
L 29.59375 11.921875 
L 46.6875 54.6875 
L 56.203125 54.6875 
z
" id="DejaVuSans-121"/>
     <path id="DejaVuSans-32"/>
     <path d="M 9.8125 72.90625 
L 55.90625 72.90625 
L 55.90625 64.59375 
L 19.671875 64.59375 
L 19.671875 43.015625 
L 54.390625 43.015625 
L 54.390625 34.71875 
L 19.671875 34.71875 
L 19.671875 8.296875 
L 56.78125 8.296875 
L 56.78125 0 
L 9.8125 0 
z
" id="DejaVuSans-69"/>
     <path d="M 2.984375 54.6875 
L 12.5 54.6875 
L 29.59375 8.796875 
L 46.6875 54.6875 
L 56.203125 54.6875 
L 35.6875 0 
L 23.484375 0 
z
" id="DejaVuSans-118"/>
     <path d="M 34.28125 27.484375 
Q 23.390625 27.484375 19.1875 25 
Q 14.984375 22.515625 14.984375 16.5 
Q 14.984375 11.71875 18.140625 8.90625 
Q 21.296875 6.109375 26.703125 6.109375 
Q 34.1875 6.109375 38.703125 11.40625 
Q 43.21875 16.703125 43.21875 25.484375 
L 43.21875 27.484375 
z
M 52.203125 31.203125 
L 52.203125 0 
L 43.21875 0 
L 43.21875 8.296875 
Q 40.140625 3.328125 35.546875 0.953125 
Q 30.953125 -1.421875 24.3125 -1.421875 
Q 15.921875 -1.421875 10.953125 3.296875 
Q 6 8.015625 6 15.921875 
Q 6 25.140625 12.171875 29.828125 
Q 18.359375 34.515625 30.609375 34.515625 
L 43.21875 34.515625 
L 43.21875 35.40625 
Q 43.21875 41.609375 39.140625 45 
Q 35.0625 48.390625 27.6875 48.390625 
Q 23 48.390625 18.546875 47.265625 
Q 14.109375 46.140625 10.015625 43.890625 
L 10.015625 52.203125 
Q 14.9375 54.109375 19.578125 55.046875 
Q 24.21875 56 28.609375 56 
Q 40.484375 56 46.34375 49.84375 
Q 52.203125 43.703125 52.203125 31.203125 
z
" id="DejaVuSans-97"/>
     <path d="M 18.109375 8.203125 
L 18.109375 -20.796875 
L 9.078125 -20.796875 
L 9.078125 54.6875 
L 18.109375 54.6875 
L 18.109375 46.390625 
Q 20.953125 51.265625 25.265625 53.625 
Q 29.59375 56 35.59375 56 
Q 45.5625 56 51.78125 48.09375 
Q 58.015625 40.1875 58.015625 27.296875 
Q 58.015625 14.40625 51.78125 6.484375 
Q 45.5625 -1.421875 35.59375 -1.421875 
Q 29.59375 -1.421875 25.265625 0.953125 
Q 20.953125 3.328125 18.109375 8.203125 
z
M 48.6875 27.296875 
Q 48.6875 37.203125 44.609375 42.84375 
Q 40.53125 48.484375 33.40625 48.484375 
Q 26.265625 48.484375 22.1875 42.84375 
Q 18.109375 37.203125 18.109375 27.296875 
Q 18.109375 17.390625 22.1875 11.75 
Q 26.265625 6.109375 33.40625 6.109375 
Q 40.53125 6.109375 44.609375 11.75 
Q 48.6875 17.390625 48.6875 27.296875 
z
" id="DejaVuSans-112"/>
     <path d="M 41.109375 46.296875 
Q 39.59375 47.171875 37.8125 47.578125 
Q 36.03125 48 33.890625 48 
Q 26.265625 48 22.1875 43.046875 
Q 18.109375 38.09375 18.109375 28.8125 
L 18.109375 0 
L 9.078125 0 
L 9.078125 54.6875 
L 18.109375 54.6875 
L 18.109375 46.1875 
Q 20.953125 51.171875 25.484375 53.578125 
Q 30.03125 56 36.53125 56 
Q 37.453125 56 38.578125 55.875 
Q 39.703125 55.765625 41.0625 55.515625 
z
" id="DejaVuSans-114"/>
     <path d="M 9.421875 54.6875 
L 18.40625 54.6875 
L 18.40625 0 
L 9.421875 0 
z
M 9.421875 75.984375 
L 18.40625 75.984375 
L 18.40625 64.59375 
L 9.421875 64.59375 
z
" id="DejaVuSans-105"/>
    </defs>
    <g transform="translate(284.842841 63.12)scale(0.12 -0.12)">
     <use xlink:href="#DejaVuSans-77"/>
     <use x="86.279297" xlink:href="#DejaVuSans-111"/>
     <use x="147.460938" xlink:href="#DejaVuSans-110"/>
     <use x="210.839844" xlink:href="#DejaVuSans-116"/>
     <use x="250.048828" xlink:href="#DejaVuSans-104"/>
     <use x="313.427734" xlink:href="#DejaVuSans-108"/>
     <use x="341.210938" xlink:href="#DejaVuSans-121"/>
     <use x="400.390625" xlink:href="#DejaVuSans-32"/>
     <use x="432.177734" xlink:href="#DejaVuSans-69"/>
     <use x="495.361328" xlink:href="#DejaVuSans-118"/>
     <use x="554.541016" xlink:href="#DejaVuSans-97"/>
     <use x="615.820312" xlink:href="#DejaVuSans-112"/>
     <use x="679.296875" xlink:href="#DejaVuSans-111"/>
     <use x="740.478516" xlink:href="#DejaVuSans-114"/>
     <use x="781.591797" xlink:href="#DejaVuSans-97"/>
     <use x="842.871094" xlink:href="#DejaVuSans-116"/>
     <use x="882.080078" xlink:href="#DejaVuSans-105"/>
     <use x="909.863281" xlink:href="#DejaVuSans-111"/>
     <use x="971.044922" xlink:href="#DejaVuSans-110"/>
    </g>
   </g>
  </g>
  <g id="axes_2">
   <g id="patch_7">
    <path d="M 630.981818 504 
L 1036.8 504 
L 1036.8 69.12 
L 630.981818 69.12 
z
" style="fill:#ffffff;"/>
   </g>
   <g id="matplotlib.axis_3">
    <g id="xtick_11">
     <g id="line2d_19">
      <g>
       <use style="stroke:#000000;stroke-width:0.8;" x="638.527415" xlink:href="#m1cd151ca0b" y="504"/>
      </g>
     </g>
     <g id="text_19">
      <!-- 1980 -->
      <g transform="translate(625.802415 518.598438)scale(0.1 -0.1)">
       <use xlink:href="#DejaVuSans-49"/>
       <use x="63.623047" xlink:href="#DejaVuSans-57"/>
       <use x="127.246094" xlink:href="#DejaVuSans-56"/>
       <use x="190.869141" xlink:href="#DejaVuSans-48"/>
      </g>
     </g>
    </g>
    <g id="xtick_12">
     <g id="line2d_20">
      <g>
       <use style="stroke:#000000;stroke-width:0.8;" x="682.040802" xlink:href="#m1cd151ca0b" y="504"/>
      </g>
     </g>
     <g id="text_20">
      <!-- 1984 -->
      <g transform="translate(669.315802 518.598438)scale(0.1 -0.1)">
       <use xlink:href="#DejaVuSans-49"/>
       <use x="63.623047" xlink:href="#DejaVuSans-57"/>
       <use x="127.246094" xlink:href="#DejaVuSans-56"/>
       <use x="190.869141" xlink:href="#DejaVuSans-52"/>
      </g>
     </g>
    </g>
    <g id="xtick_13">
     <g id="line2d_21">
      <g>
       <use style="stroke:#000000;stroke-width:0.8;" x="725.55419" xlink:href="#m1cd151ca0b" y="504"/>
      </g>
     </g>
     <g id="text_21">
      <!-- 1988 -->
      <g transform="translate(712.82919 518.598438)scale(0.1 -0.1)">
       <use xlink:href="#DejaVuSans-49"/>
       <use x="63.623047" xlink:href="#DejaVuSans-57"/>
       <use x="127.246094" xlink:href="#DejaVuSans-56"/>
       <use x="190.869141" xlink:href="#DejaVuSans-56"/>
      </g>
     </g>
    </g>
    <g id="xtick_14">
     <g id="line2d_22">
      <g>
       <use style="stroke:#000000;stroke-width:0.8;" x="769.067577" xlink:href="#m1cd151ca0b" y="504"/>
      </g>
     </g>
     <g id="text_22">
      <!-- 1992 -->
      <g transform="translate(756.342577 518.598438)scale(0.1 -0.1)">
       <use xlink:href="#DejaVuSans-49"/>
       <use x="63.623047" xlink:href="#DejaVuSans-57"/>
       <use x="127.246094" xlink:href="#DejaVuSans-57"/>
       <use x="190.869141" xlink:href="#DejaVuSans-50"/>
      </g>
     </g>
    </g>
    <g id="xtick_15">
     <g id="line2d_23">
      <g>
       <use style="stroke:#000000;stroke-width:0.8;" x="812.580965" xlink:href="#m1cd151ca0b" y="504"/>
      </g>
     </g>
     <g id="text_23">
      <!-- 1996 -->
      <g transform="translate(799.855965 518.598438)scale(0.1 -0.1)">
       <use xlink:href="#DejaVuSans-49"/>
       <use x="63.623047" xlink:href="#DejaVuSans-57"/>
       <use x="127.246094" xlink:href="#DejaVuSans-57"/>
       <use x="190.869141" xlink:href="#DejaVuSans-54"/>
      </g>
     </g>
    </g>
    <g id="xtick_16">
     <g id="line2d_24">
      <g>
       <use style="stroke:#000000;stroke-width:0.8;" x="856.094352" xlink:href="#m1cd151ca0b" y="504"/>
      </g>
     </g>
     <g id="text_24">
      <!-- 2000 -->
      <g transform="translate(843.369352 518.598438)scale(0.1 -0.1)">
       <use xlink:href="#DejaVuSans-50"/>
       <use x="63.623047" xlink:href="#DejaVuSans-48"/>
       <use x="127.246094" xlink:href="#DejaVuSans-48"/>
       <use x="190.869141" xlink:href="#DejaVuSans-48"/>
      </g>
     </g>
    </g>
    <g id="xtick_17">
     <g id="line2d_25">
      <g>
       <use style="stroke:#000000;stroke-width:0.8;" x="899.60774" xlink:href="#m1cd151ca0b" y="504"/>
      </g>
     </g>
     <g id="text_25">
      <!-- 2004 -->
      <g transform="translate(886.88274 518.598438)scale(0.1 -0.1)">
       <use xlink:href="#DejaVuSans-50"/>
       <use x="63.623047" xlink:href="#DejaVuSans-48"/>
       <use x="127.246094" xlink:href="#DejaVuSans-48"/>
       <use x="190.869141" xlink:href="#DejaVuSans-52"/>
      </g>
     </g>
    </g>
    <g id="xtick_18">
     <g id="line2d_26">
      <g>
       <use style="stroke:#000000;stroke-width:0.8;" x="943.121127" xlink:href="#m1cd151ca0b" y="504"/>
      </g>
     </g>
     <g id="text_26">
      <!-- 2008 -->
      <g transform="translate(930.396127 518.598438)scale(0.1 -0.1)">
       <use xlink:href="#DejaVuSans-50"/>
       <use x="63.623047" xlink:href="#DejaVuSans-48"/>
       <use x="127.246094" xlink:href="#DejaVuSans-48"/>
       <use x="190.869141" xlink:href="#DejaVuSans-56"/>
      </g>
     </g>
    </g>
    <g id="xtick_19">
     <g id="line2d_27">
      <g>
       <use style="stroke:#000000;stroke-width:0.8;" x="986.634515" xlink:href="#m1cd151ca0b" y="504"/>
      </g>
     </g>
     <g id="text_27">
      <!-- 2012 -->
      <g transform="translate(973.909515 518.598438)scale(0.1 -0.1)">
       <use xlink:href="#DejaVuSans-50"/>
       <use x="63.623047" xlink:href="#DejaVuSans-48"/>
       <use x="127.246094" xlink:href="#DejaVuSans-49"/>
       <use x="190.869141" xlink:href="#DejaVuSans-50"/>
      </g>
     </g>
    </g>
    <g id="xtick_20">
     <g id="line2d_28">
      <g>
       <use style="stroke:#000000;stroke-width:0.8;" x="1030.147902" xlink:href="#m1cd151ca0b" y="504"/>
      </g>
     </g>
     <g id="text_28">
      <!-- 2016 -->
      <g transform="translate(1017.422902 518.598438)scale(0.1 -0.1)">
       <use xlink:href="#DejaVuSans-50"/>
       <use x="63.623047" xlink:href="#DejaVuSans-48"/>
       <use x="127.246094" xlink:href="#DejaVuSans-49"/>
       <use x="190.869141" xlink:href="#DejaVuSans-54"/>
      </g>
     </g>
    </g>
   </g>
   <g id="matplotlib.axis_4">
    <g id="ytick_8">
     <g id="line2d_29">
      <g>
       <use style="stroke:#000000;stroke-width:0.8;" x="630.981818" xlink:href="#m7d23315e56" y="483.25718"/>
      </g>
     </g>
    </g>
    <g id="ytick_9">
     <g id="line2d_30">
      <g>
       <use style="stroke:#000000;stroke-width:0.8;" x="630.981818" xlink:href="#m7d23315e56" y="421.699301"/>
      </g>
     </g>
    </g>
    <g id="ytick_10">
     <g id="line2d_31">
      <g>
       <use style="stroke:#000000;stroke-width:0.8;" x="630.981818" xlink:href="#m7d23315e56" y="360.141422"/>
      </g>
     </g>
    </g>
    <g id="ytick_11">
     <g id="line2d_32">
      <g>
       <use style="stroke:#000000;stroke-width:0.8;" x="630.981818" xlink:href="#m7d23315e56" y="298.583542"/>
      </g>
     </g>
    </g>
    <g id="ytick_12">
     <g id="line2d_33">
      <g>
       <use style="stroke:#000000;stroke-width:0.8;" x="630.981818" xlink:href="#m7d23315e56" y="237.025663"/>
      </g>
     </g>
    </g>
    <g id="ytick_13">
     <g id="line2d_34">
      <g>
       <use style="stroke:#000000;stroke-width:0.8;" x="630.981818" xlink:href="#m7d23315e56" y="175.467783"/>
      </g>
     </g>
    </g>
    <g id="ytick_14">
     <g id="line2d_35">
      <g>
       <use style="stroke:#000000;stroke-width:0.8;" x="630.981818" xlink:href="#m7d23315e56" y="113.909904"/>
      </g>
     </g>
    </g>
   </g>
   <g id="line2d_36">
    <path clip-path="url(#p2c9eeac833)" d="M 649.428099 395.818044 
L 650.351381 338.367664 
L 651.185313 272.545807 
L 652.108595 255.303287 
L 653.925376 377.381935 
L 654.818875 396.804449 
L 655.742157 420.053217 
L 656.665439 437.187457 
L 657.558937 440.76535 
L 658.482219 433.372894 
L 659.375718 422.25943 
L 660.299 395.818044 
L 661.222282 338.367664 
L 662.056214 272.545807 
L 662.979496 255.303287 
L 664.796277 377.381935 
L 665.689776 396.804449 
L 666.613058 420.053217 
L 667.53634 437.187457 
L 668.429839 440.76535 
L 669.353121 433.372894 
L 670.246619 422.25943 
L 671.169901 395.818044 
L 672.093183 338.367664 
L 672.927115 272.545807 
L 673.850397 255.303287 
L 675.667178 377.381935 
L 676.560677 396.804449 
L 677.483959 420.053217 
L 678.407241 437.187457 
L 679.30074 440.76535 
L 680.224022 433.372894 
L 681.11752 422.25943 
L 682.040802 395.818044 
L 682.964084 338.367664 
L 683.8278 272.545807 
L 684.751082 255.303287 
L 686.567862 377.381935 
L 687.461361 396.804449 
L 688.384643 420.053217 
L 689.307925 437.187457 
L 690.201424 440.76535 
L 691.124706 433.372894 
L 692.018205 422.25943 
L 692.941487 395.818044 
L 693.864769 338.367664 
L 694.698701 272.545807 
L 695.621983 255.303287 
L 697.438764 377.381935 
L 698.332262 396.804449 
L 699.255544 420.053217 
L 700.178826 437.187457 
L 701.072325 440.76535 
L 701.995607 433.372894 
L 702.889106 422.25943 
L 703.812388 395.818044 
L 704.73567 338.367664 
L 705.569602 272.545807 
L 706.492884 255.303287 
L 708.309665 377.381935 
L 709.203163 396.804449 
L 710.126445 420.053217 
L 711.049727 437.187457 
L 711.943226 440.76535 
L 712.866508 433.372894 
L 713.760007 422.25943 
L 714.683289 395.818044 
L 715.606571 338.367664 
L 716.440503 272.545807 
L 717.363785 255.303287 
L 719.180566 377.381935 
L 720.074064 396.804449 
L 720.997346 420.053217 
L 721.920628 437.187457 
L 722.814127 440.76535 
L 723.737409 433.372894 
L 724.630908 422.25943 
L 725.55419 395.818044 
L 726.477472 338.367664 
L 727.341187 272.545807 
L 728.264469 255.303287 
L 730.08125 377.381935 
L 730.974749 396.804449 
L 731.898031 420.053217 
L 732.821313 437.187457 
L 733.714811 440.76535 
L 734.638093 433.372894 
L 735.531592 422.25943 
L 736.454874 395.818044 
L 737.378156 338.367664 
L 738.212088 272.545807 
L 739.13537 255.303287 
L 740.952151 377.381935 
L 741.84565 396.804449 
L 742.768932 420.053217 
L 743.692214 437.187457 
L 744.585712 440.76535 
L 745.508994 433.372894 
L 746.402493 422.25943 
L 747.325775 395.818044 
L 748.249057 338.367664 
L 749.082989 272.545807 
L 750.006271 255.303287 
L 751.823052 377.381935 
L 752.716551 396.804449 
L 753.639833 420.053217 
L 754.563115 437.187457 
L 755.456613 440.76535 
L 756.379895 433.372894 
L 757.273394 422.25943 
L 758.196676 395.818044 
L 759.119958 338.367664 
L 759.95389 272.545807 
L 760.877172 255.303287 
L 762.693953 377.381935 
L 763.587452 396.804449 
L 764.510734 420.053217 
L 765.434016 437.187457 
L 766.327515 440.76535 
L 767.250797 433.372894 
L 768.144295 422.25943 
L 769.067577 395.818044 
L 769.990859 338.367664 
L 770.854575 272.545807 
L 771.777857 255.303287 
L 773.594637 377.381935 
L 774.488136 396.804449 
L 775.411418 420.053217 
L 776.3347 437.187457 
L 777.228199 440.76535 
L 778.151481 433.372894 
L 779.04498 422.25943 
L 779.968262 395.818044 
L 780.891544 338.367664 
L 781.725476 272.545807 
L 782.648758 255.303287 
L 784.465538 377.381935 
L 785.359037 396.804449 
L 786.282319 420.053217 
L 787.205601 437.187457 
L 788.0991 440.76535 
L 789.022382 433.372894 
L 789.915881 422.25943 
L 790.839163 395.818044 
L 791.762445 338.367664 
L 792.596377 272.545807 
L 793.519659 255.303287 
L 795.336439 377.381935 
L 796.229938 396.804449 
L 797.15322 420.053217 
L 798.076502 437.187457 
L 798.970001 440.76535 
L 799.893283 433.372894 
L 800.786782 422.25943 
L 801.710064 395.818044 
L 802.633346 338.367664 
L 803.467278 272.545807 
L 804.39056 255.303287 
L 806.207341 377.381935 
L 807.100839 396.804449 
L 808.024121 420.053217 
L 808.947403 437.187457 
L 809.840902 440.76535 
L 810.764184 433.372894 
L 811.657683 422.25943 
L 812.580965 395.818044 
L 813.504247 338.367664 
L 814.367962 272.545807 
L 815.291244 255.303287 
L 817.108025 377.381935 
L 818.001524 396.804449 
L 818.924806 420.053217 
L 819.848088 437.187457 
L 820.741586 440.76535 
L 821.664868 433.372894 
L 822.558367 422.25943 
L 823.481649 395.818044 
L 824.404931 338.367664 
L 825.238863 272.545807 
L 826.162145 255.303287 
L 827.978926 377.381935 
L 828.872425 396.804449 
L 829.795707 420.053217 
L 830.718989 437.187457 
L 831.612487 440.76535 
L 832.535769 433.372894 
L 833.429268 422.25943 
L 834.35255 395.818044 
L 835.275832 338.367664 
L 836.109764 272.545807 
L 837.033046 255.303287 
L 838.849827 377.381935 
L 839.743326 396.804449 
L 840.666608 420.053217 
L 841.58989 437.187457 
L 842.483388 440.76535 
L 843.40667 433.372894 
L 844.300169 422.25943 
L 845.223451 395.818044 
L 846.146733 338.367664 
L 846.980665 272.545807 
L 847.903947 255.303287 
L 849.720728 377.381935 
L 850.614227 396.804449 
L 851.537509 420.053217 
L 852.460791 437.187457 
L 853.354289 440.76535 
L 854.277571 433.372894 
L 855.17107 422.25943 
L 856.094352 395.818044 
L 857.017634 338.367664 
L 857.88135 272.545807 
L 858.804632 255.303287 
L 860.621412 377.381935 
L 861.514911 396.804449 
L 862.438193 420.053217 
L 863.361475 437.187457 
L 864.254974 440.76535 
L 865.178256 433.372894 
L 866.071755 422.25943 
L 866.995037 395.818044 
L 867.918319 338.367664 
L 868.752251 272.545807 
L 869.675533 255.303287 
L 871.492313 377.381935 
L 872.385812 396.804449 
L 873.309094 420.053217 
L 874.232376 437.187457 
L 875.125875 440.76535 
L 876.049157 433.372894 
L 876.942656 422.25943 
L 877.865938 395.818044 
L 878.78922 338.367664 
L 879.623152 272.545807 
L 880.546434 255.303287 
L 882.363214 377.381935 
L 883.256713 396.804449 
L 884.179995 420.053217 
L 885.103277 437.187457 
L 885.996776 440.76535 
L 886.920058 433.372894 
L 887.813557 422.25943 
L 888.736839 395.818044 
L 889.660121 338.367664 
L 890.494053 272.545807 
L 891.417335 255.303287 
L 893.234115 377.381935 
L 894.127614 396.804449 
L 895.050896 420.053217 
L 895.974178 437.187457 
L 896.867677 440.76535 
L 897.790959 433.372894 
L 898.684458 422.25943 
L 899.60774 395.818044 
L 900.531022 338.367664 
L 901.394737 272.545807 
L 902.318019 255.303287 
L 904.1348 377.381935 
L 905.028299 396.804449 
L 905.951581 420.053217 
L 906.874863 437.187457 
L 907.768361 440.76535 
L 908.691643 433.372894 
L 909.585142 422.25943 
L 910.508424 395.818044 
L 911.431706 338.367664 
L 912.265638 272.545807 
L 913.18892 255.303287 
L 915.005701 377.381935 
L 915.8992 396.804449 
L 916.822482 420.053217 
L 917.745764 437.187457 
L 918.639262 440.76535 
L 919.562544 433.372894 
L 920.456043 422.25943 
L 921.379325 395.818044 
L 922.302607 338.367664 
L 923.136539 272.545807 
L 924.059821 255.303287 
L 925.876602 377.381935 
L 926.770101 396.804449 
L 927.693383 420.053217 
L 928.616665 437.187457 
L 929.510163 440.76535 
L 930.433445 433.372894 
L 931.326944 422.25943 
L 932.250226 395.818044 
L 933.173508 338.367664 
L 934.00744 272.545807 
L 934.930722 255.303287 
L 936.747503 377.381935 
L 937.641002 396.804449 
L 938.564284 420.053217 
L 939.487566 437.187457 
L 940.381064 440.76535 
L 941.304346 433.372894 
L 942.197845 422.25943 
L 943.121127 395.818044 
L 944.044409 338.367664 
L 944.908125 272.545807 
L 945.831407 255.303287 
L 947.648187 377.381935 
L 948.541686 396.804449 
L 949.464968 420.053217 
L 950.38825 437.187457 
L 951.281749 440.76535 
L 952.205031 433.372894 
L 953.098529 422.25943 
L 954.021811 395.818044 
L 954.945093 338.367664 
L 955.779026 272.545807 
L 956.702308 255.303287 
L 958.519088 377.381935 
L 959.412587 396.804449 
L 960.335869 420.053217 
L 961.259151 437.187457 
L 962.15265 440.76535 
L 963.075932 433.372894 
L 963.96943 422.25943 
L 964.892713 395.818044 
L 965.815995 338.367664 
L 966.649927 272.545807 
L 967.573209 255.303287 
L 969.389989 377.381935 
L 970.283488 396.804449 
L 971.20677 420.053217 
L 972.130052 437.187457 
L 973.023551 440.76535 
L 973.946833 433.372894 
L 974.840332 422.25943 
L 975.763614 395.818044 
L 976.686896 338.367664 
L 977.520828 272.545807 
L 978.44411 255.303287 
L 980.26089 377.381935 
L 981.154389 396.804449 
L 982.077671 420.053217 
L 983.000953 437.187457 
L 983.894452 440.76535 
L 984.817734 433.372894 
L 985.711233 422.25943 
L 986.634515 395.818044 
L 987.557797 338.367664 
L 988.421512 272.545807 
L 989.344794 255.303287 
L 991.161575 377.381935 
L 992.055073 396.804449 
L 992.978355 420.053217 
L 993.901637 437.187457 
L 994.795136 440.76535 
L 995.718418 433.372894 
L 996.611917 422.25943 
L 997.535199 395.818044 
L 998.458481 338.367664 
L 999.292413 272.545807 
L 1000.215695 255.303287 
L 1002.032476 377.381935 
L 1002.925975 396.804449 
L 1003.849257 420.053217 
L 1004.772539 437.187457 
L 1005.666037 440.76535 
L 1006.589319 433.372894 
L 1007.482818 422.25943 
L 1008.4061 395.818044 
L 1009.329382 338.367664 
L 1010.163314 272.545807 
L 1011.086596 255.303287 
L 1012.903377 377.381935 
L 1013.796876 396.804449 
L 1014.720158 420.053217 
L 1015.64344 437.187457 
L 1016.536938 440.76535 
L 1017.46022 433.372894 
L 1018.353719 422.25943 
L 1018.353719 422.25943 
" style="fill:none;stroke:#1f77b4;stroke-linecap:square;stroke-width:1.5;"/>
   </g>
   <g id="patch_8">
    <path d="M 630.981818 504 
L 630.981818 69.12 
" style="fill:none;stroke:#000000;stroke-linecap:square;stroke-linejoin:miter;stroke-width:0.8;"/>
   </g>
   <g id="patch_9">
    <path d="M 1036.8 504 
L 1036.8 69.12 
" style="fill:none;stroke:#000000;stroke-linecap:square;stroke-linejoin:miter;stroke-width:0.8;"/>
   </g>
   <g id="patch_10">
    <path d="M 630.981818 504 
L 1036.8 504 
" style="fill:none;stroke:#000000;stroke-linecap:square;stroke-linejoin:miter;stroke-width:0.8;"/>
   </g>
   <g id="patch_11">
    <path d="M 630.981818 69.12 
L 1036.8 69.12 
" style="fill:none;stroke:#000000;stroke-linecap:square;stroke-linejoin:miter;stroke-width:0.8;"/>
   </g>
   <g id="text_29">
    <!-- Average Evaporation -->
    <defs>
     <path d="M 34.1875 63.1875 
L 20.796875 26.90625 
L 47.609375 26.90625 
z
M 28.609375 72.90625 
L 39.796875 72.90625 
L 67.578125 0 
L 57.328125 0 
L 50.6875 18.703125 
L 17.828125 18.703125 
L 11.1875 0 
L 0.78125 0 
z
" id="DejaVuSans-65"/>
     <path d="M 56.203125 29.59375 
L 56.203125 25.203125 
L 14.890625 25.203125 
Q 15.484375 15.921875 20.484375 11.0625 
Q 25.484375 6.203125 34.421875 6.203125 
Q 39.59375 6.203125 44.453125 7.46875 
Q 49.3125 8.734375 54.109375 11.28125 
L 54.109375 2.78125 
Q 49.265625 0.734375 44.1875 -0.34375 
Q 39.109375 -1.421875 33.890625 -1.421875 
Q 20.796875 -1.421875 13.15625 6.1875 
Q 5.515625 13.8125 5.515625 26.8125 
Q 5.515625 40.234375 12.765625 48.109375 
Q 20.015625 56 32.328125 56 
Q 43.359375 56 49.78125 48.890625 
Q 56.203125 41.796875 56.203125 29.59375 
z
M 47.21875 32.234375 
Q 47.125 39.59375 43.09375 43.984375 
Q 39.0625 48.390625 32.421875 48.390625 
Q 24.90625 48.390625 20.390625 44.140625 
Q 15.875 39.890625 15.1875 32.171875 
z
" id="DejaVuSans-101"/>
     <path d="M 45.40625 27.984375 
Q 45.40625 37.75 41.375 43.109375 
Q 37.359375 48.484375 30.078125 48.484375 
Q 22.859375 48.484375 18.828125 43.109375 
Q 14.796875 37.75 14.796875 27.984375 
Q 14.796875 18.265625 18.828125 12.890625 
Q 22.859375 7.515625 30.078125 7.515625 
Q 37.359375 7.515625 41.375 12.890625 
Q 45.40625 18.265625 45.40625 27.984375 
z
M 54.390625 6.78125 
Q 54.390625 -7.171875 48.1875 -13.984375 
Q 42 -20.796875 29.203125 -20.796875 
Q 24.46875 -20.796875 20.265625 -20.09375 
Q 16.0625 -19.390625 12.109375 -17.921875 
L 12.109375 -9.1875 
Q 16.0625 -11.328125 19.921875 -12.34375 
Q 23.78125 -13.375 27.78125 -13.375 
Q 36.625 -13.375 41.015625 -8.765625 
Q 45.40625 -4.15625 45.40625 5.171875 
L 45.40625 9.625 
Q 42.625 4.78125 38.28125 2.390625 
Q 33.9375 0 27.875 0 
Q 17.828125 0 11.671875 7.65625 
Q 5.515625 15.328125 5.515625 27.984375 
Q 5.515625 40.671875 11.671875 48.328125 
Q 17.828125 56 27.875 56 
Q 33.9375 56 38.28125 53.609375 
Q 42.625 51.21875 45.40625 46.390625 
L 45.40625 54.6875 
L 54.390625 54.6875 
z
" id="DejaVuSans-103"/>
    </defs>
    <g transform="translate(770.860909 63.12)scale(0.12 -0.12)">
     <use xlink:href="#DejaVuSans-65"/>
     <use x="68.330078" xlink:href="#DejaVuSans-118"/>
     <use x="127.509766" xlink:href="#DejaVuSans-101"/>
     <use x="189.033203" xlink:href="#DejaVuSans-114"/>
     <use x="230.146484" xlink:href="#DejaVuSans-97"/>
     <use x="291.425781" xlink:href="#DejaVuSans-103"/>
     <use x="354.902344" xlink:href="#DejaVuSans-101"/>
     <use x="416.425781" xlink:href="#DejaVuSans-32"/>
     <use x="448.212891" xlink:href="#DejaVuSans-69"/>
     <use x="511.396484" xlink:href="#DejaVuSans-118"/>
     <use x="570.576172" xlink:href="#DejaVuSans-97"/>
     <use x="631.855469" xlink:href="#DejaVuSans-112"/>
     <use x="695.332031" xlink:href="#DejaVuSans-111"/>
     <use x="756.513672" xlink:href="#DejaVuSans-114"/>
     <use x="797.626953" xlink:href="#DejaVuSans-97"/>
     <use x="858.90625" xlink:href="#DejaVuSans-116"/>
     <use x="898.115234" xlink:href="#DejaVuSans-105"/>
     <use x="925.898438" xlink:href="#DejaVuSans-111"/>
     <use x="987.080078" xlink:href="#DejaVuSans-110"/>
    </g>
   </g>
  </g>
  <g id="text_30">
   <!-- Los Angeles, California -->
   <defs>
    <path d="M 9.8125 72.90625 
L 19.671875 72.90625 
L 19.671875 8.296875 
L 55.171875 8.296875 
L 55.171875 0 
L 9.8125 0 
z
" id="DejaVuSans-76"/>
    <path d="M 44.28125 53.078125 
L 44.28125 44.578125 
Q 40.484375 46.53125 36.375 47.5 
Q 32.28125 48.484375 27.875 48.484375 
Q 21.1875 48.484375 17.84375 46.4375 
Q 14.5 44.390625 14.5 40.28125 
Q 14.5 37.15625 16.890625 35.375 
Q 19.28125 33.59375 26.515625 31.984375 
L 29.59375 31.296875 
Q 39.15625 29.25 43.1875 25.515625 
Q 47.21875 21.78125 47.21875 15.09375 
Q 47.21875 7.46875 41.1875 3.015625 
Q 35.15625 -1.421875 24.609375 -1.421875 
Q 20.21875 -1.421875 15.453125 -0.5625 
Q 10.6875 0.296875 5.421875 2 
L 5.421875 11.28125 
Q 10.40625 8.6875 15.234375 7.390625 
Q 20.0625 6.109375 24.8125 6.109375 
Q 31.15625 6.109375 34.5625 8.28125 
Q 37.984375 10.453125 37.984375 14.40625 
Q 37.984375 18.0625 35.515625 20.015625 
Q 33.0625 21.96875 24.703125 23.78125 
L 21.578125 24.515625 
Q 13.234375 26.265625 9.515625 29.90625 
Q 5.8125 33.546875 5.8125 39.890625 
Q 5.8125 47.609375 11.28125 51.796875 
Q 16.75 56 26.8125 56 
Q 31.78125 56 36.171875 55.265625 
Q 40.578125 54.546875 44.28125 53.078125 
z
" id="DejaVuSans-115"/>
    <path d="M 11.71875 12.40625 
L 22.015625 12.40625 
L 22.015625 4 
L 14.015625 -11.625 
L 7.71875 -11.625 
L 11.71875 4 
z
" id="DejaVuSans-44"/>
    <path d="M 64.40625 67.28125 
L 64.40625 56.890625 
Q 59.421875 61.53125 53.78125 63.8125 
Q 48.140625 66.109375 41.796875 66.109375 
Q 29.296875 66.109375 22.65625 58.46875 
Q 16.015625 50.828125 16.015625 36.375 
Q 16.015625 21.96875 22.65625 14.328125 
Q 29.296875 6.6875 41.796875 6.6875 
Q 48.140625 6.6875 53.78125 8.984375 
Q 59.421875 11.28125 64.40625 15.921875 
L 64.40625 5.609375 
Q 59.234375 2.09375 53.4375 0.328125 
Q 47.65625 -1.421875 41.21875 -1.421875 
Q 24.65625 -1.421875 15.125 8.703125 
Q 5.609375 18.84375 5.609375 36.375 
Q 5.609375 53.953125 15.125 64.078125 
Q 24.65625 74.21875 41.21875 74.21875 
Q 47.75 74.21875 53.53125 72.484375 
Q 59.328125 70.75 64.40625 67.28125 
z
" id="DejaVuSans-67"/>
    <path d="M 37.109375 75.984375 
L 37.109375 68.5 
L 28.515625 68.5 
Q 23.6875 68.5 21.796875 66.546875 
Q 19.921875 64.59375 19.921875 59.515625 
L 19.921875 54.6875 
L 34.71875 54.6875 
L 34.71875 47.703125 
L 19.921875 47.703125 
L 19.921875 0 
L 10.890625 0 
L 10.890625 47.703125 
L 2.296875 47.703125 
L 2.296875 54.6875 
L 10.890625 54.6875 
L 10.890625 58.5 
Q 10.890625 67.625 15.140625 71.796875 
Q 19.390625 75.984375 28.609375 75.984375 
z
" id="DejaVuSans-102"/>
   </defs>
   <g transform="translate(507.6525 20.638125)scale(0.12 -0.12)">
    <use xlink:href="#DejaVuSans-76"/>
    <use x="55.697266" xlink:href="#DejaVuSans-111"/>
    <use x="116.878906" xlink:href="#DejaVuSans-115"/>
    <use x="168.978516" xlink:href="#DejaVuSans-32"/>
    <use x="200.765625" xlink:href="#DejaVuSans-65"/>
    <use x="269.173828" xlink:href="#DejaVuSans-110"/>
    <use x="332.552734" xlink:href="#DejaVuSans-103"/>
    <use x="396.029297" xlink:href="#DejaVuSans-101"/>
    <use x="457.552734" xlink:href="#DejaVuSans-108"/>
    <use x="485.335938" xlink:href="#DejaVuSans-101"/>
    <use x="546.859375" xlink:href="#DejaVuSans-115"/>
    <use x="598.958984" xlink:href="#DejaVuSans-44"/>
    <use x="630.746094" xlink:href="#DejaVuSans-32"/>
    <use x="662.533203" xlink:href="#DejaVuSans-67"/>
    <use x="732.357422" xlink:href="#DejaVuSans-97"/>
    <use x="793.636719" xlink:href="#DejaVuSans-108"/>
    <use x="821.419922" xlink:href="#DejaVuSans-105"/>
    <use x="849.203125" xlink:href="#DejaVuSans-102"/>
    <use x="884.408203" xlink:href="#DejaVuSans-111"/>
    <use x="945.589844" xlink:href="#DejaVuSans-114"/>
    <use x="986.6875" xlink:href="#DejaVuSans-110"/>
    <use x="1050.066406" xlink:href="#DejaVuSans-105"/>
    <use x="1077.849609" xlink:href="#DejaVuSans-97"/>
   </g>
  </g>
 </g>
 <defs>
  <clipPath id="p5f98002ed6">
   <rect height="434.88" width="405.818182" x="144" y="69.12"/>
  </clipPath>
  <clipPath id="p2c9eeac833">
   <rect height="434.88" width="405.818182" x="630.981818" y="69.12"/>
  </clipPath>
 </defs>
</svg>
