<?xml version="1.0" encoding="utf-8" standalone="no"?>
<!DOCTYPE svg PUBLIC "-//W3C//DTD SVG 1.1//EN"
  "http://www.w3.org/Graphics/SVG/1.1/DTD/svg11.dtd">
<!-- Created with matplotlib (https://matplotlib.org/) -->
<svg height="576pt" version="1.1" viewBox="0 0 1152 576" width="1152pt" xmlns="http://www.w3.org/2000/svg" xmlns:xlink="http://www.w3.org/1999/xlink">
 <defs>
  <style type="text/css">
*{stroke-linecap:butt;stroke-linejoin:round;}
  </style>
 </defs>
 <g id="figure_1">
  <g id="patch_1">
   <path d="M 0 576 
L 1152 576 
L 1152 0 
L 0 0 
z
" style="fill:#ffffff;"/>
  </g>
  <g id="axes_1">
   <g id="patch_2">
    <path d="M 144 504 
L 549.818182 504 
L 549.818182 69.12 
L 144 69.12 
z
" style="fill:#ffffff;"/>
   </g>
   <g id="matplotlib.axis_1">
    <g id="xtick_1">
     <g id="line2d_1">
      <defs>
       <path d="M 0 0 
L 0 3.5 
" id="me68bac665b" style="stroke:#000000;stroke-width:0.8;"/>
      </defs>
      <g>
       <use style="stroke:#000000;stroke-width:0.8;" x="151.545597" xlink:href="#me68bac665b" y="504"/>
      </g>
     </g>
     <g id="text_1">
      <!-- 1980 -->
      <defs>
       <path d="M 12.40625 8.296875 
L 28.515625 8.296875 
L 28.515625 63.921875 
L 10.984375 60.40625 
L 10.984375 69.390625 
L 28.421875 72.90625 
L 38.28125 72.90625 
L 38.28125 8.296875 
L 54.390625 8.296875 
L 54.390625 0 
L 12.40625 0 
z
" id="DejaVuSans-49"/>
       <path d="M 10.984375 1.515625 
L 10.984375 10.5 
Q 14.703125 8.734375 18.5 7.8125 
Q 22.3125 6.890625 25.984375 6.890625 
Q 35.75 6.890625 40.890625 13.453125 
Q 46.046875 20.015625 46.78125 33.40625 
Q 43.953125 29.203125 39.59375 26.953125 
Q 35.25 24.703125 29.984375 24.703125 
Q 19.046875 24.703125 12.671875 31.3125 
Q 6.296875 37.9375 6.296875 49.421875 
Q 6.296875 60.640625 12.9375 67.421875 
Q 19.578125 74.21875 30.609375 74.21875 
Q 43.265625 74.21875 49.921875 64.515625 
Q 56.59375 54.828125 56.59375 36.375 
Q 56.59375 19.140625 48.40625 8.859375 
Q 40.234375 -1.421875 26.421875 -1.421875 
Q 22.703125 -1.421875 18.890625 -0.6875 
Q 15.09375 0.046875 10.984375 1.515625 
z
M 30.609375 32.421875 
Q 37.25 32.421875 41.125 36.953125 
Q 45.015625 41.5 45.015625 49.421875 
Q 45.015625 57.28125 41.125 61.84375 
Q 37.25 66.40625 30.609375 66.40625 
Q 23.96875 66.40625 20.09375 61.84375 
Q 16.21875 57.28125 16.21875 49.421875 
Q 16.21875 41.5 20.09375 36.953125 
Q 23.96875 32.421875 30.609375 32.421875 
z
" id="DejaVuSans-57"/>
       <path d="M 31.78125 34.625 
Q 24.75 34.625 20.71875 30.859375 
Q 16.703125 27.09375 16.703125 20.515625 
Q 16.703125 13.921875 20.71875 10.15625 
Q 24.75 6.390625 31.78125 6.390625 
Q 38.8125 6.390625 42.859375 10.171875 
Q 46.921875 13.96875 46.921875 20.515625 
Q 46.921875 27.09375 42.890625 30.859375 
Q 38.875 34.625 31.78125 34.625 
z
M 21.921875 38.8125 
Q 15.578125 40.375 12.03125 44.71875 
Q 8.5 49.078125 8.5 55.328125 
Q 8.5 64.0625 14.71875 69.140625 
Q 20.953125 74.21875 31.78125 74.21875 
Q 42.671875 74.21875 48.875 69.140625 
Q 55.078125 64.0625 55.078125 55.328125 
Q 55.078125 49.078125 51.53125 44.71875 
Q 48 40.375 41.703125 38.8125 
Q 48.828125 37.15625 52.796875 32.3125 
Q 56.78125 27.484375 56.78125 20.515625 
Q 56.78125 9.90625 50.3125 4.234375 
Q 43.84375 -1.421875 31.78125 -1.421875 
Q 19.734375 -1.421875 13.25 4.234375 
Q 6.78125 9.90625 6.78125 20.515625 
Q 6.78125 27.484375 10.78125 32.3125 
Q 14.796875 37.15625 21.921875 38.8125 
z
M 18.3125 54.390625 
Q 18.3125 48.734375 21.84375 45.5625 
Q 25.390625 42.390625 31.78125 42.390625 
Q 38.140625 42.390625 41.71875 45.5625 
Q 45.3125 48.734375 45.3125 54.390625 
Q 45.3125 60.0625 41.71875 63.234375 
Q 38.140625 66.40625 31.78125 66.40625 
Q 25.390625 66.40625 21.84375 63.234375 
Q 18.3125 60.0625 18.3125 54.390625 
z
" id="DejaVuSans-56"/>
       <path d="M 31.78125 66.40625 
Q 24.171875 66.40625 20.328125 58.90625 
Q 16.5 51.421875 16.5 36.375 
Q 16.5 21.390625 20.328125 13.890625 
Q 24.171875 6.390625 31.78125 6.390625 
Q 39.453125 6.390625 43.28125 13.890625 
Q 47.125 21.390625 47.125 36.375 
Q 47.125 51.421875 43.28125 58.90625 
Q 39.453125 66.40625 31.78125 66.40625 
z
M 31.78125 74.21875 
Q 44.046875 74.21875 50.515625 64.515625 
Q 56.984375 54.828125 56.984375 36.375 
Q 56.984375 17.96875 50.515625 8.265625 
Q 44.046875 -1.421875 31.78125 -1.421875 
Q 19.53125 -1.421875 13.0625 8.265625 
Q 6.59375 17.96875 6.59375 36.375 
Q 6.59375 54.828125 13.0625 64.515625 
Q 19.53125 74.21875 31.78125 74.21875 
z
" id="DejaVuSans-48"/>
      </defs>
      <g transform="translate(138.820597 518.598438)scale(0.1 -0.1)">
       <use xlink:href="#DejaVuSans-49"/>
       <use x="63.623047" xlink:href="#DejaVuSans-57"/>
       <use x="127.246094" xlink:href="#DejaVuSans-56"/>
       <use x="190.869141" xlink:href="#DejaVuSans-48"/>
      </g>
     </g>
    </g>
    <g id="xtick_2">
     <g id="line2d_2">
      <g>
       <use style="stroke:#000000;stroke-width:0.8;" x="195.058984" xlink:href="#me68bac665b" y="504"/>
      </g>
     </g>
     <g id="text_2">
      <!-- 1984 -->
      <defs>
       <path d="M 37.796875 64.3125 
L 12.890625 25.390625 
L 37.796875 25.390625 
z
M 35.203125 72.90625 
L 47.609375 72.90625 
L 47.609375 25.390625 
L 58.015625 25.390625 
L 58.015625 17.1875 
L 47.609375 17.1875 
L 47.609375 0 
L 37.796875 0 
L 37.796875 17.1875 
L 4.890625 17.1875 
L 4.890625 26.703125 
z
" id="DejaVuSans-52"/>
      </defs>
      <g transform="translate(182.333984 518.598438)scale(0.1 -0.1)">
       <use xlink:href="#DejaVuSans-49"/>
       <use x="63.623047" xlink:href="#DejaVuSans-57"/>
       <use x="127.246094" xlink:href="#DejaVuSans-56"/>
       <use x="190.869141" xlink:href="#DejaVuSans-52"/>
      </g>
     </g>
    </g>
    <g id="xtick_3">
     <g id="line2d_3">
      <g>
       <use style="stroke:#000000;stroke-width:0.8;" x="238.572372" xlink:href="#me68bac665b" y="504"/>
      </g>
     </g>
     <g id="text_3">
      <!-- 1988 -->
      <g transform="translate(225.847372 518.598438)scale(0.1 -0.1)">
       <use xlink:href="#DejaVuSans-49"/>
       <use x="63.623047" xlink:href="#DejaVuSans-57"/>
       <use x="127.246094" xlink:href="#DejaVuSans-56"/>
       <use x="190.869141" xlink:href="#DejaVuSans-56"/>
      </g>
     </g>
    </g>
    <g id="xtick_4">
     <g id="line2d_4">
      <g>
       <use style="stroke:#000000;stroke-width:0.8;" x="282.085759" xlink:href="#me68bac665b" y="504"/>
      </g>
     </g>
     <g id="text_4">
      <!-- 1992 -->
      <defs>
       <path d="M 19.1875 8.296875 
L 53.609375 8.296875 
L 53.609375 0 
L 7.328125 0 
L 7.328125 8.296875 
Q 12.9375 14.109375 22.625 23.890625 
Q 32.328125 33.6875 34.8125 36.53125 
Q 39.546875 41.84375 41.421875 45.53125 
Q 43.3125 49.21875 43.3125 52.78125 
Q 43.3125 58.59375 39.234375 62.25 
Q 35.15625 65.921875 28.609375 65.921875 
Q 23.96875 65.921875 18.8125 64.3125 
Q 13.671875 62.703125 7.8125 59.421875 
L 7.8125 69.390625 
Q 13.765625 71.78125 18.9375 73 
Q 24.125 74.21875 28.421875 74.21875 
Q 39.75 74.21875 46.484375 68.546875 
Q 53.21875 62.890625 53.21875 53.421875 
Q 53.21875 48.921875 51.53125 44.890625 
Q 49.859375 40.875 45.40625 35.40625 
Q 44.1875 33.984375 37.640625 27.21875 
Q 31.109375 20.453125 19.1875 8.296875 
z
" id="DejaVuSans-50"/>
      </defs>
      <g transform="translate(269.360759 518.598438)scale(0.1 -0.1)">
       <use xlink:href="#DejaVuSans-49"/>
       <use x="63.623047" xlink:href="#DejaVuSans-57"/>
       <use x="127.246094" xlink:href="#DejaVuSans-57"/>
       <use x="190.869141" xlink:href="#DejaVuSans-50"/>
      </g>
     </g>
    </g>
    <g id="xtick_5">
     <g id="line2d_5">
      <g>
       <use style="stroke:#000000;stroke-width:0.8;" x="325.599147" xlink:href="#me68bac665b" y="504"/>
      </g>
     </g>
     <g id="text_5">
      <!-- 1996 -->
      <defs>
       <path d="M 33.015625 40.375 
Q 26.375 40.375 22.484375 35.828125 
Q 18.609375 31.296875 18.609375 23.390625 
Q 18.609375 15.53125 22.484375 10.953125 
Q 26.375 6.390625 33.015625 6.390625 
Q 39.65625 6.390625 43.53125 10.953125 
Q 47.40625 15.53125 47.40625 23.390625 
Q 47.40625 31.296875 43.53125 35.828125 
Q 39.65625 40.375 33.015625 40.375 
z
M 52.59375 71.296875 
L 52.59375 62.3125 
Q 48.875 64.0625 45.09375 64.984375 
Q 41.3125 65.921875 37.59375 65.921875 
Q 27.828125 65.921875 22.671875 59.328125 
Q 17.53125 52.734375 16.796875 39.40625 
Q 19.671875 43.65625 24.015625 45.921875 
Q 28.375 48.1875 33.59375 48.1875 
Q 44.578125 48.1875 50.953125 41.515625 
Q 57.328125 34.859375 57.328125 23.390625 
Q 57.328125 12.15625 50.6875 5.359375 
Q 44.046875 -1.421875 33.015625 -1.421875 
Q 20.359375 -1.421875 13.671875 8.265625 
Q 6.984375 17.96875 6.984375 36.375 
Q 6.984375 53.65625 15.1875 63.9375 
Q 23.390625 74.21875 37.203125 74.21875 
Q 40.921875 74.21875 44.703125 73.484375 
Q 48.484375 72.75 52.59375 71.296875 
z
" id="DejaVuSans-54"/>
      </defs>
      <g transform="translate(312.874147 518.598438)scale(0.1 -0.1)">
       <use xlink:href="#DejaVuSans-49"/>
       <use x="63.623047" xlink:href="#DejaVuSans-57"/>
       <use x="127.246094" xlink:href="#DejaVuSans-57"/>
       <use x="190.869141" xlink:href="#DejaVuSans-54"/>
      </g>
     </g>
    </g>
    <g id="xtick_6">
     <g id="line2d_6">
      <g>
       <use style="stroke:#000000;stroke-width:0.8;" x="369.112534" xlink:href="#me68bac665b" y="504"/>
      </g>
     </g>
     <g id="text_6">
      <!-- 2000 -->
      <g transform="translate(356.387534 518.598438)scale(0.1 -0.1)">
       <use xlink:href="#DejaVuSans-50"/>
       <use x="63.623047" xlink:href="#DejaVuSans-48"/>
       <use x="127.246094" xlink:href="#DejaVuSans-48"/>
       <use x="190.869141" xlink:href="#DejaVuSans-48"/>
      </g>
     </g>
    </g>
    <g id="xtick_7">
     <g id="line2d_7">
      <g>
       <use style="stroke:#000000;stroke-width:0.8;" x="412.625921" xlink:href="#me68bac665b" y="504"/>
      </g>
     </g>
     <g id="text_7">
      <!-- 2004 -->
      <g transform="translate(399.900921 518.598438)scale(0.1 -0.1)">
       <use xlink:href="#DejaVuSans-50"/>
       <use x="63.623047" xlink:href="#DejaVuSans-48"/>
       <use x="127.246094" xlink:href="#DejaVuSans-48"/>
       <use x="190.869141" xlink:href="#DejaVuSans-52"/>
      </g>
     </g>
    </g>
    <g id="xtick_8">
     <g id="line2d_8">
      <g>
       <use style="stroke:#000000;stroke-width:0.8;" x="456.139309" xlink:href="#me68bac665b" y="504"/>
      </g>
     </g>
     <g id="text_8">
      <!-- 2008 -->
      <g transform="translate(443.414309 518.598438)scale(0.1 -0.1)">
       <use xlink:href="#DejaVuSans-50"/>
       <use x="63.623047" xlink:href="#DejaVuSans-48"/>
       <use x="127.246094" xlink:href="#DejaVuSans-48"/>
       <use x="190.869141" xlink:href="#DejaVuSans-56"/>
      </g>
     </g>
    </g>
    <g id="xtick_9">
     <g id="line2d_9">
      <g>
       <use style="stroke:#000000;stroke-width:0.8;" x="499.652696" xlink:href="#me68bac665b" y="504"/>
      </g>
     </g>
     <g id="text_9">
      <!-- 2012 -->
      <g transform="translate(486.927696 518.598438)scale(0.1 -0.1)">
       <use xlink:href="#DejaVuSans-50"/>
       <use x="63.623047" xlink:href="#DejaVuSans-48"/>
       <use x="127.246094" xlink:href="#DejaVuSans-49"/>
       <use x="190.869141" xlink:href="#DejaVuSans-50"/>
      </g>
     </g>
    </g>
    <g id="xtick_10">
     <g id="line2d_10">
      <g>
       <use style="stroke:#000000;stroke-width:0.8;" x="543.166084" xlink:href="#me68bac665b" y="504"/>
      </g>
     </g>
     <g id="text_10">
      <!-- 2016 -->
      <g transform="translate(530.441084 518.598438)scale(0.1 -0.1)">
       <use xlink:href="#DejaVuSans-50"/>
       <use x="63.623047" xlink:href="#DejaVuSans-48"/>
       <use x="127.246094" xlink:href="#DejaVuSans-49"/>
       <use x="190.869141" xlink:href="#DejaVuSans-54"/>
      </g>
     </g>
    </g>
   </g>
   <g id="matplotlib.axis_2">
    <g id="ytick_1">
     <g id="line2d_11">
      <defs>
       <path d="M 0 0 
L -3.5 0 
" id="m66bffea840" style="stroke:#000000;stroke-width:0.8;"/>
      </defs>
      <g>
       <use style="stroke:#000000;stroke-width:0.8;" x="144" xlink:href="#m66bffea840" y="490.992049"/>
      </g>
     </g>
     <g id="text_11">
      <!-- 0.000 -->
      <defs>
       <path d="M 10.6875 12.40625 
L 21 12.40625 
L 21 0 
L 10.6875 0 
z
" id="DejaVuSans-46"/>
      </defs>
      <g transform="translate(108.371875 494.791268)scale(0.1 -0.1)">
       <use xlink:href="#DejaVuSans-48"/>
       <use x="63.623047" xlink:href="#DejaVuSans-46"/>
       <use x="95.410156" xlink:href="#DejaVuSans-48"/>
       <use x="159.033203" xlink:href="#DejaVuSans-48"/>
       <use x="222.65625" xlink:href="#DejaVuSans-48"/>
      </g>
     </g>
    </g>
    <g id="ytick_2">
     <g id="line2d_12">
      <g>
       <use style="stroke:#000000;stroke-width:0.8;" x="144" xlink:href="#m66bffea840" y="435.791009"/>
      </g>
     </g>
     <g id="text_12">
      <!-- 0.025 -->
      <defs>
       <path d="M 10.796875 72.90625 
L 49.515625 72.90625 
L 49.515625 64.59375 
L 19.828125 64.59375 
L 19.828125 46.734375 
Q 21.96875 47.46875 24.109375 47.828125 
Q 26.265625 48.1875 28.421875 48.1875 
Q 40.625 48.1875 47.75 41.5 
Q 54.890625 34.8125 54.890625 23.390625 
Q 54.890625 11.625 47.5625 5.09375 
Q 40.234375 -1.421875 26.90625 -1.421875 
Q 22.3125 -1.421875 17.546875 -0.640625 
Q 12.796875 0.140625 7.71875 1.703125 
L 7.71875 11.625 
Q 12.109375 9.234375 16.796875 8.0625 
Q 21.484375 6.890625 26.703125 6.890625 
Q 35.15625 6.890625 40.078125 11.328125 
Q 45.015625 15.765625 45.015625 23.390625 
Q 45.015625 31 40.078125 35.4375 
Q 35.15625 39.890625 26.703125 39.890625 
Q 22.75 39.890625 18.8125 39.015625 
Q 14.890625 38.140625 10.796875 36.28125 
z
" id="DejaVuSans-53"/>
      </defs>
      <g transform="translate(108.371875 439.590228)scale(0.1 -0.1)">
       <use xlink:href="#DejaVuSans-48"/>
       <use x="63.623047" xlink:href="#DejaVuSans-46"/>
       <use x="95.410156" xlink:href="#DejaVuSans-48"/>
       <use x="159.033203" xlink:href="#DejaVuSans-50"/>
       <use x="222.65625" xlink:href="#DejaVuSans-53"/>
      </g>
     </g>
    </g>
    <g id="ytick_3">
     <g id="line2d_13">
      <g>
       <use style="stroke:#000000;stroke-width:0.8;" x="144" xlink:href="#m66bffea840" y="380.589969"/>
      </g>
     </g>
     <g id="text_13">
      <!-- 0.050 -->
      <g transform="translate(108.371875 384.389188)scale(0.1 -0.1)">
       <use xlink:href="#DejaVuSans-48"/>
       <use x="63.623047" xlink:href="#DejaVuSans-46"/>
       <use x="95.410156" xlink:href="#DejaVuSans-48"/>
       <use x="159.033203" xlink:href="#DejaVuSans-53"/>
       <use x="222.65625" xlink:href="#DejaVuSans-48"/>
      </g>
     </g>
    </g>
    <g id="ytick_4">
     <g id="line2d_14">
      <g>
       <use style="stroke:#000000;stroke-width:0.8;" x="144" xlink:href="#m66bffea840" y="325.38893"/>
      </g>
     </g>
     <g id="text_14">
      <!-- 0.075 -->
      <defs>
       <path d="M 8.203125 72.90625 
L 55.078125 72.90625 
L 55.078125 68.703125 
L 28.609375 0 
L 18.3125 0 
L 43.21875 64.59375 
L 8.203125 64.59375 
z
" id="DejaVuSans-55"/>
      </defs>
      <g transform="translate(108.371875 329.188149)scale(0.1 -0.1)">
       <use xlink:href="#DejaVuSans-48"/>
       <use x="63.623047" xlink:href="#DejaVuSans-46"/>
       <use x="95.410156" xlink:href="#DejaVuSans-48"/>
       <use x="159.033203" xlink:href="#DejaVuSans-55"/>
       <use x="222.65625" xlink:href="#DejaVuSans-53"/>
      </g>
     </g>
    </g>
    <g id="ytick_5">
     <g id="line2d_15">
      <g>
       <use style="stroke:#000000;stroke-width:0.8;" x="144" xlink:href="#m66bffea840" y="270.18789"/>
      </g>
     </g>
     <g id="text_15">
      <!-- 0.100 -->
      <g transform="translate(108.371875 273.987109)scale(0.1 -0.1)">
       <use xlink:href="#DejaVuSans-48"/>
       <use x="63.623047" xlink:href="#DejaVuSans-46"/>
       <use x="95.410156" xlink:href="#DejaVuSans-49"/>
       <use x="159.033203" xlink:href="#DejaVuSans-48"/>
       <use x="222.65625" xlink:href="#DejaVuSans-48"/>
      </g>
     </g>
    </g>
    <g id="ytick_6">
     <g id="line2d_16">
      <g>
       <use style="stroke:#000000;stroke-width:0.8;" x="144" xlink:href="#m66bffea840" y="214.98685"/>
      </g>
     </g>
     <g id="text_16">
      <!-- 0.125 -->
      <g transform="translate(108.371875 218.786069)scale(0.1 -0.1)">
       <use xlink:href="#DejaVuSans-48"/>
       <use x="63.623047" xlink:href="#DejaVuSans-46"/>
       <use x="95.410156" xlink:href="#DejaVuSans-49"/>
       <use x="159.033203" xlink:href="#DejaVuSans-50"/>
       <use x="222.65625" xlink:href="#DejaVuSans-53"/>
      </g>
     </g>
    </g>
    <g id="ytick_7">
     <g id="line2d_17">
      <g>
       <use style="stroke:#000000;stroke-width:0.8;" x="144" xlink:href="#m66bffea840" y="159.785811"/>
      </g>
     </g>
     <g id="text_17">
      <!-- 0.150 -->
      <g transform="translate(108.371875 163.585029)scale(0.1 -0.1)">
       <use xlink:href="#DejaVuSans-48"/>
       <use x="63.623047" xlink:href="#DejaVuSans-46"/>
       <use x="95.410156" xlink:href="#DejaVuSans-49"/>
       <use x="159.033203" xlink:href="#DejaVuSans-53"/>
       <use x="222.65625" xlink:href="#DejaVuSans-48"/>
      </g>
     </g>
    </g>
    <g id="ytick_8">
     <g id="line2d_18">
      <g>
       <use style="stroke:#000000;stroke-width:0.8;" x="144" xlink:href="#m66bffea840" y="104.584771"/>
      </g>
     </g>
     <g id="text_18">
      <!-- 0.175 -->
      <g transform="translate(108.371875 108.38399)scale(0.1 -0.1)">
       <use xlink:href="#DejaVuSans-48"/>
       <use x="63.623047" xlink:href="#DejaVuSans-46"/>
       <use x="95.410156" xlink:href="#DejaVuSans-49"/>
       <use x="159.033203" xlink:href="#DejaVuSans-55"/>
       <use x="222.65625" xlink:href="#DejaVuSans-53"/>
      </g>
     </g>
    </g>
   </g>
   <g id="line2d_19">
    <path clip-path="url(#pf732affc35)" d="M 162.446281 463.973224 
L 163.369563 427.253589 
L 165.126777 315.159502 
L 166.020276 266.659331 
L 166.943558 266.312068 
L 167.837057 340.911429 
L 168.760339 366.64406 
L 169.683621 438.43951 
L 170.577119 466.894024 
L 171.500401 444.92549 
L 172.3939 448.940036 
L 173.317182 429.359027 
L 174.240464 416.676421 
L 175.074396 391.268404 
L 175.997678 413.554936 
L 176.891177 296.356241 
L 177.814459 215.024282 
L 178.707958 403.418209 
L 179.63124 257.118091 
L 180.554522 344.154393 
L 181.44802 407.792741 
L 182.371302 431.226759 
L 183.264801 449.204243 
L 184.188083 435.559156 
L 185.111365 403.954295 
L 185.945297 361.712327 
L 186.868579 280.110123 
L 187.762078 243.416681 
L 188.68536 104.141634 
L 189.578859 104.75392 
L 190.502141 176.850822 
L 192.318921 460.086023 
L 193.242203 444.635353 
L 194.135702 452.101348 
L 195.058984 427.644791 
L 195.982266 407.941486 
L 197.769264 298.331359 
L 198.662762 174.72142 
L 199.586044 124.541621 
L 200.479543 231.223911 
L 201.402825 229.444114 
L 202.326107 344.167565 
L 203.219606 390.829616 
L 204.142888 412.290463 
L 205.036386 427.276388 
L 205.959668 436.538518 
L 206.88295 406.109584 
L 208.640165 288.323744 
L 209.533663 198.740235 
L 210.456945 201.404117 
L 211.350444 316.760103 
L 212.273726 352.638363 
L 213.197008 362.560598 
L 215.013789 428.078958 
L 215.907287 445.076121 
L 216.83057 435.566083 
L 217.753852 404.409022 
L 218.587784 360.784884 
L 220.404564 254.776828 
L 221.327846 209.026428 
L 222.221345 363.905441 
L 223.144627 392.081679 
L 224.067909 442.182891 
L 224.961408 417.060907 
L 225.88469 418.164076 
L 226.778189 452.741362 
L 227.701471 435.125165 
L 228.624753 407.023411 
L 230.381967 292.00017 
L 231.275465 214.260283 
L 232.198747 158.403363 
L 233.092246 330.833211 
L 234.015528 370.563892 
L 234.93881 370.102439 
L 235.832309 440.009275 
L 236.755591 425.516788 
L 237.64909 432.680874 
L 238.572372 422.056461 
L 239.495654 402.343093 
L 240.359369 367.167245 
L 241.282651 288.070991 
L 242.17615 256.112987 
L 243.099432 168.51896 
L 243.99293 389.284705 
L 244.916212 309.314336 
L 245.839494 420.034621 
L 246.732993 481.235925 
L 247.656275 474.120672 
L 248.549774 443.821871 
L 249.473056 436.974011 
L 250.396338 403.337005 
L 251.23027 355.098944 
L 252.153552 308.334767 
L 253.047051 271.814883 
L 253.970333 262.809325 
L 254.863832 413.440415 
L 255.787114 318.194668 
L 256.710396 372.815183 
L 257.603894 453.492356 
L 258.527176 466.309139 
L 260.343957 438.796498 
L 261.267239 419.943365 
L 262.101171 361.719519 
L 263.024453 316.446934 
L 263.917952 287.576222 
L 264.841234 369.864133 
L 265.734733 291.641591 
L 266.658015 305.917544 
L 267.581297 405.163731 
L 268.474795 397.256859 
L 269.398077 424.8813 
L 270.291576 440.924252 
L 271.214858 438.712413 
L 272.13814 438.428525 
L 272.972072 407.542693 
L 273.895354 378.287262 
L 274.788853 277.171311 
L 275.712135 275.22179 
L 276.605634 311.034152 
L 277.528916 288.488473 
L 278.452198 431.141493 
L 279.345696 457.428071 
L 280.268978 431.141778 
L 281.162477 440.555849 
L 282.085759 421.62746 
L 283.009041 397.836594 
L 283.872756 326.3318 
L 284.796039 263.960774 
L 285.689537 232.412501 
L 286.612819 158.582642 
L 287.506318 304.413484 
L 288.4296 353.760485 
L 289.352882 389.305752 
L 290.246381 474.588224 
L 291.169663 436.849158 
L 292.986443 433.582348 
L 293.909725 405.249728 
L 294.743658 362.684487 
L 295.66694 279.531123 
L 296.560438 276.992281 
L 297.48372 314.342693 
L 298.377219 414.954693 
L 299.300501 403.066179 
L 300.223783 365.340887 
L 301.117282 420.105918 
L 302.040564 422.088011 
L 302.934062 447.866542 
L 303.857344 446.359118 
L 304.780626 395.096617 
L 306.537841 314.230193 
L 307.431339 240.038169 
L 308.354621 319.5492 
L 309.24812 408.053168 
L 310.171402 366.59094 
L 311.094684 425.998987 
L 311.988183 416.023907 
L 312.911465 420.919717 
L 313.804963 446.116391 
L 314.728245 442.717407 
L 315.651527 397.394199 
L 316.48546 338.706833 
L 317.408742 317.500961 
L 318.30224 238.787214 
L 319.225522 116.79854 
L 320.119021 137.159065 
L 321.965585 375.220437 
L 322.859084 401.664091 
L 323.782366 424.996599 
L 324.675865 442.95974 
L 326.522429 397.761338 
L 327.386144 339.204618 
L 328.309426 287.70752 
L 329.202925 252.243499 
L 330.126207 159.890883 
L 331.019705 237.451698 
L 331.942987 363.958986 
L 332.866269 362.281958 
L 333.759768 411.837478 
L 334.68305 418.656689 
L 335.576549 418.916442 
L 336.499831 426.33111 
L 337.423113 402.446298 
L 338.257045 328.092747 
L 339.180327 302.818873 
L 340.073826 216.240375 
L 340.997108 88.887273 
L 341.890606 171.993806 
L 342.813888 199.277368 
L 343.73717 296.201895 
L 344.630669 402.019168 
L 346.44745 437.810343 
L 347.370732 422.611605 
L 348.294014 423.157961 
L 349.127946 352.858597 
L 350.051228 265.250528 
L 350.944727 160.885064 
L 351.868009 119.779177 
L 352.761507 175.568758 
L 353.68479 211.441101 
L 354.608072 396.847315 
L 355.50157 458.307379 
L 356.424852 433.12985 
L 357.318351 449.003489 
L 358.241633 419.694524 
L 359.164915 384.507246 
L 359.998847 341.955673 
L 360.922129 318.72149 
L 361.815628 208.857138 
L 362.73891 119.35786 
L 363.632409 241.478538 
L 364.555691 286.919293 
L 365.478973 425.709695 
L 366.372471 432.712595 
L 367.295753 457.673217 
L 368.189252 439.677697 
L 369.112534 425.001081 
L 370.035816 433.79795 
L 370.899531 396.309622 
L 371.822813 334.648605 
L 372.716312 262.247611 
L 373.639594 391.473197 
L 374.533093 341.992141 
L 375.456375 336.309165 
L 376.379657 327.282715 
L 377.273156 428.952794 
L 378.196438 418.104447 
L 379.089936 436.53159 
L 380.013218 430.539995 
L 380.9365 401.440946 
L 383.587213 244.275356 
L 384.510495 303.366991 
L 385.403994 321.007673 
L 386.327276 361.561484 
L 387.250558 409.905179 
L 388.144057 478.043117 
L 389.067339 459.438939 
L 389.960837 437.346585 
L 390.884119 428.109896 
L 391.807401 394.862849 
L 392.641334 352.012419 
L 393.564616 282.038048 
L 394.458114 231.991102 
L 395.381396 247.928217 
L 396.274895 359.107742 
L 397.198177 429.287062 
L 398.121459 358.624776 
L 399.014958 429.418583 
L 399.93824 431.26376 
L 400.831738 454.560821 
L 401.75502 442.563046 
L 402.678302 412.184844 
L 403.512235 366.580629 
L 404.435517 270.705881 
L 405.329015 197.17406 
L 406.252297 142.366991 
L 407.145796 221.634586 
L 408.069078 390.767604 
L 408.99236 379.55575 
L 409.885859 481.352567 
L 410.809141 457.614501 
L 411.702639 442.750289 
L 412.625921 437.814291 
L 413.549203 390.465637 
L 414.412919 353.573299 
L 415.336201 329.656445 
L 416.2297 242.706155 
L 417.152982 267.648331 
L 418.04648 207.261304 
L 418.969762 308.018323 
L 419.893044 367.090808 
L 421.709825 426.966877 
L 422.603324 440.944875 
L 424.449888 413.139444 
L 425.28382 372.644204 
L 426.207102 294.990154 
L 427.100601 236.237843 
L 428.023883 163.128645 
L 428.917381 420.32438 
L 429.840663 291.534541 
L 430.763945 447.944964 
L 431.657444 416.282908 
L 432.580726 417.18003 
L 433.474225 435.106009 
L 434.397507 441.364896 
L 435.320789 399.901393 
L 436.154721 349.794176 
L 437.078003 330.322991 
L 438.894784 427.189106 
L 439.788282 234.203283 
L 440.711564 298.235336 
L 441.634846 428.082087 
L 442.528345 416.924292 
L 443.451627 423.22932 
L 444.345126 447.158159 
L 445.268408 437.279402 
L 446.19169 398.32643 
L 447.025622 315.046856 
L 447.948904 271.516762 
L 448.842403 182.08447 
L 449.765685 118.386312 
L 450.659183 297.863181 
L 451.582465 297.202418 
L 452.505747 424.449859 
L 453.399246 444.743439 
L 454.322528 442.898153 
L 456.139309 410.617016 
L 457.062591 399.434065 
L 457.926306 356.513644 
L 458.849588 323.281265 
L 459.743087 281.326258 
L 460.666369 425.965484 
L 461.559868 426.828257 
L 462.48315 289.101173 
L 463.406432 350.955895 
L 464.299931 433.484807 
L 465.223213 466.889498 
L 466.116711 443.294914 
L 467.039993 423.819009 
L 467.963275 418.738526 
L 468.797207 395.641211 
L 469.720489 323.223046 
L 471.53727 160.367994 
L 472.430769 211.200121 
L 473.354051 361.247724 
L 475.170832 423.402749 
L 476.094114 426.519488 
L 476.987612 431.735731 
L 477.910894 433.404644 
L 478.834176 415.001709 
L 479.668108 337.948793 
L 480.59139 279.779855 
L 482.408171 135.782656 
L 483.30167 291.668638 
L 485.148234 484.232727 
L 486.041733 458.815565 
L 486.965015 449.646176 
L 487.858513 459.492088 
L 489.705077 405.826085 
L 490.53901 392.841336 
L 491.462292 382.845151 
L 492.35579 306.681356 
L 493.279072 313.809104 
L 494.172571 226.001062 
L 495.095853 347.179932 
L 496.019135 394.165733 
L 496.912634 425.303829 
L 497.835916 424.747862 
L 498.729414 443.073743 
L 499.652696 423.026626 
L 500.575978 393.286891 
L 501.439694 327.042471 
L 502.362976 285.269427 
L 503.256475 236.210381 
L 504.179757 290.504069 
L 505.073255 283.648328 
L 505.996537 398.409749 
L 506.919819 400.424153 
L 507.813318 430.07302 
L 508.7366 467.928276 
L 509.630099 466.511204 
L 510.553381 447.634228 
L 511.476663 440.496671 
L 512.310595 392.573287 
L 513.233877 385.958143 
L 514.127376 284.969813 
L 515.050658 419.660099 
L 516.867438 336.25763 
L 517.79072 335.727296 
L 518.684219 391.630963 
L 519.607501 438.741201 
L 520.501 445.847281 
L 523.181496 376.125133 
L 524.104778 335.36225 
L 524.998277 272.676149 
L 525.921559 321.191688 
L 526.815057 309.085978 
L 527.738339 251.757041 
L 528.661621 344.26079 
L 529.55512 391.64402 
L 530.478402 432.652184 
L 531.371901 442.513879 
L 531.371901 442.513879 
" style="fill:none;stroke:#1f77b4;stroke-linecap:square;stroke-width:1.5;"/>
   </g>
   <g id="patch_3">
    <path d="M 144 504 
L 144 69.12 
" style="fill:none;stroke:#000000;stroke-linecap:square;stroke-linejoin:miter;stroke-width:0.8;"/>
   </g>
   <g id="patch_4">
    <path d="M 549.818182 504 
L 549.818182 69.12 
" style="fill:none;stroke:#000000;stroke-linecap:square;stroke-linejoin:miter;stroke-width:0.8;"/>
   </g>
   <g id="patch_5">
    <path d="M 144 504 
L 549.818182 504 
" style="fill:none;stroke:#000000;stroke-linecap:square;stroke-linejoin:miter;stroke-width:0.8;"/>
   </g>
   <g id="patch_6">
    <path d="M 144 69.12 
L 549.818182 69.12 
" style="fill:none;stroke:#000000;stroke-linecap:square;stroke-linejoin:miter;stroke-width:0.8;"/>
   </g>
   <g id="text_19">
    <!-- Monthly Evaporation -->
    <defs>
     <path d="M 9.8125 72.90625 
L 24.515625 72.90625 
L 43.109375 23.296875 
L 61.8125 72.90625 
L 76.515625 72.90625 
L 76.515625 0 
L 66.890625 0 
L 66.890625 64.015625 
L 48.09375 14.015625 
L 38.1875 14.015625 
L 19.390625 64.015625 
L 19.390625 0 
L 9.8125 0 
z
" id="DejaVuSans-77"/>
     <path d="M 30.609375 48.390625 
Q 23.390625 48.390625 19.1875 42.75 
Q 14.984375 37.109375 14.984375 27.296875 
Q 14.984375 17.484375 19.15625 11.84375 
Q 23.34375 6.203125 30.609375 6.203125 
Q 37.796875 6.203125 41.984375 11.859375 
Q 46.1875 17.53125 46.1875 27.296875 
Q 46.1875 37.015625 41.984375 42.703125 
Q 37.796875 48.390625 30.609375 48.390625 
z
M 30.609375 56 
Q 42.328125 56 49.015625 48.375 
Q 55.71875 40.765625 55.71875 27.296875 
Q 55.71875 13.875 49.015625 6.21875 
Q 42.328125 -1.421875 30.609375 -1.421875 
Q 18.84375 -1.421875 12.171875 6.21875 
Q 5.515625 13.875 5.515625 27.296875 
Q 5.515625 40.765625 12.171875 48.375 
Q 18.84375 56 30.609375 56 
z
" id="DejaVuSans-111"/>
     <path d="M 54.890625 33.015625 
L 54.890625 0 
L 45.90625 0 
L 45.90625 32.71875 
Q 45.90625 40.484375 42.875 44.328125 
Q 39.84375 48.1875 33.796875 48.1875 
Q 26.515625 48.1875 22.3125 43.546875 
Q 18.109375 38.921875 18.109375 30.90625 
L 18.109375 0 
L 9.078125 0 
L 9.078125 54.6875 
L 18.109375 54.6875 
L 18.109375 46.1875 
Q 21.34375 51.125 25.703125 53.5625 
Q 30.078125 56 35.796875 56 
Q 45.21875 56 50.046875 50.171875 
Q 54.890625 44.34375 54.890625 33.015625 
z
" id="DejaVuSans-110"/>
     <path d="M 18.3125 70.21875 
L 18.3125 54.6875 
L 36.8125 54.6875 
L 36.8125 47.703125 
L 18.3125 47.703125 
L 18.3125 18.015625 
Q 18.3125 11.328125 20.140625 9.421875 
Q 21.96875 7.515625 27.59375 7.515625 
L 36.8125 7.515625 
L 36.8125 0 
L 27.59375 0 
Q 17.1875 0 13.234375 3.875 
Q 9.28125 7.765625 9.28125 18.015625 
L 9.28125 47.703125 
L 2.6875 47.703125 
L 2.6875 54.6875 
L 9.28125 54.6875 
L 9.28125 70.21875 
z
" id="DejaVuSans-116"/>
     <path d="M 54.890625 33.015625 
L 54.890625 0 
L 45.90625 0 
L 45.90625 32.71875 
Q 45.90625 40.484375 42.875 44.328125 
Q 39.84375 48.1875 33.796875 48.1875 
Q 26.515625 48.1875 22.3125 43.546875 
Q 18.109375 38.921875 18.109375 30.90625 
L 18.109375 0 
L 9.078125 0 
L 9.078125 75.984375 
L 18.109375 75.984375 
L 18.109375 46.1875 
Q 21.34375 51.125 25.703125 53.5625 
Q 30.078125 56 35.796875 56 
Q 45.21875 56 50.046875 50.171875 
Q 54.890625 44.34375 54.890625 33.015625 
z
" id="DejaVuSans-104"/>
     <path d="M 9.421875 75.984375 
L 18.40625 75.984375 
L 18.40625 0 
L 9.421875 0 
z
" id="DejaVuSans-108"/>
     <path d="M 32.171875 -5.078125 
Q 28.375 -14.84375 24.75 -17.8125 
Q 21.140625 -20.796875 15.09375 -20.796875 
L 7.90625 -20.796875 
L 7.90625 -13.28125 
L 13.1875 -13.28125 
Q 16.890625 -13.28125 18.9375 -11.515625 
Q 21 -9.765625 23.484375 -3.21875 
L 25.09375 0.875 
L 2.984375 54.6875 
L 12.5 54.6875 
L 29.59375 11.921875 
L 46.6875 54.6875 
L 56.203125 54.6875 
z
" id="DejaVuSans-121"/>
     <path id="DejaVuSans-32"/>
     <path d="M 9.8125 72.90625 
L 55.90625 72.90625 
L 55.90625 64.59375 
L 19.671875 64.59375 
L 19.671875 43.015625 
L 54.390625 43.015625 
L 54.390625 34.71875 
L 19.671875 34.71875 
L 19.671875 8.296875 
L 56.78125 8.296875 
L 56.78125 0 
L 9.8125 0 
z
" id="DejaVuSans-69"/>
     <path d="M 2.984375 54.6875 
L 12.5 54.6875 
L 29.59375 8.796875 
L 46.6875 54.6875 
L 56.203125 54.6875 
L 35.6875 0 
L 23.484375 0 
z
" id="DejaVuSans-118"/>
     <path d="M 34.28125 27.484375 
Q 23.390625 27.484375 19.1875 25 
Q 14.984375 22.515625 14.984375 16.5 
Q 14.984375 11.71875 18.140625 8.90625 
Q 21.296875 6.109375 26.703125 6.109375 
Q 34.1875 6.109375 38.703125 11.40625 
Q 43.21875 16.703125 43.21875 25.484375 
L 43.21875 27.484375 
z
M 52.203125 31.203125 
L 52.203125 0 
L 43.21875 0 
L 43.21875 8.296875 
Q 40.140625 3.328125 35.546875 0.953125 
Q 30.953125 -1.421875 24.3125 -1.421875 
Q 15.921875 -1.421875 10.953125 3.296875 
Q 6 8.015625 6 15.921875 
Q 6 25.140625 12.171875 29.828125 
Q 18.359375 34.515625 30.609375 34.515625 
L 43.21875 34.515625 
L 43.21875 35.40625 
Q 43.21875 41.609375 39.140625 45 
Q 35.0625 48.390625 27.6875 48.390625 
Q 23 48.390625 18.546875 47.265625 
Q 14.109375 46.140625 10.015625 43.890625 
L 10.015625 52.203125 
Q 14.9375 54.109375 19.578125 55.046875 
Q 24.21875 56 28.609375 56 
Q 40.484375 56 46.34375 49.84375 
Q 52.203125 43.703125 52.203125 31.203125 
z
" id="DejaVuSans-97"/>
     <path d="M 18.109375 8.203125 
L 18.109375 -20.796875 
L 9.078125 -20.796875 
L 9.078125 54.6875 
L 18.109375 54.6875 
L 18.109375 46.390625 
Q 20.953125 51.265625 25.265625 53.625 
Q 29.59375 56 35.59375 56 
Q 45.5625 56 51.78125 48.09375 
Q 58.015625 40.1875 58.015625 27.296875 
Q 58.015625 14.40625 51.78125 6.484375 
Q 45.5625 -1.421875 35.59375 -1.421875 
Q 29.59375 -1.421875 25.265625 0.953125 
Q 20.953125 3.328125 18.109375 8.203125 
z
M 48.6875 27.296875 
Q 48.6875 37.203125 44.609375 42.84375 
Q 40.53125 48.484375 33.40625 48.484375 
Q 26.265625 48.484375 22.1875 42.84375 
Q 18.109375 37.203125 18.109375 27.296875 
Q 18.109375 17.390625 22.1875 11.75 
Q 26.265625 6.109375 33.40625 6.109375 
Q 40.53125 6.109375 44.609375 11.75 
Q 48.6875 17.390625 48.6875 27.296875 
z
" id="DejaVuSans-112"/>
     <path d="M 41.109375 46.296875 
Q 39.59375 47.171875 37.8125 47.578125 
Q 36.03125 48 33.890625 48 
Q 26.265625 48 22.1875 43.046875 
Q 18.109375 38.09375 18.109375 28.8125 
L 18.109375 0 
L 9.078125 0 
L 9.078125 54.6875 
L 18.109375 54.6875 
L 18.109375 46.1875 
Q 20.953125 51.171875 25.484375 53.578125 
Q 30.03125 56 36.53125 56 
Q 37.453125 56 38.578125 55.875 
Q 39.703125 55.765625 41.0625 55.515625 
z
" id="DejaVuSans-114"/>
     <path d="M 9.421875 54.6875 
L 18.40625 54.6875 
L 18.40625 0 
L 9.421875 0 
z
M 9.421875 75.984375 
L 18.40625 75.984375 
L 18.40625 64.59375 
L 9.421875 64.59375 
z
" id="DejaVuSans-105"/>
    </defs>
    <g transform="translate(284.842841 63.12)scale(0.12 -0.12)">
     <use xlink:href="#DejaVuSans-77"/>
     <use x="86.279297" xlink:href="#DejaVuSans-111"/>
     <use x="147.460938" xlink:href="#DejaVuSans-110"/>
     <use x="210.839844" xlink:href="#DejaVuSans-116"/>
     <use x="250.048828" xlink:href="#DejaVuSans-104"/>
     <use x="313.427734" xlink:href="#DejaVuSans-108"/>
     <use x="341.210938" xlink:href="#DejaVuSans-121"/>
     <use x="400.390625" xlink:href="#DejaVuSans-32"/>
     <use x="432.177734" xlink:href="#DejaVuSans-69"/>
     <use x="495.361328" xlink:href="#DejaVuSans-118"/>
     <use x="554.541016" xlink:href="#DejaVuSans-97"/>
     <use x="615.820312" xlink:href="#DejaVuSans-112"/>
     <use x="679.296875" xlink:href="#DejaVuSans-111"/>
     <use x="740.478516" xlink:href="#DejaVuSans-114"/>
     <use x="781.591797" xlink:href="#DejaVuSans-97"/>
     <use x="842.871094" xlink:href="#DejaVuSans-116"/>
     <use x="882.080078" xlink:href="#DejaVuSans-105"/>
     <use x="909.863281" xlink:href="#DejaVuSans-111"/>
     <use x="971.044922" xlink:href="#DejaVuSans-110"/>
    </g>
   </g>
  </g>
  <g id="axes_2">
   <g id="patch_7">
    <path d="M 630.981818 504 
L 1036.8 504 
L 1036.8 69.12 
L 630.981818 69.12 
z
" style="fill:#ffffff;"/>
   </g>
   <g id="matplotlib.axis_3">
    <g id="xtick_11">
     <g id="line2d_20">
      <g>
       <use style="stroke:#000000;stroke-width:0.8;" x="638.527415" xlink:href="#me68bac665b" y="504"/>
      </g>
     </g>
     <g id="text_20">
      <!-- 1980 -->
      <g transform="translate(625.802415 518.598438)scale(0.1 -0.1)">
       <use xlink:href="#DejaVuSans-49"/>
       <use x="63.623047" xlink:href="#DejaVuSans-57"/>
       <use x="127.246094" xlink:href="#DejaVuSans-56"/>
       <use x="190.869141" xlink:href="#DejaVuSans-48"/>
      </g>
     </g>
    </g>
    <g id="xtick_12">
     <g id="line2d_21">
      <g>
       <use style="stroke:#000000;stroke-width:0.8;" x="682.040802" xlink:href="#me68bac665b" y="504"/>
      </g>
     </g>
     <g id="text_21">
      <!-- 1984 -->
      <g transform="translate(669.315802 518.598438)scale(0.1 -0.1)">
       <use xlink:href="#DejaVuSans-49"/>
       <use x="63.623047" xlink:href="#DejaVuSans-57"/>
       <use x="127.246094" xlink:href="#DejaVuSans-56"/>
       <use x="190.869141" xlink:href="#DejaVuSans-52"/>
      </g>
     </g>
    </g>
    <g id="xtick_13">
     <g id="line2d_22">
      <g>
       <use style="stroke:#000000;stroke-width:0.8;" x="725.55419" xlink:href="#me68bac665b" y="504"/>
      </g>
     </g>
     <g id="text_22">
      <!-- 1988 -->
      <g transform="translate(712.82919 518.598438)scale(0.1 -0.1)">
       <use xlink:href="#DejaVuSans-49"/>
       <use x="63.623047" xlink:href="#DejaVuSans-57"/>
       <use x="127.246094" xlink:href="#DejaVuSans-56"/>
       <use x="190.869141" xlink:href="#DejaVuSans-56"/>
      </g>
     </g>
    </g>
    <g id="xtick_14">
     <g id="line2d_23">
      <g>
       <use style="stroke:#000000;stroke-width:0.8;" x="769.067577" xlink:href="#me68bac665b" y="504"/>
      </g>
     </g>
     <g id="text_23">
      <!-- 1992 -->
      <g transform="translate(756.342577 518.598438)scale(0.1 -0.1)">
       <use xlink:href="#DejaVuSans-49"/>
       <use x="63.623047" xlink:href="#DejaVuSans-57"/>
       <use x="127.246094" xlink:href="#DejaVuSans-57"/>
       <use x="190.869141" xlink:href="#DejaVuSans-50"/>
      </g>
     </g>
    </g>
    <g id="xtick_15">
     <g id="line2d_24">
      <g>
       <use style="stroke:#000000;stroke-width:0.8;" x="812.580965" xlink:href="#me68bac665b" y="504"/>
      </g>
     </g>
     <g id="text_24">
      <!-- 1996 -->
      <g transform="translate(799.855965 518.598438)scale(0.1 -0.1)">
       <use xlink:href="#DejaVuSans-49"/>
       <use x="63.623047" xlink:href="#DejaVuSans-57"/>
       <use x="127.246094" xlink:href="#DejaVuSans-57"/>
       <use x="190.869141" xlink:href="#DejaVuSans-54"/>
      </g>
     </g>
    </g>
    <g id="xtick_16">
     <g id="line2d_25">
      <g>
       <use style="stroke:#000000;stroke-width:0.8;" x="856.094352" xlink:href="#me68bac665b" y="504"/>
      </g>
     </g>
     <g id="text_25">
      <!-- 2000 -->
      <g transform="translate(843.369352 518.598438)scale(0.1 -0.1)">
       <use xlink:href="#DejaVuSans-50"/>
       <use x="63.623047" xlink:href="#DejaVuSans-48"/>
       <use x="127.246094" xlink:href="#DejaVuSans-48"/>
       <use x="190.869141" xlink:href="#DejaVuSans-48"/>
      </g>
     </g>
    </g>
    <g id="xtick_17">
     <g id="line2d_26">
      <g>
       <use style="stroke:#000000;stroke-width:0.8;" x="899.60774" xlink:href="#me68bac665b" y="504"/>
      </g>
     </g>
     <g id="text_26">
      <!-- 2004 -->
      <g transform="translate(886.88274 518.598438)scale(0.1 -0.1)">
       <use xlink:href="#DejaVuSans-50"/>
       <use x="63.623047" xlink:href="#DejaVuSans-48"/>
       <use x="127.246094" xlink:href="#DejaVuSans-48"/>
       <use x="190.869141" xlink:href="#DejaVuSans-52"/>
      </g>
     </g>
    </g>
    <g id="xtick_18">
     <g id="line2d_27">
      <g>
       <use style="stroke:#000000;stroke-width:0.8;" x="943.121127" xlink:href="#me68bac665b" y="504"/>
      </g>
     </g>
     <g id="text_27">
      <!-- 2008 -->
      <g transform="translate(930.396127 518.598438)scale(0.1 -0.1)">
       <use xlink:href="#DejaVuSans-50"/>
       <use x="63.623047" xlink:href="#DejaVuSans-48"/>
       <use x="127.246094" xlink:href="#DejaVuSans-48"/>
       <use x="190.869141" xlink:href="#DejaVuSans-56"/>
      </g>
     </g>
    </g>
    <g id="xtick_19">
     <g id="line2d_28">
      <g>
       <use style="stroke:#000000;stroke-width:0.8;" x="986.634515" xlink:href="#me68bac665b" y="504"/>
      </g>
     </g>
     <g id="text_28">
      <!-- 2012 -->
      <g transform="translate(973.909515 518.598438)scale(0.1 -0.1)">
       <use xlink:href="#DejaVuSans-50"/>
       <use x="63.623047" xlink:href="#DejaVuSans-48"/>
       <use x="127.246094" xlink:href="#DejaVuSans-49"/>
       <use x="190.869141" xlink:href="#DejaVuSans-50"/>
      </g>
     </g>
    </g>
    <g id="xtick_20">
     <g id="line2d_29">
      <g>
       <use style="stroke:#000000;stroke-width:0.8;" x="1030.147902" xlink:href="#me68bac665b" y="504"/>
      </g>
     </g>
     <g id="text_29">
      <!-- 2016 -->
      <g transform="translate(1017.422902 518.598438)scale(0.1 -0.1)">
       <use xlink:href="#DejaVuSans-50"/>
       <use x="63.623047" xlink:href="#DejaVuSans-48"/>
       <use x="127.246094" xlink:href="#DejaVuSans-49"/>
       <use x="190.869141" xlink:href="#DejaVuSans-54"/>
      </g>
     </g>
    </g>
   </g>
   <g id="matplotlib.axis_4">
    <g id="ytick_9">
     <g id="line2d_30">
      <g>
       <use style="stroke:#000000;stroke-width:0.8;" x="630.981818" xlink:href="#m66bffea840" y="490.992049"/>
      </g>
     </g>
    </g>
    <g id="ytick_10">
     <g id="line2d_31">
      <g>
       <use style="stroke:#000000;stroke-width:0.8;" x="630.981818" xlink:href="#m66bffea840" y="435.791009"/>
      </g>
     </g>
    </g>
    <g id="ytick_11">
     <g id="line2d_32">
      <g>
       <use style="stroke:#000000;stroke-width:0.8;" x="630.981818" xlink:href="#m66bffea840" y="380.589969"/>
      </g>
     </g>
    </g>
    <g id="ytick_12">
     <g id="line2d_33">
      <g>
       <use style="stroke:#000000;stroke-width:0.8;" x="630.981818" xlink:href="#m66bffea840" y="325.38893"/>
      </g>
     </g>
    </g>
    <g id="ytick_13">
     <g id="line2d_34">
      <g>
       <use style="stroke:#000000;stroke-width:0.8;" x="630.981818" xlink:href="#m66bffea840" y="270.18789"/>
      </g>
     </g>
    </g>
    <g id="ytick_14">
     <g id="line2d_35">
      <g>
       <use style="stroke:#000000;stroke-width:0.8;" x="630.981818" xlink:href="#m66bffea840" y="214.98685"/>
      </g>
     </g>
    </g>
    <g id="ytick_15">
     <g id="line2d_36">
      <g>
       <use style="stroke:#000000;stroke-width:0.8;" x="630.981818" xlink:href="#m66bffea840" y="159.785811"/>
      </g>
     </g>
    </g>
    <g id="ytick_16">
     <g id="line2d_37">
      <g>
       <use style="stroke:#000000;stroke-width:0.8;" x="630.981818" xlink:href="#m66bffea840" y="104.584771"/>
      </g>
     </g>
    </g>
   </g>
   <g id="line2d_38">
    <path clip-path="url(#p9caa4a5ac6)" d="M 649.428099 431.836293 
L 650.351381 407.563746 
L 652.108595 309.038681 
L 653.002094 245.403198 
L 653.925376 228.601937 
L 654.818875 300.517819 
L 655.742157 323.219264 
L 656.665439 387.857467 
L 657.558937 432.172706 
L 658.482219 436.283521 
L 659.375718 443.121045 
L 660.299 431.836293 
L 661.222282 407.563746 
L 662.979496 309.038681 
L 663.872995 245.403198 
L 664.796277 228.601937 
L 665.689776 300.517819 
L 666.613058 323.219264 
L 667.53634 387.857467 
L 668.429839 432.172706 
L 669.353121 436.283521 
L 670.246619 443.121045 
L 671.169901 431.836293 
L 672.093183 407.563746 
L 673.850397 309.038681 
L 674.743896 245.403198 
L 675.667178 228.601937 
L 676.560677 300.517819 
L 677.483959 323.219264 
L 678.407241 387.857467 
L 679.30074 432.172706 
L 680.224022 436.283521 
L 681.11752 443.121045 
L 682.040802 431.836293 
L 682.964084 407.563746 
L 684.751082 309.038681 
L 685.64458 245.403198 
L 686.567862 228.601937 
L 687.461361 300.517819 
L 688.384643 323.219264 
L 689.307925 387.857467 
L 690.201424 432.172706 
L 691.124706 436.283521 
L 692.018205 443.121045 
L 692.941487 431.836293 
L 693.864769 407.563746 
L 695.621983 309.038681 
L 696.515482 245.403198 
L 697.438764 228.601937 
L 698.332262 300.517819 
L 699.255544 323.219264 
L 700.178826 387.857467 
L 701.072325 432.172706 
L 701.995607 436.283521 
L 702.889106 443.121045 
L 703.812388 431.836293 
L 704.73567 407.563746 
L 706.492884 309.038681 
L 707.386383 245.403198 
L 708.309665 228.601937 
L 709.203163 300.517819 
L 710.126445 323.219264 
L 711.049727 387.857467 
L 711.943226 432.172706 
L 712.866508 436.283521 
L 713.760007 443.121045 
L 714.683289 431.836293 
L 715.606571 407.563746 
L 717.363785 309.038681 
L 718.257284 245.403198 
L 719.180566 228.601937 
L 720.074064 300.517819 
L 720.997346 323.219264 
L 721.920628 387.857467 
L 722.814127 432.172706 
L 723.737409 436.283521 
L 724.630908 443.121045 
L 725.55419 431.836293 
L 726.477472 407.563746 
L 728.264469 309.038681 
L 729.157968 245.403198 
L 730.08125 228.601937 
L 730.974749 300.517819 
L 731.898031 323.219264 
L 732.821313 387.857467 
L 733.714811 432.172706 
L 734.638093 436.283521 
L 735.531592 443.121045 
L 736.454874 431.836293 
L 737.378156 407.563746 
L 739.13537 309.038681 
L 740.028869 245.403198 
L 740.952151 228.601937 
L 741.84565 300.517819 
L 742.768932 323.219264 
L 743.692214 387.857467 
L 744.585712 432.172706 
L 745.508994 436.283521 
L 746.402493 443.121045 
L 747.325775 431.836293 
L 748.249057 407.563746 
L 750.006271 309.038681 
L 750.89977 245.403198 
L 751.823052 228.601937 
L 752.716551 300.517819 
L 753.639833 323.219264 
L 754.563115 387.857467 
L 755.456613 432.172706 
L 756.379895 436.283521 
L 757.273394 443.121045 
L 758.196676 431.836293 
L 759.119958 407.563746 
L 760.877172 309.038681 
L 761.770671 245.403198 
L 762.693953 228.601937 
L 763.587452 300.517819 
L 764.510734 323.219264 
L 765.434016 387.857467 
L 766.327515 432.172706 
L 767.250797 436.283521 
L 768.144295 443.121045 
L 769.067577 431.836293 
L 769.990859 407.563746 
L 771.777857 309.038681 
L 772.671355 245.403198 
L 773.594637 228.601937 
L 774.488136 300.517819 
L 775.411418 323.219264 
L 776.3347 387.857467 
L 777.228199 432.172706 
L 778.151481 436.283521 
L 779.04498 443.121045 
L 779.968262 431.836293 
L 780.891544 407.563746 
L 782.648758 309.038681 
L 783.542256 245.403198 
L 784.465538 228.601937 
L 785.359037 300.517819 
L 786.282319 323.219264 
L 787.205601 387.857467 
L 788.0991 432.172706 
L 789.022382 436.283521 
L 789.915881 443.121045 
L 790.839163 431.836293 
L 791.762445 407.563746 
L 793.519659 309.038681 
L 794.413157 245.403198 
L 795.336439 228.601937 
L 796.229938 300.517819 
L 797.15322 323.219264 
L 798.076502 387.857467 
L 798.970001 432.172706 
L 799.893283 436.283521 
L 800.786782 443.121045 
L 801.710064 431.836293 
L 802.633346 407.563746 
L 804.39056 309.038681 
L 805.284059 245.403198 
L 806.207341 228.601937 
L 807.100839 300.517819 
L 808.024121 323.219264 
L 808.947403 387.857467 
L 809.840902 432.172706 
L 810.764184 436.283521 
L 811.657683 443.121045 
L 812.580965 431.836293 
L 813.504247 407.563746 
L 815.291244 309.038681 
L 816.184743 245.403198 
L 817.108025 228.601937 
L 818.001524 300.517819 
L 818.924806 323.219264 
L 819.848088 387.857467 
L 820.741586 432.172706 
L 821.664868 436.283521 
L 822.558367 443.121045 
L 823.481649 431.836293 
L 824.404931 407.563746 
L 826.162145 309.038681 
L 827.055644 245.403198 
L 827.978926 228.601937 
L 828.872425 300.517819 
L 829.795707 323.219264 
L 830.718989 387.857467 
L 831.612487 432.172706 
L 832.535769 436.283521 
L 833.429268 443.121045 
L 834.35255 431.836293 
L 835.275832 407.563746 
L 837.033046 309.038681 
L 837.926545 245.403198 
L 838.849827 228.601937 
L 839.743326 300.517819 
L 840.666608 323.219264 
L 841.58989 387.857467 
L 842.483388 432.172706 
L 843.40667 436.283521 
L 844.300169 443.121045 
L 845.223451 431.836293 
L 846.146733 407.563746 
L 847.903947 309.038681 
L 848.797446 245.403198 
L 849.720728 228.601937 
L 850.614227 300.517819 
L 851.537509 323.219264 
L 852.460791 387.857467 
L 853.354289 432.172706 
L 854.277571 436.283521 
L 855.17107 443.121045 
L 856.094352 431.836293 
L 857.017634 407.563746 
L 858.804632 309.038681 
L 859.69813 245.403198 
L 860.621412 228.601937 
L 861.514911 300.517819 
L 862.438193 323.219264 
L 863.361475 387.857467 
L 864.254974 432.172706 
L 865.178256 436.283521 
L 866.071755 443.121045 
L 866.995037 431.836293 
L 867.918319 407.563746 
L 869.675533 309.038681 
L 870.569031 245.403198 
L 871.492313 228.601937 
L 872.385812 300.517819 
L 873.309094 323.219264 
L 874.232376 387.857467 
L 875.125875 432.172706 
L 876.049157 436.283521 
L 876.942656 443.121045 
L 877.865938 431.836293 
L 878.78922 407.563746 
L 880.546434 309.038681 
L 881.439932 245.403198 
L 882.363214 228.601937 
L 883.256713 300.517819 
L 884.179995 323.219264 
L 885.103277 387.857467 
L 885.996776 432.172706 
L 886.920058 436.283521 
L 887.813557 443.121045 
L 888.736839 431.836293 
L 889.660121 407.563746 
L 891.417335 309.038681 
L 892.310833 245.403198 
L 893.234115 228.601937 
L 894.127614 300.517819 
L 895.050896 323.219264 
L 895.974178 387.857467 
L 896.867677 432.172706 
L 897.790959 436.283521 
L 898.684458 443.121045 
L 899.60774 431.836293 
L 900.531022 407.563746 
L 902.318019 309.038681 
L 903.211518 245.403198 
L 904.1348 228.601937 
L 905.028299 300.517819 
L 905.951581 323.219264 
L 906.874863 387.857467 
L 907.768361 432.172706 
L 908.691643 436.283521 
L 909.585142 443.121045 
L 910.508424 431.836293 
L 911.431706 407.563746 
L 913.18892 309.038681 
L 914.082419 245.403198 
L 915.005701 228.601937 
L 915.8992 300.517819 
L 916.822482 323.219264 
L 917.745764 387.857467 
L 918.639262 432.172706 
L 919.562544 436.283521 
L 920.456043 443.121045 
L 921.379325 431.836293 
L 922.302607 407.563746 
L 924.059821 309.038681 
L 924.95332 245.403198 
L 925.876602 228.601937 
L 926.770101 300.517819 
L 927.693383 323.219264 
L 928.616665 387.857467 
L 929.510163 432.172706 
L 930.433445 436.283521 
L 931.326944 443.121045 
L 932.250226 431.836293 
L 933.173508 407.563746 
L 934.930722 309.038681 
L 935.824221 245.403198 
L 936.747503 228.601937 
L 937.641002 300.517819 
L 938.564284 323.219264 
L 939.487566 387.857467 
L 940.381064 432.172706 
L 941.304346 436.283521 
L 942.197845 443.121045 
L 943.121127 431.836293 
L 944.044409 407.563746 
L 945.831407 309.038681 
L 946.724905 245.403198 
L 947.648187 228.601937 
L 948.541686 300.517819 
L 949.464968 323.219264 
L 950.38825 387.857467 
L 951.281749 432.172706 
L 952.205031 436.283521 
L 953.098529 443.121045 
L 954.021811 431.836293 
L 954.945093 407.563746 
L 956.702308 309.038681 
L 957.595806 245.403198 
L 958.519088 228.601937 
L 959.412587 300.517819 
L 960.335869 323.219264 
L 961.259151 387.857467 
L 962.15265 432.172706 
L 963.075932 436.283521 
L 963.96943 443.121045 
L 964.892713 431.836293 
L 965.815995 407.563746 
L 967.573209 309.038681 
L 968.466707 245.403198 
L 969.389989 228.601937 
L 970.283488 300.517819 
L 971.20677 323.219264 
L 972.130052 387.857467 
L 973.023551 432.172706 
L 973.946833 436.283521 
L 974.840332 443.121045 
L 975.763614 431.836293 
L 976.686896 407.563746 
L 978.44411 309.038681 
L 979.337608 245.403198 
L 980.26089 228.601937 
L 981.154389 300.517819 
L 982.077671 323.219264 
L 983.000953 387.857467 
L 983.894452 432.172706 
L 984.817734 436.283521 
L 985.711233 443.121045 
L 986.634515 431.836293 
L 987.557797 407.563746 
L 989.344794 309.038681 
L 990.238293 245.403198 
L 991.161575 228.601937 
L 992.055073 300.517819 
L 992.978355 323.219264 
L 993.901637 387.857467 
L 994.795136 432.172706 
L 995.718418 436.283521 
L 996.611917 443.121045 
L 997.535199 431.836293 
L 998.458481 407.563746 
L 1000.215695 309.038681 
L 1001.109194 245.403198 
L 1002.032476 228.601937 
L 1002.925975 300.517819 
L 1003.849257 323.219264 
L 1004.772539 387.857467 
L 1005.666037 432.172706 
L 1006.589319 436.283521 
L 1007.482818 443.121045 
L 1008.4061 431.836293 
L 1009.329382 407.563746 
L 1011.086596 309.038681 
L 1011.980095 245.403198 
L 1012.903377 228.601937 
L 1013.796876 300.517819 
L 1014.720158 323.219264 
L 1015.64344 387.857467 
L 1016.536938 432.172706 
L 1017.46022 436.283521 
L 1018.353719 443.121045 
L 1018.353719 443.121045 
" style="fill:none;stroke:#1f77b4;stroke-linecap:square;stroke-width:1.5;"/>
   </g>
   <g id="patch_8">
    <path d="M 630.981818 504 
L 630.981818 69.12 
" style="fill:none;stroke:#000000;stroke-linecap:square;stroke-linejoin:miter;stroke-width:0.8;"/>
   </g>
   <g id="patch_9">
    <path d="M 1036.8 504 
L 1036.8 69.12 
" style="fill:none;stroke:#000000;stroke-linecap:square;stroke-linejoin:miter;stroke-width:0.8;"/>
   </g>
   <g id="patch_10">
    <path d="M 630.981818 504 
L 1036.8 504 
" style="fill:none;stroke:#000000;stroke-linecap:square;stroke-linejoin:miter;stroke-width:0.8;"/>
   </g>
   <g id="patch_11">
    <path d="M 630.981818 69.12 
L 1036.8 69.12 
" style="fill:none;stroke:#000000;stroke-linecap:square;stroke-linejoin:miter;stroke-width:0.8;"/>
   </g>
   <g id="text_30">
    <!-- Average Evaporation -->
    <defs>
     <path d="M 34.1875 63.1875 
L 20.796875 26.90625 
L 47.609375 26.90625 
z
M 28.609375 72.90625 
L 39.796875 72.90625 
L 67.578125 0 
L 57.328125 0 
L 50.6875 18.703125 
L 17.828125 18.703125 
L 11.1875 0 
L 0.78125 0 
z
" id="DejaVuSans-65"/>
     <path d="M 56.203125 29.59375 
L 56.203125 25.203125 
L 14.890625 25.203125 
Q 15.484375 15.921875 20.484375 11.0625 
Q 25.484375 6.203125 34.421875 6.203125 
Q 39.59375 6.203125 44.453125 7.46875 
Q 49.3125 8.734375 54.109375 11.28125 
L 54.109375 2.78125 
Q 49.265625 0.734375 44.1875 -0.34375 
Q 39.109375 -1.421875 33.890625 -1.421875 
Q 20.796875 -1.421875 13.15625 6.1875 
Q 5.515625 13.8125 5.515625 26.8125 
Q 5.515625 40.234375 12.765625 48.109375 
Q 20.015625 56 32.328125 56 
Q 43.359375 56 49.78125 48.890625 
Q 56.203125 41.796875 56.203125 29.59375 
z
M 47.21875 32.234375 
Q 47.125 39.59375 43.09375 43.984375 
Q 39.0625 48.390625 32.421875 48.390625 
Q 24.90625 48.390625 20.390625 44.140625 
Q 15.875 39.890625 15.1875 32.171875 
z
" id="DejaVuSans-101"/>
     <path d="M 45.40625 27.984375 
Q 45.40625 37.75 41.375 43.109375 
Q 37.359375 48.484375 30.078125 48.484375 
Q 22.859375 48.484375 18.828125 43.109375 
Q 14.796875 37.75 14.796875 27.984375 
Q 14.796875 18.265625 18.828125 12.890625 
Q 22.859375 7.515625 30.078125 7.515625 
Q 37.359375 7.515625 41.375 12.890625 
Q 45.40625 18.265625 45.40625 27.984375 
z
M 54.390625 6.78125 
Q 54.390625 -7.171875 48.1875 -13.984375 
Q 42 -20.796875 29.203125 -20.796875 
Q 24.46875 -20.796875 20.265625 -20.09375 
Q 16.0625 -19.390625 12.109375 -17.921875 
L 12.109375 -9.1875 
Q 16.0625 -11.328125 19.921875 -12.34375 
Q 23.78125 -13.375 27.78125 -13.375 
Q 36.625 -13.375 41.015625 -8.765625 
Q 45.40625 -4.15625 45.40625 5.171875 
L 45.40625 9.625 
Q 42.625 4.78125 38.28125 2.390625 
Q 33.9375 0 27.875 0 
Q 17.828125 0 11.671875 7.65625 
Q 5.515625 15.328125 5.515625 27.984375 
Q 5.515625 40.671875 11.671875 48.328125 
Q 17.828125 56 27.875 56 
Q 33.9375 56 38.28125 53.609375 
Q 42.625 51.21875 45.40625 46.390625 
L 45.40625 54.6875 
L 54.390625 54.6875 
z
" id="DejaVuSans-103"/>
    </defs>
    <g transform="translate(770.860909 63.12)scale(0.12 -0.12)">
     <use xlink:href="#DejaVuSans-65"/>
     <use x="68.330078" xlink:href="#DejaVuSans-118"/>
     <use x="127.509766" xlink:href="#DejaVuSans-101"/>
     <use x="189.033203" xlink:href="#DejaVuSans-114"/>
     <use x="230.146484" xlink:href="#DejaVuSans-97"/>
     <use x="291.425781" xlink:href="#DejaVuSans-103"/>
     <use x="354.902344" xlink:href="#DejaVuSans-101"/>
     <use x="416.425781" xlink:href="#DejaVuSans-32"/>
     <use x="448.212891" xlink:href="#DejaVuSans-69"/>
     <use x="511.396484" xlink:href="#DejaVuSans-118"/>
     <use x="570.576172" xlink:href="#DejaVuSans-97"/>
     <use x="631.855469" xlink:href="#DejaVuSans-112"/>
     <use x="695.332031" xlink:href="#DejaVuSans-111"/>
     <use x="756.513672" xlink:href="#DejaVuSans-114"/>
     <use x="797.626953" xlink:href="#DejaVuSans-97"/>
     <use x="858.90625" xlink:href="#DejaVuSans-116"/>
     <use x="898.115234" xlink:href="#DejaVuSans-105"/>
     <use x="925.898438" xlink:href="#DejaVuSans-111"/>
     <use x="987.080078" xlink:href="#DejaVuSans-110"/>
    </g>
   </g>
  </g>
  <g id="text_31">
   <!-- Denver, Colorado -->
   <defs>
    <path d="M 19.671875 64.796875 
L 19.671875 8.109375 
L 31.59375 8.109375 
Q 46.6875 8.109375 53.6875 14.9375 
Q 60.6875 21.78125 60.6875 36.53125 
Q 60.6875 51.171875 53.6875 57.984375 
Q 46.6875 64.796875 31.59375 64.796875 
z
M 9.8125 72.90625 
L 30.078125 72.90625 
Q 51.265625 72.90625 61.171875 64.09375 
Q 71.09375 55.28125 71.09375 36.53125 
Q 71.09375 17.671875 61.125 8.828125 
Q 51.171875 0 30.078125 0 
L 9.8125 0 
z
" id="DejaVuSans-68"/>
    <path d="M 11.71875 12.40625 
L 22.015625 12.40625 
L 22.015625 4 
L 14.015625 -11.625 
L 7.71875 -11.625 
L 11.71875 4 
z
" id="DejaVuSans-44"/>
    <path d="M 64.40625 67.28125 
L 64.40625 56.890625 
Q 59.421875 61.53125 53.78125 63.8125 
Q 48.140625 66.109375 41.796875 66.109375 
Q 29.296875 66.109375 22.65625 58.46875 
Q 16.015625 50.828125 16.015625 36.375 
Q 16.015625 21.96875 22.65625 14.328125 
Q 29.296875 6.6875 41.796875 6.6875 
Q 48.140625 6.6875 53.78125 8.984375 
Q 59.421875 11.28125 64.40625 15.921875 
L 64.40625 5.609375 
Q 59.234375 2.09375 53.4375 0.328125 
Q 47.65625 -1.421875 41.21875 -1.421875 
Q 24.65625 -1.421875 15.125 8.703125 
Q 5.609375 18.84375 5.609375 36.375 
Q 5.609375 53.953125 15.125 64.078125 
Q 24.65625 74.21875 41.21875 74.21875 
Q 47.75 74.21875 53.53125 72.484375 
Q 59.328125 70.75 64.40625 67.28125 
z
" id="DejaVuSans-67"/>
    <path d="M 45.40625 46.390625 
L 45.40625 75.984375 
L 54.390625 75.984375 
L 54.390625 0 
L 45.40625 0 
L 45.40625 8.203125 
Q 42.578125 3.328125 38.25 0.953125 
Q 33.9375 -1.421875 27.875 -1.421875 
Q 17.96875 -1.421875 11.734375 6.484375 
Q 5.515625 14.40625 5.515625 27.296875 
Q 5.515625 40.1875 11.734375 48.09375 
Q 17.96875 56 27.875 56 
Q 33.9375 56 38.25 53.625 
Q 42.578125 51.265625 45.40625 46.390625 
z
M 14.796875 27.296875 
Q 14.796875 17.390625 18.875 11.75 
Q 22.953125 6.109375 30.078125 6.109375 
Q 37.203125 6.109375 41.296875 11.75 
Q 45.40625 17.390625 45.40625 27.296875 
Q 45.40625 37.203125 41.296875 42.84375 
Q 37.203125 48.484375 30.078125 48.484375 
Q 22.953125 48.484375 18.875 42.84375 
Q 14.796875 37.203125 14.796875 27.296875 
z
" id="DejaVuSans-100"/>
   </defs>
   <g transform="translate(523.539375 20.638125)scale(0.12 -0.12)">
    <use xlink:href="#DejaVuSans-68"/>
    <use x="77.001953" xlink:href="#DejaVuSans-101"/>
    <use x="138.525391" xlink:href="#DejaVuSans-110"/>
    <use x="201.904297" xlink:href="#DejaVuSans-118"/>
    <use x="261.083984" xlink:href="#DejaVuSans-101"/>
    <use x="322.607422" xlink:href="#DejaVuSans-114"/>
    <use x="363.720703" xlink:href="#DejaVuSans-44"/>
    <use x="395.507812" xlink:href="#DejaVuSans-32"/>
    <use x="427.294922" xlink:href="#DejaVuSans-67"/>
    <use x="497.119141" xlink:href="#DejaVuSans-111"/>
    <use x="558.300781" xlink:href="#DejaVuSans-108"/>
    <use x="586.083984" xlink:href="#DejaVuSans-111"/>
    <use x="647.265625" xlink:href="#DejaVuSans-114"/>
    <use x="688.378906" xlink:href="#DejaVuSans-97"/>
    <use x="749.658203" xlink:href="#DejaVuSans-100"/>
    <use x="813.134766" xlink:href="#DejaVuSans-111"/>
   </g>
  </g>
 </g>
 <defs>
  <clipPath id="pf732affc35">
   <rect height="434.88" width="405.818182" x="144" y="69.12"/>
  </clipPath>
  <clipPath id="p9caa4a5ac6">
   <rect height="434.88" width="405.818182" x="630.981818" y="69.12"/>
  </clipPath>
 </defs>
</svg>
