<?xml version="1.0" encoding="utf-8" standalone="no"?>
<!DOCTYPE svg PUBLIC "-//W3C//DTD SVG 1.1//EN"
  "http://www.w3.org/Graphics/SVG/1.1/DTD/svg11.dtd">
<!-- Created with matplotlib (https://matplotlib.org/) -->
<svg height="576pt" version="1.1" viewBox="0 0 1152 576" width="1152pt" xmlns="http://www.w3.org/2000/svg" xmlns:xlink="http://www.w3.org/1999/xlink">
 <defs>
  <style type="text/css">
*{stroke-linecap:butt;stroke-linejoin:round;}
  </style>
 </defs>
 <g id="figure_1">
  <g id="patch_1">
   <path d="M 0 576 
L 1152 576 
L 1152 0 
L 0 0 
z
" style="fill:#ffffff;"/>
  </g>
  <g id="axes_1">
   <g id="patch_2">
    <path d="M 144 504 
L 549.818182 504 
L 549.818182 69.12 
L 144 69.12 
z
" style="fill:#ffffff;"/>
   </g>
   <g id="matplotlib.axis_1">
    <g id="xtick_1">
     <g id="line2d_1">
      <defs>
       <path d="M 0 0 
L 0 3.5 
" id="m39f77b88c5" style="stroke:#000000;stroke-width:0.8;"/>
      </defs>
      <g>
       <use style="stroke:#000000;stroke-width:0.8;" x="151.545597" xlink:href="#m39f77b88c5" y="504"/>
      </g>
     </g>
     <g id="text_1">
      <!-- 1980 -->
      <defs>
       <path d="M 12.40625 8.296875 
L 28.515625 8.296875 
L 28.515625 63.921875 
L 10.984375 60.40625 
L 10.984375 69.390625 
L 28.421875 72.90625 
L 38.28125 72.90625 
L 38.28125 8.296875 
L 54.390625 8.296875 
L 54.390625 0 
L 12.40625 0 
z
" id="DejaVuSans-49"/>
       <path d="M 10.984375 1.515625 
L 10.984375 10.5 
Q 14.703125 8.734375 18.5 7.8125 
Q 22.3125 6.890625 25.984375 6.890625 
Q 35.75 6.890625 40.890625 13.453125 
Q 46.046875 20.015625 46.78125 33.40625 
Q 43.953125 29.203125 39.59375 26.953125 
Q 35.25 24.703125 29.984375 24.703125 
Q 19.046875 24.703125 12.671875 31.3125 
Q 6.296875 37.9375 6.296875 49.421875 
Q 6.296875 60.640625 12.9375 67.421875 
Q 19.578125 74.21875 30.609375 74.21875 
Q 43.265625 74.21875 49.921875 64.515625 
Q 56.59375 54.828125 56.59375 36.375 
Q 56.59375 19.140625 48.40625 8.859375 
Q 40.234375 -1.421875 26.421875 -1.421875 
Q 22.703125 -1.421875 18.890625 -0.6875 
Q 15.09375 0.046875 10.984375 1.515625 
z
M 30.609375 32.421875 
Q 37.25 32.421875 41.125 36.953125 
Q 45.015625 41.5 45.015625 49.421875 
Q 45.015625 57.28125 41.125 61.84375 
Q 37.25 66.40625 30.609375 66.40625 
Q 23.96875 66.40625 20.09375 61.84375 
Q 16.21875 57.28125 16.21875 49.421875 
Q 16.21875 41.5 20.09375 36.953125 
Q 23.96875 32.421875 30.609375 32.421875 
z
" id="DejaVuSans-57"/>
       <path d="M 31.78125 34.625 
Q 24.75 34.625 20.71875 30.859375 
Q 16.703125 27.09375 16.703125 20.515625 
Q 16.703125 13.921875 20.71875 10.15625 
Q 24.75 6.390625 31.78125 6.390625 
Q 38.8125 6.390625 42.859375 10.171875 
Q 46.921875 13.96875 46.921875 20.515625 
Q 46.921875 27.09375 42.890625 30.859375 
Q 38.875 34.625 31.78125 34.625 
z
M 21.921875 38.8125 
Q 15.578125 40.375 12.03125 44.71875 
Q 8.5 49.078125 8.5 55.328125 
Q 8.5 64.0625 14.71875 69.140625 
Q 20.953125 74.21875 31.78125 74.21875 
Q 42.671875 74.21875 48.875 69.140625 
Q 55.078125 64.0625 55.078125 55.328125 
Q 55.078125 49.078125 51.53125 44.71875 
Q 48 40.375 41.703125 38.8125 
Q 48.828125 37.15625 52.796875 32.3125 
Q 56.78125 27.484375 56.78125 20.515625 
Q 56.78125 9.90625 50.3125 4.234375 
Q 43.84375 -1.421875 31.78125 -1.421875 
Q 19.734375 -1.421875 13.25 4.234375 
Q 6.78125 9.90625 6.78125 20.515625 
Q 6.78125 27.484375 10.78125 32.3125 
Q 14.796875 37.15625 21.921875 38.8125 
z
M 18.3125 54.390625 
Q 18.3125 48.734375 21.84375 45.5625 
Q 25.390625 42.390625 31.78125 42.390625 
Q 38.140625 42.390625 41.71875 45.5625 
Q 45.3125 48.734375 45.3125 54.390625 
Q 45.3125 60.0625 41.71875 63.234375 
Q 38.140625 66.40625 31.78125 66.40625 
Q 25.390625 66.40625 21.84375 63.234375 
Q 18.3125 60.0625 18.3125 54.390625 
z
" id="DejaVuSans-56"/>
       <path d="M 31.78125 66.40625 
Q 24.171875 66.40625 20.328125 58.90625 
Q 16.5 51.421875 16.5 36.375 
Q 16.5 21.390625 20.328125 13.890625 
Q 24.171875 6.390625 31.78125 6.390625 
Q 39.453125 6.390625 43.28125 13.890625 
Q 47.125 21.390625 47.125 36.375 
Q 47.125 51.421875 43.28125 58.90625 
Q 39.453125 66.40625 31.78125 66.40625 
z
M 31.78125 74.21875 
Q 44.046875 74.21875 50.515625 64.515625 
Q 56.984375 54.828125 56.984375 36.375 
Q 56.984375 17.96875 50.515625 8.265625 
Q 44.046875 -1.421875 31.78125 -1.421875 
Q 19.53125 -1.421875 13.0625 8.265625 
Q 6.59375 17.96875 6.59375 36.375 
Q 6.59375 54.828125 13.0625 64.515625 
Q 19.53125 74.21875 31.78125 74.21875 
z
" id="DejaVuSans-48"/>
      </defs>
      <g transform="translate(138.820597 518.598438)scale(0.1 -0.1)">
       <use xlink:href="#DejaVuSans-49"/>
       <use x="63.623047" xlink:href="#DejaVuSans-57"/>
       <use x="127.246094" xlink:href="#DejaVuSans-56"/>
       <use x="190.869141" xlink:href="#DejaVuSans-48"/>
      </g>
     </g>
    </g>
    <g id="xtick_2">
     <g id="line2d_2">
      <g>
       <use style="stroke:#000000;stroke-width:0.8;" x="195.058984" xlink:href="#m39f77b88c5" y="504"/>
      </g>
     </g>
     <g id="text_2">
      <!-- 1984 -->
      <defs>
       <path d="M 37.796875 64.3125 
L 12.890625 25.390625 
L 37.796875 25.390625 
z
M 35.203125 72.90625 
L 47.609375 72.90625 
L 47.609375 25.390625 
L 58.015625 25.390625 
L 58.015625 17.1875 
L 47.609375 17.1875 
L 47.609375 0 
L 37.796875 0 
L 37.796875 17.1875 
L 4.890625 17.1875 
L 4.890625 26.703125 
z
" id="DejaVuSans-52"/>
      </defs>
      <g transform="translate(182.333984 518.598438)scale(0.1 -0.1)">
       <use xlink:href="#DejaVuSans-49"/>
       <use x="63.623047" xlink:href="#DejaVuSans-57"/>
       <use x="127.246094" xlink:href="#DejaVuSans-56"/>
       <use x="190.869141" xlink:href="#DejaVuSans-52"/>
      </g>
     </g>
    </g>
    <g id="xtick_3">
     <g id="line2d_3">
      <g>
       <use style="stroke:#000000;stroke-width:0.8;" x="238.572372" xlink:href="#m39f77b88c5" y="504"/>
      </g>
     </g>
     <g id="text_3">
      <!-- 1988 -->
      <g transform="translate(225.847372 518.598438)scale(0.1 -0.1)">
       <use xlink:href="#DejaVuSans-49"/>
       <use x="63.623047" xlink:href="#DejaVuSans-57"/>
       <use x="127.246094" xlink:href="#DejaVuSans-56"/>
       <use x="190.869141" xlink:href="#DejaVuSans-56"/>
      </g>
     </g>
    </g>
    <g id="xtick_4">
     <g id="line2d_4">
      <g>
       <use style="stroke:#000000;stroke-width:0.8;" x="282.085759" xlink:href="#m39f77b88c5" y="504"/>
      </g>
     </g>
     <g id="text_4">
      <!-- 1992 -->
      <defs>
       <path d="M 19.1875 8.296875 
L 53.609375 8.296875 
L 53.609375 0 
L 7.328125 0 
L 7.328125 8.296875 
Q 12.9375 14.109375 22.625 23.890625 
Q 32.328125 33.6875 34.8125 36.53125 
Q 39.546875 41.84375 41.421875 45.53125 
Q 43.3125 49.21875 43.3125 52.78125 
Q 43.3125 58.59375 39.234375 62.25 
Q 35.15625 65.921875 28.609375 65.921875 
Q 23.96875 65.921875 18.8125 64.3125 
Q 13.671875 62.703125 7.8125 59.421875 
L 7.8125 69.390625 
Q 13.765625 71.78125 18.9375 73 
Q 24.125 74.21875 28.421875 74.21875 
Q 39.75 74.21875 46.484375 68.546875 
Q 53.21875 62.890625 53.21875 53.421875 
Q 53.21875 48.921875 51.53125 44.890625 
Q 49.859375 40.875 45.40625 35.40625 
Q 44.1875 33.984375 37.640625 27.21875 
Q 31.109375 20.453125 19.1875 8.296875 
z
" id="DejaVuSans-50"/>
      </defs>
      <g transform="translate(269.360759 518.598438)scale(0.1 -0.1)">
       <use xlink:href="#DejaVuSans-49"/>
       <use x="63.623047" xlink:href="#DejaVuSans-57"/>
       <use x="127.246094" xlink:href="#DejaVuSans-57"/>
       <use x="190.869141" xlink:href="#DejaVuSans-50"/>
      </g>
     </g>
    </g>
    <g id="xtick_5">
     <g id="line2d_5">
      <g>
       <use style="stroke:#000000;stroke-width:0.8;" x="325.599147" xlink:href="#m39f77b88c5" y="504"/>
      </g>
     </g>
     <g id="text_5">
      <!-- 1996 -->
      <defs>
       <path d="M 33.015625 40.375 
Q 26.375 40.375 22.484375 35.828125 
Q 18.609375 31.296875 18.609375 23.390625 
Q 18.609375 15.53125 22.484375 10.953125 
Q 26.375 6.390625 33.015625 6.390625 
Q 39.65625 6.390625 43.53125 10.953125 
Q 47.40625 15.53125 47.40625 23.390625 
Q 47.40625 31.296875 43.53125 35.828125 
Q 39.65625 40.375 33.015625 40.375 
z
M 52.59375 71.296875 
L 52.59375 62.3125 
Q 48.875 64.0625 45.09375 64.984375 
Q 41.3125 65.921875 37.59375 65.921875 
Q 27.828125 65.921875 22.671875 59.328125 
Q 17.53125 52.734375 16.796875 39.40625 
Q 19.671875 43.65625 24.015625 45.921875 
Q 28.375 48.1875 33.59375 48.1875 
Q 44.578125 48.1875 50.953125 41.515625 
Q 57.328125 34.859375 57.328125 23.390625 
Q 57.328125 12.15625 50.6875 5.359375 
Q 44.046875 -1.421875 33.015625 -1.421875 
Q 20.359375 -1.421875 13.671875 8.265625 
Q 6.984375 17.96875 6.984375 36.375 
Q 6.984375 53.65625 15.1875 63.9375 
Q 23.390625 74.21875 37.203125 74.21875 
Q 40.921875 74.21875 44.703125 73.484375 
Q 48.484375 72.75 52.59375 71.296875 
z
" id="DejaVuSans-54"/>
      </defs>
      <g transform="translate(312.874147 518.598438)scale(0.1 -0.1)">
       <use xlink:href="#DejaVuSans-49"/>
       <use x="63.623047" xlink:href="#DejaVuSans-57"/>
       <use x="127.246094" xlink:href="#DejaVuSans-57"/>
       <use x="190.869141" xlink:href="#DejaVuSans-54"/>
      </g>
     </g>
    </g>
    <g id="xtick_6">
     <g id="line2d_6">
      <g>
       <use style="stroke:#000000;stroke-width:0.8;" x="369.112534" xlink:href="#m39f77b88c5" y="504"/>
      </g>
     </g>
     <g id="text_6">
      <!-- 2000 -->
      <g transform="translate(356.387534 518.598438)scale(0.1 -0.1)">
       <use xlink:href="#DejaVuSans-50"/>
       <use x="63.623047" xlink:href="#DejaVuSans-48"/>
       <use x="127.246094" xlink:href="#DejaVuSans-48"/>
       <use x="190.869141" xlink:href="#DejaVuSans-48"/>
      </g>
     </g>
    </g>
    <g id="xtick_7">
     <g id="line2d_7">
      <g>
       <use style="stroke:#000000;stroke-width:0.8;" x="412.625921" xlink:href="#m39f77b88c5" y="504"/>
      </g>
     </g>
     <g id="text_7">
      <!-- 2004 -->
      <g transform="translate(399.900921 518.598438)scale(0.1 -0.1)">
       <use xlink:href="#DejaVuSans-50"/>
       <use x="63.623047" xlink:href="#DejaVuSans-48"/>
       <use x="127.246094" xlink:href="#DejaVuSans-48"/>
       <use x="190.869141" xlink:href="#DejaVuSans-52"/>
      </g>
     </g>
    </g>
    <g id="xtick_8">
     <g id="line2d_8">
      <g>
       <use style="stroke:#000000;stroke-width:0.8;" x="456.139309" xlink:href="#m39f77b88c5" y="504"/>
      </g>
     </g>
     <g id="text_8">
      <!-- 2008 -->
      <g transform="translate(443.414309 518.598438)scale(0.1 -0.1)">
       <use xlink:href="#DejaVuSans-50"/>
       <use x="63.623047" xlink:href="#DejaVuSans-48"/>
       <use x="127.246094" xlink:href="#DejaVuSans-48"/>
       <use x="190.869141" xlink:href="#DejaVuSans-56"/>
      </g>
     </g>
    </g>
    <g id="xtick_9">
     <g id="line2d_9">
      <g>
       <use style="stroke:#000000;stroke-width:0.8;" x="499.652696" xlink:href="#m39f77b88c5" y="504"/>
      </g>
     </g>
     <g id="text_9">
      <!-- 2012 -->
      <g transform="translate(486.927696 518.598438)scale(0.1 -0.1)">
       <use xlink:href="#DejaVuSans-50"/>
       <use x="63.623047" xlink:href="#DejaVuSans-48"/>
       <use x="127.246094" xlink:href="#DejaVuSans-49"/>
       <use x="190.869141" xlink:href="#DejaVuSans-50"/>
      </g>
     </g>
    </g>
    <g id="xtick_10">
     <g id="line2d_10">
      <g>
       <use style="stroke:#000000;stroke-width:0.8;" x="543.166084" xlink:href="#m39f77b88c5" y="504"/>
      </g>
     </g>
     <g id="text_10">
      <!-- 2016 -->
      <g transform="translate(530.441084 518.598438)scale(0.1 -0.1)">
       <use xlink:href="#DejaVuSans-50"/>
       <use x="63.623047" xlink:href="#DejaVuSans-48"/>
       <use x="127.246094" xlink:href="#DejaVuSans-49"/>
       <use x="190.869141" xlink:href="#DejaVuSans-54"/>
      </g>
     </g>
    </g>
   </g>
   <g id="matplotlib.axis_2">
    <g id="ytick_1">
     <g id="line2d_11">
      <defs>
       <path d="M 0 0 
L -3.5 0 
" id="m1a9fadc02e" style="stroke:#000000;stroke-width:0.8;"/>
      </defs>
      <g>
       <use style="stroke:#000000;stroke-width:0.8;" x="144" xlink:href="#m1a9fadc02e" y="475.537776"/>
      </g>
     </g>
     <g id="text_11">
      <!-- 0.06 -->
      <defs>
       <path d="M 10.6875 12.40625 
L 21 12.40625 
L 21 0 
L 10.6875 0 
z
" id="DejaVuSans-46"/>
      </defs>
      <g transform="translate(114.734375 479.336995)scale(0.1 -0.1)">
       <use xlink:href="#DejaVuSans-48"/>
       <use x="63.623047" xlink:href="#DejaVuSans-46"/>
       <use x="95.410156" xlink:href="#DejaVuSans-48"/>
       <use x="159.033203" xlink:href="#DejaVuSans-54"/>
      </g>
     </g>
    </g>
    <g id="ytick_2">
     <g id="line2d_12">
      <g>
       <use style="stroke:#000000;stroke-width:0.8;" x="144" xlink:href="#m1a9fadc02e" y="405.476305"/>
      </g>
     </g>
     <g id="text_12">
      <!-- 0.08 -->
      <g transform="translate(114.734375 409.275524)scale(0.1 -0.1)">
       <use xlink:href="#DejaVuSans-48"/>
       <use x="63.623047" xlink:href="#DejaVuSans-46"/>
       <use x="95.410156" xlink:href="#DejaVuSans-48"/>
       <use x="159.033203" xlink:href="#DejaVuSans-56"/>
      </g>
     </g>
    </g>
    <g id="ytick_3">
     <g id="line2d_13">
      <g>
       <use style="stroke:#000000;stroke-width:0.8;" x="144" xlink:href="#m1a9fadc02e" y="335.414835"/>
      </g>
     </g>
     <g id="text_13">
      <!-- 0.10 -->
      <g transform="translate(114.734375 339.214054)scale(0.1 -0.1)">
       <use xlink:href="#DejaVuSans-48"/>
       <use x="63.623047" xlink:href="#DejaVuSans-46"/>
       <use x="95.410156" xlink:href="#DejaVuSans-49"/>
       <use x="159.033203" xlink:href="#DejaVuSans-48"/>
      </g>
     </g>
    </g>
    <g id="ytick_4">
     <g id="line2d_14">
      <g>
       <use style="stroke:#000000;stroke-width:0.8;" x="144" xlink:href="#m1a9fadc02e" y="265.353365"/>
      </g>
     </g>
     <g id="text_14">
      <!-- 0.12 -->
      <g transform="translate(114.734375 269.152583)scale(0.1 -0.1)">
       <use xlink:href="#DejaVuSans-48"/>
       <use x="63.623047" xlink:href="#DejaVuSans-46"/>
       <use x="95.410156" xlink:href="#DejaVuSans-49"/>
       <use x="159.033203" xlink:href="#DejaVuSans-50"/>
      </g>
     </g>
    </g>
    <g id="ytick_5">
     <g id="line2d_15">
      <g>
       <use style="stroke:#000000;stroke-width:0.8;" x="144" xlink:href="#m1a9fadc02e" y="195.291894"/>
      </g>
     </g>
     <g id="text_15">
      <!-- 0.14 -->
      <g transform="translate(114.734375 199.091113)scale(0.1 -0.1)">
       <use xlink:href="#DejaVuSans-48"/>
       <use x="63.623047" xlink:href="#DejaVuSans-46"/>
       <use x="95.410156" xlink:href="#DejaVuSans-49"/>
       <use x="159.033203" xlink:href="#DejaVuSans-52"/>
      </g>
     </g>
    </g>
    <g id="ytick_6">
     <g id="line2d_16">
      <g>
       <use style="stroke:#000000;stroke-width:0.8;" x="144" xlink:href="#m1a9fadc02e" y="125.230424"/>
      </g>
     </g>
     <g id="text_16">
      <!-- 0.16 -->
      <g transform="translate(114.734375 129.029642)scale(0.1 -0.1)">
       <use xlink:href="#DejaVuSans-48"/>
       <use x="63.623047" xlink:href="#DejaVuSans-46"/>
       <use x="95.410156" xlink:href="#DejaVuSans-49"/>
       <use x="159.033203" xlink:href="#DejaVuSans-54"/>
      </g>
     </g>
    </g>
   </g>
   <g id="line2d_17">
    <path clip-path="url(#p1e1aecb057)" d="M 162.446281 428.387804 
L 163.369563 336.262575 
L 164.203495 316.084842 
L 165.126777 323.502488 
L 166.020276 341.174823 
L 166.943558 266.900017 
L 167.837057 251.914916 
L 168.760339 250.092638 
L 169.683621 238.560654 
L 171.500401 310.067173 
L 172.3939 433.789153 
L 173.317182 436.219629 
L 174.240464 379.613343 
L 175.074396 304.27675 
L 175.997678 297.222383 
L 176.891177 246.346576 
L 177.814459 122.876225 
L 178.707958 166.327842 
L 179.63124 180.090923 
L 180.554522 243.81073 
L 181.44802 282.666883 
L 182.371302 332.982153 
L 183.264801 366.188879 
L 184.188083 384.865787 
L 185.945297 174.106563 
L 186.868579 140.103143 
L 187.762078 269.603132 
L 188.68536 174.393358 
L 189.578859 171.113495 
L 190.502141 198.942137 
L 191.425423 176.715801 
L 192.318921 267.736629 
L 194.135702 393.559148 
L 195.058984 382.457588 
L 195.982266 345.646356 
L 196.845982 231.278613 
L 197.769264 230.770162 
L 198.662762 265.785487 
L 199.586044 167.157714 
L 200.479543 161.79699 
L 201.402825 209.023605 
L 202.326107 221.475392 
L 203.219606 285.931752 
L 204.142888 366.951179 
L 205.036386 406.524549 
L 205.959668 409.923181 
L 206.88295 406.391148 
L 208.640165 284.094875 
L 209.533663 284.552096 
L 210.456945 260.772588 
L 211.350444 198.890545 
L 212.273726 168.132462 
L 213.197008 178.162634 
L 214.090507 297.820766 
L 215.013789 314.738989 
L 215.907287 389.149236 
L 216.83057 380.650337 
L 217.753852 338.178006 
L 219.511066 172.82335 
L 220.404564 254.192475 
L 221.327846 229.191933 
L 222.221345 164.426056 
L 223.144627 168.002119 
L 224.961408 298.389687 
L 225.88469 354.239856 
L 226.778189 398.338291 
L 227.701471 357.897531 
L 228.624753 365.648401 
L 229.458685 274.616887 
L 230.381967 216.643375 
L 231.275465 249.897419 
L 232.198747 272.207471 
L 233.092246 183.272864 
L 234.015528 217.058705 
L 234.93881 303.573211 
L 235.832309 267.383018 
L 236.755591 311.078651 
L 237.64909 374.622573 
L 238.572372 384.415865 
L 239.495654 380.645635 
L 241.282651 272.366323 
L 242.17615 279.028443 
L 243.099432 195.235961 
L 243.99293 180.586255 
L 244.916212 189.328939 
L 245.839494 196.911915 
L 246.732993 325.430908 
L 247.656275 382.893042 
L 248.549774 449.252848 
L 249.473056 454.026598 
L 250.396338 427.915785 
L 252.153552 318.044566 
L 253.047051 307.400885 
L 253.970333 294.470404 
L 254.863832 233.804398 
L 255.787114 243.208763 
L 256.710396 258.415586 
L 257.603894 323.671303 
L 258.527176 399.462455 
L 259.420675 455.31185 
L 260.343957 456.958029 
L 262.101171 343.90191 
L 263.024453 259.285409 
L 263.917952 258.612186 
L 264.841234 182.426387 
L 265.734733 140.986184 
L 266.658015 178.32096 
L 267.581297 203.164229 
L 269.398077 329.659149 
L 270.291576 426.606513 
L 271.214858 394.090486 
L 272.972072 271.138977 
L 273.895354 193.183116 
L 274.788853 209.365181 
L 275.712135 202.206973 
L 276.605634 168.451515 
L 277.528916 165.506717 
L 279.345696 267.888609 
L 280.268978 353.130226 
L 281.162477 404.24015 
L 282.085759 392.686465 
L 283.009041 328.007429 
L 284.796039 233.421127 
L 285.689537 298.818466 
L 286.612819 201.373024 
L 287.506318 88.887273 
L 288.4296 158.701463 
L 289.352882 208.843544 
L 290.246381 286.575841 
L 291.169663 346.899318 
L 292.063161 392.205437 
L 292.986443 352.228836 
L 294.743658 235.624735 
L 295.66694 120.198066 
L 296.560438 244.183084 
L 297.48372 176.052082 
L 298.377219 147.232974 
L 300.223783 197.381204 
L 301.117282 257.992956 
L 302.934062 415.042256 
L 303.857344 389.734368 
L 304.780626 321.729106 
L 305.614559 243.798235 
L 306.537841 189.210104 
L 307.431339 207.915356 
L 308.354621 161.620415 
L 309.24812 150.666987 
L 310.171402 160.78982 
L 311.094684 208.213298 
L 311.988183 275.340747 
L 312.911465 320.027307 
L 313.804963 356.071373 
L 314.728245 358.940509 
L 315.651527 328.068523 
L 316.48546 210.864033 
L 317.408742 234.537465 
L 318.30224 212.101376 
L 320.119021 150.420965 
L 321.042303 180.906918 
L 321.965585 227.485827 
L 323.782366 350.396201 
L 324.675865 420.088251 
L 326.522429 357.525802 
L 327.386144 288.081664 
L 328.309426 228.90688 
L 329.202925 257.376126 
L 330.126207 156.699519 
L 331.019705 107.848838 
L 332.866269 230.174771 
L 333.759768 282.606249 
L 334.68305 307.021922 
L 335.576549 431.748984 
L 337.423113 367.627163 
L 338.257045 293.070888 
L 339.180327 225.992104 
L 340.073826 243.380242 
L 340.997108 181.490012 
L 341.890606 159.831578 
L 343.73717 226.601043 
L 344.630669 277.431012 
L 345.553951 366.299099 
L 346.44745 387.004782 
L 347.370732 371.687377 
L 349.127946 204.224437 
L 350.051228 229.748425 
L 350.944727 258.364159 
L 351.868009 228.233822 
L 352.761507 172.674889 
L 354.608072 185.828077 
L 355.50157 285.295258 
L 356.424852 352.974333 
L 357.318351 394.774954 
L 358.241633 392.133491 
L 359.164915 321.902557 
L 359.998847 314.02792 
L 360.922129 313.247273 
L 361.815628 309.518244 
L 362.73891 205.89878 
L 363.632409 179.467418 
L 364.555691 184.016092 
L 365.478973 186.634734 
L 366.372471 225.20271 
L 368.189252 417.506124 
L 369.112534 415.976758 
L 370.035816 383.42918 
L 371.822813 243.638495 
L 372.716312 320.76215 
L 374.533093 194.232013 
L 376.379657 247.357725 
L 377.273156 273.171961 
L 378.196438 368.621871 
L 379.089936 439.315074 
L 380.013218 435.802046 
L 380.9365 424.154072 
L 381.770432 335.58784 
L 382.693714 316.527267 
L 383.587213 306.169658 
L 384.510495 221.354222 
L 386.327276 159.079077 
L 387.250558 247.376928 
L 388.144057 263.543933 
L 389.067339 327.677361 
L 389.960837 433.236212 
L 390.884119 419.262835 
L 393.564616 261.553794 
L 394.458114 293.282812 
L 395.381396 189.008078 
L 396.274895 142.181997 
L 397.198177 185.618193 
L 398.121459 220.221345 
L 399.014958 323.222696 
L 400.831738 415.007632 
L 401.75502 420.046146 
L 402.678302 367.891862 
L 403.512235 237.107936 
L 404.435517 274.188075 
L 405.329015 196.683781 
L 406.252297 139.149504 
L 407.145796 153.51932 
L 408.069078 156.11636 
L 408.99236 195.117422 
L 409.885859 283.778354 
L 410.809141 317.661789 
L 411.702639 413.006954 
L 412.625921 424.711139 
L 413.549203 346.21268 
L 415.336201 288.273727 
L 416.2297 318.383808 
L 417.152982 280.126894 
L 418.04648 266.020855 
L 418.969762 201.811865 
L 419.893044 177.998916 
L 420.786543 295.469847 
L 422.603324 437.312177 
L 423.526606 434.111838 
L 424.449888 428.424697 
L 425.28382 300.768819 
L 426.207102 264.499676 
L 427.100601 266.604508 
L 428.023883 161.096081 
L 428.917381 95.504805 
L 429.840663 126.36183 
L 430.763945 175.989606 
L 431.657444 271.645324 
L 432.580726 332.005004 
L 433.474225 421.713517 
L 434.397507 418.866001 
L 435.320789 343.286395 
L 436.154721 322.971348 
L 437.078003 289.124346 
L 437.971502 327.296097 
L 438.894784 286.566864 
L 439.788282 205.451784 
L 440.711564 234.130256 
L 441.634846 243.657271 
L 442.528345 342.128231 
L 443.451627 395.757397 
L 444.345126 455.102015 
L 445.268408 440.892991 
L 446.19169 405.002548 
L 447.025622 358.090711 
L 447.948904 319.299731 
L 448.842403 326.663121 
L 450.659183 168.109642 
L 451.582465 192.615905 
L 452.505747 228.268151 
L 453.399246 242.247693 
L 454.322528 344.699623 
L 455.216027 421.519696 
L 456.139309 428.471833 
L 457.062591 356.346462 
L 457.926306 268.241694 
L 458.849588 206.134937 
L 459.743087 288.007187 
L 460.666369 210.43578 
L 461.559868 163.427797 
L 462.48315 125.192881 
L 463.406432 195.540973 
L 464.299931 247.02187 
L 465.223213 361.040244 
L 466.116711 430.461003 
L 467.039993 438.886295 
L 467.963275 414.590871 
L 468.797207 399.293837 
L 469.720489 333.743926 
L 470.613988 329.7671 
L 471.53727 156.831243 
L 472.430769 149.368517 
L 473.354051 177.969651 
L 474.277333 197.228073 
L 475.170832 307.525704 
L 476.094114 355.446487 
L 476.987612 417.420944 
L 477.910894 412.073981 
L 478.834176 342.324634 
L 480.59139 189.045169 
L 481.484889 211.446962 
L 482.408171 193.335655 
L 483.30167 146.874957 
L 485.148234 176.18259 
L 486.041733 273.987101 
L 486.965015 361.887477 
L 487.858513 431.59993 
L 488.781795 450.289514 
L 489.705077 403.646042 
L 490.53901 370.94336 
L 491.462292 314.388338 
L 492.35579 350.264279 
L 493.279072 381.647939 
L 494.172571 286.533423 
L 495.095853 245.047481 
L 496.019135 288.68419 
L 496.912634 307.948038 
L 497.835916 313.531898 
L 498.729414 388.494986 
L 499.652696 416.972879 
L 500.575978 374.001238 
L 501.439694 304.186358 
L 502.362976 238.752355 
L 503.256475 198.732778 
L 504.179757 163.107462 
L 505.073255 171.583837 
L 505.996537 147.789005 
L 506.919819 202.287829 
L 507.813318 232.844676 
L 508.7366 376.93045 
L 509.630099 454.280742 
L 510.553381 469.359753 
L 511.476663 398.357099 
L 512.310595 362.848152 
L 513.233877 281.993167 
L 514.127376 233.722949 
L 515.944156 163.376205 
L 516.867438 228.315336 
L 517.79072 279.847332 
L 518.684219 364.284989 
L 519.607501 409.508509 
L 520.501 447.616863 
L 521.424282 447.902704 
L 522.347564 423.466069 
L 523.181496 358.18791 
L 524.104778 323.507157 
L 524.998277 360.677228 
L 525.921559 292.626359 
L 526.815057 260.269397 
L 527.738339 257.507489 
L 529.55512 377.794814 
L 530.478402 446.37661 
L 531.371901 484.232727 
L 531.371901 484.232727 
" style="fill:none;stroke:#1f77b4;stroke-linecap:square;stroke-width:1.5;"/>
   </g>
   <g id="patch_3">
    <path d="M 144 504 
L 144 69.12 
" style="fill:none;stroke:#000000;stroke-linecap:square;stroke-linejoin:miter;stroke-width:0.8;"/>
   </g>
   <g id="patch_4">
    <path d="M 549.818182 504 
L 549.818182 69.12 
" style="fill:none;stroke:#000000;stroke-linecap:square;stroke-linejoin:miter;stroke-width:0.8;"/>
   </g>
   <g id="patch_5">
    <path d="M 144 504 
L 549.818182 504 
" style="fill:none;stroke:#000000;stroke-linecap:square;stroke-linejoin:miter;stroke-width:0.8;"/>
   </g>
   <g id="patch_6">
    <path d="M 144 69.12 
L 549.818182 69.12 
" style="fill:none;stroke:#000000;stroke-linecap:square;stroke-linejoin:miter;stroke-width:0.8;"/>
   </g>
   <g id="text_17">
    <!-- Monthly Evaporation -->
    <defs>
     <path d="M 9.8125 72.90625 
L 24.515625 72.90625 
L 43.109375 23.296875 
L 61.8125 72.90625 
L 76.515625 72.90625 
L 76.515625 0 
L 66.890625 0 
L 66.890625 64.015625 
L 48.09375 14.015625 
L 38.1875 14.015625 
L 19.390625 64.015625 
L 19.390625 0 
L 9.8125 0 
z
" id="DejaVuSans-77"/>
     <path d="M 30.609375 48.390625 
Q 23.390625 48.390625 19.1875 42.75 
Q 14.984375 37.109375 14.984375 27.296875 
Q 14.984375 17.484375 19.15625 11.84375 
Q 23.34375 6.203125 30.609375 6.203125 
Q 37.796875 6.203125 41.984375 11.859375 
Q 46.1875 17.53125 46.1875 27.296875 
Q 46.1875 37.015625 41.984375 42.703125 
Q 37.796875 48.390625 30.609375 48.390625 
z
M 30.609375 56 
Q 42.328125 56 49.015625 48.375 
Q 55.71875 40.765625 55.71875 27.296875 
Q 55.71875 13.875 49.015625 6.21875 
Q 42.328125 -1.421875 30.609375 -1.421875 
Q 18.84375 -1.421875 12.171875 6.21875 
Q 5.515625 13.875 5.515625 27.296875 
Q 5.515625 40.765625 12.171875 48.375 
Q 18.84375 56 30.609375 56 
z
" id="DejaVuSans-111"/>
     <path d="M 54.890625 33.015625 
L 54.890625 0 
L 45.90625 0 
L 45.90625 32.71875 
Q 45.90625 40.484375 42.875 44.328125 
Q 39.84375 48.1875 33.796875 48.1875 
Q 26.515625 48.1875 22.3125 43.546875 
Q 18.109375 38.921875 18.109375 30.90625 
L 18.109375 0 
L 9.078125 0 
L 9.078125 54.6875 
L 18.109375 54.6875 
L 18.109375 46.1875 
Q 21.34375 51.125 25.703125 53.5625 
Q 30.078125 56 35.796875 56 
Q 45.21875 56 50.046875 50.171875 
Q 54.890625 44.34375 54.890625 33.015625 
z
" id="DejaVuSans-110"/>
     <path d="M 18.3125 70.21875 
L 18.3125 54.6875 
L 36.8125 54.6875 
L 36.8125 47.703125 
L 18.3125 47.703125 
L 18.3125 18.015625 
Q 18.3125 11.328125 20.140625 9.421875 
Q 21.96875 7.515625 27.59375 7.515625 
L 36.8125 7.515625 
L 36.8125 0 
L 27.59375 0 
Q 17.1875 0 13.234375 3.875 
Q 9.28125 7.765625 9.28125 18.015625 
L 9.28125 47.703125 
L 2.6875 47.703125 
L 2.6875 54.6875 
L 9.28125 54.6875 
L 9.28125 70.21875 
z
" id="DejaVuSans-116"/>
     <path d="M 54.890625 33.015625 
L 54.890625 0 
L 45.90625 0 
L 45.90625 32.71875 
Q 45.90625 40.484375 42.875 44.328125 
Q 39.84375 48.1875 33.796875 48.1875 
Q 26.515625 48.1875 22.3125 43.546875 
Q 18.109375 38.921875 18.109375 30.90625 
L 18.109375 0 
L 9.078125 0 
L 9.078125 75.984375 
L 18.109375 75.984375 
L 18.109375 46.1875 
Q 21.34375 51.125 25.703125 53.5625 
Q 30.078125 56 35.796875 56 
Q 45.21875 56 50.046875 50.171875 
Q 54.890625 44.34375 54.890625 33.015625 
z
" id="DejaVuSans-104"/>
     <path d="M 9.421875 75.984375 
L 18.40625 75.984375 
L 18.40625 0 
L 9.421875 0 
z
" id="DejaVuSans-108"/>
     <path d="M 32.171875 -5.078125 
Q 28.375 -14.84375 24.75 -17.8125 
Q 21.140625 -20.796875 15.09375 -20.796875 
L 7.90625 -20.796875 
L 7.90625 -13.28125 
L 13.1875 -13.28125 
Q 16.890625 -13.28125 18.9375 -11.515625 
Q 21 -9.765625 23.484375 -3.21875 
L 25.09375 0.875 
L 2.984375 54.6875 
L 12.5 54.6875 
L 29.59375 11.921875 
L 46.6875 54.6875 
L 56.203125 54.6875 
z
" id="DejaVuSans-121"/>
     <path id="DejaVuSans-32"/>
     <path d="M 9.8125 72.90625 
L 55.90625 72.90625 
L 55.90625 64.59375 
L 19.671875 64.59375 
L 19.671875 43.015625 
L 54.390625 43.015625 
L 54.390625 34.71875 
L 19.671875 34.71875 
L 19.671875 8.296875 
L 56.78125 8.296875 
L 56.78125 0 
L 9.8125 0 
z
" id="DejaVuSans-69"/>
     <path d="M 2.984375 54.6875 
L 12.5 54.6875 
L 29.59375 8.796875 
L 46.6875 54.6875 
L 56.203125 54.6875 
L 35.6875 0 
L 23.484375 0 
z
" id="DejaVuSans-118"/>
     <path d="M 34.28125 27.484375 
Q 23.390625 27.484375 19.1875 25 
Q 14.984375 22.515625 14.984375 16.5 
Q 14.984375 11.71875 18.140625 8.90625 
Q 21.296875 6.109375 26.703125 6.109375 
Q 34.1875 6.109375 38.703125 11.40625 
Q 43.21875 16.703125 43.21875 25.484375 
L 43.21875 27.484375 
z
M 52.203125 31.203125 
L 52.203125 0 
L 43.21875 0 
L 43.21875 8.296875 
Q 40.140625 3.328125 35.546875 0.953125 
Q 30.953125 -1.421875 24.3125 -1.421875 
Q 15.921875 -1.421875 10.953125 3.296875 
Q 6 8.015625 6 15.921875 
Q 6 25.140625 12.171875 29.828125 
Q 18.359375 34.515625 30.609375 34.515625 
L 43.21875 34.515625 
L 43.21875 35.40625 
Q 43.21875 41.609375 39.140625 45 
Q 35.0625 48.390625 27.6875 48.390625 
Q 23 48.390625 18.546875 47.265625 
Q 14.109375 46.140625 10.015625 43.890625 
L 10.015625 52.203125 
Q 14.9375 54.109375 19.578125 55.046875 
Q 24.21875 56 28.609375 56 
Q 40.484375 56 46.34375 49.84375 
Q 52.203125 43.703125 52.203125 31.203125 
z
" id="DejaVuSans-97"/>
     <path d="M 18.109375 8.203125 
L 18.109375 -20.796875 
L 9.078125 -20.796875 
L 9.078125 54.6875 
L 18.109375 54.6875 
L 18.109375 46.390625 
Q 20.953125 51.265625 25.265625 53.625 
Q 29.59375 56 35.59375 56 
Q 45.5625 56 51.78125 48.09375 
Q 58.015625 40.1875 58.015625 27.296875 
Q 58.015625 14.40625 51.78125 6.484375 
Q 45.5625 -1.421875 35.59375 -1.421875 
Q 29.59375 -1.421875 25.265625 0.953125 
Q 20.953125 3.328125 18.109375 8.203125 
z
M 48.6875 27.296875 
Q 48.6875 37.203125 44.609375 42.84375 
Q 40.53125 48.484375 33.40625 48.484375 
Q 26.265625 48.484375 22.1875 42.84375 
Q 18.109375 37.203125 18.109375 27.296875 
Q 18.109375 17.390625 22.1875 11.75 
Q 26.265625 6.109375 33.40625 6.109375 
Q 40.53125 6.109375 44.609375 11.75 
Q 48.6875 17.390625 48.6875 27.296875 
z
" id="DejaVuSans-112"/>
     <path d="M 41.109375 46.296875 
Q 39.59375 47.171875 37.8125 47.578125 
Q 36.03125 48 33.890625 48 
Q 26.265625 48 22.1875 43.046875 
Q 18.109375 38.09375 18.109375 28.8125 
L 18.109375 0 
L 9.078125 0 
L 9.078125 54.6875 
L 18.109375 54.6875 
L 18.109375 46.1875 
Q 20.953125 51.171875 25.484375 53.578125 
Q 30.03125 56 36.53125 56 
Q 37.453125 56 38.578125 55.875 
Q 39.703125 55.765625 41.0625 55.515625 
z
" id="DejaVuSans-114"/>
     <path d="M 9.421875 54.6875 
L 18.40625 54.6875 
L 18.40625 0 
L 9.421875 0 
z
M 9.421875 75.984375 
L 18.40625 75.984375 
L 18.40625 64.59375 
L 9.421875 64.59375 
z
" id="DejaVuSans-105"/>
    </defs>
    <g transform="translate(284.842841 63.12)scale(0.12 -0.12)">
     <use xlink:href="#DejaVuSans-77"/>
     <use x="86.279297" xlink:href="#DejaVuSans-111"/>
     <use x="147.460938" xlink:href="#DejaVuSans-110"/>
     <use x="210.839844" xlink:href="#DejaVuSans-116"/>
     <use x="250.048828" xlink:href="#DejaVuSans-104"/>
     <use x="313.427734" xlink:href="#DejaVuSans-108"/>
     <use x="341.210938" xlink:href="#DejaVuSans-121"/>
     <use x="400.390625" xlink:href="#DejaVuSans-32"/>
     <use x="432.177734" xlink:href="#DejaVuSans-69"/>
     <use x="495.361328" xlink:href="#DejaVuSans-118"/>
     <use x="554.541016" xlink:href="#DejaVuSans-97"/>
     <use x="615.820312" xlink:href="#DejaVuSans-112"/>
     <use x="679.296875" xlink:href="#DejaVuSans-111"/>
     <use x="740.478516" xlink:href="#DejaVuSans-114"/>
     <use x="781.591797" xlink:href="#DejaVuSans-97"/>
     <use x="842.871094" xlink:href="#DejaVuSans-116"/>
     <use x="882.080078" xlink:href="#DejaVuSans-105"/>
     <use x="909.863281" xlink:href="#DejaVuSans-111"/>
     <use x="971.044922" xlink:href="#DejaVuSans-110"/>
    </g>
   </g>
  </g>
  <g id="axes_2">
   <g id="patch_7">
    <path d="M 630.981818 504 
L 1036.8 504 
L 1036.8 69.12 
L 630.981818 69.12 
z
" style="fill:#ffffff;"/>
   </g>
   <g id="matplotlib.axis_3">
    <g id="xtick_11">
     <g id="line2d_18">
      <g>
       <use style="stroke:#000000;stroke-width:0.8;" x="638.527415" xlink:href="#m39f77b88c5" y="504"/>
      </g>
     </g>
     <g id="text_18">
      <!-- 1980 -->
      <g transform="translate(625.802415 518.598438)scale(0.1 -0.1)">
       <use xlink:href="#DejaVuSans-49"/>
       <use x="63.623047" xlink:href="#DejaVuSans-57"/>
       <use x="127.246094" xlink:href="#DejaVuSans-56"/>
       <use x="190.869141" xlink:href="#DejaVuSans-48"/>
      </g>
     </g>
    </g>
    <g id="xtick_12">
     <g id="line2d_19">
      <g>
       <use style="stroke:#000000;stroke-width:0.8;" x="682.040802" xlink:href="#m39f77b88c5" y="504"/>
      </g>
     </g>
     <g id="text_19">
      <!-- 1984 -->
      <g transform="translate(669.315802 518.598438)scale(0.1 -0.1)">
       <use xlink:href="#DejaVuSans-49"/>
       <use x="63.623047" xlink:href="#DejaVuSans-57"/>
       <use x="127.246094" xlink:href="#DejaVuSans-56"/>
       <use x="190.869141" xlink:href="#DejaVuSans-52"/>
      </g>
     </g>
    </g>
    <g id="xtick_13">
     <g id="line2d_20">
      <g>
       <use style="stroke:#000000;stroke-width:0.8;" x="725.55419" xlink:href="#m39f77b88c5" y="504"/>
      </g>
     </g>
     <g id="text_20">
      <!-- 1988 -->
      <g transform="translate(712.82919 518.598438)scale(0.1 -0.1)">
       <use xlink:href="#DejaVuSans-49"/>
       <use x="63.623047" xlink:href="#DejaVuSans-57"/>
       <use x="127.246094" xlink:href="#DejaVuSans-56"/>
       <use x="190.869141" xlink:href="#DejaVuSans-56"/>
      </g>
     </g>
    </g>
    <g id="xtick_14">
     <g id="line2d_21">
      <g>
       <use style="stroke:#000000;stroke-width:0.8;" x="769.067577" xlink:href="#m39f77b88c5" y="504"/>
      </g>
     </g>
     <g id="text_21">
      <!-- 1992 -->
      <g transform="translate(756.342577 518.598438)scale(0.1 -0.1)">
       <use xlink:href="#DejaVuSans-49"/>
       <use x="63.623047" xlink:href="#DejaVuSans-57"/>
       <use x="127.246094" xlink:href="#DejaVuSans-57"/>
       <use x="190.869141" xlink:href="#DejaVuSans-50"/>
      </g>
     </g>
    </g>
    <g id="xtick_15">
     <g id="line2d_22">
      <g>
       <use style="stroke:#000000;stroke-width:0.8;" x="812.580965" xlink:href="#m39f77b88c5" y="504"/>
      </g>
     </g>
     <g id="text_22">
      <!-- 1996 -->
      <g transform="translate(799.855965 518.598438)scale(0.1 -0.1)">
       <use xlink:href="#DejaVuSans-49"/>
       <use x="63.623047" xlink:href="#DejaVuSans-57"/>
       <use x="127.246094" xlink:href="#DejaVuSans-57"/>
       <use x="190.869141" xlink:href="#DejaVuSans-54"/>
      </g>
     </g>
    </g>
    <g id="xtick_16">
     <g id="line2d_23">
      <g>
       <use style="stroke:#000000;stroke-width:0.8;" x="856.094352" xlink:href="#m39f77b88c5" y="504"/>
      </g>
     </g>
     <g id="text_23">
      <!-- 2000 -->
      <g transform="translate(843.369352 518.598438)scale(0.1 -0.1)">
       <use xlink:href="#DejaVuSans-50"/>
       <use x="63.623047" xlink:href="#DejaVuSans-48"/>
       <use x="127.246094" xlink:href="#DejaVuSans-48"/>
       <use x="190.869141" xlink:href="#DejaVuSans-48"/>
      </g>
     </g>
    </g>
    <g id="xtick_17">
     <g id="line2d_24">
      <g>
       <use style="stroke:#000000;stroke-width:0.8;" x="899.60774" xlink:href="#m39f77b88c5" y="504"/>
      </g>
     </g>
     <g id="text_24">
      <!-- 2004 -->
      <g transform="translate(886.88274 518.598438)scale(0.1 -0.1)">
       <use xlink:href="#DejaVuSans-50"/>
       <use x="63.623047" xlink:href="#DejaVuSans-48"/>
       <use x="127.246094" xlink:href="#DejaVuSans-48"/>
       <use x="190.869141" xlink:href="#DejaVuSans-52"/>
      </g>
     </g>
    </g>
    <g id="xtick_18">
     <g id="line2d_25">
      <g>
       <use style="stroke:#000000;stroke-width:0.8;" x="943.121127" xlink:href="#m39f77b88c5" y="504"/>
      </g>
     </g>
     <g id="text_25">
      <!-- 2008 -->
      <g transform="translate(930.396127 518.598438)scale(0.1 -0.1)">
       <use xlink:href="#DejaVuSans-50"/>
       <use x="63.623047" xlink:href="#DejaVuSans-48"/>
       <use x="127.246094" xlink:href="#DejaVuSans-48"/>
       <use x="190.869141" xlink:href="#DejaVuSans-56"/>
      </g>
     </g>
    </g>
    <g id="xtick_19">
     <g id="line2d_26">
      <g>
       <use style="stroke:#000000;stroke-width:0.8;" x="986.634515" xlink:href="#m39f77b88c5" y="504"/>
      </g>
     </g>
     <g id="text_26">
      <!-- 2012 -->
      <g transform="translate(973.909515 518.598438)scale(0.1 -0.1)">
       <use xlink:href="#DejaVuSans-50"/>
       <use x="63.623047" xlink:href="#DejaVuSans-48"/>
       <use x="127.246094" xlink:href="#DejaVuSans-49"/>
       <use x="190.869141" xlink:href="#DejaVuSans-50"/>
      </g>
     </g>
    </g>
    <g id="xtick_20">
     <g id="line2d_27">
      <g>
       <use style="stroke:#000000;stroke-width:0.8;" x="1030.147902" xlink:href="#m39f77b88c5" y="504"/>
      </g>
     </g>
     <g id="text_27">
      <!-- 2016 -->
      <g transform="translate(1017.422902 518.598438)scale(0.1 -0.1)">
       <use xlink:href="#DejaVuSans-50"/>
       <use x="63.623047" xlink:href="#DejaVuSans-48"/>
       <use x="127.246094" xlink:href="#DejaVuSans-49"/>
       <use x="190.869141" xlink:href="#DejaVuSans-54"/>
      </g>
     </g>
    </g>
   </g>
   <g id="matplotlib.axis_4">
    <g id="ytick_7">
     <g id="line2d_28">
      <g>
       <use style="stroke:#000000;stroke-width:0.8;" x="630.981818" xlink:href="#m1a9fadc02e" y="475.537776"/>
      </g>
     </g>
    </g>
    <g id="ytick_8">
     <g id="line2d_29">
      <g>
       <use style="stroke:#000000;stroke-width:0.8;" x="630.981818" xlink:href="#m1a9fadc02e" y="405.476305"/>
      </g>
     </g>
    </g>
    <g id="ytick_9">
     <g id="line2d_30">
      <g>
       <use style="stroke:#000000;stroke-width:0.8;" x="630.981818" xlink:href="#m1a9fadc02e" y="335.414835"/>
      </g>
     </g>
    </g>
    <g id="ytick_10">
     <g id="line2d_31">
      <g>
       <use style="stroke:#000000;stroke-width:0.8;" x="630.981818" xlink:href="#m1a9fadc02e" y="265.353365"/>
      </g>
     </g>
    </g>
    <g id="ytick_11">
     <g id="line2d_32">
      <g>
       <use style="stroke:#000000;stroke-width:0.8;" x="630.981818" xlink:href="#m1a9fadc02e" y="195.291894"/>
      </g>
     </g>
    </g>
    <g id="ytick_12">
     <g id="line2d_33">
      <g>
       <use style="stroke:#000000;stroke-width:0.8;" x="630.981818" xlink:href="#m1a9fadc02e" y="125.230424"/>
      </g>
     </g>
    </g>
   </g>
   <g id="line2d_34">
    <path clip-path="url(#p87e1ecdce6)" d="M 649.428099 408.963657 
L 650.351381 362.625246 
L 651.185313 297.545743 
L 652.108595 253.423238 
L 653.002094 272.53675 
L 653.925376 213.215281 
L 654.818875 174.59328 
L 655.742157 189.223356 
L 656.665439 221.778036 
L 659.375718 416.206421 
L 660.299 408.963657 
L 661.222282 362.625246 
L 662.056214 297.545743 
L 662.979496 253.423238 
L 663.872995 272.53675 
L 664.796277 213.215281 
L 665.689776 174.59328 
L 666.613058 189.223356 
L 667.53634 221.778036 
L 670.246619 416.206421 
L 671.169901 408.963657 
L 672.093183 362.625246 
L 672.927115 297.545743 
L 673.850397 253.423238 
L 674.743896 272.53675 
L 675.667178 213.215281 
L 676.560677 174.59328 
L 677.483959 189.223356 
L 678.407241 221.778036 
L 681.11752 416.206421 
L 682.040802 408.963657 
L 682.964084 362.625246 
L 683.8278 297.545743 
L 684.751082 253.423238 
L 685.64458 272.53675 
L 686.567862 213.215281 
L 687.461361 174.59328 
L 688.384643 189.223356 
L 689.307925 221.778036 
L 692.018205 416.206421 
L 692.941487 408.963657 
L 693.864769 362.625246 
L 694.698701 297.545743 
L 695.621983 253.423238 
L 696.515482 272.53675 
L 697.438764 213.215281 
L 698.332262 174.59328 
L 699.255544 189.223356 
L 700.178826 221.778036 
L 702.889106 416.206421 
L 703.812388 408.963657 
L 704.73567 362.625246 
L 705.569602 297.545743 
L 706.492884 253.423238 
L 707.386383 272.53675 
L 708.309665 213.215281 
L 709.203163 174.59328 
L 710.126445 189.223356 
L 711.049727 221.778036 
L 713.760007 416.206421 
L 714.683289 408.963657 
L 715.606571 362.625246 
L 716.440503 297.545743 
L 717.363785 253.423238 
L 718.257284 272.53675 
L 719.180566 213.215281 
L 720.074064 174.59328 
L 720.997346 189.223356 
L 721.920628 221.778036 
L 724.630908 416.206421 
L 725.55419 408.963657 
L 726.477472 362.625246 
L 727.341187 297.545743 
L 728.264469 253.423238 
L 729.157968 272.53675 
L 730.08125 213.215281 
L 730.974749 174.59328 
L 731.898031 189.223356 
L 732.821313 221.778036 
L 735.531592 416.206421 
L 736.454874 408.963657 
L 737.378156 362.625246 
L 738.212088 297.545743 
L 739.13537 253.423238 
L 740.028869 272.53675 
L 740.952151 213.215281 
L 741.84565 174.59328 
L 742.768932 189.223356 
L 743.692214 221.778036 
L 746.402493 416.206421 
L 747.325775 408.963657 
L 748.249057 362.625246 
L 749.082989 297.545743 
L 750.006271 253.423238 
L 750.89977 272.53675 
L 751.823052 213.215281 
L 752.716551 174.59328 
L 753.639833 189.223356 
L 754.563115 221.778036 
L 757.273394 416.206421 
L 758.196676 408.963657 
L 759.119958 362.625246 
L 759.95389 297.545743 
L 760.877172 253.423238 
L 761.770671 272.53675 
L 762.693953 213.215281 
L 763.587452 174.59328 
L 764.510734 189.223356 
L 765.434016 221.778036 
L 768.144295 416.206421 
L 769.067577 408.963657 
L 769.990859 362.625246 
L 770.854575 297.545743 
L 771.777857 253.423238 
L 772.671355 272.53675 
L 773.594637 213.215281 
L 774.488136 174.59328 
L 775.411418 189.223356 
L 776.3347 221.778036 
L 779.04498 416.206421 
L 779.968262 408.963657 
L 780.891544 362.625246 
L 781.725476 297.545743 
L 782.648758 253.423238 
L 783.542256 272.53675 
L 784.465538 213.215281 
L 785.359037 174.59328 
L 786.282319 189.223356 
L 787.205601 221.778036 
L 789.915881 416.206421 
L 790.839163 408.963657 
L 791.762445 362.625246 
L 792.596377 297.545743 
L 793.519659 253.423238 
L 794.413157 272.53675 
L 795.336439 213.215281 
L 796.229938 174.59328 
L 797.15322 189.223356 
L 798.076502 221.778036 
L 800.786782 416.206421 
L 801.710064 408.963657 
L 802.633346 362.625246 
L 803.467278 297.545743 
L 804.39056 253.423238 
L 805.284059 272.53675 
L 806.207341 213.215281 
L 807.100839 174.59328 
L 808.024121 189.223356 
L 808.947403 221.778036 
L 811.657683 416.206421 
L 812.580965 408.963657 
L 813.504247 362.625246 
L 814.367962 297.545743 
L 815.291244 253.423238 
L 816.184743 272.53675 
L 817.108025 213.215281 
L 818.001524 174.59328 
L 818.924806 189.223356 
L 819.848088 221.778036 
L 822.558367 416.206421 
L 823.481649 408.963657 
L 824.404931 362.625246 
L 825.238863 297.545743 
L 826.162145 253.423238 
L 827.055644 272.53675 
L 827.978926 213.215281 
L 828.872425 174.59328 
L 829.795707 189.223356 
L 830.718989 221.778036 
L 833.429268 416.206421 
L 834.35255 408.963657 
L 835.275832 362.625246 
L 836.109764 297.545743 
L 837.033046 253.423238 
L 837.926545 272.53675 
L 838.849827 213.215281 
L 839.743326 174.59328 
L 840.666608 189.223356 
L 841.58989 221.778036 
L 844.300169 416.206421 
L 845.223451 408.963657 
L 846.146733 362.625246 
L 846.980665 297.545743 
L 847.903947 253.423238 
L 848.797446 272.53675 
L 849.720728 213.215281 
L 850.614227 174.59328 
L 851.537509 189.223356 
L 852.460791 221.778036 
L 855.17107 416.206421 
L 856.094352 408.963657 
L 857.017634 362.625246 
L 857.88135 297.545743 
L 858.804632 253.423238 
L 859.69813 272.53675 
L 860.621412 213.215281 
L 861.514911 174.59328 
L 862.438193 189.223356 
L 863.361475 221.778036 
L 866.071755 416.206421 
L 866.995037 408.963657 
L 867.918319 362.625246 
L 868.752251 297.545743 
L 869.675533 253.423238 
L 870.569031 272.53675 
L 871.492313 213.215281 
L 872.385812 174.59328 
L 873.309094 189.223356 
L 874.232376 221.778036 
L 876.942656 416.206421 
L 877.865938 408.963657 
L 878.78922 362.625246 
L 879.623152 297.545743 
L 880.546434 253.423238 
L 881.439932 272.53675 
L 882.363214 213.215281 
L 883.256713 174.59328 
L 884.179995 189.223356 
L 885.103277 221.778036 
L 887.813557 416.206421 
L 888.736839 408.963657 
L 889.660121 362.625246 
L 890.494053 297.545743 
L 891.417335 253.423238 
L 892.310833 272.53675 
L 893.234115 213.215281 
L 894.127614 174.59328 
L 895.050896 189.223356 
L 895.974178 221.778036 
L 898.684458 416.206421 
L 899.60774 408.963657 
L 900.531022 362.625246 
L 901.394737 297.545743 
L 902.318019 253.423238 
L 903.211518 272.53675 
L 904.1348 213.215281 
L 905.028299 174.59328 
L 905.951581 189.223356 
L 906.874863 221.778036 
L 909.585142 416.206421 
L 910.508424 408.963657 
L 911.431706 362.625246 
L 912.265638 297.545743 
L 913.18892 253.423238 
L 914.082419 272.53675 
L 915.005701 213.215281 
L 915.8992 174.59328 
L 916.822482 189.223356 
L 917.745764 221.778036 
L 920.456043 416.206421 
L 921.379325 408.963657 
L 922.302607 362.625246 
L 923.136539 297.545743 
L 924.059821 253.423238 
L 924.95332 272.53675 
L 925.876602 213.215281 
L 926.770101 174.59328 
L 927.693383 189.223356 
L 928.616665 221.778036 
L 931.326944 416.206421 
L 932.250226 408.963657 
L 933.173508 362.625246 
L 934.00744 297.545743 
L 934.930722 253.423238 
L 935.824221 272.53675 
L 936.747503 213.215281 
L 937.641002 174.59328 
L 938.564284 189.223356 
L 939.487566 221.778036 
L 942.197845 416.206421 
L 943.121127 408.963657 
L 944.044409 362.625246 
L 944.908125 297.545743 
L 945.831407 253.423238 
L 946.724905 272.53675 
L 947.648187 213.215281 
L 948.541686 174.59328 
L 949.464968 189.223356 
L 950.38825 221.778036 
L 953.098529 416.206421 
L 954.021811 408.963657 
L 954.945093 362.625246 
L 955.779026 297.545743 
L 956.702308 253.423238 
L 957.595806 272.53675 
L 958.519088 213.215281 
L 959.412587 174.59328 
L 960.335869 189.223356 
L 961.259151 221.778036 
L 963.96943 416.206421 
L 964.892713 408.963657 
L 965.815995 362.625246 
L 966.649927 297.545743 
L 967.573209 253.423238 
L 968.466707 272.53675 
L 969.389989 213.215281 
L 970.283488 174.59328 
L 971.20677 189.223356 
L 972.130052 221.778036 
L 974.840332 416.206421 
L 975.763614 408.963657 
L 976.686896 362.625246 
L 977.520828 297.545743 
L 978.44411 253.423238 
L 979.337608 272.53675 
L 980.26089 213.215281 
L 981.154389 174.59328 
L 982.077671 189.223356 
L 983.000953 221.778036 
L 985.711233 416.206421 
L 986.634515 408.963657 
L 987.557797 362.625246 
L 988.421512 297.545743 
L 989.344794 253.423238 
L 990.238293 272.53675 
L 991.161575 213.215281 
L 992.055073 174.59328 
L 992.978355 189.223356 
L 993.901637 221.778036 
L 996.611917 416.206421 
L 997.535199 408.963657 
L 998.458481 362.625246 
L 999.292413 297.545743 
L 1000.215695 253.423238 
L 1001.109194 272.53675 
L 1002.032476 213.215281 
L 1002.925975 174.59328 
L 1003.849257 189.223356 
L 1004.772539 221.778036 
L 1007.482818 416.206421 
L 1008.4061 408.963657 
L 1009.329382 362.625246 
L 1010.163314 297.545743 
L 1011.086596 253.423238 
L 1011.980095 272.53675 
L 1012.903377 213.215281 
L 1013.796876 174.59328 
L 1014.720158 189.223356 
L 1015.64344 221.778036 
L 1018.353719 416.206421 
L 1018.353719 416.206421 
" style="fill:none;stroke:#1f77b4;stroke-linecap:square;stroke-width:1.5;"/>
   </g>
   <g id="patch_8">
    <path d="M 630.981818 504 
L 630.981818 69.12 
" style="fill:none;stroke:#000000;stroke-linecap:square;stroke-linejoin:miter;stroke-width:0.8;"/>
   </g>
   <g id="patch_9">
    <path d="M 1036.8 504 
L 1036.8 69.12 
" style="fill:none;stroke:#000000;stroke-linecap:square;stroke-linejoin:miter;stroke-width:0.8;"/>
   </g>
   <g id="patch_10">
    <path d="M 630.981818 504 
L 1036.8 504 
" style="fill:none;stroke:#000000;stroke-linecap:square;stroke-linejoin:miter;stroke-width:0.8;"/>
   </g>
   <g id="patch_11">
    <path d="M 630.981818 69.12 
L 1036.8 69.12 
" style="fill:none;stroke:#000000;stroke-linecap:square;stroke-linejoin:miter;stroke-width:0.8;"/>
   </g>
   <g id="text_28">
    <!-- Average Evaporation -->
    <defs>
     <path d="M 34.1875 63.1875 
L 20.796875 26.90625 
L 47.609375 26.90625 
z
M 28.609375 72.90625 
L 39.796875 72.90625 
L 67.578125 0 
L 57.328125 0 
L 50.6875 18.703125 
L 17.828125 18.703125 
L 11.1875 0 
L 0.78125 0 
z
" id="DejaVuSans-65"/>
     <path d="M 56.203125 29.59375 
L 56.203125 25.203125 
L 14.890625 25.203125 
Q 15.484375 15.921875 20.484375 11.0625 
Q 25.484375 6.203125 34.421875 6.203125 
Q 39.59375 6.203125 44.453125 7.46875 
Q 49.3125 8.734375 54.109375 11.28125 
L 54.109375 2.78125 
Q 49.265625 0.734375 44.1875 -0.34375 
Q 39.109375 -1.421875 33.890625 -1.421875 
Q 20.796875 -1.421875 13.15625 6.1875 
Q 5.515625 13.8125 5.515625 26.8125 
Q 5.515625 40.234375 12.765625 48.109375 
Q 20.015625 56 32.328125 56 
Q 43.359375 56 49.78125 48.890625 
Q 56.203125 41.796875 56.203125 29.59375 
z
M 47.21875 32.234375 
Q 47.125 39.59375 43.09375 43.984375 
Q 39.0625 48.390625 32.421875 48.390625 
Q 24.90625 48.390625 20.390625 44.140625 
Q 15.875 39.890625 15.1875 32.171875 
z
" id="DejaVuSans-101"/>
     <path d="M 45.40625 27.984375 
Q 45.40625 37.75 41.375 43.109375 
Q 37.359375 48.484375 30.078125 48.484375 
Q 22.859375 48.484375 18.828125 43.109375 
Q 14.796875 37.75 14.796875 27.984375 
Q 14.796875 18.265625 18.828125 12.890625 
Q 22.859375 7.515625 30.078125 7.515625 
Q 37.359375 7.515625 41.375 12.890625 
Q 45.40625 18.265625 45.40625 27.984375 
z
M 54.390625 6.78125 
Q 54.390625 -7.171875 48.1875 -13.984375 
Q 42 -20.796875 29.203125 -20.796875 
Q 24.46875 -20.796875 20.265625 -20.09375 
Q 16.0625 -19.390625 12.109375 -17.921875 
L 12.109375 -9.1875 
Q 16.0625 -11.328125 19.921875 -12.34375 
Q 23.78125 -13.375 27.78125 -13.375 
Q 36.625 -13.375 41.015625 -8.765625 
Q 45.40625 -4.15625 45.40625 5.171875 
L 45.40625 9.625 
Q 42.625 4.78125 38.28125 2.390625 
Q 33.9375 0 27.875 0 
Q 17.828125 0 11.671875 7.65625 
Q 5.515625 15.328125 5.515625 27.984375 
Q 5.515625 40.671875 11.671875 48.328125 
Q 17.828125 56 27.875 56 
Q 33.9375 56 38.28125 53.609375 
Q 42.625 51.21875 45.40625 46.390625 
L 45.40625 54.6875 
L 54.390625 54.6875 
z
" id="DejaVuSans-103"/>
    </defs>
    <g transform="translate(770.860909 63.12)scale(0.12 -0.12)">
     <use xlink:href="#DejaVuSans-65"/>
     <use x="68.330078" xlink:href="#DejaVuSans-118"/>
     <use x="127.509766" xlink:href="#DejaVuSans-101"/>
     <use x="189.033203" xlink:href="#DejaVuSans-114"/>
     <use x="230.146484" xlink:href="#DejaVuSans-97"/>
     <use x="291.425781" xlink:href="#DejaVuSans-103"/>
     <use x="354.902344" xlink:href="#DejaVuSans-101"/>
     <use x="416.425781" xlink:href="#DejaVuSans-32"/>
     <use x="448.212891" xlink:href="#DejaVuSans-69"/>
     <use x="511.396484" xlink:href="#DejaVuSans-118"/>
     <use x="570.576172" xlink:href="#DejaVuSans-97"/>
     <use x="631.855469" xlink:href="#DejaVuSans-112"/>
     <use x="695.332031" xlink:href="#DejaVuSans-111"/>
     <use x="756.513672" xlink:href="#DejaVuSans-114"/>
     <use x="797.626953" xlink:href="#DejaVuSans-97"/>
     <use x="858.90625" xlink:href="#DejaVuSans-116"/>
     <use x="898.115234" xlink:href="#DejaVuSans-105"/>
     <use x="925.898438" xlink:href="#DejaVuSans-111"/>
     <use x="987.080078" xlink:href="#DejaVuSans-110"/>
    </g>
   </g>
  </g>
  <g id="text_29">
   <!-- Broward, Florida -->
   <defs>
    <path d="M 19.671875 34.8125 
L 19.671875 8.109375 
L 35.5 8.109375 
Q 43.453125 8.109375 47.28125 11.40625 
Q 51.125 14.703125 51.125 21.484375 
Q 51.125 28.328125 47.28125 31.5625 
Q 43.453125 34.8125 35.5 34.8125 
z
M 19.671875 64.796875 
L 19.671875 42.828125 
L 34.28125 42.828125 
Q 41.5 42.828125 45.03125 45.53125 
Q 48.578125 48.25 48.578125 53.8125 
Q 48.578125 59.328125 45.03125 62.0625 
Q 41.5 64.796875 34.28125 64.796875 
z
M 9.8125 72.90625 
L 35.015625 72.90625 
Q 46.296875 72.90625 52.390625 68.21875 
Q 58.5 63.53125 58.5 54.890625 
Q 58.5 48.1875 55.375 44.234375 
Q 52.25 40.28125 46.1875 39.3125 
Q 53.46875 37.75 57.5 32.78125 
Q 61.53125 27.828125 61.53125 20.40625 
Q 61.53125 10.640625 54.890625 5.3125 
Q 48.25 0 35.984375 0 
L 9.8125 0 
z
" id="DejaVuSans-66"/>
    <path d="M 4.203125 54.6875 
L 13.1875 54.6875 
L 24.421875 12.015625 
L 35.59375 54.6875 
L 46.1875 54.6875 
L 57.421875 12.015625 
L 68.609375 54.6875 
L 77.59375 54.6875 
L 63.28125 0 
L 52.6875 0 
L 40.921875 44.828125 
L 29.109375 0 
L 18.5 0 
z
" id="DejaVuSans-119"/>
    <path d="M 45.40625 46.390625 
L 45.40625 75.984375 
L 54.390625 75.984375 
L 54.390625 0 
L 45.40625 0 
L 45.40625 8.203125 
Q 42.578125 3.328125 38.25 0.953125 
Q 33.9375 -1.421875 27.875 -1.421875 
Q 17.96875 -1.421875 11.734375 6.484375 
Q 5.515625 14.40625 5.515625 27.296875 
Q 5.515625 40.1875 11.734375 48.09375 
Q 17.96875 56 27.875 56 
Q 33.9375 56 38.25 53.625 
Q 42.578125 51.265625 45.40625 46.390625 
z
M 14.796875 27.296875 
Q 14.796875 17.390625 18.875 11.75 
Q 22.953125 6.109375 30.078125 6.109375 
Q 37.203125 6.109375 41.296875 11.75 
Q 45.40625 17.390625 45.40625 27.296875 
Q 45.40625 37.203125 41.296875 42.84375 
Q 37.203125 48.484375 30.078125 48.484375 
Q 22.953125 48.484375 18.875 42.84375 
Q 14.796875 37.203125 14.796875 27.296875 
z
" id="DejaVuSans-100"/>
    <path d="M 11.71875 12.40625 
L 22.015625 12.40625 
L 22.015625 4 
L 14.015625 -11.625 
L 7.71875 -11.625 
L 11.71875 4 
z
" id="DejaVuSans-44"/>
    <path d="M 9.8125 72.90625 
L 51.703125 72.90625 
L 51.703125 64.59375 
L 19.671875 64.59375 
L 19.671875 43.109375 
L 48.578125 43.109375 
L 48.578125 34.8125 
L 19.671875 34.8125 
L 19.671875 0 
L 9.8125 0 
z
" id="DejaVuSans-70"/>
   </defs>
   <g transform="translate(526.666875 20.638125)scale(0.12 -0.12)">
    <use xlink:href="#DejaVuSans-66"/>
    <use x="68.603516" xlink:href="#DejaVuSans-114"/>
    <use x="109.685547" xlink:href="#DejaVuSans-111"/>
    <use x="170.867188" xlink:href="#DejaVuSans-119"/>
    <use x="252.654297" xlink:href="#DejaVuSans-97"/>
    <use x="313.933594" xlink:href="#DejaVuSans-114"/>
    <use x="355.03125" xlink:href="#DejaVuSans-100"/>
    <use x="418.507812" xlink:href="#DejaVuSans-44"/>
    <use x="450.294922" xlink:href="#DejaVuSans-32"/>
    <use x="482.082031" xlink:href="#DejaVuSans-70"/>
    <use x="539.601562" xlink:href="#DejaVuSans-108"/>
    <use x="567.384766" xlink:href="#DejaVuSans-111"/>
    <use x="628.566406" xlink:href="#DejaVuSans-114"/>
    <use x="669.679688" xlink:href="#DejaVuSans-105"/>
    <use x="697.462891" xlink:href="#DejaVuSans-100"/>
    <use x="760.939453" xlink:href="#DejaVuSans-97"/>
   </g>
  </g>
 </g>
 <defs>
  <clipPath id="p1e1aecb057">
   <rect height="434.88" width="405.818182" x="144" y="69.12"/>
  </clipPath>
  <clipPath id="p87e1ecdce6">
   <rect height="434.88" width="405.818182" x="630.981818" y="69.12"/>
  </clipPath>
 </defs>
</svg>
