<?xml version="1.0" encoding="utf-8" standalone="no"?>
<!DOCTYPE svg PUBLIC "-//W3C//DTD SVG 1.1//EN"
  "http://www.w3.org/Graphics/SVG/1.1/DTD/svg11.dtd">
<!-- Created with matplotlib (https://matplotlib.org/) -->
<svg height="576pt" version="1.1" viewBox="0 0 1152 576" width="1152pt" xmlns="http://www.w3.org/2000/svg" xmlns:xlink="http://www.w3.org/1999/xlink">
 <defs>
  <style type="text/css">
*{stroke-linecap:butt;stroke-linejoin:round;}
  </style>
 </defs>
 <g id="figure_1">
  <g id="patch_1">
   <path d="M 0 576 
L 1152 576 
L 1152 0 
L 0 0 
z
" style="fill:#ffffff;"/>
  </g>
  <g id="axes_1">
   <g id="patch_2">
    <path d="M 144 504 
L 549.818182 504 
L 549.818182 69.12 
L 144 69.12 
z
" style="fill:#ffffff;"/>
   </g>
   <g id="matplotlib.axis_1">
    <g id="xtick_1">
     <g id="line2d_1">
      <defs>
       <path d="M 0 0 
L 0 3.5 
" id="m1df92fcd20" style="stroke:#000000;stroke-width:0.8;"/>
      </defs>
      <g>
       <use style="stroke:#000000;stroke-width:0.8;" x="151.545597" xlink:href="#m1df92fcd20" y="504"/>
      </g>
     </g>
     <g id="text_1">
      <!-- 1980 -->
      <defs>
       <path d="M 12.40625 8.296875 
L 28.515625 8.296875 
L 28.515625 63.921875 
L 10.984375 60.40625 
L 10.984375 69.390625 
L 28.421875 72.90625 
L 38.28125 72.90625 
L 38.28125 8.296875 
L 54.390625 8.296875 
L 54.390625 0 
L 12.40625 0 
z
" id="DejaVuSans-49"/>
       <path d="M 10.984375 1.515625 
L 10.984375 10.5 
Q 14.703125 8.734375 18.5 7.8125 
Q 22.3125 6.890625 25.984375 6.890625 
Q 35.75 6.890625 40.890625 13.453125 
Q 46.046875 20.015625 46.78125 33.40625 
Q 43.953125 29.203125 39.59375 26.953125 
Q 35.25 24.703125 29.984375 24.703125 
Q 19.046875 24.703125 12.671875 31.3125 
Q 6.296875 37.9375 6.296875 49.421875 
Q 6.296875 60.640625 12.9375 67.421875 
Q 19.578125 74.21875 30.609375 74.21875 
Q 43.265625 74.21875 49.921875 64.515625 
Q 56.59375 54.828125 56.59375 36.375 
Q 56.59375 19.140625 48.40625 8.859375 
Q 40.234375 -1.421875 26.421875 -1.421875 
Q 22.703125 -1.421875 18.890625 -0.6875 
Q 15.09375 0.046875 10.984375 1.515625 
z
M 30.609375 32.421875 
Q 37.25 32.421875 41.125 36.953125 
Q 45.015625 41.5 45.015625 49.421875 
Q 45.015625 57.28125 41.125 61.84375 
Q 37.25 66.40625 30.609375 66.40625 
Q 23.96875 66.40625 20.09375 61.84375 
Q 16.21875 57.28125 16.21875 49.421875 
Q 16.21875 41.5 20.09375 36.953125 
Q 23.96875 32.421875 30.609375 32.421875 
z
" id="DejaVuSans-57"/>
       <path d="M 31.78125 34.625 
Q 24.75 34.625 20.71875 30.859375 
Q 16.703125 27.09375 16.703125 20.515625 
Q 16.703125 13.921875 20.71875 10.15625 
Q 24.75 6.390625 31.78125 6.390625 
Q 38.8125 6.390625 42.859375 10.171875 
Q 46.921875 13.96875 46.921875 20.515625 
Q 46.921875 27.09375 42.890625 30.859375 
Q 38.875 34.625 31.78125 34.625 
z
M 21.921875 38.8125 
Q 15.578125 40.375 12.03125 44.71875 
Q 8.5 49.078125 8.5 55.328125 
Q 8.5 64.0625 14.71875 69.140625 
Q 20.953125 74.21875 31.78125 74.21875 
Q 42.671875 74.21875 48.875 69.140625 
Q 55.078125 64.0625 55.078125 55.328125 
Q 55.078125 49.078125 51.53125 44.71875 
Q 48 40.375 41.703125 38.8125 
Q 48.828125 37.15625 52.796875 32.3125 
Q 56.78125 27.484375 56.78125 20.515625 
Q 56.78125 9.90625 50.3125 4.234375 
Q 43.84375 -1.421875 31.78125 -1.421875 
Q 19.734375 -1.421875 13.25 4.234375 
Q 6.78125 9.90625 6.78125 20.515625 
Q 6.78125 27.484375 10.78125 32.3125 
Q 14.796875 37.15625 21.921875 38.8125 
z
M 18.3125 54.390625 
Q 18.3125 48.734375 21.84375 45.5625 
Q 25.390625 42.390625 31.78125 42.390625 
Q 38.140625 42.390625 41.71875 45.5625 
Q 45.3125 48.734375 45.3125 54.390625 
Q 45.3125 60.0625 41.71875 63.234375 
Q 38.140625 66.40625 31.78125 66.40625 
Q 25.390625 66.40625 21.84375 63.234375 
Q 18.3125 60.0625 18.3125 54.390625 
z
" id="DejaVuSans-56"/>
       <path d="M 31.78125 66.40625 
Q 24.171875 66.40625 20.328125 58.90625 
Q 16.5 51.421875 16.5 36.375 
Q 16.5 21.390625 20.328125 13.890625 
Q 24.171875 6.390625 31.78125 6.390625 
Q 39.453125 6.390625 43.28125 13.890625 
Q 47.125 21.390625 47.125 36.375 
Q 47.125 51.421875 43.28125 58.90625 
Q 39.453125 66.40625 31.78125 66.40625 
z
M 31.78125 74.21875 
Q 44.046875 74.21875 50.515625 64.515625 
Q 56.984375 54.828125 56.984375 36.375 
Q 56.984375 17.96875 50.515625 8.265625 
Q 44.046875 -1.421875 31.78125 -1.421875 
Q 19.53125 -1.421875 13.0625 8.265625 
Q 6.59375 17.96875 6.59375 36.375 
Q 6.59375 54.828125 13.0625 64.515625 
Q 19.53125 74.21875 31.78125 74.21875 
z
" id="DejaVuSans-48"/>
      </defs>
      <g transform="translate(138.820597 518.598438)scale(0.1 -0.1)">
       <use xlink:href="#DejaVuSans-49"/>
       <use x="63.623047" xlink:href="#DejaVuSans-57"/>
       <use x="127.246094" xlink:href="#DejaVuSans-56"/>
       <use x="190.869141" xlink:href="#DejaVuSans-48"/>
      </g>
     </g>
    </g>
    <g id="xtick_2">
     <g id="line2d_2">
      <g>
       <use style="stroke:#000000;stroke-width:0.8;" x="195.058984" xlink:href="#m1df92fcd20" y="504"/>
      </g>
     </g>
     <g id="text_2">
      <!-- 1984 -->
      <defs>
       <path d="M 37.796875 64.3125 
L 12.890625 25.390625 
L 37.796875 25.390625 
z
M 35.203125 72.90625 
L 47.609375 72.90625 
L 47.609375 25.390625 
L 58.015625 25.390625 
L 58.015625 17.1875 
L 47.609375 17.1875 
L 47.609375 0 
L 37.796875 0 
L 37.796875 17.1875 
L 4.890625 17.1875 
L 4.890625 26.703125 
z
" id="DejaVuSans-52"/>
      </defs>
      <g transform="translate(182.333984 518.598438)scale(0.1 -0.1)">
       <use xlink:href="#DejaVuSans-49"/>
       <use x="63.623047" xlink:href="#DejaVuSans-57"/>
       <use x="127.246094" xlink:href="#DejaVuSans-56"/>
       <use x="190.869141" xlink:href="#DejaVuSans-52"/>
      </g>
     </g>
    </g>
    <g id="xtick_3">
     <g id="line2d_3">
      <g>
       <use style="stroke:#000000;stroke-width:0.8;" x="238.572372" xlink:href="#m1df92fcd20" y="504"/>
      </g>
     </g>
     <g id="text_3">
      <!-- 1988 -->
      <g transform="translate(225.847372 518.598438)scale(0.1 -0.1)">
       <use xlink:href="#DejaVuSans-49"/>
       <use x="63.623047" xlink:href="#DejaVuSans-57"/>
       <use x="127.246094" xlink:href="#DejaVuSans-56"/>
       <use x="190.869141" xlink:href="#DejaVuSans-56"/>
      </g>
     </g>
    </g>
    <g id="xtick_4">
     <g id="line2d_4">
      <g>
       <use style="stroke:#000000;stroke-width:0.8;" x="282.085759" xlink:href="#m1df92fcd20" y="504"/>
      </g>
     </g>
     <g id="text_4">
      <!-- 1992 -->
      <defs>
       <path d="M 19.1875 8.296875 
L 53.609375 8.296875 
L 53.609375 0 
L 7.328125 0 
L 7.328125 8.296875 
Q 12.9375 14.109375 22.625 23.890625 
Q 32.328125 33.6875 34.8125 36.53125 
Q 39.546875 41.84375 41.421875 45.53125 
Q 43.3125 49.21875 43.3125 52.78125 
Q 43.3125 58.59375 39.234375 62.25 
Q 35.15625 65.921875 28.609375 65.921875 
Q 23.96875 65.921875 18.8125 64.3125 
Q 13.671875 62.703125 7.8125 59.421875 
L 7.8125 69.390625 
Q 13.765625 71.78125 18.9375 73 
Q 24.125 74.21875 28.421875 74.21875 
Q 39.75 74.21875 46.484375 68.546875 
Q 53.21875 62.890625 53.21875 53.421875 
Q 53.21875 48.921875 51.53125 44.890625 
Q 49.859375 40.875 45.40625 35.40625 
Q 44.1875 33.984375 37.640625 27.21875 
Q 31.109375 20.453125 19.1875 8.296875 
z
" id="DejaVuSans-50"/>
      </defs>
      <g transform="translate(269.360759 518.598438)scale(0.1 -0.1)">
       <use xlink:href="#DejaVuSans-49"/>
       <use x="63.623047" xlink:href="#DejaVuSans-57"/>
       <use x="127.246094" xlink:href="#DejaVuSans-57"/>
       <use x="190.869141" xlink:href="#DejaVuSans-50"/>
      </g>
     </g>
    </g>
    <g id="xtick_5">
     <g id="line2d_5">
      <g>
       <use style="stroke:#000000;stroke-width:0.8;" x="325.599147" xlink:href="#m1df92fcd20" y="504"/>
      </g>
     </g>
     <g id="text_5">
      <!-- 1996 -->
      <defs>
       <path d="M 33.015625 40.375 
Q 26.375 40.375 22.484375 35.828125 
Q 18.609375 31.296875 18.609375 23.390625 
Q 18.609375 15.53125 22.484375 10.953125 
Q 26.375 6.390625 33.015625 6.390625 
Q 39.65625 6.390625 43.53125 10.953125 
Q 47.40625 15.53125 47.40625 23.390625 
Q 47.40625 31.296875 43.53125 35.828125 
Q 39.65625 40.375 33.015625 40.375 
z
M 52.59375 71.296875 
L 52.59375 62.3125 
Q 48.875 64.0625 45.09375 64.984375 
Q 41.3125 65.921875 37.59375 65.921875 
Q 27.828125 65.921875 22.671875 59.328125 
Q 17.53125 52.734375 16.796875 39.40625 
Q 19.671875 43.65625 24.015625 45.921875 
Q 28.375 48.1875 33.59375 48.1875 
Q 44.578125 48.1875 50.953125 41.515625 
Q 57.328125 34.859375 57.328125 23.390625 
Q 57.328125 12.15625 50.6875 5.359375 
Q 44.046875 -1.421875 33.015625 -1.421875 
Q 20.359375 -1.421875 13.671875 8.265625 
Q 6.984375 17.96875 6.984375 36.375 
Q 6.984375 53.65625 15.1875 63.9375 
Q 23.390625 74.21875 37.203125 74.21875 
Q 40.921875 74.21875 44.703125 73.484375 
Q 48.484375 72.75 52.59375 71.296875 
z
" id="DejaVuSans-54"/>
      </defs>
      <g transform="translate(312.874147 518.598438)scale(0.1 -0.1)">
       <use xlink:href="#DejaVuSans-49"/>
       <use x="63.623047" xlink:href="#DejaVuSans-57"/>
       <use x="127.246094" xlink:href="#DejaVuSans-57"/>
       <use x="190.869141" xlink:href="#DejaVuSans-54"/>
      </g>
     </g>
    </g>
    <g id="xtick_6">
     <g id="line2d_6">
      <g>
       <use style="stroke:#000000;stroke-width:0.8;" x="369.112534" xlink:href="#m1df92fcd20" y="504"/>
      </g>
     </g>
     <g id="text_6">
      <!-- 2000 -->
      <g transform="translate(356.387534 518.598438)scale(0.1 -0.1)">
       <use xlink:href="#DejaVuSans-50"/>
       <use x="63.623047" xlink:href="#DejaVuSans-48"/>
       <use x="127.246094" xlink:href="#DejaVuSans-48"/>
       <use x="190.869141" xlink:href="#DejaVuSans-48"/>
      </g>
     </g>
    </g>
    <g id="xtick_7">
     <g id="line2d_7">
      <g>
       <use style="stroke:#000000;stroke-width:0.8;" x="412.625921" xlink:href="#m1df92fcd20" y="504"/>
      </g>
     </g>
     <g id="text_7">
      <!-- 2004 -->
      <g transform="translate(399.900921 518.598438)scale(0.1 -0.1)">
       <use xlink:href="#DejaVuSans-50"/>
       <use x="63.623047" xlink:href="#DejaVuSans-48"/>
       <use x="127.246094" xlink:href="#DejaVuSans-48"/>
       <use x="190.869141" xlink:href="#DejaVuSans-52"/>
      </g>
     </g>
    </g>
    <g id="xtick_8">
     <g id="line2d_8">
      <g>
       <use style="stroke:#000000;stroke-width:0.8;" x="456.139309" xlink:href="#m1df92fcd20" y="504"/>
      </g>
     </g>
     <g id="text_8">
      <!-- 2008 -->
      <g transform="translate(443.414309 518.598438)scale(0.1 -0.1)">
       <use xlink:href="#DejaVuSans-50"/>
       <use x="63.623047" xlink:href="#DejaVuSans-48"/>
       <use x="127.246094" xlink:href="#DejaVuSans-48"/>
       <use x="190.869141" xlink:href="#DejaVuSans-56"/>
      </g>
     </g>
    </g>
    <g id="xtick_9">
     <g id="line2d_9">
      <g>
       <use style="stroke:#000000;stroke-width:0.8;" x="499.652696" xlink:href="#m1df92fcd20" y="504"/>
      </g>
     </g>
     <g id="text_9">
      <!-- 2012 -->
      <g transform="translate(486.927696 518.598438)scale(0.1 -0.1)">
       <use xlink:href="#DejaVuSans-50"/>
       <use x="63.623047" xlink:href="#DejaVuSans-48"/>
       <use x="127.246094" xlink:href="#DejaVuSans-49"/>
       <use x="190.869141" xlink:href="#DejaVuSans-50"/>
      </g>
     </g>
    </g>
    <g id="xtick_10">
     <g id="line2d_10">
      <g>
       <use style="stroke:#000000;stroke-width:0.8;" x="543.166084" xlink:href="#m1df92fcd20" y="504"/>
      </g>
     </g>
     <g id="text_10">
      <!-- 2016 -->
      <g transform="translate(530.441084 518.598438)scale(0.1 -0.1)">
       <use xlink:href="#DejaVuSans-50"/>
       <use x="63.623047" xlink:href="#DejaVuSans-48"/>
       <use x="127.246094" xlink:href="#DejaVuSans-49"/>
       <use x="190.869141" xlink:href="#DejaVuSans-54"/>
      </g>
     </g>
    </g>
   </g>
   <g id="matplotlib.axis_2">
    <g id="ytick_1">
     <g id="line2d_11">
      <defs>
       <path d="M 0 0 
L -3.5 0 
" id="mcfe5f0a437" style="stroke:#000000;stroke-width:0.8;"/>
      </defs>
      <g>
       <use style="stroke:#000000;stroke-width:0.8;" x="144" xlink:href="#mcfe5f0a437" y="502.455645"/>
      </g>
     </g>
     <g id="text_11">
      <!-- 0.00 -->
      <defs>
       <path d="M 10.6875 12.40625 
L 21 12.40625 
L 21 0 
L 10.6875 0 
z
" id="DejaVuSans-46"/>
      </defs>
      <g transform="translate(114.734375 506.254864)scale(0.1 -0.1)">
       <use xlink:href="#DejaVuSans-48"/>
       <use x="63.623047" xlink:href="#DejaVuSans-46"/>
       <use x="95.410156" xlink:href="#DejaVuSans-48"/>
       <use x="159.033203" xlink:href="#DejaVuSans-48"/>
      </g>
     </g>
    </g>
    <g id="ytick_2">
     <g id="line2d_12">
      <g>
       <use style="stroke:#000000;stroke-width:0.8;" x="144" xlink:href="#mcfe5f0a437" y="410.042438"/>
      </g>
     </g>
     <g id="text_12">
      <!-- 0.05 -->
      <defs>
       <path d="M 10.796875 72.90625 
L 49.515625 72.90625 
L 49.515625 64.59375 
L 19.828125 64.59375 
L 19.828125 46.734375 
Q 21.96875 47.46875 24.109375 47.828125 
Q 26.265625 48.1875 28.421875 48.1875 
Q 40.625 48.1875 47.75 41.5 
Q 54.890625 34.8125 54.890625 23.390625 
Q 54.890625 11.625 47.5625 5.09375 
Q 40.234375 -1.421875 26.90625 -1.421875 
Q 22.3125 -1.421875 17.546875 -0.640625 
Q 12.796875 0.140625 7.71875 1.703125 
L 7.71875 11.625 
Q 12.109375 9.234375 16.796875 8.0625 
Q 21.484375 6.890625 26.703125 6.890625 
Q 35.15625 6.890625 40.078125 11.328125 
Q 45.015625 15.765625 45.015625 23.390625 
Q 45.015625 31 40.078125 35.4375 
Q 35.15625 39.890625 26.703125 39.890625 
Q 22.75 39.890625 18.8125 39.015625 
Q 14.890625 38.140625 10.796875 36.28125 
z
" id="DejaVuSans-53"/>
      </defs>
      <g transform="translate(114.734375 413.841657)scale(0.1 -0.1)">
       <use xlink:href="#DejaVuSans-48"/>
       <use x="63.623047" xlink:href="#DejaVuSans-46"/>
       <use x="95.410156" xlink:href="#DejaVuSans-48"/>
       <use x="159.033203" xlink:href="#DejaVuSans-53"/>
      </g>
     </g>
    </g>
    <g id="ytick_3">
     <g id="line2d_13">
      <g>
       <use style="stroke:#000000;stroke-width:0.8;" x="144" xlink:href="#mcfe5f0a437" y="317.62923"/>
      </g>
     </g>
     <g id="text_13">
      <!-- 0.10 -->
      <g transform="translate(114.734375 321.428449)scale(0.1 -0.1)">
       <use xlink:href="#DejaVuSans-48"/>
       <use x="63.623047" xlink:href="#DejaVuSans-46"/>
       <use x="95.410156" xlink:href="#DejaVuSans-49"/>
       <use x="159.033203" xlink:href="#DejaVuSans-48"/>
      </g>
     </g>
    </g>
    <g id="ytick_4">
     <g id="line2d_14">
      <g>
       <use style="stroke:#000000;stroke-width:0.8;" x="144" xlink:href="#mcfe5f0a437" y="225.216023"/>
      </g>
     </g>
     <g id="text_14">
      <!-- 0.15 -->
      <g transform="translate(114.734375 229.015241)scale(0.1 -0.1)">
       <use xlink:href="#DejaVuSans-48"/>
       <use x="63.623047" xlink:href="#DejaVuSans-46"/>
       <use x="95.410156" xlink:href="#DejaVuSans-49"/>
       <use x="159.033203" xlink:href="#DejaVuSans-53"/>
      </g>
     </g>
    </g>
    <g id="ytick_5">
     <g id="line2d_15">
      <g>
       <use style="stroke:#000000;stroke-width:0.8;" x="144" xlink:href="#mcfe5f0a437" y="132.802815"/>
      </g>
     </g>
     <g id="text_15">
      <!-- 0.20 -->
      <g transform="translate(114.734375 136.602034)scale(0.1 -0.1)">
       <use xlink:href="#DejaVuSans-48"/>
       <use x="63.623047" xlink:href="#DejaVuSans-46"/>
       <use x="95.410156" xlink:href="#DejaVuSans-50"/>
       <use x="159.033203" xlink:href="#DejaVuSans-48"/>
      </g>
     </g>
    </g>
   </g>
   <g id="line2d_16">
    <path clip-path="url(#pd12f676ede)" d="M 162.446281 468.733001 
L 163.369563 454.158672 
L 164.203495 418.088143 
L 165.126777 309.41461 
L 166.943558 140.866296 
L 167.837057 161.959477 
L 168.760339 215.988233 
L 169.683621 286.021891 
L 170.577119 395.26968 
L 171.500401 459.181112 
L 172.3939 471.006559 
L 173.317182 463.358597 
L 174.240464 464.707561 
L 175.074396 419.661649 
L 175.997678 327.239857 
L 176.891177 218.735735 
L 177.814459 167.586056 
L 178.707958 137.639688 
L 179.63124 205.057903 
L 181.44802 395.450802 
L 182.371302 460.569826 
L 183.264801 465.142336 
L 184.188083 465.101462 
L 185.111365 458.504923 
L 185.945297 415.334742 
L 186.868579 311.422704 
L 187.762078 234.951981 
L 188.68536 131.829108 
L 189.578859 96.518962 
L 191.425423 280.384469 
L 192.318921 389.700066 
L 193.242203 445.73722 
L 194.135702 468.564991 
L 195.058984 476.431176 
L 195.982266 456.922604 
L 196.845982 421.734143 
L 197.769264 328.774276 
L 198.662762 212.702847 
L 199.586044 121.74509 
L 200.479543 128.914952 
L 201.402825 208.221604 
L 202.326107 336.387263 
L 203.219606 405.373693 
L 204.142888 466.029843 
L 205.036386 484.232727 
L 205.959668 461.838122 
L 206.88295 463.821304 
L 207.716883 400.126568 
L 208.640165 277.746525 
L 209.533663 179.236745 
L 210.456945 161.202408 
L 211.350444 153.459895 
L 213.197008 337.281007 
L 214.090507 404.924982 
L 215.013789 453.195412 
L 215.907287 451.140423 
L 216.83057 471.171517 
L 217.753852 457.417232 
L 218.587784 409.526972 
L 219.511066 312.56006 
L 220.404564 233.4147 
L 222.221345 129.183582 
L 223.144627 213.975888 
L 224.067909 310.855466 
L 224.961408 391.515736 
L 225.88469 445.02583 
L 226.778189 481.080175 
L 227.701471 469.259092 
L 228.624753 465.299599 
L 229.458685 410.652097 
L 231.275465 183.177952 
L 232.198747 135.343325 
L 233.092246 147.524854 
L 234.015528 230.892039 
L 234.93881 295.032154 
L 235.832309 405.252173 
L 236.755591 450.564403 
L 237.64909 469.174243 
L 238.572372 463.135287 
L 239.495654 446.343588 
L 240.359369 424.49215 
L 241.282651 311.231849 
L 242.17615 173.644135 
L 243.099432 172.185895 
L 243.99293 298.529404 
L 244.916212 287.57954 
L 245.839494 367.734707 
L 246.732993 417.429147 
L 247.656275 450.153994 
L 248.549774 470.933404 
L 249.473056 475.777096 
L 250.396338 423.070767 
L 251.23027 414.079241 
L 252.153552 317.061791 
L 253.047051 236.882509 
L 253.970333 197.719132 
L 254.863832 201.409926 
L 255.787114 227.580837 
L 256.710396 305.639483 
L 257.603894 407.921388 
L 258.527176 455.865486 
L 259.420675 465.939299 
L 260.343957 482.7425 
L 261.267239 434.831179 
L 262.101171 408.940842 
L 263.024453 328.140558 
L 263.917952 230.864211 
L 264.841234 165.029634 
L 265.734733 184.022043 
L 266.658015 212.351324 
L 267.581297 291.227014 
L 268.474795 382.863041 
L 269.398077 436.476092 
L 270.291576 465.012792 
L 271.214858 452.50812 
L 272.13814 464.686122 
L 272.972072 410.130435 
L 273.895354 292.052611 
L 274.788853 208.791479 
L 275.712135 111.468118 
L 276.605634 154.316928 
L 277.528916 307.081831 
L 278.452198 364.931992 
L 279.345696 396.447762 
L 280.268978 460.075436 
L 281.162477 478.127457 
L 282.085759 467.366337 
L 283.009041 458.758125 
L 283.872756 407.186335 
L 284.796039 332.301367 
L 285.689537 209.574953 
L 286.612819 182.972194 
L 287.506318 209.70507 
L 288.4296 257.473632 
L 289.352882 311.583094 
L 290.246381 402.795819 
L 291.169663 452.520177 
L 292.063161 468.330794 
L 292.986443 465.064045 
L 293.909725 433.878068 
L 294.743658 438.390347 
L 296.560438 204.914116 
L 297.48372 159.847324 
L 298.377219 125.75878 
L 299.300501 193.580495 
L 300.223783 297.603913 
L 302.040564 444.630849 
L 302.934062 455.315285 
L 303.857344 460.828966 
L 304.780626 454.044039 
L 305.614559 427.745779 
L 307.431339 204.718039 
L 308.354621 169.134198 
L 309.24812 156.418914 
L 311.988183 418.811798 
L 312.911465 447.538633 
L 313.804963 481.935764 
L 314.728245 458.238358 
L 315.651527 448.22544 
L 316.48546 421.783049 
L 319.225522 146.040209 
L 320.119021 120.247468 
L 322.859084 383.736573 
L 323.782366 445.12144 
L 324.675865 459.918832 
L 325.599147 469.893932 
L 326.522429 456.727928 
L 328.309426 335.201227 
L 329.202925 260.309145 
L 330.126207 166.393531 
L 331.019705 151.985104 
L 331.942987 180.112063 
L 332.866269 307.131102 
L 333.759768 384.386505 
L 334.68305 447.270672 
L 335.576549 465.636926 
L 336.499831 461.543496 
L 337.423113 456.143346 
L 338.257045 411.521726 
L 339.180327 338.970437 
L 340.073826 223.998959 
L 340.997108 155.080832 
L 341.890606 131.103197 
L 342.813888 243.205505 
L 343.73717 298.03321 
L 344.630669 394.225774 
L 345.553951 458.816656 
L 346.44745 473.783631 
L 347.370732 479.11329 
L 348.294014 457.135118 
L 349.127946 406.325112 
L 350.051228 300.493016 
L 350.944727 174.861712 
L 351.868009 149.534475 
L 352.761507 118.29593 
L 353.68479 204.665507 
L 354.608072 277.506885 
L 355.50157 394.870535 
L 356.424852 443.749307 
L 357.318351 464.28536 
L 358.241633 478.456641 
L 359.164915 471.032945 
L 359.998847 408.201685 
L 360.922129 313.037795 
L 361.815628 185.062141 
L 362.73891 139.097616 
L 363.632409 88.887273 
L 364.555691 212.930221 
L 365.478973 297.107631 
L 366.372471 403.465788 
L 367.295753 460.002801 
L 368.189252 470.866893 
L 369.112534 466.475652 
L 370.035816 455.004784 
L 370.899531 420.699683 
L 372.716312 227.094896 
L 373.639594 157.705297 
L 374.533093 156.749375 
L 375.456375 205.644676 
L 377.273156 389.226443 
L 378.196438 444.27008 
L 379.089936 469.492738 
L 380.013218 480.826368 
L 380.9365 452.648433 
L 381.770432 432.748835 
L 382.693714 273.954917 
L 383.587213 208.579338 
L 384.510495 168.256103 
L 385.403994 139.847225 
L 386.327276 202.64506 
L 387.250558 301.074203 
L 388.144057 371.614343 
L 389.067339 435.403786 
L 389.960837 457.966623 
L 390.884119 472.121199 
L 391.807401 457.703684 
L 392.641334 423.135895 
L 393.564616 305.991508 
L 394.458114 231.219932 
L 395.381396 129.752936 
L 396.274895 112.629519 
L 397.198177 205.387427 
L 398.121459 281.541377 
L 399.014958 403.38208 
L 399.93824 453.432102 
L 400.831738 475.010825 
L 402.678302 438.820373 
L 403.512235 403.74978 
L 405.329015 242.137389 
L 406.252297 173.633726 
L 407.145796 138.724095 
L 408.069078 235.545 
L 408.99236 363.658959 
L 409.885859 421.351705 
L 410.809141 450.397004 
L 411.702639 466.150469 
L 412.625921 457.568254 
L 413.549203 466.702351 
L 414.412919 406.287248 
L 415.336201 300.607276 
L 417.152982 156.116073 
L 418.04648 160.957512 
L 419.893044 350.542397 
L 420.786543 425.528587 
L 421.709825 459.395639 
L 422.603324 464.566463 
L 423.526606 466.45521 
L 424.449888 463.673908 
L 425.28382 409.368751 
L 426.207102 292.748733 
L 427.100601 216.553805 
L 428.023883 158.299183 
L 430.763945 413.529994 
L 431.657444 417.65777 
L 433.474225 474.678235 
L 434.397507 473.381237 
L 435.320789 430.690195 
L 436.154721 410.912243 
L 437.078003 288.951383 
L 437.971502 212.29553 
L 438.894784 158.42118 
L 439.788282 125.662668 
L 440.711564 250.771911 
L 441.634846 353.001197 
L 442.528345 397.141708 
L 443.451627 473.273785 
L 444.345126 469.939883 
L 445.268408 453.016268 
L 446.19169 447.172321 
L 447.025622 405.789059 
L 447.948904 302.48921 
L 448.842403 156.788237 
L 449.765685 133.491509 
L 450.659183 145.297782 
L 451.582465 196.68809 
L 452.505747 278.013072 
L 453.399246 386.413266 
L 454.322528 449.985528 
L 455.216027 478.075797 
L 456.139309 458.244994 
L 457.062591 452.264139 
L 457.926306 421.997828 
L 459.743087 207.024395 
L 460.666369 110.959866 
L 461.559868 112.83257 
L 462.48315 204.888544 
L 463.406432 310.292444 
L 464.299931 380.721326 
L 465.223213 439.92428 
L 466.116711 457.990582 
L 467.039993 463.638863 
L 467.963275 448.661789 
L 468.797207 426.138712 
L 470.613988 182.496316 
L 471.53727 167.573946 
L 472.430769 163.075043 
L 473.354051 214.647097 
L 474.277333 300.295517 
L 475.170832 413.626228 
L 476.094114 440.617323 
L 476.987612 453.313427 
L 477.910894 464.294437 
L 478.834176 459.047599 
L 479.668108 421.332794 
L 480.59139 269.9605 
L 482.408171 132.478892 
L 483.30167 102.958299 
L 484.224952 175.14658 
L 486.041733 385.576913 
L 486.965015 457.892214 
L 487.858513 470.342081 
L 488.781795 459.375332 
L 489.705077 465.968393 
L 490.53901 422.60967 
L 493.279072 122.425685 
L 494.172571 104.958413 
L 495.095853 175.219098 
L 496.019135 306.545717 
L 496.912634 382.045477 
L 497.835916 448.97723 
L 498.729414 481.948617 
L 500.575978 454.902074 
L 501.439694 359.662713 
L 502.362976 282.92009 
L 503.256475 176.137269 
L 504.179757 135.478473 
L 505.073255 190.409195 
L 505.996537 316.33026 
L 506.919819 354.08347 
L 507.813318 425.464024 
L 508.7366 462.34598 
L 509.630099 476.519134 
L 510.553381 471.15759 
L 511.476663 452.434448 
L 512.310595 424.71968 
L 513.233877 325.523276 
L 514.127376 194.180696 
L 515.050658 145.424429 
L 515.944156 148.153368 
L 516.867438 205.164911 
L 517.79072 292.057382 
L 518.684219 397.955655 
L 519.607501 441.880397 
L 520.501 465.232446 
L 521.424282 452.024772 
L 522.347564 445.89499 
L 523.181496 439.033521 
L 524.104778 308.80825 
L 524.998277 212.172805 
L 525.921559 148.86592 
L 526.815057 122.641886 
L 527.738339 198.363919 
L 529.55512 387.018767 
L 530.478402 454.285045 
L 531.371901 483.733384 
L 531.371901 483.733384 
" style="fill:none;stroke:#1f77b4;stroke-linecap:square;stroke-width:1.5;"/>
   </g>
   <g id="patch_3">
    <path d="M 144 504 
L 144 69.12 
" style="fill:none;stroke:#000000;stroke-linecap:square;stroke-linejoin:miter;stroke-width:0.8;"/>
   </g>
   <g id="patch_4">
    <path d="M 549.818182 504 
L 549.818182 69.12 
" style="fill:none;stroke:#000000;stroke-linecap:square;stroke-linejoin:miter;stroke-width:0.8;"/>
   </g>
   <g id="patch_5">
    <path d="M 144 504 
L 549.818182 504 
" style="fill:none;stroke:#000000;stroke-linecap:square;stroke-linejoin:miter;stroke-width:0.8;"/>
   </g>
   <g id="patch_6">
    <path d="M 144 69.12 
L 549.818182 69.12 
" style="fill:none;stroke:#000000;stroke-linecap:square;stroke-linejoin:miter;stroke-width:0.8;"/>
   </g>
   <g id="text_16">
    <!-- Monthly Evaporation -->
    <defs>
     <path d="M 9.8125 72.90625 
L 24.515625 72.90625 
L 43.109375 23.296875 
L 61.8125 72.90625 
L 76.515625 72.90625 
L 76.515625 0 
L 66.890625 0 
L 66.890625 64.015625 
L 48.09375 14.015625 
L 38.1875 14.015625 
L 19.390625 64.015625 
L 19.390625 0 
L 9.8125 0 
z
" id="DejaVuSans-77"/>
     <path d="M 30.609375 48.390625 
Q 23.390625 48.390625 19.1875 42.75 
Q 14.984375 37.109375 14.984375 27.296875 
Q 14.984375 17.484375 19.15625 11.84375 
Q 23.34375 6.203125 30.609375 6.203125 
Q 37.796875 6.203125 41.984375 11.859375 
Q 46.1875 17.53125 46.1875 27.296875 
Q 46.1875 37.015625 41.984375 42.703125 
Q 37.796875 48.390625 30.609375 48.390625 
z
M 30.609375 56 
Q 42.328125 56 49.015625 48.375 
Q 55.71875 40.765625 55.71875 27.296875 
Q 55.71875 13.875 49.015625 6.21875 
Q 42.328125 -1.421875 30.609375 -1.421875 
Q 18.84375 -1.421875 12.171875 6.21875 
Q 5.515625 13.875 5.515625 27.296875 
Q 5.515625 40.765625 12.171875 48.375 
Q 18.84375 56 30.609375 56 
z
" id="DejaVuSans-111"/>
     <path d="M 54.890625 33.015625 
L 54.890625 0 
L 45.90625 0 
L 45.90625 32.71875 
Q 45.90625 40.484375 42.875 44.328125 
Q 39.84375 48.1875 33.796875 48.1875 
Q 26.515625 48.1875 22.3125 43.546875 
Q 18.109375 38.921875 18.109375 30.90625 
L 18.109375 0 
L 9.078125 0 
L 9.078125 54.6875 
L 18.109375 54.6875 
L 18.109375 46.1875 
Q 21.34375 51.125 25.703125 53.5625 
Q 30.078125 56 35.796875 56 
Q 45.21875 56 50.046875 50.171875 
Q 54.890625 44.34375 54.890625 33.015625 
z
" id="DejaVuSans-110"/>
     <path d="M 18.3125 70.21875 
L 18.3125 54.6875 
L 36.8125 54.6875 
L 36.8125 47.703125 
L 18.3125 47.703125 
L 18.3125 18.015625 
Q 18.3125 11.328125 20.140625 9.421875 
Q 21.96875 7.515625 27.59375 7.515625 
L 36.8125 7.515625 
L 36.8125 0 
L 27.59375 0 
Q 17.1875 0 13.234375 3.875 
Q 9.28125 7.765625 9.28125 18.015625 
L 9.28125 47.703125 
L 2.6875 47.703125 
L 2.6875 54.6875 
L 9.28125 54.6875 
L 9.28125 70.21875 
z
" id="DejaVuSans-116"/>
     <path d="M 54.890625 33.015625 
L 54.890625 0 
L 45.90625 0 
L 45.90625 32.71875 
Q 45.90625 40.484375 42.875 44.328125 
Q 39.84375 48.1875 33.796875 48.1875 
Q 26.515625 48.1875 22.3125 43.546875 
Q 18.109375 38.921875 18.109375 30.90625 
L 18.109375 0 
L 9.078125 0 
L 9.078125 75.984375 
L 18.109375 75.984375 
L 18.109375 46.1875 
Q 21.34375 51.125 25.703125 53.5625 
Q 30.078125 56 35.796875 56 
Q 45.21875 56 50.046875 50.171875 
Q 54.890625 44.34375 54.890625 33.015625 
z
" id="DejaVuSans-104"/>
     <path d="M 9.421875 75.984375 
L 18.40625 75.984375 
L 18.40625 0 
L 9.421875 0 
z
" id="DejaVuSans-108"/>
     <path d="M 32.171875 -5.078125 
Q 28.375 -14.84375 24.75 -17.8125 
Q 21.140625 -20.796875 15.09375 -20.796875 
L 7.90625 -20.796875 
L 7.90625 -13.28125 
L 13.1875 -13.28125 
Q 16.890625 -13.28125 18.9375 -11.515625 
Q 21 -9.765625 23.484375 -3.21875 
L 25.09375 0.875 
L 2.984375 54.6875 
L 12.5 54.6875 
L 29.59375 11.921875 
L 46.6875 54.6875 
L 56.203125 54.6875 
z
" id="DejaVuSans-121"/>
     <path id="DejaVuSans-32"/>
     <path d="M 9.8125 72.90625 
L 55.90625 72.90625 
L 55.90625 64.59375 
L 19.671875 64.59375 
L 19.671875 43.015625 
L 54.390625 43.015625 
L 54.390625 34.71875 
L 19.671875 34.71875 
L 19.671875 8.296875 
L 56.78125 8.296875 
L 56.78125 0 
L 9.8125 0 
z
" id="DejaVuSans-69"/>
     <path d="M 2.984375 54.6875 
L 12.5 54.6875 
L 29.59375 8.796875 
L 46.6875 54.6875 
L 56.203125 54.6875 
L 35.6875 0 
L 23.484375 0 
z
" id="DejaVuSans-118"/>
     <path d="M 34.28125 27.484375 
Q 23.390625 27.484375 19.1875 25 
Q 14.984375 22.515625 14.984375 16.5 
Q 14.984375 11.71875 18.140625 8.90625 
Q 21.296875 6.109375 26.703125 6.109375 
Q 34.1875 6.109375 38.703125 11.40625 
Q 43.21875 16.703125 43.21875 25.484375 
L 43.21875 27.484375 
z
M 52.203125 31.203125 
L 52.203125 0 
L 43.21875 0 
L 43.21875 8.296875 
Q 40.140625 3.328125 35.546875 0.953125 
Q 30.953125 -1.421875 24.3125 -1.421875 
Q 15.921875 -1.421875 10.953125 3.296875 
Q 6 8.015625 6 15.921875 
Q 6 25.140625 12.171875 29.828125 
Q 18.359375 34.515625 30.609375 34.515625 
L 43.21875 34.515625 
L 43.21875 35.40625 
Q 43.21875 41.609375 39.140625 45 
Q 35.0625 48.390625 27.6875 48.390625 
Q 23 48.390625 18.546875 47.265625 
Q 14.109375 46.140625 10.015625 43.890625 
L 10.015625 52.203125 
Q 14.9375 54.109375 19.578125 55.046875 
Q 24.21875 56 28.609375 56 
Q 40.484375 56 46.34375 49.84375 
Q 52.203125 43.703125 52.203125 31.203125 
z
" id="DejaVuSans-97"/>
     <path d="M 18.109375 8.203125 
L 18.109375 -20.796875 
L 9.078125 -20.796875 
L 9.078125 54.6875 
L 18.109375 54.6875 
L 18.109375 46.390625 
Q 20.953125 51.265625 25.265625 53.625 
Q 29.59375 56 35.59375 56 
Q 45.5625 56 51.78125 48.09375 
Q 58.015625 40.1875 58.015625 27.296875 
Q 58.015625 14.40625 51.78125 6.484375 
Q 45.5625 -1.421875 35.59375 -1.421875 
Q 29.59375 -1.421875 25.265625 0.953125 
Q 20.953125 3.328125 18.109375 8.203125 
z
M 48.6875 27.296875 
Q 48.6875 37.203125 44.609375 42.84375 
Q 40.53125 48.484375 33.40625 48.484375 
Q 26.265625 48.484375 22.1875 42.84375 
Q 18.109375 37.203125 18.109375 27.296875 
Q 18.109375 17.390625 22.1875 11.75 
Q 26.265625 6.109375 33.40625 6.109375 
Q 40.53125 6.109375 44.609375 11.75 
Q 48.6875 17.390625 48.6875 27.296875 
z
" id="DejaVuSans-112"/>
     <path d="M 41.109375 46.296875 
Q 39.59375 47.171875 37.8125 47.578125 
Q 36.03125 48 33.890625 48 
Q 26.265625 48 22.1875 43.046875 
Q 18.109375 38.09375 18.109375 28.8125 
L 18.109375 0 
L 9.078125 0 
L 9.078125 54.6875 
L 18.109375 54.6875 
L 18.109375 46.1875 
Q 20.953125 51.171875 25.484375 53.578125 
Q 30.03125 56 36.53125 56 
Q 37.453125 56 38.578125 55.875 
Q 39.703125 55.765625 41.0625 55.515625 
z
" id="DejaVuSans-114"/>
     <path d="M 9.421875 54.6875 
L 18.40625 54.6875 
L 18.40625 0 
L 9.421875 0 
z
M 9.421875 75.984375 
L 18.40625 75.984375 
L 18.40625 64.59375 
L 9.421875 64.59375 
z
" id="DejaVuSans-105"/>
    </defs>
    <g transform="translate(284.842841 63.12)scale(0.12 -0.12)">
     <use xlink:href="#DejaVuSans-77"/>
     <use x="86.279297" xlink:href="#DejaVuSans-111"/>
     <use x="147.460938" xlink:href="#DejaVuSans-110"/>
     <use x="210.839844" xlink:href="#DejaVuSans-116"/>
     <use x="250.048828" xlink:href="#DejaVuSans-104"/>
     <use x="313.427734" xlink:href="#DejaVuSans-108"/>
     <use x="341.210938" xlink:href="#DejaVuSans-121"/>
     <use x="400.390625" xlink:href="#DejaVuSans-32"/>
     <use x="432.177734" xlink:href="#DejaVuSans-69"/>
     <use x="495.361328" xlink:href="#DejaVuSans-118"/>
     <use x="554.541016" xlink:href="#DejaVuSans-97"/>
     <use x="615.820312" xlink:href="#DejaVuSans-112"/>
     <use x="679.296875" xlink:href="#DejaVuSans-111"/>
     <use x="740.478516" xlink:href="#DejaVuSans-114"/>
     <use x="781.591797" xlink:href="#DejaVuSans-97"/>
     <use x="842.871094" xlink:href="#DejaVuSans-116"/>
     <use x="882.080078" xlink:href="#DejaVuSans-105"/>
     <use x="909.863281" xlink:href="#DejaVuSans-111"/>
     <use x="971.044922" xlink:href="#DejaVuSans-110"/>
    </g>
   </g>
  </g>
  <g id="axes_2">
   <g id="patch_7">
    <path d="M 630.981818 504 
L 1036.8 504 
L 1036.8 69.12 
L 630.981818 69.12 
z
" style="fill:#ffffff;"/>
   </g>
   <g id="matplotlib.axis_3">
    <g id="xtick_11">
     <g id="line2d_17">
      <g>
       <use style="stroke:#000000;stroke-width:0.8;" x="638.527415" xlink:href="#m1df92fcd20" y="504"/>
      </g>
     </g>
     <g id="text_17">
      <!-- 1980 -->
      <g transform="translate(625.802415 518.598438)scale(0.1 -0.1)">
       <use xlink:href="#DejaVuSans-49"/>
       <use x="63.623047" xlink:href="#DejaVuSans-57"/>
       <use x="127.246094" xlink:href="#DejaVuSans-56"/>
       <use x="190.869141" xlink:href="#DejaVuSans-48"/>
      </g>
     </g>
    </g>
    <g id="xtick_12">
     <g id="line2d_18">
      <g>
       <use style="stroke:#000000;stroke-width:0.8;" x="682.040802" xlink:href="#m1df92fcd20" y="504"/>
      </g>
     </g>
     <g id="text_18">
      <!-- 1984 -->
      <g transform="translate(669.315802 518.598438)scale(0.1 -0.1)">
       <use xlink:href="#DejaVuSans-49"/>
       <use x="63.623047" xlink:href="#DejaVuSans-57"/>
       <use x="127.246094" xlink:href="#DejaVuSans-56"/>
       <use x="190.869141" xlink:href="#DejaVuSans-52"/>
      </g>
     </g>
    </g>
    <g id="xtick_13">
     <g id="line2d_19">
      <g>
       <use style="stroke:#000000;stroke-width:0.8;" x="725.55419" xlink:href="#m1df92fcd20" y="504"/>
      </g>
     </g>
     <g id="text_19">
      <!-- 1988 -->
      <g transform="translate(712.82919 518.598438)scale(0.1 -0.1)">
       <use xlink:href="#DejaVuSans-49"/>
       <use x="63.623047" xlink:href="#DejaVuSans-57"/>
       <use x="127.246094" xlink:href="#DejaVuSans-56"/>
       <use x="190.869141" xlink:href="#DejaVuSans-56"/>
      </g>
     </g>
    </g>
    <g id="xtick_14">
     <g id="line2d_20">
      <g>
       <use style="stroke:#000000;stroke-width:0.8;" x="769.067577" xlink:href="#m1df92fcd20" y="504"/>
      </g>
     </g>
     <g id="text_20">
      <!-- 1992 -->
      <g transform="translate(756.342577 518.598438)scale(0.1 -0.1)">
       <use xlink:href="#DejaVuSans-49"/>
       <use x="63.623047" xlink:href="#DejaVuSans-57"/>
       <use x="127.246094" xlink:href="#DejaVuSans-57"/>
       <use x="190.869141" xlink:href="#DejaVuSans-50"/>
      </g>
     </g>
    </g>
    <g id="xtick_15">
     <g id="line2d_21">
      <g>
       <use style="stroke:#000000;stroke-width:0.8;" x="812.580965" xlink:href="#m1df92fcd20" y="504"/>
      </g>
     </g>
     <g id="text_21">
      <!-- 1996 -->
      <g transform="translate(799.855965 518.598438)scale(0.1 -0.1)">
       <use xlink:href="#DejaVuSans-49"/>
       <use x="63.623047" xlink:href="#DejaVuSans-57"/>
       <use x="127.246094" xlink:href="#DejaVuSans-57"/>
       <use x="190.869141" xlink:href="#DejaVuSans-54"/>
      </g>
     </g>
    </g>
    <g id="xtick_16">
     <g id="line2d_22">
      <g>
       <use style="stroke:#000000;stroke-width:0.8;" x="856.094352" xlink:href="#m1df92fcd20" y="504"/>
      </g>
     </g>
     <g id="text_22">
      <!-- 2000 -->
      <g transform="translate(843.369352 518.598438)scale(0.1 -0.1)">
       <use xlink:href="#DejaVuSans-50"/>
       <use x="63.623047" xlink:href="#DejaVuSans-48"/>
       <use x="127.246094" xlink:href="#DejaVuSans-48"/>
       <use x="190.869141" xlink:href="#DejaVuSans-48"/>
      </g>
     </g>
    </g>
    <g id="xtick_17">
     <g id="line2d_23">
      <g>
       <use style="stroke:#000000;stroke-width:0.8;" x="899.60774" xlink:href="#m1df92fcd20" y="504"/>
      </g>
     </g>
     <g id="text_23">
      <!-- 2004 -->
      <g transform="translate(886.88274 518.598438)scale(0.1 -0.1)">
       <use xlink:href="#DejaVuSans-50"/>
       <use x="63.623047" xlink:href="#DejaVuSans-48"/>
       <use x="127.246094" xlink:href="#DejaVuSans-48"/>
       <use x="190.869141" xlink:href="#DejaVuSans-52"/>
      </g>
     </g>
    </g>
    <g id="xtick_18">
     <g id="line2d_24">
      <g>
       <use style="stroke:#000000;stroke-width:0.8;" x="943.121127" xlink:href="#m1df92fcd20" y="504"/>
      </g>
     </g>
     <g id="text_24">
      <!-- 2008 -->
      <g transform="translate(930.396127 518.598438)scale(0.1 -0.1)">
       <use xlink:href="#DejaVuSans-50"/>
       <use x="63.623047" xlink:href="#DejaVuSans-48"/>
       <use x="127.246094" xlink:href="#DejaVuSans-48"/>
       <use x="190.869141" xlink:href="#DejaVuSans-56"/>
      </g>
     </g>
    </g>
    <g id="xtick_19">
     <g id="line2d_25">
      <g>
       <use style="stroke:#000000;stroke-width:0.8;" x="986.634515" xlink:href="#m1df92fcd20" y="504"/>
      </g>
     </g>
     <g id="text_25">
      <!-- 2012 -->
      <g transform="translate(973.909515 518.598438)scale(0.1 -0.1)">
       <use xlink:href="#DejaVuSans-50"/>
       <use x="63.623047" xlink:href="#DejaVuSans-48"/>
       <use x="127.246094" xlink:href="#DejaVuSans-49"/>
       <use x="190.869141" xlink:href="#DejaVuSans-50"/>
      </g>
     </g>
    </g>
    <g id="xtick_20">
     <g id="line2d_26">
      <g>
       <use style="stroke:#000000;stroke-width:0.8;" x="1030.147902" xlink:href="#m1df92fcd20" y="504"/>
      </g>
     </g>
     <g id="text_26">
      <!-- 2016 -->
      <g transform="translate(1017.422902 518.598438)scale(0.1 -0.1)">
       <use xlink:href="#DejaVuSans-50"/>
       <use x="63.623047" xlink:href="#DejaVuSans-48"/>
       <use x="127.246094" xlink:href="#DejaVuSans-49"/>
       <use x="190.869141" xlink:href="#DejaVuSans-54"/>
      </g>
     </g>
    </g>
   </g>
   <g id="matplotlib.axis_4">
    <g id="ytick_6">
     <g id="line2d_27">
      <g>
       <use style="stroke:#000000;stroke-width:0.8;" x="630.981818" xlink:href="#mcfe5f0a437" y="502.455645"/>
      </g>
     </g>
    </g>
    <g id="ytick_7">
     <g id="line2d_28">
      <g>
       <use style="stroke:#000000;stroke-width:0.8;" x="630.981818" xlink:href="#mcfe5f0a437" y="410.042438"/>
      </g>
     </g>
    </g>
    <g id="ytick_8">
     <g id="line2d_29">
      <g>
       <use style="stroke:#000000;stroke-width:0.8;" x="630.981818" xlink:href="#mcfe5f0a437" y="317.62923"/>
      </g>
     </g>
    </g>
    <g id="ytick_9">
     <g id="line2d_30">
      <g>
       <use style="stroke:#000000;stroke-width:0.8;" x="630.981818" xlink:href="#mcfe5f0a437" y="225.216023"/>
      </g>
     </g>
    </g>
    <g id="ytick_10">
     <g id="line2d_31">
      <g>
       <use style="stroke:#000000;stroke-width:0.8;" x="630.981818" xlink:href="#mcfe5f0a437" y="132.802815"/>
      </g>
     </g>
    </g>
   </g>
   <g id="line2d_32">
    <path clip-path="url(#p0cc8376045)" d="M 649.428099 466.076941 
L 650.351381 453.86244 
L 651.185313 416.040918 
L 653.002094 210.802246 
L 653.925376 151.063568 
L 654.818875 148.875045 
L 655.742157 224.592151 
L 657.558937 398.018909 
L 658.482219 451.37537 
L 659.375718 469.205688 
L 660.299 466.076941 
L 661.222282 453.86244 
L 662.056214 416.040918 
L 663.872995 210.802246 
L 664.796277 151.063568 
L 665.689776 148.875045 
L 666.613058 224.592151 
L 668.429839 398.018909 
L 669.353121 451.37537 
L 670.246619 469.205688 
L 671.169901 466.076941 
L 672.093183 453.86244 
L 672.927115 416.040918 
L 674.743896 210.802246 
L 675.667178 151.063568 
L 676.560677 148.875045 
L 677.483959 224.592151 
L 679.30074 398.018909 
L 680.224022 451.37537 
L 681.11752 469.205688 
L 682.040802 466.076941 
L 682.964084 453.86244 
L 683.8278 416.040918 
L 685.64458 210.802246 
L 686.567862 151.063568 
L 687.461361 148.875045 
L 688.384643 224.592151 
L 690.201424 398.018909 
L 691.124706 451.37537 
L 692.018205 469.205688 
L 692.941487 466.076941 
L 693.864769 453.86244 
L 694.698701 416.040918 
L 696.515482 210.802246 
L 697.438764 151.063568 
L 698.332262 148.875045 
L 699.255544 224.592151 
L 701.072325 398.018909 
L 701.995607 451.37537 
L 702.889106 469.205688 
L 703.812388 466.076941 
L 704.73567 453.86244 
L 705.569602 416.040918 
L 707.386383 210.802246 
L 708.309665 151.063568 
L 709.203163 148.875045 
L 710.126445 224.592151 
L 711.943226 398.018909 
L 712.866508 451.37537 
L 713.760007 469.205688 
L 714.683289 466.076941 
L 715.606571 453.86244 
L 716.440503 416.040918 
L 718.257284 210.802246 
L 719.180566 151.063568 
L 720.074064 148.875045 
L 720.997346 224.592151 
L 722.814127 398.018909 
L 723.737409 451.37537 
L 724.630908 469.205688 
L 725.55419 466.076941 
L 726.477472 453.86244 
L 727.341187 416.040918 
L 729.157968 210.802246 
L 730.08125 151.063568 
L 730.974749 148.875045 
L 731.898031 224.592151 
L 733.714811 398.018909 
L 734.638093 451.37537 
L 735.531592 469.205688 
L 736.454874 466.076941 
L 737.378156 453.86244 
L 738.212088 416.040918 
L 740.028869 210.802246 
L 740.952151 151.063568 
L 741.84565 148.875045 
L 742.768932 224.592151 
L 744.585712 398.018909 
L 745.508994 451.37537 
L 746.402493 469.205688 
L 747.325775 466.076941 
L 748.249057 453.86244 
L 749.082989 416.040918 
L 750.89977 210.802246 
L 751.823052 151.063568 
L 752.716551 148.875045 
L 753.639833 224.592151 
L 755.456613 398.018909 
L 756.379895 451.37537 
L 757.273394 469.205688 
L 758.196676 466.076941 
L 759.119958 453.86244 
L 759.95389 416.040918 
L 761.770671 210.802246 
L 762.693953 151.063568 
L 763.587452 148.875045 
L 764.510734 224.592151 
L 766.327515 398.018909 
L 767.250797 451.37537 
L 768.144295 469.205688 
L 769.067577 466.076941 
L 769.990859 453.86244 
L 770.854575 416.040918 
L 772.671355 210.802246 
L 773.594637 151.063568 
L 774.488136 148.875045 
L 775.411418 224.592151 
L 777.228199 398.018909 
L 778.151481 451.37537 
L 779.04498 469.205688 
L 779.968262 466.076941 
L 780.891544 453.86244 
L 781.725476 416.040918 
L 783.542256 210.802246 
L 784.465538 151.063568 
L 785.359037 148.875045 
L 786.282319 224.592151 
L 788.0991 398.018909 
L 789.022382 451.37537 
L 789.915881 469.205688 
L 790.839163 466.076941 
L 791.762445 453.86244 
L 792.596377 416.040918 
L 794.413157 210.802246 
L 795.336439 151.063568 
L 796.229938 148.875045 
L 797.15322 224.592151 
L 798.970001 398.018909 
L 799.893283 451.37537 
L 800.786782 469.205688 
L 801.710064 466.076941 
L 802.633346 453.86244 
L 803.467278 416.040918 
L 805.284059 210.802246 
L 806.207341 151.063568 
L 807.100839 148.875045 
L 808.024121 224.592151 
L 809.840902 398.018909 
L 810.764184 451.37537 
L 811.657683 469.205688 
L 812.580965 466.076941 
L 813.504247 453.86244 
L 814.367962 416.040918 
L 816.184743 210.802246 
L 817.108025 151.063568 
L 818.001524 148.875045 
L 818.924806 224.592151 
L 820.741586 398.018909 
L 821.664868 451.37537 
L 822.558367 469.205688 
L 823.481649 466.076941 
L 824.404931 453.86244 
L 825.238863 416.040918 
L 827.055644 210.802246 
L 827.978926 151.063568 
L 828.872425 148.875045 
L 829.795707 224.592151 
L 831.612487 398.018909 
L 832.535769 451.37537 
L 833.429268 469.205688 
L 834.35255 466.076941 
L 835.275832 453.86244 
L 836.109764 416.040918 
L 837.926545 210.802246 
L 838.849827 151.063568 
L 839.743326 148.875045 
L 840.666608 224.592151 
L 842.483388 398.018909 
L 843.40667 451.37537 
L 844.300169 469.205688 
L 845.223451 466.076941 
L 846.146733 453.86244 
L 846.980665 416.040918 
L 848.797446 210.802246 
L 849.720728 151.063568 
L 850.614227 148.875045 
L 851.537509 224.592151 
L 853.354289 398.018909 
L 854.277571 451.37537 
L 855.17107 469.205688 
L 856.094352 466.076941 
L 857.017634 453.86244 
L 857.88135 416.040918 
L 859.69813 210.802246 
L 860.621412 151.063568 
L 861.514911 148.875045 
L 862.438193 224.592151 
L 864.254974 398.018909 
L 865.178256 451.37537 
L 866.071755 469.205688 
L 866.995037 466.076941 
L 867.918319 453.86244 
L 868.752251 416.040918 
L 870.569031 210.802246 
L 871.492313 151.063568 
L 872.385812 148.875045 
L 873.309094 224.592151 
L 875.125875 398.018909 
L 876.049157 451.37537 
L 876.942656 469.205688 
L 877.865938 466.076941 
L 878.78922 453.86244 
L 879.623152 416.040918 
L 881.439932 210.802246 
L 882.363214 151.063568 
L 883.256713 148.875045 
L 884.179995 224.592151 
L 885.996776 398.018909 
L 886.920058 451.37537 
L 887.813557 469.205688 
L 888.736839 466.076941 
L 889.660121 453.86244 
L 890.494053 416.040918 
L 892.310833 210.802246 
L 893.234115 151.063568 
L 894.127614 148.875045 
L 895.050896 224.592151 
L 896.867677 398.018909 
L 897.790959 451.37537 
L 898.684458 469.205688 
L 899.60774 466.076941 
L 900.531022 453.86244 
L 901.394737 416.040918 
L 903.211518 210.802246 
L 904.1348 151.063568 
L 905.028299 148.875045 
L 905.951581 224.592151 
L 907.768361 398.018909 
L 908.691643 451.37537 
L 909.585142 469.205688 
L 910.508424 466.076941 
L 911.431706 453.86244 
L 912.265638 416.040918 
L 914.082419 210.802246 
L 915.005701 151.063568 
L 915.8992 148.875045 
L 916.822482 224.592151 
L 918.639262 398.018909 
L 919.562544 451.37537 
L 920.456043 469.205688 
L 921.379325 466.076941 
L 922.302607 453.86244 
L 923.136539 416.040918 
L 924.95332 210.802246 
L 925.876602 151.063568 
L 926.770101 148.875045 
L 927.693383 224.592151 
L 929.510163 398.018909 
L 930.433445 451.37537 
L 931.326944 469.205688 
L 932.250226 466.076941 
L 933.173508 453.86244 
L 934.00744 416.040918 
L 935.824221 210.802246 
L 936.747503 151.063568 
L 937.641002 148.875045 
L 938.564284 224.592151 
L 940.381064 398.018909 
L 941.304346 451.37537 
L 942.197845 469.205688 
L 943.121127 466.076941 
L 944.044409 453.86244 
L 944.908125 416.040918 
L 946.724905 210.802246 
L 947.648187 151.063568 
L 948.541686 148.875045 
L 949.464968 224.592151 
L 951.281749 398.018909 
L 952.205031 451.37537 
L 953.098529 469.205688 
L 954.021811 466.076941 
L 954.945093 453.86244 
L 955.779026 416.040918 
L 957.595806 210.802246 
L 958.519088 151.063568 
L 959.412587 148.875045 
L 960.335869 224.592151 
L 962.15265 398.018909 
L 963.075932 451.37537 
L 963.96943 469.205688 
L 964.892713 466.076941 
L 965.815995 453.86244 
L 966.649927 416.040918 
L 968.466707 210.802246 
L 969.389989 151.063568 
L 970.283488 148.875045 
L 971.20677 224.592151 
L 973.023551 398.018909 
L 973.946833 451.37537 
L 974.840332 469.205688 
L 975.763614 466.076941 
L 976.686896 453.86244 
L 977.520828 416.040918 
L 979.337608 210.802246 
L 980.26089 151.063568 
L 981.154389 148.875045 
L 982.077671 224.592151 
L 983.894452 398.018909 
L 984.817734 451.37537 
L 985.711233 469.205688 
L 986.634515 466.076941 
L 987.557797 453.86244 
L 988.421512 416.040918 
L 990.238293 210.802246 
L 991.161575 151.063568 
L 992.055073 148.875045 
L 992.978355 224.592151 
L 994.795136 398.018909 
L 995.718418 451.37537 
L 996.611917 469.205688 
L 997.535199 466.076941 
L 998.458481 453.86244 
L 999.292413 416.040918 
L 1001.109194 210.802246 
L 1002.032476 151.063568 
L 1002.925975 148.875045 
L 1003.849257 224.592151 
L 1005.666037 398.018909 
L 1006.589319 451.37537 
L 1007.482818 469.205688 
L 1008.4061 466.076941 
L 1009.329382 453.86244 
L 1010.163314 416.040918 
L 1011.980095 210.802246 
L 1012.903377 151.063568 
L 1013.796876 148.875045 
L 1014.720158 224.592151 
L 1016.536938 398.018909 
L 1017.46022 451.37537 
L 1018.353719 469.205688 
L 1018.353719 469.205688 
" style="fill:none;stroke:#1f77b4;stroke-linecap:square;stroke-width:1.5;"/>
   </g>
   <g id="patch_8">
    <path d="M 630.981818 504 
L 630.981818 69.12 
" style="fill:none;stroke:#000000;stroke-linecap:square;stroke-linejoin:miter;stroke-width:0.8;"/>
   </g>
   <g id="patch_9">
    <path d="M 1036.8 504 
L 1036.8 69.12 
" style="fill:none;stroke:#000000;stroke-linecap:square;stroke-linejoin:miter;stroke-width:0.8;"/>
   </g>
   <g id="patch_10">
    <path d="M 630.981818 504 
L 1036.8 504 
" style="fill:none;stroke:#000000;stroke-linecap:square;stroke-linejoin:miter;stroke-width:0.8;"/>
   </g>
   <g id="patch_11">
    <path d="M 630.981818 69.12 
L 1036.8 69.12 
" style="fill:none;stroke:#000000;stroke-linecap:square;stroke-linejoin:miter;stroke-width:0.8;"/>
   </g>
   <g id="text_27">
    <!-- Average Evaporation -->
    <defs>
     <path d="M 34.1875 63.1875 
L 20.796875 26.90625 
L 47.609375 26.90625 
z
M 28.609375 72.90625 
L 39.796875 72.90625 
L 67.578125 0 
L 57.328125 0 
L 50.6875 18.703125 
L 17.828125 18.703125 
L 11.1875 0 
L 0.78125 0 
z
" id="DejaVuSans-65"/>
     <path d="M 56.203125 29.59375 
L 56.203125 25.203125 
L 14.890625 25.203125 
Q 15.484375 15.921875 20.484375 11.0625 
Q 25.484375 6.203125 34.421875 6.203125 
Q 39.59375 6.203125 44.453125 7.46875 
Q 49.3125 8.734375 54.109375 11.28125 
L 54.109375 2.78125 
Q 49.265625 0.734375 44.1875 -0.34375 
Q 39.109375 -1.421875 33.890625 -1.421875 
Q 20.796875 -1.421875 13.15625 6.1875 
Q 5.515625 13.8125 5.515625 26.8125 
Q 5.515625 40.234375 12.765625 48.109375 
Q 20.015625 56 32.328125 56 
Q 43.359375 56 49.78125 48.890625 
Q 56.203125 41.796875 56.203125 29.59375 
z
M 47.21875 32.234375 
Q 47.125 39.59375 43.09375 43.984375 
Q 39.0625 48.390625 32.421875 48.390625 
Q 24.90625 48.390625 20.390625 44.140625 
Q 15.875 39.890625 15.1875 32.171875 
z
" id="DejaVuSans-101"/>
     <path d="M 45.40625 27.984375 
Q 45.40625 37.75 41.375 43.109375 
Q 37.359375 48.484375 30.078125 48.484375 
Q 22.859375 48.484375 18.828125 43.109375 
Q 14.796875 37.75 14.796875 27.984375 
Q 14.796875 18.265625 18.828125 12.890625 
Q 22.859375 7.515625 30.078125 7.515625 
Q 37.359375 7.515625 41.375 12.890625 
Q 45.40625 18.265625 45.40625 27.984375 
z
M 54.390625 6.78125 
Q 54.390625 -7.171875 48.1875 -13.984375 
Q 42 -20.796875 29.203125 -20.796875 
Q 24.46875 -20.796875 20.265625 -20.09375 
Q 16.0625 -19.390625 12.109375 -17.921875 
L 12.109375 -9.1875 
Q 16.0625 -11.328125 19.921875 -12.34375 
Q 23.78125 -13.375 27.78125 -13.375 
Q 36.625 -13.375 41.015625 -8.765625 
Q 45.40625 -4.15625 45.40625 5.171875 
L 45.40625 9.625 
Q 42.625 4.78125 38.28125 2.390625 
Q 33.9375 0 27.875 0 
Q 17.828125 0 11.671875 7.65625 
Q 5.515625 15.328125 5.515625 27.984375 
Q 5.515625 40.671875 11.671875 48.328125 
Q 17.828125 56 27.875 56 
Q 33.9375 56 38.28125 53.609375 
Q 42.625 51.21875 45.40625 46.390625 
L 45.40625 54.6875 
L 54.390625 54.6875 
z
" id="DejaVuSans-103"/>
    </defs>
    <g transform="translate(770.860909 63.12)scale(0.12 -0.12)">
     <use xlink:href="#DejaVuSans-65"/>
     <use x="68.330078" xlink:href="#DejaVuSans-118"/>
     <use x="127.509766" xlink:href="#DejaVuSans-101"/>
     <use x="189.033203" xlink:href="#DejaVuSans-114"/>
     <use x="230.146484" xlink:href="#DejaVuSans-97"/>
     <use x="291.425781" xlink:href="#DejaVuSans-103"/>
     <use x="354.902344" xlink:href="#DejaVuSans-101"/>
     <use x="416.425781" xlink:href="#DejaVuSans-32"/>
     <use x="448.212891" xlink:href="#DejaVuSans-69"/>
     <use x="511.396484" xlink:href="#DejaVuSans-118"/>
     <use x="570.576172" xlink:href="#DejaVuSans-97"/>
     <use x="631.855469" xlink:href="#DejaVuSans-112"/>
     <use x="695.332031" xlink:href="#DejaVuSans-111"/>
     <use x="756.513672" xlink:href="#DejaVuSans-114"/>
     <use x="797.626953" xlink:href="#DejaVuSans-97"/>
     <use x="858.90625" xlink:href="#DejaVuSans-116"/>
     <use x="898.115234" xlink:href="#DejaVuSans-105"/>
     <use x="925.898438" xlink:href="#DejaVuSans-111"/>
     <use x="987.080078" xlink:href="#DejaVuSans-110"/>
    </g>
   </g>
  </g>
  <g id="text_28">
   <!-- Chicago, Illinois -->
   <defs>
    <path d="M 64.40625 67.28125 
L 64.40625 56.890625 
Q 59.421875 61.53125 53.78125 63.8125 
Q 48.140625 66.109375 41.796875 66.109375 
Q 29.296875 66.109375 22.65625 58.46875 
Q 16.015625 50.828125 16.015625 36.375 
Q 16.015625 21.96875 22.65625 14.328125 
Q 29.296875 6.6875 41.796875 6.6875 
Q 48.140625 6.6875 53.78125 8.984375 
Q 59.421875 11.28125 64.40625 15.921875 
L 64.40625 5.609375 
Q 59.234375 2.09375 53.4375 0.328125 
Q 47.65625 -1.421875 41.21875 -1.421875 
Q 24.65625 -1.421875 15.125 8.703125 
Q 5.609375 18.84375 5.609375 36.375 
Q 5.609375 53.953125 15.125 64.078125 
Q 24.65625 74.21875 41.21875 74.21875 
Q 47.75 74.21875 53.53125 72.484375 
Q 59.328125 70.75 64.40625 67.28125 
z
" id="DejaVuSans-67"/>
    <path d="M 48.78125 52.59375 
L 48.78125 44.1875 
Q 44.96875 46.296875 41.140625 47.34375 
Q 37.3125 48.390625 33.40625 48.390625 
Q 24.65625 48.390625 19.8125 42.84375 
Q 14.984375 37.3125 14.984375 27.296875 
Q 14.984375 17.28125 19.8125 11.734375 
Q 24.65625 6.203125 33.40625 6.203125 
Q 37.3125 6.203125 41.140625 7.25 
Q 44.96875 8.296875 48.78125 10.40625 
L 48.78125 2.09375 
Q 45.015625 0.34375 40.984375 -0.53125 
Q 36.96875 -1.421875 32.421875 -1.421875 
Q 20.0625 -1.421875 12.78125 6.34375 
Q 5.515625 14.109375 5.515625 27.296875 
Q 5.515625 40.671875 12.859375 48.328125 
Q 20.21875 56 33.015625 56 
Q 37.15625 56 41.109375 55.140625 
Q 45.0625 54.296875 48.78125 52.59375 
z
" id="DejaVuSans-99"/>
    <path d="M 11.71875 12.40625 
L 22.015625 12.40625 
L 22.015625 4 
L 14.015625 -11.625 
L 7.71875 -11.625 
L 11.71875 4 
z
" id="DejaVuSans-44"/>
    <path d="M 9.8125 72.90625 
L 19.671875 72.90625 
L 19.671875 0 
L 9.8125 0 
z
" id="DejaVuSans-73"/>
    <path d="M 44.28125 53.078125 
L 44.28125 44.578125 
Q 40.484375 46.53125 36.375 47.5 
Q 32.28125 48.484375 27.875 48.484375 
Q 21.1875 48.484375 17.84375 46.4375 
Q 14.5 44.390625 14.5 40.28125 
Q 14.5 37.15625 16.890625 35.375 
Q 19.28125 33.59375 26.515625 31.984375 
L 29.59375 31.296875 
Q 39.15625 29.25 43.1875 25.515625 
Q 47.21875 21.78125 47.21875 15.09375 
Q 47.21875 7.46875 41.1875 3.015625 
Q 35.15625 -1.421875 24.609375 -1.421875 
Q 20.21875 -1.421875 15.453125 -0.5625 
Q 10.6875 0.296875 5.421875 2 
L 5.421875 11.28125 
Q 10.40625 8.6875 15.234375 7.390625 
Q 20.0625 6.109375 24.8125 6.109375 
Q 31.15625 6.109375 34.5625 8.28125 
Q 37.984375 10.453125 37.984375 14.40625 
Q 37.984375 18.0625 35.515625 20.015625 
Q 33.0625 21.96875 24.703125 23.78125 
L 21.578125 24.515625 
Q 13.234375 26.265625 9.515625 29.90625 
Q 5.8125 33.546875 5.8125 39.890625 
Q 5.8125 47.609375 11.28125 51.796875 
Q 16.75 56 26.8125 56 
Q 31.78125 56 36.171875 55.265625 
Q 40.578125 54.546875 44.28125 53.078125 
z
" id="DejaVuSans-115"/>
   </defs>
   <g transform="translate(529.034063 20.638125)scale(0.12 -0.12)">
    <use xlink:href="#DejaVuSans-67"/>
    <use x="69.824219" xlink:href="#DejaVuSans-104"/>
    <use x="133.203125" xlink:href="#DejaVuSans-105"/>
    <use x="160.986328" xlink:href="#DejaVuSans-99"/>
    <use x="215.966797" xlink:href="#DejaVuSans-97"/>
    <use x="277.246094" xlink:href="#DejaVuSans-103"/>
    <use x="340.722656" xlink:href="#DejaVuSans-111"/>
    <use x="401.904297" xlink:href="#DejaVuSans-44"/>
    <use x="433.691406" xlink:href="#DejaVuSans-32"/>
    <use x="465.478516" xlink:href="#DejaVuSans-73"/>
    <use x="494.970703" xlink:href="#DejaVuSans-108"/>
    <use x="522.753906" xlink:href="#DejaVuSans-108"/>
    <use x="550.537109" xlink:href="#DejaVuSans-105"/>
    <use x="578.320312" xlink:href="#DejaVuSans-110"/>
    <use x="641.699219" xlink:href="#DejaVuSans-111"/>
    <use x="702.880859" xlink:href="#DejaVuSans-105"/>
    <use x="730.664062" xlink:href="#DejaVuSans-115"/>
   </g>
  </g>
 </g>
 <defs>
  <clipPath id="pd12f676ede">
   <rect height="434.88" width="405.818182" x="144" y="69.12"/>
  </clipPath>
  <clipPath id="p0cc8376045">
   <rect height="434.88" width="405.818182" x="630.981818" y="69.12"/>
  </clipPath>
 </defs>
</svg>
