<?xml version="1.0" encoding="utf-8" standalone="no"?>
<!DOCTYPE svg PUBLIC "-//W3C//DTD SVG 1.1//EN"
  "http://www.w3.org/Graphics/SVG/1.1/DTD/svg11.dtd">
<!-- Created with matplotlib (https://matplotlib.org/) -->
<svg height="576pt" version="1.1" viewBox="0 0 1152 576" width="1152pt" xmlns="http://www.w3.org/2000/svg" xmlns:xlink="http://www.w3.org/1999/xlink">
 <defs>
  <style type="text/css">
*{stroke-linecap:butt;stroke-linejoin:round;}
  </style>
 </defs>
 <g id="figure_1">
  <g id="patch_1">
   <path d="M 0 576 
L 1152 576 
L 1152 0 
L 0 0 
z
" style="fill:#ffffff;"/>
  </g>
  <g id="axes_1">
   <g id="patch_2">
    <path d="M 144 504 
L 549.818182 504 
L 549.818182 69.12 
L 144 69.12 
z
" style="fill:#ffffff;"/>
   </g>
   <g id="matplotlib.axis_1">
    <g id="xtick_1">
     <g id="line2d_1">
      <defs>
       <path d="M 0 0 
L 0 3.5 
" id="mee93acd882" style="stroke:#000000;stroke-width:0.8;"/>
      </defs>
      <g>
       <use style="stroke:#000000;stroke-width:0.8;" x="151.545597" xlink:href="#mee93acd882" y="504"/>
      </g>
     </g>
     <g id="text_1">
      <!-- 1980 -->
      <defs>
       <path d="M 12.40625 8.296875 
L 28.515625 8.296875 
L 28.515625 63.921875 
L 10.984375 60.40625 
L 10.984375 69.390625 
L 28.421875 72.90625 
L 38.28125 72.90625 
L 38.28125 8.296875 
L 54.390625 8.296875 
L 54.390625 0 
L 12.40625 0 
z
" id="DejaVuSans-49"/>
       <path d="M 10.984375 1.515625 
L 10.984375 10.5 
Q 14.703125 8.734375 18.5 7.8125 
Q 22.3125 6.890625 25.984375 6.890625 
Q 35.75 6.890625 40.890625 13.453125 
Q 46.046875 20.015625 46.78125 33.40625 
Q 43.953125 29.203125 39.59375 26.953125 
Q 35.25 24.703125 29.984375 24.703125 
Q 19.046875 24.703125 12.671875 31.3125 
Q 6.296875 37.9375 6.296875 49.421875 
Q 6.296875 60.640625 12.9375 67.421875 
Q 19.578125 74.21875 30.609375 74.21875 
Q 43.265625 74.21875 49.921875 64.515625 
Q 56.59375 54.828125 56.59375 36.375 
Q 56.59375 19.140625 48.40625 8.859375 
Q 40.234375 -1.421875 26.421875 -1.421875 
Q 22.703125 -1.421875 18.890625 -0.6875 
Q 15.09375 0.046875 10.984375 1.515625 
z
M 30.609375 32.421875 
Q 37.25 32.421875 41.125 36.953125 
Q 45.015625 41.5 45.015625 49.421875 
Q 45.015625 57.28125 41.125 61.84375 
Q 37.25 66.40625 30.609375 66.40625 
Q 23.96875 66.40625 20.09375 61.84375 
Q 16.21875 57.28125 16.21875 49.421875 
Q 16.21875 41.5 20.09375 36.953125 
Q 23.96875 32.421875 30.609375 32.421875 
z
" id="DejaVuSans-57"/>
       <path d="M 31.78125 34.625 
Q 24.75 34.625 20.71875 30.859375 
Q 16.703125 27.09375 16.703125 20.515625 
Q 16.703125 13.921875 20.71875 10.15625 
Q 24.75 6.390625 31.78125 6.390625 
Q 38.8125 6.390625 42.859375 10.171875 
Q 46.921875 13.96875 46.921875 20.515625 
Q 46.921875 27.09375 42.890625 30.859375 
Q 38.875 34.625 31.78125 34.625 
z
M 21.921875 38.8125 
Q 15.578125 40.375 12.03125 44.71875 
Q 8.5 49.078125 8.5 55.328125 
Q 8.5 64.0625 14.71875 69.140625 
Q 20.953125 74.21875 31.78125 74.21875 
Q 42.671875 74.21875 48.875 69.140625 
Q 55.078125 64.0625 55.078125 55.328125 
Q 55.078125 49.078125 51.53125 44.71875 
Q 48 40.375 41.703125 38.8125 
Q 48.828125 37.15625 52.796875 32.3125 
Q 56.78125 27.484375 56.78125 20.515625 
Q 56.78125 9.90625 50.3125 4.234375 
Q 43.84375 -1.421875 31.78125 -1.421875 
Q 19.734375 -1.421875 13.25 4.234375 
Q 6.78125 9.90625 6.78125 20.515625 
Q 6.78125 27.484375 10.78125 32.3125 
Q 14.796875 37.15625 21.921875 38.8125 
z
M 18.3125 54.390625 
Q 18.3125 48.734375 21.84375 45.5625 
Q 25.390625 42.390625 31.78125 42.390625 
Q 38.140625 42.390625 41.71875 45.5625 
Q 45.3125 48.734375 45.3125 54.390625 
Q 45.3125 60.0625 41.71875 63.234375 
Q 38.140625 66.40625 31.78125 66.40625 
Q 25.390625 66.40625 21.84375 63.234375 
Q 18.3125 60.0625 18.3125 54.390625 
z
" id="DejaVuSans-56"/>
       <path d="M 31.78125 66.40625 
Q 24.171875 66.40625 20.328125 58.90625 
Q 16.5 51.421875 16.5 36.375 
Q 16.5 21.390625 20.328125 13.890625 
Q 24.171875 6.390625 31.78125 6.390625 
Q 39.453125 6.390625 43.28125 13.890625 
Q 47.125 21.390625 47.125 36.375 
Q 47.125 51.421875 43.28125 58.90625 
Q 39.453125 66.40625 31.78125 66.40625 
z
M 31.78125 74.21875 
Q 44.046875 74.21875 50.515625 64.515625 
Q 56.984375 54.828125 56.984375 36.375 
Q 56.984375 17.96875 50.515625 8.265625 
Q 44.046875 -1.421875 31.78125 -1.421875 
Q 19.53125 -1.421875 13.0625 8.265625 
Q 6.59375 17.96875 6.59375 36.375 
Q 6.59375 54.828125 13.0625 64.515625 
Q 19.53125 74.21875 31.78125 74.21875 
z
" id="DejaVuSans-48"/>
      </defs>
      <g transform="translate(138.820597 518.598438)scale(0.1 -0.1)">
       <use xlink:href="#DejaVuSans-49"/>
       <use x="63.623047" xlink:href="#DejaVuSans-57"/>
       <use x="127.246094" xlink:href="#DejaVuSans-56"/>
       <use x="190.869141" xlink:href="#DejaVuSans-48"/>
      </g>
     </g>
    </g>
    <g id="xtick_2">
     <g id="line2d_2">
      <g>
       <use style="stroke:#000000;stroke-width:0.8;" x="195.058984" xlink:href="#mee93acd882" y="504"/>
      </g>
     </g>
     <g id="text_2">
      <!-- 1984 -->
      <defs>
       <path d="M 37.796875 64.3125 
L 12.890625 25.390625 
L 37.796875 25.390625 
z
M 35.203125 72.90625 
L 47.609375 72.90625 
L 47.609375 25.390625 
L 58.015625 25.390625 
L 58.015625 17.1875 
L 47.609375 17.1875 
L 47.609375 0 
L 37.796875 0 
L 37.796875 17.1875 
L 4.890625 17.1875 
L 4.890625 26.703125 
z
" id="DejaVuSans-52"/>
      </defs>
      <g transform="translate(182.333984 518.598438)scale(0.1 -0.1)">
       <use xlink:href="#DejaVuSans-49"/>
       <use x="63.623047" xlink:href="#DejaVuSans-57"/>
       <use x="127.246094" xlink:href="#DejaVuSans-56"/>
       <use x="190.869141" xlink:href="#DejaVuSans-52"/>
      </g>
     </g>
    </g>
    <g id="xtick_3">
     <g id="line2d_3">
      <g>
       <use style="stroke:#000000;stroke-width:0.8;" x="238.572372" xlink:href="#mee93acd882" y="504"/>
      </g>
     </g>
     <g id="text_3">
      <!-- 1988 -->
      <g transform="translate(225.847372 518.598438)scale(0.1 -0.1)">
       <use xlink:href="#DejaVuSans-49"/>
       <use x="63.623047" xlink:href="#DejaVuSans-57"/>
       <use x="127.246094" xlink:href="#DejaVuSans-56"/>
       <use x="190.869141" xlink:href="#DejaVuSans-56"/>
      </g>
     </g>
    </g>
    <g id="xtick_4">
     <g id="line2d_4">
      <g>
       <use style="stroke:#000000;stroke-width:0.8;" x="282.085759" xlink:href="#mee93acd882" y="504"/>
      </g>
     </g>
     <g id="text_4">
      <!-- 1992 -->
      <defs>
       <path d="M 19.1875 8.296875 
L 53.609375 8.296875 
L 53.609375 0 
L 7.328125 0 
L 7.328125 8.296875 
Q 12.9375 14.109375 22.625 23.890625 
Q 32.328125 33.6875 34.8125 36.53125 
Q 39.546875 41.84375 41.421875 45.53125 
Q 43.3125 49.21875 43.3125 52.78125 
Q 43.3125 58.59375 39.234375 62.25 
Q 35.15625 65.921875 28.609375 65.921875 
Q 23.96875 65.921875 18.8125 64.3125 
Q 13.671875 62.703125 7.8125 59.421875 
L 7.8125 69.390625 
Q 13.765625 71.78125 18.9375 73 
Q 24.125 74.21875 28.421875 74.21875 
Q 39.75 74.21875 46.484375 68.546875 
Q 53.21875 62.890625 53.21875 53.421875 
Q 53.21875 48.921875 51.53125 44.890625 
Q 49.859375 40.875 45.40625 35.40625 
Q 44.1875 33.984375 37.640625 27.21875 
Q 31.109375 20.453125 19.1875 8.296875 
z
" id="DejaVuSans-50"/>
      </defs>
      <g transform="translate(269.360759 518.598438)scale(0.1 -0.1)">
       <use xlink:href="#DejaVuSans-49"/>
       <use x="63.623047" xlink:href="#DejaVuSans-57"/>
       <use x="127.246094" xlink:href="#DejaVuSans-57"/>
       <use x="190.869141" xlink:href="#DejaVuSans-50"/>
      </g>
     </g>
    </g>
    <g id="xtick_5">
     <g id="line2d_5">
      <g>
       <use style="stroke:#000000;stroke-width:0.8;" x="325.599147" xlink:href="#mee93acd882" y="504"/>
      </g>
     </g>
     <g id="text_5">
      <!-- 1996 -->
      <defs>
       <path d="M 33.015625 40.375 
Q 26.375 40.375 22.484375 35.828125 
Q 18.609375 31.296875 18.609375 23.390625 
Q 18.609375 15.53125 22.484375 10.953125 
Q 26.375 6.390625 33.015625 6.390625 
Q 39.65625 6.390625 43.53125 10.953125 
Q 47.40625 15.53125 47.40625 23.390625 
Q 47.40625 31.296875 43.53125 35.828125 
Q 39.65625 40.375 33.015625 40.375 
z
M 52.59375 71.296875 
L 52.59375 62.3125 
Q 48.875 64.0625 45.09375 64.984375 
Q 41.3125 65.921875 37.59375 65.921875 
Q 27.828125 65.921875 22.671875 59.328125 
Q 17.53125 52.734375 16.796875 39.40625 
Q 19.671875 43.65625 24.015625 45.921875 
Q 28.375 48.1875 33.59375 48.1875 
Q 44.578125 48.1875 50.953125 41.515625 
Q 57.328125 34.859375 57.328125 23.390625 
Q 57.328125 12.15625 50.6875 5.359375 
Q 44.046875 -1.421875 33.015625 -1.421875 
Q 20.359375 -1.421875 13.671875 8.265625 
Q 6.984375 17.96875 6.984375 36.375 
Q 6.984375 53.65625 15.1875 63.9375 
Q 23.390625 74.21875 37.203125 74.21875 
Q 40.921875 74.21875 44.703125 73.484375 
Q 48.484375 72.75 52.59375 71.296875 
z
" id="DejaVuSans-54"/>
      </defs>
      <g transform="translate(312.874147 518.598438)scale(0.1 -0.1)">
       <use xlink:href="#DejaVuSans-49"/>
       <use x="63.623047" xlink:href="#DejaVuSans-57"/>
       <use x="127.246094" xlink:href="#DejaVuSans-57"/>
       <use x="190.869141" xlink:href="#DejaVuSans-54"/>
      </g>
     </g>
    </g>
    <g id="xtick_6">
     <g id="line2d_6">
      <g>
       <use style="stroke:#000000;stroke-width:0.8;" x="369.112534" xlink:href="#mee93acd882" y="504"/>
      </g>
     </g>
     <g id="text_6">
      <!-- 2000 -->
      <g transform="translate(356.387534 518.598438)scale(0.1 -0.1)">
       <use xlink:href="#DejaVuSans-50"/>
       <use x="63.623047" xlink:href="#DejaVuSans-48"/>
       <use x="127.246094" xlink:href="#DejaVuSans-48"/>
       <use x="190.869141" xlink:href="#DejaVuSans-48"/>
      </g>
     </g>
    </g>
    <g id="xtick_7">
     <g id="line2d_7">
      <g>
       <use style="stroke:#000000;stroke-width:0.8;" x="412.625921" xlink:href="#mee93acd882" y="504"/>
      </g>
     </g>
     <g id="text_7">
      <!-- 2004 -->
      <g transform="translate(399.900921 518.598438)scale(0.1 -0.1)">
       <use xlink:href="#DejaVuSans-50"/>
       <use x="63.623047" xlink:href="#DejaVuSans-48"/>
       <use x="127.246094" xlink:href="#DejaVuSans-48"/>
       <use x="190.869141" xlink:href="#DejaVuSans-52"/>
      </g>
     </g>
    </g>
    <g id="xtick_8">
     <g id="line2d_8">
      <g>
       <use style="stroke:#000000;stroke-width:0.8;" x="456.139309" xlink:href="#mee93acd882" y="504"/>
      </g>
     </g>
     <g id="text_8">
      <!-- 2008 -->
      <g transform="translate(443.414309 518.598438)scale(0.1 -0.1)">
       <use xlink:href="#DejaVuSans-50"/>
       <use x="63.623047" xlink:href="#DejaVuSans-48"/>
       <use x="127.246094" xlink:href="#DejaVuSans-48"/>
       <use x="190.869141" xlink:href="#DejaVuSans-56"/>
      </g>
     </g>
    </g>
    <g id="xtick_9">
     <g id="line2d_9">
      <g>
       <use style="stroke:#000000;stroke-width:0.8;" x="499.652696" xlink:href="#mee93acd882" y="504"/>
      </g>
     </g>
     <g id="text_9">
      <!-- 2012 -->
      <g transform="translate(486.927696 518.598438)scale(0.1 -0.1)">
       <use xlink:href="#DejaVuSans-50"/>
       <use x="63.623047" xlink:href="#DejaVuSans-48"/>
       <use x="127.246094" xlink:href="#DejaVuSans-49"/>
       <use x="190.869141" xlink:href="#DejaVuSans-50"/>
      </g>
     </g>
    </g>
    <g id="xtick_10">
     <g id="line2d_10">
      <g>
       <use style="stroke:#000000;stroke-width:0.8;" x="543.166084" xlink:href="#mee93acd882" y="504"/>
      </g>
     </g>
     <g id="text_10">
      <!-- 2016 -->
      <g transform="translate(530.441084 518.598438)scale(0.1 -0.1)">
       <use xlink:href="#DejaVuSans-50"/>
       <use x="63.623047" xlink:href="#DejaVuSans-48"/>
       <use x="127.246094" xlink:href="#DejaVuSans-49"/>
       <use x="190.869141" xlink:href="#DejaVuSans-54"/>
      </g>
     </g>
    </g>
   </g>
   <g id="matplotlib.axis_2">
    <g id="ytick_1">
     <g id="line2d_11">
      <defs>
       <path d="M 0 0 
L -3.5 0 
" id="mb8a68f7c49" style="stroke:#000000;stroke-width:0.8;"/>
      </defs>
      <g>
       <use style="stroke:#000000;stroke-width:0.8;" x="144" xlink:href="#mb8a68f7c49" y="496.539135"/>
      </g>
     </g>
     <g id="text_11">
      <!-- 0.00 -->
      <defs>
       <path d="M 10.6875 12.40625 
L 21 12.40625 
L 21 0 
L 10.6875 0 
z
" id="DejaVuSans-46"/>
      </defs>
      <g transform="translate(114.734375 500.338354)scale(0.1 -0.1)">
       <use xlink:href="#DejaVuSans-48"/>
       <use x="63.623047" xlink:href="#DejaVuSans-46"/>
       <use x="95.410156" xlink:href="#DejaVuSans-48"/>
       <use x="159.033203" xlink:href="#DejaVuSans-48"/>
      </g>
     </g>
    </g>
    <g id="ytick_2">
     <g id="line2d_12">
      <g>
       <use style="stroke:#000000;stroke-width:0.8;" x="144" xlink:href="#mb8a68f7c49" y="408.07657"/>
      </g>
     </g>
     <g id="text_12">
      <!-- 0.05 -->
      <defs>
       <path d="M 10.796875 72.90625 
L 49.515625 72.90625 
L 49.515625 64.59375 
L 19.828125 64.59375 
L 19.828125 46.734375 
Q 21.96875 47.46875 24.109375 47.828125 
Q 26.265625 48.1875 28.421875 48.1875 
Q 40.625 48.1875 47.75 41.5 
Q 54.890625 34.8125 54.890625 23.390625 
Q 54.890625 11.625 47.5625 5.09375 
Q 40.234375 -1.421875 26.90625 -1.421875 
Q 22.3125 -1.421875 17.546875 -0.640625 
Q 12.796875 0.140625 7.71875 1.703125 
L 7.71875 11.625 
Q 12.109375 9.234375 16.796875 8.0625 
Q 21.484375 6.890625 26.703125 6.890625 
Q 35.15625 6.890625 40.078125 11.328125 
Q 45.015625 15.765625 45.015625 23.390625 
Q 45.015625 31 40.078125 35.4375 
Q 35.15625 39.890625 26.703125 39.890625 
Q 22.75 39.890625 18.8125 39.015625 
Q 14.890625 38.140625 10.796875 36.28125 
z
" id="DejaVuSans-53"/>
      </defs>
      <g transform="translate(114.734375 411.875788)scale(0.1 -0.1)">
       <use xlink:href="#DejaVuSans-48"/>
       <use x="63.623047" xlink:href="#DejaVuSans-46"/>
       <use x="95.410156" xlink:href="#DejaVuSans-48"/>
       <use x="159.033203" xlink:href="#DejaVuSans-53"/>
      </g>
     </g>
    </g>
    <g id="ytick_3">
     <g id="line2d_13">
      <g>
       <use style="stroke:#000000;stroke-width:0.8;" x="144" xlink:href="#mb8a68f7c49" y="319.614004"/>
      </g>
     </g>
     <g id="text_13">
      <!-- 0.10 -->
      <g transform="translate(114.734375 323.413223)scale(0.1 -0.1)">
       <use xlink:href="#DejaVuSans-48"/>
       <use x="63.623047" xlink:href="#DejaVuSans-46"/>
       <use x="95.410156" xlink:href="#DejaVuSans-49"/>
       <use x="159.033203" xlink:href="#DejaVuSans-48"/>
      </g>
     </g>
    </g>
    <g id="ytick_4">
     <g id="line2d_14">
      <g>
       <use style="stroke:#000000;stroke-width:0.8;" x="144" xlink:href="#mb8a68f7c49" y="231.151439"/>
      </g>
     </g>
     <g id="text_14">
      <!-- 0.15 -->
      <g transform="translate(114.734375 234.950657)scale(0.1 -0.1)">
       <use xlink:href="#DejaVuSans-48"/>
       <use x="63.623047" xlink:href="#DejaVuSans-46"/>
       <use x="95.410156" xlink:href="#DejaVuSans-49"/>
       <use x="159.033203" xlink:href="#DejaVuSans-53"/>
      </g>
     </g>
    </g>
    <g id="ytick_5">
     <g id="line2d_15">
      <g>
       <use style="stroke:#000000;stroke-width:0.8;" x="144" xlink:href="#mb8a68f7c49" y="142.688873"/>
      </g>
     </g>
     <g id="text_15">
      <!-- 0.20 -->
      <g transform="translate(114.734375 146.488092)scale(0.1 -0.1)">
       <use xlink:href="#DejaVuSans-48"/>
       <use x="63.623047" xlink:href="#DejaVuSans-46"/>
       <use x="95.410156" xlink:href="#DejaVuSans-50"/>
       <use x="159.033203" xlink:href="#DejaVuSans-48"/>
      </g>
     </g>
    </g>
   </g>
   <g id="line2d_16">
    <path clip-path="url(#p2b232d4703)" d="M 162.446281 466.623046 
L 163.369563 457.972691 
L 164.203495 414.478462 
L 166.020276 204.393962 
L 166.943558 131.055019 
L 167.837057 167.152273 
L 168.760339 222.500149 
L 170.577119 397.609111 
L 171.500401 458.914285 
L 172.3939 468.890411 
L 173.317182 457.377705 
L 174.240464 456.007766 
L 175.074396 427.128478 
L 176.891177 228.254557 
L 177.814459 154.599696 
L 178.707958 132.873307 
L 179.63124 204.289569 
L 181.44802 403.622334 
L 182.371302 468.472288 
L 183.264801 482.806292 
L 184.188083 455.74641 
L 185.111365 447.80648 
L 185.945297 417.750004 
L 187.762078 245.17069 
L 188.68536 106.890695 
L 189.578859 123.260136 
L 190.502141 206.865178 
L 191.425423 324.653097 
L 192.318921 394.827905 
L 193.242203 447.105046 
L 194.135702 460.258376 
L 195.058984 466.785018 
L 195.982266 463.292873 
L 196.845982 416.055306 
L 198.662762 244.485145 
L 199.586044 108.481332 
L 200.479543 163.781479 
L 201.402825 388.192295 
L 202.326107 371.671198 
L 203.219606 410.980789 
L 204.142888 480.708565 
L 205.036386 481.306245 
L 205.959668 458.632055 
L 206.88295 460.494269 
L 207.716883 412.765131 
L 208.640165 280.446005 
L 209.533663 172.80556 
L 210.456945 138.053388 
L 211.350444 180.008231 
L 212.273726 275.511411 
L 213.197008 305.771121 
L 214.090507 395.203444 
L 215.013789 449.346456 
L 215.907287 452.045228 
L 216.83057 459.223507 
L 217.753852 441.299808 
L 218.587784 418.802185 
L 219.511066 313.102581 
L 220.404564 232.212698 
L 221.327846 161.709533 
L 222.221345 120.722956 
L 223.144627 192.905939 
L 224.961408 387.565772 
L 225.88469 448.448725 
L 226.778189 471.462215 
L 227.701471 460.99358 
L 228.624753 453.054397 
L 229.458685 411.043066 
L 230.381967 307.889717 
L 231.275465 177.628719 
L 232.198747 127.174019 
L 234.015528 267.90849 
L 234.93881 275.351849 
L 235.832309 390.317193 
L 236.755591 436.557201 
L 237.64909 463.701955 
L 238.572372 466.834833 
L 240.359369 409.955884 
L 241.282651 307.139836 
L 242.17615 153.705166 
L 243.099432 122.516167 
L 243.99293 316.269572 
L 244.916212 333.452317 
L 245.839494 311.950507 
L 246.732993 397.823477 
L 247.656275 439.933866 
L 248.549774 459.567425 
L 249.473056 460.922373 
L 251.23027 404.624711 
L 252.153552 327.556051 
L 253.047051 215.852325 
L 253.970333 155.578889 
L 254.863832 145.746038 
L 255.787114 195.333744 
L 257.603894 406.765211 
L 258.527176 447.536139 
L 259.420675 451.577042 
L 260.343957 473.619709 
L 261.267239 447.301484 
L 262.101171 433.345143 
L 263.024453 303.862756 
L 264.841234 136.102774 
L 265.734733 165.640321 
L 267.581297 303.898379 
L 268.474795 390.470561 
L 269.398077 438.752958 
L 270.291576 466.078413 
L 271.214858 450.433417 
L 272.13814 456.376566 
L 272.972072 408.163047 
L 274.788853 197.348926 
L 275.712135 88.887273 
L 276.605634 145.30422 
L 277.528916 186.160796 
L 278.452198 307.961577 
L 279.345696 390.62196 
L 280.268978 452.165153 
L 281.162477 473.173451 
L 282.085759 464.924959 
L 283.009041 454.052751 
L 283.872756 415.577451 
L 284.796039 351.174978 
L 285.689537 190.751355 
L 286.612819 142.86479 
L 287.506318 207.387674 
L 288.4296 219.259256 
L 289.352882 287.908661 
L 290.246381 394.539306 
L 291.169663 444.520751 
L 292.063161 459.808371 
L 292.986443 455.879114 
L 293.909725 432.124643 
L 294.743658 425.427125 
L 295.66694 332.022836 
L 296.560438 216.893297 
L 297.48372 155.81863 
L 298.377219 123.485462 
L 299.300501 193.366855 
L 300.223783 312.192175 
L 301.117282 370.652637 
L 302.040564 439.396188 
L 302.934062 462.345451 
L 303.857344 460.81852 
L 304.780626 468.807597 
L 305.614559 429.514757 
L 307.431339 187.682811 
L 308.354621 140.642516 
L 309.24812 128.996957 
L 311.094684 274.592618 
L 311.988183 381.357881 
L 313.804963 479.772576 
L 314.728245 469.40716 
L 315.651527 429.84037 
L 316.48546 413.932692 
L 317.408742 334.710312 
L 319.225522 136.055311 
L 320.119021 132.688037 
L 321.042303 190.348166 
L 321.965585 322.133089 
L 322.859084 408.593696 
L 323.782366 447.169191 
L 324.675865 466.11406 
L 325.599147 474.762823 
L 326.522429 455.789082 
L 328.309426 340.39937 
L 329.202925 241.18166 
L 330.126207 176.446852 
L 331.019705 161.026412 
L 331.942987 190.846149 
L 332.866269 339.300638 
L 333.759768 401.358243 
L 334.68305 445.123833 
L 335.576549 465.734391 
L 336.499831 460.728426 
L 337.423113 457.056443 
L 338.257045 414.469619 
L 339.180327 334.148856 
L 340.073826 242.179503 
L 340.997108 123.969495 
L 341.890606 132.050487 
L 342.813888 245.300293 
L 343.73717 309.266619 
L 344.630669 397.24573 
L 345.553951 463.371653 
L 346.44745 469.202944 
L 347.370732 471.023083 
L 348.294014 469.321123 
L 349.127946 402.067859 
L 350.944727 171.71274 
L 351.868009 144.443303 
L 352.761507 161.622312 
L 353.68479 349.167235 
L 354.608072 387.508295 
L 355.50157 412.14232 
L 356.424852 459.360778 
L 357.318351 463.063218 
L 358.241633 473.516647 
L 359.164915 459.807636 
L 359.998847 407.658188 
L 360.922129 309.878578 
L 361.815628 192.99389 
L 362.73891 117.989512 
L 363.632409 107.616263 
L 365.478973 294.449502 
L 366.372471 403.637056 
L 367.295753 454.129563 
L 368.189252 468.184867 
L 369.112534 454.714908 
L 370.035816 444.528328 
L 370.899531 411.302553 
L 371.822813 331.544898 
L 372.716312 224.020587 
L 373.639594 132.871514 
L 374.533093 158.217007 
L 375.456375 195.061253 
L 377.273156 380.138929 
L 378.196438 444.428253 
L 380.013218 475.501955 
L 380.9365 452.447188 
L 381.770432 419.12463 
L 382.693714 289.317349 
L 383.587213 200.065796 
L 384.510495 140.24195 
L 385.403994 125.941333 
L 386.327276 200.60925 
L 387.250558 303.859568 
L 388.144057 383.160807 
L 389.067339 438.567003 
L 389.960837 461.901738 
L 390.884119 461.51784 
L 391.807401 437.402142 
L 392.641334 426.735481 
L 394.458114 228.425429 
L 395.381396 135.728183 
L 396.274895 117.280883 
L 397.198177 190.43346 
L 398.121459 289.612758 
L 399.014958 413.807531 
L 399.93824 451.036956 
L 400.831738 465.224285 
L 401.75502 443.57606 
L 402.678302 439.189134 
L 403.512235 419.70051 
L 404.435517 322.808321 
L 405.329015 265.93622 
L 406.252297 162.393749 
L 407.145796 178.938063 
L 408.99236 426.498355 
L 409.885859 418.103579 
L 410.809141 444.240177 
L 411.702639 462.009569 
L 412.625921 445.889454 
L 413.549203 464.693384 
L 414.412919 420.074653 
L 415.336201 283.963623 
L 417.152982 144.060043 
L 418.04648 153.584366 
L 418.969762 213.46906 
L 419.893044 312.263935 
L 420.786543 430.643697 
L 421.709825 462.323802 
L 422.603324 463.517678 
L 423.526606 462.220391 
L 424.449888 454.076707 
L 425.28382 418.577706 
L 426.207102 307.044212 
L 427.100601 229.500395 
L 428.023883 109.376326 
L 428.917381 125.098452 
L 429.840663 292.880488 
L 430.763945 414.218667 
L 431.657444 430.589474 
L 432.580726 442.152794 
L 433.474225 468.489804 
L 434.397507 468.489696 
L 435.320789 413.925451 
L 436.154721 414.783852 
L 437.078003 293.857091 
L 437.971502 217.326146 
L 438.894784 114.750944 
L 439.788282 145.770915 
L 440.711564 360.789162 
L 441.634846 428.649642 
L 442.528345 392.291747 
L 443.451627 462.03859 
L 444.345126 472.374481 
L 445.268408 450.14801 
L 446.19169 450.478992 
L 447.025622 399.520092 
L 447.948904 309.352794 
L 448.842403 139.10004 
L 449.765685 93.381842 
L 451.582465 349.600799 
L 452.505747 301.503821 
L 453.399246 394.629607 
L 454.322528 453.377507 
L 455.216027 466.353922 
L 456.139309 461.293016 
L 457.062591 451.950862 
L 457.926306 415.667346 
L 459.743087 189.695071 
L 460.666369 115.804405 
L 461.559868 111.421967 
L 463.406432 318.57196 
L 464.299931 387.41938 
L 465.223213 440.833602 
L 466.116711 462.960513 
L 467.039993 460.101907 
L 467.963275 454.545478 
L 468.797207 414.141892 
L 469.720489 308.869707 
L 470.613988 179.288375 
L 471.53727 144.745787 
L 472.430769 159.976041 
L 473.354051 200.840953 
L 474.277333 290.78398 
L 475.170832 413.658615 
L 476.094114 447.481597 
L 476.987612 458.38107 
L 477.910894 459.844159 
L 478.834176 453.058802 
L 479.668108 423.288294 
L 480.59139 278.91703 
L 482.408171 124.614286 
L 483.30167 106.946794 
L 484.224952 168.602645 
L 485.148234 294.773193 
L 486.041733 391.466336 
L 486.965015 458.178533 
L 487.858513 453.842371 
L 488.781795 450.561666 
L 489.705077 468.757622 
L 490.53901 426.267698 
L 491.462292 338.189401 
L 492.35579 202.888686 
L 493.279072 117.354486 
L 494.172571 105.341543 
L 495.095853 164.052309 
L 496.019135 287.855701 
L 496.912634 381.500046 
L 497.835916 441.539067 
L 498.729414 484.232727 
L 499.652696 467.252691 
L 500.575978 456.14776 
L 501.439694 360.514538 
L 502.362976 275.558392 
L 503.256475 164.714404 
L 504.179757 93.718935 
L 505.073255 207.655149 
L 505.996537 294.638226 
L 506.919819 413.595192 
L 507.813318 412.39504 
L 508.7366 454.645113 
L 509.630099 477.959062 
L 510.553381 470.711213 
L 512.310595 413.97553 
L 513.233877 339.200115 
L 514.127376 176.915108 
L 515.050658 128.618711 
L 515.944156 152.281498 
L 516.867438 208.254536 
L 517.79072 337.4314 
L 518.684219 408.063711 
L 520.501 466.048252 
L 521.424282 456.135251 
L 522.347564 443.405201 
L 523.181496 435.340704 
L 524.998277 194.84134 
L 525.921559 134.07125 
L 526.815057 125.585541 
L 527.738339 188.925395 
L 529.55512 388.444774 
L 530.478402 448.20232 
L 531.371901 478.083597 
L 531.371901 478.083597 
" style="fill:none;stroke:#1f77b4;stroke-linecap:square;stroke-width:1.5;"/>
   </g>
   <g id="patch_3">
    <path d="M 144 504 
L 144 69.12 
" style="fill:none;stroke:#000000;stroke-linecap:square;stroke-linejoin:miter;stroke-width:0.8;"/>
   </g>
   <g id="patch_4">
    <path d="M 549.818182 504 
L 549.818182 69.12 
" style="fill:none;stroke:#000000;stroke-linecap:square;stroke-linejoin:miter;stroke-width:0.8;"/>
   </g>
   <g id="patch_5">
    <path d="M 144 504 
L 549.818182 504 
" style="fill:none;stroke:#000000;stroke-linecap:square;stroke-linejoin:miter;stroke-width:0.8;"/>
   </g>
   <g id="patch_6">
    <path d="M 144 69.12 
L 549.818182 69.12 
" style="fill:none;stroke:#000000;stroke-linecap:square;stroke-linejoin:miter;stroke-width:0.8;"/>
   </g>
   <g id="text_16">
    <!-- Monthly Evaporation -->
    <defs>
     <path d="M 9.8125 72.90625 
L 24.515625 72.90625 
L 43.109375 23.296875 
L 61.8125 72.90625 
L 76.515625 72.90625 
L 76.515625 0 
L 66.890625 0 
L 66.890625 64.015625 
L 48.09375 14.015625 
L 38.1875 14.015625 
L 19.390625 64.015625 
L 19.390625 0 
L 9.8125 0 
z
" id="DejaVuSans-77"/>
     <path d="M 30.609375 48.390625 
Q 23.390625 48.390625 19.1875 42.75 
Q 14.984375 37.109375 14.984375 27.296875 
Q 14.984375 17.484375 19.15625 11.84375 
Q 23.34375 6.203125 30.609375 6.203125 
Q 37.796875 6.203125 41.984375 11.859375 
Q 46.1875 17.53125 46.1875 27.296875 
Q 46.1875 37.015625 41.984375 42.703125 
Q 37.796875 48.390625 30.609375 48.390625 
z
M 30.609375 56 
Q 42.328125 56 49.015625 48.375 
Q 55.71875 40.765625 55.71875 27.296875 
Q 55.71875 13.875 49.015625 6.21875 
Q 42.328125 -1.421875 30.609375 -1.421875 
Q 18.84375 -1.421875 12.171875 6.21875 
Q 5.515625 13.875 5.515625 27.296875 
Q 5.515625 40.765625 12.171875 48.375 
Q 18.84375 56 30.609375 56 
z
" id="DejaVuSans-111"/>
     <path d="M 54.890625 33.015625 
L 54.890625 0 
L 45.90625 0 
L 45.90625 32.71875 
Q 45.90625 40.484375 42.875 44.328125 
Q 39.84375 48.1875 33.796875 48.1875 
Q 26.515625 48.1875 22.3125 43.546875 
Q 18.109375 38.921875 18.109375 30.90625 
L 18.109375 0 
L 9.078125 0 
L 9.078125 54.6875 
L 18.109375 54.6875 
L 18.109375 46.1875 
Q 21.34375 51.125 25.703125 53.5625 
Q 30.078125 56 35.796875 56 
Q 45.21875 56 50.046875 50.171875 
Q 54.890625 44.34375 54.890625 33.015625 
z
" id="DejaVuSans-110"/>
     <path d="M 18.3125 70.21875 
L 18.3125 54.6875 
L 36.8125 54.6875 
L 36.8125 47.703125 
L 18.3125 47.703125 
L 18.3125 18.015625 
Q 18.3125 11.328125 20.140625 9.421875 
Q 21.96875 7.515625 27.59375 7.515625 
L 36.8125 7.515625 
L 36.8125 0 
L 27.59375 0 
Q 17.1875 0 13.234375 3.875 
Q 9.28125 7.765625 9.28125 18.015625 
L 9.28125 47.703125 
L 2.6875 47.703125 
L 2.6875 54.6875 
L 9.28125 54.6875 
L 9.28125 70.21875 
z
" id="DejaVuSans-116"/>
     <path d="M 54.890625 33.015625 
L 54.890625 0 
L 45.90625 0 
L 45.90625 32.71875 
Q 45.90625 40.484375 42.875 44.328125 
Q 39.84375 48.1875 33.796875 48.1875 
Q 26.515625 48.1875 22.3125 43.546875 
Q 18.109375 38.921875 18.109375 30.90625 
L 18.109375 0 
L 9.078125 0 
L 9.078125 75.984375 
L 18.109375 75.984375 
L 18.109375 46.1875 
Q 21.34375 51.125 25.703125 53.5625 
Q 30.078125 56 35.796875 56 
Q 45.21875 56 50.046875 50.171875 
Q 54.890625 44.34375 54.890625 33.015625 
z
" id="DejaVuSans-104"/>
     <path d="M 9.421875 75.984375 
L 18.40625 75.984375 
L 18.40625 0 
L 9.421875 0 
z
" id="DejaVuSans-108"/>
     <path d="M 32.171875 -5.078125 
Q 28.375 -14.84375 24.75 -17.8125 
Q 21.140625 -20.796875 15.09375 -20.796875 
L 7.90625 -20.796875 
L 7.90625 -13.28125 
L 13.1875 -13.28125 
Q 16.890625 -13.28125 18.9375 -11.515625 
Q 21 -9.765625 23.484375 -3.21875 
L 25.09375 0.875 
L 2.984375 54.6875 
L 12.5 54.6875 
L 29.59375 11.921875 
L 46.6875 54.6875 
L 56.203125 54.6875 
z
" id="DejaVuSans-121"/>
     <path id="DejaVuSans-32"/>
     <path d="M 9.8125 72.90625 
L 55.90625 72.90625 
L 55.90625 64.59375 
L 19.671875 64.59375 
L 19.671875 43.015625 
L 54.390625 43.015625 
L 54.390625 34.71875 
L 19.671875 34.71875 
L 19.671875 8.296875 
L 56.78125 8.296875 
L 56.78125 0 
L 9.8125 0 
z
" id="DejaVuSans-69"/>
     <path d="M 2.984375 54.6875 
L 12.5 54.6875 
L 29.59375 8.796875 
L 46.6875 54.6875 
L 56.203125 54.6875 
L 35.6875 0 
L 23.484375 0 
z
" id="DejaVuSans-118"/>
     <path d="M 34.28125 27.484375 
Q 23.390625 27.484375 19.1875 25 
Q 14.984375 22.515625 14.984375 16.5 
Q 14.984375 11.71875 18.140625 8.90625 
Q 21.296875 6.109375 26.703125 6.109375 
Q 34.1875 6.109375 38.703125 11.40625 
Q 43.21875 16.703125 43.21875 25.484375 
L 43.21875 27.484375 
z
M 52.203125 31.203125 
L 52.203125 0 
L 43.21875 0 
L 43.21875 8.296875 
Q 40.140625 3.328125 35.546875 0.953125 
Q 30.953125 -1.421875 24.3125 -1.421875 
Q 15.921875 -1.421875 10.953125 3.296875 
Q 6 8.015625 6 15.921875 
Q 6 25.140625 12.171875 29.828125 
Q 18.359375 34.515625 30.609375 34.515625 
L 43.21875 34.515625 
L 43.21875 35.40625 
Q 43.21875 41.609375 39.140625 45 
Q 35.0625 48.390625 27.6875 48.390625 
Q 23 48.390625 18.546875 47.265625 
Q 14.109375 46.140625 10.015625 43.890625 
L 10.015625 52.203125 
Q 14.9375 54.109375 19.578125 55.046875 
Q 24.21875 56 28.609375 56 
Q 40.484375 56 46.34375 49.84375 
Q 52.203125 43.703125 52.203125 31.203125 
z
" id="DejaVuSans-97"/>
     <path d="M 18.109375 8.203125 
L 18.109375 -20.796875 
L 9.078125 -20.796875 
L 9.078125 54.6875 
L 18.109375 54.6875 
L 18.109375 46.390625 
Q 20.953125 51.265625 25.265625 53.625 
Q 29.59375 56 35.59375 56 
Q 45.5625 56 51.78125 48.09375 
Q 58.015625 40.1875 58.015625 27.296875 
Q 58.015625 14.40625 51.78125 6.484375 
Q 45.5625 -1.421875 35.59375 -1.421875 
Q 29.59375 -1.421875 25.265625 0.953125 
Q 20.953125 3.328125 18.109375 8.203125 
z
M 48.6875 27.296875 
Q 48.6875 37.203125 44.609375 42.84375 
Q 40.53125 48.484375 33.40625 48.484375 
Q 26.265625 48.484375 22.1875 42.84375 
Q 18.109375 37.203125 18.109375 27.296875 
Q 18.109375 17.390625 22.1875 11.75 
Q 26.265625 6.109375 33.40625 6.109375 
Q 40.53125 6.109375 44.609375 11.75 
Q 48.6875 17.390625 48.6875 27.296875 
z
" id="DejaVuSans-112"/>
     <path d="M 41.109375 46.296875 
Q 39.59375 47.171875 37.8125 47.578125 
Q 36.03125 48 33.890625 48 
Q 26.265625 48 22.1875 43.046875 
Q 18.109375 38.09375 18.109375 28.8125 
L 18.109375 0 
L 9.078125 0 
L 9.078125 54.6875 
L 18.109375 54.6875 
L 18.109375 46.1875 
Q 20.953125 51.171875 25.484375 53.578125 
Q 30.03125 56 36.53125 56 
Q 37.453125 56 38.578125 55.875 
Q 39.703125 55.765625 41.0625 55.515625 
z
" id="DejaVuSans-114"/>
     <path d="M 9.421875 54.6875 
L 18.40625 54.6875 
L 18.40625 0 
L 9.421875 0 
z
M 9.421875 75.984375 
L 18.40625 75.984375 
L 18.40625 64.59375 
L 9.421875 64.59375 
z
" id="DejaVuSans-105"/>
    </defs>
    <g transform="translate(284.842841 63.12)scale(0.12 -0.12)">
     <use xlink:href="#DejaVuSans-77"/>
     <use x="86.279297" xlink:href="#DejaVuSans-111"/>
     <use x="147.460938" xlink:href="#DejaVuSans-110"/>
     <use x="210.839844" xlink:href="#DejaVuSans-116"/>
     <use x="250.048828" xlink:href="#DejaVuSans-104"/>
     <use x="313.427734" xlink:href="#DejaVuSans-108"/>
     <use x="341.210938" xlink:href="#DejaVuSans-121"/>
     <use x="400.390625" xlink:href="#DejaVuSans-32"/>
     <use x="432.177734" xlink:href="#DejaVuSans-69"/>
     <use x="495.361328" xlink:href="#DejaVuSans-118"/>
     <use x="554.541016" xlink:href="#DejaVuSans-97"/>
     <use x="615.820312" xlink:href="#DejaVuSans-112"/>
     <use x="679.296875" xlink:href="#DejaVuSans-111"/>
     <use x="740.478516" xlink:href="#DejaVuSans-114"/>
     <use x="781.591797" xlink:href="#DejaVuSans-97"/>
     <use x="842.871094" xlink:href="#DejaVuSans-116"/>
     <use x="882.080078" xlink:href="#DejaVuSans-105"/>
     <use x="909.863281" xlink:href="#DejaVuSans-111"/>
     <use x="971.044922" xlink:href="#DejaVuSans-110"/>
    </g>
   </g>
  </g>
  <g id="axes_2">
   <g id="patch_7">
    <path d="M 630.981818 504 
L 1036.8 504 
L 1036.8 69.12 
L 630.981818 69.12 
z
" style="fill:#ffffff;"/>
   </g>
   <g id="matplotlib.axis_3">
    <g id="xtick_11">
     <g id="line2d_17">
      <g>
       <use style="stroke:#000000;stroke-width:0.8;" x="638.527415" xlink:href="#mee93acd882" y="504"/>
      </g>
     </g>
     <g id="text_17">
      <!-- 1980 -->
      <g transform="translate(625.802415 518.598438)scale(0.1 -0.1)">
       <use xlink:href="#DejaVuSans-49"/>
       <use x="63.623047" xlink:href="#DejaVuSans-57"/>
       <use x="127.246094" xlink:href="#DejaVuSans-56"/>
       <use x="190.869141" xlink:href="#DejaVuSans-48"/>
      </g>
     </g>
    </g>
    <g id="xtick_12">
     <g id="line2d_18">
      <g>
       <use style="stroke:#000000;stroke-width:0.8;" x="682.040802" xlink:href="#mee93acd882" y="504"/>
      </g>
     </g>
     <g id="text_18">
      <!-- 1984 -->
      <g transform="translate(669.315802 518.598438)scale(0.1 -0.1)">
       <use xlink:href="#DejaVuSans-49"/>
       <use x="63.623047" xlink:href="#DejaVuSans-57"/>
       <use x="127.246094" xlink:href="#DejaVuSans-56"/>
       <use x="190.869141" xlink:href="#DejaVuSans-52"/>
      </g>
     </g>
    </g>
    <g id="xtick_13">
     <g id="line2d_19">
      <g>
       <use style="stroke:#000000;stroke-width:0.8;" x="725.55419" xlink:href="#mee93acd882" y="504"/>
      </g>
     </g>
     <g id="text_19">
      <!-- 1988 -->
      <g transform="translate(712.82919 518.598438)scale(0.1 -0.1)">
       <use xlink:href="#DejaVuSans-49"/>
       <use x="63.623047" xlink:href="#DejaVuSans-57"/>
       <use x="127.246094" xlink:href="#DejaVuSans-56"/>
       <use x="190.869141" xlink:href="#DejaVuSans-56"/>
      </g>
     </g>
    </g>
    <g id="xtick_14">
     <g id="line2d_20">
      <g>
       <use style="stroke:#000000;stroke-width:0.8;" x="769.067577" xlink:href="#mee93acd882" y="504"/>
      </g>
     </g>
     <g id="text_20">
      <!-- 1992 -->
      <g transform="translate(756.342577 518.598438)scale(0.1 -0.1)">
       <use xlink:href="#DejaVuSans-49"/>
       <use x="63.623047" xlink:href="#DejaVuSans-57"/>
       <use x="127.246094" xlink:href="#DejaVuSans-57"/>
       <use x="190.869141" xlink:href="#DejaVuSans-50"/>
      </g>
     </g>
    </g>
    <g id="xtick_15">
     <g id="line2d_21">
      <g>
       <use style="stroke:#000000;stroke-width:0.8;" x="812.580965" xlink:href="#mee93acd882" y="504"/>
      </g>
     </g>
     <g id="text_21">
      <!-- 1996 -->
      <g transform="translate(799.855965 518.598438)scale(0.1 -0.1)">
       <use xlink:href="#DejaVuSans-49"/>
       <use x="63.623047" xlink:href="#DejaVuSans-57"/>
       <use x="127.246094" xlink:href="#DejaVuSans-57"/>
       <use x="190.869141" xlink:href="#DejaVuSans-54"/>
      </g>
     </g>
    </g>
    <g id="xtick_16">
     <g id="line2d_22">
      <g>
       <use style="stroke:#000000;stroke-width:0.8;" x="856.094352" xlink:href="#mee93acd882" y="504"/>
      </g>
     </g>
     <g id="text_22">
      <!-- 2000 -->
      <g transform="translate(843.369352 518.598438)scale(0.1 -0.1)">
       <use xlink:href="#DejaVuSans-50"/>
       <use x="63.623047" xlink:href="#DejaVuSans-48"/>
       <use x="127.246094" xlink:href="#DejaVuSans-48"/>
       <use x="190.869141" xlink:href="#DejaVuSans-48"/>
      </g>
     </g>
    </g>
    <g id="xtick_17">
     <g id="line2d_23">
      <g>
       <use style="stroke:#000000;stroke-width:0.8;" x="899.60774" xlink:href="#mee93acd882" y="504"/>
      </g>
     </g>
     <g id="text_23">
      <!-- 2004 -->
      <g transform="translate(886.88274 518.598438)scale(0.1 -0.1)">
       <use xlink:href="#DejaVuSans-50"/>
       <use x="63.623047" xlink:href="#DejaVuSans-48"/>
       <use x="127.246094" xlink:href="#DejaVuSans-48"/>
       <use x="190.869141" xlink:href="#DejaVuSans-52"/>
      </g>
     </g>
    </g>
    <g id="xtick_18">
     <g id="line2d_24">
      <g>
       <use style="stroke:#000000;stroke-width:0.8;" x="943.121127" xlink:href="#mee93acd882" y="504"/>
      </g>
     </g>
     <g id="text_24">
      <!-- 2008 -->
      <g transform="translate(930.396127 518.598438)scale(0.1 -0.1)">
       <use xlink:href="#DejaVuSans-50"/>
       <use x="63.623047" xlink:href="#DejaVuSans-48"/>
       <use x="127.246094" xlink:href="#DejaVuSans-48"/>
       <use x="190.869141" xlink:href="#DejaVuSans-56"/>
      </g>
     </g>
    </g>
    <g id="xtick_19">
     <g id="line2d_25">
      <g>
       <use style="stroke:#000000;stroke-width:0.8;" x="986.634515" xlink:href="#mee93acd882" y="504"/>
      </g>
     </g>
     <g id="text_25">
      <!-- 2012 -->
      <g transform="translate(973.909515 518.598438)scale(0.1 -0.1)">
       <use xlink:href="#DejaVuSans-50"/>
       <use x="63.623047" xlink:href="#DejaVuSans-48"/>
       <use x="127.246094" xlink:href="#DejaVuSans-49"/>
       <use x="190.869141" xlink:href="#DejaVuSans-50"/>
      </g>
     </g>
    </g>
    <g id="xtick_20">
     <g id="line2d_26">
      <g>
       <use style="stroke:#000000;stroke-width:0.8;" x="1030.147902" xlink:href="#mee93acd882" y="504"/>
      </g>
     </g>
     <g id="text_26">
      <!-- 2016 -->
      <g transform="translate(1017.422902 518.598438)scale(0.1 -0.1)">
       <use xlink:href="#DejaVuSans-50"/>
       <use x="63.623047" xlink:href="#DejaVuSans-48"/>
       <use x="127.246094" xlink:href="#DejaVuSans-49"/>
       <use x="190.869141" xlink:href="#DejaVuSans-54"/>
      </g>
     </g>
    </g>
   </g>
   <g id="matplotlib.axis_4">
    <g id="ytick_6">
     <g id="line2d_27">
      <g>
       <use style="stroke:#000000;stroke-width:0.8;" x="630.981818" xlink:href="#mb8a68f7c49" y="496.539135"/>
      </g>
     </g>
    </g>
    <g id="ytick_7">
     <g id="line2d_28">
      <g>
       <use style="stroke:#000000;stroke-width:0.8;" x="630.981818" xlink:href="#mb8a68f7c49" y="408.07657"/>
      </g>
     </g>
    </g>
    <g id="ytick_8">
     <g id="line2d_29">
      <g>
       <use style="stroke:#000000;stroke-width:0.8;" x="630.981818" xlink:href="#mb8a68f7c49" y="319.614004"/>
      </g>
     </g>
    </g>
    <g id="ytick_9">
     <g id="line2d_30">
      <g>
       <use style="stroke:#000000;stroke-width:0.8;" x="630.981818" xlink:href="#mb8a68f7c49" y="231.151439"/>
      </g>
     </g>
    </g>
    <g id="ytick_10">
     <g id="line2d_31">
      <g>
       <use style="stroke:#000000;stroke-width:0.8;" x="630.981818" xlink:href="#mb8a68f7c49" y="142.688873"/>
      </g>
     </g>
    </g>
   </g>
   <g id="line2d_32">
    <path clip-path="url(#pd570370234)" d="M 649.428099 461.508706 
L 650.351381 449.909269 
L 651.185313 415.610001 
L 653.002094 206.136853 
L 653.925376 131.413004 
L 654.818875 152.876866 
L 657.558937 399.531933 
L 658.482219 450.015655 
L 659.375718 467.146899 
L 660.299 461.508706 
L 661.222282 449.909269 
L 662.056214 415.610001 
L 663.872995 206.136853 
L 664.796277 131.413004 
L 665.689776 152.876866 
L 668.429839 399.531933 
L 669.353121 450.015655 
L 670.246619 467.146899 
L 671.169901 461.508706 
L 672.093183 449.909269 
L 672.927115 415.610001 
L 674.743896 206.136853 
L 675.667178 131.413004 
L 676.560677 152.876866 
L 679.30074 399.531933 
L 680.224022 450.015655 
L 681.11752 467.146899 
L 682.040802 461.508706 
L 682.964084 449.909269 
L 683.8278 415.610001 
L 685.64458 206.136853 
L 686.567862 131.413004 
L 687.461361 152.876866 
L 690.201424 399.531933 
L 691.124706 450.015655 
L 692.018205 467.146899 
L 692.941487 461.508706 
L 693.864769 449.909269 
L 694.698701 415.610001 
L 696.515482 206.136853 
L 697.438764 131.413004 
L 698.332262 152.876866 
L 701.072325 399.531933 
L 701.995607 450.015655 
L 702.889106 467.146899 
L 703.812388 461.508706 
L 704.73567 449.909269 
L 705.569602 415.610001 
L 707.386383 206.136853 
L 708.309665 131.413004 
L 709.203163 152.876866 
L 711.943226 399.531933 
L 712.866508 450.015655 
L 713.760007 467.146899 
L 714.683289 461.508706 
L 715.606571 449.909269 
L 716.440503 415.610001 
L 718.257284 206.136853 
L 719.180566 131.413004 
L 720.074064 152.876866 
L 722.814127 399.531933 
L 723.737409 450.015655 
L 724.630908 467.146899 
L 725.55419 461.508706 
L 726.477472 449.909269 
L 727.341187 415.610001 
L 729.157968 206.136853 
L 730.08125 131.413004 
L 730.974749 152.876866 
L 733.714811 399.531933 
L 734.638093 450.015655 
L 735.531592 467.146899 
L 736.454874 461.508706 
L 737.378156 449.909269 
L 738.212088 415.610001 
L 740.028869 206.136853 
L 740.952151 131.413004 
L 741.84565 152.876866 
L 744.585712 399.531933 
L 745.508994 450.015655 
L 746.402493 467.146899 
L 747.325775 461.508706 
L 748.249057 449.909269 
L 749.082989 415.610001 
L 750.89977 206.136853 
L 751.823052 131.413004 
L 752.716551 152.876866 
L 755.456613 399.531933 
L 756.379895 450.015655 
L 757.273394 467.146899 
L 758.196676 461.508706 
L 759.119958 449.909269 
L 759.95389 415.610001 
L 761.770671 206.136853 
L 762.693953 131.413004 
L 763.587452 152.876866 
L 766.327515 399.531933 
L 767.250797 450.015655 
L 768.144295 467.146899 
L 769.067577 461.508706 
L 769.990859 449.909269 
L 770.854575 415.610001 
L 772.671355 206.136853 
L 773.594637 131.413004 
L 774.488136 152.876866 
L 777.228199 399.531933 
L 778.151481 450.015655 
L 779.04498 467.146899 
L 779.968262 461.508706 
L 780.891544 449.909269 
L 781.725476 415.610001 
L 783.542256 206.136853 
L 784.465538 131.413004 
L 785.359037 152.876866 
L 788.0991 399.531933 
L 789.022382 450.015655 
L 789.915881 467.146899 
L 790.839163 461.508706 
L 791.762445 449.909269 
L 792.596377 415.610001 
L 794.413157 206.136853 
L 795.336439 131.413004 
L 796.229938 152.876866 
L 798.970001 399.531933 
L 799.893283 450.015655 
L 800.786782 467.146899 
L 801.710064 461.508706 
L 802.633346 449.909269 
L 803.467278 415.610001 
L 805.284059 206.136853 
L 806.207341 131.413004 
L 807.100839 152.876866 
L 809.840902 399.531933 
L 810.764184 450.015655 
L 811.657683 467.146899 
L 812.580965 461.508706 
L 813.504247 449.909269 
L 814.367962 415.610001 
L 816.184743 206.136853 
L 817.108025 131.413004 
L 818.001524 152.876866 
L 820.741586 399.531933 
L 821.664868 450.015655 
L 822.558367 467.146899 
L 823.481649 461.508706 
L 824.404931 449.909269 
L 825.238863 415.610001 
L 827.055644 206.136853 
L 827.978926 131.413004 
L 828.872425 152.876866 
L 831.612487 399.531933 
L 832.535769 450.015655 
L 833.429268 467.146899 
L 834.35255 461.508706 
L 835.275832 449.909269 
L 836.109764 415.610001 
L 837.926545 206.136853 
L 838.849827 131.413004 
L 839.743326 152.876866 
L 842.483388 399.531933 
L 843.40667 450.015655 
L 844.300169 467.146899 
L 845.223451 461.508706 
L 846.146733 449.909269 
L 846.980665 415.610001 
L 848.797446 206.136853 
L 849.720728 131.413004 
L 850.614227 152.876866 
L 853.354289 399.531933 
L 854.277571 450.015655 
L 855.17107 467.146899 
L 856.094352 461.508706 
L 857.017634 449.909269 
L 857.88135 415.610001 
L 859.69813 206.136853 
L 860.621412 131.413004 
L 861.514911 152.876866 
L 864.254974 399.531933 
L 865.178256 450.015655 
L 866.071755 467.146899 
L 866.995037 461.508706 
L 867.918319 449.909269 
L 868.752251 415.610001 
L 870.569031 206.136853 
L 871.492313 131.413004 
L 872.385812 152.876866 
L 875.125875 399.531933 
L 876.049157 450.015655 
L 876.942656 467.146899 
L 877.865938 461.508706 
L 878.78922 449.909269 
L 879.623152 415.610001 
L 881.439932 206.136853 
L 882.363214 131.413004 
L 883.256713 152.876866 
L 885.996776 399.531933 
L 886.920058 450.015655 
L 887.813557 467.146899 
L 888.736839 461.508706 
L 889.660121 449.909269 
L 890.494053 415.610001 
L 892.310833 206.136853 
L 893.234115 131.413004 
L 894.127614 152.876866 
L 896.867677 399.531933 
L 897.790959 450.015655 
L 898.684458 467.146899 
L 899.60774 461.508706 
L 900.531022 449.909269 
L 901.394737 415.610001 
L 903.211518 206.136853 
L 904.1348 131.413004 
L 905.028299 152.876866 
L 907.768361 399.531933 
L 908.691643 450.015655 
L 909.585142 467.146899 
L 910.508424 461.508706 
L 911.431706 449.909269 
L 912.265638 415.610001 
L 914.082419 206.136853 
L 915.005701 131.413004 
L 915.8992 152.876866 
L 918.639262 399.531933 
L 919.562544 450.015655 
L 920.456043 467.146899 
L 921.379325 461.508706 
L 922.302607 449.909269 
L 923.136539 415.610001 
L 924.95332 206.136853 
L 925.876602 131.413004 
L 926.770101 152.876866 
L 929.510163 399.531933 
L 930.433445 450.015655 
L 931.326944 467.146899 
L 932.250226 461.508706 
L 933.173508 449.909269 
L 934.00744 415.610001 
L 935.824221 206.136853 
L 936.747503 131.413004 
L 937.641002 152.876866 
L 940.381064 399.531933 
L 941.304346 450.015655 
L 942.197845 467.146899 
L 943.121127 461.508706 
L 944.044409 449.909269 
L 944.908125 415.610001 
L 946.724905 206.136853 
L 947.648187 131.413004 
L 948.541686 152.876866 
L 951.281749 399.531933 
L 952.205031 450.015655 
L 953.098529 467.146899 
L 954.021811 461.508706 
L 954.945093 449.909269 
L 955.779026 415.610001 
L 957.595806 206.136853 
L 958.519088 131.413004 
L 959.412587 152.876866 
L 962.15265 399.531933 
L 963.075932 450.015655 
L 963.96943 467.146899 
L 964.892713 461.508706 
L 965.815995 449.909269 
L 966.649927 415.610001 
L 968.466707 206.136853 
L 969.389989 131.413004 
L 970.283488 152.876866 
L 973.023551 399.531933 
L 973.946833 450.015655 
L 974.840332 467.146899 
L 975.763614 461.508706 
L 976.686896 449.909269 
L 977.520828 415.610001 
L 979.337608 206.136853 
L 980.26089 131.413004 
L 981.154389 152.876866 
L 983.894452 399.531933 
L 984.817734 450.015655 
L 985.711233 467.146899 
L 986.634515 461.508706 
L 987.557797 449.909269 
L 988.421512 415.610001 
L 990.238293 206.136853 
L 991.161575 131.413004 
L 992.055073 152.876866 
L 994.795136 399.531933 
L 995.718418 450.015655 
L 996.611917 467.146899 
L 997.535199 461.508706 
L 998.458481 449.909269 
L 999.292413 415.610001 
L 1001.109194 206.136853 
L 1002.032476 131.413004 
L 1002.925975 152.876866 
L 1005.666037 399.531933 
L 1006.589319 450.015655 
L 1007.482818 467.146899 
L 1008.4061 461.508706 
L 1009.329382 449.909269 
L 1010.163314 415.610001 
L 1011.980095 206.136853 
L 1012.903377 131.413004 
L 1013.796876 152.876866 
L 1016.536938 399.531933 
L 1017.46022 450.015655 
L 1018.353719 467.146899 
L 1018.353719 467.146899 
" style="fill:none;stroke:#1f77b4;stroke-linecap:square;stroke-width:1.5;"/>
   </g>
   <g id="patch_8">
    <path d="M 630.981818 504 
L 630.981818 69.12 
" style="fill:none;stroke:#000000;stroke-linecap:square;stroke-linejoin:miter;stroke-width:0.8;"/>
   </g>
   <g id="patch_9">
    <path d="M 1036.8 504 
L 1036.8 69.12 
" style="fill:none;stroke:#000000;stroke-linecap:square;stroke-linejoin:miter;stroke-width:0.8;"/>
   </g>
   <g id="patch_10">
    <path d="M 630.981818 504 
L 1036.8 504 
" style="fill:none;stroke:#000000;stroke-linecap:square;stroke-linejoin:miter;stroke-width:0.8;"/>
   </g>
   <g id="patch_11">
    <path d="M 630.981818 69.12 
L 1036.8 69.12 
" style="fill:none;stroke:#000000;stroke-linecap:square;stroke-linejoin:miter;stroke-width:0.8;"/>
   </g>
   <g id="text_27">
    <!-- Average Evaporation -->
    <defs>
     <path d="M 34.1875 63.1875 
L 20.796875 26.90625 
L 47.609375 26.90625 
z
M 28.609375 72.90625 
L 39.796875 72.90625 
L 67.578125 0 
L 57.328125 0 
L 50.6875 18.703125 
L 17.828125 18.703125 
L 11.1875 0 
L 0.78125 0 
z
" id="DejaVuSans-65"/>
     <path d="M 56.203125 29.59375 
L 56.203125 25.203125 
L 14.890625 25.203125 
Q 15.484375 15.921875 20.484375 11.0625 
Q 25.484375 6.203125 34.421875 6.203125 
Q 39.59375 6.203125 44.453125 7.46875 
Q 49.3125 8.734375 54.109375 11.28125 
L 54.109375 2.78125 
Q 49.265625 0.734375 44.1875 -0.34375 
Q 39.109375 -1.421875 33.890625 -1.421875 
Q 20.796875 -1.421875 13.15625 6.1875 
Q 5.515625 13.8125 5.515625 26.8125 
Q 5.515625 40.234375 12.765625 48.109375 
Q 20.015625 56 32.328125 56 
Q 43.359375 56 49.78125 48.890625 
Q 56.203125 41.796875 56.203125 29.59375 
z
M 47.21875 32.234375 
Q 47.125 39.59375 43.09375 43.984375 
Q 39.0625 48.390625 32.421875 48.390625 
Q 24.90625 48.390625 20.390625 44.140625 
Q 15.875 39.890625 15.1875 32.171875 
z
" id="DejaVuSans-101"/>
     <path d="M 45.40625 27.984375 
Q 45.40625 37.75 41.375 43.109375 
Q 37.359375 48.484375 30.078125 48.484375 
Q 22.859375 48.484375 18.828125 43.109375 
Q 14.796875 37.75 14.796875 27.984375 
Q 14.796875 18.265625 18.828125 12.890625 
Q 22.859375 7.515625 30.078125 7.515625 
Q 37.359375 7.515625 41.375 12.890625 
Q 45.40625 18.265625 45.40625 27.984375 
z
M 54.390625 6.78125 
Q 54.390625 -7.171875 48.1875 -13.984375 
Q 42 -20.796875 29.203125 -20.796875 
Q 24.46875 -20.796875 20.265625 -20.09375 
Q 16.0625 -19.390625 12.109375 -17.921875 
L 12.109375 -9.1875 
Q 16.0625 -11.328125 19.921875 -12.34375 
Q 23.78125 -13.375 27.78125 -13.375 
Q 36.625 -13.375 41.015625 -8.765625 
Q 45.40625 -4.15625 45.40625 5.171875 
L 45.40625 9.625 
Q 42.625 4.78125 38.28125 2.390625 
Q 33.9375 0 27.875 0 
Q 17.828125 0 11.671875 7.65625 
Q 5.515625 15.328125 5.515625 27.984375 
Q 5.515625 40.671875 11.671875 48.328125 
Q 17.828125 56 27.875 56 
Q 33.9375 56 38.28125 53.609375 
Q 42.625 51.21875 45.40625 46.390625 
L 45.40625 54.6875 
L 54.390625 54.6875 
z
" id="DejaVuSans-103"/>
    </defs>
    <g transform="translate(770.860909 63.12)scale(0.12 -0.12)">
     <use xlink:href="#DejaVuSans-65"/>
     <use x="68.330078" xlink:href="#DejaVuSans-118"/>
     <use x="127.509766" xlink:href="#DejaVuSans-101"/>
     <use x="189.033203" xlink:href="#DejaVuSans-114"/>
     <use x="230.146484" xlink:href="#DejaVuSans-97"/>
     <use x="291.425781" xlink:href="#DejaVuSans-103"/>
     <use x="354.902344" xlink:href="#DejaVuSans-101"/>
     <use x="416.425781" xlink:href="#DejaVuSans-32"/>
     <use x="448.212891" xlink:href="#DejaVuSans-69"/>
     <use x="511.396484" xlink:href="#DejaVuSans-118"/>
     <use x="570.576172" xlink:href="#DejaVuSans-97"/>
     <use x="631.855469" xlink:href="#DejaVuSans-112"/>
     <use x="695.332031" xlink:href="#DejaVuSans-111"/>
     <use x="756.513672" xlink:href="#DejaVuSans-114"/>
     <use x="797.626953" xlink:href="#DejaVuSans-97"/>
     <use x="858.90625" xlink:href="#DejaVuSans-116"/>
     <use x="898.115234" xlink:href="#DejaVuSans-105"/>
     <use x="925.898438" xlink:href="#DejaVuSans-111"/>
     <use x="987.080078" xlink:href="#DejaVuSans-110"/>
    </g>
   </g>
  </g>
  <g id="text_28">
   <!-- Kent, Michigan -->
   <defs>
    <path d="M 9.8125 72.90625 
L 19.671875 72.90625 
L 19.671875 42.09375 
L 52.390625 72.90625 
L 65.09375 72.90625 
L 28.90625 38.921875 
L 67.671875 0 
L 54.6875 0 
L 19.671875 35.109375 
L 19.671875 0 
L 9.8125 0 
z
" id="DejaVuSans-75"/>
    <path d="M 11.71875 12.40625 
L 22.015625 12.40625 
L 22.015625 4 
L 14.015625 -11.625 
L 7.71875 -11.625 
L 11.71875 4 
z
" id="DejaVuSans-44"/>
    <path d="M 48.78125 52.59375 
L 48.78125 44.1875 
Q 44.96875 46.296875 41.140625 47.34375 
Q 37.3125 48.390625 33.40625 48.390625 
Q 24.65625 48.390625 19.8125 42.84375 
Q 14.984375 37.3125 14.984375 27.296875 
Q 14.984375 17.28125 19.8125 11.734375 
Q 24.65625 6.203125 33.40625 6.203125 
Q 37.3125 6.203125 41.140625 7.25 
Q 44.96875 8.296875 48.78125 10.40625 
L 48.78125 2.09375 
Q 45.015625 0.34375 40.984375 -0.53125 
Q 36.96875 -1.421875 32.421875 -1.421875 
Q 20.0625 -1.421875 12.78125 6.34375 
Q 5.515625 14.109375 5.515625 27.296875 
Q 5.515625 40.671875 12.859375 48.328125 
Q 20.21875 56 33.015625 56 
Q 37.15625 56 41.109375 55.140625 
Q 45.0625 54.296875 48.78125 52.59375 
z
" id="DejaVuSans-99"/>
   </defs>
   <g transform="translate(531.509063 20.638125)scale(0.12 -0.12)">
    <use xlink:href="#DejaVuSans-75"/>
    <use x="65.498047" xlink:href="#DejaVuSans-101"/>
    <use x="127.021484" xlink:href="#DejaVuSans-110"/>
    <use x="190.400391" xlink:href="#DejaVuSans-116"/>
    <use x="229.609375" xlink:href="#DejaVuSans-44"/>
    <use x="261.396484" xlink:href="#DejaVuSans-32"/>
    <use x="293.183594" xlink:href="#DejaVuSans-77"/>
    <use x="379.462891" xlink:href="#DejaVuSans-105"/>
    <use x="407.246094" xlink:href="#DejaVuSans-99"/>
    <use x="462.226562" xlink:href="#DejaVuSans-104"/>
    <use x="525.605469" xlink:href="#DejaVuSans-105"/>
    <use x="553.388672" xlink:href="#DejaVuSans-103"/>
    <use x="616.865234" xlink:href="#DejaVuSans-97"/>
    <use x="678.144531" xlink:href="#DejaVuSans-110"/>
   </g>
  </g>
 </g>
 <defs>
  <clipPath id="p2b232d4703">
   <rect height="434.88" width="405.818182" x="144" y="69.12"/>
  </clipPath>
  <clipPath id="pd570370234">
   <rect height="434.88" width="405.818182" x="630.981818" y="69.12"/>
  </clipPath>
 </defs>
</svg>
