<?xml version="1.0" encoding="utf-8" standalone="no"?>
<!DOCTYPE svg PUBLIC "-//W3C//DTD SVG 1.1//EN"
  "http://www.w3.org/Graphics/SVG/1.1/DTD/svg11.dtd">
<!-- Created with matplotlib (https://matplotlib.org/) -->
<svg height="576pt" version="1.1" viewBox="0 0 1152 576" width="1152pt" xmlns="http://www.w3.org/2000/svg" xmlns:xlink="http://www.w3.org/1999/xlink">
 <defs>
  <style type="text/css">
*{stroke-linecap:butt;stroke-linejoin:round;}
  </style>
 </defs>
 <g id="figure_1">
  <g id="patch_1">
   <path d="M 0 576 
L 1152 576 
L 1152 0 
L 0 0 
z
" style="fill:#ffffff;"/>
  </g>
  <g id="axes_1">
   <g id="patch_2">
    <path d="M 144 504 
L 549.818182 504 
L 549.818182 69.12 
L 144 69.12 
z
" style="fill:#ffffff;"/>
   </g>
   <g id="matplotlib.axis_1">
    <g id="xtick_1">
     <g id="line2d_1">
      <defs>
       <path d="M 0 0 
L 0 3.5 
" id="m9a4737f6c4" style="stroke:#000000;stroke-width:0.8;"/>
      </defs>
      <g>
       <use style="stroke:#000000;stroke-width:0.8;" x="151.545597" xlink:href="#m9a4737f6c4" y="504"/>
      </g>
     </g>
     <g id="text_1">
      <!-- 1980 -->
      <defs>
       <path d="M 12.40625 8.296875 
L 28.515625 8.296875 
L 28.515625 63.921875 
L 10.984375 60.40625 
L 10.984375 69.390625 
L 28.421875 72.90625 
L 38.28125 72.90625 
L 38.28125 8.296875 
L 54.390625 8.296875 
L 54.390625 0 
L 12.40625 0 
z
" id="DejaVuSans-49"/>
       <path d="M 10.984375 1.515625 
L 10.984375 10.5 
Q 14.703125 8.734375 18.5 7.8125 
Q 22.3125 6.890625 25.984375 6.890625 
Q 35.75 6.890625 40.890625 13.453125 
Q 46.046875 20.015625 46.78125 33.40625 
Q 43.953125 29.203125 39.59375 26.953125 
Q 35.25 24.703125 29.984375 24.703125 
Q 19.046875 24.703125 12.671875 31.3125 
Q 6.296875 37.9375 6.296875 49.421875 
Q 6.296875 60.640625 12.9375 67.421875 
Q 19.578125 74.21875 30.609375 74.21875 
Q 43.265625 74.21875 49.921875 64.515625 
Q 56.59375 54.828125 56.59375 36.375 
Q 56.59375 19.140625 48.40625 8.859375 
Q 40.234375 -1.421875 26.421875 -1.421875 
Q 22.703125 -1.421875 18.890625 -0.6875 
Q 15.09375 0.046875 10.984375 1.515625 
z
M 30.609375 32.421875 
Q 37.25 32.421875 41.125 36.953125 
Q 45.015625 41.5 45.015625 49.421875 
Q 45.015625 57.28125 41.125 61.84375 
Q 37.25 66.40625 30.609375 66.40625 
Q 23.96875 66.40625 20.09375 61.84375 
Q 16.21875 57.28125 16.21875 49.421875 
Q 16.21875 41.5 20.09375 36.953125 
Q 23.96875 32.421875 30.609375 32.421875 
z
" id="DejaVuSans-57"/>
       <path d="M 31.78125 34.625 
Q 24.75 34.625 20.71875 30.859375 
Q 16.703125 27.09375 16.703125 20.515625 
Q 16.703125 13.921875 20.71875 10.15625 
Q 24.75 6.390625 31.78125 6.390625 
Q 38.8125 6.390625 42.859375 10.171875 
Q 46.921875 13.96875 46.921875 20.515625 
Q 46.921875 27.09375 42.890625 30.859375 
Q 38.875 34.625 31.78125 34.625 
z
M 21.921875 38.8125 
Q 15.578125 40.375 12.03125 44.71875 
Q 8.5 49.078125 8.5 55.328125 
Q 8.5 64.0625 14.71875 69.140625 
Q 20.953125 74.21875 31.78125 74.21875 
Q 42.671875 74.21875 48.875 69.140625 
Q 55.078125 64.0625 55.078125 55.328125 
Q 55.078125 49.078125 51.53125 44.71875 
Q 48 40.375 41.703125 38.8125 
Q 48.828125 37.15625 52.796875 32.3125 
Q 56.78125 27.484375 56.78125 20.515625 
Q 56.78125 9.90625 50.3125 4.234375 
Q 43.84375 -1.421875 31.78125 -1.421875 
Q 19.734375 -1.421875 13.25 4.234375 
Q 6.78125 9.90625 6.78125 20.515625 
Q 6.78125 27.484375 10.78125 32.3125 
Q 14.796875 37.15625 21.921875 38.8125 
z
M 18.3125 54.390625 
Q 18.3125 48.734375 21.84375 45.5625 
Q 25.390625 42.390625 31.78125 42.390625 
Q 38.140625 42.390625 41.71875 45.5625 
Q 45.3125 48.734375 45.3125 54.390625 
Q 45.3125 60.0625 41.71875 63.234375 
Q 38.140625 66.40625 31.78125 66.40625 
Q 25.390625 66.40625 21.84375 63.234375 
Q 18.3125 60.0625 18.3125 54.390625 
z
" id="DejaVuSans-56"/>
       <path d="M 31.78125 66.40625 
Q 24.171875 66.40625 20.328125 58.90625 
Q 16.5 51.421875 16.5 36.375 
Q 16.5 21.390625 20.328125 13.890625 
Q 24.171875 6.390625 31.78125 6.390625 
Q 39.453125 6.390625 43.28125 13.890625 
Q 47.125 21.390625 47.125 36.375 
Q 47.125 51.421875 43.28125 58.90625 
Q 39.453125 66.40625 31.78125 66.40625 
z
M 31.78125 74.21875 
Q 44.046875 74.21875 50.515625 64.515625 
Q 56.984375 54.828125 56.984375 36.375 
Q 56.984375 17.96875 50.515625 8.265625 
Q 44.046875 -1.421875 31.78125 -1.421875 
Q 19.53125 -1.421875 13.0625 8.265625 
Q 6.59375 17.96875 6.59375 36.375 
Q 6.59375 54.828125 13.0625 64.515625 
Q 19.53125 74.21875 31.78125 74.21875 
z
" id="DejaVuSans-48"/>
      </defs>
      <g transform="translate(138.820597 518.598438)scale(0.1 -0.1)">
       <use xlink:href="#DejaVuSans-49"/>
       <use x="63.623047" xlink:href="#DejaVuSans-57"/>
       <use x="127.246094" xlink:href="#DejaVuSans-56"/>
       <use x="190.869141" xlink:href="#DejaVuSans-48"/>
      </g>
     </g>
    </g>
    <g id="xtick_2">
     <g id="line2d_2">
      <g>
       <use style="stroke:#000000;stroke-width:0.8;" x="195.058984" xlink:href="#m9a4737f6c4" y="504"/>
      </g>
     </g>
     <g id="text_2">
      <!-- 1984 -->
      <defs>
       <path d="M 37.796875 64.3125 
L 12.890625 25.390625 
L 37.796875 25.390625 
z
M 35.203125 72.90625 
L 47.609375 72.90625 
L 47.609375 25.390625 
L 58.015625 25.390625 
L 58.015625 17.1875 
L 47.609375 17.1875 
L 47.609375 0 
L 37.796875 0 
L 37.796875 17.1875 
L 4.890625 17.1875 
L 4.890625 26.703125 
z
" id="DejaVuSans-52"/>
      </defs>
      <g transform="translate(182.333984 518.598438)scale(0.1 -0.1)">
       <use xlink:href="#DejaVuSans-49"/>
       <use x="63.623047" xlink:href="#DejaVuSans-57"/>
       <use x="127.246094" xlink:href="#DejaVuSans-56"/>
       <use x="190.869141" xlink:href="#DejaVuSans-52"/>
      </g>
     </g>
    </g>
    <g id="xtick_3">
     <g id="line2d_3">
      <g>
       <use style="stroke:#000000;stroke-width:0.8;" x="238.572372" xlink:href="#m9a4737f6c4" y="504"/>
      </g>
     </g>
     <g id="text_3">
      <!-- 1988 -->
      <g transform="translate(225.847372 518.598438)scale(0.1 -0.1)">
       <use xlink:href="#DejaVuSans-49"/>
       <use x="63.623047" xlink:href="#DejaVuSans-57"/>
       <use x="127.246094" xlink:href="#DejaVuSans-56"/>
       <use x="190.869141" xlink:href="#DejaVuSans-56"/>
      </g>
     </g>
    </g>
    <g id="xtick_4">
     <g id="line2d_4">
      <g>
       <use style="stroke:#000000;stroke-width:0.8;" x="282.085759" xlink:href="#m9a4737f6c4" y="504"/>
      </g>
     </g>
     <g id="text_4">
      <!-- 1992 -->
      <defs>
       <path d="M 19.1875 8.296875 
L 53.609375 8.296875 
L 53.609375 0 
L 7.328125 0 
L 7.328125 8.296875 
Q 12.9375 14.109375 22.625 23.890625 
Q 32.328125 33.6875 34.8125 36.53125 
Q 39.546875 41.84375 41.421875 45.53125 
Q 43.3125 49.21875 43.3125 52.78125 
Q 43.3125 58.59375 39.234375 62.25 
Q 35.15625 65.921875 28.609375 65.921875 
Q 23.96875 65.921875 18.8125 64.3125 
Q 13.671875 62.703125 7.8125 59.421875 
L 7.8125 69.390625 
Q 13.765625 71.78125 18.9375 73 
Q 24.125 74.21875 28.421875 74.21875 
Q 39.75 74.21875 46.484375 68.546875 
Q 53.21875 62.890625 53.21875 53.421875 
Q 53.21875 48.921875 51.53125 44.890625 
Q 49.859375 40.875 45.40625 35.40625 
Q 44.1875 33.984375 37.640625 27.21875 
Q 31.109375 20.453125 19.1875 8.296875 
z
" id="DejaVuSans-50"/>
      </defs>
      <g transform="translate(269.360759 518.598438)scale(0.1 -0.1)">
       <use xlink:href="#DejaVuSans-49"/>
       <use x="63.623047" xlink:href="#DejaVuSans-57"/>
       <use x="127.246094" xlink:href="#DejaVuSans-57"/>
       <use x="190.869141" xlink:href="#DejaVuSans-50"/>
      </g>
     </g>
    </g>
    <g id="xtick_5">
     <g id="line2d_5">
      <g>
       <use style="stroke:#000000;stroke-width:0.8;" x="325.599147" xlink:href="#m9a4737f6c4" y="504"/>
      </g>
     </g>
     <g id="text_5">
      <!-- 1996 -->
      <defs>
       <path d="M 33.015625 40.375 
Q 26.375 40.375 22.484375 35.828125 
Q 18.609375 31.296875 18.609375 23.390625 
Q 18.609375 15.53125 22.484375 10.953125 
Q 26.375 6.390625 33.015625 6.390625 
Q 39.65625 6.390625 43.53125 10.953125 
Q 47.40625 15.53125 47.40625 23.390625 
Q 47.40625 31.296875 43.53125 35.828125 
Q 39.65625 40.375 33.015625 40.375 
z
M 52.59375 71.296875 
L 52.59375 62.3125 
Q 48.875 64.0625 45.09375 64.984375 
Q 41.3125 65.921875 37.59375 65.921875 
Q 27.828125 65.921875 22.671875 59.328125 
Q 17.53125 52.734375 16.796875 39.40625 
Q 19.671875 43.65625 24.015625 45.921875 
Q 28.375 48.1875 33.59375 48.1875 
Q 44.578125 48.1875 50.953125 41.515625 
Q 57.328125 34.859375 57.328125 23.390625 
Q 57.328125 12.15625 50.6875 5.359375 
Q 44.046875 -1.421875 33.015625 -1.421875 
Q 20.359375 -1.421875 13.671875 8.265625 
Q 6.984375 17.96875 6.984375 36.375 
Q 6.984375 53.65625 15.1875 63.9375 
Q 23.390625 74.21875 37.203125 74.21875 
Q 40.921875 74.21875 44.703125 73.484375 
Q 48.484375 72.75 52.59375 71.296875 
z
" id="DejaVuSans-54"/>
      </defs>
      <g transform="translate(312.874147 518.598438)scale(0.1 -0.1)">
       <use xlink:href="#DejaVuSans-49"/>
       <use x="63.623047" xlink:href="#DejaVuSans-57"/>
       <use x="127.246094" xlink:href="#DejaVuSans-57"/>
       <use x="190.869141" xlink:href="#DejaVuSans-54"/>
      </g>
     </g>
    </g>
    <g id="xtick_6">
     <g id="line2d_6">
      <g>
       <use style="stroke:#000000;stroke-width:0.8;" x="369.112534" xlink:href="#m9a4737f6c4" y="504"/>
      </g>
     </g>
     <g id="text_6">
      <!-- 2000 -->
      <g transform="translate(356.387534 518.598438)scale(0.1 -0.1)">
       <use xlink:href="#DejaVuSans-50"/>
       <use x="63.623047" xlink:href="#DejaVuSans-48"/>
       <use x="127.246094" xlink:href="#DejaVuSans-48"/>
       <use x="190.869141" xlink:href="#DejaVuSans-48"/>
      </g>
     </g>
    </g>
    <g id="xtick_7">
     <g id="line2d_7">
      <g>
       <use style="stroke:#000000;stroke-width:0.8;" x="412.625921" xlink:href="#m9a4737f6c4" y="504"/>
      </g>
     </g>
     <g id="text_7">
      <!-- 2004 -->
      <g transform="translate(399.900921 518.598438)scale(0.1 -0.1)">
       <use xlink:href="#DejaVuSans-50"/>
       <use x="63.623047" xlink:href="#DejaVuSans-48"/>
       <use x="127.246094" xlink:href="#DejaVuSans-48"/>
       <use x="190.869141" xlink:href="#DejaVuSans-52"/>
      </g>
     </g>
    </g>
    <g id="xtick_8">
     <g id="line2d_8">
      <g>
       <use style="stroke:#000000;stroke-width:0.8;" x="456.139309" xlink:href="#m9a4737f6c4" y="504"/>
      </g>
     </g>
     <g id="text_8">
      <!-- 2008 -->
      <g transform="translate(443.414309 518.598438)scale(0.1 -0.1)">
       <use xlink:href="#DejaVuSans-50"/>
       <use x="63.623047" xlink:href="#DejaVuSans-48"/>
       <use x="127.246094" xlink:href="#DejaVuSans-48"/>
       <use x="190.869141" xlink:href="#DejaVuSans-56"/>
      </g>
     </g>
    </g>
    <g id="xtick_9">
     <g id="line2d_9">
      <g>
       <use style="stroke:#000000;stroke-width:0.8;" x="499.652696" xlink:href="#m9a4737f6c4" y="504"/>
      </g>
     </g>
     <g id="text_9">
      <!-- 2012 -->
      <g transform="translate(486.927696 518.598438)scale(0.1 -0.1)">
       <use xlink:href="#DejaVuSans-50"/>
       <use x="63.623047" xlink:href="#DejaVuSans-48"/>
       <use x="127.246094" xlink:href="#DejaVuSans-49"/>
       <use x="190.869141" xlink:href="#DejaVuSans-50"/>
      </g>
     </g>
    </g>
    <g id="xtick_10">
     <g id="line2d_10">
      <g>
       <use style="stroke:#000000;stroke-width:0.8;" x="543.166084" xlink:href="#m9a4737f6c4" y="504"/>
      </g>
     </g>
     <g id="text_10">
      <!-- 2016 -->
      <g transform="translate(530.441084 518.598438)scale(0.1 -0.1)">
       <use xlink:href="#DejaVuSans-50"/>
       <use x="63.623047" xlink:href="#DejaVuSans-48"/>
       <use x="127.246094" xlink:href="#DejaVuSans-49"/>
       <use x="190.869141" xlink:href="#DejaVuSans-54"/>
      </g>
     </g>
    </g>
   </g>
   <g id="matplotlib.axis_2">
    <g id="ytick_1">
     <g id="line2d_11">
      <defs>
       <path d="M 0 0 
L -3.5 0 
" id="ma678648c9b" style="stroke:#000000;stroke-width:0.8;"/>
      </defs>
      <g>
       <use style="stroke:#000000;stroke-width:0.8;" x="144" xlink:href="#ma678648c9b" y="492.945052"/>
      </g>
     </g>
     <g id="text_11">
      <!-- 0.000 -->
      <defs>
       <path d="M 10.6875 12.40625 
L 21 12.40625 
L 21 0 
L 10.6875 0 
z
" id="DejaVuSans-46"/>
      </defs>
      <g transform="translate(108.371875 496.744271)scale(0.1 -0.1)">
       <use xlink:href="#DejaVuSans-48"/>
       <use x="63.623047" xlink:href="#DejaVuSans-46"/>
       <use x="95.410156" xlink:href="#DejaVuSans-48"/>
       <use x="159.033203" xlink:href="#DejaVuSans-48"/>
       <use x="222.65625" xlink:href="#DejaVuSans-48"/>
      </g>
     </g>
    </g>
    <g id="ytick_2">
     <g id="line2d_12">
      <g>
       <use style="stroke:#000000;stroke-width:0.8;" x="144" xlink:href="#ma678648c9b" y="434.101688"/>
      </g>
     </g>
     <g id="text_12">
      <!-- 0.025 -->
      <defs>
       <path d="M 10.796875 72.90625 
L 49.515625 72.90625 
L 49.515625 64.59375 
L 19.828125 64.59375 
L 19.828125 46.734375 
Q 21.96875 47.46875 24.109375 47.828125 
Q 26.265625 48.1875 28.421875 48.1875 
Q 40.625 48.1875 47.75 41.5 
Q 54.890625 34.8125 54.890625 23.390625 
Q 54.890625 11.625 47.5625 5.09375 
Q 40.234375 -1.421875 26.90625 -1.421875 
Q 22.3125 -1.421875 17.546875 -0.640625 
Q 12.796875 0.140625 7.71875 1.703125 
L 7.71875 11.625 
Q 12.109375 9.234375 16.796875 8.0625 
Q 21.484375 6.890625 26.703125 6.890625 
Q 35.15625 6.890625 40.078125 11.328125 
Q 45.015625 15.765625 45.015625 23.390625 
Q 45.015625 31 40.078125 35.4375 
Q 35.15625 39.890625 26.703125 39.890625 
Q 22.75 39.890625 18.8125 39.015625 
Q 14.890625 38.140625 10.796875 36.28125 
z
" id="DejaVuSans-53"/>
      </defs>
      <g transform="translate(108.371875 437.900906)scale(0.1 -0.1)">
       <use xlink:href="#DejaVuSans-48"/>
       <use x="63.623047" xlink:href="#DejaVuSans-46"/>
       <use x="95.410156" xlink:href="#DejaVuSans-48"/>
       <use x="159.033203" xlink:href="#DejaVuSans-50"/>
       <use x="222.65625" xlink:href="#DejaVuSans-53"/>
      </g>
     </g>
    </g>
    <g id="ytick_3">
     <g id="line2d_13">
      <g>
       <use style="stroke:#000000;stroke-width:0.8;" x="144" xlink:href="#ma678648c9b" y="375.258323"/>
      </g>
     </g>
     <g id="text_13">
      <!-- 0.050 -->
      <g transform="translate(108.371875 379.057541)scale(0.1 -0.1)">
       <use xlink:href="#DejaVuSans-48"/>
       <use x="63.623047" xlink:href="#DejaVuSans-46"/>
       <use x="95.410156" xlink:href="#DejaVuSans-48"/>
       <use x="159.033203" xlink:href="#DejaVuSans-53"/>
       <use x="222.65625" xlink:href="#DejaVuSans-48"/>
      </g>
     </g>
    </g>
    <g id="ytick_4">
     <g id="line2d_14">
      <g>
       <use style="stroke:#000000;stroke-width:0.8;" x="144" xlink:href="#ma678648c9b" y="316.414958"/>
      </g>
     </g>
     <g id="text_14">
      <!-- 0.075 -->
      <defs>
       <path d="M 8.203125 72.90625 
L 55.078125 72.90625 
L 55.078125 68.703125 
L 28.609375 0 
L 18.3125 0 
L 43.21875 64.59375 
L 8.203125 64.59375 
z
" id="DejaVuSans-55"/>
      </defs>
      <g transform="translate(108.371875 320.214176)scale(0.1 -0.1)">
       <use xlink:href="#DejaVuSans-48"/>
       <use x="63.623047" xlink:href="#DejaVuSans-46"/>
       <use x="95.410156" xlink:href="#DejaVuSans-48"/>
       <use x="159.033203" xlink:href="#DejaVuSans-55"/>
       <use x="222.65625" xlink:href="#DejaVuSans-53"/>
      </g>
     </g>
    </g>
    <g id="ytick_5">
     <g id="line2d_15">
      <g>
       <use style="stroke:#000000;stroke-width:0.8;" x="144" xlink:href="#ma678648c9b" y="257.571593"/>
      </g>
     </g>
     <g id="text_15">
      <!-- 0.100 -->
      <g transform="translate(108.371875 261.370812)scale(0.1 -0.1)">
       <use xlink:href="#DejaVuSans-48"/>
       <use x="63.623047" xlink:href="#DejaVuSans-46"/>
       <use x="95.410156" xlink:href="#DejaVuSans-49"/>
       <use x="159.033203" xlink:href="#DejaVuSans-48"/>
       <use x="222.65625" xlink:href="#DejaVuSans-48"/>
      </g>
     </g>
    </g>
    <g id="ytick_6">
     <g id="line2d_16">
      <g>
       <use style="stroke:#000000;stroke-width:0.8;" x="144" xlink:href="#ma678648c9b" y="198.728228"/>
      </g>
     </g>
     <g id="text_16">
      <!-- 0.125 -->
      <g transform="translate(108.371875 202.527447)scale(0.1 -0.1)">
       <use xlink:href="#DejaVuSans-48"/>
       <use x="63.623047" xlink:href="#DejaVuSans-46"/>
       <use x="95.410156" xlink:href="#DejaVuSans-49"/>
       <use x="159.033203" xlink:href="#DejaVuSans-50"/>
       <use x="222.65625" xlink:href="#DejaVuSans-53"/>
      </g>
     </g>
    </g>
    <g id="ytick_7">
     <g id="line2d_17">
      <g>
       <use style="stroke:#000000;stroke-width:0.8;" x="144" xlink:href="#ma678648c9b" y="139.884863"/>
      </g>
     </g>
     <g id="text_17">
      <!-- 0.150 -->
      <g transform="translate(108.371875 143.684082)scale(0.1 -0.1)">
       <use xlink:href="#DejaVuSans-48"/>
       <use x="63.623047" xlink:href="#DejaVuSans-46"/>
       <use x="95.410156" xlink:href="#DejaVuSans-49"/>
       <use x="159.033203" xlink:href="#DejaVuSans-53"/>
       <use x="222.65625" xlink:href="#DejaVuSans-48"/>
      </g>
     </g>
    </g>
    <g id="ytick_8">
     <g id="line2d_18">
      <g>
       <use style="stroke:#000000;stroke-width:0.8;" x="144" xlink:href="#ma678648c9b" y="81.041498"/>
      </g>
     </g>
     <g id="text_18">
      <!-- 0.175 -->
      <g transform="translate(108.371875 84.840717)scale(0.1 -0.1)">
       <use xlink:href="#DejaVuSans-48"/>
       <use x="63.623047" xlink:href="#DejaVuSans-46"/>
       <use x="95.410156" xlink:href="#DejaVuSans-49"/>
       <use x="159.033203" xlink:href="#DejaVuSans-55"/>
       <use x="222.65625" xlink:href="#DejaVuSans-53"/>
      </g>
     </g>
    </g>
   </g>
   <g id="line2d_19">
    <path clip-path="url(#pfe24fd023d)" d="M 162.446281 426.144094 
L 163.369563 449.034733 
L 164.203495 403.477267 
L 165.126777 319.379677 
L 166.020276 190.255755 
L 166.943558 141.751864 
L 167.837057 138.672342 
L 168.760339 257.747333 
L 169.683621 312.285053 
L 170.577119 372.467832 
L 171.500401 420.045156 
L 172.3939 442.083025 
L 173.317182 437.073964 
L 174.240464 435.131887 
L 175.074396 411.201037 
L 175.997678 306.781512 
L 177.814459 169.930218 
L 178.707958 121.526764 
L 179.63124 220.051219 
L 180.554522 306.703478 
L 181.44802 377.026932 
L 182.371302 428.470228 
L 183.264801 447.802116 
L 184.188083 425.675944 
L 185.111365 439.137291 
L 185.945297 385.419173 
L 186.868579 336.221536 
L 187.762078 232.722669 
L 188.68536 103.445461 
L 189.578859 106.492903 
L 190.502141 219.830792 
L 191.425423 269.560473 
L 193.242203 427.436479 
L 194.135702 457.320257 
L 195.058984 433.677257 
L 195.982266 446.552387 
L 196.845982 410.916826 
L 197.769264 335.582692 
L 199.586044 131.156163 
L 200.479543 137.380514 
L 201.402825 227.411683 
L 202.326107 285.153962 
L 203.219606 373.795131 
L 204.142888 411.360999 
L 205.036386 461.299803 
L 205.959668 402.46216 
L 206.88295 421.22682 
L 207.716883 391.145085 
L 208.640165 316.67358 
L 209.533663 197.811636 
L 210.456945 144.180158 
L 211.350444 127.523951 
L 212.273726 235.837606 
L 213.197008 271.644595 
L 215.013789 449.276041 
L 215.907287 435.348568 
L 216.83057 445.543913 
L 217.753852 425.910649 
L 218.587784 400.892336 
L 219.511066 355.151516 
L 220.404564 195.916325 
L 221.327846 139.017 
L 222.221345 178.515435 
L 223.144627 205.214829 
L 224.067909 307.465924 
L 224.961408 362.714633 
L 225.88469 428.905895 
L 226.778189 446.293606 
L 227.701471 437.789097 
L 228.624753 401.334371 
L 229.458685 407.910589 
L 230.381967 329.083951 
L 231.275465 224.743388 
L 232.198747 143.063068 
L 233.092246 142.893323 
L 234.015528 220.443997 
L 234.93881 276.094797 
L 236.755591 423.217498 
L 237.64909 436.352319 
L 238.572372 425.555976 
L 239.495654 438.97091 
L 240.359369 396.701363 
L 241.282651 330.634681 
L 242.17615 211.943111 
L 243.099432 112.794759 
L 243.99293 145.455482 
L 244.916212 203.267974 
L 246.732993 368.765352 
L 247.656275 424.664018 
L 248.549774 457.046723 
L 249.473056 453.911045 
L 250.396338 439.207366 
L 251.23027 393.626558 
L 252.153552 317.451502 
L 253.047051 214.792993 
L 253.970333 156.393809 
L 254.863832 141.70412 
L 255.787114 201.72185 
L 256.710396 283.184329 
L 258.527176 405.77305 
L 259.420675 459.910143 
L 260.343957 459.536542 
L 261.267239 432.594368 
L 262.101171 399.081747 
L 263.024453 320.035445 
L 263.917952 205.629679 
L 264.841234 131.20647 
L 265.734733 155.448363 
L 266.658015 202.567567 
L 267.581297 259.716613 
L 268.474795 327.067136 
L 269.398077 409.560557 
L 270.291576 464.731172 
L 271.214858 449.253569 
L 272.13814 436.856973 
L 272.972072 393.649646 
L 273.895354 326.711233 
L 274.788853 160.684981 
L 275.712135 108.496119 
L 276.605634 155.790591 
L 277.528916 191.333055 
L 278.452198 265.634882 
L 280.268978 424.978773 
L 281.162477 442.376432 
L 282.085759 455.992574 
L 283.009041 442.641283 
L 283.872756 394.252743 
L 284.796039 332.909702 
L 285.689537 225.051813 
L 286.612819 141.394656 
L 287.506318 146.682466 
L 288.4296 207.302685 
L 289.352882 278.062729 
L 290.246381 356.492668 
L 291.169663 417.768147 
L 292.063161 463.214242 
L 292.986443 443.895602 
L 293.909725 443.427275 
L 294.743658 415.860745 
L 296.560438 191.612228 
L 297.48372 143.646799 
L 298.377219 188.013598 
L 299.300501 299.280952 
L 300.223783 319.119284 
L 301.117282 358.47548 
L 302.040564 425.567288 
L 302.934062 438.281262 
L 303.857344 464.671691 
L 304.780626 439.640276 
L 305.614559 405.419853 
L 306.537841 313.496239 
L 307.431339 190.954483 
L 308.354621 142.231403 
L 309.24812 126.939865 
L 310.171402 204.571732 
L 311.094684 260.233358 
L 311.988183 357.355506 
L 312.911465 408.145376 
L 313.804963 446.339936 
L 314.728245 451.711338 
L 315.651527 447.685882 
L 316.48546 403.588187 
L 317.408742 321.109597 
L 318.30224 215.358431 
L 319.225522 181.742474 
L 320.119021 143.415702 
L 321.042303 220.88348 
L 321.965585 336.381416 
L 322.859084 348.436214 
L 323.782366 411.777732 
L 324.675865 428.39643 
L 325.599147 449.958204 
L 326.522429 406.059934 
L 327.386144 387.630112 
L 328.309426 315.352589 
L 329.202925 211.498082 
L 330.126207 173.326008 
L 331.019705 147.507679 
L 331.942987 205.126036 
L 332.866269 292.741239 
L 333.759768 346.397196 
L 335.576549 484.232727 
L 336.499831 414.257692 
L 337.423113 412.602426 
L 338.257045 397.044596 
L 339.180327 310.027221 
L 340.073826 183.796969 
L 340.997108 142.72285 
L 341.890606 127.761765 
L 342.813888 213.790789 
L 343.73717 278.596088 
L 344.630669 362.039169 
L 345.553951 416.81647 
L 346.44745 453.753337 
L 347.370732 448.779365 
L 348.294014 425.768151 
L 349.127946 400.842846 
L 350.051228 311.794345 
L 350.944727 205.367385 
L 351.868009 155.945952 
L 352.761507 118.255515 
L 353.68479 226.559825 
L 354.608072 268.000983 
L 355.50157 367.107977 
L 356.424852 441.189543 
L 357.318351 454.212293 
L 358.241633 462.600921 
L 359.164915 436.225564 
L 359.998847 383.077607 
L 360.922129 314.932459 
L 361.815628 194.193873 
L 362.73891 158.628984 
L 363.632409 152.852423 
L 364.555691 309.030076 
L 365.478973 286.081712 
L 366.372471 337.373192 
L 367.295753 407.230159 
L 368.189252 448.285722 
L 370.035816 422.627364 
L 371.822813 336.247297 
L 372.716312 193.399723 
L 373.639594 142.917494 
L 374.533093 164.57836 
L 375.456375 211.522805 
L 376.379657 266.058436 
L 377.273156 351.124449 
L 378.196438 422.751032 
L 379.089936 415.12322 
L 380.013218 448.343856 
L 380.9365 443.937635 
L 381.770432 399.9612 
L 383.587213 221.223654 
L 384.510495 122.837747 
L 385.403994 122.082636 
L 386.327276 217.728819 
L 388.144057 353.198607 
L 389.067339 448.508121 
L 389.960837 451.103729 
L 390.884119 456.284539 
L 391.807401 427.483411 
L 392.641334 391.32581 
L 393.564616 312.416465 
L 394.458114 178.795315 
L 395.381396 117.858363 
L 396.274895 106.498736 
L 397.198177 203.889508 
L 398.121459 272.829933 
L 399.014958 349.851324 
L 399.93824 418.931015 
L 400.831738 449.916069 
L 401.75502 448.593407 
L 402.678302 389.256159 
L 403.512235 408.334966 
L 404.435517 338.960078 
L 406.252297 160.261427 
L 407.145796 125.714649 
L 408.069078 206.600024 
L 410.809141 417.595668 
L 411.702639 443.938469 
L 412.625921 408.888893 
L 413.549203 436.474336 
L 414.412919 400.364169 
L 415.336201 313.905941 
L 416.2297 187.688492 
L 417.152982 126.944174 
L 418.04648 158.615573 
L 418.969762 204.537929 
L 419.893044 264.408517 
L 420.786543 351.749142 
L 421.709825 415.870344 
L 422.603324 436.549575 
L 423.526606 430.73144 
L 424.449888 437.163128 
L 426.207102 312.094596 
L 427.100601 225.162832 
L 428.023883 157.527425 
L 428.917381 126.859092 
L 429.840663 231.458502 
L 430.763945 305.623394 
L 431.657444 366.820551 
L 432.580726 413.373102 
L 433.474225 439.654897 
L 434.397507 460.226773 
L 436.154721 373.186931 
L 437.078003 315.845848 
L 437.971502 197.111361 
L 438.894784 151.633194 
L 439.788282 88.887273 
L 440.711564 198.730791 
L 442.528345 326.381134 
L 443.451627 424.634032 
L 444.345126 443.086141 
L 445.268408 428.313806 
L 446.19169 381.866884 
L 447.025622 397.277042 
L 447.948904 329.572415 
L 448.842403 162.518939 
L 450.659183 111.146629 
L 451.582465 189.878597 
L 452.505747 254.767232 
L 454.322528 421.389936 
L 455.216027 450.094651 
L 456.139309 423.115647 
L 457.062591 440.631092 
L 457.926306 400.150564 
L 458.849588 325.742301 
L 459.743087 191.156417 
L 460.666369 104.786226 
L 461.559868 107.624222 
L 462.48315 198.813619 
L 464.299931 340.805966 
L 465.223213 418.429117 
L 466.116711 443.747797 
L 467.039993 391.988283 
L 467.963275 423.529325 
L 468.797207 409.88088 
L 469.720489 317.182691 
L 470.613988 214.734247 
L 471.53727 191.015041 
L 472.430769 119.105452 
L 473.354051 187.187987 
L 475.170832 361.38602 
L 476.094114 424.666289 
L 476.987612 453.235479 
L 477.910894 441.527015 
L 478.834176 435.335699 
L 479.668108 403.413859 
L 480.59139 300.523269 
L 481.484889 172.555078 
L 482.408171 122.718244 
L 483.30167 147.950256 
L 484.224952 281.015942 
L 485.148234 301.234016 
L 486.041733 346.850488 
L 486.965015 426.025612 
L 487.858513 420.865083 
L 488.781795 427.65347 
L 489.705077 421.080158 
L 490.53901 396.708897 
L 491.462292 320.907 
L 493.279072 116.816258 
L 494.172571 97.729613 
L 496.019135 281.411658 
L 496.912634 337.12506 
L 497.835916 429.474487 
L 498.729414 449.523419 
L 499.652696 445.126496 
L 501.439694 406.581699 
L 502.362976 316.963789 
L 503.256475 207.9065 
L 504.179757 131.949915 
L 505.073255 99.485294 
L 505.996537 196.443232 
L 506.919819 274.189212 
L 507.813318 376.196715 
L 508.7366 442.684592 
L 509.630099 455.812576 
L 510.553381 435.782711 
L 511.476663 437.999222 
L 512.310595 393.67903 
L 513.233877 321.658531 
L 514.127376 202.405931 
L 515.050658 114.930138 
L 515.944156 104.002438 
L 516.867438 209.100387 
L 517.79072 270.538088 
L 518.684219 373.214504 
L 519.607501 436.319875 
L 520.501 458.222309 
L 521.424282 429.720553 
L 522.347564 425.994444 
L 523.181496 405.718231 
L 524.104778 317.591243 
L 524.998277 175.577444 
L 525.921559 141.3567 
L 526.815057 91.349149 
L 527.738339 205.861925 
L 529.55512 364.562587 
L 530.478402 413.992338 
L 531.371901 442.936154 
L 531.371901 442.936154 
" style="fill:none;stroke:#1f77b4;stroke-linecap:square;stroke-width:1.5;"/>
   </g>
   <g id="patch_3">
    <path d="M 144 504 
L 144 69.12 
" style="fill:none;stroke:#000000;stroke-linecap:square;stroke-linejoin:miter;stroke-width:0.8;"/>
   </g>
   <g id="patch_4">
    <path d="M 549.818182 504 
L 549.818182 69.12 
" style="fill:none;stroke:#000000;stroke-linecap:square;stroke-linejoin:miter;stroke-width:0.8;"/>
   </g>
   <g id="patch_5">
    <path d="M 144 504 
L 549.818182 504 
" style="fill:none;stroke:#000000;stroke-linecap:square;stroke-linejoin:miter;stroke-width:0.8;"/>
   </g>
   <g id="patch_6">
    <path d="M 144 69.12 
L 549.818182 69.12 
" style="fill:none;stroke:#000000;stroke-linecap:square;stroke-linejoin:miter;stroke-width:0.8;"/>
   </g>
   <g id="text_19">
    <!-- Monthly Evaporation -->
    <defs>
     <path d="M 9.8125 72.90625 
L 24.515625 72.90625 
L 43.109375 23.296875 
L 61.8125 72.90625 
L 76.515625 72.90625 
L 76.515625 0 
L 66.890625 0 
L 66.890625 64.015625 
L 48.09375 14.015625 
L 38.1875 14.015625 
L 19.390625 64.015625 
L 19.390625 0 
L 9.8125 0 
z
" id="DejaVuSans-77"/>
     <path d="M 30.609375 48.390625 
Q 23.390625 48.390625 19.1875 42.75 
Q 14.984375 37.109375 14.984375 27.296875 
Q 14.984375 17.484375 19.15625 11.84375 
Q 23.34375 6.203125 30.609375 6.203125 
Q 37.796875 6.203125 41.984375 11.859375 
Q 46.1875 17.53125 46.1875 27.296875 
Q 46.1875 37.015625 41.984375 42.703125 
Q 37.796875 48.390625 30.609375 48.390625 
z
M 30.609375 56 
Q 42.328125 56 49.015625 48.375 
Q 55.71875 40.765625 55.71875 27.296875 
Q 55.71875 13.875 49.015625 6.21875 
Q 42.328125 -1.421875 30.609375 -1.421875 
Q 18.84375 -1.421875 12.171875 6.21875 
Q 5.515625 13.875 5.515625 27.296875 
Q 5.515625 40.765625 12.171875 48.375 
Q 18.84375 56 30.609375 56 
z
" id="DejaVuSans-111"/>
     <path d="M 54.890625 33.015625 
L 54.890625 0 
L 45.90625 0 
L 45.90625 32.71875 
Q 45.90625 40.484375 42.875 44.328125 
Q 39.84375 48.1875 33.796875 48.1875 
Q 26.515625 48.1875 22.3125 43.546875 
Q 18.109375 38.921875 18.109375 30.90625 
L 18.109375 0 
L 9.078125 0 
L 9.078125 54.6875 
L 18.109375 54.6875 
L 18.109375 46.1875 
Q 21.34375 51.125 25.703125 53.5625 
Q 30.078125 56 35.796875 56 
Q 45.21875 56 50.046875 50.171875 
Q 54.890625 44.34375 54.890625 33.015625 
z
" id="DejaVuSans-110"/>
     <path d="M 18.3125 70.21875 
L 18.3125 54.6875 
L 36.8125 54.6875 
L 36.8125 47.703125 
L 18.3125 47.703125 
L 18.3125 18.015625 
Q 18.3125 11.328125 20.140625 9.421875 
Q 21.96875 7.515625 27.59375 7.515625 
L 36.8125 7.515625 
L 36.8125 0 
L 27.59375 0 
Q 17.1875 0 13.234375 3.875 
Q 9.28125 7.765625 9.28125 18.015625 
L 9.28125 47.703125 
L 2.6875 47.703125 
L 2.6875 54.6875 
L 9.28125 54.6875 
L 9.28125 70.21875 
z
" id="DejaVuSans-116"/>
     <path d="M 54.890625 33.015625 
L 54.890625 0 
L 45.90625 0 
L 45.90625 32.71875 
Q 45.90625 40.484375 42.875 44.328125 
Q 39.84375 48.1875 33.796875 48.1875 
Q 26.515625 48.1875 22.3125 43.546875 
Q 18.109375 38.921875 18.109375 30.90625 
L 18.109375 0 
L 9.078125 0 
L 9.078125 75.984375 
L 18.109375 75.984375 
L 18.109375 46.1875 
Q 21.34375 51.125 25.703125 53.5625 
Q 30.078125 56 35.796875 56 
Q 45.21875 56 50.046875 50.171875 
Q 54.890625 44.34375 54.890625 33.015625 
z
" id="DejaVuSans-104"/>
     <path d="M 9.421875 75.984375 
L 18.40625 75.984375 
L 18.40625 0 
L 9.421875 0 
z
" id="DejaVuSans-108"/>
     <path d="M 32.171875 -5.078125 
Q 28.375 -14.84375 24.75 -17.8125 
Q 21.140625 -20.796875 15.09375 -20.796875 
L 7.90625 -20.796875 
L 7.90625 -13.28125 
L 13.1875 -13.28125 
Q 16.890625 -13.28125 18.9375 -11.515625 
Q 21 -9.765625 23.484375 -3.21875 
L 25.09375 0.875 
L 2.984375 54.6875 
L 12.5 54.6875 
L 29.59375 11.921875 
L 46.6875 54.6875 
L 56.203125 54.6875 
z
" id="DejaVuSans-121"/>
     <path id="DejaVuSans-32"/>
     <path d="M 9.8125 72.90625 
L 55.90625 72.90625 
L 55.90625 64.59375 
L 19.671875 64.59375 
L 19.671875 43.015625 
L 54.390625 43.015625 
L 54.390625 34.71875 
L 19.671875 34.71875 
L 19.671875 8.296875 
L 56.78125 8.296875 
L 56.78125 0 
L 9.8125 0 
z
" id="DejaVuSans-69"/>
     <path d="M 2.984375 54.6875 
L 12.5 54.6875 
L 29.59375 8.796875 
L 46.6875 54.6875 
L 56.203125 54.6875 
L 35.6875 0 
L 23.484375 0 
z
" id="DejaVuSans-118"/>
     <path d="M 34.28125 27.484375 
Q 23.390625 27.484375 19.1875 25 
Q 14.984375 22.515625 14.984375 16.5 
Q 14.984375 11.71875 18.140625 8.90625 
Q 21.296875 6.109375 26.703125 6.109375 
Q 34.1875 6.109375 38.703125 11.40625 
Q 43.21875 16.703125 43.21875 25.484375 
L 43.21875 27.484375 
z
M 52.203125 31.203125 
L 52.203125 0 
L 43.21875 0 
L 43.21875 8.296875 
Q 40.140625 3.328125 35.546875 0.953125 
Q 30.953125 -1.421875 24.3125 -1.421875 
Q 15.921875 -1.421875 10.953125 3.296875 
Q 6 8.015625 6 15.921875 
Q 6 25.140625 12.171875 29.828125 
Q 18.359375 34.515625 30.609375 34.515625 
L 43.21875 34.515625 
L 43.21875 35.40625 
Q 43.21875 41.609375 39.140625 45 
Q 35.0625 48.390625 27.6875 48.390625 
Q 23 48.390625 18.546875 47.265625 
Q 14.109375 46.140625 10.015625 43.890625 
L 10.015625 52.203125 
Q 14.9375 54.109375 19.578125 55.046875 
Q 24.21875 56 28.609375 56 
Q 40.484375 56 46.34375 49.84375 
Q 52.203125 43.703125 52.203125 31.203125 
z
" id="DejaVuSans-97"/>
     <path d="M 18.109375 8.203125 
L 18.109375 -20.796875 
L 9.078125 -20.796875 
L 9.078125 54.6875 
L 18.109375 54.6875 
L 18.109375 46.390625 
Q 20.953125 51.265625 25.265625 53.625 
Q 29.59375 56 35.59375 56 
Q 45.5625 56 51.78125 48.09375 
Q 58.015625 40.1875 58.015625 27.296875 
Q 58.015625 14.40625 51.78125 6.484375 
Q 45.5625 -1.421875 35.59375 -1.421875 
Q 29.59375 -1.421875 25.265625 0.953125 
Q 20.953125 3.328125 18.109375 8.203125 
z
M 48.6875 27.296875 
Q 48.6875 37.203125 44.609375 42.84375 
Q 40.53125 48.484375 33.40625 48.484375 
Q 26.265625 48.484375 22.1875 42.84375 
Q 18.109375 37.203125 18.109375 27.296875 
Q 18.109375 17.390625 22.1875 11.75 
Q 26.265625 6.109375 33.40625 6.109375 
Q 40.53125 6.109375 44.609375 11.75 
Q 48.6875 17.390625 48.6875 27.296875 
z
" id="DejaVuSans-112"/>
     <path d="M 41.109375 46.296875 
Q 39.59375 47.171875 37.8125 47.578125 
Q 36.03125 48 33.890625 48 
Q 26.265625 48 22.1875 43.046875 
Q 18.109375 38.09375 18.109375 28.8125 
L 18.109375 0 
L 9.078125 0 
L 9.078125 54.6875 
L 18.109375 54.6875 
L 18.109375 46.1875 
Q 20.953125 51.171875 25.484375 53.578125 
Q 30.03125 56 36.53125 56 
Q 37.453125 56 38.578125 55.875 
Q 39.703125 55.765625 41.0625 55.515625 
z
" id="DejaVuSans-114"/>
     <path d="M 9.421875 54.6875 
L 18.40625 54.6875 
L 18.40625 0 
L 9.421875 0 
z
M 9.421875 75.984375 
L 18.40625 75.984375 
L 18.40625 64.59375 
L 9.421875 64.59375 
z
" id="DejaVuSans-105"/>
    </defs>
    <g transform="translate(284.842841 63.12)scale(0.12 -0.12)">
     <use xlink:href="#DejaVuSans-77"/>
     <use x="86.279297" xlink:href="#DejaVuSans-111"/>
     <use x="147.460938" xlink:href="#DejaVuSans-110"/>
     <use x="210.839844" xlink:href="#DejaVuSans-116"/>
     <use x="250.048828" xlink:href="#DejaVuSans-104"/>
     <use x="313.427734" xlink:href="#DejaVuSans-108"/>
     <use x="341.210938" xlink:href="#DejaVuSans-121"/>
     <use x="400.390625" xlink:href="#DejaVuSans-32"/>
     <use x="432.177734" xlink:href="#DejaVuSans-69"/>
     <use x="495.361328" xlink:href="#DejaVuSans-118"/>
     <use x="554.541016" xlink:href="#DejaVuSans-97"/>
     <use x="615.820312" xlink:href="#DejaVuSans-112"/>
     <use x="679.296875" xlink:href="#DejaVuSans-111"/>
     <use x="740.478516" xlink:href="#DejaVuSans-114"/>
     <use x="781.591797" xlink:href="#DejaVuSans-97"/>
     <use x="842.871094" xlink:href="#DejaVuSans-116"/>
     <use x="882.080078" xlink:href="#DejaVuSans-105"/>
     <use x="909.863281" xlink:href="#DejaVuSans-111"/>
     <use x="971.044922" xlink:href="#DejaVuSans-110"/>
    </g>
   </g>
  </g>
  <g id="axes_2">
   <g id="patch_7">
    <path d="M 630.981818 504 
L 1036.8 504 
L 1036.8 69.12 
L 630.981818 69.12 
z
" style="fill:#ffffff;"/>
   </g>
   <g id="matplotlib.axis_3">
    <g id="xtick_11">
     <g id="line2d_20">
      <g>
       <use style="stroke:#000000;stroke-width:0.8;" x="638.527415" xlink:href="#m9a4737f6c4" y="504"/>
      </g>
     </g>
     <g id="text_20">
      <!-- 1980 -->
      <g transform="translate(625.802415 518.598438)scale(0.1 -0.1)">
       <use xlink:href="#DejaVuSans-49"/>
       <use x="63.623047" xlink:href="#DejaVuSans-57"/>
       <use x="127.246094" xlink:href="#DejaVuSans-56"/>
       <use x="190.869141" xlink:href="#DejaVuSans-48"/>
      </g>
     </g>
    </g>
    <g id="xtick_12">
     <g id="line2d_21">
      <g>
       <use style="stroke:#000000;stroke-width:0.8;" x="682.040802" xlink:href="#m9a4737f6c4" y="504"/>
      </g>
     </g>
     <g id="text_21">
      <!-- 1984 -->
      <g transform="translate(669.315802 518.598438)scale(0.1 -0.1)">
       <use xlink:href="#DejaVuSans-49"/>
       <use x="63.623047" xlink:href="#DejaVuSans-57"/>
       <use x="127.246094" xlink:href="#DejaVuSans-56"/>
       <use x="190.869141" xlink:href="#DejaVuSans-52"/>
      </g>
     </g>
    </g>
    <g id="xtick_13">
     <g id="line2d_22">
      <g>
       <use style="stroke:#000000;stroke-width:0.8;" x="725.55419" xlink:href="#m9a4737f6c4" y="504"/>
      </g>
     </g>
     <g id="text_22">
      <!-- 1988 -->
      <g transform="translate(712.82919 518.598438)scale(0.1 -0.1)">
       <use xlink:href="#DejaVuSans-49"/>
       <use x="63.623047" xlink:href="#DejaVuSans-57"/>
       <use x="127.246094" xlink:href="#DejaVuSans-56"/>
       <use x="190.869141" xlink:href="#DejaVuSans-56"/>
      </g>
     </g>
    </g>
    <g id="xtick_14">
     <g id="line2d_23">
      <g>
       <use style="stroke:#000000;stroke-width:0.8;" x="769.067577" xlink:href="#m9a4737f6c4" y="504"/>
      </g>
     </g>
     <g id="text_23">
      <!-- 1992 -->
      <g transform="translate(756.342577 518.598438)scale(0.1 -0.1)">
       <use xlink:href="#DejaVuSans-49"/>
       <use x="63.623047" xlink:href="#DejaVuSans-57"/>
       <use x="127.246094" xlink:href="#DejaVuSans-57"/>
       <use x="190.869141" xlink:href="#DejaVuSans-50"/>
      </g>
     </g>
    </g>
    <g id="xtick_15">
     <g id="line2d_24">
      <g>
       <use style="stroke:#000000;stroke-width:0.8;" x="812.580965" xlink:href="#m9a4737f6c4" y="504"/>
      </g>
     </g>
     <g id="text_24">
      <!-- 1996 -->
      <g transform="translate(799.855965 518.598438)scale(0.1 -0.1)">
       <use xlink:href="#DejaVuSans-49"/>
       <use x="63.623047" xlink:href="#DejaVuSans-57"/>
       <use x="127.246094" xlink:href="#DejaVuSans-57"/>
       <use x="190.869141" xlink:href="#DejaVuSans-54"/>
      </g>
     </g>
    </g>
    <g id="xtick_16">
     <g id="line2d_25">
      <g>
       <use style="stroke:#000000;stroke-width:0.8;" x="856.094352" xlink:href="#m9a4737f6c4" y="504"/>
      </g>
     </g>
     <g id="text_25">
      <!-- 2000 -->
      <g transform="translate(843.369352 518.598438)scale(0.1 -0.1)">
       <use xlink:href="#DejaVuSans-50"/>
       <use x="63.623047" xlink:href="#DejaVuSans-48"/>
       <use x="127.246094" xlink:href="#DejaVuSans-48"/>
       <use x="190.869141" xlink:href="#DejaVuSans-48"/>
      </g>
     </g>
    </g>
    <g id="xtick_17">
     <g id="line2d_26">
      <g>
       <use style="stroke:#000000;stroke-width:0.8;" x="899.60774" xlink:href="#m9a4737f6c4" y="504"/>
      </g>
     </g>
     <g id="text_26">
      <!-- 2004 -->
      <g transform="translate(886.88274 518.598438)scale(0.1 -0.1)">
       <use xlink:href="#DejaVuSans-50"/>
       <use x="63.623047" xlink:href="#DejaVuSans-48"/>
       <use x="127.246094" xlink:href="#DejaVuSans-48"/>
       <use x="190.869141" xlink:href="#DejaVuSans-52"/>
      </g>
     </g>
    </g>
    <g id="xtick_18">
     <g id="line2d_27">
      <g>
       <use style="stroke:#000000;stroke-width:0.8;" x="943.121127" xlink:href="#m9a4737f6c4" y="504"/>
      </g>
     </g>
     <g id="text_27">
      <!-- 2008 -->
      <g transform="translate(930.396127 518.598438)scale(0.1 -0.1)">
       <use xlink:href="#DejaVuSans-50"/>
       <use x="63.623047" xlink:href="#DejaVuSans-48"/>
       <use x="127.246094" xlink:href="#DejaVuSans-48"/>
       <use x="190.869141" xlink:href="#DejaVuSans-56"/>
      </g>
     </g>
    </g>
    <g id="xtick_19">
     <g id="line2d_28">
      <g>
       <use style="stroke:#000000;stroke-width:0.8;" x="986.634515" xlink:href="#m9a4737f6c4" y="504"/>
      </g>
     </g>
     <g id="text_28">
      <!-- 2012 -->
      <g transform="translate(973.909515 518.598438)scale(0.1 -0.1)">
       <use xlink:href="#DejaVuSans-50"/>
       <use x="63.623047" xlink:href="#DejaVuSans-48"/>
       <use x="127.246094" xlink:href="#DejaVuSans-49"/>
       <use x="190.869141" xlink:href="#DejaVuSans-50"/>
      </g>
     </g>
    </g>
    <g id="xtick_20">
     <g id="line2d_29">
      <g>
       <use style="stroke:#000000;stroke-width:0.8;" x="1030.147902" xlink:href="#m9a4737f6c4" y="504"/>
      </g>
     </g>
     <g id="text_29">
      <!-- 2016 -->
      <g transform="translate(1017.422902 518.598438)scale(0.1 -0.1)">
       <use xlink:href="#DejaVuSans-50"/>
       <use x="63.623047" xlink:href="#DejaVuSans-48"/>
       <use x="127.246094" xlink:href="#DejaVuSans-49"/>
       <use x="190.869141" xlink:href="#DejaVuSans-54"/>
      </g>
     </g>
    </g>
   </g>
   <g id="matplotlib.axis_4">
    <g id="ytick_9">
     <g id="line2d_30">
      <g>
       <use style="stroke:#000000;stroke-width:0.8;" x="630.981818" xlink:href="#ma678648c9b" y="492.945052"/>
      </g>
     </g>
    </g>
    <g id="ytick_10">
     <g id="line2d_31">
      <g>
       <use style="stroke:#000000;stroke-width:0.8;" x="630.981818" xlink:href="#ma678648c9b" y="434.101688"/>
      </g>
     </g>
    </g>
    <g id="ytick_11">
     <g id="line2d_32">
      <g>
       <use style="stroke:#000000;stroke-width:0.8;" x="630.981818" xlink:href="#ma678648c9b" y="375.258323"/>
      </g>
     </g>
    </g>
    <g id="ytick_12">
     <g id="line2d_33">
      <g>
       <use style="stroke:#000000;stroke-width:0.8;" x="630.981818" xlink:href="#ma678648c9b" y="316.414958"/>
      </g>
     </g>
    </g>
    <g id="ytick_13">
     <g id="line2d_34">
      <g>
       <use style="stroke:#000000;stroke-width:0.8;" x="630.981818" xlink:href="#ma678648c9b" y="257.571593"/>
      </g>
     </g>
    </g>
    <g id="ytick_14">
     <g id="line2d_35">
      <g>
       <use style="stroke:#000000;stroke-width:0.8;" x="630.981818" xlink:href="#ma678648c9b" y="198.728228"/>
      </g>
     </g>
    </g>
    <g id="ytick_15">
     <g id="line2d_36">
      <g>
       <use style="stroke:#000000;stroke-width:0.8;" x="630.981818" xlink:href="#ma678648c9b" y="139.884863"/>
      </g>
     </g>
    </g>
    <g id="ytick_16">
     <g id="line2d_37">
      <g>
       <use style="stroke:#000000;stroke-width:0.8;" x="630.981818" xlink:href="#ma678648c9b" y="81.041498"/>
      </g>
     </g>
    </g>
   </g>
   <g id="line2d_38">
    <path clip-path="url(#p77de9180fe)" d="M 649.428099 438.978328 
L 650.351381 429.667313 
L 651.185313 398.69182 
L 652.108595 320.871109 
L 653.002094 203.75962 
L 653.925376 140.281167 
L 654.818875 132.146083 
L 655.742157 218.679192 
L 656.665439 283.098915 
L 658.482219 423.078187 
L 659.375718 447.787515 
L 661.222282 429.667313 
L 662.056214 398.69182 
L 662.979496 320.871109 
L 663.872995 203.75962 
L 664.796277 140.281167 
L 665.689776 132.146083 
L 666.613058 218.679192 
L 667.53634 283.098915 
L 669.353121 423.078187 
L 670.246619 447.787515 
L 672.093183 429.667313 
L 672.927115 398.69182 
L 673.850397 320.871109 
L 674.743896 203.75962 
L 675.667178 140.281167 
L 676.560677 132.146083 
L 677.483959 218.679192 
L 678.407241 283.098915 
L 680.224022 423.078187 
L 681.11752 447.787515 
L 682.964084 429.667313 
L 683.8278 398.69182 
L 684.751082 320.871109 
L 685.64458 203.75962 
L 686.567862 140.281167 
L 687.461361 132.146083 
L 688.384643 218.679192 
L 689.307925 283.098915 
L 691.124706 423.078187 
L 692.018205 447.787515 
L 693.864769 429.667313 
L 694.698701 398.69182 
L 695.621983 320.871109 
L 696.515482 203.75962 
L 697.438764 140.281167 
L 698.332262 132.146083 
L 699.255544 218.679192 
L 700.178826 283.098915 
L 701.995607 423.078187 
L 702.889106 447.787515 
L 704.73567 429.667313 
L 705.569602 398.69182 
L 706.492884 320.871109 
L 707.386383 203.75962 
L 708.309665 140.281167 
L 709.203163 132.146083 
L 710.126445 218.679192 
L 711.049727 283.098915 
L 712.866508 423.078187 
L 713.760007 447.787515 
L 715.606571 429.667313 
L 716.440503 398.69182 
L 717.363785 320.871109 
L 718.257284 203.75962 
L 719.180566 140.281167 
L 720.074064 132.146083 
L 720.997346 218.679192 
L 721.920628 283.098915 
L 723.737409 423.078187 
L 724.630908 447.787515 
L 726.477472 429.667313 
L 727.341187 398.69182 
L 728.264469 320.871109 
L 729.157968 203.75962 
L 730.08125 140.281167 
L 730.974749 132.146083 
L 731.898031 218.679192 
L 732.821313 283.098915 
L 734.638093 423.078187 
L 735.531592 447.787515 
L 737.378156 429.667313 
L 738.212088 398.69182 
L 739.13537 320.871109 
L 740.028869 203.75962 
L 740.952151 140.281167 
L 741.84565 132.146083 
L 742.768932 218.679192 
L 743.692214 283.098915 
L 745.508994 423.078187 
L 746.402493 447.787515 
L 748.249057 429.667313 
L 749.082989 398.69182 
L 750.006271 320.871109 
L 750.89977 203.75962 
L 751.823052 140.281167 
L 752.716551 132.146083 
L 753.639833 218.679192 
L 754.563115 283.098915 
L 756.379895 423.078187 
L 757.273394 447.787515 
L 759.119958 429.667313 
L 759.95389 398.69182 
L 760.877172 320.871109 
L 761.770671 203.75962 
L 762.693953 140.281167 
L 763.587452 132.146083 
L 764.510734 218.679192 
L 765.434016 283.098915 
L 767.250797 423.078187 
L 768.144295 447.787515 
L 769.990859 429.667313 
L 770.854575 398.69182 
L 771.777857 320.871109 
L 772.671355 203.75962 
L 773.594637 140.281167 
L 774.488136 132.146083 
L 775.411418 218.679192 
L 776.3347 283.098915 
L 778.151481 423.078187 
L 779.04498 447.787515 
L 780.891544 429.667313 
L 781.725476 398.69182 
L 782.648758 320.871109 
L 783.542256 203.75962 
L 784.465538 140.281167 
L 785.359037 132.146083 
L 786.282319 218.679192 
L 787.205601 283.098915 
L 789.022382 423.078187 
L 789.915881 447.787515 
L 791.762445 429.667313 
L 792.596377 398.69182 
L 793.519659 320.871109 
L 794.413157 203.75962 
L 795.336439 140.281167 
L 796.229938 132.146083 
L 797.15322 218.679192 
L 798.076502 283.098915 
L 799.893283 423.078187 
L 800.786782 447.787515 
L 802.633346 429.667313 
L 803.467278 398.69182 
L 804.39056 320.871109 
L 805.284059 203.75962 
L 806.207341 140.281167 
L 807.100839 132.146083 
L 808.024121 218.679192 
L 808.947403 283.098915 
L 810.764184 423.078187 
L 811.657683 447.787515 
L 813.504247 429.667313 
L 814.367962 398.69182 
L 815.291244 320.871109 
L 816.184743 203.75962 
L 817.108025 140.281167 
L 818.001524 132.146083 
L 818.924806 218.679192 
L 819.848088 283.098915 
L 821.664868 423.078187 
L 822.558367 447.787515 
L 824.404931 429.667313 
L 825.238863 398.69182 
L 826.162145 320.871109 
L 827.055644 203.75962 
L 827.978926 140.281167 
L 828.872425 132.146083 
L 829.795707 218.679192 
L 830.718989 283.098915 
L 832.535769 423.078187 
L 833.429268 447.787515 
L 835.275832 429.667313 
L 836.109764 398.69182 
L 837.033046 320.871109 
L 837.926545 203.75962 
L 838.849827 140.281167 
L 839.743326 132.146083 
L 840.666608 218.679192 
L 841.58989 283.098915 
L 843.40667 423.078187 
L 844.300169 447.787515 
L 846.146733 429.667313 
L 846.980665 398.69182 
L 847.903947 320.871109 
L 848.797446 203.75962 
L 849.720728 140.281167 
L 850.614227 132.146083 
L 851.537509 218.679192 
L 852.460791 283.098915 
L 854.277571 423.078187 
L 855.17107 447.787515 
L 857.017634 429.667313 
L 857.88135 398.69182 
L 858.804632 320.871109 
L 859.69813 203.75962 
L 860.621412 140.281167 
L 861.514911 132.146083 
L 862.438193 218.679192 
L 863.361475 283.098915 
L 865.178256 423.078187 
L 866.071755 447.787515 
L 867.918319 429.667313 
L 868.752251 398.69182 
L 869.675533 320.871109 
L 870.569031 203.75962 
L 871.492313 140.281167 
L 872.385812 132.146083 
L 873.309094 218.679192 
L 874.232376 283.098915 
L 876.049157 423.078187 
L 876.942656 447.787515 
L 878.78922 429.667313 
L 879.623152 398.69182 
L 880.546434 320.871109 
L 881.439932 203.75962 
L 882.363214 140.281167 
L 883.256713 132.146083 
L 884.179995 218.679192 
L 885.103277 283.098915 
L 886.920058 423.078187 
L 887.813557 447.787515 
L 889.660121 429.667313 
L 890.494053 398.69182 
L 891.417335 320.871109 
L 892.310833 203.75962 
L 893.234115 140.281167 
L 894.127614 132.146083 
L 895.050896 218.679192 
L 895.974178 283.098915 
L 897.790959 423.078187 
L 898.684458 447.787515 
L 900.531022 429.667313 
L 901.394737 398.69182 
L 902.318019 320.871109 
L 903.211518 203.75962 
L 904.1348 140.281167 
L 905.028299 132.146083 
L 905.951581 218.679192 
L 906.874863 283.098915 
L 908.691643 423.078187 
L 909.585142 447.787515 
L 911.431706 429.667313 
L 912.265638 398.69182 
L 913.18892 320.871109 
L 914.082419 203.75962 
L 915.005701 140.281167 
L 915.8992 132.146083 
L 916.822482 218.679192 
L 917.745764 283.098915 
L 919.562544 423.078187 
L 920.456043 447.787515 
L 922.302607 429.667313 
L 923.136539 398.69182 
L 924.059821 320.871109 
L 924.95332 203.75962 
L 925.876602 140.281167 
L 926.770101 132.146083 
L 927.693383 218.679192 
L 928.616665 283.098915 
L 930.433445 423.078187 
L 931.326944 447.787515 
L 933.173508 429.667313 
L 934.00744 398.69182 
L 934.930722 320.871109 
L 935.824221 203.75962 
L 936.747503 140.281167 
L 937.641002 132.146083 
L 938.564284 218.679192 
L 939.487566 283.098915 
L 941.304346 423.078187 
L 942.197845 447.787515 
L 944.044409 429.667313 
L 944.908125 398.69182 
L 945.831407 320.871109 
L 946.724905 203.75962 
L 947.648187 140.281167 
L 948.541686 132.146083 
L 949.464968 218.679192 
L 950.38825 283.098915 
L 952.205031 423.078187 
L 953.098529 447.787515 
L 954.945093 429.667313 
L 955.779026 398.69182 
L 956.702308 320.871109 
L 957.595806 203.75962 
L 958.519088 140.281167 
L 959.412587 132.146083 
L 960.335869 218.679192 
L 961.259151 283.098915 
L 963.075932 423.078187 
L 963.96943 447.787515 
L 965.815995 429.667313 
L 966.649927 398.69182 
L 967.573209 320.871109 
L 968.466707 203.75962 
L 969.389989 140.281167 
L 970.283488 132.146083 
L 971.20677 218.679192 
L 972.130052 283.098915 
L 973.946833 423.078187 
L 974.840332 447.787515 
L 976.686896 429.667313 
L 977.520828 398.69182 
L 978.44411 320.871109 
L 979.337608 203.75962 
L 980.26089 140.281167 
L 981.154389 132.146083 
L 982.077671 218.679192 
L 983.000953 283.098915 
L 984.817734 423.078187 
L 985.711233 447.787515 
L 987.557797 429.667313 
L 988.421512 398.69182 
L 989.344794 320.871109 
L 990.238293 203.75962 
L 991.161575 140.281167 
L 992.055073 132.146083 
L 992.978355 218.679192 
L 993.901637 283.098915 
L 995.718418 423.078187 
L 996.611917 447.787515 
L 998.458481 429.667313 
L 999.292413 398.69182 
L 1000.215695 320.871109 
L 1001.109194 203.75962 
L 1002.032476 140.281167 
L 1002.925975 132.146083 
L 1003.849257 218.679192 
L 1004.772539 283.098915 
L 1006.589319 423.078187 
L 1007.482818 447.787515 
L 1009.329382 429.667313 
L 1010.163314 398.69182 
L 1011.086596 320.871109 
L 1011.980095 203.75962 
L 1012.903377 140.281167 
L 1013.796876 132.146083 
L 1014.720158 218.679192 
L 1015.64344 283.098915 
L 1017.46022 423.078187 
L 1018.353719 447.787515 
L 1018.353719 447.787515 
" style="fill:none;stroke:#1f77b4;stroke-linecap:square;stroke-width:1.5;"/>
   </g>
   <g id="patch_8">
    <path d="M 630.981818 504 
L 630.981818 69.12 
" style="fill:none;stroke:#000000;stroke-linecap:square;stroke-linejoin:miter;stroke-width:0.8;"/>
   </g>
   <g id="patch_9">
    <path d="M 1036.8 504 
L 1036.8 69.12 
" style="fill:none;stroke:#000000;stroke-linecap:square;stroke-linejoin:miter;stroke-width:0.8;"/>
   </g>
   <g id="patch_10">
    <path d="M 630.981818 504 
L 1036.8 504 
" style="fill:none;stroke:#000000;stroke-linecap:square;stroke-linejoin:miter;stroke-width:0.8;"/>
   </g>
   <g id="patch_11">
    <path d="M 630.981818 69.12 
L 1036.8 69.12 
" style="fill:none;stroke:#000000;stroke-linecap:square;stroke-linejoin:miter;stroke-width:0.8;"/>
   </g>
   <g id="text_30">
    <!-- Average Evaporation -->
    <defs>
     <path d="M 34.1875 63.1875 
L 20.796875 26.90625 
L 47.609375 26.90625 
z
M 28.609375 72.90625 
L 39.796875 72.90625 
L 67.578125 0 
L 57.328125 0 
L 50.6875 18.703125 
L 17.828125 18.703125 
L 11.1875 0 
L 0.78125 0 
z
" id="DejaVuSans-65"/>
     <path d="M 56.203125 29.59375 
L 56.203125 25.203125 
L 14.890625 25.203125 
Q 15.484375 15.921875 20.484375 11.0625 
Q 25.484375 6.203125 34.421875 6.203125 
Q 39.59375 6.203125 44.453125 7.46875 
Q 49.3125 8.734375 54.109375 11.28125 
L 54.109375 2.78125 
Q 49.265625 0.734375 44.1875 -0.34375 
Q 39.109375 -1.421875 33.890625 -1.421875 
Q 20.796875 -1.421875 13.15625 6.1875 
Q 5.515625 13.8125 5.515625 26.8125 
Q 5.515625 40.234375 12.765625 48.109375 
Q 20.015625 56 32.328125 56 
Q 43.359375 56 49.78125 48.890625 
Q 56.203125 41.796875 56.203125 29.59375 
z
M 47.21875 32.234375 
Q 47.125 39.59375 43.09375 43.984375 
Q 39.0625 48.390625 32.421875 48.390625 
Q 24.90625 48.390625 20.390625 44.140625 
Q 15.875 39.890625 15.1875 32.171875 
z
" id="DejaVuSans-101"/>
     <path d="M 45.40625 27.984375 
Q 45.40625 37.75 41.375 43.109375 
Q 37.359375 48.484375 30.078125 48.484375 
Q 22.859375 48.484375 18.828125 43.109375 
Q 14.796875 37.75 14.796875 27.984375 
Q 14.796875 18.265625 18.828125 12.890625 
Q 22.859375 7.515625 30.078125 7.515625 
Q 37.359375 7.515625 41.375 12.890625 
Q 45.40625 18.265625 45.40625 27.984375 
z
M 54.390625 6.78125 
Q 54.390625 -7.171875 48.1875 -13.984375 
Q 42 -20.796875 29.203125 -20.796875 
Q 24.46875 -20.796875 20.265625 -20.09375 
Q 16.0625 -19.390625 12.109375 -17.921875 
L 12.109375 -9.1875 
Q 16.0625 -11.328125 19.921875 -12.34375 
Q 23.78125 -13.375 27.78125 -13.375 
Q 36.625 -13.375 41.015625 -8.765625 
Q 45.40625 -4.15625 45.40625 5.171875 
L 45.40625 9.625 
Q 42.625 4.78125 38.28125 2.390625 
Q 33.9375 0 27.875 0 
Q 17.828125 0 11.671875 7.65625 
Q 5.515625 15.328125 5.515625 27.984375 
Q 5.515625 40.671875 11.671875 48.328125 
Q 17.828125 56 27.875 56 
Q 33.9375 56 38.28125 53.609375 
Q 42.625 51.21875 45.40625 46.390625 
L 45.40625 54.6875 
L 54.390625 54.6875 
z
" id="DejaVuSans-103"/>
    </defs>
    <g transform="translate(770.860909 63.12)scale(0.12 -0.12)">
     <use xlink:href="#DejaVuSans-65"/>
     <use x="68.330078" xlink:href="#DejaVuSans-118"/>
     <use x="127.509766" xlink:href="#DejaVuSans-101"/>
     <use x="189.033203" xlink:href="#DejaVuSans-114"/>
     <use x="230.146484" xlink:href="#DejaVuSans-97"/>
     <use x="291.425781" xlink:href="#DejaVuSans-103"/>
     <use x="354.902344" xlink:href="#DejaVuSans-101"/>
     <use x="416.425781" xlink:href="#DejaVuSans-32"/>
     <use x="448.212891" xlink:href="#DejaVuSans-69"/>
     <use x="511.396484" xlink:href="#DejaVuSans-118"/>
     <use x="570.576172" xlink:href="#DejaVuSans-97"/>
     <use x="631.855469" xlink:href="#DejaVuSans-112"/>
     <use x="695.332031" xlink:href="#DejaVuSans-111"/>
     <use x="756.513672" xlink:href="#DejaVuSans-114"/>
     <use x="797.626953" xlink:href="#DejaVuSans-97"/>
     <use x="858.90625" xlink:href="#DejaVuSans-116"/>
     <use x="898.115234" xlink:href="#DejaVuSans-105"/>
     <use x="925.898438" xlink:href="#DejaVuSans-111"/>
     <use x="987.080078" xlink:href="#DejaVuSans-110"/>
    </g>
   </g>
  </g>
  <g id="text_31">
   <!-- Kings, New York -->
   <defs>
    <path d="M 9.8125 72.90625 
L 19.671875 72.90625 
L 19.671875 42.09375 
L 52.390625 72.90625 
L 65.09375 72.90625 
L 28.90625 38.921875 
L 67.671875 0 
L 54.6875 0 
L 19.671875 35.109375 
L 19.671875 0 
L 9.8125 0 
z
" id="DejaVuSans-75"/>
    <path d="M 44.28125 53.078125 
L 44.28125 44.578125 
Q 40.484375 46.53125 36.375 47.5 
Q 32.28125 48.484375 27.875 48.484375 
Q 21.1875 48.484375 17.84375 46.4375 
Q 14.5 44.390625 14.5 40.28125 
Q 14.5 37.15625 16.890625 35.375 
Q 19.28125 33.59375 26.515625 31.984375 
L 29.59375 31.296875 
Q 39.15625 29.25 43.1875 25.515625 
Q 47.21875 21.78125 47.21875 15.09375 
Q 47.21875 7.46875 41.1875 3.015625 
Q 35.15625 -1.421875 24.609375 -1.421875 
Q 20.21875 -1.421875 15.453125 -0.5625 
Q 10.6875 0.296875 5.421875 2 
L 5.421875 11.28125 
Q 10.40625 8.6875 15.234375 7.390625 
Q 20.0625 6.109375 24.8125 6.109375 
Q 31.15625 6.109375 34.5625 8.28125 
Q 37.984375 10.453125 37.984375 14.40625 
Q 37.984375 18.0625 35.515625 20.015625 
Q 33.0625 21.96875 24.703125 23.78125 
L 21.578125 24.515625 
Q 13.234375 26.265625 9.515625 29.90625 
Q 5.8125 33.546875 5.8125 39.890625 
Q 5.8125 47.609375 11.28125 51.796875 
Q 16.75 56 26.8125 56 
Q 31.78125 56 36.171875 55.265625 
Q 40.578125 54.546875 44.28125 53.078125 
z
" id="DejaVuSans-115"/>
    <path d="M 11.71875 12.40625 
L 22.015625 12.40625 
L 22.015625 4 
L 14.015625 -11.625 
L 7.71875 -11.625 
L 11.71875 4 
z
" id="DejaVuSans-44"/>
    <path d="M 9.8125 72.90625 
L 23.09375 72.90625 
L 55.421875 11.921875 
L 55.421875 72.90625 
L 64.984375 72.90625 
L 64.984375 0 
L 51.703125 0 
L 19.390625 60.984375 
L 19.390625 0 
L 9.8125 0 
z
" id="DejaVuSans-78"/>
    <path d="M 4.203125 54.6875 
L 13.1875 54.6875 
L 24.421875 12.015625 
L 35.59375 54.6875 
L 46.1875 54.6875 
L 57.421875 12.015625 
L 68.609375 54.6875 
L 77.59375 54.6875 
L 63.28125 0 
L 52.6875 0 
L 40.921875 44.828125 
L 29.109375 0 
L 18.5 0 
z
" id="DejaVuSans-119"/>
    <path d="M -0.203125 72.90625 
L 10.40625 72.90625 
L 30.609375 42.921875 
L 50.6875 72.90625 
L 61.28125 72.90625 
L 35.5 34.71875 
L 35.5 0 
L 25.59375 0 
L 25.59375 34.71875 
z
" id="DejaVuSans-89"/>
    <path d="M 9.078125 75.984375 
L 18.109375 75.984375 
L 18.109375 31.109375 
L 44.921875 54.6875 
L 56.390625 54.6875 
L 27.390625 29.109375 
L 57.625 0 
L 45.90625 0 
L 18.109375 26.703125 
L 18.109375 0 
L 9.078125 0 
z
" id="DejaVuSans-107"/>
   </defs>
   <g transform="translate(527.588438 20.638125)scale(0.12 -0.12)">
    <use xlink:href="#DejaVuSans-75"/>
    <use x="65.576172" xlink:href="#DejaVuSans-105"/>
    <use x="93.359375" xlink:href="#DejaVuSans-110"/>
    <use x="156.738281" xlink:href="#DejaVuSans-103"/>
    <use x="220.214844" xlink:href="#DejaVuSans-115"/>
    <use x="272.314453" xlink:href="#DejaVuSans-44"/>
    <use x="304.101562" xlink:href="#DejaVuSans-32"/>
    <use x="335.888672" xlink:href="#DejaVuSans-78"/>
    <use x="410.693359" xlink:href="#DejaVuSans-101"/>
    <use x="472.216797" xlink:href="#DejaVuSans-119"/>
    <use x="554.003906" xlink:href="#DejaVuSans-32"/>
    <use x="585.791016" xlink:href="#DejaVuSans-89"/>
    <use x="646.671875" xlink:href="#DejaVuSans-111"/>
    <use x="707.853516" xlink:href="#DejaVuSans-114"/>
    <use x="748.966797" xlink:href="#DejaVuSans-107"/>
   </g>
  </g>
 </g>
 <defs>
  <clipPath id="pfe24fd023d">
   <rect height="434.88" width="405.818182" x="144" y="69.12"/>
  </clipPath>
  <clipPath id="p77de9180fe">
   <rect height="434.88" width="405.818182" x="630.981818" y="69.12"/>
  </clipPath>
 </defs>
</svg>
