<?xml version="1.0" encoding="utf-8" standalone="no"?>
<!DOCTYPE svg PUBLIC "-//W3C//DTD SVG 1.1//EN"
  "http://www.w3.org/Graphics/SVG/1.1/DTD/svg11.dtd">
<!-- Created with matplotlib (https://matplotlib.org/) -->
<svg height="576pt" version="1.1" viewBox="0 0 1152 576" width="1152pt" xmlns="http://www.w3.org/2000/svg" xmlns:xlink="http://www.w3.org/1999/xlink">
 <defs>
  <style type="text/css">
*{stroke-linecap:butt;stroke-linejoin:round;}
  </style>
 </defs>
 <g id="figure_1">
  <g id="patch_1">
   <path d="M 0 576 
L 1152 576 
L 1152 0 
L 0 0 
z
" style="fill:#ffffff;"/>
  </g>
  <g id="axes_1">
   <g id="patch_2">
    <path d="M 144 504 
L 549.818182 504 
L 549.818182 69.12 
L 144 69.12 
z
" style="fill:#ffffff;"/>
   </g>
   <g id="matplotlib.axis_1">
    <g id="xtick_1">
     <g id="line2d_1">
      <defs>
       <path d="M 0 0 
L 0 3.5 
" id="m48c82ea643" style="stroke:#000000;stroke-width:0.8;"/>
      </defs>
      <g>
       <use style="stroke:#000000;stroke-width:0.8;" x="151.545597" xlink:href="#m48c82ea643" y="504"/>
      </g>
     </g>
     <g id="text_1">
      <!-- 1980 -->
      <defs>
       <path d="M 12.40625 8.296875 
L 28.515625 8.296875 
L 28.515625 63.921875 
L 10.984375 60.40625 
L 10.984375 69.390625 
L 28.421875 72.90625 
L 38.28125 72.90625 
L 38.28125 8.296875 
L 54.390625 8.296875 
L 54.390625 0 
L 12.40625 0 
z
" id="DejaVuSans-49"/>
       <path d="M 10.984375 1.515625 
L 10.984375 10.5 
Q 14.703125 8.734375 18.5 7.8125 
Q 22.3125 6.890625 25.984375 6.890625 
Q 35.75 6.890625 40.890625 13.453125 
Q 46.046875 20.015625 46.78125 33.40625 
Q 43.953125 29.203125 39.59375 26.953125 
Q 35.25 24.703125 29.984375 24.703125 
Q 19.046875 24.703125 12.671875 31.3125 
Q 6.296875 37.9375 6.296875 49.421875 
Q 6.296875 60.640625 12.9375 67.421875 
Q 19.578125 74.21875 30.609375 74.21875 
Q 43.265625 74.21875 49.921875 64.515625 
Q 56.59375 54.828125 56.59375 36.375 
Q 56.59375 19.140625 48.40625 8.859375 
Q 40.234375 -1.421875 26.421875 -1.421875 
Q 22.703125 -1.421875 18.890625 -0.6875 
Q 15.09375 0.046875 10.984375 1.515625 
z
M 30.609375 32.421875 
Q 37.25 32.421875 41.125 36.953125 
Q 45.015625 41.5 45.015625 49.421875 
Q 45.015625 57.28125 41.125 61.84375 
Q 37.25 66.40625 30.609375 66.40625 
Q 23.96875 66.40625 20.09375 61.84375 
Q 16.21875 57.28125 16.21875 49.421875 
Q 16.21875 41.5 20.09375 36.953125 
Q 23.96875 32.421875 30.609375 32.421875 
z
" id="DejaVuSans-57"/>
       <path d="M 31.78125 34.625 
Q 24.75 34.625 20.71875 30.859375 
Q 16.703125 27.09375 16.703125 20.515625 
Q 16.703125 13.921875 20.71875 10.15625 
Q 24.75 6.390625 31.78125 6.390625 
Q 38.8125 6.390625 42.859375 10.171875 
Q 46.921875 13.96875 46.921875 20.515625 
Q 46.921875 27.09375 42.890625 30.859375 
Q 38.875 34.625 31.78125 34.625 
z
M 21.921875 38.8125 
Q 15.578125 40.375 12.03125 44.71875 
Q 8.5 49.078125 8.5 55.328125 
Q 8.5 64.0625 14.71875 69.140625 
Q 20.953125 74.21875 31.78125 74.21875 
Q 42.671875 74.21875 48.875 69.140625 
Q 55.078125 64.0625 55.078125 55.328125 
Q 55.078125 49.078125 51.53125 44.71875 
Q 48 40.375 41.703125 38.8125 
Q 48.828125 37.15625 52.796875 32.3125 
Q 56.78125 27.484375 56.78125 20.515625 
Q 56.78125 9.90625 50.3125 4.234375 
Q 43.84375 -1.421875 31.78125 -1.421875 
Q 19.734375 -1.421875 13.25 4.234375 
Q 6.78125 9.90625 6.78125 20.515625 
Q 6.78125 27.484375 10.78125 32.3125 
Q 14.796875 37.15625 21.921875 38.8125 
z
M 18.3125 54.390625 
Q 18.3125 48.734375 21.84375 45.5625 
Q 25.390625 42.390625 31.78125 42.390625 
Q 38.140625 42.390625 41.71875 45.5625 
Q 45.3125 48.734375 45.3125 54.390625 
Q 45.3125 60.0625 41.71875 63.234375 
Q 38.140625 66.40625 31.78125 66.40625 
Q 25.390625 66.40625 21.84375 63.234375 
Q 18.3125 60.0625 18.3125 54.390625 
z
" id="DejaVuSans-56"/>
       <path d="M 31.78125 66.40625 
Q 24.171875 66.40625 20.328125 58.90625 
Q 16.5 51.421875 16.5 36.375 
Q 16.5 21.390625 20.328125 13.890625 
Q 24.171875 6.390625 31.78125 6.390625 
Q 39.453125 6.390625 43.28125 13.890625 
Q 47.125 21.390625 47.125 36.375 
Q 47.125 51.421875 43.28125 58.90625 
Q 39.453125 66.40625 31.78125 66.40625 
z
M 31.78125 74.21875 
Q 44.046875 74.21875 50.515625 64.515625 
Q 56.984375 54.828125 56.984375 36.375 
Q 56.984375 17.96875 50.515625 8.265625 
Q 44.046875 -1.421875 31.78125 -1.421875 
Q 19.53125 -1.421875 13.0625 8.265625 
Q 6.59375 17.96875 6.59375 36.375 
Q 6.59375 54.828125 13.0625 64.515625 
Q 19.53125 74.21875 31.78125 74.21875 
z
" id="DejaVuSans-48"/>
      </defs>
      <g transform="translate(138.820597 518.598438)scale(0.1 -0.1)">
       <use xlink:href="#DejaVuSans-49"/>
       <use x="63.623047" xlink:href="#DejaVuSans-57"/>
       <use x="127.246094" xlink:href="#DejaVuSans-56"/>
       <use x="190.869141" xlink:href="#DejaVuSans-48"/>
      </g>
     </g>
    </g>
    <g id="xtick_2">
     <g id="line2d_2">
      <g>
       <use style="stroke:#000000;stroke-width:0.8;" x="195.058984" xlink:href="#m48c82ea643" y="504"/>
      </g>
     </g>
     <g id="text_2">
      <!-- 1984 -->
      <defs>
       <path d="M 37.796875 64.3125 
L 12.890625 25.390625 
L 37.796875 25.390625 
z
M 35.203125 72.90625 
L 47.609375 72.90625 
L 47.609375 25.390625 
L 58.015625 25.390625 
L 58.015625 17.1875 
L 47.609375 17.1875 
L 47.609375 0 
L 37.796875 0 
L 37.796875 17.1875 
L 4.890625 17.1875 
L 4.890625 26.703125 
z
" id="DejaVuSans-52"/>
      </defs>
      <g transform="translate(182.333984 518.598438)scale(0.1 -0.1)">
       <use xlink:href="#DejaVuSans-49"/>
       <use x="63.623047" xlink:href="#DejaVuSans-57"/>
       <use x="127.246094" xlink:href="#DejaVuSans-56"/>
       <use x="190.869141" xlink:href="#DejaVuSans-52"/>
      </g>
     </g>
    </g>
    <g id="xtick_3">
     <g id="line2d_3">
      <g>
       <use style="stroke:#000000;stroke-width:0.8;" x="238.572372" xlink:href="#m48c82ea643" y="504"/>
      </g>
     </g>
     <g id="text_3">
      <!-- 1988 -->
      <g transform="translate(225.847372 518.598438)scale(0.1 -0.1)">
       <use xlink:href="#DejaVuSans-49"/>
       <use x="63.623047" xlink:href="#DejaVuSans-57"/>
       <use x="127.246094" xlink:href="#DejaVuSans-56"/>
       <use x="190.869141" xlink:href="#DejaVuSans-56"/>
      </g>
     </g>
    </g>
    <g id="xtick_4">
     <g id="line2d_4">
      <g>
       <use style="stroke:#000000;stroke-width:0.8;" x="282.085759" xlink:href="#m48c82ea643" y="504"/>
      </g>
     </g>
     <g id="text_4">
      <!-- 1992 -->
      <defs>
       <path d="M 19.1875 8.296875 
L 53.609375 8.296875 
L 53.609375 0 
L 7.328125 0 
L 7.328125 8.296875 
Q 12.9375 14.109375 22.625 23.890625 
Q 32.328125 33.6875 34.8125 36.53125 
Q 39.546875 41.84375 41.421875 45.53125 
Q 43.3125 49.21875 43.3125 52.78125 
Q 43.3125 58.59375 39.234375 62.25 
Q 35.15625 65.921875 28.609375 65.921875 
Q 23.96875 65.921875 18.8125 64.3125 
Q 13.671875 62.703125 7.8125 59.421875 
L 7.8125 69.390625 
Q 13.765625 71.78125 18.9375 73 
Q 24.125 74.21875 28.421875 74.21875 
Q 39.75 74.21875 46.484375 68.546875 
Q 53.21875 62.890625 53.21875 53.421875 
Q 53.21875 48.921875 51.53125 44.890625 
Q 49.859375 40.875 45.40625 35.40625 
Q 44.1875 33.984375 37.640625 27.21875 
Q 31.109375 20.453125 19.1875 8.296875 
z
" id="DejaVuSans-50"/>
      </defs>
      <g transform="translate(269.360759 518.598438)scale(0.1 -0.1)">
       <use xlink:href="#DejaVuSans-49"/>
       <use x="63.623047" xlink:href="#DejaVuSans-57"/>
       <use x="127.246094" xlink:href="#DejaVuSans-57"/>
       <use x="190.869141" xlink:href="#DejaVuSans-50"/>
      </g>
     </g>
    </g>
    <g id="xtick_5">
     <g id="line2d_5">
      <g>
       <use style="stroke:#000000;stroke-width:0.8;" x="325.599147" xlink:href="#m48c82ea643" y="504"/>
      </g>
     </g>
     <g id="text_5">
      <!-- 1996 -->
      <defs>
       <path d="M 33.015625 40.375 
Q 26.375 40.375 22.484375 35.828125 
Q 18.609375 31.296875 18.609375 23.390625 
Q 18.609375 15.53125 22.484375 10.953125 
Q 26.375 6.390625 33.015625 6.390625 
Q 39.65625 6.390625 43.53125 10.953125 
Q 47.40625 15.53125 47.40625 23.390625 
Q 47.40625 31.296875 43.53125 35.828125 
Q 39.65625 40.375 33.015625 40.375 
z
M 52.59375 71.296875 
L 52.59375 62.3125 
Q 48.875 64.0625 45.09375 64.984375 
Q 41.3125 65.921875 37.59375 65.921875 
Q 27.828125 65.921875 22.671875 59.328125 
Q 17.53125 52.734375 16.796875 39.40625 
Q 19.671875 43.65625 24.015625 45.921875 
Q 28.375 48.1875 33.59375 48.1875 
Q 44.578125 48.1875 50.953125 41.515625 
Q 57.328125 34.859375 57.328125 23.390625 
Q 57.328125 12.15625 50.6875 5.359375 
Q 44.046875 -1.421875 33.015625 -1.421875 
Q 20.359375 -1.421875 13.671875 8.265625 
Q 6.984375 17.96875 6.984375 36.375 
Q 6.984375 53.65625 15.1875 63.9375 
Q 23.390625 74.21875 37.203125 74.21875 
Q 40.921875 74.21875 44.703125 73.484375 
Q 48.484375 72.75 52.59375 71.296875 
z
" id="DejaVuSans-54"/>
      </defs>
      <g transform="translate(312.874147 518.598438)scale(0.1 -0.1)">
       <use xlink:href="#DejaVuSans-49"/>
       <use x="63.623047" xlink:href="#DejaVuSans-57"/>
       <use x="127.246094" xlink:href="#DejaVuSans-57"/>
       <use x="190.869141" xlink:href="#DejaVuSans-54"/>
      </g>
     </g>
    </g>
    <g id="xtick_6">
     <g id="line2d_6">
      <g>
       <use style="stroke:#000000;stroke-width:0.8;" x="369.112534" xlink:href="#m48c82ea643" y="504"/>
      </g>
     </g>
     <g id="text_6">
      <!-- 2000 -->
      <g transform="translate(356.387534 518.598438)scale(0.1 -0.1)">
       <use xlink:href="#DejaVuSans-50"/>
       <use x="63.623047" xlink:href="#DejaVuSans-48"/>
       <use x="127.246094" xlink:href="#DejaVuSans-48"/>
       <use x="190.869141" xlink:href="#DejaVuSans-48"/>
      </g>
     </g>
    </g>
    <g id="xtick_7">
     <g id="line2d_7">
      <g>
       <use style="stroke:#000000;stroke-width:0.8;" x="412.625921" xlink:href="#m48c82ea643" y="504"/>
      </g>
     </g>
     <g id="text_7">
      <!-- 2004 -->
      <g transform="translate(399.900921 518.598438)scale(0.1 -0.1)">
       <use xlink:href="#DejaVuSans-50"/>
       <use x="63.623047" xlink:href="#DejaVuSans-48"/>
       <use x="127.246094" xlink:href="#DejaVuSans-48"/>
       <use x="190.869141" xlink:href="#DejaVuSans-52"/>
      </g>
     </g>
    </g>
    <g id="xtick_8">
     <g id="line2d_8">
      <g>
       <use style="stroke:#000000;stroke-width:0.8;" x="456.139309" xlink:href="#m48c82ea643" y="504"/>
      </g>
     </g>
     <g id="text_8">
      <!-- 2008 -->
      <g transform="translate(443.414309 518.598438)scale(0.1 -0.1)">
       <use xlink:href="#DejaVuSans-50"/>
       <use x="63.623047" xlink:href="#DejaVuSans-48"/>
       <use x="127.246094" xlink:href="#DejaVuSans-48"/>
       <use x="190.869141" xlink:href="#DejaVuSans-56"/>
      </g>
     </g>
    </g>
    <g id="xtick_9">
     <g id="line2d_9">
      <g>
       <use style="stroke:#000000;stroke-width:0.8;" x="499.652696" xlink:href="#m48c82ea643" y="504"/>
      </g>
     </g>
     <g id="text_9">
      <!-- 2012 -->
      <g transform="translate(486.927696 518.598438)scale(0.1 -0.1)">
       <use xlink:href="#DejaVuSans-50"/>
       <use x="63.623047" xlink:href="#DejaVuSans-48"/>
       <use x="127.246094" xlink:href="#DejaVuSans-49"/>
       <use x="190.869141" xlink:href="#DejaVuSans-50"/>
      </g>
     </g>
    </g>
    <g id="xtick_10">
     <g id="line2d_10">
      <g>
       <use style="stroke:#000000;stroke-width:0.8;" x="543.166084" xlink:href="#m48c82ea643" y="504"/>
      </g>
     </g>
     <g id="text_10">
      <!-- 2016 -->
      <g transform="translate(530.441084 518.598438)scale(0.1 -0.1)">
       <use xlink:href="#DejaVuSans-50"/>
       <use x="63.623047" xlink:href="#DejaVuSans-48"/>
       <use x="127.246094" xlink:href="#DejaVuSans-49"/>
       <use x="190.869141" xlink:href="#DejaVuSans-54"/>
      </g>
     </g>
    </g>
   </g>
   <g id="matplotlib.axis_2">
    <g id="ytick_1">
     <g id="line2d_11">
      <defs>
       <path d="M 0 0 
L -3.5 0 
" id="m7d756d590b" style="stroke:#000000;stroke-width:0.8;"/>
      </defs>
      <g>
       <use style="stroke:#000000;stroke-width:0.8;" x="144" xlink:href="#m7d756d590b" y="490.592708"/>
      </g>
     </g>
     <g id="text_11">
      <!-- 0.025 -->
      <defs>
       <path d="M 10.6875 12.40625 
L 21 12.40625 
L 21 0 
L 10.6875 0 
z
" id="DejaVuSans-46"/>
       <path d="M 10.796875 72.90625 
L 49.515625 72.90625 
L 49.515625 64.59375 
L 19.828125 64.59375 
L 19.828125 46.734375 
Q 21.96875 47.46875 24.109375 47.828125 
Q 26.265625 48.1875 28.421875 48.1875 
Q 40.625 48.1875 47.75 41.5 
Q 54.890625 34.8125 54.890625 23.390625 
Q 54.890625 11.625 47.5625 5.09375 
Q 40.234375 -1.421875 26.90625 -1.421875 
Q 22.3125 -1.421875 17.546875 -0.640625 
Q 12.796875 0.140625 7.71875 1.703125 
L 7.71875 11.625 
Q 12.109375 9.234375 16.796875 8.0625 
Q 21.484375 6.890625 26.703125 6.890625 
Q 35.15625 6.890625 40.078125 11.328125 
Q 45.015625 15.765625 45.015625 23.390625 
Q 45.015625 31 40.078125 35.4375 
Q 35.15625 39.890625 26.703125 39.890625 
Q 22.75 39.890625 18.8125 39.015625 
Q 14.890625 38.140625 10.796875 36.28125 
z
" id="DejaVuSans-53"/>
      </defs>
      <g transform="translate(108.371875 494.391926)scale(0.1 -0.1)">
       <use xlink:href="#DejaVuSans-48"/>
       <use x="63.623047" xlink:href="#DejaVuSans-46"/>
       <use x="95.410156" xlink:href="#DejaVuSans-48"/>
       <use x="159.033203" xlink:href="#DejaVuSans-50"/>
       <use x="222.65625" xlink:href="#DejaVuSans-53"/>
      </g>
     </g>
    </g>
    <g id="ytick_2">
     <g id="line2d_12">
      <g>
       <use style="stroke:#000000;stroke-width:0.8;" x="144" xlink:href="#m7d756d590b" y="435.167609"/>
      </g>
     </g>
     <g id="text_12">
      <!-- 0.050 -->
      <g transform="translate(108.371875 438.966828)scale(0.1 -0.1)">
       <use xlink:href="#DejaVuSans-48"/>
       <use x="63.623047" xlink:href="#DejaVuSans-46"/>
       <use x="95.410156" xlink:href="#DejaVuSans-48"/>
       <use x="159.033203" xlink:href="#DejaVuSans-53"/>
       <use x="222.65625" xlink:href="#DejaVuSans-48"/>
      </g>
     </g>
    </g>
    <g id="ytick_3">
     <g id="line2d_13">
      <g>
       <use style="stroke:#000000;stroke-width:0.8;" x="144" xlink:href="#m7d756d590b" y="379.742511"/>
      </g>
     </g>
     <g id="text_13">
      <!-- 0.075 -->
      <defs>
       <path d="M 8.203125 72.90625 
L 55.078125 72.90625 
L 55.078125 68.703125 
L 28.609375 0 
L 18.3125 0 
L 43.21875 64.59375 
L 8.203125 64.59375 
z
" id="DejaVuSans-55"/>
      </defs>
      <g transform="translate(108.371875 383.541729)scale(0.1 -0.1)">
       <use xlink:href="#DejaVuSans-48"/>
       <use x="63.623047" xlink:href="#DejaVuSans-46"/>
       <use x="95.410156" xlink:href="#DejaVuSans-48"/>
       <use x="159.033203" xlink:href="#DejaVuSans-55"/>
       <use x="222.65625" xlink:href="#DejaVuSans-53"/>
      </g>
     </g>
    </g>
    <g id="ytick_4">
     <g id="line2d_14">
      <g>
       <use style="stroke:#000000;stroke-width:0.8;" x="144" xlink:href="#m7d756d590b" y="324.317412"/>
      </g>
     </g>
     <g id="text_14">
      <!-- 0.100 -->
      <g transform="translate(108.371875 328.116631)scale(0.1 -0.1)">
       <use xlink:href="#DejaVuSans-48"/>
       <use x="63.623047" xlink:href="#DejaVuSans-46"/>
       <use x="95.410156" xlink:href="#DejaVuSans-49"/>
       <use x="159.033203" xlink:href="#DejaVuSans-48"/>
       <use x="222.65625" xlink:href="#DejaVuSans-48"/>
      </g>
     </g>
    </g>
    <g id="ytick_5">
     <g id="line2d_15">
      <g>
       <use style="stroke:#000000;stroke-width:0.8;" x="144" xlink:href="#m7d756d590b" y="268.892313"/>
      </g>
     </g>
     <g id="text_15">
      <!-- 0.125 -->
      <g transform="translate(108.371875 272.691532)scale(0.1 -0.1)">
       <use xlink:href="#DejaVuSans-48"/>
       <use x="63.623047" xlink:href="#DejaVuSans-46"/>
       <use x="95.410156" xlink:href="#DejaVuSans-49"/>
       <use x="159.033203" xlink:href="#DejaVuSans-50"/>
       <use x="222.65625" xlink:href="#DejaVuSans-53"/>
      </g>
     </g>
    </g>
    <g id="ytick_6">
     <g id="line2d_16">
      <g>
       <use style="stroke:#000000;stroke-width:0.8;" x="144" xlink:href="#m7d756d590b" y="213.467215"/>
      </g>
     </g>
     <g id="text_16">
      <!-- 0.150 -->
      <g transform="translate(108.371875 217.266434)scale(0.1 -0.1)">
       <use xlink:href="#DejaVuSans-48"/>
       <use x="63.623047" xlink:href="#DejaVuSans-46"/>
       <use x="95.410156" xlink:href="#DejaVuSans-49"/>
       <use x="159.033203" xlink:href="#DejaVuSans-53"/>
       <use x="222.65625" xlink:href="#DejaVuSans-48"/>
      </g>
     </g>
    </g>
    <g id="ytick_7">
     <g id="line2d_17">
      <g>
       <use style="stroke:#000000;stroke-width:0.8;" x="144" xlink:href="#m7d756d590b" y="158.042116"/>
      </g>
     </g>
     <g id="text_17">
      <!-- 0.175 -->
      <g transform="translate(108.371875 161.841335)scale(0.1 -0.1)">
       <use xlink:href="#DejaVuSans-48"/>
       <use x="63.623047" xlink:href="#DejaVuSans-46"/>
       <use x="95.410156" xlink:href="#DejaVuSans-49"/>
       <use x="159.033203" xlink:href="#DejaVuSans-55"/>
       <use x="222.65625" xlink:href="#DejaVuSans-53"/>
      </g>
     </g>
    </g>
    <g id="ytick_8">
     <g id="line2d_18">
      <g>
       <use style="stroke:#000000;stroke-width:0.8;" x="144" xlink:href="#m7d756d590b" y="102.617018"/>
      </g>
     </g>
     <g id="text_18">
      <!-- 0.200 -->
      <g transform="translate(108.371875 106.416237)scale(0.1 -0.1)">
       <use xlink:href="#DejaVuSans-48"/>
       <use x="63.623047" xlink:href="#DejaVuSans-46"/>
       <use x="95.410156" xlink:href="#DejaVuSans-50"/>
       <use x="159.033203" xlink:href="#DejaVuSans-48"/>
       <use x="222.65625" xlink:href="#DejaVuSans-48"/>
      </g>
     </g>
    </g>
   </g>
   <g id="line2d_19">
    <path clip-path="url(#pbfca37875f)" d="M 162.446281 455.267966 
L 163.369563 386.074068 
L 164.203495 334.684799 
L 165.126777 252.825666 
L 166.020276 189.643489 
L 166.943558 149.812475 
L 167.837057 141.80839 
L 168.760339 220.412664 
L 169.683621 224.915792 
L 170.577119 323.752802 
L 171.500401 377.488581 
L 172.3939 403.233055 
L 173.317182 411.387909 
L 174.240464 384.518995 
L 175.997678 221.733665 
L 176.891177 190.299755 
L 177.814459 131.58612 
L 178.707958 164.790049 
L 179.63124 225.645288 
L 181.44802 378.961589 
L 182.371302 413.680864 
L 183.264801 415.363284 
L 184.188083 423.044491 
L 185.945297 293.692418 
L 186.868579 193.802669 
L 187.762078 173.362416 
L 188.68536 166.226609 
L 189.578859 116.352374 
L 190.502141 189.780877 
L 191.425423 220.267389 
L 192.318921 277.360775 
L 193.242203 355.929153 
L 194.135702 412.53114 
L 195.058984 414.931892 
L 195.982266 316.721961 
L 196.845982 262.278131 
L 197.769264 156.992774 
L 198.662762 160.145663 
L 199.586044 158.705899 
L 200.479543 176.634088 
L 201.402825 218.671925 
L 202.326107 287.79075 
L 204.142888 375.791167 
L 205.036386 422.651212 
L 205.959668 421.530394 
L 206.88295 386.615274 
L 207.716883 270.684725 
L 208.640165 193.748937 
L 209.533663 161.841349 
L 210.456945 136.691241 
L 211.350444 165.320081 
L 212.273726 225.974857 
L 213.197008 294.286024 
L 214.090507 328.802194 
L 215.013789 377.145922 
L 215.907287 415.712112 
L 216.83057 418.760472 
L 219.511066 232.377422 
L 220.404564 197.52053 
L 221.327846 152.482238 
L 222.221345 118.984512 
L 223.144627 226.396365 
L 224.067909 253.908059 
L 224.961408 312.454465 
L 225.88469 399.904717 
L 226.778189 422.507467 
L 227.701471 389.584546 
L 228.624753 338.778656 
L 230.381967 164.796209 
L 231.275465 206.602471 
L 232.198747 148.583184 
L 233.092246 123.746434 
L 234.015528 164.499957 
L 234.93881 213.283017 
L 235.832309 315.905021 
L 236.755591 401.369442 
L 237.64909 421.88894 
L 238.572372 408.490277 
L 239.495654 374.255074 
L 240.359369 301.058738 
L 241.282651 198.935863 
L 242.17615 185.214862 
L 243.099432 181.145582 
L 244.916212 271.642278 
L 245.839494 341.280731 
L 246.732993 420.26714 
L 247.656275 466.987259 
L 248.549774 482.638204 
L 249.473056 454.921458 
L 250.396338 415.926893 
L 251.23027 353.970594 
L 253.047051 195.399965 
L 253.970333 202.363631 
L 254.863832 164.328233 
L 255.787114 217.120327 
L 256.710396 277.547587 
L 257.603894 363.055491 
L 258.527176 408.458396 
L 259.420675 458.587064 
L 260.343957 426.461095 
L 262.101171 323.060743 
L 263.024453 211.186405 
L 264.841234 130.068984 
L 265.734733 176.356149 
L 266.658015 251.163526 
L 268.474795 367.414384 
L 269.398077 413.410781 
L 270.291576 449.683537 
L 271.214858 419.506606 
L 272.13814 370.011978 
L 273.895354 181.848087 
L 274.788853 155.782004 
L 275.712135 112.026672 
L 276.605634 105.485991 
L 278.452198 250.430076 
L 279.345696 309.501332 
L 280.268978 386.744172 
L 281.162477 417.288973 
L 282.085759 402.833773 
L 283.872756 251.354521 
L 284.796039 179.732038 
L 285.689537 167.201434 
L 286.612819 96.68101 
L 287.506318 117.131419 
L 290.246381 326.807155 
L 291.169663 398.407101 
L 292.063161 424.212299 
L 292.986443 420.947036 
L 293.909725 372.438055 
L 295.66694 182.33704 
L 296.560438 134.443006 
L 297.48372 113.093562 
L 298.377219 99.752365 
L 299.300501 180.558738 
L 300.223783 235.781197 
L 302.040564 405.729907 
L 302.934062 422.207927 
L 303.857344 436.247769 
L 304.780626 380.115058 
L 306.537841 235.410507 
L 307.431339 176.071592 
L 308.354621 152.641185 
L 309.24812 149.041962 
L 310.171402 250.959297 
L 311.094684 259.653943 
L 311.988183 332.327562 
L 313.804963 427.900755 
L 314.728245 401.816744 
L 315.651527 352.178183 
L 316.48546 292.591837 
L 317.408742 185.230427 
L 318.30224 148.236281 
L 319.225522 88.887273 
L 320.119021 131.818068 
L 321.042303 185.816979 
L 321.965585 252.287852 
L 322.859084 301.42129 
L 323.782366 390.143254 
L 324.675865 423.917587 
L 325.599147 420.102731 
L 326.522429 391.538849 
L 327.386144 341.708648 
L 328.309426 241.732683 
L 329.202925 254.307279 
L 330.126207 221.919936 
L 331.019705 222.51115 
L 331.942987 275.844805 
L 332.866269 266.235516 
L 334.68305 412.732509 
L 335.576549 432.809335 
L 336.499831 427.150293 
L 337.423113 383.538759 
L 338.257045 294.92585 
L 339.180327 209.8915 
L 340.997108 106.026178 
L 341.890606 102.654784 
L 342.813888 180.400499 
L 343.73717 236.790755 
L 344.630669 305.556351 
L 345.553951 393.193081 
L 346.44745 406.600776 
L 347.370732 406.868393 
L 348.294014 344.560769 
L 349.127946 278.718236 
L 350.051228 189.991059 
L 351.868009 148.468895 
L 352.761507 237.918701 
L 353.68479 277.216811 
L 355.50157 338.061562 
L 356.424852 397.509418 
L 357.318351 416.366796 
L 358.241633 395.495484 
L 359.164915 331.15271 
L 359.998847 310.230329 
L 360.922129 187.366537 
L 361.815628 174.026547 
L 362.73891 146.541677 
L 363.632409 159.911841 
L 364.555691 175.42698 
L 366.372471 359.177913 
L 367.295753 432.71954 
L 368.189252 435.806763 
L 369.112534 459.923064 
L 370.035816 400.937696 
L 370.899531 361.251614 
L 371.822813 260.616407 
L 372.716312 186.2979 
L 373.639594 192.294481 
L 374.533093 233.327796 
L 375.456375 342.568727 
L 376.379657 364.469471 
L 377.273156 394.728363 
L 378.196438 407.3076 
L 379.089936 443.732904 
L 380.013218 428.408614 
L 380.9365 384.711415 
L 381.770432 327.585992 
L 382.693714 209.037559 
L 383.587213 179.354586 
L 384.510495 121.267041 
L 385.403994 115.837866 
L 386.327276 215.734607 
L 387.250558 238.816425 
L 388.144057 303.38707 
L 389.067339 383.905733 
L 389.960837 406.515247 
L 390.884119 398.142054 
L 391.807401 351.771888 
L 392.641334 299.151746 
L 393.564616 202.369083 
L 394.458114 192.039891 
L 395.381396 153.678233 
L 396.274895 164.228761 
L 397.198177 214.367096 
L 398.121459 234.903283 
L 399.014958 328.654921 
L 399.93824 359.997829 
L 400.831738 398.982634 
L 401.75502 390.13468 
L 402.678302 360.20826 
L 403.512235 276.922869 
L 404.435517 201.979936 
L 405.329015 155.54144 
L 406.252297 147.741834 
L 407.145796 152.640686 
L 408.069078 202.391642 
L 408.99236 225.090617 
L 409.885859 311.66822 
L 410.809141 362.024832 
L 411.702639 400.410994 
L 412.625921 410.228415 
L 413.549203 350.181938 
L 415.336201 178.538332 
L 416.2297 140.410371 
L 418.04648 94.995188 
L 418.969762 135.200575 
L 419.893044 209.013919 
L 420.786543 313.154703 
L 421.709825 364.272213 
L 422.603324 396.224699 
L 423.526606 397.454115 
L 424.449888 354.489534 
L 426.207102 158.624823 
L 427.100601 166.923079 
L 428.023883 110.058208 
L 428.917381 145.927864 
L 430.763945 261.587571 
L 431.657444 373.239273 
L 432.580726 428.575666 
L 433.474225 443.298265 
L 434.397507 429.625565 
L 435.320789 392.062315 
L 436.154721 347.101343 
L 437.078003 249.444741 
L 437.971502 230.980527 
L 438.894784 143.536747 
L 439.788282 183.105638 
L 440.711564 194.56003 
L 441.634846 283.103828 
L 442.528345 330.306178 
L 443.451627 389.328915 
L 444.345126 423.414098 
L 445.268408 432.216176 
L 446.19169 370.059695 
L 447.948904 201.929971 
L 448.842403 148.248933 
L 449.765685 106.419488 
L 450.659183 124.173581 
L 451.582465 131.982301 
L 452.505747 195.021555 
L 453.399246 269.208897 
L 454.322528 368.019353 
L 455.216027 386.914232 
L 456.139309 401.858489 
L 457.062591 318.404225 
L 457.926306 258.303454 
L 458.849588 179.614586 
L 459.743087 138.881831 
L 460.666369 121.077878 
L 461.559868 166.212333 
L 462.48315 218.908535 
L 463.406432 233.385877 
L 465.223213 382.189747 
L 466.116711 416.606944 
L 467.039993 442.98008 
L 467.963275 381.82939 
L 468.797207 342.172088 
L 469.720489 215.054368 
L 470.613988 164.12804 
L 471.53727 119.89595 
L 472.430769 190.544315 
L 473.354051 279.7223 
L 474.277333 342.749338 
L 475.170832 346.668369 
L 476.094114 400.490884 
L 476.987612 430.08504 
L 477.910894 442.1503 
L 478.834176 390.864468 
L 480.59139 215.908787 
L 481.484889 183.385991 
L 482.408171 134.046284 
L 483.30167 137.159134 
L 484.224952 204.155626 
L 485.148234 253.798911 
L 486.041733 344.937889 
L 486.965015 413.010458 
L 487.858513 453.392783 
L 488.781795 434.905344 
L 489.705077 400.349001 
L 490.53901 342.480534 
L 491.462292 258.840832 
L 492.35579 342.468943 
L 493.279072 406.587416 
L 494.172571 381.3495 
L 495.095853 451.128691 
L 496.019135 484.232727 
L 496.912634 435.125952 
L 497.835916 436.770653 
L 498.729414 462.664923 
L 499.652696 433.298444 
L 500.575978 371.759564 
L 502.362976 191.688909 
L 503.256475 177.561009 
L 504.179757 125.07836 
L 505.073255 165.03053 
L 505.996537 215.445431 
L 506.919819 281.472175 
L 508.7366 433.825261 
L 509.630099 458.207614 
L 510.553381 440.335216 
L 511.476663 391.99231 
L 512.310595 373.309715 
L 513.233877 276.714498 
L 514.127376 263.875781 
L 515.050658 210.252658 
L 515.944156 290.375899 
L 516.867438 316.365672 
L 517.79072 351.441632 
L 518.684219 362.666634 
L 520.501 448.111245 
L 521.424282 451.175326 
L 522.347564 410.046504 
L 523.181496 354.232613 
L 524.104778 241.787226 
L 524.998277 224.983903 
L 525.921559 113.109877 
L 526.815057 143.717004 
L 527.738339 199.001893 
L 528.661621 285.114557 
L 529.55512 309.287467 
L 530.478402 404.518752 
L 531.371901 431.882935 
L 531.371901 431.882935 
" style="fill:none;stroke:#1f77b4;stroke-linecap:square;stroke-width:1.5;"/>
   </g>
   <g id="patch_3">
    <path d="M 144 504 
L 144 69.12 
" style="fill:none;stroke:#000000;stroke-linecap:square;stroke-linejoin:miter;stroke-width:0.8;"/>
   </g>
   <g id="patch_4">
    <path d="M 549.818182 504 
L 549.818182 69.12 
" style="fill:none;stroke:#000000;stroke-linecap:square;stroke-linejoin:miter;stroke-width:0.8;"/>
   </g>
   <g id="patch_5">
    <path d="M 144 504 
L 549.818182 504 
" style="fill:none;stroke:#000000;stroke-linecap:square;stroke-linejoin:miter;stroke-width:0.8;"/>
   </g>
   <g id="patch_6">
    <path d="M 144 69.12 
L 549.818182 69.12 
" style="fill:none;stroke:#000000;stroke-linecap:square;stroke-linejoin:miter;stroke-width:0.8;"/>
   </g>
   <g id="text_19">
    <!-- Monthly Evaporation -->
    <defs>
     <path d="M 9.8125 72.90625 
L 24.515625 72.90625 
L 43.109375 23.296875 
L 61.8125 72.90625 
L 76.515625 72.90625 
L 76.515625 0 
L 66.890625 0 
L 66.890625 64.015625 
L 48.09375 14.015625 
L 38.1875 14.015625 
L 19.390625 64.015625 
L 19.390625 0 
L 9.8125 0 
z
" id="DejaVuSans-77"/>
     <path d="M 30.609375 48.390625 
Q 23.390625 48.390625 19.1875 42.75 
Q 14.984375 37.109375 14.984375 27.296875 
Q 14.984375 17.484375 19.15625 11.84375 
Q 23.34375 6.203125 30.609375 6.203125 
Q 37.796875 6.203125 41.984375 11.859375 
Q 46.1875 17.53125 46.1875 27.296875 
Q 46.1875 37.015625 41.984375 42.703125 
Q 37.796875 48.390625 30.609375 48.390625 
z
M 30.609375 56 
Q 42.328125 56 49.015625 48.375 
Q 55.71875 40.765625 55.71875 27.296875 
Q 55.71875 13.875 49.015625 6.21875 
Q 42.328125 -1.421875 30.609375 -1.421875 
Q 18.84375 -1.421875 12.171875 6.21875 
Q 5.515625 13.875 5.515625 27.296875 
Q 5.515625 40.765625 12.171875 48.375 
Q 18.84375 56 30.609375 56 
z
" id="DejaVuSans-111"/>
     <path d="M 54.890625 33.015625 
L 54.890625 0 
L 45.90625 0 
L 45.90625 32.71875 
Q 45.90625 40.484375 42.875 44.328125 
Q 39.84375 48.1875 33.796875 48.1875 
Q 26.515625 48.1875 22.3125 43.546875 
Q 18.109375 38.921875 18.109375 30.90625 
L 18.109375 0 
L 9.078125 0 
L 9.078125 54.6875 
L 18.109375 54.6875 
L 18.109375 46.1875 
Q 21.34375 51.125 25.703125 53.5625 
Q 30.078125 56 35.796875 56 
Q 45.21875 56 50.046875 50.171875 
Q 54.890625 44.34375 54.890625 33.015625 
z
" id="DejaVuSans-110"/>
     <path d="M 18.3125 70.21875 
L 18.3125 54.6875 
L 36.8125 54.6875 
L 36.8125 47.703125 
L 18.3125 47.703125 
L 18.3125 18.015625 
Q 18.3125 11.328125 20.140625 9.421875 
Q 21.96875 7.515625 27.59375 7.515625 
L 36.8125 7.515625 
L 36.8125 0 
L 27.59375 0 
Q 17.1875 0 13.234375 3.875 
Q 9.28125 7.765625 9.28125 18.015625 
L 9.28125 47.703125 
L 2.6875 47.703125 
L 2.6875 54.6875 
L 9.28125 54.6875 
L 9.28125 70.21875 
z
" id="DejaVuSans-116"/>
     <path d="M 54.890625 33.015625 
L 54.890625 0 
L 45.90625 0 
L 45.90625 32.71875 
Q 45.90625 40.484375 42.875 44.328125 
Q 39.84375 48.1875 33.796875 48.1875 
Q 26.515625 48.1875 22.3125 43.546875 
Q 18.109375 38.921875 18.109375 30.90625 
L 18.109375 0 
L 9.078125 0 
L 9.078125 75.984375 
L 18.109375 75.984375 
L 18.109375 46.1875 
Q 21.34375 51.125 25.703125 53.5625 
Q 30.078125 56 35.796875 56 
Q 45.21875 56 50.046875 50.171875 
Q 54.890625 44.34375 54.890625 33.015625 
z
" id="DejaVuSans-104"/>
     <path d="M 9.421875 75.984375 
L 18.40625 75.984375 
L 18.40625 0 
L 9.421875 0 
z
" id="DejaVuSans-108"/>
     <path d="M 32.171875 -5.078125 
Q 28.375 -14.84375 24.75 -17.8125 
Q 21.140625 -20.796875 15.09375 -20.796875 
L 7.90625 -20.796875 
L 7.90625 -13.28125 
L 13.1875 -13.28125 
Q 16.890625 -13.28125 18.9375 -11.515625 
Q 21 -9.765625 23.484375 -3.21875 
L 25.09375 0.875 
L 2.984375 54.6875 
L 12.5 54.6875 
L 29.59375 11.921875 
L 46.6875 54.6875 
L 56.203125 54.6875 
z
" id="DejaVuSans-121"/>
     <path id="DejaVuSans-32"/>
     <path d="M 9.8125 72.90625 
L 55.90625 72.90625 
L 55.90625 64.59375 
L 19.671875 64.59375 
L 19.671875 43.015625 
L 54.390625 43.015625 
L 54.390625 34.71875 
L 19.671875 34.71875 
L 19.671875 8.296875 
L 56.78125 8.296875 
L 56.78125 0 
L 9.8125 0 
z
" id="DejaVuSans-69"/>
     <path d="M 2.984375 54.6875 
L 12.5 54.6875 
L 29.59375 8.796875 
L 46.6875 54.6875 
L 56.203125 54.6875 
L 35.6875 0 
L 23.484375 0 
z
" id="DejaVuSans-118"/>
     <path d="M 34.28125 27.484375 
Q 23.390625 27.484375 19.1875 25 
Q 14.984375 22.515625 14.984375 16.5 
Q 14.984375 11.71875 18.140625 8.90625 
Q 21.296875 6.109375 26.703125 6.109375 
Q 34.1875 6.109375 38.703125 11.40625 
Q 43.21875 16.703125 43.21875 25.484375 
L 43.21875 27.484375 
z
M 52.203125 31.203125 
L 52.203125 0 
L 43.21875 0 
L 43.21875 8.296875 
Q 40.140625 3.328125 35.546875 0.953125 
Q 30.953125 -1.421875 24.3125 -1.421875 
Q 15.921875 -1.421875 10.953125 3.296875 
Q 6 8.015625 6 15.921875 
Q 6 25.140625 12.171875 29.828125 
Q 18.359375 34.515625 30.609375 34.515625 
L 43.21875 34.515625 
L 43.21875 35.40625 
Q 43.21875 41.609375 39.140625 45 
Q 35.0625 48.390625 27.6875 48.390625 
Q 23 48.390625 18.546875 47.265625 
Q 14.109375 46.140625 10.015625 43.890625 
L 10.015625 52.203125 
Q 14.9375 54.109375 19.578125 55.046875 
Q 24.21875 56 28.609375 56 
Q 40.484375 56 46.34375 49.84375 
Q 52.203125 43.703125 52.203125 31.203125 
z
" id="DejaVuSans-97"/>
     <path d="M 18.109375 8.203125 
L 18.109375 -20.796875 
L 9.078125 -20.796875 
L 9.078125 54.6875 
L 18.109375 54.6875 
L 18.109375 46.390625 
Q 20.953125 51.265625 25.265625 53.625 
Q 29.59375 56 35.59375 56 
Q 45.5625 56 51.78125 48.09375 
Q 58.015625 40.1875 58.015625 27.296875 
Q 58.015625 14.40625 51.78125 6.484375 
Q 45.5625 -1.421875 35.59375 -1.421875 
Q 29.59375 -1.421875 25.265625 0.953125 
Q 20.953125 3.328125 18.109375 8.203125 
z
M 48.6875 27.296875 
Q 48.6875 37.203125 44.609375 42.84375 
Q 40.53125 48.484375 33.40625 48.484375 
Q 26.265625 48.484375 22.1875 42.84375 
Q 18.109375 37.203125 18.109375 27.296875 
Q 18.109375 17.390625 22.1875 11.75 
Q 26.265625 6.109375 33.40625 6.109375 
Q 40.53125 6.109375 44.609375 11.75 
Q 48.6875 17.390625 48.6875 27.296875 
z
" id="DejaVuSans-112"/>
     <path d="M 41.109375 46.296875 
Q 39.59375 47.171875 37.8125 47.578125 
Q 36.03125 48 33.890625 48 
Q 26.265625 48 22.1875 43.046875 
Q 18.109375 38.09375 18.109375 28.8125 
L 18.109375 0 
L 9.078125 0 
L 9.078125 54.6875 
L 18.109375 54.6875 
L 18.109375 46.1875 
Q 20.953125 51.171875 25.484375 53.578125 
Q 30.03125 56 36.53125 56 
Q 37.453125 56 38.578125 55.875 
Q 39.703125 55.765625 41.0625 55.515625 
z
" id="DejaVuSans-114"/>
     <path d="M 9.421875 54.6875 
L 18.40625 54.6875 
L 18.40625 0 
L 9.421875 0 
z
M 9.421875 75.984375 
L 18.40625 75.984375 
L 18.40625 64.59375 
L 9.421875 64.59375 
z
" id="DejaVuSans-105"/>
    </defs>
    <g transform="translate(284.842841 63.12)scale(0.12 -0.12)">
     <use xlink:href="#DejaVuSans-77"/>
     <use x="86.279297" xlink:href="#DejaVuSans-111"/>
     <use x="147.460938" xlink:href="#DejaVuSans-110"/>
     <use x="210.839844" xlink:href="#DejaVuSans-116"/>
     <use x="250.048828" xlink:href="#DejaVuSans-104"/>
     <use x="313.427734" xlink:href="#DejaVuSans-108"/>
     <use x="341.210938" xlink:href="#DejaVuSans-121"/>
     <use x="400.390625" xlink:href="#DejaVuSans-32"/>
     <use x="432.177734" xlink:href="#DejaVuSans-69"/>
     <use x="495.361328" xlink:href="#DejaVuSans-118"/>
     <use x="554.541016" xlink:href="#DejaVuSans-97"/>
     <use x="615.820312" xlink:href="#DejaVuSans-112"/>
     <use x="679.296875" xlink:href="#DejaVuSans-111"/>
     <use x="740.478516" xlink:href="#DejaVuSans-114"/>
     <use x="781.591797" xlink:href="#DejaVuSans-97"/>
     <use x="842.871094" xlink:href="#DejaVuSans-116"/>
     <use x="882.080078" xlink:href="#DejaVuSans-105"/>
     <use x="909.863281" xlink:href="#DejaVuSans-111"/>
     <use x="971.044922" xlink:href="#DejaVuSans-110"/>
    </g>
   </g>
  </g>
  <g id="axes_2">
   <g id="patch_7">
    <path d="M 630.981818 504 
L 1036.8 504 
L 1036.8 69.12 
L 630.981818 69.12 
z
" style="fill:#ffffff;"/>
   </g>
   <g id="matplotlib.axis_3">
    <g id="xtick_11">
     <g id="line2d_20">
      <g>
       <use style="stroke:#000000;stroke-width:0.8;" x="638.527415" xlink:href="#m48c82ea643" y="504"/>
      </g>
     </g>
     <g id="text_20">
      <!-- 1980 -->
      <g transform="translate(625.802415 518.598438)scale(0.1 -0.1)">
       <use xlink:href="#DejaVuSans-49"/>
       <use x="63.623047" xlink:href="#DejaVuSans-57"/>
       <use x="127.246094" xlink:href="#DejaVuSans-56"/>
       <use x="190.869141" xlink:href="#DejaVuSans-48"/>
      </g>
     </g>
    </g>
    <g id="xtick_12">
     <g id="line2d_21">
      <g>
       <use style="stroke:#000000;stroke-width:0.8;" x="682.040802" xlink:href="#m48c82ea643" y="504"/>
      </g>
     </g>
     <g id="text_21">
      <!-- 1984 -->
      <g transform="translate(669.315802 518.598438)scale(0.1 -0.1)">
       <use xlink:href="#DejaVuSans-49"/>
       <use x="63.623047" xlink:href="#DejaVuSans-57"/>
       <use x="127.246094" xlink:href="#DejaVuSans-56"/>
       <use x="190.869141" xlink:href="#DejaVuSans-52"/>
      </g>
     </g>
    </g>
    <g id="xtick_13">
     <g id="line2d_22">
      <g>
       <use style="stroke:#000000;stroke-width:0.8;" x="725.55419" xlink:href="#m48c82ea643" y="504"/>
      </g>
     </g>
     <g id="text_22">
      <!-- 1988 -->
      <g transform="translate(712.82919 518.598438)scale(0.1 -0.1)">
       <use xlink:href="#DejaVuSans-49"/>
       <use x="63.623047" xlink:href="#DejaVuSans-57"/>
       <use x="127.246094" xlink:href="#DejaVuSans-56"/>
       <use x="190.869141" xlink:href="#DejaVuSans-56"/>
      </g>
     </g>
    </g>
    <g id="xtick_14">
     <g id="line2d_23">
      <g>
       <use style="stroke:#000000;stroke-width:0.8;" x="769.067577" xlink:href="#m48c82ea643" y="504"/>
      </g>
     </g>
     <g id="text_23">
      <!-- 1992 -->
      <g transform="translate(756.342577 518.598438)scale(0.1 -0.1)">
       <use xlink:href="#DejaVuSans-49"/>
       <use x="63.623047" xlink:href="#DejaVuSans-57"/>
       <use x="127.246094" xlink:href="#DejaVuSans-57"/>
       <use x="190.869141" xlink:href="#DejaVuSans-50"/>
      </g>
     </g>
    </g>
    <g id="xtick_15">
     <g id="line2d_24">
      <g>
       <use style="stroke:#000000;stroke-width:0.8;" x="812.580965" xlink:href="#m48c82ea643" y="504"/>
      </g>
     </g>
     <g id="text_24">
      <!-- 1996 -->
      <g transform="translate(799.855965 518.598438)scale(0.1 -0.1)">
       <use xlink:href="#DejaVuSans-49"/>
       <use x="63.623047" xlink:href="#DejaVuSans-57"/>
       <use x="127.246094" xlink:href="#DejaVuSans-57"/>
       <use x="190.869141" xlink:href="#DejaVuSans-54"/>
      </g>
     </g>
    </g>
    <g id="xtick_16">
     <g id="line2d_25">
      <g>
       <use style="stroke:#000000;stroke-width:0.8;" x="856.094352" xlink:href="#m48c82ea643" y="504"/>
      </g>
     </g>
     <g id="text_25">
      <!-- 2000 -->
      <g transform="translate(843.369352 518.598438)scale(0.1 -0.1)">
       <use xlink:href="#DejaVuSans-50"/>
       <use x="63.623047" xlink:href="#DejaVuSans-48"/>
       <use x="127.246094" xlink:href="#DejaVuSans-48"/>
       <use x="190.869141" xlink:href="#DejaVuSans-48"/>
      </g>
     </g>
    </g>
    <g id="xtick_17">
     <g id="line2d_26">
      <g>
       <use style="stroke:#000000;stroke-width:0.8;" x="899.60774" xlink:href="#m48c82ea643" y="504"/>
      </g>
     </g>
     <g id="text_26">
      <!-- 2004 -->
      <g transform="translate(886.88274 518.598438)scale(0.1 -0.1)">
       <use xlink:href="#DejaVuSans-50"/>
       <use x="63.623047" xlink:href="#DejaVuSans-48"/>
       <use x="127.246094" xlink:href="#DejaVuSans-48"/>
       <use x="190.869141" xlink:href="#DejaVuSans-52"/>
      </g>
     </g>
    </g>
    <g id="xtick_18">
     <g id="line2d_27">
      <g>
       <use style="stroke:#000000;stroke-width:0.8;" x="943.121127" xlink:href="#m48c82ea643" y="504"/>
      </g>
     </g>
     <g id="text_27">
      <!-- 2008 -->
      <g transform="translate(930.396127 518.598438)scale(0.1 -0.1)">
       <use xlink:href="#DejaVuSans-50"/>
       <use x="63.623047" xlink:href="#DejaVuSans-48"/>
       <use x="127.246094" xlink:href="#DejaVuSans-48"/>
       <use x="190.869141" xlink:href="#DejaVuSans-56"/>
      </g>
     </g>
    </g>
    <g id="xtick_19">
     <g id="line2d_28">
      <g>
       <use style="stroke:#000000;stroke-width:0.8;" x="986.634515" xlink:href="#m48c82ea643" y="504"/>
      </g>
     </g>
     <g id="text_28">
      <!-- 2012 -->
      <g transform="translate(973.909515 518.598438)scale(0.1 -0.1)">
       <use xlink:href="#DejaVuSans-50"/>
       <use x="63.623047" xlink:href="#DejaVuSans-48"/>
       <use x="127.246094" xlink:href="#DejaVuSans-49"/>
       <use x="190.869141" xlink:href="#DejaVuSans-50"/>
      </g>
     </g>
    </g>
    <g id="xtick_20">
     <g id="line2d_29">
      <g>
       <use style="stroke:#000000;stroke-width:0.8;" x="1030.147902" xlink:href="#m48c82ea643" y="504"/>
      </g>
     </g>
     <g id="text_29">
      <!-- 2016 -->
      <g transform="translate(1017.422902 518.598438)scale(0.1 -0.1)">
       <use xlink:href="#DejaVuSans-50"/>
       <use x="63.623047" xlink:href="#DejaVuSans-48"/>
       <use x="127.246094" xlink:href="#DejaVuSans-49"/>
       <use x="190.869141" xlink:href="#DejaVuSans-54"/>
      </g>
     </g>
    </g>
   </g>
   <g id="matplotlib.axis_4">
    <g id="ytick_9">
     <g id="line2d_30">
      <g>
       <use style="stroke:#000000;stroke-width:0.8;" x="630.981818" xlink:href="#m7d756d590b" y="490.592708"/>
      </g>
     </g>
    </g>
    <g id="ytick_10">
     <g id="line2d_31">
      <g>
       <use style="stroke:#000000;stroke-width:0.8;" x="630.981818" xlink:href="#m7d756d590b" y="435.167609"/>
      </g>
     </g>
    </g>
    <g id="ytick_11">
     <g id="line2d_32">
      <g>
       <use style="stroke:#000000;stroke-width:0.8;" x="630.981818" xlink:href="#m7d756d590b" y="379.742511"/>
      </g>
     </g>
    </g>
    <g id="ytick_12">
     <g id="line2d_33">
      <g>
       <use style="stroke:#000000;stroke-width:0.8;" x="630.981818" xlink:href="#m7d756d590b" y="324.317412"/>
      </g>
     </g>
    </g>
    <g id="ytick_13">
     <g id="line2d_34">
      <g>
       <use style="stroke:#000000;stroke-width:0.8;" x="630.981818" xlink:href="#m7d756d590b" y="268.892313"/>
      </g>
     </g>
    </g>
    <g id="ytick_14">
     <g id="line2d_35">
      <g>
       <use style="stroke:#000000;stroke-width:0.8;" x="630.981818" xlink:href="#m7d756d590b" y="213.467215"/>
      </g>
     </g>
    </g>
    <g id="ytick_15">
     <g id="line2d_36">
      <g>
       <use style="stroke:#000000;stroke-width:0.8;" x="630.981818" xlink:href="#m7d756d590b" y="158.042116"/>
      </g>
     </g>
    </g>
    <g id="ytick_16">
     <g id="line2d_37">
      <g>
       <use style="stroke:#000000;stroke-width:0.8;" x="630.981818" xlink:href="#m7d756d590b" y="102.617018"/>
      </g>
     </g>
    </g>
   </g>
   <g id="line2d_38">
    <path clip-path="url(#p9992f36152)" d="M 649.428099 421.624694 
L 650.351381 368.938034 
L 651.185313 302.519603 
L 652.108595 208.295161 
L 653.002094 181.124896 
L 653.925376 146.002364 
L 654.818875 163.55797 
L 655.742157 223.074602 
L 656.665439 272.309865 
L 658.482219 397.519292 
L 659.375718 426.537177 
L 660.299 421.624694 
L 661.222282 368.938034 
L 662.056214 302.519603 
L 662.979496 208.295161 
L 663.872995 181.124896 
L 664.796277 146.002364 
L 665.689776 163.55797 
L 666.613058 223.074602 
L 667.53634 272.309865 
L 669.353121 397.519292 
L 670.246619 426.537177 
L 671.169901 421.624694 
L 672.093183 368.938034 
L 672.927115 302.519603 
L 673.850397 208.295161 
L 674.743896 181.124896 
L 675.667178 146.002364 
L 676.560677 163.55797 
L 677.483959 223.074602 
L 678.407241 272.309865 
L 680.224022 397.519292 
L 681.11752 426.537177 
L 682.040802 421.624694 
L 682.964084 368.938034 
L 683.8278 302.519603 
L 684.751082 208.295161 
L 685.64458 181.124896 
L 686.567862 146.002364 
L 687.461361 163.55797 
L 688.384643 223.074602 
L 689.307925 272.309865 
L 691.124706 397.519292 
L 692.018205 426.537177 
L 692.941487 421.624694 
L 693.864769 368.938034 
L 694.698701 302.519603 
L 695.621983 208.295161 
L 696.515482 181.124896 
L 697.438764 146.002364 
L 698.332262 163.55797 
L 699.255544 223.074602 
L 700.178826 272.309865 
L 701.995607 397.519292 
L 702.889106 426.537177 
L 703.812388 421.624694 
L 704.73567 368.938034 
L 705.569602 302.519603 
L 706.492884 208.295161 
L 707.386383 181.124896 
L 708.309665 146.002364 
L 709.203163 163.55797 
L 710.126445 223.074602 
L 711.049727 272.309865 
L 712.866508 397.519292 
L 713.760007 426.537177 
L 714.683289 421.624694 
L 715.606571 368.938034 
L 716.440503 302.519603 
L 717.363785 208.295161 
L 718.257284 181.124896 
L 719.180566 146.002364 
L 720.074064 163.55797 
L 720.997346 223.074602 
L 721.920628 272.309865 
L 723.737409 397.519292 
L 724.630908 426.537177 
L 725.55419 421.624694 
L 726.477472 368.938034 
L 727.341187 302.519603 
L 728.264469 208.295161 
L 729.157968 181.124896 
L 730.08125 146.002364 
L 730.974749 163.55797 
L 731.898031 223.074602 
L 732.821313 272.309865 
L 734.638093 397.519292 
L 735.531592 426.537177 
L 736.454874 421.624694 
L 737.378156 368.938034 
L 738.212088 302.519603 
L 739.13537 208.295161 
L 740.028869 181.124896 
L 740.952151 146.002364 
L 741.84565 163.55797 
L 742.768932 223.074602 
L 743.692214 272.309865 
L 745.508994 397.519292 
L 746.402493 426.537177 
L 747.325775 421.624694 
L 748.249057 368.938034 
L 749.082989 302.519603 
L 750.006271 208.295161 
L 750.89977 181.124896 
L 751.823052 146.002364 
L 752.716551 163.55797 
L 753.639833 223.074602 
L 754.563115 272.309865 
L 756.379895 397.519292 
L 757.273394 426.537177 
L 758.196676 421.624694 
L 759.119958 368.938034 
L 759.95389 302.519603 
L 760.877172 208.295161 
L 761.770671 181.124896 
L 762.693953 146.002364 
L 763.587452 163.55797 
L 764.510734 223.074602 
L 765.434016 272.309865 
L 767.250797 397.519292 
L 768.144295 426.537177 
L 769.067577 421.624694 
L 769.990859 368.938034 
L 770.854575 302.519603 
L 771.777857 208.295161 
L 772.671355 181.124896 
L 773.594637 146.002364 
L 774.488136 163.55797 
L 775.411418 223.074602 
L 776.3347 272.309865 
L 778.151481 397.519292 
L 779.04498 426.537177 
L 779.968262 421.624694 
L 780.891544 368.938034 
L 781.725476 302.519603 
L 782.648758 208.295161 
L 783.542256 181.124896 
L 784.465538 146.002364 
L 785.359037 163.55797 
L 786.282319 223.074602 
L 787.205601 272.309865 
L 789.022382 397.519292 
L 789.915881 426.537177 
L 790.839163 421.624694 
L 791.762445 368.938034 
L 792.596377 302.519603 
L 793.519659 208.295161 
L 794.413157 181.124896 
L 795.336439 146.002364 
L 796.229938 163.55797 
L 797.15322 223.074602 
L 798.076502 272.309865 
L 799.893283 397.519292 
L 800.786782 426.537177 
L 801.710064 421.624694 
L 802.633346 368.938034 
L 803.467278 302.519603 
L 804.39056 208.295161 
L 805.284059 181.124896 
L 806.207341 146.002364 
L 807.100839 163.55797 
L 808.024121 223.074602 
L 808.947403 272.309865 
L 810.764184 397.519292 
L 811.657683 426.537177 
L 812.580965 421.624694 
L 813.504247 368.938034 
L 814.367962 302.519603 
L 815.291244 208.295161 
L 816.184743 181.124896 
L 817.108025 146.002364 
L 818.001524 163.55797 
L 818.924806 223.074602 
L 819.848088 272.309865 
L 821.664868 397.519292 
L 822.558367 426.537177 
L 823.481649 421.624694 
L 824.404931 368.938034 
L 825.238863 302.519603 
L 826.162145 208.295161 
L 827.055644 181.124896 
L 827.978926 146.002364 
L 828.872425 163.55797 
L 829.795707 223.074602 
L 830.718989 272.309865 
L 832.535769 397.519292 
L 833.429268 426.537177 
L 834.35255 421.624694 
L 835.275832 368.938034 
L 836.109764 302.519603 
L 837.033046 208.295161 
L 837.926545 181.124896 
L 838.849827 146.002364 
L 839.743326 163.55797 
L 840.666608 223.074602 
L 841.58989 272.309865 
L 843.40667 397.519292 
L 844.300169 426.537177 
L 845.223451 421.624694 
L 846.146733 368.938034 
L 846.980665 302.519603 
L 847.903947 208.295161 
L 848.797446 181.124896 
L 849.720728 146.002364 
L 850.614227 163.55797 
L 851.537509 223.074602 
L 852.460791 272.309865 
L 854.277571 397.519292 
L 855.17107 426.537177 
L 856.094352 421.624694 
L 857.017634 368.938034 
L 857.88135 302.519603 
L 858.804632 208.295161 
L 859.69813 181.124896 
L 860.621412 146.002364 
L 861.514911 163.55797 
L 862.438193 223.074602 
L 863.361475 272.309865 
L 865.178256 397.519292 
L 866.071755 426.537177 
L 866.995037 421.624694 
L 867.918319 368.938034 
L 868.752251 302.519603 
L 869.675533 208.295161 
L 870.569031 181.124896 
L 871.492313 146.002364 
L 872.385812 163.55797 
L 873.309094 223.074602 
L 874.232376 272.309865 
L 876.049157 397.519292 
L 876.942656 426.537177 
L 877.865938 421.624694 
L 878.78922 368.938034 
L 879.623152 302.519603 
L 880.546434 208.295161 
L 881.439932 181.124896 
L 882.363214 146.002364 
L 883.256713 163.55797 
L 884.179995 223.074602 
L 885.103277 272.309865 
L 886.920058 397.519292 
L 887.813557 426.537177 
L 888.736839 421.624694 
L 889.660121 368.938034 
L 890.494053 302.519603 
L 891.417335 208.295161 
L 892.310833 181.124896 
L 893.234115 146.002364 
L 894.127614 163.55797 
L 895.050896 223.074602 
L 895.974178 272.309865 
L 897.790959 397.519292 
L 898.684458 426.537177 
L 899.60774 421.624694 
L 900.531022 368.938034 
L 901.394737 302.519603 
L 902.318019 208.295161 
L 903.211518 181.124896 
L 904.1348 146.002364 
L 905.028299 163.55797 
L 905.951581 223.074602 
L 906.874863 272.309865 
L 908.691643 397.519292 
L 909.585142 426.537177 
L 910.508424 421.624694 
L 911.431706 368.938034 
L 912.265638 302.519603 
L 913.18892 208.295161 
L 914.082419 181.124896 
L 915.005701 146.002364 
L 915.8992 163.55797 
L 916.822482 223.074602 
L 917.745764 272.309865 
L 919.562544 397.519292 
L 920.456043 426.537177 
L 921.379325 421.624694 
L 922.302607 368.938034 
L 923.136539 302.519603 
L 924.059821 208.295161 
L 924.95332 181.124896 
L 925.876602 146.002364 
L 926.770101 163.55797 
L 927.693383 223.074602 
L 928.616665 272.309865 
L 930.433445 397.519292 
L 931.326944 426.537177 
L 932.250226 421.624694 
L 933.173508 368.938034 
L 934.00744 302.519603 
L 934.930722 208.295161 
L 935.824221 181.124896 
L 936.747503 146.002364 
L 937.641002 163.55797 
L 938.564284 223.074602 
L 939.487566 272.309865 
L 941.304346 397.519292 
L 942.197845 426.537177 
L 943.121127 421.624694 
L 944.044409 368.938034 
L 944.908125 302.519603 
L 945.831407 208.295161 
L 946.724905 181.124896 
L 947.648187 146.002364 
L 948.541686 163.55797 
L 949.464968 223.074602 
L 950.38825 272.309865 
L 952.205031 397.519292 
L 953.098529 426.537177 
L 954.021811 421.624694 
L 954.945093 368.938034 
L 955.779026 302.519603 
L 956.702308 208.295161 
L 957.595806 181.124896 
L 958.519088 146.002364 
L 959.412587 163.55797 
L 960.335869 223.074602 
L 961.259151 272.309865 
L 963.075932 397.519292 
L 963.96943 426.537177 
L 964.892713 421.624694 
L 965.815995 368.938034 
L 966.649927 302.519603 
L 967.573209 208.295161 
L 968.466707 181.124896 
L 969.389989 146.002364 
L 970.283488 163.55797 
L 971.20677 223.074602 
L 972.130052 272.309865 
L 973.946833 397.519292 
L 974.840332 426.537177 
L 975.763614 421.624694 
L 976.686896 368.938034 
L 977.520828 302.519603 
L 978.44411 208.295161 
L 979.337608 181.124896 
L 980.26089 146.002364 
L 981.154389 163.55797 
L 982.077671 223.074602 
L 983.000953 272.309865 
L 984.817734 397.519292 
L 985.711233 426.537177 
L 986.634515 421.624694 
L 987.557797 368.938034 
L 988.421512 302.519603 
L 989.344794 208.295161 
L 990.238293 181.124896 
L 991.161575 146.002364 
L 992.055073 163.55797 
L 992.978355 223.074602 
L 993.901637 272.309865 
L 995.718418 397.519292 
L 996.611917 426.537177 
L 997.535199 421.624694 
L 998.458481 368.938034 
L 999.292413 302.519603 
L 1000.215695 208.295161 
L 1001.109194 181.124896 
L 1002.032476 146.002364 
L 1002.925975 163.55797 
L 1003.849257 223.074602 
L 1004.772539 272.309865 
L 1006.589319 397.519292 
L 1007.482818 426.537177 
L 1008.4061 421.624694 
L 1009.329382 368.938034 
L 1010.163314 302.519603 
L 1011.086596 208.295161 
L 1011.980095 181.124896 
L 1012.903377 146.002364 
L 1013.796876 163.55797 
L 1014.720158 223.074602 
L 1015.64344 272.309865 
L 1017.46022 397.519292 
L 1018.353719 426.537177 
L 1018.353719 426.537177 
" style="fill:none;stroke:#1f77b4;stroke-linecap:square;stroke-width:1.5;"/>
   </g>
   <g id="patch_8">
    <path d="M 630.981818 504 
L 630.981818 69.12 
" style="fill:none;stroke:#000000;stroke-linecap:square;stroke-linejoin:miter;stroke-width:0.8;"/>
   </g>
   <g id="patch_9">
    <path d="M 1036.8 504 
L 1036.8 69.12 
" style="fill:none;stroke:#000000;stroke-linecap:square;stroke-linejoin:miter;stroke-width:0.8;"/>
   </g>
   <g id="patch_10">
    <path d="M 630.981818 504 
L 1036.8 504 
" style="fill:none;stroke:#000000;stroke-linecap:square;stroke-linejoin:miter;stroke-width:0.8;"/>
   </g>
   <g id="patch_11">
    <path d="M 630.981818 69.12 
L 1036.8 69.12 
" style="fill:none;stroke:#000000;stroke-linecap:square;stroke-linejoin:miter;stroke-width:0.8;"/>
   </g>
   <g id="text_30">
    <!-- Average Evaporation -->
    <defs>
     <path d="M 34.1875 63.1875 
L 20.796875 26.90625 
L 47.609375 26.90625 
z
M 28.609375 72.90625 
L 39.796875 72.90625 
L 67.578125 0 
L 57.328125 0 
L 50.6875 18.703125 
L 17.828125 18.703125 
L 11.1875 0 
L 0.78125 0 
z
" id="DejaVuSans-65"/>
     <path d="M 56.203125 29.59375 
L 56.203125 25.203125 
L 14.890625 25.203125 
Q 15.484375 15.921875 20.484375 11.0625 
Q 25.484375 6.203125 34.421875 6.203125 
Q 39.59375 6.203125 44.453125 7.46875 
Q 49.3125 8.734375 54.109375 11.28125 
L 54.109375 2.78125 
Q 49.265625 0.734375 44.1875 -0.34375 
Q 39.109375 -1.421875 33.890625 -1.421875 
Q 20.796875 -1.421875 13.15625 6.1875 
Q 5.515625 13.8125 5.515625 26.8125 
Q 5.515625 40.234375 12.765625 48.109375 
Q 20.015625 56 32.328125 56 
Q 43.359375 56 49.78125 48.890625 
Q 56.203125 41.796875 56.203125 29.59375 
z
M 47.21875 32.234375 
Q 47.125 39.59375 43.09375 43.984375 
Q 39.0625 48.390625 32.421875 48.390625 
Q 24.90625 48.390625 20.390625 44.140625 
Q 15.875 39.890625 15.1875 32.171875 
z
" id="DejaVuSans-101"/>
     <path d="M 45.40625 27.984375 
Q 45.40625 37.75 41.375 43.109375 
Q 37.359375 48.484375 30.078125 48.484375 
Q 22.859375 48.484375 18.828125 43.109375 
Q 14.796875 37.75 14.796875 27.984375 
Q 14.796875 18.265625 18.828125 12.890625 
Q 22.859375 7.515625 30.078125 7.515625 
Q 37.359375 7.515625 41.375 12.890625 
Q 45.40625 18.265625 45.40625 27.984375 
z
M 54.390625 6.78125 
Q 54.390625 -7.171875 48.1875 -13.984375 
Q 42 -20.796875 29.203125 -20.796875 
Q 24.46875 -20.796875 20.265625 -20.09375 
Q 16.0625 -19.390625 12.109375 -17.921875 
L 12.109375 -9.1875 
Q 16.0625 -11.328125 19.921875 -12.34375 
Q 23.78125 -13.375 27.78125 -13.375 
Q 36.625 -13.375 41.015625 -8.765625 
Q 45.40625 -4.15625 45.40625 5.171875 
L 45.40625 9.625 
Q 42.625 4.78125 38.28125 2.390625 
Q 33.9375 0 27.875 0 
Q 17.828125 0 11.671875 7.65625 
Q 5.515625 15.328125 5.515625 27.984375 
Q 5.515625 40.671875 11.671875 48.328125 
Q 17.828125 56 27.875 56 
Q 33.9375 56 38.28125 53.609375 
Q 42.625 51.21875 45.40625 46.390625 
L 45.40625 54.6875 
L 54.390625 54.6875 
z
" id="DejaVuSans-103"/>
    </defs>
    <g transform="translate(770.860909 63.12)scale(0.12 -0.12)">
     <use xlink:href="#DejaVuSans-65"/>
     <use x="68.330078" xlink:href="#DejaVuSans-118"/>
     <use x="127.509766" xlink:href="#DejaVuSans-101"/>
     <use x="189.033203" xlink:href="#DejaVuSans-114"/>
     <use x="230.146484" xlink:href="#DejaVuSans-97"/>
     <use x="291.425781" xlink:href="#DejaVuSans-103"/>
     <use x="354.902344" xlink:href="#DejaVuSans-101"/>
     <use x="416.425781" xlink:href="#DejaVuSans-32"/>
     <use x="448.212891" xlink:href="#DejaVuSans-69"/>
     <use x="511.396484" xlink:href="#DejaVuSans-118"/>
     <use x="570.576172" xlink:href="#DejaVuSans-97"/>
     <use x="631.855469" xlink:href="#DejaVuSans-112"/>
     <use x="695.332031" xlink:href="#DejaVuSans-111"/>
     <use x="756.513672" xlink:href="#DejaVuSans-114"/>
     <use x="797.626953" xlink:href="#DejaVuSans-97"/>
     <use x="858.90625" xlink:href="#DejaVuSans-116"/>
     <use x="898.115234" xlink:href="#DejaVuSans-105"/>
     <use x="925.898438" xlink:href="#DejaVuSans-111"/>
     <use x="987.080078" xlink:href="#DejaVuSans-110"/>
    </g>
   </g>
  </g>
  <g id="text_31">
   <!-- Harris, Texas -->
   <defs>
    <path d="M 9.8125 72.90625 
L 19.671875 72.90625 
L 19.671875 43.015625 
L 55.515625 43.015625 
L 55.515625 72.90625 
L 65.375 72.90625 
L 65.375 0 
L 55.515625 0 
L 55.515625 34.71875 
L 19.671875 34.71875 
L 19.671875 0 
L 9.8125 0 
z
" id="DejaVuSans-72"/>
    <path d="M 44.28125 53.078125 
L 44.28125 44.578125 
Q 40.484375 46.53125 36.375 47.5 
Q 32.28125 48.484375 27.875 48.484375 
Q 21.1875 48.484375 17.84375 46.4375 
Q 14.5 44.390625 14.5 40.28125 
Q 14.5 37.15625 16.890625 35.375 
Q 19.28125 33.59375 26.515625 31.984375 
L 29.59375 31.296875 
Q 39.15625 29.25 43.1875 25.515625 
Q 47.21875 21.78125 47.21875 15.09375 
Q 47.21875 7.46875 41.1875 3.015625 
Q 35.15625 -1.421875 24.609375 -1.421875 
Q 20.21875 -1.421875 15.453125 -0.5625 
Q 10.6875 0.296875 5.421875 2 
L 5.421875 11.28125 
Q 10.40625 8.6875 15.234375 7.390625 
Q 20.0625 6.109375 24.8125 6.109375 
Q 31.15625 6.109375 34.5625 8.28125 
Q 37.984375 10.453125 37.984375 14.40625 
Q 37.984375 18.0625 35.515625 20.015625 
Q 33.0625 21.96875 24.703125 23.78125 
L 21.578125 24.515625 
Q 13.234375 26.265625 9.515625 29.90625 
Q 5.8125 33.546875 5.8125 39.890625 
Q 5.8125 47.609375 11.28125 51.796875 
Q 16.75 56 26.8125 56 
Q 31.78125 56 36.171875 55.265625 
Q 40.578125 54.546875 44.28125 53.078125 
z
" id="DejaVuSans-115"/>
    <path d="M 11.71875 12.40625 
L 22.015625 12.40625 
L 22.015625 4 
L 14.015625 -11.625 
L 7.71875 -11.625 
L 11.71875 4 
z
" id="DejaVuSans-44"/>
    <path d="M -0.296875 72.90625 
L 61.375 72.90625 
L 61.375 64.59375 
L 35.5 64.59375 
L 35.5 0 
L 25.59375 0 
L 25.59375 64.59375 
L -0.296875 64.59375 
z
" id="DejaVuSans-84"/>
    <path d="M 54.890625 54.6875 
L 35.109375 28.078125 
L 55.90625 0 
L 45.3125 0 
L 29.390625 21.484375 
L 13.484375 0 
L 2.875 0 
L 24.125 28.609375 
L 4.6875 54.6875 
L 15.28125 54.6875 
L 29.78125 35.203125 
L 44.28125 54.6875 
z
" id="DejaVuSans-120"/>
   </defs>
   <g transform="translate(536.579062 20.638125)scale(0.12 -0.12)">
    <use xlink:href="#DejaVuSans-72"/>
    <use x="75.195312" xlink:href="#DejaVuSans-97"/>
    <use x="136.474609" xlink:href="#DejaVuSans-114"/>
    <use x="177.572266" xlink:href="#DejaVuSans-114"/>
    <use x="218.685547" xlink:href="#DejaVuSans-105"/>
    <use x="246.46875" xlink:href="#DejaVuSans-115"/>
    <use x="298.568359" xlink:href="#DejaVuSans-44"/>
    <use x="330.355469" xlink:href="#DejaVuSans-32"/>
    <use x="362.142578" xlink:href="#DejaVuSans-84"/>
    <use x="422.960938" xlink:href="#DejaVuSans-101"/>
    <use x="484.46875" xlink:href="#DejaVuSans-120"/>
    <use x="543.648438" xlink:href="#DejaVuSans-97"/>
    <use x="604.927734" xlink:href="#DejaVuSans-115"/>
   </g>
  </g>
 </g>
 <defs>
  <clipPath id="pbfca37875f">
   <rect height="434.88" width="405.818182" x="144" y="69.12"/>
  </clipPath>
  <clipPath id="p9992f36152">
   <rect height="434.88" width="405.818182" x="630.981818" y="69.12"/>
  </clipPath>
 </defs>
</svg>
