<?xml version="1.0" encoding="utf-8" standalone="no"?>
<!DOCTYPE svg PUBLIC "-//W3C//DTD SVG 1.1//EN"
  "http://www.w3.org/Graphics/SVG/1.1/DTD/svg11.dtd">
<!-- Created with matplotlib (https://matplotlib.org/) -->
<svg height="864pt" version="1.1" viewBox="0 0 1440 864" width="1440pt" xmlns="http://www.w3.org/2000/svg" xmlns:xlink="http://www.w3.org/1999/xlink">
 <defs>
  <style type="text/css">
*{stroke-linecap:butt;stroke-linejoin:round;}
  </style>
 </defs>
 <g id="figure_1">
  <g id="patch_1">
   <path d="M 0 864 
L 1440 864 
L 1440 0 
L 0 0 
z
" style="fill:#ffffff;"/>
  </g>
  <g id="axes_1">
   <g id="patch_2">
    <path d="M 180 400.189091 
L 508.235294 400.189091 
L 508.235294 103.68 
L 180 103.68 
z
" style="fill:#ffffff;"/>
   </g>
   <g id="matplotlib.axis_1">
    <g id="xtick_1">
     <g id="line2d_1">
      <defs>
       <path d="M 0 0 
L 0 3.5 
" id="mf59c1e6ac9" style="stroke:#000000;stroke-width:0.8;"/>
      </defs>
      <g>
       <use style="stroke:#000000;stroke-width:0.8;" x="194.919786" xlink:href="#mf59c1e6ac9" y="400.189091"/>
      </g>
     </g>
     <g id="text_1">
      <!-- 2014-01 -->
      <defs>
       <path d="M 19.1875 8.296875 
L 53.609375 8.296875 
L 53.609375 0 
L 7.328125 0 
L 7.328125 8.296875 
Q 12.9375 14.109375 22.625 23.890625 
Q 32.328125 33.6875 34.8125 36.53125 
Q 39.546875 41.84375 41.421875 45.53125 
Q 43.3125 49.21875 43.3125 52.78125 
Q 43.3125 58.59375 39.234375 62.25 
Q 35.15625 65.921875 28.609375 65.921875 
Q 23.96875 65.921875 18.8125 64.3125 
Q 13.671875 62.703125 7.8125 59.421875 
L 7.8125 69.390625 
Q 13.765625 71.78125 18.9375 73 
Q 24.125 74.21875 28.421875 74.21875 
Q 39.75 74.21875 46.484375 68.546875 
Q 53.21875 62.890625 53.21875 53.421875 
Q 53.21875 48.921875 51.53125 44.890625 
Q 49.859375 40.875 45.40625 35.40625 
Q 44.1875 33.984375 37.640625 27.21875 
Q 31.109375 20.453125 19.1875 8.296875 
z
" id="DejaVuSans-50"/>
       <path d="M 31.78125 66.40625 
Q 24.171875 66.40625 20.328125 58.90625 
Q 16.5 51.421875 16.5 36.375 
Q 16.5 21.390625 20.328125 13.890625 
Q 24.171875 6.390625 31.78125 6.390625 
Q 39.453125 6.390625 43.28125 13.890625 
Q 47.125 21.390625 47.125 36.375 
Q 47.125 51.421875 43.28125 58.90625 
Q 39.453125 66.40625 31.78125 66.40625 
z
M 31.78125 74.21875 
Q 44.046875 74.21875 50.515625 64.515625 
Q 56.984375 54.828125 56.984375 36.375 
Q 56.984375 17.96875 50.515625 8.265625 
Q 44.046875 -1.421875 31.78125 -1.421875 
Q 19.53125 -1.421875 13.0625 8.265625 
Q 6.59375 17.96875 6.59375 36.375 
Q 6.59375 54.828125 13.0625 64.515625 
Q 19.53125 74.21875 31.78125 74.21875 
z
" id="DejaVuSans-48"/>
       <path d="M 12.40625 8.296875 
L 28.515625 8.296875 
L 28.515625 63.921875 
L 10.984375 60.40625 
L 10.984375 69.390625 
L 28.421875 72.90625 
L 38.28125 72.90625 
L 38.28125 8.296875 
L 54.390625 8.296875 
L 54.390625 0 
L 12.40625 0 
z
" id="DejaVuSans-49"/>
       <path d="M 37.796875 64.3125 
L 12.890625 25.390625 
L 37.796875 25.390625 
z
M 35.203125 72.90625 
L 47.609375 72.90625 
L 47.609375 25.390625 
L 58.015625 25.390625 
L 58.015625 17.1875 
L 47.609375 17.1875 
L 47.609375 0 
L 37.796875 0 
L 37.796875 17.1875 
L 4.890625 17.1875 
L 4.890625 26.703125 
z
" id="DejaVuSans-52"/>
       <path d="M 4.890625 31.390625 
L 31.203125 31.390625 
L 31.203125 23.390625 
L 4.890625 23.390625 
z
" id="DejaVuSans-45"/>
      </defs>
      <g transform="translate(174.02838 414.787528)scale(0.1 -0.1)">
       <use xlink:href="#DejaVuSans-50"/>
       <use x="63.623047" xlink:href="#DejaVuSans-48"/>
       <use x="127.246094" xlink:href="#DejaVuSans-49"/>
       <use x="190.869141" xlink:href="#DejaVuSans-52"/>
       <use x="254.492188" xlink:href="#DejaVuSans-45"/>
       <use x="290.576172" xlink:href="#DejaVuSans-48"/>
       <use x="354.199219" xlink:href="#DejaVuSans-49"/>
      </g>
     </g>
    </g>
    <g id="xtick_2">
     <g id="line2d_2">
      <g>
       <use style="stroke:#000000;stroke-width:0.8;" x="243.286126" xlink:href="#mf59c1e6ac9" y="400.189091"/>
      </g>
     </g>
     <g id="text_2">
      <!-- 2014-03 -->
      <defs>
       <path d="M 40.578125 39.3125 
Q 47.65625 37.796875 51.625 33 
Q 55.609375 28.21875 55.609375 21.1875 
Q 55.609375 10.40625 48.1875 4.484375 
Q 40.765625 -1.421875 27.09375 -1.421875 
Q 22.515625 -1.421875 17.65625 -0.515625 
Q 12.796875 0.390625 7.625 2.203125 
L 7.625 11.71875 
Q 11.71875 9.328125 16.59375 8.109375 
Q 21.484375 6.890625 26.8125 6.890625 
Q 36.078125 6.890625 40.9375 10.546875 
Q 45.796875 14.203125 45.796875 21.1875 
Q 45.796875 27.640625 41.28125 31.265625 
Q 36.765625 34.90625 28.71875 34.90625 
L 20.21875 34.90625 
L 20.21875 43.015625 
L 29.109375 43.015625 
Q 36.375 43.015625 40.234375 45.921875 
Q 44.09375 48.828125 44.09375 54.296875 
Q 44.09375 59.90625 40.109375 62.90625 
Q 36.140625 65.921875 28.71875 65.921875 
Q 24.65625 65.921875 20.015625 65.03125 
Q 15.375 64.15625 9.8125 62.3125 
L 9.8125 71.09375 
Q 15.4375 72.65625 20.34375 73.4375 
Q 25.25 74.21875 29.59375 74.21875 
Q 40.828125 74.21875 47.359375 69.109375 
Q 53.90625 64.015625 53.90625 55.328125 
Q 53.90625 49.265625 50.4375 45.09375 
Q 46.96875 40.921875 40.578125 39.3125 
z
" id="DejaVuSans-51"/>
      </defs>
      <g transform="translate(222.394719 414.787528)scale(0.1 -0.1)">
       <use xlink:href="#DejaVuSans-50"/>
       <use x="63.623047" xlink:href="#DejaVuSans-48"/>
       <use x="127.246094" xlink:href="#DejaVuSans-49"/>
       <use x="190.869141" xlink:href="#DejaVuSans-52"/>
       <use x="254.492188" xlink:href="#DejaVuSans-45"/>
       <use x="290.576172" xlink:href="#DejaVuSans-48"/>
       <use x="354.199219" xlink:href="#DejaVuSans-51"/>
      </g>
     </g>
    </g>
    <g id="xtick_3">
     <g id="line2d_3">
      <g>
       <use style="stroke:#000000;stroke-width:0.8;" x="293.292002" xlink:href="#mf59c1e6ac9" y="400.189091"/>
      </g>
     </g>
     <g id="text_3">
      <!-- 2014-05 -->
      <defs>
       <path d="M 10.796875 72.90625 
L 49.515625 72.90625 
L 49.515625 64.59375 
L 19.828125 64.59375 
L 19.828125 46.734375 
Q 21.96875 47.46875 24.109375 47.828125 
Q 26.265625 48.1875 28.421875 48.1875 
Q 40.625 48.1875 47.75 41.5 
Q 54.890625 34.8125 54.890625 23.390625 
Q 54.890625 11.625 47.5625 5.09375 
Q 40.234375 -1.421875 26.90625 -1.421875 
Q 22.3125 -1.421875 17.546875 -0.640625 
Q 12.796875 0.140625 7.71875 1.703125 
L 7.71875 11.625 
Q 12.109375 9.234375 16.796875 8.0625 
Q 21.484375 6.890625 26.703125 6.890625 
Q 35.15625 6.890625 40.078125 11.328125 
Q 45.015625 15.765625 45.015625 23.390625 
Q 45.015625 31 40.078125 35.4375 
Q 35.15625 39.890625 26.703125 39.890625 
Q 22.75 39.890625 18.8125 39.015625 
Q 14.890625 38.140625 10.796875 36.28125 
z
" id="DejaVuSans-53"/>
      </defs>
      <g transform="translate(272.400596 414.787528)scale(0.1 -0.1)">
       <use xlink:href="#DejaVuSans-50"/>
       <use x="63.623047" xlink:href="#DejaVuSans-48"/>
       <use x="127.246094" xlink:href="#DejaVuSans-49"/>
       <use x="190.869141" xlink:href="#DejaVuSans-52"/>
       <use x="254.492188" xlink:href="#DejaVuSans-45"/>
       <use x="290.576172" xlink:href="#DejaVuSans-48"/>
       <use x="354.199219" xlink:href="#DejaVuSans-53"/>
      </g>
     </g>
    </g>
    <g id="xtick_4">
     <g id="line2d_4">
      <g>
       <use style="stroke:#000000;stroke-width:0.8;" x="343.297879" xlink:href="#mf59c1e6ac9" y="400.189091"/>
      </g>
     </g>
     <g id="text_4">
      <!-- 2014-07 -->
      <defs>
       <path d="M 8.203125 72.90625 
L 55.078125 72.90625 
L 55.078125 68.703125 
L 28.609375 0 
L 18.3125 0 
L 43.21875 64.59375 
L 8.203125 64.59375 
z
" id="DejaVuSans-55"/>
      </defs>
      <g transform="translate(322.406472 414.787528)scale(0.1 -0.1)">
       <use xlink:href="#DejaVuSans-50"/>
       <use x="63.623047" xlink:href="#DejaVuSans-48"/>
       <use x="127.246094" xlink:href="#DejaVuSans-49"/>
       <use x="190.869141" xlink:href="#DejaVuSans-52"/>
       <use x="254.492188" xlink:href="#DejaVuSans-45"/>
       <use x="290.576172" xlink:href="#DejaVuSans-48"/>
       <use x="354.199219" xlink:href="#DejaVuSans-55"/>
      </g>
     </g>
    </g>
    <g id="xtick_5">
     <g id="line2d_5">
      <g>
       <use style="stroke:#000000;stroke-width:0.8;" x="394.123524" xlink:href="#mf59c1e6ac9" y="400.189091"/>
      </g>
     </g>
     <g id="text_5">
      <!-- 2014-09 -->
      <defs>
       <path d="M 10.984375 1.515625 
L 10.984375 10.5 
Q 14.703125 8.734375 18.5 7.8125 
Q 22.3125 6.890625 25.984375 6.890625 
Q 35.75 6.890625 40.890625 13.453125 
Q 46.046875 20.015625 46.78125 33.40625 
Q 43.953125 29.203125 39.59375 26.953125 
Q 35.25 24.703125 29.984375 24.703125 
Q 19.046875 24.703125 12.671875 31.3125 
Q 6.296875 37.9375 6.296875 49.421875 
Q 6.296875 60.640625 12.9375 67.421875 
Q 19.578125 74.21875 30.609375 74.21875 
Q 43.265625 74.21875 49.921875 64.515625 
Q 56.59375 54.828125 56.59375 36.375 
Q 56.59375 19.140625 48.40625 8.859375 
Q 40.234375 -1.421875 26.421875 -1.421875 
Q 22.703125 -1.421875 18.890625 -0.6875 
Q 15.09375 0.046875 10.984375 1.515625 
z
M 30.609375 32.421875 
Q 37.25 32.421875 41.125 36.953125 
Q 45.015625 41.5 45.015625 49.421875 
Q 45.015625 57.28125 41.125 61.84375 
Q 37.25 66.40625 30.609375 66.40625 
Q 23.96875 66.40625 20.09375 61.84375 
Q 16.21875 57.28125 16.21875 49.421875 
Q 16.21875 41.5 20.09375 36.953125 
Q 23.96875 32.421875 30.609375 32.421875 
z
" id="DejaVuSans-57"/>
      </defs>
      <g transform="translate(373.232117 414.787528)scale(0.1 -0.1)">
       <use xlink:href="#DejaVuSans-50"/>
       <use x="63.623047" xlink:href="#DejaVuSans-48"/>
       <use x="127.246094" xlink:href="#DejaVuSans-49"/>
       <use x="190.869141" xlink:href="#DejaVuSans-52"/>
       <use x="254.492188" xlink:href="#DejaVuSans-45"/>
       <use x="290.576172" xlink:href="#DejaVuSans-48"/>
       <use x="354.199219" xlink:href="#DejaVuSans-57"/>
      </g>
     </g>
    </g>
    <g id="xtick_6">
     <g id="line2d_6">
      <g>
       <use style="stroke:#000000;stroke-width:0.8;" x="444.1294" xlink:href="#mf59c1e6ac9" y="400.189091"/>
      </g>
     </g>
     <g id="text_6">
      <!-- 2014-11 -->
      <g transform="translate(423.237994 414.787528)scale(0.1 -0.1)">
       <use xlink:href="#DejaVuSans-50"/>
       <use x="63.623047" xlink:href="#DejaVuSans-48"/>
       <use x="127.246094" xlink:href="#DejaVuSans-49"/>
       <use x="190.869141" xlink:href="#DejaVuSans-52"/>
       <use x="254.492188" xlink:href="#DejaVuSans-45"/>
       <use x="290.576172" xlink:href="#DejaVuSans-49"/>
       <use x="354.199219" xlink:href="#DejaVuSans-49"/>
      </g>
     </g>
    </g>
    <g id="xtick_7">
     <g id="line2d_7">
      <g>
       <use style="stroke:#000000;stroke-width:0.8;" x="494.135276" xlink:href="#mf59c1e6ac9" y="400.189091"/>
      </g>
     </g>
     <g id="text_7">
      <!-- 2015-01 -->
      <g transform="translate(473.24387 414.787528)scale(0.1 -0.1)">
       <use xlink:href="#DejaVuSans-50"/>
       <use x="63.623047" xlink:href="#DejaVuSans-48"/>
       <use x="127.246094" xlink:href="#DejaVuSans-49"/>
       <use x="190.869141" xlink:href="#DejaVuSans-53"/>
       <use x="254.492188" xlink:href="#DejaVuSans-45"/>
       <use x="290.576172" xlink:href="#DejaVuSans-48"/>
       <use x="354.199219" xlink:href="#DejaVuSans-49"/>
      </g>
     </g>
    </g>
   </g>
   <g id="matplotlib.axis_2">
    <g id="ytick_1">
     <g id="line2d_8">
      <defs>
       <path d="M 0 0 
L -3.5 0 
" id="mdeebb662f4" style="stroke:#000000;stroke-width:0.8;"/>
      </defs>
      <g>
       <use style="stroke:#000000;stroke-width:0.8;" x="180" xlink:href="#mdeebb662f4" y="386.711405"/>
      </g>
     </g>
     <g id="text_8">
      <!-- 0.00 -->
      <defs>
       <path d="M 10.6875 12.40625 
L 21 12.40625 
L 21 0 
L 10.6875 0 
z
" id="DejaVuSans-46"/>
      </defs>
      <g transform="translate(150.734375 390.510624)scale(0.1 -0.1)">
       <use xlink:href="#DejaVuSans-48"/>
       <use x="63.623047" xlink:href="#DejaVuSans-46"/>
       <use x="95.410156" xlink:href="#DejaVuSans-48"/>
       <use x="159.033203" xlink:href="#DejaVuSans-48"/>
      </g>
     </g>
    </g>
    <g id="ytick_2">
     <g id="line2d_9">
      <g>
       <use style="stroke:#000000;stroke-width:0.8;" x="180" xlink:href="#mdeebb662f4" y="327.65254"/>
      </g>
     </g>
     <g id="text_9">
      <!-- 0.02 -->
      <g transform="translate(150.734375 331.451759)scale(0.1 -0.1)">
       <use xlink:href="#DejaVuSans-48"/>
       <use x="63.623047" xlink:href="#DejaVuSans-46"/>
       <use x="95.410156" xlink:href="#DejaVuSans-48"/>
       <use x="159.033203" xlink:href="#DejaVuSans-50"/>
      </g>
     </g>
    </g>
    <g id="ytick_3">
     <g id="line2d_10">
      <g>
       <use style="stroke:#000000;stroke-width:0.8;" x="180" xlink:href="#mdeebb662f4" y="268.593675"/>
      </g>
     </g>
     <g id="text_10">
      <!-- 0.04 -->
      <g transform="translate(150.734375 272.392894)scale(0.1 -0.1)">
       <use xlink:href="#DejaVuSans-48"/>
       <use x="63.623047" xlink:href="#DejaVuSans-46"/>
       <use x="95.410156" xlink:href="#DejaVuSans-48"/>
       <use x="159.033203" xlink:href="#DejaVuSans-52"/>
      </g>
     </g>
    </g>
    <g id="ytick_4">
     <g id="line2d_11">
      <g>
       <use style="stroke:#000000;stroke-width:0.8;" x="180" xlink:href="#mdeebb662f4" y="209.53481"/>
      </g>
     </g>
     <g id="text_11">
      <!-- 0.06 -->
      <defs>
       <path d="M 33.015625 40.375 
Q 26.375 40.375 22.484375 35.828125 
Q 18.609375 31.296875 18.609375 23.390625 
Q 18.609375 15.53125 22.484375 10.953125 
Q 26.375 6.390625 33.015625 6.390625 
Q 39.65625 6.390625 43.53125 10.953125 
Q 47.40625 15.53125 47.40625 23.390625 
Q 47.40625 31.296875 43.53125 35.828125 
Q 39.65625 40.375 33.015625 40.375 
z
M 52.59375 71.296875 
L 52.59375 62.3125 
Q 48.875 64.0625 45.09375 64.984375 
Q 41.3125 65.921875 37.59375 65.921875 
Q 27.828125 65.921875 22.671875 59.328125 
Q 17.53125 52.734375 16.796875 39.40625 
Q 19.671875 43.65625 24.015625 45.921875 
Q 28.375 48.1875 33.59375 48.1875 
Q 44.578125 48.1875 50.953125 41.515625 
Q 57.328125 34.859375 57.328125 23.390625 
Q 57.328125 12.15625 50.6875 5.359375 
Q 44.046875 -1.421875 33.015625 -1.421875 
Q 20.359375 -1.421875 13.671875 8.265625 
Q 6.984375 17.96875 6.984375 36.375 
Q 6.984375 53.65625 15.1875 63.9375 
Q 23.390625 74.21875 37.203125 74.21875 
Q 40.921875 74.21875 44.703125 73.484375 
Q 48.484375 72.75 52.59375 71.296875 
z
" id="DejaVuSans-54"/>
      </defs>
      <g transform="translate(150.734375 213.334029)scale(0.1 -0.1)">
       <use xlink:href="#DejaVuSans-48"/>
       <use x="63.623047" xlink:href="#DejaVuSans-46"/>
       <use x="95.410156" xlink:href="#DejaVuSans-48"/>
       <use x="159.033203" xlink:href="#DejaVuSans-54"/>
      </g>
     </g>
    </g>
    <g id="ytick_5">
     <g id="line2d_12">
      <g>
       <use style="stroke:#000000;stroke-width:0.8;" x="180" xlink:href="#mdeebb662f4" y="150.475946"/>
      </g>
     </g>
     <g id="text_12">
      <!-- 0.08 -->
      <defs>
       <path d="M 31.78125 34.625 
Q 24.75 34.625 20.71875 30.859375 
Q 16.703125 27.09375 16.703125 20.515625 
Q 16.703125 13.921875 20.71875 10.15625 
Q 24.75 6.390625 31.78125 6.390625 
Q 38.8125 6.390625 42.859375 10.171875 
Q 46.921875 13.96875 46.921875 20.515625 
Q 46.921875 27.09375 42.890625 30.859375 
Q 38.875 34.625 31.78125 34.625 
z
M 21.921875 38.8125 
Q 15.578125 40.375 12.03125 44.71875 
Q 8.5 49.078125 8.5 55.328125 
Q 8.5 64.0625 14.71875 69.140625 
Q 20.953125 74.21875 31.78125 74.21875 
Q 42.671875 74.21875 48.875 69.140625 
Q 55.078125 64.0625 55.078125 55.328125 
Q 55.078125 49.078125 51.53125 44.71875 
Q 48 40.375 41.703125 38.8125 
Q 48.828125 37.15625 52.796875 32.3125 
Q 56.78125 27.484375 56.78125 20.515625 
Q 56.78125 9.90625 50.3125 4.234375 
Q 43.84375 -1.421875 31.78125 -1.421875 
Q 19.734375 -1.421875 13.25 4.234375 
Q 6.78125 9.90625 6.78125 20.515625 
Q 6.78125 27.484375 10.78125 32.3125 
Q 14.796875 37.15625 21.921875 38.8125 
z
M 18.3125 54.390625 
Q 18.3125 48.734375 21.84375 45.5625 
Q 25.390625 42.390625 31.78125 42.390625 
Q 38.140625 42.390625 41.71875 45.5625 
Q 45.3125 48.734375 45.3125 54.390625 
Q 45.3125 60.0625 41.71875 63.234375 
Q 38.140625 66.40625 31.78125 66.40625 
Q 25.390625 66.40625 21.84375 63.234375 
Q 18.3125 60.0625 18.3125 54.390625 
z
" id="DejaVuSans-56"/>
      </defs>
      <g transform="translate(150.734375 154.275164)scale(0.1 -0.1)">
       <use xlink:href="#DejaVuSans-48"/>
       <use x="63.623047" xlink:href="#DejaVuSans-46"/>
       <use x="95.410156" xlink:href="#DejaVuSans-48"/>
       <use x="159.033203" xlink:href="#DejaVuSans-56"/>
      </g>
     </g>
    </g>
   </g>
   <g id="line2d_13">
    <path clip-path="url(#p8fe81ed446)" d="M 194.919786 386.711405 
L 195.739555 345.67709 
L 196.559323 370.589529 
L 197.379091 386.088023 
L 198.19886 386.711405 
L 199.018628 376.856707 
L 199.838397 386.28294 
L 200.658165 386.711405 
L 201.477934 386.711405 
L 202.297702 366.598129 
L 203.117471 310.028441 
L 203.937239 277.840891 
L 204.757008 382.12121 
L 205.576776 338.205293 
L 206.396545 384.602444 
L 207.216313 384.934328 
L 208.036082 386.634141 
L 209.675618 386.711405 
L 216.233766 386.711405 
L 217.053535 375.887393 
L 217.873303 386.240796 
L 218.693072 386.711405 
L 221.152377 386.711405 
L 221.972146 341.476727 
L 222.791914 382.927215 
L 223.611682 299.797957 
L 224.431451 382.935995 
L 225.251219 386.711405 
L 227.710525 386.711405 
L 228.530293 321.484615 
L 229.350062 233.712482 
L 230.16983 344.519884 
L 230.989599 385.160853 
L 231.809367 367.365502 
L 232.629136 385.870279 
L 233.448904 386.711405 
L 234.268673 384.89394 
L 235.088441 386.632385 
L 235.908209 386.711405 
L 236.727978 262.073712 
L 237.547746 381.292375 
L 238.367515 386.711405 
L 240.007052 386.711405 
L 240.82682 369.748402 
L 241.646589 381.410027 
L 242.466357 386.512976 
L 243.286126 385.217045 
L 244.105894 386.646433 
L 244.925663 371.565865 
L 245.745431 380.762062 
L 246.5652 366.933525 
L 247.384968 385.861499 
L 248.204736 329.077576 
L 249.024505 384.205586 
L 249.844273 386.711405 
L 251.48381 386.711405 
L 252.303579 315.951445 
L 253.123347 383.634885 
L 253.943116 386.711405 
L 254.762884 386.711405 
L 255.582653 264.295061 
L 256.402421 274.80475 
L 257.22219 372.384163 
L 258.041958 384.391723 
L 258.861727 386.628873 
L 260.501263 386.711405 
L 261.321032 386.711405 
L 262.1408 350.240949 
L 262.960569 385.125733 
L 263.780337 386.711405 
L 264.600106 386.711405 
L 265.419874 298.382619 
L 266.239643 187.958037 
L 267.059411 378.236927 
L 267.87918 386.711405 
L 268.698948 386.711405 
L 269.518717 386.590241 
L 271.158254 386.711405 
L 272.79779 324.331103 
L 273.617559 182.598707 
L 274.437327 322.943853 
L 275.257096 382.906143 
L 276.076864 386.649945 
L 277.716401 386.711405 
L 279.355938 386.711405 
L 280.175707 235.336781 
L 280.995475 374.960222 
L 281.815244 386.486636 
L 282.635012 373.706435 
L 283.454781 264.900878 
L 284.274549 379.985907 
L 285.094317 386.648189 
L 285.914086 386.711405 
L 286.733854 378.835724 
L 287.553623 386.368984 
L 288.373391 380.976294 
L 289.19316 386.462052 
L 290.012928 386.711405 
L 290.832697 383.157252 
L 291.652465 216.563343 
L 292.472234 361.2669 
L 293.292002 363.187968 
L 294.111771 385.722774 
L 294.931539 386.711405 
L 299.85015 386.711405 
L 300.669918 300.886679 
L 301.489687 371.79239 
L 302.309455 384.569079 
L 303.129224 383.004479 
L 303.948992 386.553365 
L 304.768761 155.045247 
L 305.588529 376.638963 
L 306.408298 386.711405 
L 314.605982 386.711405 
L 315.425751 333.116388 
L 316.245519 332.845965 
L 317.065288 382.61289 
L 317.885056 357.106925 
L 318.704825 368.30321 
L 319.524593 383.18008 
L 320.344362 386.590241 
L 321.16413 386.711405 
L 322.803667 386.711405 
L 323.623435 314.335924 
L 324.443204 318.25707 
L 325.262972 376.844415 
L 326.082741 386.40586 
L 326.902509 324.15023 
L 327.722278 309.556067 
L 328.542046 383.475088 
L 329.361815 386.711405 
L 331.82112 386.711405 
L 332.640889 371.565865 
L 333.460657 386.012515 
L 334.280425 384.165198 
L 335.100194 386.600777 
L 335.919962 385.580538 
L 336.739731 383.552353 
L 337.559499 331.123326 
L 338.379268 380.988586 
L 339.199036 386.567413 
L 340.018805 376.170109 
L 340.838573 298.691675 
L 341.658342 365.618278 
L 342.47811 382.809563 
L 343.297879 386.574437 
L 344.117647 386.711405 
L 344.937416 370.111894 
L 345.757184 385.989687 
L 346.576952 386.711405 
L 349.856026 386.711405 
L 350.675795 333.399103 
L 351.495563 371.671225 
L 352.315332 386.158263 
L 353.1351 386.711405 
L 353.954869 386.711405 
L 354.774637 386.307524 
L 355.594406 367.711437 
L 356.414174 385.886083 
L 357.233943 386.711405 
L 358.053711 354.966356 
L 358.873479 308.270682 
L 359.693248 348.586792 
L 360.513016 377.121864 
L 362.152553 386.514732 
L 362.972322 385.701702 
L 363.79209 386.667505 
L 366.251396 386.711405 
L 371.989775 386.711405 
L 372.809543 377.179813 
L 373.629312 386.296988 
L 374.44908 384.611224 
L 375.268849 386.620093 
L 376.088617 186.669126 
L 376.908386 374.742478 
L 377.728154 386.569169 
L 378.547923 386.711405 
L 381.826997 386.711405 
L 382.646765 319.78832 
L 383.466533 332.91269 
L 384.286302 375.411515 
L 385.10607 386.316304 
L 385.925839 386.711405 
L 387.565376 386.709649 
L 388.385144 383.238028 
L 389.204913 386.560389 
L 390.024681 386.711405 
L 392.483987 386.711405 
L 393.303755 329.077576 
L 394.123524 382.711227 
L 394.943292 386.646433 
L 395.76306 386.711405 
L 396.582829 353.916262 
L 397.402597 384.962424 
L 398.222366 386.697357 
L 399.042134 385.055493 
L 399.861903 338.254464 
L 400.681671 384.607712 
L 401.50144 386.711405 
L 403.140977 386.711405 
L 403.960745 376.81632 
L 404.780514 386.281184 
L 405.600282 361.711167 
L 406.420051 371.771318 
L 407.239819 386.109095 
L 408.059587 386.711405 
L 408.879356 386.711405 
L 409.699124 386.549853 
L 410.518893 386.704381 
L 411.338661 385.378597 
L 412.15843 353.979478 
L 412.978198 385.290797 
L 413.797967 386.711405 
L 416.257272 386.711405 
L 417.077041 324.473333 
L 417.896809 271.039879 
L 418.716578 381.79986 
L 419.536346 386.711405 
L 420.356114 370.677327 
L 421.175883 323.129993 
L 421.995651 383.977306 
L 422.81542 386.711405 
L 426.094494 386.711405 
L 426.914262 365.265323 
L 427.734031 384.203831 
L 428.553799 386.642921 
L 429.373568 263.446909 
L 430.193336 373.476398 
L 431.013105 386.368984 
L 431.832873 386.711405 
L 441.670095 386.711405 
L 442.489863 374.069928 
L 443.309632 386.161776 
L 444.1294 383.116864 
L 444.949168 386.555121 
L 445.768937 386.711405 
L 448.228242 386.711405 
L 449.048011 385.095881 
L 449.867779 386.641165 
L 451.507316 386.711405 
L 456.425927 386.711405 
L 457.245695 308.600807 
L 458.065464 377.943674 
L 458.885232 386.477856 
L 459.705001 386.711405 
L 461.344538 386.711405 
L 462.164306 375.281572 
L 462.984075 317.393119 
L 463.803843 383.719173 
L 464.623612 386.711405 
L 472.821296 386.711405 
L 473.641065 354.562476 
L 474.460833 385.313625 
L 475.280602 386.711405 
L 480.199213 386.711405 
L 481.018981 366.396188 
L 481.838749 385.828135 
L 482.658518 386.711405 
L 483.478286 386.711405 
L 484.298055 355.491398 
L 485.117823 380.749769 
L 485.937592 384.734144 
L 486.75736 317.005049 
L 487.577129 125.361739 
L 488.396897 373.622147 
L 489.216666 386.630629 
L 490.036434 386.711405 
L 490.856203 258.600337 
L 491.675971 337.845309 
L 492.49574 384.828968 
L 493.315508 386.711405 
L 493.315508 386.711405 
" style="fill:none;stroke:#1f77b4;stroke-linecap:square;stroke-width:1.5;"/>
   </g>
   <g id="patch_3">
    <path d="M 180 400.189091 
L 180 103.68 
" style="fill:none;stroke:#000000;stroke-linecap:square;stroke-linejoin:miter;stroke-width:0.8;"/>
   </g>
   <g id="patch_4">
    <path d="M 508.235294 400.189091 
L 508.235294 103.68 
" style="fill:none;stroke:#000000;stroke-linecap:square;stroke-linejoin:miter;stroke-width:0.8;"/>
   </g>
   <g id="patch_5">
    <path d="M 180 400.189091 
L 508.235294 400.189091 
" style="fill:none;stroke:#000000;stroke-linecap:square;stroke-linejoin:miter;stroke-width:0.8;"/>
   </g>
   <g id="patch_6">
    <path d="M 180 103.68 
L 508.235294 103.68 
" style="fill:none;stroke:#000000;stroke-linecap:square;stroke-linejoin:miter;stroke-width:0.8;"/>
   </g>
   <g id="text_13">
    <!-- 01:00:00 -->
    <defs>
     <path d="M 11.71875 12.40625 
L 22.015625 12.40625 
L 22.015625 0 
L 11.71875 0 
z
M 11.71875 51.703125 
L 22.015625 51.703125 
L 22.015625 39.3125 
L 11.71875 39.3125 
z
" id="DejaVuSans-58"/>
    </defs>
    <g transform="translate(317.170147 97.68)scale(0.12 -0.12)">
     <use xlink:href="#DejaVuSans-48"/>
     <use x="63.623047" xlink:href="#DejaVuSans-49"/>
     <use x="127.246094" xlink:href="#DejaVuSans-58"/>
     <use x="160.9375" xlink:href="#DejaVuSans-48"/>
     <use x="224.560547" xlink:href="#DejaVuSans-48"/>
     <use x="288.183594" xlink:href="#DejaVuSans-58"/>
     <use x="321.875" xlink:href="#DejaVuSans-48"/>
     <use x="385.498047" xlink:href="#DejaVuSans-48"/>
    </g>
   </g>
  </g>
  <g id="axes_2">
   <g id="patch_7">
    <path d="M 573.882353 400.189091 
L 902.117647 400.189091 
L 902.117647 103.68 
L 573.882353 103.68 
z
" style="fill:#ffffff;"/>
   </g>
   <g id="matplotlib.axis_3">
    <g id="xtick_8">
     <g id="line2d_14">
      <g>
       <use style="stroke:#000000;stroke-width:0.8;" x="588.802139" xlink:href="#mf59c1e6ac9" y="400.189091"/>
      </g>
     </g>
     <g id="text_14">
      <!-- 2014-01 -->
      <g transform="translate(567.910733 414.787528)scale(0.1 -0.1)">
       <use xlink:href="#DejaVuSans-50"/>
       <use x="63.623047" xlink:href="#DejaVuSans-48"/>
       <use x="127.246094" xlink:href="#DejaVuSans-49"/>
       <use x="190.869141" xlink:href="#DejaVuSans-52"/>
       <use x="254.492188" xlink:href="#DejaVuSans-45"/>
       <use x="290.576172" xlink:href="#DejaVuSans-48"/>
       <use x="354.199219" xlink:href="#DejaVuSans-49"/>
      </g>
     </g>
    </g>
    <g id="xtick_9">
     <g id="line2d_15">
      <g>
       <use style="stroke:#000000;stroke-width:0.8;" x="637.168479" xlink:href="#mf59c1e6ac9" y="400.189091"/>
      </g>
     </g>
     <g id="text_15">
      <!-- 2014-03 -->
      <g transform="translate(616.277072 414.787528)scale(0.1 -0.1)">
       <use xlink:href="#DejaVuSans-50"/>
       <use x="63.623047" xlink:href="#DejaVuSans-48"/>
       <use x="127.246094" xlink:href="#DejaVuSans-49"/>
       <use x="190.869141" xlink:href="#DejaVuSans-52"/>
       <use x="254.492188" xlink:href="#DejaVuSans-45"/>
       <use x="290.576172" xlink:href="#DejaVuSans-48"/>
       <use x="354.199219" xlink:href="#DejaVuSans-51"/>
      </g>
     </g>
    </g>
    <g id="xtick_10">
     <g id="line2d_16">
      <g>
       <use style="stroke:#000000;stroke-width:0.8;" x="687.174355" xlink:href="#mf59c1e6ac9" y="400.189091"/>
      </g>
     </g>
     <g id="text_16">
      <!-- 2014-05 -->
      <g transform="translate(666.282949 414.787528)scale(0.1 -0.1)">
       <use xlink:href="#DejaVuSans-50"/>
       <use x="63.623047" xlink:href="#DejaVuSans-48"/>
       <use x="127.246094" xlink:href="#DejaVuSans-49"/>
       <use x="190.869141" xlink:href="#DejaVuSans-52"/>
       <use x="254.492188" xlink:href="#DejaVuSans-45"/>
       <use x="290.576172" xlink:href="#DejaVuSans-48"/>
       <use x="354.199219" xlink:href="#DejaVuSans-53"/>
      </g>
     </g>
    </g>
    <g id="xtick_11">
     <g id="line2d_17">
      <g>
       <use style="stroke:#000000;stroke-width:0.8;" x="737.180232" xlink:href="#mf59c1e6ac9" y="400.189091"/>
      </g>
     </g>
     <g id="text_17">
      <!-- 2014-07 -->
      <g transform="translate(716.288825 414.787528)scale(0.1 -0.1)">
       <use xlink:href="#DejaVuSans-50"/>
       <use x="63.623047" xlink:href="#DejaVuSans-48"/>
       <use x="127.246094" xlink:href="#DejaVuSans-49"/>
       <use x="190.869141" xlink:href="#DejaVuSans-52"/>
       <use x="254.492188" xlink:href="#DejaVuSans-45"/>
       <use x="290.576172" xlink:href="#DejaVuSans-48"/>
       <use x="354.199219" xlink:href="#DejaVuSans-55"/>
      </g>
     </g>
    </g>
    <g id="xtick_12">
     <g id="line2d_18">
      <g>
       <use style="stroke:#000000;stroke-width:0.8;" x="788.005876" xlink:href="#mf59c1e6ac9" y="400.189091"/>
      </g>
     </g>
     <g id="text_18">
      <!-- 2014-09 -->
      <g transform="translate(767.11447 414.787528)scale(0.1 -0.1)">
       <use xlink:href="#DejaVuSans-50"/>
       <use x="63.623047" xlink:href="#DejaVuSans-48"/>
       <use x="127.246094" xlink:href="#DejaVuSans-49"/>
       <use x="190.869141" xlink:href="#DejaVuSans-52"/>
       <use x="254.492188" xlink:href="#DejaVuSans-45"/>
       <use x="290.576172" xlink:href="#DejaVuSans-48"/>
       <use x="354.199219" xlink:href="#DejaVuSans-57"/>
      </g>
     </g>
    </g>
    <g id="xtick_13">
     <g id="line2d_19">
      <g>
       <use style="stroke:#000000;stroke-width:0.8;" x="838.011753" xlink:href="#mf59c1e6ac9" y="400.189091"/>
      </g>
     </g>
     <g id="text_19">
      <!-- 2014-11 -->
      <g transform="translate(817.120347 414.787528)scale(0.1 -0.1)">
       <use xlink:href="#DejaVuSans-50"/>
       <use x="63.623047" xlink:href="#DejaVuSans-48"/>
       <use x="127.246094" xlink:href="#DejaVuSans-49"/>
       <use x="190.869141" xlink:href="#DejaVuSans-52"/>
       <use x="254.492188" xlink:href="#DejaVuSans-45"/>
       <use x="290.576172" xlink:href="#DejaVuSans-49"/>
       <use x="354.199219" xlink:href="#DejaVuSans-49"/>
      </g>
     </g>
    </g>
    <g id="xtick_14">
     <g id="line2d_20">
      <g>
       <use style="stroke:#000000;stroke-width:0.8;" x="888.017629" xlink:href="#mf59c1e6ac9" y="400.189091"/>
      </g>
     </g>
     <g id="text_20">
      <!-- 2015-01 -->
      <g transform="translate(867.126223 414.787528)scale(0.1 -0.1)">
       <use xlink:href="#DejaVuSans-50"/>
       <use x="63.623047" xlink:href="#DejaVuSans-48"/>
       <use x="127.246094" xlink:href="#DejaVuSans-49"/>
       <use x="190.869141" xlink:href="#DejaVuSans-53"/>
       <use x="254.492188" xlink:href="#DejaVuSans-45"/>
       <use x="290.576172" xlink:href="#DejaVuSans-48"/>
       <use x="354.199219" xlink:href="#DejaVuSans-49"/>
      </g>
     </g>
    </g>
   </g>
   <g id="matplotlib.axis_4">
    <g id="ytick_6">
     <g id="line2d_21">
      <g>
       <use style="stroke:#000000;stroke-width:0.8;" x="573.882353" xlink:href="#mdeebb662f4" y="386.711405"/>
      </g>
     </g>
    </g>
    <g id="ytick_7">
     <g id="line2d_22">
      <g>
       <use style="stroke:#000000;stroke-width:0.8;" x="573.882353" xlink:href="#mdeebb662f4" y="327.65254"/>
      </g>
     </g>
    </g>
    <g id="ytick_8">
     <g id="line2d_23">
      <g>
       <use style="stroke:#000000;stroke-width:0.8;" x="573.882353" xlink:href="#mdeebb662f4" y="268.593675"/>
      </g>
     </g>
    </g>
    <g id="ytick_9">
     <g id="line2d_24">
      <g>
       <use style="stroke:#000000;stroke-width:0.8;" x="573.882353" xlink:href="#mdeebb662f4" y="209.53481"/>
      </g>
     </g>
    </g>
    <g id="ytick_10">
     <g id="line2d_25">
      <g>
       <use style="stroke:#000000;stroke-width:0.8;" x="573.882353" xlink:href="#mdeebb662f4" y="150.475946"/>
      </g>
     </g>
    </g>
   </g>
   <g id="line2d_26">
    <path clip-path="url(#p4baf8a9350)" d="M 588.802139 386.711405 
L 589.621908 349.245291 
L 591.261444 384.84126 
L 592.081213 386.711405 
L 592.900981 377.713637 
L 593.72075 385.42601 
L 594.540518 386.711405 
L 595.360287 386.711405 
L 596.180055 368.347109 
L 596.999824 314.871502 
L 597.819592 280.429241 
L 598.639361 372.940819 
L 599.459129 342.423216 
L 600.278898 380.384521 
L 601.098666 385.088857 
L 601.918435 386.479612 
L 602.738203 386.711405 
L 610.116119 386.711405 
L 610.935888 376.828611 
L 611.755656 385.299577 
L 612.575425 386.711405 
L 615.03473 386.711405 
L 615.854498 345.410177 
L 616.674267 379.151805 
L 617.494035 307.190737 
L 618.313804 375.385175 
L 619.133572 386.711405 
L 621.592878 386.711405 
L 622.412646 327.15651 
L 623.232415 241.098237 
L 624.052183 334.563338 
L 624.871952 382.059749 
L 625.69172 369.047754 
L 626.511489 384.188026 
L 627.331257 386.711405 
L 628.151025 385.051981 
L 628.970794 386.474344 
L 629.790562 386.711405 
L 630.610331 272.911772 
L 631.430099 370.454315 
L 632.249868 386.711405 
L 633.889405 386.711405 
L 634.709173 371.223446 
L 635.528942 380.33184 
L 636.34871 386.116119 
L 637.168479 385.34699 
L 637.988247 386.516488 
L 638.808016 372.882869 
L 639.627784 379.905131 
L 640.447552 368.173265 
L 641.267321 384.161686 
L 642.087089 334.089213 
L 642.906858 379.193949 
L 643.726626 386.711405 
L 645.366163 386.711405 
L 646.185932 322.104485 
L 647.0057 377.481845 
L 647.825469 386.711405 
L 648.645237 386.711405 
L 649.465006 274.939961 
L 650.284774 273.428042 
L 651.104543 363.958854 
L 651.924311 383.713905 
L 652.744079 386.463808 
L 653.563848 386.711405 
L 655.203385 386.711405 
L 656.023153 353.412293 
L 656.842922 381.954389 
L 657.66269 386.711405 
L 658.482459 386.711405 
L 659.302227 306.063383 
L 660.121996 197.226228 
L 660.941764 361.287972 
L 661.761533 386.711405 
L 665.040606 386.711405 
L 665.860375 359.976231 
L 666.680143 327.098565 
L 667.499912 194.802939 
L 668.31968 310.209308 
L 669.139449 378.245707 
L 669.959217 386.527024 
L 670.778986 386.711405 
L 673.238291 386.711405 
L 674.05806 248.499792 
L 674.877828 362.246749 
L 675.697597 386.037099 
L 676.517365 374.837302 
L 677.337133 274.313063 
L 678.156902 369.569288 
L 678.97667 386.521756 
L 679.796439 386.711405 
L 680.616207 379.520566 
L 681.435976 385.684142 
L 682.255744 381.474999 
L 683.075513 385.963347 
L 683.895281 386.711405 
L 684.71505 383.466309 
L 685.534818 231.036333 
L 686.354587 348.054722 
L 687.174355 363.595361 
L 687.994124 383.745513 
L 688.813892 386.711405 
L 693.732503 386.711405 
L 694.552271 308.349699 
L 695.37204 365.302197 
L 696.191808 383.740245 
L 697.011577 383.176568 
L 697.831345 386.237284 
L 698.651114 175.19013 
L 699.470882 356.49408 
L 700.290651 386.711405 
L 708.488335 386.711405 
L 709.308104 337.776824 
L 710.127872 332.666853 
L 710.947641 378.293119 
L 711.767409 359.512651 
L 712.587178 367.225023 
L 713.406946 381.933317 
L 714.226714 386.347912 
L 715.046483 386.711405 
L 716.68602 386.711405 
L 717.505788 320.629444 
L 718.325557 317.64247 
L 719.145325 371.776585 
L 719.965094 385.794771 
L 720.784862 329.590332 
L 721.604631 310.588598 
L 722.424399 377.002454 
L 723.244168 386.711405 
L 725.703473 386.711405 
L 726.523241 372.882869 
L 727.34301 384.699024 
L 728.162778 384.382943 
L 728.982547 386.37952 
L 729.802315 385.678874 
L 730.622084 383.724441 
L 731.441852 335.67489 
L 732.261621 376.454583 
L 733.081389 386.279428 
L 733.901158 377.086744 
L 734.720926 305.389076 
L 735.540695 359.507382 
L 736.360463 381.58036 
L 737.180232 386.3005 
L 738 386.711405 
L 738.819768 371.555329 
L 739.639537 384.546251 
L 740.459305 386.711405 
L 743.738379 386.711405 
L 744.558148 338.034956 
L 745.377916 368.141656 
L 746.197685 385.051981 
L 747.017453 386.711405 
L 747.837222 386.711405 
L 748.65699 386.342644 
L 749.476759 369.326961 
L 750.296527 384.235439 
L 751.116295 386.711405 
L 751.936064 357.726795 
L 752.755832 312.211156 
L 754.395369 374.800426 
L 755.215138 381.52768 
L 756.034906 386.121387 
L 756.854675 385.789503 
L 757.674443 386.579705 
L 758.494212 386.711405 
L 765.872128 386.711405 
L 766.691896 378.008647 
L 767.511665 385.468154 
L 768.331433 384.793848 
L 769.151202 386.437468 
L 769.97097 204.064107 
L 770.790739 357.63197 
L 771.610507 386.284696 
L 772.430276 386.711405 
L 775.709349 386.711405 
L 776.529118 325.607719 
L 777.348886 331.518423 
L 778.168655 371.776586 
L 778.988423 385.526102 
L 779.808192 386.711405 
L 781.447729 386.706137 
L 782.267497 383.540061 
L 783.087266 386.258356 
L 783.907034 386.711405 
L 786.36634 386.711405 
L 787.186108 334.089213 
L 788.005876 377.829534 
L 788.825645 386.516488 
L 789.645413 386.711405 
L 790.465182 356.768014 
L 791.28495 382.138769 
L 792.104719 386.669261 
L 792.924487 385.199485 
L 793.744256 342.317858 
L 794.564024 380.400325 
L 795.383793 386.711405 
L 797.02333 386.711405 
L 797.843098 377.676762 
L 798.662867 385.420742 
L 799.482635 363.885101 
L 800.302403 370.802004 
L 801.122172 384.904476 
L 801.94194 386.711405 
L 802.761709 386.711405 
L 803.581477 386.563901 
L 804.401246 386.690333 
L 805.221014 385.494494 
L 806.040783 356.704798 
L 806.860551 382.449582 
L 807.68032 386.711405 
L 810.139625 386.711405 
L 811.779162 275.450961 
L 812.59893 371.976772 
L 813.418699 386.711405 
L 814.238467 372.071594 
L 815.058236 327.203923 
L 815.878004 378.509108 
L 816.697773 386.711405 
L 819.976847 386.711405 
L 820.796615 367.1302 
L 821.616384 382.475922 
L 822.436152 386.505952 
L 823.255921 274.165561 
L 824.075689 363.442588 
L 824.895457 385.684142 
L 825.715226 386.711405 
L 835.552448 386.711405 
L 836.372216 375.169187 
L 837.191984 385.062517 
L 838.011753 383.429433 
L 838.831521 386.242552 
L 839.65129 386.711405 
L 842.110595 386.711405 
L 842.930364 385.236361 
L 843.750132 386.500684 
L 844.569901 386.711405 
L 850.30828 386.711405 
L 851.128048 315.393033 
L 851.947817 371.618546 
L 852.767585 386.010759 
L 853.587354 386.711405 
L 855.226891 386.711405 
L 856.046659 376.275471 
L 856.866428 322.383684 
L 857.686196 377.734709 
L 858.505965 386.711405 
L 866.703649 386.711405 
L 867.523418 357.358035 
L 868.343186 382.518066 
L 869.162955 386.711405 
L 874.081565 386.711405 
L 874.901334 368.162728 
L 875.721102 384.061594 
L 876.540871 386.711405 
L 877.360639 386.711405 
L 878.180408 358.206181 
L 879.000176 378.435355 
L 879.819945 384.488303 
L 880.639713 322.905224 
L 881.459482 141.769845 
L 882.27925 351.32089 
L 883.099019 386.469076 
L 883.918787 386.711405 
L 884.738556 269.74043 
L 885.558324 330.47009 
L 886.378092 381.064094 
L 887.197861 386.711405 
L 887.197861 386.711405 
" style="fill:none;stroke:#1f77b4;stroke-linecap:square;stroke-width:1.5;"/>
   </g>
   <g id="patch_8">
    <path d="M 573.882353 400.189091 
L 573.882353 103.68 
" style="fill:none;stroke:#000000;stroke-linecap:square;stroke-linejoin:miter;stroke-width:0.8;"/>
   </g>
   <g id="patch_9">
    <path d="M 902.117647 400.189091 
L 902.117647 103.68 
" style="fill:none;stroke:#000000;stroke-linecap:square;stroke-linejoin:miter;stroke-width:0.8;"/>
   </g>
   <g id="patch_10">
    <path d="M 573.882353 400.189091 
L 902.117647 400.189091 
" style="fill:none;stroke:#000000;stroke-linecap:square;stroke-linejoin:miter;stroke-width:0.8;"/>
   </g>
   <g id="patch_11">
    <path d="M 573.882353 103.68 
L 902.117647 103.68 
" style="fill:none;stroke:#000000;stroke-linecap:square;stroke-linejoin:miter;stroke-width:0.8;"/>
   </g>
   <g id="text_21">
    <!-- 03:00:00 -->
    <g transform="translate(711.0525 97.68)scale(0.12 -0.12)">
     <use xlink:href="#DejaVuSans-48"/>
     <use x="63.623047" xlink:href="#DejaVuSans-51"/>
     <use x="127.246094" xlink:href="#DejaVuSans-58"/>
     <use x="160.9375" xlink:href="#DejaVuSans-48"/>
     <use x="224.560547" xlink:href="#DejaVuSans-48"/>
     <use x="288.183594" xlink:href="#DejaVuSans-58"/>
     <use x="321.875" xlink:href="#DejaVuSans-48"/>
     <use x="385.498047" xlink:href="#DejaVuSans-48"/>
    </g>
   </g>
  </g>
  <g id="axes_3">
   <g id="patch_12">
    <path d="M 967.764706 400.189091 
L 1296 400.189091 
L 1296 103.68 
L 967.764706 103.68 
z
" style="fill:#ffffff;"/>
   </g>
   <g id="matplotlib.axis_5">
    <g id="xtick_15">
     <g id="line2d_27">
      <g>
       <use style="stroke:#000000;stroke-width:0.8;" x="982.684492" xlink:href="#mf59c1e6ac9" y="400.189091"/>
      </g>
     </g>
     <g id="text_22">
      <!-- 2014-01 -->
      <g transform="translate(961.793086 414.787528)scale(0.1 -0.1)">
       <use xlink:href="#DejaVuSans-50"/>
       <use x="63.623047" xlink:href="#DejaVuSans-48"/>
       <use x="127.246094" xlink:href="#DejaVuSans-49"/>
       <use x="190.869141" xlink:href="#DejaVuSans-52"/>
       <use x="254.492188" xlink:href="#DejaVuSans-45"/>
       <use x="290.576172" xlink:href="#DejaVuSans-48"/>
       <use x="354.199219" xlink:href="#DejaVuSans-49"/>
      </g>
     </g>
    </g>
    <g id="xtick_16">
     <g id="line2d_28">
      <g>
       <use style="stroke:#000000;stroke-width:0.8;" x="1031.050832" xlink:href="#mf59c1e6ac9" y="400.189091"/>
      </g>
     </g>
     <g id="text_23">
      <!-- 2014-03 -->
      <g transform="translate(1010.159425 414.787528)scale(0.1 -0.1)">
       <use xlink:href="#DejaVuSans-50"/>
       <use x="63.623047" xlink:href="#DejaVuSans-48"/>
       <use x="127.246094" xlink:href="#DejaVuSans-49"/>
       <use x="190.869141" xlink:href="#DejaVuSans-52"/>
       <use x="254.492188" xlink:href="#DejaVuSans-45"/>
       <use x="290.576172" xlink:href="#DejaVuSans-48"/>
       <use x="354.199219" xlink:href="#DejaVuSans-51"/>
      </g>
     </g>
    </g>
    <g id="xtick_17">
     <g id="line2d_29">
      <g>
       <use style="stroke:#000000;stroke-width:0.8;" x="1081.056708" xlink:href="#mf59c1e6ac9" y="400.189091"/>
      </g>
     </g>
     <g id="text_24">
      <!-- 2014-05 -->
      <g transform="translate(1060.165302 414.787528)scale(0.1 -0.1)">
       <use xlink:href="#DejaVuSans-50"/>
       <use x="63.623047" xlink:href="#DejaVuSans-48"/>
       <use x="127.246094" xlink:href="#DejaVuSans-49"/>
       <use x="190.869141" xlink:href="#DejaVuSans-52"/>
       <use x="254.492188" xlink:href="#DejaVuSans-45"/>
       <use x="290.576172" xlink:href="#DejaVuSans-48"/>
       <use x="354.199219" xlink:href="#DejaVuSans-53"/>
      </g>
     </g>
    </g>
    <g id="xtick_18">
     <g id="line2d_30">
      <g>
       <use style="stroke:#000000;stroke-width:0.8;" x="1131.062584" xlink:href="#mf59c1e6ac9" y="400.189091"/>
      </g>
     </g>
     <g id="text_25">
      <!-- 2014-07 -->
      <g transform="translate(1110.171178 414.787528)scale(0.1 -0.1)">
       <use xlink:href="#DejaVuSans-50"/>
       <use x="63.623047" xlink:href="#DejaVuSans-48"/>
       <use x="127.246094" xlink:href="#DejaVuSans-49"/>
       <use x="190.869141" xlink:href="#DejaVuSans-52"/>
       <use x="254.492188" xlink:href="#DejaVuSans-45"/>
       <use x="290.576172" xlink:href="#DejaVuSans-48"/>
       <use x="354.199219" xlink:href="#DejaVuSans-55"/>
      </g>
     </g>
    </g>
    <g id="xtick_19">
     <g id="line2d_31">
      <g>
       <use style="stroke:#000000;stroke-width:0.8;" x="1181.888229" xlink:href="#mf59c1e6ac9" y="400.189091"/>
      </g>
     </g>
     <g id="text_26">
      <!-- 2014-09 -->
      <g transform="translate(1160.996823 414.787528)scale(0.1 -0.1)">
       <use xlink:href="#DejaVuSans-50"/>
       <use x="63.623047" xlink:href="#DejaVuSans-48"/>
       <use x="127.246094" xlink:href="#DejaVuSans-49"/>
       <use x="190.869141" xlink:href="#DejaVuSans-52"/>
       <use x="254.492188" xlink:href="#DejaVuSans-45"/>
       <use x="290.576172" xlink:href="#DejaVuSans-48"/>
       <use x="354.199219" xlink:href="#DejaVuSans-57"/>
      </g>
     </g>
    </g>
    <g id="xtick_20">
     <g id="line2d_32">
      <g>
       <use style="stroke:#000000;stroke-width:0.8;" x="1231.894106" xlink:href="#mf59c1e6ac9" y="400.189091"/>
      </g>
     </g>
     <g id="text_27">
      <!-- 2014-11 -->
      <g transform="translate(1211.0027 414.787528)scale(0.1 -0.1)">
       <use xlink:href="#DejaVuSans-50"/>
       <use x="63.623047" xlink:href="#DejaVuSans-48"/>
       <use x="127.246094" xlink:href="#DejaVuSans-49"/>
       <use x="190.869141" xlink:href="#DejaVuSans-52"/>
       <use x="254.492188" xlink:href="#DejaVuSans-45"/>
       <use x="290.576172" xlink:href="#DejaVuSans-49"/>
       <use x="354.199219" xlink:href="#DejaVuSans-49"/>
      </g>
     </g>
    </g>
    <g id="xtick_21">
     <g id="line2d_33">
      <g>
       <use style="stroke:#000000;stroke-width:0.8;" x="1281.899982" xlink:href="#mf59c1e6ac9" y="400.189091"/>
      </g>
     </g>
     <g id="text_28">
      <!-- 2015-01 -->
      <g transform="translate(1261.008576 414.787528)scale(0.1 -0.1)">
       <use xlink:href="#DejaVuSans-50"/>
       <use x="63.623047" xlink:href="#DejaVuSans-48"/>
       <use x="127.246094" xlink:href="#DejaVuSans-49"/>
       <use x="190.869141" xlink:href="#DejaVuSans-53"/>
       <use x="254.492188" xlink:href="#DejaVuSans-45"/>
       <use x="290.576172" xlink:href="#DejaVuSans-48"/>
       <use x="354.199219" xlink:href="#DejaVuSans-49"/>
      </g>
     </g>
    </g>
   </g>
   <g id="matplotlib.axis_6">
    <g id="ytick_11">
     <g id="line2d_34">
      <g>
       <use style="stroke:#000000;stroke-width:0.8;" x="967.764706" xlink:href="#mdeebb662f4" y="386.711405"/>
      </g>
     </g>
    </g>
    <g id="ytick_12">
     <g id="line2d_35">
      <g>
       <use style="stroke:#000000;stroke-width:0.8;" x="967.764706" xlink:href="#mdeebb662f4" y="327.65254"/>
      </g>
     </g>
    </g>
    <g id="ytick_13">
     <g id="line2d_36">
      <g>
       <use style="stroke:#000000;stroke-width:0.8;" x="967.764706" xlink:href="#mdeebb662f4" y="268.593675"/>
      </g>
     </g>
    </g>
    <g id="ytick_14">
     <g id="line2d_37">
      <g>
       <use style="stroke:#000000;stroke-width:0.8;" x="967.764706" xlink:href="#mdeebb662f4" y="209.53481"/>
      </g>
     </g>
    </g>
    <g id="ytick_15">
     <g id="line2d_38">
      <g>
       <use style="stroke:#000000;stroke-width:0.8;" x="967.764706" xlink:href="#mdeebb662f4" y="150.475946"/>
      </g>
     </g>
    </g>
   </g>
   <g id="line2d_39">
    <path clip-path="url(#p3665e38204)" d="M 982.684492 386.711405 
L 983.50426 354.597593 
L 984.324029 364.785933 
L 985.143797 382.971116 
L 985.963566 386.711405 
L 986.783334 378.999033 
L 987.603103 384.140614 
L 988.422871 386.711405 
L 989.24264 386.711405 
L 990.062408 370.97058 
L 990.882177 322.136093 
L 991.701945 284.311765 
L 992.521714 359.170233 
L 993.341482 348.7501 
L 994.161251 374.057637 
L 994.981019 385.320649 
L 995.800787 386.24782 
L 996.620556 386.711405 
L 1003.998472 386.711405 
L 1004.818241 378.240439 
L 1005.638009 383.88775 
L 1006.457778 386.711405 
L 1008.917083 386.711405 
L 1009.736851 351.310353 
L 1010.55662 373.48869 
L 1011.376388 318.279906 
L 1012.196157 364.058946 
L 1013.015925 386.711405 
L 1015.475231 386.711405 
L 1016.294999 335.664352 
L 1017.114768 252.17687 
L 1017.934536 319.628519 
L 1018.754305 377.408093 
L 1019.574073 371.571133 
L 1020.393841 381.664648 
L 1021.21361 386.711405 
L 1022.033378 385.289041 
L 1022.853147 386.237284 
L 1023.672915 386.711405 
L 1024.492684 289.168862 
L 1025.312452 354.197224 
L 1026.132221 386.711405 
L 1027.771758 386.711405 
L 1028.591526 373.436011 
L 1029.411295 378.71456 
L 1030.231063 385.520834 
L 1031.050832 385.541906 
L 1031.8706 386.321572 
L 1032.690368 374.858374 
L 1033.510137 378.619736 
L 1034.329905 370.032873 
L 1035.149674 381.611968 
L 1035.969442 341.606669 
L 1036.789211 371.676493 
L 1037.608979 386.711405 
L 1039.248516 386.711405 
L 1040.068285 331.334045 
L 1040.888053 368.252285 
L 1041.707822 386.711405 
L 1042.52759 386.711405 
L 1043.347359 290.90731 
L 1044.167127 271.362981 
L 1044.986895 351.32089 
L 1045.806664 382.697178 
L 1046.626432 386.216212 
L 1047.446201 386.711405 
L 1049.085738 386.711405 
L 1049.905506 358.169309 
L 1050.725275 377.197373 
L 1051.545043 386.711405 
L 1052.364812 386.711405 
L 1053.18458 317.584529 
L 1054.004349 211.128515 
L 1054.824117 335.864539 
L 1055.643886 386.711405 
L 1058.922959 386.711405 
L 1059.742728 363.795542 
L 1060.562496 331.249759 
L 1061.382265 213.109286 
L 1063.021802 371.255052 
L 1063.84157 386.342644 
L 1064.661339 386.711405 
L 1067.120644 386.711405 
L 1067.940413 268.244308 
L 1068.760181 343.176538 
L 1069.579949 385.362794 
L 1070.399718 376.533603 
L 1071.219486 288.43134 
L 1072.039255 353.944359 
L 1072.859023 386.332108 
L 1073.678792 386.711405 
L 1074.49856 380.547829 
L 1075.318329 384.65688 
L 1076.138097 382.223057 
L 1076.957866 385.215289 
L 1077.777634 386.711405 
L 1078.597403 383.929894 
L 1079.417171 252.745817 
L 1080.23694 328.236454 
L 1081.056708 364.206451 
L 1081.876476 380.779621 
L 1082.696245 386.711405 
L 1087.614856 386.711405 
L 1088.434624 319.544228 
L 1089.254393 355.566907 
L 1090.074161 382.496994 
L 1090.89393 383.4347 
L 1091.713698 385.763162 
L 1092.533467 205.407455 
L 1093.353235 326.276755 
L 1094.173003 386.711405 
L 1102.370688 386.711405 
L 1103.190457 344.767478 
L 1104.010225 332.398184 
L 1104.829994 371.813462 
L 1105.649762 363.12124 
L 1106.46953 365.607743 
L 1107.289299 380.063172 
L 1108.109067 385.984419 
L 1108.928836 386.711405 
L 1110.568373 386.711405 
L 1111.388141 330.069724 
L 1112.20791 316.720569 
L 1113.027678 364.17484 
L 1113.847447 384.878136 
L 1114.667215 337.750485 
L 1115.486984 312.137395 
L 1116.306752 367.293504 
L 1117.126521 386.711405 
L 1119.585826 386.711405 
L 1120.405594 374.858374 
L 1121.225363 382.728786 
L 1122.045131 384.70956 
L 1122.8649 386.047635 
L 1123.684668 385.826379 
L 1124.504437 383.982574 
L 1125.324205 342.502235 
L 1126.143974 369.653577 
L 1126.963742 385.847451 
L 1127.783511 378.461695 
L 1128.603279 315.435178 
L 1129.423048 350.341038 
L 1130.242816 379.736555 
L 1131.062584 385.889595 
L 1131.882353 386.711405 
L 1132.702121 373.720483 
L 1133.52189 382.381098 
L 1134.341658 386.711405 
L 1137.620732 386.711405 
L 1138.440501 344.988734 
L 1139.260269 362.847302 
L 1140.080038 383.392556 
L 1140.899806 386.711405 
L 1141.719575 386.711405 
L 1142.539343 386.395324 
L 1143.359111 371.750248 
L 1144.17888 381.759473 
L 1144.998648 386.711405 
L 1145.818417 361.867454 
L 1146.638185 318.121868 
L 1147.457954 339.394108 
L 1148.277722 371.318269 
L 1149.097491 381.064094 
L 1149.917259 385.53137 
L 1150.737028 385.921203 
L 1151.556796 386.448004 
L 1152.376565 386.711405 
L 1159.754481 386.711405 
L 1160.574249 379.251898 
L 1161.394018 384.224903 
L 1162.213786 385.067785 
L 1163.033555 386.163532 
L 1163.853323 230.156578 
L 1164.673092 331.966208 
L 1165.49286 385.857987 
L 1166.312629 386.711405 
L 1169.591702 386.711405 
L 1170.411471 334.336817 
L 1171.231239 329.427023 
L 1172.051008 366.324191 
L 1172.870776 384.340799 
L 1173.690545 386.711405 
L 1175.330082 386.700869 
L 1176.14985 383.99311 
L 1176.969619 385.805307 
L 1177.789387 386.711405 
L 1180.248692 386.711405 
L 1181.068461 341.606669 
L 1181.888229 370.506994 
L 1182.707998 386.321572 
L 1183.527766 386.711405 
L 1184.347535 361.045641 
L 1185.167303 377.903286 
L 1185.987072 386.627117 
L 1186.80684 385.415474 
L 1187.626609 348.412949 
L 1188.446377 374.089246 
L 1189.266146 386.711405 
L 1190.905683 386.711405 
L 1191.725451 378.967425 
L 1192.545219 384.130078 
L 1193.364988 367.146001 
L 1194.184756 369.348032 
L 1195.004525 383.097548 
L 1195.824293 386.711405 
L 1196.644062 386.711405 
L 1197.46383 386.584973 
L 1198.283599 386.669261 
L 1199.103367 385.668338 
L 1199.923136 360.792776 
L 1200.742904 378.187758 
L 1201.562673 386.711405 
L 1204.021978 386.711405 
L 1204.841746 338.003348 
L 1205.661515 282.067585 
L 1206.481283 357.242138 
L 1207.301052 386.711405 
L 1208.12082 374.162996 
L 1208.940589 333.314819 
L 1209.760357 370.306811 
L 1210.580126 386.711405 
L 1213.8592 386.711405 
L 1214.678968 369.927515 
L 1215.498737 379.88406 
L 1216.318505 386.3005 
L 1217.138273 290.243538 
L 1217.958042 348.391873 
L 1218.77781 384.65688 
L 1219.597579 386.711405 
L 1229.4348 386.711405 
L 1230.254569 376.818075 
L 1231.074337 383.413628 
L 1231.894106 383.898286 
L 1232.713874 385.773699 
L 1233.533643 386.711405 
L 1235.992948 386.711405 
L 1236.812717 385.447082 
L 1237.632485 386.289964 
L 1238.452254 386.711405 
L 1244.190633 386.711405 
L 1245.010401 325.581372 
L 1245.83017 362.130853 
L 1246.649938 385.310113 
L 1247.469707 386.711405 
L 1249.109244 386.711405 
L 1249.929012 377.766319 
L 1250.748781 329.869533 
L 1251.568549 368.758013 
L 1252.388318 386.711405 
L 1260.586002 386.711405 
L 1261.405771 361.551374 
L 1262.225539 378.324728 
L 1263.045308 386.711405 
L 1267.963918 386.711405 
L 1268.783687 370.812539 
L 1269.603455 381.411783 
L 1270.423224 386.711405 
L 1271.242992 386.711405 
L 1272.062761 362.278356 
L 1272.882529 374.963734 
L 1273.702298 384.119542 
L 1274.522066 331.755487 
L 1275.341835 166.382005 
L 1276.161603 317.869003 
L 1276.981372 386.226748 
L 1277.80114 386.711405 
L 1278.620909 286.450569 
L 1279.440677 319.407262 
L 1280.260445 375.416783 
L 1281.080214 386.711405 
L 1281.080214 386.711405 
" style="fill:none;stroke:#1f77b4;stroke-linecap:square;stroke-width:1.5;"/>
   </g>
   <g id="patch_13">
    <path d="M 967.764706 400.189091 
L 967.764706 103.68 
" style="fill:none;stroke:#000000;stroke-linecap:square;stroke-linejoin:miter;stroke-width:0.8;"/>
   </g>
   <g id="patch_14">
    <path d="M 1296 400.189091 
L 1296 103.68 
" style="fill:none;stroke:#000000;stroke-linecap:square;stroke-linejoin:miter;stroke-width:0.8;"/>
   </g>
   <g id="patch_15">
    <path d="M 967.764706 400.189091 
L 1296 400.189091 
" style="fill:none;stroke:#000000;stroke-linecap:square;stroke-linejoin:miter;stroke-width:0.8;"/>
   </g>
   <g id="patch_16">
    <path d="M 967.764706 103.68 
L 1296 103.68 
" style="fill:none;stroke:#000000;stroke-linecap:square;stroke-linejoin:miter;stroke-width:0.8;"/>
   </g>
   <g id="text_29">
    <!-- 06:00:00 -->
    <g transform="translate(1104.934853 97.68)scale(0.12 -0.12)">
     <use xlink:href="#DejaVuSans-48"/>
     <use x="63.623047" xlink:href="#DejaVuSans-54"/>
     <use x="127.246094" xlink:href="#DejaVuSans-58"/>
     <use x="160.9375" xlink:href="#DejaVuSans-48"/>
     <use x="224.560547" xlink:href="#DejaVuSans-48"/>
     <use x="288.183594" xlink:href="#DejaVuSans-58"/>
     <use x="321.875" xlink:href="#DejaVuSans-48"/>
     <use x="385.498047" xlink:href="#DejaVuSans-48"/>
    </g>
   </g>
  </g>
  <g id="axes_4">
   <g id="patch_17">
    <path d="M 180 756 
L 508.235294 756 
L 508.235294 459.490909 
L 180 459.490909 
z
" style="fill:#ffffff;"/>
   </g>
   <g id="matplotlib.axis_7">
    <g id="xtick_22">
     <g id="line2d_40">
      <g>
       <use style="stroke:#000000;stroke-width:0.8;" x="194.919786" xlink:href="#mf59c1e6ac9" y="756"/>
      </g>
     </g>
     <g id="text_30">
      <!-- 2014-01 -->
      <g transform="translate(174.02838 770.598437)scale(0.1 -0.1)">
       <use xlink:href="#DejaVuSans-50"/>
       <use x="63.623047" xlink:href="#DejaVuSans-48"/>
       <use x="127.246094" xlink:href="#DejaVuSans-49"/>
       <use x="190.869141" xlink:href="#DejaVuSans-52"/>
       <use x="254.492188" xlink:href="#DejaVuSans-45"/>
       <use x="290.576172" xlink:href="#DejaVuSans-48"/>
       <use x="354.199219" xlink:href="#DejaVuSans-49"/>
      </g>
     </g>
    </g>
    <g id="xtick_23">
     <g id="line2d_41">
      <g>
       <use style="stroke:#000000;stroke-width:0.8;" x="243.286126" xlink:href="#mf59c1e6ac9" y="756"/>
      </g>
     </g>
     <g id="text_31">
      <!-- 2014-03 -->
      <g transform="translate(222.394719 770.598437)scale(0.1 -0.1)">
       <use xlink:href="#DejaVuSans-50"/>
       <use x="63.623047" xlink:href="#DejaVuSans-48"/>
       <use x="127.246094" xlink:href="#DejaVuSans-49"/>
       <use x="190.869141" xlink:href="#DejaVuSans-52"/>
       <use x="254.492188" xlink:href="#DejaVuSans-45"/>
       <use x="290.576172" xlink:href="#DejaVuSans-48"/>
       <use x="354.199219" xlink:href="#DejaVuSans-51"/>
      </g>
     </g>
    </g>
    <g id="xtick_24">
     <g id="line2d_42">
      <g>
       <use style="stroke:#000000;stroke-width:0.8;" x="293.292002" xlink:href="#mf59c1e6ac9" y="756"/>
      </g>
     </g>
     <g id="text_32">
      <!-- 2014-05 -->
      <g transform="translate(272.400596 770.598437)scale(0.1 -0.1)">
       <use xlink:href="#DejaVuSans-50"/>
       <use x="63.623047" xlink:href="#DejaVuSans-48"/>
       <use x="127.246094" xlink:href="#DejaVuSans-49"/>
       <use x="190.869141" xlink:href="#DejaVuSans-52"/>
       <use x="254.492188" xlink:href="#DejaVuSans-45"/>
       <use x="290.576172" xlink:href="#DejaVuSans-48"/>
       <use x="354.199219" xlink:href="#DejaVuSans-53"/>
      </g>
     </g>
    </g>
    <g id="xtick_25">
     <g id="line2d_43">
      <g>
       <use style="stroke:#000000;stroke-width:0.8;" x="343.297879" xlink:href="#mf59c1e6ac9" y="756"/>
      </g>
     </g>
     <g id="text_33">
      <!-- 2014-07 -->
      <g transform="translate(322.406472 770.598437)scale(0.1 -0.1)">
       <use xlink:href="#DejaVuSans-50"/>
       <use x="63.623047" xlink:href="#DejaVuSans-48"/>
       <use x="127.246094" xlink:href="#DejaVuSans-49"/>
       <use x="190.869141" xlink:href="#DejaVuSans-52"/>
       <use x="254.492188" xlink:href="#DejaVuSans-45"/>
       <use x="290.576172" xlink:href="#DejaVuSans-48"/>
       <use x="354.199219" xlink:href="#DejaVuSans-55"/>
      </g>
     </g>
    </g>
    <g id="xtick_26">
     <g id="line2d_44">
      <g>
       <use style="stroke:#000000;stroke-width:0.8;" x="394.123524" xlink:href="#mf59c1e6ac9" y="756"/>
      </g>
     </g>
     <g id="text_34">
      <!-- 2014-09 -->
      <g transform="translate(373.232117 770.598437)scale(0.1 -0.1)">
       <use xlink:href="#DejaVuSans-50"/>
       <use x="63.623047" xlink:href="#DejaVuSans-48"/>
       <use x="127.246094" xlink:href="#DejaVuSans-49"/>
       <use x="190.869141" xlink:href="#DejaVuSans-52"/>
       <use x="254.492188" xlink:href="#DejaVuSans-45"/>
       <use x="290.576172" xlink:href="#DejaVuSans-48"/>
       <use x="354.199219" xlink:href="#DejaVuSans-57"/>
      </g>
     </g>
    </g>
    <g id="xtick_27">
     <g id="line2d_45">
      <g>
       <use style="stroke:#000000;stroke-width:0.8;" x="444.1294" xlink:href="#mf59c1e6ac9" y="756"/>
      </g>
     </g>
     <g id="text_35">
      <!-- 2014-11 -->
      <g transform="translate(423.237994 770.598437)scale(0.1 -0.1)">
       <use xlink:href="#DejaVuSans-50"/>
       <use x="63.623047" xlink:href="#DejaVuSans-48"/>
       <use x="127.246094" xlink:href="#DejaVuSans-49"/>
       <use x="190.869141" xlink:href="#DejaVuSans-52"/>
       <use x="254.492188" xlink:href="#DejaVuSans-45"/>
       <use x="290.576172" xlink:href="#DejaVuSans-49"/>
       <use x="354.199219" xlink:href="#DejaVuSans-49"/>
      </g>
     </g>
    </g>
    <g id="xtick_28">
     <g id="line2d_46">
      <g>
       <use style="stroke:#000000;stroke-width:0.8;" x="494.135276" xlink:href="#mf59c1e6ac9" y="756"/>
      </g>
     </g>
     <g id="text_36">
      <!-- 2015-01 -->
      <g transform="translate(473.24387 770.598437)scale(0.1 -0.1)">
       <use xlink:href="#DejaVuSans-50"/>
       <use x="63.623047" xlink:href="#DejaVuSans-48"/>
       <use x="127.246094" xlink:href="#DejaVuSans-49"/>
       <use x="190.869141" xlink:href="#DejaVuSans-53"/>
       <use x="254.492188" xlink:href="#DejaVuSans-45"/>
       <use x="290.576172" xlink:href="#DejaVuSans-48"/>
       <use x="354.199219" xlink:href="#DejaVuSans-49"/>
      </g>
     </g>
    </g>
   </g>
   <g id="matplotlib.axis_8">
    <g id="ytick_16">
     <g id="line2d_47">
      <g>
       <use style="stroke:#000000;stroke-width:0.8;" x="180" xlink:href="#mdeebb662f4" y="742.522314"/>
      </g>
     </g>
     <g id="text_37">
      <!-- 0.00 -->
      <g transform="translate(150.734375 746.321533)scale(0.1 -0.1)">
       <use xlink:href="#DejaVuSans-48"/>
       <use x="63.623047" xlink:href="#DejaVuSans-46"/>
       <use x="95.410156" xlink:href="#DejaVuSans-48"/>
       <use x="159.033203" xlink:href="#DejaVuSans-48"/>
      </g>
     </g>
    </g>
    <g id="ytick_17">
     <g id="line2d_48">
      <g>
       <use style="stroke:#000000;stroke-width:0.8;" x="180" xlink:href="#mdeebb662f4" y="683.463449"/>
      </g>
     </g>
     <g id="text_38">
      <!-- 0.02 -->
      <g transform="translate(150.734375 687.262668)scale(0.1 -0.1)">
       <use xlink:href="#DejaVuSans-48"/>
       <use x="63.623047" xlink:href="#DejaVuSans-46"/>
       <use x="95.410156" xlink:href="#DejaVuSans-48"/>
       <use x="159.033203" xlink:href="#DejaVuSans-50"/>
      </g>
     </g>
    </g>
    <g id="ytick_18">
     <g id="line2d_49">
      <g>
       <use style="stroke:#000000;stroke-width:0.8;" x="180" xlink:href="#mdeebb662f4" y="624.404584"/>
      </g>
     </g>
     <g id="text_39">
      <!-- 0.04 -->
      <g transform="translate(150.734375 628.203803)scale(0.1 -0.1)">
       <use xlink:href="#DejaVuSans-48"/>
       <use x="63.623047" xlink:href="#DejaVuSans-46"/>
       <use x="95.410156" xlink:href="#DejaVuSans-48"/>
       <use x="159.033203" xlink:href="#DejaVuSans-52"/>
      </g>
     </g>
    </g>
    <g id="ytick_19">
     <g id="line2d_50">
      <g>
       <use style="stroke:#000000;stroke-width:0.8;" x="180" xlink:href="#mdeebb662f4" y="565.345719"/>
      </g>
     </g>
     <g id="text_40">
      <!-- 0.06 -->
      <g transform="translate(150.734375 569.144938)scale(0.1 -0.1)">
       <use xlink:href="#DejaVuSans-48"/>
       <use x="63.623047" xlink:href="#DejaVuSans-46"/>
       <use x="95.410156" xlink:href="#DejaVuSans-48"/>
       <use x="159.033203" xlink:href="#DejaVuSans-54"/>
      </g>
     </g>
    </g>
    <g id="ytick_20">
     <g id="line2d_51">
      <g>
       <use style="stroke:#000000;stroke-width:0.8;" x="180" xlink:href="#mdeebb662f4" y="506.286855"/>
      </g>
     </g>
     <g id="text_41">
      <!-- 0.08 -->
      <g transform="translate(150.734375 510.086073)scale(0.1 -0.1)">
       <use xlink:href="#DejaVuSans-48"/>
       <use x="63.623047" xlink:href="#DejaVuSans-46"/>
       <use x="95.410156" xlink:href="#DejaVuSans-48"/>
       <use x="159.033203" xlink:href="#DejaVuSans-56"/>
      </g>
     </g>
    </g>
   </g>
   <g id="line2d_52">
    <path clip-path="url(#p7d7f16db30)" d="M 194.919786 742.522314 
L 195.739555 721.113106 
L 196.559323 713.632528 
L 197.379091 735.041735 
L 198.19886 742.522314 
L 199.018628 737.380733 
L 199.838397 737.380733 
L 200.658165 742.522314 
L 201.477934 742.522314 
L 202.297702 732.028431 
L 203.937239 647.887723 
L 204.757008 687.43997 
L 205.576776 717.214778 
L 206.396545 717.214778 
L 207.216313 741.595144 
L 208.036082 741.595144 
L 208.85585 742.522314 
L 216.233766 742.522314 
L 217.053535 736.875003 
L 217.873303 736.875003 
L 218.693072 742.522314 
L 221.152377 742.522314 
L 221.972146 718.921612 
L 222.791914 717.97337 
L 223.611682 696.269153 
L 224.431451 697.217395 
L 225.251219 742.522314 
L 227.710525 742.522314 
L 228.530293 708.490945 
L 229.350062 630.145045 
L 230.16983 645.56979 
L 230.989599 723.91569 
L 231.809367 732.428799 
L 232.629136 732.428799 
L 233.448904 742.522314 
L 234.268673 741.574072 
L 235.088441 741.574072 
L 235.908209 742.522314 
L 236.727978 677.493952 
L 237.547746 677.493952 
L 238.367515 742.522314 
L 240.007052 742.522314 
L 240.82682 733.672052 
L 241.646589 731.290909 
L 242.466357 740.141172 
L 243.286126 741.742648 
L 244.105894 741.742648 
L 244.925663 734.620293 
L 245.745431 731.859854 
L 246.5652 729.563 
L 247.384968 732.323439 
L 248.204736 712.45249 
L 249.024505 712.45249 
L 249.844273 742.522314 
L 251.48381 742.522314 
L 252.303579 705.604074 
L 253.123347 705.604074 
L 253.943116 742.522314 
L 254.762884 742.522314 
L 256.402421 623.043767 
L 258.041958 736.474634 
L 258.861727 741.531927 
L 259.681495 742.522314 
L 261.321032 742.522314 
L 262.1408 723.49425 
L 262.960569 723.49425 
L 263.780337 742.522314 
L 264.600106 742.522314 
L 265.419874 696.43773 
L 266.239643 594.743998 
L 267.059411 640.828582 
L 267.87918 742.522314 
L 271.158254 742.522314 
L 271.978022 727.245072 
L 272.79779 695.363055 
L 273.617559 605.53289 
L 274.437327 608.714767 
L 275.257096 713.084652 
L 276.076864 741.784792 
L 276.896633 742.522314 
L 279.355938 742.522314 
L 280.175707 663.544249 
L 280.995475 660.847027 
L 281.815244 739.825091 
L 282.635012 735.737112 
L 283.454781 672.478803 
L 284.274549 678.505411 
L 285.094317 741.76372 
L 285.914086 742.522314 
L 286.733854 738.413263 
L 287.553623 738.413263 
L 288.373391 739.530082 
L 289.19316 739.530082 
L 290.012928 742.522314 
L 290.832697 740.667973 
L 291.652465 651.975695 
L 292.472234 644.410828 
L 293.292002 721.239539 
L 294.111771 730.658747 
L 294.931539 742.522314 
L 299.85015 742.522314 
L 300.669918 697.744196 
L 301.489687 691.907237 
L 302.309455 735.821401 
L 303.129224 739.761875 
L 303.948992 740.625829 
L 304.768761 621.653014 
L 305.588529 621.653014 
L 306.408298 742.522314 
L 314.605982 742.522314 
L 316.245519 687.671755 
L 317.065288 714.665058 
L 317.885056 726.149328 
L 318.704825 718.184092 
L 319.524593 732.133791 
L 320.344362 741.068342 
L 321.16413 742.522314 
L 322.803667 742.522314 
L 324.443204 670.687676 
L 326.082741 738.855776 
L 326.902509 709.881701 
L 327.722278 671.045899 
L 328.542046 703.686512 
L 329.361815 742.522314 
L 331.82112 742.522314 
L 332.640889 734.620293 
L 333.460657 734.599221 
L 334.280425 741.173703 
L 335.100194 741.194775 
L 335.919962 741.932297 
L 336.739731 740.309748 
L 337.559499 711.967836 
L 338.379268 711.862475 
L 339.199036 740.794406 
L 340.018805 737.022508 
L 340.838573 691.338292 
L 341.658342 687.819259 
L 342.47811 731.859855 
L 343.297879 740.878694 
L 344.117647 742.522314 
L 344.937416 733.861699 
L 345.757184 733.861699 
L 346.576952 742.522314 
L 349.856026 742.522314 
L 350.675795 714.7072 
L 351.495563 708.069503 
L 352.315332 735.884616 
L 353.1351 742.522314 
L 353.954869 742.522314 
L 354.774637 742.311593 
L 355.594406 732.407729 
L 356.414174 732.618449 
L 357.233943 742.522314 
L 358.053711 725.95968 
L 358.873479 685.7542 
L 359.693248 684.173796 
L 360.513016 720.164865 
L 361.332785 735.947833 
L 362.152553 740.162244 
L 362.972322 741.995513 
L 363.79209 741.995513 
L 364.611859 742.522314 
L 371.989775 742.522314 
L 372.809543 737.549309 
L 373.629312 737.549309 
L 374.44908 741.426567 
L 375.268849 741.426567 
L 376.088617 638.152429 
L 376.908386 636.445593 
L 377.728154 740.815478 
L 378.547923 742.522314 
L 381.826997 742.522314 
L 382.646765 707.605922 
L 383.466533 681.055131 
L 385.10607 737.781102 
L 385.925839 742.522314 
L 387.565376 742.501242 
L 388.385144 740.710117 
L 389.204913 740.710117 
L 390.024681 742.522314 
L 392.483987 742.522314 
L 393.303755 712.45249 
L 394.123524 711.672824 
L 394.943292 741.742648 
L 395.76306 742.522314 
L 396.582829 725.411805 
L 397.402597 725.243228 
L 398.222366 742.353738 
L 399.042134 741.65836 
L 399.861903 716.414041 
L 400.681671 717.277995 
L 401.50144 742.522314 
L 403.140977 742.522314 
L 403.960745 737.359661 
L 404.780514 737.359661 
L 406.420051 722.250997 
L 407.239819 735.294599 
L 408.059587 742.522314 
L 410.518893 742.438026 
L 411.338661 741.826936 
L 412.15843 724.779643 
L 412.978198 725.475021 
L 413.797967 742.522314 
L 416.257272 742.522314 
L 417.077041 710.050276 
L 417.896809 651.111743 
L 418.716578 683.58378 
L 419.536346 742.522314 
L 420.356114 734.156708 
L 421.175883 701.347519 
L 421.995651 709.713125 
L 422.81542 742.522314 
L 426.094494 742.522314 
L 426.914262 731.333054 
L 427.734031 730.511244 
L 428.553799 741.700504 
L 429.373568 678.210403 
L 430.193336 674.101352 
L 431.013105 738.413263 
L 431.832873 742.522314 
L 441.670095 742.522314 
L 442.489863 735.926761 
L 443.309632 735.926761 
L 444.1294 740.646901 
L 444.949168 740.646901 
L 445.768937 742.522314 
L 448.228242 742.522314 
L 449.048011 741.679432 
L 449.867779 741.679432 
L 450.687548 742.522314 
L 456.425927 742.522314 
L 457.245695 701.768959 
L 458.065464 698.966376 
L 458.885232 739.719731 
L 459.705001 742.522314 
L 461.344538 742.522314 
L 462.164306 736.558923 
L 462.984075 700.652139 
L 463.803843 706.61553 
L 464.623612 742.522314 
L 472.821296 742.522314 
L 473.641065 725.74896 
L 474.460833 725.74896 
L 475.280602 742.522314 
L 480.199213 742.522314 
L 481.018981 731.92307 
L 481.838749 731.92307 
L 482.658518 742.522314 
L 483.478286 742.522314 
L 484.298055 726.233615 
L 485.117823 723.831401 
L 485.937592 739.192929 
L 486.75736 705.266922 
L 487.577129 571.417233 
L 488.396897 606.77614 
L 489.216666 741.553 
L 490.036434 742.522314 
L 490.856203 675.681757 
L 491.675971 653.092514 
L 492.49574 719.933071 
L 493.315508 742.522314 
L 493.315508 742.522314 
" style="fill:none;stroke:#1f77b4;stroke-linecap:square;stroke-width:1.5;"/>
   </g>
   <g id="patch_18">
    <path d="M 180 756 
L 180 459.490909 
" style="fill:none;stroke:#000000;stroke-linecap:square;stroke-linejoin:miter;stroke-width:0.8;"/>
   </g>
   <g id="patch_19">
    <path d="M 508.235294 756 
L 508.235294 459.490909 
" style="fill:none;stroke:#000000;stroke-linecap:square;stroke-linejoin:miter;stroke-width:0.8;"/>
   </g>
   <g id="patch_20">
    <path d="M 180 756 
L 508.235294 756 
" style="fill:none;stroke:#000000;stroke-linecap:square;stroke-linejoin:miter;stroke-width:0.8;"/>
   </g>
   <g id="patch_21">
    <path d="M 180 459.490909 
L 508.235294 459.490909 
" style="fill:none;stroke:#000000;stroke-linecap:square;stroke-linejoin:miter;stroke-width:0.8;"/>
   </g>
   <g id="text_42">
    <!-- 12:00:00 -->
    <g transform="translate(317.170147 453.490909)scale(0.12 -0.12)">
     <use xlink:href="#DejaVuSans-49"/>
     <use x="63.623047" xlink:href="#DejaVuSans-50"/>
     <use x="127.246094" xlink:href="#DejaVuSans-58"/>
     <use x="160.9375" xlink:href="#DejaVuSans-48"/>
     <use x="224.560547" xlink:href="#DejaVuSans-48"/>
     <use x="288.183594" xlink:href="#DejaVuSans-58"/>
     <use x="321.875" xlink:href="#DejaVuSans-48"/>
     <use x="385.498047" xlink:href="#DejaVuSans-48"/>
    </g>
   </g>
  </g>
  <g id="axes_5">
   <g id="patch_22">
    <path d="M 573.882353 756 
L 902.117647 756 
L 902.117647 459.490909 
L 573.882353 459.490909 
z
" style="fill:#ffffff;"/>
   </g>
   <g id="matplotlib.axis_9">
    <g id="xtick_29">
     <g id="line2d_53">
      <g>
       <use style="stroke:#000000;stroke-width:0.8;" x="588.802139" xlink:href="#mf59c1e6ac9" y="756"/>
      </g>
     </g>
     <g id="text_43">
      <!-- 2014-01 -->
      <g transform="translate(567.910733 770.598437)scale(0.1 -0.1)">
       <use xlink:href="#DejaVuSans-50"/>
       <use x="63.623047" xlink:href="#DejaVuSans-48"/>
       <use x="127.246094" xlink:href="#DejaVuSans-49"/>
       <use x="190.869141" xlink:href="#DejaVuSans-52"/>
       <use x="254.492188" xlink:href="#DejaVuSans-45"/>
       <use x="290.576172" xlink:href="#DejaVuSans-48"/>
       <use x="354.199219" xlink:href="#DejaVuSans-49"/>
      </g>
     </g>
    </g>
    <g id="xtick_30">
     <g id="line2d_54">
      <g>
       <use style="stroke:#000000;stroke-width:0.8;" x="637.168479" xlink:href="#mf59c1e6ac9" y="756"/>
      </g>
     </g>
     <g id="text_44">
      <!-- 2014-03 -->
      <g transform="translate(616.277072 770.598437)scale(0.1 -0.1)">
       <use xlink:href="#DejaVuSans-50"/>
       <use x="63.623047" xlink:href="#DejaVuSans-48"/>
       <use x="127.246094" xlink:href="#DejaVuSans-49"/>
       <use x="190.869141" xlink:href="#DejaVuSans-52"/>
       <use x="254.492188" xlink:href="#DejaVuSans-45"/>
       <use x="290.576172" xlink:href="#DejaVuSans-48"/>
       <use x="354.199219" xlink:href="#DejaVuSans-51"/>
      </g>
     </g>
    </g>
    <g id="xtick_31">
     <g id="line2d_55">
      <g>
       <use style="stroke:#000000;stroke-width:0.8;" x="687.174355" xlink:href="#mf59c1e6ac9" y="756"/>
      </g>
     </g>
     <g id="text_45">
      <!-- 2014-05 -->
      <g transform="translate(666.282949 770.598437)scale(0.1 -0.1)">
       <use xlink:href="#DejaVuSans-50"/>
       <use x="63.623047" xlink:href="#DejaVuSans-48"/>
       <use x="127.246094" xlink:href="#DejaVuSans-49"/>
       <use x="190.869141" xlink:href="#DejaVuSans-52"/>
       <use x="254.492188" xlink:href="#DejaVuSans-45"/>
       <use x="290.576172" xlink:href="#DejaVuSans-48"/>
       <use x="354.199219" xlink:href="#DejaVuSans-53"/>
      </g>
     </g>
    </g>
    <g id="xtick_32">
     <g id="line2d_56">
      <g>
       <use style="stroke:#000000;stroke-width:0.8;" x="737.180232" xlink:href="#mf59c1e6ac9" y="756"/>
      </g>
     </g>
     <g id="text_46">
      <!-- 2014-07 -->
      <g transform="translate(716.288825 770.598437)scale(0.1 -0.1)">
       <use xlink:href="#DejaVuSans-50"/>
       <use x="63.623047" xlink:href="#DejaVuSans-48"/>
       <use x="127.246094" xlink:href="#DejaVuSans-49"/>
       <use x="190.869141" xlink:href="#DejaVuSans-52"/>
       <use x="254.492188" xlink:href="#DejaVuSans-45"/>
       <use x="290.576172" xlink:href="#DejaVuSans-48"/>
       <use x="354.199219" xlink:href="#DejaVuSans-55"/>
      </g>
     </g>
    </g>
    <g id="xtick_33">
     <g id="line2d_57">
      <g>
       <use style="stroke:#000000;stroke-width:0.8;" x="788.005876" xlink:href="#mf59c1e6ac9" y="756"/>
      </g>
     </g>
     <g id="text_47">
      <!-- 2014-09 -->
      <g transform="translate(767.11447 770.598437)scale(0.1 -0.1)">
       <use xlink:href="#DejaVuSans-50"/>
       <use x="63.623047" xlink:href="#DejaVuSans-48"/>
       <use x="127.246094" xlink:href="#DejaVuSans-49"/>
       <use x="190.869141" xlink:href="#DejaVuSans-52"/>
       <use x="254.492188" xlink:href="#DejaVuSans-45"/>
       <use x="290.576172" xlink:href="#DejaVuSans-48"/>
       <use x="354.199219" xlink:href="#DejaVuSans-57"/>
      </g>
     </g>
    </g>
    <g id="xtick_34">
     <g id="line2d_58">
      <g>
       <use style="stroke:#000000;stroke-width:0.8;" x="838.011753" xlink:href="#mf59c1e6ac9" y="756"/>
      </g>
     </g>
     <g id="text_48">
      <!-- 2014-11 -->
      <g transform="translate(817.120347 770.598437)scale(0.1 -0.1)">
       <use xlink:href="#DejaVuSans-50"/>
       <use x="63.623047" xlink:href="#DejaVuSans-48"/>
       <use x="127.246094" xlink:href="#DejaVuSans-49"/>
       <use x="190.869141" xlink:href="#DejaVuSans-52"/>
       <use x="254.492188" xlink:href="#DejaVuSans-45"/>
       <use x="290.576172" xlink:href="#DejaVuSans-49"/>
       <use x="354.199219" xlink:href="#DejaVuSans-49"/>
      </g>
     </g>
    </g>
    <g id="xtick_35">
     <g id="line2d_59">
      <g>
       <use style="stroke:#000000;stroke-width:0.8;" x="888.017629" xlink:href="#mf59c1e6ac9" y="756"/>
      </g>
     </g>
     <g id="text_49">
      <!-- 2015-01 -->
      <g transform="translate(867.126223 770.598437)scale(0.1 -0.1)">
       <use xlink:href="#DejaVuSans-50"/>
       <use x="63.623047" xlink:href="#DejaVuSans-48"/>
       <use x="127.246094" xlink:href="#DejaVuSans-49"/>
       <use x="190.869141" xlink:href="#DejaVuSans-53"/>
       <use x="254.492188" xlink:href="#DejaVuSans-45"/>
       <use x="290.576172" xlink:href="#DejaVuSans-48"/>
       <use x="354.199219" xlink:href="#DejaVuSans-49"/>
      </g>
     </g>
    </g>
   </g>
   <g id="matplotlib.axis_10">
    <g id="ytick_21">
     <g id="line2d_60">
      <g>
       <use style="stroke:#000000;stroke-width:0.8;" x="573.882353" xlink:href="#mdeebb662f4" y="742.522314"/>
      </g>
     </g>
    </g>
    <g id="ytick_22">
     <g id="line2d_61">
      <g>
       <use style="stroke:#000000;stroke-width:0.8;" x="573.882353" xlink:href="#mdeebb662f4" y="683.463449"/>
      </g>
     </g>
    </g>
    <g id="ytick_23">
     <g id="line2d_62">
      <g>
       <use style="stroke:#000000;stroke-width:0.8;" x="573.882353" xlink:href="#mdeebb662f4" y="624.404584"/>
      </g>
     </g>
    </g>
    <g id="ytick_24">
     <g id="line2d_63">
      <g>
       <use style="stroke:#000000;stroke-width:0.8;" x="573.882353" xlink:href="#mdeebb662f4" y="565.345719"/>
      </g>
     </g>
    </g>
    <g id="ytick_25">
     <g id="line2d_64">
      <g>
       <use style="stroke:#000000;stroke-width:0.8;" x="573.882353" xlink:href="#mdeebb662f4" y="506.286855"/>
      </g>
     </g>
    </g>
   </g>
   <g id="line2d_65">
    <path clip-path="url(#p284bcfc173)" d="M 588.802139 742.522314 
L 589.621908 742.522314 
L 590.441676 699.703898 
L 591.261444 727.561157 
L 592.081213 742.522314 
L 592.900981 742.522314 
L 593.72075 732.239151 
L 594.540518 742.522314 
L 596.180055 742.522314 
L 596.999824 721.534548 
L 597.819592 663.41782 
L 598.639361 632.357626 
L 599.459129 742.522314 
L 600.278898 691.907241 
L 601.098666 742.522314 
L 601.918435 740.667973 
L 602.738203 742.522314 
L 610.935888 742.522314 
L 611.755656 731.227692 
L 612.575425 742.522314 
L 615.854498 742.522314 
L 616.674267 695.320911 
L 617.494035 740.625829 
L 618.313804 651.912477 
L 619.133572 742.522314 
L 622.412646 742.522314 
L 623.232415 674.459577 
L 624.052183 585.830513 
L 624.871952 705.309066 
L 625.69172 742.522314 
L 626.511489 722.335285 
L 627.331257 742.522314 
L 628.151025 742.522314 
L 628.970794 740.625829 
L 629.790562 742.522314 
L 630.610331 742.522314 
L 631.430099 612.46559 
L 632.249868 742.522314 
L 634.709173 742.522314 
L 635.528942 724.821789 
L 636.34871 737.760029 
L 637.168479 742.522314 
L 637.988247 740.962982 
L 638.808016 742.522314 
L 639.627784 726.718272 
L 640.447552 737.001436 
L 641.267321 722.124565 
L 642.087089 742.522314 
L 642.906858 682.382666 
L 643.726626 742.522314 
L 646.185932 742.522314 
L 647.0057 668.685834 
L 647.825469 742.522314 
L 649.465006 742.522314 
L 650.284774 614.783521 
L 651.104543 631.304013 
L 651.924311 732.407727 
L 652.744079 740.541541 
L 653.563848 742.522314 
L 656.023153 742.522314 
L 656.842922 704.466186 
L 657.66269 742.522314 
L 659.302227 742.522314 
L 660.121996 650.353146 
L 660.941764 539.13485 
L 661.761533 742.522314 
L 663.40107 742.522314 
L 664.220838 742.395882 
L 665.040606 742.522314 
L 665.860375 742.522314 
L 667.499912 678.758281 
L 668.31968 532.3075 
L 669.139449 685.122034 
L 669.959217 741.04727 
L 670.778986 742.522314 
L 674.05806 742.522314 
L 674.877828 584.566185 
L 675.697597 737.127868 
L 676.517365 742.522314 
L 677.337133 728.951911 
L 678.156902 616.005695 
L 678.97667 741.005126 
L 679.796439 742.522314 
L 680.616207 742.522314 
L 681.435976 734.304212 
L 682.255744 742.522314 
L 683.075513 736.53785 
L 683.895281 742.522314 
L 684.71505 742.522314 
L 685.534818 738.813632 
L 686.354587 565.137758 
L 687.174355 723.683898 
L 687.994124 718.79518 
L 688.813892 742.522314 
L 694.552271 742.522314 
L 695.37204 652.966079 
L 696.191808 730.848396 
L 697.011577 740.794406 
L 697.831345 738.729344 
L 698.651114 742.522314 
L 699.470882 500.783714 
L 700.290651 742.522314 
L 709.308104 742.522314 
L 710.127872 686.597079 
L 710.947641 688.746431 
L 711.767409 740.583685 
L 712.587178 711.714971 
L 713.406946 724.653212 
L 714.226714 739.614371 
L 715.046483 742.522314 
L 717.505788 742.522314 
L 718.325557 667.000073 
L 719.145325 674.375279 
L 719.965094 735.189239 
L 720.784862 742.522314 
L 721.604631 677.241088 
L 722.424399 664.85071 
L 723.244168 742.522314 
L 726.523241 742.522314 
L 727.34301 726.718272 
L 728.162778 742.48017 
L 728.982547 739.867235 
L 729.802315 742.522314 
L 730.622084 741.342279 
L 731.441852 739.277218 
L 732.261621 684.658454 
L 733.081389 739.066497 
L 733.901158 742.522314 
L 734.720926 731.522701 
L 735.540695 651.153883 
L 736.360463 724.484635 
L 737.180232 739.235074 
L 738 742.522314 
L 738.819768 742.522314 
L 739.639537 725.201085 
L 740.459305 742.522314 
L 744.558148 742.522314 
L 745.377916 686.892086 
L 746.197685 729.246919 
L 747.017453 742.522314 
L 748.65699 742.522314 
L 749.476759 742.100873 
L 750.296527 722.714584 
L 751.116295 742.522314 
L 751.936064 742.522314 
L 752.755832 709.397046 
L 753.575601 662.111354 
L 754.395369 706.236238 
L 755.215138 734.093492 
L 756.034906 737.802174 
L 756.854675 742.522314 
L 757.674443 741.468711 
L 758.494212 742.522314 
L 766.691896 742.522314 
L 767.511665 732.576305 
L 768.331433 742.522314 
L 769.151202 740.33082 
L 769.97097 742.522314 
L 770.790739 533.782545 
L 771.610507 739.108641 
L 772.430276 742.522314 
L 776.529118 742.522314 
L 777.348886 672.68953 
L 778.168655 689.420733 
L 778.988423 733.039889 
L 779.808192 742.522314 
L 782.267497 742.522314 
L 783.087266 738.897921 
L 783.907034 742.522314 
L 787.186108 742.522314 
L 788.005876 682.382666 
L 788.825645 740.962982 
L 789.645413 742.522314 
L 790.465182 742.522314 
L 791.28495 708.301296 
L 792.104719 742.185161 
L 792.924487 742.522314 
L 793.744256 740.794406 
L 794.564024 692.033676 
L 795.383793 742.522314 
L 797.843098 742.522314 
L 798.662867 732.197008 
L 799.482635 742.522314 
L 800.302403 716.435109 
L 801.122172 728.066885 
L 801.94194 742.522314 
L 803.581477 742.522314 
L 804.401246 742.353738 
L 805.221014 742.522314 
L 806.040783 741.131558 
L 806.860551 708.427728 
L 807.68032 742.522314 
L 810.959394 742.522314 
L 811.779162 677.578239 
L 812.59893 624.645246 
L 813.418699 742.522314 
L 814.238467 742.522314 
L 815.058236 725.791102 
L 815.878004 676.903937 
L 816.697773 742.522314 
L 820.796615 742.522314 
L 821.616384 720.143794 
L 822.436152 740.878694 
L 823.255921 742.522314 
L 824.075689 613.898492 
L 824.895457 734.304212 
L 825.715226 742.522314 
L 836.372216 742.522314 
L 837.191984 729.331208 
L 838.011753 742.522314 
L 838.831521 738.771489 
L 839.65129 742.522314 
L 842.930364 742.522314 
L 843.750132 740.83655 
L 844.569901 742.522314 
L 851.128048 742.522314 
L 851.947817 661.015603 
L 852.767585 736.917148 
L 853.587354 742.522314 
L 856.046659 742.522314 
L 856.866428 730.595532 
L 857.686196 670.708745 
L 858.505965 742.522314 
L 867.523418 742.522314 
L 868.343186 708.975606 
L 869.162955 742.522314 
L 874.901334 742.522314 
L 875.721102 721.323826 
L 876.540871 742.522314 
L 878.180408 742.522314 
L 879.000176 709.944916 
L 879.819945 737.717886 
L 880.639713 740.667973 
L 881.459482 669.86587 
L 882.27925 472.968595 
L 883.099019 740.583685 
L 883.918787 742.522314 
L 884.738556 742.522314 
L 885.558324 608.841199 
L 886.378092 697.343828 
L 887.197861 742.522314 
L 887.197861 742.522314 
" style="fill:none;stroke:#1f77b4;stroke-linecap:square;stroke-width:1.5;"/>
   </g>
   <g id="patch_23">
    <path d="M 573.882353 756 
L 573.882353 459.490909 
" style="fill:none;stroke:#000000;stroke-linecap:square;stroke-linejoin:miter;stroke-width:0.8;"/>
   </g>
   <g id="patch_24">
    <path d="M 902.117647 756 
L 902.117647 459.490909 
" style="fill:none;stroke:#000000;stroke-linecap:square;stroke-linejoin:miter;stroke-width:0.8;"/>
   </g>
   <g id="patch_25">
    <path d="M 573.882353 756 
L 902.117647 756 
" style="fill:none;stroke:#000000;stroke-linecap:square;stroke-linejoin:miter;stroke-width:0.8;"/>
   </g>
   <g id="patch_26">
    <path d="M 573.882353 459.490909 
L 902.117647 459.490909 
" style="fill:none;stroke:#000000;stroke-linecap:square;stroke-linejoin:miter;stroke-width:0.8;"/>
   </g>
   <g id="text_50">
    <!-- 24:00:00 -->
    <g transform="translate(711.0525 453.490909)scale(0.12 -0.12)">
     <use xlink:href="#DejaVuSans-50"/>
     <use x="63.623047" xlink:href="#DejaVuSans-52"/>
     <use x="127.246094" xlink:href="#DejaVuSans-58"/>
     <use x="160.9375" xlink:href="#DejaVuSans-48"/>
     <use x="224.560547" xlink:href="#DejaVuSans-48"/>
     <use x="288.183594" xlink:href="#DejaVuSans-58"/>
     <use x="321.875" xlink:href="#DejaVuSans-48"/>
     <use x="385.498047" xlink:href="#DejaVuSans-48"/>
    </g>
   </g>
  </g>
  <g id="text_51">
   <!-- Evaporation_infiltration - No Green Infrastructure -->
   <defs>
    <path d="M 9.8125 72.90625 
L 55.90625 72.90625 
L 55.90625 64.59375 
L 19.671875 64.59375 
L 19.671875 43.015625 
L 54.390625 43.015625 
L 54.390625 34.71875 
L 19.671875 34.71875 
L 19.671875 8.296875 
L 56.78125 8.296875 
L 56.78125 0 
L 9.8125 0 
z
" id="DejaVuSans-69"/>
    <path d="M 2.984375 54.6875 
L 12.5 54.6875 
L 29.59375 8.796875 
L 46.6875 54.6875 
L 56.203125 54.6875 
L 35.6875 0 
L 23.484375 0 
z
" id="DejaVuSans-118"/>
    <path d="M 34.28125 27.484375 
Q 23.390625 27.484375 19.1875 25 
Q 14.984375 22.515625 14.984375 16.5 
Q 14.984375 11.71875 18.140625 8.90625 
Q 21.296875 6.109375 26.703125 6.109375 
Q 34.1875 6.109375 38.703125 11.40625 
Q 43.21875 16.703125 43.21875 25.484375 
L 43.21875 27.484375 
z
M 52.203125 31.203125 
L 52.203125 0 
L 43.21875 0 
L 43.21875 8.296875 
Q 40.140625 3.328125 35.546875 0.953125 
Q 30.953125 -1.421875 24.3125 -1.421875 
Q 15.921875 -1.421875 10.953125 3.296875 
Q 6 8.015625 6 15.921875 
Q 6 25.140625 12.171875 29.828125 
Q 18.359375 34.515625 30.609375 34.515625 
L 43.21875 34.515625 
L 43.21875 35.40625 
Q 43.21875 41.609375 39.140625 45 
Q 35.0625 48.390625 27.6875 48.390625 
Q 23 48.390625 18.546875 47.265625 
Q 14.109375 46.140625 10.015625 43.890625 
L 10.015625 52.203125 
Q 14.9375 54.109375 19.578125 55.046875 
Q 24.21875 56 28.609375 56 
Q 40.484375 56 46.34375 49.84375 
Q 52.203125 43.703125 52.203125 31.203125 
z
" id="DejaVuSans-97"/>
    <path d="M 18.109375 8.203125 
L 18.109375 -20.796875 
L 9.078125 -20.796875 
L 9.078125 54.6875 
L 18.109375 54.6875 
L 18.109375 46.390625 
Q 20.953125 51.265625 25.265625 53.625 
Q 29.59375 56 35.59375 56 
Q 45.5625 56 51.78125 48.09375 
Q 58.015625 40.1875 58.015625 27.296875 
Q 58.015625 14.40625 51.78125 6.484375 
Q 45.5625 -1.421875 35.59375 -1.421875 
Q 29.59375 -1.421875 25.265625 0.953125 
Q 20.953125 3.328125 18.109375 8.203125 
z
M 48.6875 27.296875 
Q 48.6875 37.203125 44.609375 42.84375 
Q 40.53125 48.484375 33.40625 48.484375 
Q 26.265625 48.484375 22.1875 42.84375 
Q 18.109375 37.203125 18.109375 27.296875 
Q 18.109375 17.390625 22.1875 11.75 
Q 26.265625 6.109375 33.40625 6.109375 
Q 40.53125 6.109375 44.609375 11.75 
Q 48.6875 17.390625 48.6875 27.296875 
z
" id="DejaVuSans-112"/>
    <path d="M 30.609375 48.390625 
Q 23.390625 48.390625 19.1875 42.75 
Q 14.984375 37.109375 14.984375 27.296875 
Q 14.984375 17.484375 19.15625 11.84375 
Q 23.34375 6.203125 30.609375 6.203125 
Q 37.796875 6.203125 41.984375 11.859375 
Q 46.1875 17.53125 46.1875 27.296875 
Q 46.1875 37.015625 41.984375 42.703125 
Q 37.796875 48.390625 30.609375 48.390625 
z
M 30.609375 56 
Q 42.328125 56 49.015625 48.375 
Q 55.71875 40.765625 55.71875 27.296875 
Q 55.71875 13.875 49.015625 6.21875 
Q 42.328125 -1.421875 30.609375 -1.421875 
Q 18.84375 -1.421875 12.171875 6.21875 
Q 5.515625 13.875 5.515625 27.296875 
Q 5.515625 40.765625 12.171875 48.375 
Q 18.84375 56 30.609375 56 
z
" id="DejaVuSans-111"/>
    <path d="M 41.109375 46.296875 
Q 39.59375 47.171875 37.8125 47.578125 
Q 36.03125 48 33.890625 48 
Q 26.265625 48 22.1875 43.046875 
Q 18.109375 38.09375 18.109375 28.8125 
L 18.109375 0 
L 9.078125 0 
L 9.078125 54.6875 
L 18.109375 54.6875 
L 18.109375 46.1875 
Q 20.953125 51.171875 25.484375 53.578125 
Q 30.03125 56 36.53125 56 
Q 37.453125 56 38.578125 55.875 
Q 39.703125 55.765625 41.0625 55.515625 
z
" id="DejaVuSans-114"/>
    <path d="M 18.3125 70.21875 
L 18.3125 54.6875 
L 36.8125 54.6875 
L 36.8125 47.703125 
L 18.3125 47.703125 
L 18.3125 18.015625 
Q 18.3125 11.328125 20.140625 9.421875 
Q 21.96875 7.515625 27.59375 7.515625 
L 36.8125 7.515625 
L 36.8125 0 
L 27.59375 0 
Q 17.1875 0 13.234375 3.875 
Q 9.28125 7.765625 9.28125 18.015625 
L 9.28125 47.703125 
L 2.6875 47.703125 
L 2.6875 54.6875 
L 9.28125 54.6875 
L 9.28125 70.21875 
z
" id="DejaVuSans-116"/>
    <path d="M 9.421875 54.6875 
L 18.40625 54.6875 
L 18.40625 0 
L 9.421875 0 
z
M 9.421875 75.984375 
L 18.40625 75.984375 
L 18.40625 64.59375 
L 9.421875 64.59375 
z
" id="DejaVuSans-105"/>
    <path d="M 54.890625 33.015625 
L 54.890625 0 
L 45.90625 0 
L 45.90625 32.71875 
Q 45.90625 40.484375 42.875 44.328125 
Q 39.84375 48.1875 33.796875 48.1875 
Q 26.515625 48.1875 22.3125 43.546875 
Q 18.109375 38.921875 18.109375 30.90625 
L 18.109375 0 
L 9.078125 0 
L 9.078125 54.6875 
L 18.109375 54.6875 
L 18.109375 46.1875 
Q 21.34375 51.125 25.703125 53.5625 
Q 30.078125 56 35.796875 56 
Q 45.21875 56 50.046875 50.171875 
Q 54.890625 44.34375 54.890625 33.015625 
z
" id="DejaVuSans-110"/>
    <path d="M 50.984375 -16.609375 
L 50.984375 -23.578125 
L -0.984375 -23.578125 
L -0.984375 -16.609375 
z
" id="DejaVuSans-95"/>
    <path d="M 37.109375 75.984375 
L 37.109375 68.5 
L 28.515625 68.5 
Q 23.6875 68.5 21.796875 66.546875 
Q 19.921875 64.59375 19.921875 59.515625 
L 19.921875 54.6875 
L 34.71875 54.6875 
L 34.71875 47.703125 
L 19.921875 47.703125 
L 19.921875 0 
L 10.890625 0 
L 10.890625 47.703125 
L 2.296875 47.703125 
L 2.296875 54.6875 
L 10.890625 54.6875 
L 10.890625 58.5 
Q 10.890625 67.625 15.140625 71.796875 
Q 19.390625 75.984375 28.609375 75.984375 
z
" id="DejaVuSans-102"/>
    <path d="M 9.421875 75.984375 
L 18.40625 75.984375 
L 18.40625 0 
L 9.421875 0 
z
" id="DejaVuSans-108"/>
    <path id="DejaVuSans-32"/>
    <path d="M 9.8125 72.90625 
L 23.09375 72.90625 
L 55.421875 11.921875 
L 55.421875 72.90625 
L 64.984375 72.90625 
L 64.984375 0 
L 51.703125 0 
L 19.390625 60.984375 
L 19.390625 0 
L 9.8125 0 
z
" id="DejaVuSans-78"/>
    <path d="M 59.515625 10.40625 
L 59.515625 29.984375 
L 43.40625 29.984375 
L 43.40625 38.09375 
L 69.28125 38.09375 
L 69.28125 6.78125 
Q 63.578125 2.734375 56.6875 0.65625 
Q 49.8125 -1.421875 42 -1.421875 
Q 24.90625 -1.421875 15.25 8.5625 
Q 5.609375 18.5625 5.609375 36.375 
Q 5.609375 54.25 15.25 64.234375 
Q 24.90625 74.21875 42 74.21875 
Q 49.125 74.21875 55.546875 72.453125 
Q 61.96875 70.703125 67.390625 67.28125 
L 67.390625 56.78125 
Q 61.921875 61.421875 55.765625 63.765625 
Q 49.609375 66.109375 42.828125 66.109375 
Q 29.4375 66.109375 22.71875 58.640625 
Q 16.015625 51.171875 16.015625 36.375 
Q 16.015625 21.625 22.71875 14.15625 
Q 29.4375 6.6875 42.828125 6.6875 
Q 48.046875 6.6875 52.140625 7.59375 
Q 56.25 8.5 59.515625 10.40625 
z
" id="DejaVuSans-71"/>
    <path d="M 56.203125 29.59375 
L 56.203125 25.203125 
L 14.890625 25.203125 
Q 15.484375 15.921875 20.484375 11.0625 
Q 25.484375 6.203125 34.421875 6.203125 
Q 39.59375 6.203125 44.453125 7.46875 
Q 49.3125 8.734375 54.109375 11.28125 
L 54.109375 2.78125 
Q 49.265625 0.734375 44.1875 -0.34375 
Q 39.109375 -1.421875 33.890625 -1.421875 
Q 20.796875 -1.421875 13.15625 6.1875 
Q 5.515625 13.8125 5.515625 26.8125 
Q 5.515625 40.234375 12.765625 48.109375 
Q 20.015625 56 32.328125 56 
Q 43.359375 56 49.78125 48.890625 
Q 56.203125 41.796875 56.203125 29.59375 
z
M 47.21875 32.234375 
Q 47.125 39.59375 43.09375 43.984375 
Q 39.0625 48.390625 32.421875 48.390625 
Q 24.90625 48.390625 20.390625 44.140625 
Q 15.875 39.890625 15.1875 32.171875 
z
" id="DejaVuSans-101"/>
    <path d="M 9.8125 72.90625 
L 19.671875 72.90625 
L 19.671875 0 
L 9.8125 0 
z
" id="DejaVuSans-73"/>
    <path d="M 44.28125 53.078125 
L 44.28125 44.578125 
Q 40.484375 46.53125 36.375 47.5 
Q 32.28125 48.484375 27.875 48.484375 
Q 21.1875 48.484375 17.84375 46.4375 
Q 14.5 44.390625 14.5 40.28125 
Q 14.5 37.15625 16.890625 35.375 
Q 19.28125 33.59375 26.515625 31.984375 
L 29.59375 31.296875 
Q 39.15625 29.25 43.1875 25.515625 
Q 47.21875 21.78125 47.21875 15.09375 
Q 47.21875 7.46875 41.1875 3.015625 
Q 35.15625 -1.421875 24.609375 -1.421875 
Q 20.21875 -1.421875 15.453125 -0.5625 
Q 10.6875 0.296875 5.421875 2 
L 5.421875 11.28125 
Q 10.40625 8.6875 15.234375 7.390625 
Q 20.0625 6.109375 24.8125 6.109375 
Q 31.15625 6.109375 34.5625 8.28125 
Q 37.984375 10.453125 37.984375 14.40625 
Q 37.984375 18.0625 35.515625 20.015625 
Q 33.0625 21.96875 24.703125 23.78125 
L 21.578125 24.515625 
Q 13.234375 26.265625 9.515625 29.90625 
Q 5.8125 33.546875 5.8125 39.890625 
Q 5.8125 47.609375 11.28125 51.796875 
Q 16.75 56 26.8125 56 
Q 31.78125 56 36.171875 55.265625 
Q 40.578125 54.546875 44.28125 53.078125 
z
" id="DejaVuSans-115"/>
    <path d="M 8.5 21.578125 
L 8.5 54.6875 
L 17.484375 54.6875 
L 17.484375 21.921875 
Q 17.484375 14.15625 20.5 10.265625 
Q 23.53125 6.390625 29.59375 6.390625 
Q 36.859375 6.390625 41.078125 11.03125 
Q 45.3125 15.671875 45.3125 23.6875 
L 45.3125 54.6875 
L 54.296875 54.6875 
L 54.296875 0 
L 45.3125 0 
L 45.3125 8.40625 
Q 42.046875 3.421875 37.71875 1 
Q 33.40625 -1.421875 27.6875 -1.421875 
Q 18.265625 -1.421875 13.375 4.4375 
Q 8.5 10.296875 8.5 21.578125 
z
M 31.109375 56 
z
" id="DejaVuSans-117"/>
    <path d="M 48.78125 52.59375 
L 48.78125 44.1875 
Q 44.96875 46.296875 41.140625 47.34375 
Q 37.3125 48.390625 33.40625 48.390625 
Q 24.65625 48.390625 19.8125 42.84375 
Q 14.984375 37.3125 14.984375 27.296875 
Q 14.984375 17.28125 19.8125 11.734375 
Q 24.65625 6.203125 33.40625 6.203125 
Q 37.3125 6.203125 41.140625 7.25 
Q 44.96875 8.296875 48.78125 10.40625 
L 48.78125 2.09375 
Q 45.015625 0.34375 40.984375 -0.53125 
Q 36.96875 -1.421875 32.421875 -1.421875 
Q 20.0625 -1.421875 12.78125 6.34375 
Q 5.515625 14.109375 5.515625 27.296875 
Q 5.515625 40.671875 12.859375 48.328125 
Q 20.21875 56 33.015625 56 
Q 37.15625 56 41.109375 55.140625 
Q 45.0625 54.296875 48.78125 52.59375 
z
" id="DejaVuSans-99"/>
   </defs>
   <g transform="translate(498.784219 30.957187)scale(0.18 -0.18)">
    <use xlink:href="#DejaVuSans-69"/>
    <use x="63.183594" xlink:href="#DejaVuSans-118"/>
    <use x="122.363281" xlink:href="#DejaVuSans-97"/>
    <use x="183.642578" xlink:href="#DejaVuSans-112"/>
    <use x="247.119141" xlink:href="#DejaVuSans-111"/>
    <use x="308.300781" xlink:href="#DejaVuSans-114"/>
    <use x="349.414062" xlink:href="#DejaVuSans-97"/>
    <use x="410.693359" xlink:href="#DejaVuSans-116"/>
    <use x="449.902344" xlink:href="#DejaVuSans-105"/>
    <use x="477.685547" xlink:href="#DejaVuSans-111"/>
    <use x="538.867188" xlink:href="#DejaVuSans-110"/>
    <use x="602.246094" xlink:href="#DejaVuSans-95"/>
    <use x="652.246094" xlink:href="#DejaVuSans-105"/>
    <use x="680.029297" xlink:href="#DejaVuSans-110"/>
    <use x="743.408203" xlink:href="#DejaVuSans-102"/>
    <use x="778.613281" xlink:href="#DejaVuSans-105"/>
    <use x="806.396484" xlink:href="#DejaVuSans-108"/>
    <use x="834.179688" xlink:href="#DejaVuSans-116"/>
    <use x="873.388672" xlink:href="#DejaVuSans-114"/>
    <use x="914.501953" xlink:href="#DejaVuSans-97"/>
    <use x="975.78125" xlink:href="#DejaVuSans-116"/>
    <use x="1014.990234" xlink:href="#DejaVuSans-105"/>
    <use x="1042.773438" xlink:href="#DejaVuSans-111"/>
    <use x="1103.955078" xlink:href="#DejaVuSans-110"/>
    <use x="1167.333984" xlink:href="#DejaVuSans-32"/>
    <use x="1199.121094" xlink:href="#DejaVuSans-45"/>
    <use x="1235.205078" xlink:href="#DejaVuSans-32"/>
    <use x="1266.992188" xlink:href="#DejaVuSans-78"/>
    <use x="1341.796875" xlink:href="#DejaVuSans-111"/>
    <use x="1402.978516" xlink:href="#DejaVuSans-32"/>
    <use x="1434.765625" xlink:href="#DejaVuSans-71"/>
    <use x="1512.255859" xlink:href="#DejaVuSans-114"/>
    <use x="1553.337891" xlink:href="#DejaVuSans-101"/>
    <use x="1614.861328" xlink:href="#DejaVuSans-101"/>
    <use x="1676.384766" xlink:href="#DejaVuSans-110"/>
    <use x="1739.763672" xlink:href="#DejaVuSans-32"/>
    <use x="1771.550781" xlink:href="#DejaVuSans-73"/>
    <use x="1801.042969" xlink:href="#DejaVuSans-110"/>
    <use x="1864.421875" xlink:href="#DejaVuSans-102"/>
    <use x="1899.626953" xlink:href="#DejaVuSans-114"/>
    <use x="1940.740234" xlink:href="#DejaVuSans-97"/>
    <use x="2002.019531" xlink:href="#DejaVuSans-115"/>
    <use x="2054.119141" xlink:href="#DejaVuSans-116"/>
    <use x="2093.328125" xlink:href="#DejaVuSans-114"/>
    <use x="2134.441406" xlink:href="#DejaVuSans-117"/>
    <use x="2197.820312" xlink:href="#DejaVuSans-99"/>
    <use x="2252.800781" xlink:href="#DejaVuSans-116"/>
    <use x="2292.009766" xlink:href="#DejaVuSans-117"/>
    <use x="2355.388672" xlink:href="#DejaVuSans-114"/>
    <use x="2396.470703" xlink:href="#DejaVuSans-101"/>
   </g>
  </g>
 </g>
 <defs>
  <clipPath id="p8fe81ed446">
   <rect height="296.509091" width="328.235294" x="180" y="103.68"/>
  </clipPath>
  <clipPath id="p4baf8a9350">
   <rect height="296.509091" width="328.235294" x="573.882353" y="103.68"/>
  </clipPath>
  <clipPath id="p3665e38204">
   <rect height="296.509091" width="328.235294" x="967.764706" y="103.68"/>
  </clipPath>
  <clipPath id="p7d7f16db30">
   <rect height="296.509091" width="328.235294" x="180" y="459.490909"/>
  </clipPath>
  <clipPath id="p284bcfc173">
   <rect height="296.509091" width="328.235294" x="573.882353" y="459.490909"/>
  </clipPath>
 </defs>
</svg>
