<?xml version="1.0" encoding="utf-8" standalone="no"?>
<!DOCTYPE svg PUBLIC "-//W3C//DTD SVG 1.1//EN"
  "http://www.w3.org/Graphics/SVG/1.1/DTD/svg11.dtd">
<!-- Created with matplotlib (https://matplotlib.org/) -->
<svg height="864pt" version="1.1" viewBox="0 0 1440 864" width="1440pt" xmlns="http://www.w3.org/2000/svg" xmlns:xlink="http://www.w3.org/1999/xlink">
 <defs>
  <style type="text/css">
*{stroke-linecap:butt;stroke-linejoin:round;}
  </style>
 </defs>
 <g id="figure_1">
  <g id="patch_1">
   <path d="M 0 864 
L 1440 864 
L 1440 0 
L 0 0 
z
" style="fill:#ffffff;"/>
  </g>
  <g id="axes_1">
   <g id="patch_2">
    <path d="M 180 400.189091 
L 508.235294 400.189091 
L 508.235294 103.68 
L 180 103.68 
z
" style="fill:#ffffff;"/>
   </g>
   <g id="matplotlib.axis_1">
    <g id="xtick_1">
     <g id="line2d_1">
      <defs>
       <path d="M 0 0 
L 0 3.5 
" id="mb6c0bae329" style="stroke:#000000;stroke-width:0.8;"/>
      </defs>
      <g>
       <use style="stroke:#000000;stroke-width:0.8;" x="194.919786" xlink:href="#mb6c0bae329" y="400.189091"/>
      </g>
     </g>
     <g id="text_1">
      <!-- 2014-01 -->
      <defs>
       <path d="M 19.1875 8.296875 
L 53.609375 8.296875 
L 53.609375 0 
L 7.328125 0 
L 7.328125 8.296875 
Q 12.9375 14.109375 22.625 23.890625 
Q 32.328125 33.6875 34.8125 36.53125 
Q 39.546875 41.84375 41.421875 45.53125 
Q 43.3125 49.21875 43.3125 52.78125 
Q 43.3125 58.59375 39.234375 62.25 
Q 35.15625 65.921875 28.609375 65.921875 
Q 23.96875 65.921875 18.8125 64.3125 
Q 13.671875 62.703125 7.8125 59.421875 
L 7.8125 69.390625 
Q 13.765625 71.78125 18.9375 73 
Q 24.125 74.21875 28.421875 74.21875 
Q 39.75 74.21875 46.484375 68.546875 
Q 53.21875 62.890625 53.21875 53.421875 
Q 53.21875 48.921875 51.53125 44.890625 
Q 49.859375 40.875 45.40625 35.40625 
Q 44.1875 33.984375 37.640625 27.21875 
Q 31.109375 20.453125 19.1875 8.296875 
z
" id="DejaVuSans-50"/>
       <path d="M 31.78125 66.40625 
Q 24.171875 66.40625 20.328125 58.90625 
Q 16.5 51.421875 16.5 36.375 
Q 16.5 21.390625 20.328125 13.890625 
Q 24.171875 6.390625 31.78125 6.390625 
Q 39.453125 6.390625 43.28125 13.890625 
Q 47.125 21.390625 47.125 36.375 
Q 47.125 51.421875 43.28125 58.90625 
Q 39.453125 66.40625 31.78125 66.40625 
z
M 31.78125 74.21875 
Q 44.046875 74.21875 50.515625 64.515625 
Q 56.984375 54.828125 56.984375 36.375 
Q 56.984375 17.96875 50.515625 8.265625 
Q 44.046875 -1.421875 31.78125 -1.421875 
Q 19.53125 -1.421875 13.0625 8.265625 
Q 6.59375 17.96875 6.59375 36.375 
Q 6.59375 54.828125 13.0625 64.515625 
Q 19.53125 74.21875 31.78125 74.21875 
z
" id="DejaVuSans-48"/>
       <path d="M 12.40625 8.296875 
L 28.515625 8.296875 
L 28.515625 63.921875 
L 10.984375 60.40625 
L 10.984375 69.390625 
L 28.421875 72.90625 
L 38.28125 72.90625 
L 38.28125 8.296875 
L 54.390625 8.296875 
L 54.390625 0 
L 12.40625 0 
z
" id="DejaVuSans-49"/>
       <path d="M 37.796875 64.3125 
L 12.890625 25.390625 
L 37.796875 25.390625 
z
M 35.203125 72.90625 
L 47.609375 72.90625 
L 47.609375 25.390625 
L 58.015625 25.390625 
L 58.015625 17.1875 
L 47.609375 17.1875 
L 47.609375 0 
L 37.796875 0 
L 37.796875 17.1875 
L 4.890625 17.1875 
L 4.890625 26.703125 
z
" id="DejaVuSans-52"/>
       <path d="M 4.890625 31.390625 
L 31.203125 31.390625 
L 31.203125 23.390625 
L 4.890625 23.390625 
z
" id="DejaVuSans-45"/>
      </defs>
      <g transform="translate(174.02838 414.787528)scale(0.1 -0.1)">
       <use xlink:href="#DejaVuSans-50"/>
       <use x="63.623047" xlink:href="#DejaVuSans-48"/>
       <use x="127.246094" xlink:href="#DejaVuSans-49"/>
       <use x="190.869141" xlink:href="#DejaVuSans-52"/>
       <use x="254.492188" xlink:href="#DejaVuSans-45"/>
       <use x="290.576172" xlink:href="#DejaVuSans-48"/>
       <use x="354.199219" xlink:href="#DejaVuSans-49"/>
      </g>
     </g>
    </g>
    <g id="xtick_2">
     <g id="line2d_2">
      <g>
       <use style="stroke:#000000;stroke-width:0.8;" x="243.286126" xlink:href="#mb6c0bae329" y="400.189091"/>
      </g>
     </g>
     <g id="text_2">
      <!-- 2014-03 -->
      <defs>
       <path d="M 40.578125 39.3125 
Q 47.65625 37.796875 51.625 33 
Q 55.609375 28.21875 55.609375 21.1875 
Q 55.609375 10.40625 48.1875 4.484375 
Q 40.765625 -1.421875 27.09375 -1.421875 
Q 22.515625 -1.421875 17.65625 -0.515625 
Q 12.796875 0.390625 7.625 2.203125 
L 7.625 11.71875 
Q 11.71875 9.328125 16.59375 8.109375 
Q 21.484375 6.890625 26.8125 6.890625 
Q 36.078125 6.890625 40.9375 10.546875 
Q 45.796875 14.203125 45.796875 21.1875 
Q 45.796875 27.640625 41.28125 31.265625 
Q 36.765625 34.90625 28.71875 34.90625 
L 20.21875 34.90625 
L 20.21875 43.015625 
L 29.109375 43.015625 
Q 36.375 43.015625 40.234375 45.921875 
Q 44.09375 48.828125 44.09375 54.296875 
Q 44.09375 59.90625 40.109375 62.90625 
Q 36.140625 65.921875 28.71875 65.921875 
Q 24.65625 65.921875 20.015625 65.03125 
Q 15.375 64.15625 9.8125 62.3125 
L 9.8125 71.09375 
Q 15.4375 72.65625 20.34375 73.4375 
Q 25.25 74.21875 29.59375 74.21875 
Q 40.828125 74.21875 47.359375 69.109375 
Q 53.90625 64.015625 53.90625 55.328125 
Q 53.90625 49.265625 50.4375 45.09375 
Q 46.96875 40.921875 40.578125 39.3125 
z
" id="DejaVuSans-51"/>
      </defs>
      <g transform="translate(222.394719 414.787528)scale(0.1 -0.1)">
       <use xlink:href="#DejaVuSans-50"/>
       <use x="63.623047" xlink:href="#DejaVuSans-48"/>
       <use x="127.246094" xlink:href="#DejaVuSans-49"/>
       <use x="190.869141" xlink:href="#DejaVuSans-52"/>
       <use x="254.492188" xlink:href="#DejaVuSans-45"/>
       <use x="290.576172" xlink:href="#DejaVuSans-48"/>
       <use x="354.199219" xlink:href="#DejaVuSans-51"/>
      </g>
     </g>
    </g>
    <g id="xtick_3">
     <g id="line2d_3">
      <g>
       <use style="stroke:#000000;stroke-width:0.8;" x="293.292002" xlink:href="#mb6c0bae329" y="400.189091"/>
      </g>
     </g>
     <g id="text_3">
      <!-- 2014-05 -->
      <defs>
       <path d="M 10.796875 72.90625 
L 49.515625 72.90625 
L 49.515625 64.59375 
L 19.828125 64.59375 
L 19.828125 46.734375 
Q 21.96875 47.46875 24.109375 47.828125 
Q 26.265625 48.1875 28.421875 48.1875 
Q 40.625 48.1875 47.75 41.5 
Q 54.890625 34.8125 54.890625 23.390625 
Q 54.890625 11.625 47.5625 5.09375 
Q 40.234375 -1.421875 26.90625 -1.421875 
Q 22.3125 -1.421875 17.546875 -0.640625 
Q 12.796875 0.140625 7.71875 1.703125 
L 7.71875 11.625 
Q 12.109375 9.234375 16.796875 8.0625 
Q 21.484375 6.890625 26.703125 6.890625 
Q 35.15625 6.890625 40.078125 11.328125 
Q 45.015625 15.765625 45.015625 23.390625 
Q 45.015625 31 40.078125 35.4375 
Q 35.15625 39.890625 26.703125 39.890625 
Q 22.75 39.890625 18.8125 39.015625 
Q 14.890625 38.140625 10.796875 36.28125 
z
" id="DejaVuSans-53"/>
      </defs>
      <g transform="translate(272.400596 414.787528)scale(0.1 -0.1)">
       <use xlink:href="#DejaVuSans-50"/>
       <use x="63.623047" xlink:href="#DejaVuSans-48"/>
       <use x="127.246094" xlink:href="#DejaVuSans-49"/>
       <use x="190.869141" xlink:href="#DejaVuSans-52"/>
       <use x="254.492188" xlink:href="#DejaVuSans-45"/>
       <use x="290.576172" xlink:href="#DejaVuSans-48"/>
       <use x="354.199219" xlink:href="#DejaVuSans-53"/>
      </g>
     </g>
    </g>
    <g id="xtick_4">
     <g id="line2d_4">
      <g>
       <use style="stroke:#000000;stroke-width:0.8;" x="343.297879" xlink:href="#mb6c0bae329" y="400.189091"/>
      </g>
     </g>
     <g id="text_4">
      <!-- 2014-07 -->
      <defs>
       <path d="M 8.203125 72.90625 
L 55.078125 72.90625 
L 55.078125 68.703125 
L 28.609375 0 
L 18.3125 0 
L 43.21875 64.59375 
L 8.203125 64.59375 
z
" id="DejaVuSans-55"/>
      </defs>
      <g transform="translate(322.406472 414.787528)scale(0.1 -0.1)">
       <use xlink:href="#DejaVuSans-50"/>
       <use x="63.623047" xlink:href="#DejaVuSans-48"/>
       <use x="127.246094" xlink:href="#DejaVuSans-49"/>
       <use x="190.869141" xlink:href="#DejaVuSans-52"/>
       <use x="254.492188" xlink:href="#DejaVuSans-45"/>
       <use x="290.576172" xlink:href="#DejaVuSans-48"/>
       <use x="354.199219" xlink:href="#DejaVuSans-55"/>
      </g>
     </g>
    </g>
    <g id="xtick_5">
     <g id="line2d_5">
      <g>
       <use style="stroke:#000000;stroke-width:0.8;" x="394.123524" xlink:href="#mb6c0bae329" y="400.189091"/>
      </g>
     </g>
     <g id="text_5">
      <!-- 2014-09 -->
      <defs>
       <path d="M 10.984375 1.515625 
L 10.984375 10.5 
Q 14.703125 8.734375 18.5 7.8125 
Q 22.3125 6.890625 25.984375 6.890625 
Q 35.75 6.890625 40.890625 13.453125 
Q 46.046875 20.015625 46.78125 33.40625 
Q 43.953125 29.203125 39.59375 26.953125 
Q 35.25 24.703125 29.984375 24.703125 
Q 19.046875 24.703125 12.671875 31.3125 
Q 6.296875 37.9375 6.296875 49.421875 
Q 6.296875 60.640625 12.9375 67.421875 
Q 19.578125 74.21875 30.609375 74.21875 
Q 43.265625 74.21875 49.921875 64.515625 
Q 56.59375 54.828125 56.59375 36.375 
Q 56.59375 19.140625 48.40625 8.859375 
Q 40.234375 -1.421875 26.421875 -1.421875 
Q 22.703125 -1.421875 18.890625 -0.6875 
Q 15.09375 0.046875 10.984375 1.515625 
z
M 30.609375 32.421875 
Q 37.25 32.421875 41.125 36.953125 
Q 45.015625 41.5 45.015625 49.421875 
Q 45.015625 57.28125 41.125 61.84375 
Q 37.25 66.40625 30.609375 66.40625 
Q 23.96875 66.40625 20.09375 61.84375 
Q 16.21875 57.28125 16.21875 49.421875 
Q 16.21875 41.5 20.09375 36.953125 
Q 23.96875 32.421875 30.609375 32.421875 
z
" id="DejaVuSans-57"/>
      </defs>
      <g transform="translate(373.232117 414.787528)scale(0.1 -0.1)">
       <use xlink:href="#DejaVuSans-50"/>
       <use x="63.623047" xlink:href="#DejaVuSans-48"/>
       <use x="127.246094" xlink:href="#DejaVuSans-49"/>
       <use x="190.869141" xlink:href="#DejaVuSans-52"/>
       <use x="254.492188" xlink:href="#DejaVuSans-45"/>
       <use x="290.576172" xlink:href="#DejaVuSans-48"/>
       <use x="354.199219" xlink:href="#DejaVuSans-57"/>
      </g>
     </g>
    </g>
    <g id="xtick_6">
     <g id="line2d_6">
      <g>
       <use style="stroke:#000000;stroke-width:0.8;" x="444.1294" xlink:href="#mb6c0bae329" y="400.189091"/>
      </g>
     </g>
     <g id="text_6">
      <!-- 2014-11 -->
      <g transform="translate(423.237994 414.787528)scale(0.1 -0.1)">
       <use xlink:href="#DejaVuSans-50"/>
       <use x="63.623047" xlink:href="#DejaVuSans-48"/>
       <use x="127.246094" xlink:href="#DejaVuSans-49"/>
       <use x="190.869141" xlink:href="#DejaVuSans-52"/>
       <use x="254.492188" xlink:href="#DejaVuSans-45"/>
       <use x="290.576172" xlink:href="#DejaVuSans-49"/>
       <use x="354.199219" xlink:href="#DejaVuSans-49"/>
      </g>
     </g>
    </g>
    <g id="xtick_7">
     <g id="line2d_7">
      <g>
       <use style="stroke:#000000;stroke-width:0.8;" x="494.135276" xlink:href="#mb6c0bae329" y="400.189091"/>
      </g>
     </g>
     <g id="text_7">
      <!-- 2015-01 -->
      <g transform="translate(473.24387 414.787528)scale(0.1 -0.1)">
       <use xlink:href="#DejaVuSans-50"/>
       <use x="63.623047" xlink:href="#DejaVuSans-48"/>
       <use x="127.246094" xlink:href="#DejaVuSans-49"/>
       <use x="190.869141" xlink:href="#DejaVuSans-53"/>
       <use x="254.492188" xlink:href="#DejaVuSans-45"/>
       <use x="290.576172" xlink:href="#DejaVuSans-48"/>
       <use x="354.199219" xlink:href="#DejaVuSans-49"/>
      </g>
     </g>
    </g>
   </g>
   <g id="matplotlib.axis_2">
    <g id="ytick_1">
     <g id="line2d_8">
      <defs>
       <path d="M 0 0 
L -3.5 0 
" id="mfbab95374b" style="stroke:#000000;stroke-width:0.8;"/>
      </defs>
      <g>
       <use style="stroke:#000000;stroke-width:0.8;" x="180" xlink:href="#mfbab95374b" y="386.711405"/>
      </g>
     </g>
     <g id="text_8">
      <!-- 0.00 -->
      <defs>
       <path d="M 10.6875 12.40625 
L 21 12.40625 
L 21 0 
L 10.6875 0 
z
" id="DejaVuSans-46"/>
      </defs>
      <g transform="translate(150.734375 390.510624)scale(0.1 -0.1)">
       <use xlink:href="#DejaVuSans-48"/>
       <use x="63.623047" xlink:href="#DejaVuSans-46"/>
       <use x="95.410156" xlink:href="#DejaVuSans-48"/>
       <use x="159.033203" xlink:href="#DejaVuSans-48"/>
      </g>
     </g>
    </g>
    <g id="ytick_2">
     <g id="line2d_9">
      <g>
       <use style="stroke:#000000;stroke-width:0.8;" x="180" xlink:href="#mfbab95374b" y="335.319954"/>
      </g>
     </g>
     <g id="text_9">
      <!-- 0.02 -->
      <g transform="translate(150.734375 339.119173)scale(0.1 -0.1)">
       <use xlink:href="#DejaVuSans-48"/>
       <use x="63.623047" xlink:href="#DejaVuSans-46"/>
       <use x="95.410156" xlink:href="#DejaVuSans-48"/>
       <use x="159.033203" xlink:href="#DejaVuSans-50"/>
      </g>
     </g>
    </g>
    <g id="ytick_3">
     <g id="line2d_10">
      <g>
       <use style="stroke:#000000;stroke-width:0.8;" x="180" xlink:href="#mfbab95374b" y="283.928503"/>
      </g>
     </g>
     <g id="text_10">
      <!-- 0.04 -->
      <g transform="translate(150.734375 287.727722)scale(0.1 -0.1)">
       <use xlink:href="#DejaVuSans-48"/>
       <use x="63.623047" xlink:href="#DejaVuSans-46"/>
       <use x="95.410156" xlink:href="#DejaVuSans-48"/>
       <use x="159.033203" xlink:href="#DejaVuSans-52"/>
      </g>
     </g>
    </g>
    <g id="ytick_4">
     <g id="line2d_11">
      <g>
       <use style="stroke:#000000;stroke-width:0.8;" x="180" xlink:href="#mfbab95374b" y="232.537052"/>
      </g>
     </g>
     <g id="text_11">
      <!-- 0.06 -->
      <defs>
       <path d="M 33.015625 40.375 
Q 26.375 40.375 22.484375 35.828125 
Q 18.609375 31.296875 18.609375 23.390625 
Q 18.609375 15.53125 22.484375 10.953125 
Q 26.375 6.390625 33.015625 6.390625 
Q 39.65625 6.390625 43.53125 10.953125 
Q 47.40625 15.53125 47.40625 23.390625 
Q 47.40625 31.296875 43.53125 35.828125 
Q 39.65625 40.375 33.015625 40.375 
z
M 52.59375 71.296875 
L 52.59375 62.3125 
Q 48.875 64.0625 45.09375 64.984375 
Q 41.3125 65.921875 37.59375 65.921875 
Q 27.828125 65.921875 22.671875 59.328125 
Q 17.53125 52.734375 16.796875 39.40625 
Q 19.671875 43.65625 24.015625 45.921875 
Q 28.375 48.1875 33.59375 48.1875 
Q 44.578125 48.1875 50.953125 41.515625 
Q 57.328125 34.859375 57.328125 23.390625 
Q 57.328125 12.15625 50.6875 5.359375 
Q 44.046875 -1.421875 33.015625 -1.421875 
Q 20.359375 -1.421875 13.671875 8.265625 
Q 6.984375 17.96875 6.984375 36.375 
Q 6.984375 53.65625 15.1875 63.9375 
Q 23.390625 74.21875 37.203125 74.21875 
Q 40.921875 74.21875 44.703125 73.484375 
Q 48.484375 72.75 52.59375 71.296875 
z
" id="DejaVuSans-54"/>
      </defs>
      <g transform="translate(150.734375 236.336271)scale(0.1 -0.1)">
       <use xlink:href="#DejaVuSans-48"/>
       <use x="63.623047" xlink:href="#DejaVuSans-46"/>
       <use x="95.410156" xlink:href="#DejaVuSans-48"/>
       <use x="159.033203" xlink:href="#DejaVuSans-54"/>
      </g>
     </g>
    </g>
    <g id="ytick_5">
     <g id="line2d_12">
      <g>
       <use style="stroke:#000000;stroke-width:0.8;" x="180" xlink:href="#mfbab95374b" y="181.145601"/>
      </g>
     </g>
     <g id="text_12">
      <!-- 0.08 -->
      <defs>
       <path d="M 31.78125 34.625 
Q 24.75 34.625 20.71875 30.859375 
Q 16.703125 27.09375 16.703125 20.515625 
Q 16.703125 13.921875 20.71875 10.15625 
Q 24.75 6.390625 31.78125 6.390625 
Q 38.8125 6.390625 42.859375 10.171875 
Q 46.921875 13.96875 46.921875 20.515625 
Q 46.921875 27.09375 42.890625 30.859375 
Q 38.875 34.625 31.78125 34.625 
z
M 21.921875 38.8125 
Q 15.578125 40.375 12.03125 44.71875 
Q 8.5 49.078125 8.5 55.328125 
Q 8.5 64.0625 14.71875 69.140625 
Q 20.953125 74.21875 31.78125 74.21875 
Q 42.671875 74.21875 48.875 69.140625 
Q 55.078125 64.0625 55.078125 55.328125 
Q 55.078125 49.078125 51.53125 44.71875 
Q 48 40.375 41.703125 38.8125 
Q 48.828125 37.15625 52.796875 32.3125 
Q 56.78125 27.484375 56.78125 20.515625 
Q 56.78125 9.90625 50.3125 4.234375 
Q 43.84375 -1.421875 31.78125 -1.421875 
Q 19.734375 -1.421875 13.25 4.234375 
Q 6.78125 9.90625 6.78125 20.515625 
Q 6.78125 27.484375 10.78125 32.3125 
Q 14.796875 37.15625 21.921875 38.8125 
z
M 18.3125 54.390625 
Q 18.3125 48.734375 21.84375 45.5625 
Q 25.390625 42.390625 31.78125 42.390625 
Q 38.140625 42.390625 41.71875 45.5625 
Q 45.3125 48.734375 45.3125 54.390625 
Q 45.3125 60.0625 41.71875 63.234375 
Q 38.140625 66.40625 31.78125 66.40625 
Q 25.390625 66.40625 21.84375 63.234375 
Q 18.3125 60.0625 18.3125 54.390625 
z
" id="DejaVuSans-56"/>
      </defs>
      <g transform="translate(150.734375 184.94482)scale(0.1 -0.1)">
       <use xlink:href="#DejaVuSans-48"/>
       <use x="63.623047" xlink:href="#DejaVuSans-46"/>
       <use x="95.410156" xlink:href="#DejaVuSans-48"/>
       <use x="159.033203" xlink:href="#DejaVuSans-56"/>
      </g>
     </g>
    </g>
    <g id="ytick_6">
     <g id="line2d_13">
      <g>
       <use style="stroke:#000000;stroke-width:0.8;" x="180" xlink:href="#mfbab95374b" y="129.75415"/>
      </g>
     </g>
     <g id="text_13">
      <!-- 0.10 -->
      <g transform="translate(150.734375 133.553369)scale(0.1 -0.1)">
       <use xlink:href="#DejaVuSans-48"/>
       <use x="63.623047" xlink:href="#DejaVuSans-46"/>
       <use x="95.410156" xlink:href="#DejaVuSans-49"/>
       <use x="159.033203" xlink:href="#DejaVuSans-48"/>
      </g>
     </g>
    </g>
   </g>
   <g id="line2d_14">
    <path clip-path="url(#pd302ee731a)" d="M 194.919786 386.42716 
L 195.739555 349.01868 
L 196.559323 369.850108 
L 197.379091 385.046813 
L 198.19886 386.293538 
L 199.018628 378.035852 
L 199.838397 385.920072 
L 200.658165 386.45873 
L 201.477934 386.538675 
L 202.297702 369.194255 
L 203.117471 311.540921 
L 203.937239 278.064716 
L 204.757008 379.933777 
L 205.576776 340.496407 
L 206.396545 382.857056 
L 208.036082 386.336675 
L 208.85585 386.510243 
L 212.134924 386.642417 
L 216.233766 386.683144 
L 217.053535 377.533469 
L 217.873303 386.233259 
L 218.693072 386.646 
L 221.152377 386.678176 
L 221.972146 346.515134 
L 222.791914 381.393186 
L 223.611682 301.791907 
L 224.431451 380.882338 
L 225.251219 386.238561 
L 226.070988 386.462213 
L 227.710525 386.602671 
L 228.530293 325.892245 
L 229.350062 234.180277 
L 230.16983 343.635973 
L 230.989599 383.632388 
L 231.809367 369.108485 
L 232.629136 384.860752 
L 233.448904 386.321154 
L 234.268673 384.931961 
L 235.088441 386.467101 
L 235.908209 386.59132 
L 236.727978 266.793556 
L 237.547746 379.053567 
L 238.367515 386.232081 
L 239.187283 386.460045 
L 240.007052 386.552491 
L 240.82682 372.043446 
L 241.646589 381.330863 
L 242.466357 385.999194 
L 243.286126 385.148263 
L 244.105894 386.459316 
L 244.925663 373.606984 
L 245.745431 380.844994 
L 246.5652 367.924823 
L 247.384968 384.766887 
L 248.204736 331.946642 
L 249.024505 382.427881 
L 249.844273 386.289673 
L 250.664042 386.502289 
L 251.48381 386.587899 
L 252.303579 320.353926 
L 253.123347 381.737658 
L 253.943116 386.283942 
L 254.762884 386.500378 
L 255.582653 268.636778 
L 256.402421 274.664397 
L 257.22219 370.790545 
L 258.041958 383.652645 
L 258.861727 386.172977 
L 259.681495 386.487091 
L 261.321032 386.628498 
L 262.1408 354.391935 
L 262.960569 383.740341 
L 263.780337 386.313366 
L 264.600106 386.510382 
L 265.419874 302.558022 
L 266.239643 188.318527 
L 267.059411 375.84116 
L 267.87918 386.267455 
L 268.698948 386.510505 
L 269.518717 386.484449 
L 271.158254 386.663661 
L 271.978022 361.469778 
L 272.79779 325.44488 
L 273.617559 183.17851 
L 274.437327 322.235135 
L 275.257096 381.152235 
L 276.076864 386.14924 
L 276.896633 386.511264 
L 278.53617 386.657319 
L 279.355938 386.680785 
L 280.175707 241.348511 
L 280.995475 372.92359 
L 281.815244 385.842728 
L 282.635012 375.221144 
L 283.454781 267.071486 
L 284.274549 377.79217 
L 285.094317 386.130653 
L 285.914086 386.507024 
L 286.733854 379.910173 
L 287.553623 386.25806 
L 288.373391 381.754994 
L 289.19316 386.404144 
L 290.012928 386.658704 
L 290.832697 383.67136 
L 291.652465 221.658941 
L 292.472234 359.835773 
L 293.292002 363.335905 
L 294.111771 384.604988 
L 294.931539 386.434847 
L 296.571076 386.660112 
L 299.85015 386.711405 
L 300.669918 308.521343 
L 301.489687 370.405971 
L 302.309455 383.752012 
L 303.129224 382.904396 
L 303.948992 386.195649 
L 304.768761 159.273387 
L 305.588529 374.301893 
L 306.408298 386.374811 
L 307.228066 386.58186 
L 309.687371 386.69739 
L 314.605982 386.711405 
L 315.425751 341.288694 
L 316.245519 334.12779 
L 317.065288 380.934507 
L 317.885056 358.36886 
L 318.704825 367.910746 
L 319.524593 382.266037 
L 320.344362 386.120896 
L 321.16413 386.542442 
L 322.803667 386.675969 
L 323.623435 319.90825 
L 324.443204 318.180765 
L 325.262972 375.38411 
L 326.082741 385.740902 
L 326.902509 327.474327 
L 327.722278 309.65141 
L 328.542046 381.66822 
L 329.361815 386.38962 
L 330.181583 386.58585 
L 331.82112 386.683692 
L 332.640889 373.877747 
L 333.460657 385.981525 
L 334.280425 384.411084 
L 335.100194 386.496148 
L 335.919962 385.680923 
L 336.739731 383.970476 
L 337.559499 335.03554 
L 338.379268 379.377907 
L 339.199036 386.030136 
L 340.018805 377.463599 
L 340.838573 301.054153 
L 341.658342 364.497711 
L 342.47811 381.911465 
L 343.297879 386.083874 
L 344.117647 386.529894 
L 344.937416 372.394124 
L 345.757184 385.604896 
L 346.576952 386.533193 
L 348.216489 386.671179 
L 349.856026 386.70232 
L 350.675795 339.657236 
L 351.495563 370.725094 
L 352.315332 385.300137 
L 353.1351 386.456194 
L 353.954869 386.602079 
L 354.774637 386.300666 
L 355.594406 370.403734 
L 356.414174 385.500452 
L 357.233943 386.529245 
L 358.053711 358.529114 
L 358.873479 309.017842 
L 359.693248 348.044831 
L 360.513016 376.137712 
L 362.152553 386.024458 
L 362.972322 385.620109 
L 363.79209 386.528947 
L 365.431627 386.677275 
L 371.989775 386.711405 
L 372.809543 378.665097 
L 373.629312 386.361565 
L 374.44908 384.93849 
L 375.268849 386.634322 
L 376.088617 196.560591 
L 376.908386 372.455149 
L 377.728154 385.993387 
L 378.547923 386.49733 
L 380.18746 386.658031 
L 381.826997 386.695052 
L 382.646765 325.872305 
L 383.466533 332.726846 
L 384.286302 374.23467 
L 385.10607 385.560068 
L 385.925839 386.456979 
L 387.565376 386.610772 
L 388.385144 383.709407 
L 389.204913 386.530339 
L 390.024681 386.682078 
L 392.483987 386.711405 
L 393.303755 335.929488 
L 394.123524 380.992276 
L 394.943292 386.121978 
L 395.76306 386.481174 
L 396.582829 357.283313 
L 397.402597 383.529737 
L 398.222366 386.236873 
L 399.042134 385.062267 
L 399.861903 341.515023 
L 400.681671 382.959462 
L 401.50144 386.31736 
L 402.321208 386.523104 
L 403.140977 386.604858 
L 403.960745 378.247966 
L 404.780514 386.186502 
L 405.600282 364.835467 
L 406.420051 371.727168 
L 407.239819 385.179616 
L 408.059587 386.388361 
L 408.879356 386.548166 
L 409.699124 386.46293 
L 410.518893 386.622055 
L 411.338661 385.523222 
L 412.15843 357.861097 
L 412.978198 384.050652 
L 413.797967 386.344826 
L 415.437504 386.609311 
L 416.257272 386.648943 
L 417.896809 271.418632 
L 418.716578 379.641924 
L 419.536346 386.263982 
L 420.356114 372.580193 
L 421.175883 324.646941 
L 421.995651 382.137601 
L 422.81542 386.276785 
L 423.635188 386.492316 
L 426.094494 386.652846 
L 426.914262 368.348578 
L 427.734031 383.844823 
L 428.553799 386.260856 
L 429.373568 267.356841 
L 430.193336 371.709802 
L 431.013105 385.584449 
L 431.832873 386.391674 
L 433.47241 386.600971 
L 437.571252 386.692862 
L 441.670095 386.711405 
L 442.489863 376.036681 
L 443.309632 386.231942 
L 444.1294 383.663255 
L 444.949168 386.56603 
L 445.768937 386.699914 
L 448.228242 386.711405 
L 449.048011 385.347624 
L 449.867779 386.65211 
L 451.507316 386.711405 
L 456.425927 386.711405 
L 457.245695 316.253948 
L 458.065464 376.270652 
L 458.885232 385.753786 
L 459.705001 386.365099 
L 461.344538 386.56189 
L 462.164306 376.870654 
L 462.984075 319.972499 
L 463.803843 381.771027 
L 464.623612 386.218107 
L 465.44338 386.439717 
L 467.902686 386.613598 
L 472.821296 386.680367 
L 473.641065 358.941726 
L 474.460833 384.243716 
L 475.280602 386.274567 
L 476.920139 386.536615 
L 480.199213 386.647295 
L 481.018981 369.299223 
L 481.838749 385.336413 
L 482.658518 386.392332 
L 483.478286 386.505304 
L 484.298055 358.758979 
L 485.117823 379.71602 
L 485.937592 384.230648 
L 486.75736 319.193919 
L 487.577129 125.887209 
L 488.396897 371.138072 
L 489.216666 386.01861 
L 490.036434 386.393868 
L 490.856203 262.571445 
L 491.675971 337.176413 
L 492.49574 383.150784 
L 493.315508 386.22575 
L 493.315508 386.22575 
" style="fill:none;stroke:#1f77b4;stroke-linecap:square;stroke-width:1.5;"/>
   </g>
   <g id="patch_3">
    <path d="M 180 400.189091 
L 180 103.68 
" style="fill:none;stroke:#000000;stroke-linecap:square;stroke-linejoin:miter;stroke-width:0.8;"/>
   </g>
   <g id="patch_4">
    <path d="M 508.235294 400.189091 
L 508.235294 103.68 
" style="fill:none;stroke:#000000;stroke-linecap:square;stroke-linejoin:miter;stroke-width:0.8;"/>
   </g>
   <g id="patch_5">
    <path d="M 180 400.189091 
L 508.235294 400.189091 
" style="fill:none;stroke:#000000;stroke-linecap:square;stroke-linejoin:miter;stroke-width:0.8;"/>
   </g>
   <g id="patch_6">
    <path d="M 180 103.68 
L 508.235294 103.68 
" style="fill:none;stroke:#000000;stroke-linecap:square;stroke-linejoin:miter;stroke-width:0.8;"/>
   </g>
   <g id="text_14">
    <!-- 01:00:00 -->
    <defs>
     <path d="M 11.71875 12.40625 
L 22.015625 12.40625 
L 22.015625 0 
L 11.71875 0 
z
M 11.71875 51.703125 
L 22.015625 51.703125 
L 22.015625 39.3125 
L 11.71875 39.3125 
z
" id="DejaVuSans-58"/>
    </defs>
    <g transform="translate(317.170147 97.68)scale(0.12 -0.12)">
     <use xlink:href="#DejaVuSans-48"/>
     <use x="63.623047" xlink:href="#DejaVuSans-49"/>
     <use x="127.246094" xlink:href="#DejaVuSans-58"/>
     <use x="160.9375" xlink:href="#DejaVuSans-48"/>
     <use x="224.560547" xlink:href="#DejaVuSans-48"/>
     <use x="288.183594" xlink:href="#DejaVuSans-58"/>
     <use x="321.875" xlink:href="#DejaVuSans-48"/>
     <use x="385.498047" xlink:href="#DejaVuSans-48"/>
    </g>
   </g>
  </g>
  <g id="axes_2">
   <g id="patch_7">
    <path d="M 573.882353 400.189091 
L 902.117647 400.189091 
L 902.117647 103.68 
L 573.882353 103.68 
z
" style="fill:#ffffff;"/>
   </g>
   <g id="matplotlib.axis_3">
    <g id="xtick_8">
     <g id="line2d_15">
      <g>
       <use style="stroke:#000000;stroke-width:0.8;" x="588.802139" xlink:href="#mb6c0bae329" y="400.189091"/>
      </g>
     </g>
     <g id="text_15">
      <!-- 2014-01 -->
      <g transform="translate(567.910733 414.787528)scale(0.1 -0.1)">
       <use xlink:href="#DejaVuSans-50"/>
       <use x="63.623047" xlink:href="#DejaVuSans-48"/>
       <use x="127.246094" xlink:href="#DejaVuSans-49"/>
       <use x="190.869141" xlink:href="#DejaVuSans-52"/>
       <use x="254.492188" xlink:href="#DejaVuSans-45"/>
       <use x="290.576172" xlink:href="#DejaVuSans-48"/>
       <use x="354.199219" xlink:href="#DejaVuSans-49"/>
      </g>
     </g>
    </g>
    <g id="xtick_9">
     <g id="line2d_16">
      <g>
       <use style="stroke:#000000;stroke-width:0.8;" x="637.168479" xlink:href="#mb6c0bae329" y="400.189091"/>
      </g>
     </g>
     <g id="text_16">
      <!-- 2014-03 -->
      <g transform="translate(616.277072 414.787528)scale(0.1 -0.1)">
       <use xlink:href="#DejaVuSans-50"/>
       <use x="63.623047" xlink:href="#DejaVuSans-48"/>
       <use x="127.246094" xlink:href="#DejaVuSans-49"/>
       <use x="190.869141" xlink:href="#DejaVuSans-52"/>
       <use x="254.492188" xlink:href="#DejaVuSans-45"/>
       <use x="290.576172" xlink:href="#DejaVuSans-48"/>
       <use x="354.199219" xlink:href="#DejaVuSans-51"/>
      </g>
     </g>
    </g>
    <g id="xtick_10">
     <g id="line2d_17">
      <g>
       <use style="stroke:#000000;stroke-width:0.8;" x="687.174355" xlink:href="#mb6c0bae329" y="400.189091"/>
      </g>
     </g>
     <g id="text_17">
      <!-- 2014-05 -->
      <g transform="translate(666.282949 414.787528)scale(0.1 -0.1)">
       <use xlink:href="#DejaVuSans-50"/>
       <use x="63.623047" xlink:href="#DejaVuSans-48"/>
       <use x="127.246094" xlink:href="#DejaVuSans-49"/>
       <use x="190.869141" xlink:href="#DejaVuSans-52"/>
       <use x="254.492188" xlink:href="#DejaVuSans-45"/>
       <use x="290.576172" xlink:href="#DejaVuSans-48"/>
       <use x="354.199219" xlink:href="#DejaVuSans-53"/>
      </g>
     </g>
    </g>
    <g id="xtick_11">
     <g id="line2d_18">
      <g>
       <use style="stroke:#000000;stroke-width:0.8;" x="737.180232" xlink:href="#mb6c0bae329" y="400.189091"/>
      </g>
     </g>
     <g id="text_18">
      <!-- 2014-07 -->
      <g transform="translate(716.288825 414.787528)scale(0.1 -0.1)">
       <use xlink:href="#DejaVuSans-50"/>
       <use x="63.623047" xlink:href="#DejaVuSans-48"/>
       <use x="127.246094" xlink:href="#DejaVuSans-49"/>
       <use x="190.869141" xlink:href="#DejaVuSans-52"/>
       <use x="254.492188" xlink:href="#DejaVuSans-45"/>
       <use x="290.576172" xlink:href="#DejaVuSans-48"/>
       <use x="354.199219" xlink:href="#DejaVuSans-55"/>
      </g>
     </g>
    </g>
    <g id="xtick_12">
     <g id="line2d_19">
      <g>
       <use style="stroke:#000000;stroke-width:0.8;" x="788.005876" xlink:href="#mb6c0bae329" y="400.189091"/>
      </g>
     </g>
     <g id="text_19">
      <!-- 2014-09 -->
      <g transform="translate(767.11447 414.787528)scale(0.1 -0.1)">
       <use xlink:href="#DejaVuSans-50"/>
       <use x="63.623047" xlink:href="#DejaVuSans-48"/>
       <use x="127.246094" xlink:href="#DejaVuSans-49"/>
       <use x="190.869141" xlink:href="#DejaVuSans-52"/>
       <use x="254.492188" xlink:href="#DejaVuSans-45"/>
       <use x="290.576172" xlink:href="#DejaVuSans-48"/>
       <use x="354.199219" xlink:href="#DejaVuSans-57"/>
      </g>
     </g>
    </g>
    <g id="xtick_13">
     <g id="line2d_20">
      <g>
       <use style="stroke:#000000;stroke-width:0.8;" x="838.011753" xlink:href="#mb6c0bae329" y="400.189091"/>
      </g>
     </g>
     <g id="text_20">
      <!-- 2014-11 -->
      <g transform="translate(817.120347 414.787528)scale(0.1 -0.1)">
       <use xlink:href="#DejaVuSans-50"/>
       <use x="63.623047" xlink:href="#DejaVuSans-48"/>
       <use x="127.246094" xlink:href="#DejaVuSans-49"/>
       <use x="190.869141" xlink:href="#DejaVuSans-52"/>
       <use x="254.492188" xlink:href="#DejaVuSans-45"/>
       <use x="290.576172" xlink:href="#DejaVuSans-49"/>
       <use x="354.199219" xlink:href="#DejaVuSans-49"/>
      </g>
     </g>
    </g>
    <g id="xtick_14">
     <g id="line2d_21">
      <g>
       <use style="stroke:#000000;stroke-width:0.8;" x="888.017629" xlink:href="#mb6c0bae329" y="400.189091"/>
      </g>
     </g>
     <g id="text_21">
      <!-- 2015-01 -->
      <g transform="translate(867.126223 414.787528)scale(0.1 -0.1)">
       <use xlink:href="#DejaVuSans-50"/>
       <use x="63.623047" xlink:href="#DejaVuSans-48"/>
       <use x="127.246094" xlink:href="#DejaVuSans-49"/>
       <use x="190.869141" xlink:href="#DejaVuSans-53"/>
       <use x="254.492188" xlink:href="#DejaVuSans-45"/>
       <use x="290.576172" xlink:href="#DejaVuSans-48"/>
       <use x="354.199219" xlink:href="#DejaVuSans-49"/>
      </g>
     </g>
    </g>
   </g>
   <g id="matplotlib.axis_4">
    <g id="ytick_7">
     <g id="line2d_22">
      <g>
       <use style="stroke:#000000;stroke-width:0.8;" x="573.882353" xlink:href="#mfbab95374b" y="386.711405"/>
      </g>
     </g>
    </g>
    <g id="ytick_8">
     <g id="line2d_23">
      <g>
       <use style="stroke:#000000;stroke-width:0.8;" x="573.882353" xlink:href="#mfbab95374b" y="335.319954"/>
      </g>
     </g>
    </g>
    <g id="ytick_9">
     <g id="line2d_24">
      <g>
       <use style="stroke:#000000;stroke-width:0.8;" x="573.882353" xlink:href="#mfbab95374b" y="283.928503"/>
      </g>
     </g>
    </g>
    <g id="ytick_10">
     <g id="line2d_25">
      <g>
       <use style="stroke:#000000;stroke-width:0.8;" x="573.882353" xlink:href="#mfbab95374b" y="232.537052"/>
      </g>
     </g>
    </g>
    <g id="ytick_11">
     <g id="line2d_26">
      <g>
       <use style="stroke:#000000;stroke-width:0.8;" x="573.882353" xlink:href="#mfbab95374b" y="181.145601"/>
      </g>
     </g>
    </g>
    <g id="ytick_12">
     <g id="line2d_27">
      <g>
       <use style="stroke:#000000;stroke-width:0.8;" x="573.882353" xlink:href="#mfbab95374b" y="129.75415"/>
      </g>
     </g>
    </g>
   </g>
   <g id="line2d_28">
    <path clip-path="url(#p0780c03634)" d="M 588.802139 386.421493 
L 589.621908 352.294859 
L 591.261444 383.910217 
L 592.081213 386.282149 
L 592.900981 378.770018 
L 593.72075 385.185155 
L 594.540518 386.454118 
L 595.360287 386.536249 
L 596.180055 370.729594 
L 596.999824 316.095164 
L 597.819592 280.526439 
L 598.639361 371.217852 
L 599.459129 344.352437 
L 600.278898 378.926035 
L 601.098666 384.806992 
L 601.918435 386.19966 
L 602.738203 386.507118 
L 606.017277 386.641817 
L 610.116119 386.682958 
L 610.935888 378.330463 
L 611.755656 385.438037 
L 612.575425 386.645443 
L 615.03473 386.677827 
L 615.854498 350.114692 
L 616.674267 377.908222 
L 617.494035 308.597622 
L 618.313804 373.742598 
L 619.133572 386.222323 
L 619.953341 386.456772 
L 621.592878 386.601103 
L 622.412646 331.118328 
L 623.232415 241.219249 
L 624.052183 334.052548 
L 624.871952 380.759119 
L 625.69172 370.605 
L 626.511489 383.351093 
L 627.331257 386.309603 
L 628.151025 385.062894 
L 628.970794 386.330507 
L 629.790562 386.589517 
L 630.610331 276.786032 
L 631.430099 368.71655 
L 632.249868 386.215438 
L 633.069636 386.454528 
L 633.889405 386.549784 
L 634.709173 373.322129 
L 635.528942 380.414083 
L 636.34871 385.643459 
L 637.168479 385.253883 
L 637.988247 386.344924 
L 638.808016 374.745181 
L 639.627784 380.123029 
L 640.447552 369.06283 
L 641.267321 383.217437 
L 642.087089 336.546606 
L 642.906858 377.732807 
L 643.726626 386.274253 
L 644.546395 386.497141 
L 645.366163 386.585423 
L 646.185932 326.023792 
L 647.0057 375.945694 
L 647.825469 386.268168 
L 648.645237 386.495161 
L 649.465006 278.434817 
L 650.284774 273.343596 
L 651.104543 362.761026 
L 651.924311 383.031819 
L 652.744079 386.015359 
L 653.563848 386.481384 
L 655.203385 386.627013 
L 656.023153 357.27474 
L 656.842922 380.842086 
L 657.66269 386.299362 
L 658.482459 386.505521 
L 659.302227 309.633722 
L 660.121996 197.272692 
L 660.941764 359.493667 
L 661.761533 386.250641 
L 662.581301 386.504003 
L 663.40107 386.49255 
L 665.040606 386.662508 
L 665.860375 363.709202 
L 666.680143 328.11823 
L 667.499912 194.865121 
L 668.31968 309.877039 
L 669.139449 376.795206 
L 669.959217 386.019739 
L 670.778986 386.504777 
L 672.418523 386.655995 
L 673.238291 386.680073 
L 674.05806 253.524979 
L 674.877828 360.728068 
L 675.697597 385.421616 
L 676.517365 376.201914 
L 677.337133 275.81438 
L 678.156902 367.866486 
L 678.97667 385.996747 
L 679.796439 386.500351 
L 680.616207 380.491705 
L 681.435976 385.675097 
L 682.255744 382.17653 
L 683.075513 385.980634 
L 683.895281 386.657417 
L 684.71505 383.932363 
L 685.534818 234.949245 
L 686.354587 347.101853 
L 687.174355 363.710505 
L 687.994124 382.782077 
L 688.813892 386.422723 
L 690.453429 386.658516 
L 693.732503 386.711405 
L 694.552271 315.403071 
L 695.37204 364.252848 
L 696.191808 382.994827 
L 697.011577 383.046525 
L 697.831345 385.909903 
L 698.651114 178.023931 
L 699.470882 354.781768 
L 700.290651 386.35884 
L 701.110419 386.577274 
L 703.569724 386.696982 
L 708.488335 386.711405 
L 709.308104 345.288763 
L 710.127872 334.259116 
L 710.947641 376.900863 
L 711.767409 360.563116 
L 712.587178 366.909611 
L 713.406946 381.125138 
L 714.226714 385.888882 
L 715.046483 386.536107 
L 716.68602 386.674901 
L 717.505788 325.710488 
L 718.325557 317.598126 
L 719.145325 370.61423 
L 719.965094 385.174096 
L 720.784862 332.47672 
L 721.604631 310.628296 
L 722.424399 375.559035 
L 723.244168 386.374682 
L 724.063936 386.581449 
L 725.703473 386.682869 
L 726.523241 374.994459 
L 727.34301 384.871985 
L 728.162778 384.596852 
L 728.982547 386.305193 
L 729.802315 385.763743 
L 730.622084 384.115785 
L 731.441852 339.249983 
L 732.261621 375.134585 
L 733.081389 385.752906 
L 733.901158 378.250821 
L 734.720926 307.28513 
L 735.540695 358.694695 
L 736.360463 380.784208 
L 737.180232 385.82416 
L 738 386.523317 
L 738.819768 373.641886 
L 739.639537 384.359997 
L 740.459305 386.526769 
L 742.098842 386.670033 
L 743.738379 386.701342 
L 744.558148 343.902378 
L 745.377916 367.443697 
L 746.197685 384.284061 
L 747.017453 386.44587 
L 747.837222 386.598556 
L 748.65699 386.330089 
L 749.476759 371.80022 
L 750.296527 384.079308 
L 751.116295 386.522638 
L 751.936064 361.028726 
L 752.755832 312.730934 
L 754.395369 373.97848 
L 755.215138 381.140732 
L 756.034906 385.663216 
L 756.854675 385.691582 
L 757.674443 386.449901 
L 758.494212 386.641229 
L 762.593054 386.711405 
L 765.872128 386.711405 
L 766.691896 379.364776 
L 767.511665 385.661887 
L 768.331433 385.092656 
L 769.151202 386.480155 
L 769.97097 212.464682 
L 770.790739 355.939183 
L 771.610507 385.718762 
L 772.430276 386.489897 
L 774.069813 386.656647 
L 775.709349 386.69466 
L 776.529118 331.236106 
L 777.348886 331.409556 
L 778.168655 370.82841 
L 778.988423 384.833391 
L 779.808192 386.447563 
L 781.447729 386.605018 
L 782.267497 383.964445 
L 783.087266 386.273998 
L 783.907034 386.681355 
L 786.36634 386.711405 
L 787.186108 340.522265 
L 788.005876 376.456251 
L 788.825645 385.987652 
L 789.645413 386.474588 
L 790.465182 359.878882 
L 791.28495 380.952528 
L 792.104719 386.19383 
L 792.924487 385.181126 
L 793.744256 345.261857 
L 794.564024 379.033376 
L 795.383793 386.302421 
L 796.203561 386.518149 
L 797.02333 386.602521 
L 797.843098 378.979367 
L 798.662867 385.456287 
L 799.482635 366.767478 
L 800.302403 370.896202 
L 801.122172 384.080812 
L 801.94194 386.377441 
L 802.761709 386.544091 
L 803.581477 386.474159 
L 804.401246 386.608483 
L 805.221014 385.620963 
L 806.040783 360.329953 
L 806.860551 381.476422 
L 807.68032 386.331517 
L 808.500088 386.527835 
L 810.139625 386.647718 
L 811.779162 275.599582 
L 812.59893 370.294053 
L 813.418699 386.247557 
L 814.238467 373.800016 
L 815.058236 328.468883 
L 815.878004 377.005079 
L 816.697773 386.261157 
L 817.517541 386.487087 
L 819.976847 386.651945 
L 820.796615 369.959354 
L 821.616384 382.368078 
L 822.436152 386.132181 
L 823.255921 277.206046 
L 824.075689 362.126645 
L 824.895457 384.955143 
L 825.715226 386.382277 
L 827.354763 386.598973 
L 831.453605 386.692614 
L 835.552448 386.711405 
L 836.372216 376.964964 
L 837.191984 385.303791 
L 838.011753 383.927173 
L 838.831521 386.30208 
L 839.65129 386.699839 
L 842.110595 386.711405 
L 842.930364 385.466214 
L 843.750132 386.53352 
L 844.569901 386.711405 
L 850.30828 386.711405 
L 851.128048 322.516052 
L 851.947817 370.299168 
L 852.767585 385.322875 
L 853.587354 386.356761 
L 855.226891 386.559858 
L 856.046659 377.720278 
L 856.866428 324.640139 
L 857.686196 376.146335 
L 858.505965 386.202144 
L 859.325733 386.434274 
L 861.785038 386.61253 
L 866.703649 386.680161 
L 867.523418 361.414997 
L 868.343186 381.775695 
L 869.162955 386.262242 
L 870.802492 386.53416 
L 874.081565 386.646761 
L 874.901334 370.825088 
L 875.721102 383.821818 
L 876.540871 386.385406 
L 877.360639 386.502071 
L 878.180408 361.223939 
L 879.000176 377.606249 
L 879.819945 384.000558 
L 880.639713 324.628399 
L 881.459482 141.784677 
L 882.27925 349.493199 
L 883.099019 385.857873 
L 883.918787 386.387002 
L 884.738556 272.805787 
L 886.378092 379.650458 
L 887.197861 386.210696 
L 887.197861 386.210696 
" style="fill:none;stroke:#1f77b4;stroke-linecap:square;stroke-width:1.5;"/>
   </g>
   <g id="patch_8">
    <path d="M 573.882353 400.189091 
L 573.882353 103.68 
" style="fill:none;stroke:#000000;stroke-linecap:square;stroke-linejoin:miter;stroke-width:0.8;"/>
   </g>
   <g id="patch_9">
    <path d="M 902.117647 400.189091 
L 902.117647 103.68 
" style="fill:none;stroke:#000000;stroke-linecap:square;stroke-linejoin:miter;stroke-width:0.8;"/>
   </g>
   <g id="patch_10">
    <path d="M 573.882353 400.189091 
L 902.117647 400.189091 
" style="fill:none;stroke:#000000;stroke-linecap:square;stroke-linejoin:miter;stroke-width:0.8;"/>
   </g>
   <g id="patch_11">
    <path d="M 573.882353 103.68 
L 902.117647 103.68 
" style="fill:none;stroke:#000000;stroke-linecap:square;stroke-linejoin:miter;stroke-width:0.8;"/>
   </g>
   <g id="text_22">
    <!-- 03:00:00 -->
    <g transform="translate(711.0525 97.68)scale(0.12 -0.12)">
     <use xlink:href="#DejaVuSans-48"/>
     <use x="63.623047" xlink:href="#DejaVuSans-51"/>
     <use x="127.246094" xlink:href="#DejaVuSans-58"/>
     <use x="160.9375" xlink:href="#DejaVuSans-48"/>
     <use x="224.560547" xlink:href="#DejaVuSans-48"/>
     <use x="288.183594" xlink:href="#DejaVuSans-58"/>
     <use x="321.875" xlink:href="#DejaVuSans-48"/>
     <use x="385.498047" xlink:href="#DejaVuSans-48"/>
    </g>
   </g>
  </g>
  <g id="axes_3">
   <g id="patch_12">
    <path d="M 967.764706 400.189091 
L 1296 400.189091 
L 1296 103.68 
L 967.764706 103.68 
z
" style="fill:#ffffff;"/>
   </g>
   <g id="matplotlib.axis_5">
    <g id="xtick_15">
     <g id="line2d_29">
      <g>
       <use style="stroke:#000000;stroke-width:0.8;" x="982.684492" xlink:href="#mb6c0bae329" y="400.189091"/>
      </g>
     </g>
     <g id="text_23">
      <!-- 2014-01 -->
      <g transform="translate(961.793086 414.787528)scale(0.1 -0.1)">
       <use xlink:href="#DejaVuSans-50"/>
       <use x="63.623047" xlink:href="#DejaVuSans-48"/>
       <use x="127.246094" xlink:href="#DejaVuSans-49"/>
       <use x="190.869141" xlink:href="#DejaVuSans-52"/>
       <use x="254.492188" xlink:href="#DejaVuSans-45"/>
       <use x="290.576172" xlink:href="#DejaVuSans-48"/>
       <use x="354.199219" xlink:href="#DejaVuSans-49"/>
      </g>
     </g>
    </g>
    <g id="xtick_16">
     <g id="line2d_30">
      <g>
       <use style="stroke:#000000;stroke-width:0.8;" x="1031.050832" xlink:href="#mb6c0bae329" y="400.189091"/>
      </g>
     </g>
     <g id="text_24">
      <!-- 2014-03 -->
      <g transform="translate(1010.159425 414.787528)scale(0.1 -0.1)">
       <use xlink:href="#DejaVuSans-50"/>
       <use x="63.623047" xlink:href="#DejaVuSans-48"/>
       <use x="127.246094" xlink:href="#DejaVuSans-49"/>
       <use x="190.869141" xlink:href="#DejaVuSans-52"/>
       <use x="254.492188" xlink:href="#DejaVuSans-45"/>
       <use x="290.576172" xlink:href="#DejaVuSans-48"/>
       <use x="354.199219" xlink:href="#DejaVuSans-51"/>
      </g>
     </g>
    </g>
    <g id="xtick_17">
     <g id="line2d_31">
      <g>
       <use style="stroke:#000000;stroke-width:0.8;" x="1081.056708" xlink:href="#mb6c0bae329" y="400.189091"/>
      </g>
     </g>
     <g id="text_25">
      <!-- 2014-05 -->
      <g transform="translate(1060.165302 414.787528)scale(0.1 -0.1)">
       <use xlink:href="#DejaVuSans-50"/>
       <use x="63.623047" xlink:href="#DejaVuSans-48"/>
       <use x="127.246094" xlink:href="#DejaVuSans-49"/>
       <use x="190.869141" xlink:href="#DejaVuSans-52"/>
       <use x="254.492188" xlink:href="#DejaVuSans-45"/>
       <use x="290.576172" xlink:href="#DejaVuSans-48"/>
       <use x="354.199219" xlink:href="#DejaVuSans-53"/>
      </g>
     </g>
    </g>
    <g id="xtick_18">
     <g id="line2d_32">
      <g>
       <use style="stroke:#000000;stroke-width:0.8;" x="1131.062584" xlink:href="#mb6c0bae329" y="400.189091"/>
      </g>
     </g>
     <g id="text_26">
      <!-- 2014-07 -->
      <g transform="translate(1110.171178 414.787528)scale(0.1 -0.1)">
       <use xlink:href="#DejaVuSans-50"/>
       <use x="63.623047" xlink:href="#DejaVuSans-48"/>
       <use x="127.246094" xlink:href="#DejaVuSans-49"/>
       <use x="190.869141" xlink:href="#DejaVuSans-52"/>
       <use x="254.492188" xlink:href="#DejaVuSans-45"/>
       <use x="290.576172" xlink:href="#DejaVuSans-48"/>
       <use x="354.199219" xlink:href="#DejaVuSans-55"/>
      </g>
     </g>
    </g>
    <g id="xtick_19">
     <g id="line2d_33">
      <g>
       <use style="stroke:#000000;stroke-width:0.8;" x="1181.888229" xlink:href="#mb6c0bae329" y="400.189091"/>
      </g>
     </g>
     <g id="text_27">
      <!-- 2014-09 -->
      <g transform="translate(1160.996823 414.787528)scale(0.1 -0.1)">
       <use xlink:href="#DejaVuSans-50"/>
       <use x="63.623047" xlink:href="#DejaVuSans-48"/>
       <use x="127.246094" xlink:href="#DejaVuSans-49"/>
       <use x="190.869141" xlink:href="#DejaVuSans-52"/>
       <use x="254.492188" xlink:href="#DejaVuSans-45"/>
       <use x="290.576172" xlink:href="#DejaVuSans-48"/>
       <use x="354.199219" xlink:href="#DejaVuSans-57"/>
      </g>
     </g>
    </g>
    <g id="xtick_20">
     <g id="line2d_34">
      <g>
       <use style="stroke:#000000;stroke-width:0.8;" x="1231.894106" xlink:href="#mb6c0bae329" y="400.189091"/>
      </g>
     </g>
     <g id="text_28">
      <!-- 2014-11 -->
      <g transform="translate(1211.0027 414.787528)scale(0.1 -0.1)">
       <use xlink:href="#DejaVuSans-50"/>
       <use x="63.623047" xlink:href="#DejaVuSans-48"/>
       <use x="127.246094" xlink:href="#DejaVuSans-49"/>
       <use x="190.869141" xlink:href="#DejaVuSans-52"/>
       <use x="254.492188" xlink:href="#DejaVuSans-45"/>
       <use x="290.576172" xlink:href="#DejaVuSans-49"/>
       <use x="354.199219" xlink:href="#DejaVuSans-49"/>
      </g>
     </g>
    </g>
    <g id="xtick_21">
     <g id="line2d_35">
      <g>
       <use style="stroke:#000000;stroke-width:0.8;" x="1281.899982" xlink:href="#mb6c0bae329" y="400.189091"/>
      </g>
     </g>
     <g id="text_29">
      <!-- 2015-01 -->
      <g transform="translate(1261.008576 414.787528)scale(0.1 -0.1)">
       <use xlink:href="#DejaVuSans-50"/>
       <use x="63.623047" xlink:href="#DejaVuSans-48"/>
       <use x="127.246094" xlink:href="#DejaVuSans-49"/>
       <use x="190.869141" xlink:href="#DejaVuSans-53"/>
       <use x="254.492188" xlink:href="#DejaVuSans-45"/>
       <use x="290.576172" xlink:href="#DejaVuSans-48"/>
       <use x="354.199219" xlink:href="#DejaVuSans-49"/>
      </g>
     </g>
    </g>
   </g>
   <g id="matplotlib.axis_6">
    <g id="ytick_13">
     <g id="line2d_36">
      <g>
       <use style="stroke:#000000;stroke-width:0.8;" x="967.764706" xlink:href="#mfbab95374b" y="386.711405"/>
      </g>
     </g>
    </g>
    <g id="ytick_14">
     <g id="line2d_37">
      <g>
       <use style="stroke:#000000;stroke-width:0.8;" x="967.764706" xlink:href="#mfbab95374b" y="335.319954"/>
      </g>
     </g>
    </g>
    <g id="ytick_15">
     <g id="line2d_38">
      <g>
       <use style="stroke:#000000;stroke-width:0.8;" x="967.764706" xlink:href="#mfbab95374b" y="283.928503"/>
      </g>
     </g>
    </g>
    <g id="ytick_16">
     <g id="line2d_39">
      <g>
       <use style="stroke:#000000;stroke-width:0.8;" x="967.764706" xlink:href="#mfbab95374b" y="232.537052"/>
      </g>
     </g>
    </g>
    <g id="ytick_17">
     <g id="line2d_40">
      <g>
       <use style="stroke:#000000;stroke-width:0.8;" x="967.764706" xlink:href="#mfbab95374b" y="181.145601"/>
      </g>
     </g>
    </g>
    <g id="ytick_18">
     <g id="line2d_41">
      <g>
       <use style="stroke:#000000;stroke-width:0.8;" x="967.764706" xlink:href="#mfbab95374b" y="129.75415"/>
      </g>
     </g>
    </g>
   </g>
   <g id="line2d_42">
    <path clip-path="url(#pdd91f21950)" d="M 982.684492 386.412754 
L 983.50426 357.200288 
L 984.324029 364.386095 
L 985.143797 382.191199 
L 985.963566 386.264391 
L 986.783334 379.870674 
L 987.603103 384.082048 
L 988.422871 386.447025 
L 989.24264 386.532542 
L 990.062408 373.026637 
L 990.882177 322.954048 
L 991.701945 284.346844 
L 992.521714 357.892161 
L 993.341482 350.132724 
L 994.161251 372.927063 
L 994.981019 384.982278 
L 995.800787 385.993839 
L 996.620556 386.502333 
L 999.89963 386.640909 
L 1003.998472 386.682676 
L 1004.818241 379.525705 
L 1005.638009 384.24519 
L 1006.457778 386.644601 
L 1008.917083 386.677297 
L 1009.736851 355.503266 
L 1010.55662 372.60006 
L 1011.376388 318.733999 
L 1012.196157 362.824525 
L 1013.015925 386.196808 
L 1013.835694 386.448382 
L 1015.475231 386.598712 
L 1016.294999 338.931642 
L 1017.114768 252.205271 
L 1017.934536 319.380504 
L 1018.754305 376.383417 
L 1019.574073 372.849438 
L 1020.393841 381.070905 
L 1021.21361 386.29158 
L 1022.033378 385.259227 
L 1022.853147 386.12551 
L 1023.672915 386.586767 
L 1024.492684 291.812626 
L 1025.312452 352.919354 
L 1026.132221 386.189274 
L 1026.951989 386.446018 
L 1027.771758 386.545638 
L 1028.591526 375.235875 
L 1029.411295 379.038402 
L 1030.231063 385.108151 
L 1031.050832 385.412169 
L 1031.8706 386.173139 
L 1032.690368 376.44811 
L 1033.510137 379.040117 
L 1034.329905 370.773711 
L 1035.149674 380.870964 
L 1035.969442 343.443454 
L 1036.789211 370.560002 
L 1037.608979 386.250033 
L 1038.428748 386.489197 
L 1039.248516 386.581629 
L 1040.068285 334.498941 
L 1040.888053 367.09074 
L 1041.707822 386.24338 
L 1042.52759 386.487109 
L 1043.347359 293.034271 
L 1044.167127 271.309062 
L 1044.986895 350.472936 
L 1045.806664 382.094286 
L 1046.626432 385.777509 
L 1047.446201 386.472566 
L 1049.085738 386.624744 
L 1049.905506 361.587605 
L 1050.725275 376.439347 
L 1051.545043 386.277411 
L 1052.364812 386.498025 
L 1053.18458 320.365944 
L 1054.004349 211.139701 
L 1054.824117 334.570457 
L 1055.643886 386.224182 
L 1056.463654 386.493913 
L 1058.103191 386.592083 
L 1058.922959 386.66074 
L 1059.742728 367.052968 
L 1060.562496 332.182214 
L 1061.382265 213.114629 
L 1063.021802 370.140524 
L 1063.84157 385.823066 
L 1064.661339 386.49471 
L 1066.300876 386.653964 
L 1067.120644 386.678984 
L 1067.940413 272.024165 
L 1068.760181 342.099502 
L 1069.579949 384.784979 
L 1070.399718 377.668427 
L 1071.219486 288.940949 
L 1072.039255 352.694049 
L 1072.859023 385.793264 
L 1073.678792 386.489994 
L 1074.49856 381.363151 
L 1075.318329 384.800417 
L 1076.138097 382.808336 
L 1076.957866 385.345268 
L 1077.777634 386.655444 
L 1078.597403 384.323867 
L 1079.417171 254.052208 
L 1080.23694 327.648358 
L 1081.056708 364.277886 
L 1081.876476 380.013866 
L 1082.696245 386.40369 
L 1083.516013 386.590238 
L 1085.975319 386.698139 
L 1087.614856 386.711405 
L 1088.434624 325.827786 
L 1090.074161 381.850957 
L 1090.89393 383.259576 
L 1091.713698 385.479665 
L 1092.533467 205.379741 
L 1093.353235 325.058418 
L 1094.173003 386.333638 
L 1094.992772 386.570162 
L 1097.452077 386.696356 
L 1102.370688 386.711405 
L 1103.190457 351.253836 
L 1104.010225 334.49165 
L 1104.829994 370.742158 
L 1105.649762 363.862878 
L 1106.46953 365.386225 
L 1107.289299 379.398252 
L 1108.109067 385.538112 
L 1108.928836 386.526253 
L 1110.568373 386.673258 
L 1111.388141 334.410499 
L 1112.20791 316.699291 
L 1113.027678 363.3192 
L 1113.847447 384.317056 
L 1114.667215 339.984576 
L 1115.486984 312.138686 
L 1116.306752 366.216679 
L 1117.126521 386.351143 
L 1117.946289 386.574626 
L 1119.585826 386.681602 
L 1120.405594 376.668529 
L 1121.225363 383.207662 
L 1122.045131 384.875489 
L 1122.8649 386.01855 
L 1123.684668 385.887972 
L 1124.504437 384.333749 
L 1125.324205 345.565019 
L 1126.143974 368.652477 
L 1126.963742 385.333288 
L 1127.783511 379.430927 
L 1128.603279 316.529459 
L 1130.242816 379.07744 
L 1131.062584 385.431712 
L 1131.882353 386.51309 
L 1132.702121 375.509489 
L 1133.52189 382.489954 
L 1134.341658 386.516782 
L 1135.981195 386.668272 
L 1137.620732 386.699866 
L 1138.440501 350.260577 
L 1139.260269 362.435313 
L 1140.080038 382.746137 
L 1140.899806 386.429718 
L 1141.719575 386.59311 
L 1142.539343 386.374223 
L 1143.359111 373.890238 
L 1144.17888 381.94468 
L 1144.998648 386.512364 
L 1145.818417 364.769053 
L 1146.638185 318.449458 
L 1147.457954 339.202857 
L 1148.277722 370.689378 
L 1149.097491 380.706008 
L 1149.917259 385.118355 
L 1150.737028 385.798718 
L 1151.556796 386.331081 
L 1152.376565 386.638082 
L 1156.475407 386.711405 
L 1159.754481 386.711405 
L 1160.574249 380.414294 
L 1161.394018 384.612368 
L 1162.213786 385.323906 
L 1163.033555 386.248905 
L 1163.853323 237.921585 
L 1164.673092 330.758368 
L 1165.49286 385.303064 
L 1166.312629 386.478338 
L 1167.952165 386.654522 
L 1169.591702 386.69406 
L 1170.411471 339.30551 
L 1171.231239 329.382755 
L 1172.051008 365.624068 
L 1172.870776 383.734834 
L 1173.690545 386.432869 
L 1175.330082 386.596273 
L 1176.14985 384.347003 
L 1176.969619 385.889437 
L 1177.789387 386.680248 
L 1180.248692 386.711405 
L 1181.068461 347.402834 
L 1181.888229 369.534772 
L 1182.707998 385.783935 
L 1183.527766 386.464385 
L 1184.347535 363.765454 
L 1185.167303 377.03972 
L 1185.987072 386.127715 
L 1186.80684 385.35934 
L 1187.626609 350.877199 
L 1188.446377 373.040953 
L 1189.266146 386.27896 
L 1190.085914 386.510499 
L 1190.905683 386.598937 
L 1191.725451 380.076034 
L 1192.545219 384.360801 
L 1193.364988 369.65667 
L 1194.184756 369.647525 
L 1195.004525 382.419002 
L 1195.824293 386.360394 
L 1196.644062 386.537813 
L 1197.46383 386.490995 
L 1198.283599 386.588071 
L 1199.103367 385.767573 
L 1199.923136 364.019474 
L 1200.742904 377.573969 
L 1201.562673 386.310663 
L 1202.382441 386.52071 
L 1204.021978 386.645846 
L 1204.841746 341.837114 
L 1205.661515 282.109928 
L 1206.481283 356.004159 
L 1207.301052 386.221728 
L 1208.12082 375.625085 
L 1208.940589 334.215395 
L 1209.760357 369.161271 
L 1210.580126 386.236608 
L 1211.399894 386.47902 
L 1213.8592 386.650573 
L 1214.678968 372.369361 
L 1215.498737 380.151378 
L 1216.318505 385.938308 
L 1217.138273 291.689546 
L 1217.958042 347.471429 
L 1218.77781 384.004503 
L 1219.597579 386.367658 
L 1221.237116 386.595918 
L 1225.335958 386.69224 
L 1229.4348 386.711405 
L 1230.254569 378.357344 
L 1231.074337 383.911562 
L 1231.894106 384.32305 
L 1232.713874 385.906155 
L 1233.533643 386.699727 
L 1235.992948 386.711405 
L 1236.812717 385.644098 
L 1237.632485 386.355636 
L 1238.452254 386.711405 
L 1244.190633 386.711405 
L 1245.010401 331.905197 
L 1245.83017 361.164285 
L 1246.649938 384.672507 
L 1247.469707 386.343829 
L 1249.109244 386.556756 
L 1249.929012 378.993788 
L 1250.748781 331.646216 
L 1251.568549 367.548393 
L 1252.388318 386.177078 
L 1253.208086 386.425884 
L 1255.667391 386.610908 
L 1260.586002 386.679849 
L 1261.405771 365.106295 
L 1262.225539 378.052331 
L 1263.045308 386.242995 
L 1264.684845 386.530407 
L 1267.963918 386.645951 
L 1268.783687 373.108421 
L 1269.603455 381.547736 
L 1270.423224 386.374695 
L 1271.242992 386.497117 
L 1272.062761 364.914846 
L 1273.702298 383.653459 
L 1274.522066 332.76408 
L 1275.341835 166.378762 
L 1276.161603 316.55802 
L 1276.981372 385.614634 
L 1277.80114 386.376385 
L 1278.620909 287.7992 
L 1279.440677 319.245926 
L 1280.260445 374.312639 
L 1281.080214 386.18709 
L 1281.080214 386.18709 
" style="fill:none;stroke:#1f77b4;stroke-linecap:square;stroke-width:1.5;"/>
   </g>
   <g id="patch_13">
    <path d="M 967.764706 400.189091 
L 967.764706 103.68 
" style="fill:none;stroke:#000000;stroke-linecap:square;stroke-linejoin:miter;stroke-width:0.8;"/>
   </g>
   <g id="patch_14">
    <path d="M 1296 400.189091 
L 1296 103.68 
" style="fill:none;stroke:#000000;stroke-linecap:square;stroke-linejoin:miter;stroke-width:0.8;"/>
   </g>
   <g id="patch_15">
    <path d="M 967.764706 400.189091 
L 1296 400.189091 
" style="fill:none;stroke:#000000;stroke-linecap:square;stroke-linejoin:miter;stroke-width:0.8;"/>
   </g>
   <g id="patch_16">
    <path d="M 967.764706 103.68 
L 1296 103.68 
" style="fill:none;stroke:#000000;stroke-linecap:square;stroke-linejoin:miter;stroke-width:0.8;"/>
   </g>
   <g id="text_30">
    <!-- 06:00:00 -->
    <g transform="translate(1104.934853 97.68)scale(0.12 -0.12)">
     <use xlink:href="#DejaVuSans-48"/>
     <use x="63.623047" xlink:href="#DejaVuSans-54"/>
     <use x="127.246094" xlink:href="#DejaVuSans-58"/>
     <use x="160.9375" xlink:href="#DejaVuSans-48"/>
     <use x="224.560547" xlink:href="#DejaVuSans-48"/>
     <use x="288.183594" xlink:href="#DejaVuSans-58"/>
     <use x="321.875" xlink:href="#DejaVuSans-48"/>
     <use x="385.498047" xlink:href="#DejaVuSans-48"/>
    </g>
   </g>
  </g>
  <g id="axes_4">
   <g id="patch_17">
    <path d="M 180 756 
L 508.235294 756 
L 508.235294 459.490909 
L 180 459.490909 
z
" style="fill:#ffffff;"/>
   </g>
   <g id="matplotlib.axis_7">
    <g id="xtick_22">
     <g id="line2d_43">
      <g>
       <use style="stroke:#000000;stroke-width:0.8;" x="194.919786" xlink:href="#mb6c0bae329" y="756"/>
      </g>
     </g>
     <g id="text_31">
      <!-- 2014-01 -->
      <g transform="translate(174.02838 770.598437)scale(0.1 -0.1)">
       <use xlink:href="#DejaVuSans-50"/>
       <use x="63.623047" xlink:href="#DejaVuSans-48"/>
       <use x="127.246094" xlink:href="#DejaVuSans-49"/>
       <use x="190.869141" xlink:href="#DejaVuSans-52"/>
       <use x="254.492188" xlink:href="#DejaVuSans-45"/>
       <use x="290.576172" xlink:href="#DejaVuSans-48"/>
       <use x="354.199219" xlink:href="#DejaVuSans-49"/>
      </g>
     </g>
    </g>
    <g id="xtick_23">
     <g id="line2d_44">
      <g>
       <use style="stroke:#000000;stroke-width:0.8;" x="243.286126" xlink:href="#mb6c0bae329" y="756"/>
      </g>
     </g>
     <g id="text_32">
      <!-- 2014-03 -->
      <g transform="translate(222.394719 770.598437)scale(0.1 -0.1)">
       <use xlink:href="#DejaVuSans-50"/>
       <use x="63.623047" xlink:href="#DejaVuSans-48"/>
       <use x="127.246094" xlink:href="#DejaVuSans-49"/>
       <use x="190.869141" xlink:href="#DejaVuSans-52"/>
       <use x="254.492188" xlink:href="#DejaVuSans-45"/>
       <use x="290.576172" xlink:href="#DejaVuSans-48"/>
       <use x="354.199219" xlink:href="#DejaVuSans-51"/>
      </g>
     </g>
    </g>
    <g id="xtick_24">
     <g id="line2d_45">
      <g>
       <use style="stroke:#000000;stroke-width:0.8;" x="293.292002" xlink:href="#mb6c0bae329" y="756"/>
      </g>
     </g>
     <g id="text_33">
      <!-- 2014-05 -->
      <g transform="translate(272.400596 770.598437)scale(0.1 -0.1)">
       <use xlink:href="#DejaVuSans-50"/>
       <use x="63.623047" xlink:href="#DejaVuSans-48"/>
       <use x="127.246094" xlink:href="#DejaVuSans-49"/>
       <use x="190.869141" xlink:href="#DejaVuSans-52"/>
       <use x="254.492188" xlink:href="#DejaVuSans-45"/>
       <use x="290.576172" xlink:href="#DejaVuSans-48"/>
       <use x="354.199219" xlink:href="#DejaVuSans-53"/>
      </g>
     </g>
    </g>
    <g id="xtick_25">
     <g id="line2d_46">
      <g>
       <use style="stroke:#000000;stroke-width:0.8;" x="343.297879" xlink:href="#mb6c0bae329" y="756"/>
      </g>
     </g>
     <g id="text_34">
      <!-- 2014-07 -->
      <g transform="translate(322.406472 770.598437)scale(0.1 -0.1)">
       <use xlink:href="#DejaVuSans-50"/>
       <use x="63.623047" xlink:href="#DejaVuSans-48"/>
       <use x="127.246094" xlink:href="#DejaVuSans-49"/>
       <use x="190.869141" xlink:href="#DejaVuSans-52"/>
       <use x="254.492188" xlink:href="#DejaVuSans-45"/>
       <use x="290.576172" xlink:href="#DejaVuSans-48"/>
       <use x="354.199219" xlink:href="#DejaVuSans-55"/>
      </g>
     </g>
    </g>
    <g id="xtick_26">
     <g id="line2d_47">
      <g>
       <use style="stroke:#000000;stroke-width:0.8;" x="394.123524" xlink:href="#mb6c0bae329" y="756"/>
      </g>
     </g>
     <g id="text_35">
      <!-- 2014-09 -->
      <g transform="translate(373.232117 770.598437)scale(0.1 -0.1)">
       <use xlink:href="#DejaVuSans-50"/>
       <use x="63.623047" xlink:href="#DejaVuSans-48"/>
       <use x="127.246094" xlink:href="#DejaVuSans-49"/>
       <use x="190.869141" xlink:href="#DejaVuSans-52"/>
       <use x="254.492188" xlink:href="#DejaVuSans-45"/>
       <use x="290.576172" xlink:href="#DejaVuSans-48"/>
       <use x="354.199219" xlink:href="#DejaVuSans-57"/>
      </g>
     </g>
    </g>
    <g id="xtick_27">
     <g id="line2d_48">
      <g>
       <use style="stroke:#000000;stroke-width:0.8;" x="444.1294" xlink:href="#mb6c0bae329" y="756"/>
      </g>
     </g>
     <g id="text_36">
      <!-- 2014-11 -->
      <g transform="translate(423.237994 770.598437)scale(0.1 -0.1)">
       <use xlink:href="#DejaVuSans-50"/>
       <use x="63.623047" xlink:href="#DejaVuSans-48"/>
       <use x="127.246094" xlink:href="#DejaVuSans-49"/>
       <use x="190.869141" xlink:href="#DejaVuSans-52"/>
       <use x="254.492188" xlink:href="#DejaVuSans-45"/>
       <use x="290.576172" xlink:href="#DejaVuSans-49"/>
       <use x="354.199219" xlink:href="#DejaVuSans-49"/>
      </g>
     </g>
    </g>
    <g id="xtick_28">
     <g id="line2d_49">
      <g>
       <use style="stroke:#000000;stroke-width:0.8;" x="494.135276" xlink:href="#mb6c0bae329" y="756"/>
      </g>
     </g>
     <g id="text_37">
      <!-- 2015-01 -->
      <g transform="translate(473.24387 770.598437)scale(0.1 -0.1)">
       <use xlink:href="#DejaVuSans-50"/>
       <use x="63.623047" xlink:href="#DejaVuSans-48"/>
       <use x="127.246094" xlink:href="#DejaVuSans-49"/>
       <use x="190.869141" xlink:href="#DejaVuSans-53"/>
       <use x="254.492188" xlink:href="#DejaVuSans-45"/>
       <use x="290.576172" xlink:href="#DejaVuSans-48"/>
       <use x="354.199219" xlink:href="#DejaVuSans-49"/>
      </g>
     </g>
    </g>
   </g>
   <g id="matplotlib.axis_8">
    <g id="ytick_19">
     <g id="line2d_50">
      <g>
       <use style="stroke:#000000;stroke-width:0.8;" x="180" xlink:href="#mfbab95374b" y="742.522314"/>
      </g>
     </g>
     <g id="text_38">
      <!-- 0.00 -->
      <g transform="translate(150.734375 746.321533)scale(0.1 -0.1)">
       <use xlink:href="#DejaVuSans-48"/>
       <use x="63.623047" xlink:href="#DejaVuSans-46"/>
       <use x="95.410156" xlink:href="#DejaVuSans-48"/>
       <use x="159.033203" xlink:href="#DejaVuSans-48"/>
      </g>
     </g>
    </g>
    <g id="ytick_20">
     <g id="line2d_51">
      <g>
       <use style="stroke:#000000;stroke-width:0.8;" x="180" xlink:href="#mfbab95374b" y="691.130863"/>
      </g>
     </g>
     <g id="text_39">
      <!-- 0.02 -->
      <g transform="translate(150.734375 694.930082)scale(0.1 -0.1)">
       <use xlink:href="#DejaVuSans-48"/>
       <use x="63.623047" xlink:href="#DejaVuSans-46"/>
       <use x="95.410156" xlink:href="#DejaVuSans-48"/>
       <use x="159.033203" xlink:href="#DejaVuSans-50"/>
      </g>
     </g>
    </g>
    <g id="ytick_21">
     <g id="line2d_52">
      <g>
       <use style="stroke:#000000;stroke-width:0.8;" x="180" xlink:href="#mfbab95374b" y="639.739412"/>
      </g>
     </g>
     <g id="text_40">
      <!-- 0.04 -->
      <g transform="translate(150.734375 643.538631)scale(0.1 -0.1)">
       <use xlink:href="#DejaVuSans-48"/>
       <use x="63.623047" xlink:href="#DejaVuSans-46"/>
       <use x="95.410156" xlink:href="#DejaVuSans-48"/>
       <use x="159.033203" xlink:href="#DejaVuSans-52"/>
      </g>
     </g>
    </g>
    <g id="ytick_22">
     <g id="line2d_53">
      <g>
       <use style="stroke:#000000;stroke-width:0.8;" x="180" xlink:href="#mfbab95374b" y="588.347961"/>
      </g>
     </g>
     <g id="text_41">
      <!-- 0.06 -->
      <g transform="translate(150.734375 592.14718)scale(0.1 -0.1)">
       <use xlink:href="#DejaVuSans-48"/>
       <use x="63.623047" xlink:href="#DejaVuSans-46"/>
       <use x="95.410156" xlink:href="#DejaVuSans-48"/>
       <use x="159.033203" xlink:href="#DejaVuSans-54"/>
      </g>
     </g>
    </g>
    <g id="ytick_23">
     <g id="line2d_54">
      <g>
       <use style="stroke:#000000;stroke-width:0.8;" x="180" xlink:href="#mfbab95374b" y="536.95651"/>
      </g>
     </g>
     <g id="text_42">
      <!-- 0.08 -->
      <g transform="translate(150.734375 540.755729)scale(0.1 -0.1)">
       <use xlink:href="#DejaVuSans-48"/>
       <use x="63.623047" xlink:href="#DejaVuSans-46"/>
       <use x="95.410156" xlink:href="#DejaVuSans-48"/>
       <use x="159.033203" xlink:href="#DejaVuSans-56"/>
      </g>
     </g>
    </g>
    <g id="ytick_24">
     <g id="line2d_55">
      <g>
       <use style="stroke:#000000;stroke-width:0.8;" x="180" xlink:href="#mfbab95374b" y="485.565059"/>
      </g>
     </g>
     <g id="text_43">
      <!-- 0.10 -->
      <g transform="translate(150.734375 489.364278)scale(0.1 -0.1)">
       <use xlink:href="#DejaVuSans-48"/>
       <use x="63.623047" xlink:href="#DejaVuSans-46"/>
       <use x="95.410156" xlink:href="#DejaVuSans-49"/>
       <use x="159.033203" xlink:href="#DejaVuSans-48"/>
      </g>
     </g>
    </g>
   </g>
   <g id="line2d_56">
    <path clip-path="url(#pda740bf250)" d="M 194.919786 742.20534 
L 195.739555 722.845614 
L 196.559323 713.477953 
L 197.379091 734.523823 
L 198.19886 742.037423 
L 199.018628 737.880688 
L 199.838397 737.684194 
L 200.658165 742.243124 
L 201.477934 742.335794 
L 202.297702 733.393953 
L 203.937239 647.900125 
L 204.757008 686.733969 
L 205.576776 717.388423 
L 206.396545 716.556891 
L 207.216313 741.140906 
L 208.036082 741.392049 
L 208.85585 742.303319 
L 212.134924 742.449969 
L 216.233766 742.493014 
L 217.053535 737.726215 
L 217.873303 737.670362 
L 218.693072 742.453795 
L 221.152377 742.487127 
L 221.972146 722.12459 
L 222.791914 717.638845 
L 223.611682 695.980099 
L 224.431451 696.513995 
L 225.251219 741.952695 
L 226.070988 742.241695 
L 227.710525 742.404703 
L 228.530293 710.069736 
L 229.350062 630.15959 
L 230.16983 645.520262 
L 230.989599 723.3079 
L 231.809367 733.100462 
L 232.629136 732.277395 
L 233.448904 742.064007 
L 234.268673 741.462557 
L 235.088441 741.526047 
L 235.908209 742.392007 
L 236.727978 677.476835 
L 237.547746 676.791435 
L 238.367515 741.943716 
L 239.187283 742.239075 
L 240.007052 742.347959 
L 240.82682 734.855124 
L 241.646589 732.096152 
L 242.466357 739.84264 
L 243.286126 741.539142 
L 244.105894 741.639782 
L 244.925663 735.653416 
L 246.5652 730.020731 
L 247.384968 731.929971 
L 248.204736 712.753812 
L 249.024505 711.811209 
L 249.844273 742.008737 
L 250.664042 742.283432 
L 251.48381 742.384664 
L 252.303579 706.730022 
L 253.123347 704.94171 
L 253.943116 742.000825 
L 254.762884 742.281114 
L 256.402421 623.020876 
L 258.041958 736.010396 
L 258.861727 741.107851 
L 259.681495 742.264931 
L 261.321032 742.430972 
L 262.1408 725.994739 
L 262.960569 723.325574 
L 263.780337 742.041139 
L 264.600106 742.293217 
L 265.419874 696.596042 
L 266.239643 594.749686 
L 267.059411 640.128177 
L 267.87918 741.97791 
L 268.698948 742.283448 
L 271.158254 742.467981 
L 271.978022 729.483344 
L 272.79779 696.576907 
L 273.617559 605.532305 
L 274.437327 608.701972 
L 275.257096 712.439886 
L 276.076864 741.232514 
L 276.896633 742.284301 
L 278.53617 742.460653 
L 279.355938 742.487636 
L 280.175707 663.55328 
L 280.995475 660.282686 
L 281.815244 739.306713 
L 282.635012 736.408192 
L 283.454781 673.04812 
L 284.274549 677.820721 
L 285.094317 741.188454 
L 285.914086 742.278955 
L 286.733854 738.914428 
L 287.553623 738.86113 
L 288.373391 739.882862 
L 289.19316 739.885089 
L 290.012928 742.462255 
L 290.832697 740.917783 
L 291.652465 652.265734 
L 292.472234 644.175069 
L 293.292002 721.2426 
L 294.111771 730.206118 
L 294.931539 742.173586 
L 295.751308 742.38862 
L 298.210613 742.5079 
L 299.85015 742.522314 
L 300.669918 703.087495 
L 301.489687 691.535156 
L 302.309455 735.349378 
L 303.129224 739.496081 
L 303.948992 740.424578 
L 304.768761 621.545868 
L 305.588529 620.995861 
L 306.408298 742.089861 
L 307.228066 742.366021 
L 308.867603 742.489147 
L 314.605982 742.522314 
L 315.425751 718.910358 
L 316.245519 691.068206 
L 317.065288 714.045755 
L 317.885056 726.300126 
L 318.704825 718.094042 
L 319.524593 731.711744 
L 320.344362 740.638335 
L 321.16413 742.316207 
L 322.803667 742.480733 
L 324.443204 670.677423 
L 326.082741 738.392636 
L 326.902509 710.378157 
L 327.722278 671.034861 
L 328.542046 703.08248 
L 329.361815 742.111067 
L 330.181583 742.371105 
L 331.82112 742.489867 
L 332.640889 735.824777 
L 333.460657 735.689867 
L 334.280425 741.243623 
L 335.100194 741.255421 
L 335.919962 741.947334 
L 336.739731 740.580586 
L 337.559499 713.864397 
L 338.379268 711.299244 
L 339.199036 740.292649 
L 340.018805 737.599329 
L 340.838573 691.903819 
L 341.658342 687.571989 
L 342.47811 731.430354 
L 343.297879 740.448177 
L 344.117647 742.302266 
L 344.937416 735.039054 
L 345.757184 734.5518 
L 346.576952 742.306478 
L 348.216489 742.475507 
L 349.856026 742.509849 
L 350.675795 718.758334 
L 351.495563 708.067139 
L 352.315332 735.441708 
L 353.1351 742.205992 
L 353.954869 742.392553 
L 354.774637 742.273392 
L 355.594406 733.857119 
L 356.414174 733.476666 
L 357.233943 742.301438 
L 358.053711 728.026501 
L 358.873479 686.176263 
L 359.693248 684.113876 
L 360.513016 719.811234 
L 361.332785 735.63806 
L 362.152553 739.829619 
L 362.972322 741.823639 
L 363.79209 741.903462 
L 364.611859 742.4424 
L 367.890933 742.522314 
L 371.989775 742.522314 
L 372.809543 738.32424 
L 373.629312 738.32424 
L 374.44908 741.597315 
L 375.268849 741.597315 
L 376.088617 638.166534 
L 376.908386 635.79865 
L 377.728154 740.270293 
L 378.547923 742.264678 
L 380.18746 742.461009 
L 381.826997 742.503727 
L 383.466533 681.056548 
L 385.10607 737.322665 
L 385.925839 742.212392 
L 387.565376 742.389283 
L 388.385144 740.923027 
L 389.204913 740.931049 
L 390.024681 742.488858 
L 392.483987 742.522314 
L 393.303755 716.908771 
L 394.123524 711.302414 
L 394.943292 741.179916 
L 395.76306 742.253745 
L 396.582829 727.343338 
L 397.402597 724.919364 
L 398.222366 741.8011 
L 399.042134 741.526405 
L 399.861903 717.804432 
L 400.681671 716.682848 
L 401.50144 742.039306 
L 402.321208 742.305338 
L 403.140977 742.402398 
L 403.960745 738.078717 
L 404.780514 737.98016 
L 405.600282 731.194637 
L 406.420051 722.953786 
L 407.239819 734.867307 
L 408.059587 742.134877 
L 408.879356 742.335579 
L 410.518893 742.357967 
L 411.338661 741.871702 
L 412.15843 727.1599 
L 412.978198 725.484471 
L 413.797967 742.076776 
L 414.617735 742.316671 
L 416.257272 742.452888 
L 417.077041 712.643872 
L 417.896809 651.13427 
L 418.716578 682.906298 
L 419.536346 741.976877 
L 420.356114 735.068248 
L 421.175883 702.011561 
L 421.995651 709.055385 
L 422.81542 741.9946 
L 423.635188 742.273003 
L 425.274725 742.428162 
L 426.094494 742.458665 
L 426.914262 732.972074 
L 427.734031 731.523478 
L 428.553799 741.358487 
L 429.373568 678.100427 
L 430.193336 673.635134 
L 431.013105 737.893305 
L 431.832873 742.147495 
L 433.47241 742.400509 
L 437.571252 742.502383 
L 441.670095 742.522314 
L 442.489863 736.95453 
L 443.309632 736.937999 
L 444.1294 740.925713 
L 444.949168 740.925212 
L 445.768937 742.510408 
L 448.228242 742.522314 
L 449.048011 741.810776 
L 449.867779 741.810776 
L 450.687548 742.522314 
L 456.425927 742.522314 
L 457.245695 707.322071 
L 458.065464 698.446056 
L 458.885232 739.169668 
L 459.705001 742.127377 
L 461.344538 742.361272 
L 462.164306 737.348541 
L 462.984075 701.527347 
L 463.803843 705.919026 
L 464.623612 741.933984 
L 465.44338 742.219212 
L 467.082917 742.3838 
L 472.001528 742.484386 
L 472.821296 742.490127 
L 473.641065 728.213012 
L 474.460833 726.359662 
L 475.280602 742.01276 
L 476.10037 742.239486 
L 478.559676 742.417297 
L 480.199213 742.455214 
L 481.018981 733.459998 
L 481.838749 732.803104 
L 482.658518 742.163047 
L 483.478286 742.297749 
L 484.298055 728.08956 
L 485.117823 723.730455 
L 485.937592 738.763525 
L 486.75736 705.197238 
L 487.577129 571.410699 
L 488.396897 606.060805 
L 489.216666 740.93187 
L 490.036434 742.164938 
L 490.856203 675.578321 
L 491.675971 653.072586 
L 492.49574 719.283427 
L 493.315508 741.947239 
L 493.315508 741.947239 
" style="fill:none;stroke:#1f77b4;stroke-linecap:square;stroke-width:1.5;"/>
   </g>
   <g id="patch_18">
    <path d="M 180 756 
L 180 459.490909 
" style="fill:none;stroke:#000000;stroke-linecap:square;stroke-linejoin:miter;stroke-width:0.8;"/>
   </g>
   <g id="patch_19">
    <path d="M 508.235294 756 
L 508.235294 459.490909 
" style="fill:none;stroke:#000000;stroke-linecap:square;stroke-linejoin:miter;stroke-width:0.8;"/>
   </g>
   <g id="patch_20">
    <path d="M 180 756 
L 508.235294 756 
" style="fill:none;stroke:#000000;stroke-linecap:square;stroke-linejoin:miter;stroke-width:0.8;"/>
   </g>
   <g id="patch_21">
    <path d="M 180 459.490909 
L 508.235294 459.490909 
" style="fill:none;stroke:#000000;stroke-linecap:square;stroke-linejoin:miter;stroke-width:0.8;"/>
   </g>
   <g id="text_44">
    <!-- 12:00:00 -->
    <g transform="translate(317.170147 453.490909)scale(0.12 -0.12)">
     <use xlink:href="#DejaVuSans-49"/>
     <use x="63.623047" xlink:href="#DejaVuSans-50"/>
     <use x="127.246094" xlink:href="#DejaVuSans-58"/>
     <use x="160.9375" xlink:href="#DejaVuSans-48"/>
     <use x="224.560547" xlink:href="#DejaVuSans-48"/>
     <use x="288.183594" xlink:href="#DejaVuSans-58"/>
     <use x="321.875" xlink:href="#DejaVuSans-48"/>
     <use x="385.498047" xlink:href="#DejaVuSans-48"/>
    </g>
   </g>
  </g>
  <g id="axes_5">
   <g id="patch_22">
    <path d="M 573.882353 756 
L 902.117647 756 
L 902.117647 459.490909 
L 573.882353 459.490909 
z
" style="fill:#ffffff;"/>
   </g>
   <g id="matplotlib.axis_9">
    <g id="xtick_29">
     <g id="line2d_57">
      <g>
       <use style="stroke:#000000;stroke-width:0.8;" x="588.802139" xlink:href="#mb6c0bae329" y="756"/>
      </g>
     </g>
     <g id="text_45">
      <!-- 2014-01 -->
      <g transform="translate(567.910733 770.598437)scale(0.1 -0.1)">
       <use xlink:href="#DejaVuSans-50"/>
       <use x="63.623047" xlink:href="#DejaVuSans-48"/>
       <use x="127.246094" xlink:href="#DejaVuSans-49"/>
       <use x="190.869141" xlink:href="#DejaVuSans-52"/>
       <use x="254.492188" xlink:href="#DejaVuSans-45"/>
       <use x="290.576172" xlink:href="#DejaVuSans-48"/>
       <use x="354.199219" xlink:href="#DejaVuSans-49"/>
      </g>
     </g>
    </g>
    <g id="xtick_30">
     <g id="line2d_58">
      <g>
       <use style="stroke:#000000;stroke-width:0.8;" x="637.168479" xlink:href="#mb6c0bae329" y="756"/>
      </g>
     </g>
     <g id="text_46">
      <!-- 2014-03 -->
      <g transform="translate(616.277072 770.598437)scale(0.1 -0.1)">
       <use xlink:href="#DejaVuSans-50"/>
       <use x="63.623047" xlink:href="#DejaVuSans-48"/>
       <use x="127.246094" xlink:href="#DejaVuSans-49"/>
       <use x="190.869141" xlink:href="#DejaVuSans-52"/>
       <use x="254.492188" xlink:href="#DejaVuSans-45"/>
       <use x="290.576172" xlink:href="#DejaVuSans-48"/>
       <use x="354.199219" xlink:href="#DejaVuSans-51"/>
      </g>
     </g>
    </g>
    <g id="xtick_31">
     <g id="line2d_59">
      <g>
       <use style="stroke:#000000;stroke-width:0.8;" x="687.174355" xlink:href="#mb6c0bae329" y="756"/>
      </g>
     </g>
     <g id="text_47">
      <!-- 2014-05 -->
      <g transform="translate(666.282949 770.598437)scale(0.1 -0.1)">
       <use xlink:href="#DejaVuSans-50"/>
       <use x="63.623047" xlink:href="#DejaVuSans-48"/>
       <use x="127.246094" xlink:href="#DejaVuSans-49"/>
       <use x="190.869141" xlink:href="#DejaVuSans-52"/>
       <use x="254.492188" xlink:href="#DejaVuSans-45"/>
       <use x="290.576172" xlink:href="#DejaVuSans-48"/>
       <use x="354.199219" xlink:href="#DejaVuSans-53"/>
      </g>
     </g>
    </g>
    <g id="xtick_32">
     <g id="line2d_60">
      <g>
       <use style="stroke:#000000;stroke-width:0.8;" x="737.180232" xlink:href="#mb6c0bae329" y="756"/>
      </g>
     </g>
     <g id="text_48">
      <!-- 2014-07 -->
      <g transform="translate(716.288825 770.598437)scale(0.1 -0.1)">
       <use xlink:href="#DejaVuSans-50"/>
       <use x="63.623047" xlink:href="#DejaVuSans-48"/>
       <use x="127.246094" xlink:href="#DejaVuSans-49"/>
       <use x="190.869141" xlink:href="#DejaVuSans-52"/>
       <use x="254.492188" xlink:href="#DejaVuSans-45"/>
       <use x="290.576172" xlink:href="#DejaVuSans-48"/>
       <use x="354.199219" xlink:href="#DejaVuSans-55"/>
      </g>
     </g>
    </g>
    <g id="xtick_33">
     <g id="line2d_61">
      <g>
       <use style="stroke:#000000;stroke-width:0.8;" x="788.005876" xlink:href="#mb6c0bae329" y="756"/>
      </g>
     </g>
     <g id="text_49">
      <!-- 2014-09 -->
      <g transform="translate(767.11447 770.598437)scale(0.1 -0.1)">
       <use xlink:href="#DejaVuSans-50"/>
       <use x="63.623047" xlink:href="#DejaVuSans-48"/>
       <use x="127.246094" xlink:href="#DejaVuSans-49"/>
       <use x="190.869141" xlink:href="#DejaVuSans-52"/>
       <use x="254.492188" xlink:href="#DejaVuSans-45"/>
       <use x="290.576172" xlink:href="#DejaVuSans-48"/>
       <use x="354.199219" xlink:href="#DejaVuSans-57"/>
      </g>
     </g>
    </g>
    <g id="xtick_34">
     <g id="line2d_62">
      <g>
       <use style="stroke:#000000;stroke-width:0.8;" x="838.011753" xlink:href="#mb6c0bae329" y="756"/>
      </g>
     </g>
     <g id="text_50">
      <!-- 2014-11 -->
      <g transform="translate(817.120347 770.598437)scale(0.1 -0.1)">
       <use xlink:href="#DejaVuSans-50"/>
       <use x="63.623047" xlink:href="#DejaVuSans-48"/>
       <use x="127.246094" xlink:href="#DejaVuSans-49"/>
       <use x="190.869141" xlink:href="#DejaVuSans-52"/>
       <use x="254.492188" xlink:href="#DejaVuSans-45"/>
       <use x="290.576172" xlink:href="#DejaVuSans-49"/>
       <use x="354.199219" xlink:href="#DejaVuSans-49"/>
      </g>
     </g>
    </g>
    <g id="xtick_35">
     <g id="line2d_63">
      <g>
       <use style="stroke:#000000;stroke-width:0.8;" x="888.017629" xlink:href="#mb6c0bae329" y="756"/>
      </g>
     </g>
     <g id="text_51">
      <!-- 2015-01 -->
      <g transform="translate(867.126223 770.598437)scale(0.1 -0.1)">
       <use xlink:href="#DejaVuSans-50"/>
       <use x="63.623047" xlink:href="#DejaVuSans-48"/>
       <use x="127.246094" xlink:href="#DejaVuSans-49"/>
       <use x="190.869141" xlink:href="#DejaVuSans-53"/>
       <use x="254.492188" xlink:href="#DejaVuSans-45"/>
       <use x="290.576172" xlink:href="#DejaVuSans-48"/>
       <use x="354.199219" xlink:href="#DejaVuSans-49"/>
      </g>
     </g>
    </g>
   </g>
   <g id="matplotlib.axis_10">
    <g id="ytick_25">
     <g id="line2d_64">
      <g>
       <use style="stroke:#000000;stroke-width:0.8;" x="573.882353" xlink:href="#mfbab95374b" y="742.522314"/>
      </g>
     </g>
    </g>
    <g id="ytick_26">
     <g id="line2d_65">
      <g>
       <use style="stroke:#000000;stroke-width:0.8;" x="573.882353" xlink:href="#mfbab95374b" y="691.130863"/>
      </g>
     </g>
    </g>
    <g id="ytick_27">
     <g id="line2d_66">
      <g>
       <use style="stroke:#000000;stroke-width:0.8;" x="573.882353" xlink:href="#mfbab95374b" y="639.739412"/>
      </g>
     </g>
    </g>
    <g id="ytick_28">
     <g id="line2d_67">
      <g>
       <use style="stroke:#000000;stroke-width:0.8;" x="573.882353" xlink:href="#mfbab95374b" y="588.347961"/>
      </g>
     </g>
    </g>
    <g id="ytick_29">
     <g id="line2d_68">
      <g>
       <use style="stroke:#000000;stroke-width:0.8;" x="573.882353" xlink:href="#mfbab95374b" y="536.95651"/>
      </g>
     </g>
    </g>
    <g id="ytick_30">
     <g id="line2d_69">
      <g>
       <use style="stroke:#000000;stroke-width:0.8;" x="573.882353" xlink:href="#mfbab95374b" y="485.565059"/>
      </g>
     </g>
    </g>
   </g>
   <g id="line2d_70">
    <path clip-path="url(#p7a8a64c6a8)" d="M 588.802139 742.165478 
L 589.621908 742.298416 
L 590.441676 699.829011 
L 591.261444 727.467529 
L 592.081213 741.953108 
L 592.900981 742.217723 
L 593.72075 733.257461 
L 594.540518 742.211108 
L 596.180055 742.37688 
L 596.999824 723.1654 
L 597.819592 663.403435 
L 598.639361 632.396739 
L 599.459129 741.787701 
L 600.278898 691.90755 
L 601.098666 741.826117 
L 601.918435 740.562667 
L 602.738203 742.282104 
L 605.197508 742.426663 
L 610.935888 742.496305 
L 611.755656 732.898709 
L 612.575425 742.45025 
L 615.854498 742.493221 
L 616.674267 695.835423 
L 617.494035 740.029897 
L 618.313804 651.895984 
L 619.133572 741.828692 
L 619.953341 742.203405 
L 621.592878 742.394323 
L 622.412646 742.431462 
L 623.232415 674.453492 
L 624.052183 585.865811 
L 624.871952 705.298799 
L 625.69172 741.883032 
L 626.511489 722.961742 
L 627.331257 741.978229 
L 628.151025 742.246452 
L 628.970794 740.703833 
L 629.790562 742.380012 
L 630.610331 742.422674 
L 631.430099 612.496152 
L 632.249868 741.816361 
L 633.069636 742.200211 
L 634.709173 742.393541 
L 635.528942 726.583252 
L 636.34871 737.670177 
L 637.168479 742.169312 
L 637.988247 740.948581 
L 638.808016 742.375526 
L 639.627784 728.354464 
L 640.447552 737.009841 
L 641.267321 722.293372 
L 642.087089 741.993961 
L 642.906858 682.375532 
L 643.726626 741.891107 
L 644.546395 742.247089 
L 646.185932 742.426211 
L 647.0057 668.674618 
L 647.825469 741.880276 
L 648.645237 742.244257 
L 649.465006 742.366571 
L 650.284774 614.81433 
L 651.104543 631.228102 
L 651.924311 732.164264 
L 652.744079 740.129988 
L 653.563848 742.224396 
L 655.203385 742.421039 
L 656.023153 742.456175 
L 656.842922 705.258655 
L 657.66269 741.935141 
L 658.482459 742.259014 
L 659.302227 742.373063 
L 660.121996 650.336419 
L 660.941764 539.164102 
L 661.761533 741.848734 
L 662.581301 742.236222 
L 663.40107 742.388142 
L 664.220838 742.299999 
L 665.040606 742.460116 
L 665.860375 742.487312 
L 666.680143 714.338537 
L 667.499912 678.746806 
L 668.31968 532.317804 
L 669.139449 685.111488 
L 669.959217 740.403141 
L 670.778986 742.237218 
L 672.418523 742.451595 
L 674.05806 742.499626 
L 674.877828 584.592643 
L 675.697597 736.681126 
L 676.517365 742.176274 
L 677.337133 730.055571 
L 678.156902 616.038171 
L 678.97667 740.328739 
L 679.796439 742.230446 
L 680.616207 742.386107 
L 681.435976 735.357559 
L 682.255744 742.41011 
L 683.075513 737.341527 
L 683.895281 742.453461 
L 684.71505 742.483796 
L 685.534818 739.350395 
L 686.354587 565.180402 
L 687.174355 723.606627 
L 687.994124 718.800136 
L 688.813892 742.081032 
L 689.63366 742.361043 
L 691.273197 742.488056 
L 694.552271 742.522314 
L 695.37204 652.957085 
L 696.191808 730.656409 
L 697.011577 740.345335 
L 697.831345 738.673845 
L 698.651114 742.312551 
L 699.470882 500.779185 
L 700.290651 741.965616 
L 701.110419 742.332783 
L 702.749956 742.483263 
L 708.488335 742.522314 
L 709.308104 742.522314 
L 710.127872 693.256263 
L 710.947641 688.737447 
L 711.767409 739.975968 
L 712.587178 711.767717 
L 714.226714 739.187585 
L 715.046483 742.269635 
L 716.68602 742.473283 
L 717.505788 742.498375 
L 718.325557 666.993402 
L 719.145325 674.36288 
L 719.965094 734.861905 
L 720.784862 742.195839 
L 721.604631 677.231897 
L 722.424399 664.836577 
L 723.244168 741.995428 
L 724.063936 742.339265 
L 725.703473 742.48414 
L 726.523241 742.503502 
L 727.34301 729.032226 
L 728.162778 742.357868 
L 728.982547 740.104492 
L 729.802315 742.44422 
L 730.622084 741.452444 
L 731.441852 739.708277 
L 732.261621 684.667826 
L 733.081389 738.551532 
L 733.901158 742.243877 
L 734.720926 732.622309 
L 735.540695 651.137256 
L 736.360463 724.406812 
L 737.180232 738.828779 
L 738 742.254025 
L 738.819768 742.407208 
L 739.639537 727.024776 
L 740.459305 742.259413 
L 742.098842 742.467561 
L 744.558148 742.522314 
L 745.377916 687.446499 
L 746.197685 729.112761 
L 747.017453 742.128265 
L 747.837222 742.367417 
L 748.65699 742.449888 
L 749.476759 742.099285 
L 750.296527 724.887986 
L 751.116295 742.252963 
L 751.936064 742.406842 
L 752.755832 710.245717 
L 753.575601 662.09672 
L 754.395369 706.226667 
L 755.215138 733.850271 
L 756.034906 737.598772 
L 756.854675 742.250646 
L 757.674443 741.423035 
L 758.494212 742.428066 
L 761.773286 742.522314 
L 766.691896 742.522314 
L 767.511665 734.126167 
L 768.331433 742.522314 
L 769.151202 740.672315 
L 769.97097 742.522314 
L 770.790739 533.798579 
L 771.610507 738.544987 
L 772.430276 742.210154 
L 774.069813 742.451485 
L 776.529118 742.510328 
L 777.348886 672.714043 
L 778.168655 689.411 
L 778.988423 732.80583 
L 779.808192 742.142305 
L 780.62796 742.36094 
L 782.267497 742.453261 
L 783.087266 739.391775 
L 783.907034 742.483935 
L 787.186108 742.522314 
L 788.005876 682.912324 
L 788.825645 740.325408 
L 789.645413 742.206351 
L 790.465182 742.360267 
L 791.28495 708.856292 
L 792.104719 741.507995 
L 792.924487 742.237656 
L 793.744256 740.842172 
L 794.564024 692.056607 
L 795.383793 741.925361 
L 796.203561 742.270265 
L 797.843098 742.441506 
L 798.662867 733.594837 
L 799.482635 742.403653 
L 800.302403 717.922469 
L 801.122172 728.044792 
L 801.94194 742.053561 
L 802.761709 742.307032 
L 803.581477 742.402707 
L 804.401246 742.275199 
L 805.221014 742.458135 
L 806.040783 741.286269 
L 806.860551 709.496483 
L 807.68032 741.976174 
L 808.500088 742.284104 
L 810.139625 742.444671 
L 810.959394 742.473637 
L 811.779162 677.586487 
L 812.59893 624.681755 
L 813.418699 741.851049 
L 814.238467 742.229829 
L 815.058236 727.010179 
L 815.878004 676.892201 
L 816.697773 741.875368 
L 817.517541 742.236129 
L 819.157078 742.418541 
L 820.796615 742.474107 
L 821.616384 722.627459 
L 822.436152 740.566361 
L 823.255921 742.257422 
L 824.075689 613.929237 
L 824.895457 733.989986 
L 825.715226 742.078595 
L 826.534994 742.297387 
L 828.9943 742.46239 
L 836.372216 742.522314 
L 837.191984 731.369005 
L 838.011753 742.509215 
L 838.831521 739.341494 
L 839.65129 742.509943 
L 842.930364 742.522314 
L 843.750132 741.099238 
L 844.569901 742.522314 
L 851.128048 742.522314 
L 851.947817 661.033293 
L 852.767585 736.502304 
L 853.587354 742.067092 
L 855.226891 742.347743 
L 856.046659 742.395845 
L 856.866428 732.050364 
L 857.686196 670.695965 
L 858.505965 741.812413 
L 859.325733 742.181004 
L 860.96527 742.373098 
L 865.064112 742.475288 
L 867.523418 742.493762 
L 868.343186 711.223213 
L 869.162955 741.920932 
L 869.982723 742.206917 
L 871.62226 742.375141 
L 874.901334 742.464542 
L 875.721102 723.667712 
L 876.540871 742.113659 
L 878.180408 742.352023 
L 879.000176 710.584319 
L 879.819945 737.339686 
L 880.639713 740.349923 
L 881.459482 669.852804 
L 882.27925 472.968595 
L 883.099019 739.920744 
L 883.918787 742.116006 
L 884.738556 742.276723 
L 885.558324 608.870901 
L 886.378092 697.334825 
L 887.197861 741.833198 
L 887.197861 741.833198 
" style="fill:none;stroke:#1f77b4;stroke-linecap:square;stroke-width:1.5;"/>
   </g>
   <g id="patch_23">
    <path d="M 573.882353 756 
L 573.882353 459.490909 
" style="fill:none;stroke:#000000;stroke-linecap:square;stroke-linejoin:miter;stroke-width:0.8;"/>
   </g>
   <g id="patch_24">
    <path d="M 902.117647 756 
L 902.117647 459.490909 
" style="fill:none;stroke:#000000;stroke-linecap:square;stroke-linejoin:miter;stroke-width:0.8;"/>
   </g>
   <g id="patch_25">
    <path d="M 573.882353 756 
L 902.117647 756 
" style="fill:none;stroke:#000000;stroke-linecap:square;stroke-linejoin:miter;stroke-width:0.8;"/>
   </g>
   <g id="patch_26">
    <path d="M 573.882353 459.490909 
L 902.117647 459.490909 
" style="fill:none;stroke:#000000;stroke-linecap:square;stroke-linejoin:miter;stroke-width:0.8;"/>
   </g>
   <g id="text_52">
    <!-- 24:00:00 -->
    <g transform="translate(711.0525 453.490909)scale(0.12 -0.12)">
     <use xlink:href="#DejaVuSans-50"/>
     <use x="63.623047" xlink:href="#DejaVuSans-52"/>
     <use x="127.246094" xlink:href="#DejaVuSans-58"/>
     <use x="160.9375" xlink:href="#DejaVuSans-48"/>
     <use x="224.560547" xlink:href="#DejaVuSans-48"/>
     <use x="288.183594" xlink:href="#DejaVuSans-58"/>
     <use x="321.875" xlink:href="#DejaVuSans-48"/>
     <use x="385.498047" xlink:href="#DejaVuSans-48"/>
    </g>
   </g>
  </g>
  <g id="text_53">
   <!-- Evaporation_infiltration - Rain Garden -->
   <defs>
    <path d="M 9.8125 72.90625 
L 55.90625 72.90625 
L 55.90625 64.59375 
L 19.671875 64.59375 
L 19.671875 43.015625 
L 54.390625 43.015625 
L 54.390625 34.71875 
L 19.671875 34.71875 
L 19.671875 8.296875 
L 56.78125 8.296875 
L 56.78125 0 
L 9.8125 0 
z
" id="DejaVuSans-69"/>
    <path d="M 2.984375 54.6875 
L 12.5 54.6875 
L 29.59375 8.796875 
L 46.6875 54.6875 
L 56.203125 54.6875 
L 35.6875 0 
L 23.484375 0 
z
" id="DejaVuSans-118"/>
    <path d="M 34.28125 27.484375 
Q 23.390625 27.484375 19.1875 25 
Q 14.984375 22.515625 14.984375 16.5 
Q 14.984375 11.71875 18.140625 8.90625 
Q 21.296875 6.109375 26.703125 6.109375 
Q 34.1875 6.109375 38.703125 11.40625 
Q 43.21875 16.703125 43.21875 25.484375 
L 43.21875 27.484375 
z
M 52.203125 31.203125 
L 52.203125 0 
L 43.21875 0 
L 43.21875 8.296875 
Q 40.140625 3.328125 35.546875 0.953125 
Q 30.953125 -1.421875 24.3125 -1.421875 
Q 15.921875 -1.421875 10.953125 3.296875 
Q 6 8.015625 6 15.921875 
Q 6 25.140625 12.171875 29.828125 
Q 18.359375 34.515625 30.609375 34.515625 
L 43.21875 34.515625 
L 43.21875 35.40625 
Q 43.21875 41.609375 39.140625 45 
Q 35.0625 48.390625 27.6875 48.390625 
Q 23 48.390625 18.546875 47.265625 
Q 14.109375 46.140625 10.015625 43.890625 
L 10.015625 52.203125 
Q 14.9375 54.109375 19.578125 55.046875 
Q 24.21875 56 28.609375 56 
Q 40.484375 56 46.34375 49.84375 
Q 52.203125 43.703125 52.203125 31.203125 
z
" id="DejaVuSans-97"/>
    <path d="M 18.109375 8.203125 
L 18.109375 -20.796875 
L 9.078125 -20.796875 
L 9.078125 54.6875 
L 18.109375 54.6875 
L 18.109375 46.390625 
Q 20.953125 51.265625 25.265625 53.625 
Q 29.59375 56 35.59375 56 
Q 45.5625 56 51.78125 48.09375 
Q 58.015625 40.1875 58.015625 27.296875 
Q 58.015625 14.40625 51.78125 6.484375 
Q 45.5625 -1.421875 35.59375 -1.421875 
Q 29.59375 -1.421875 25.265625 0.953125 
Q 20.953125 3.328125 18.109375 8.203125 
z
M 48.6875 27.296875 
Q 48.6875 37.203125 44.609375 42.84375 
Q 40.53125 48.484375 33.40625 48.484375 
Q 26.265625 48.484375 22.1875 42.84375 
Q 18.109375 37.203125 18.109375 27.296875 
Q 18.109375 17.390625 22.1875 11.75 
Q 26.265625 6.109375 33.40625 6.109375 
Q 40.53125 6.109375 44.609375 11.75 
Q 48.6875 17.390625 48.6875 27.296875 
z
" id="DejaVuSans-112"/>
    <path d="M 30.609375 48.390625 
Q 23.390625 48.390625 19.1875 42.75 
Q 14.984375 37.109375 14.984375 27.296875 
Q 14.984375 17.484375 19.15625 11.84375 
Q 23.34375 6.203125 30.609375 6.203125 
Q 37.796875 6.203125 41.984375 11.859375 
Q 46.1875 17.53125 46.1875 27.296875 
Q 46.1875 37.015625 41.984375 42.703125 
Q 37.796875 48.390625 30.609375 48.390625 
z
M 30.609375 56 
Q 42.328125 56 49.015625 48.375 
Q 55.71875 40.765625 55.71875 27.296875 
Q 55.71875 13.875 49.015625 6.21875 
Q 42.328125 -1.421875 30.609375 -1.421875 
Q 18.84375 -1.421875 12.171875 6.21875 
Q 5.515625 13.875 5.515625 27.296875 
Q 5.515625 40.765625 12.171875 48.375 
Q 18.84375 56 30.609375 56 
z
" id="DejaVuSans-111"/>
    <path d="M 41.109375 46.296875 
Q 39.59375 47.171875 37.8125 47.578125 
Q 36.03125 48 33.890625 48 
Q 26.265625 48 22.1875 43.046875 
Q 18.109375 38.09375 18.109375 28.8125 
L 18.109375 0 
L 9.078125 0 
L 9.078125 54.6875 
L 18.109375 54.6875 
L 18.109375 46.1875 
Q 20.953125 51.171875 25.484375 53.578125 
Q 30.03125 56 36.53125 56 
Q 37.453125 56 38.578125 55.875 
Q 39.703125 55.765625 41.0625 55.515625 
z
" id="DejaVuSans-114"/>
    <path d="M 18.3125 70.21875 
L 18.3125 54.6875 
L 36.8125 54.6875 
L 36.8125 47.703125 
L 18.3125 47.703125 
L 18.3125 18.015625 
Q 18.3125 11.328125 20.140625 9.421875 
Q 21.96875 7.515625 27.59375 7.515625 
L 36.8125 7.515625 
L 36.8125 0 
L 27.59375 0 
Q 17.1875 0 13.234375 3.875 
Q 9.28125 7.765625 9.28125 18.015625 
L 9.28125 47.703125 
L 2.6875 47.703125 
L 2.6875 54.6875 
L 9.28125 54.6875 
L 9.28125 70.21875 
z
" id="DejaVuSans-116"/>
    <path d="M 9.421875 54.6875 
L 18.40625 54.6875 
L 18.40625 0 
L 9.421875 0 
z
M 9.421875 75.984375 
L 18.40625 75.984375 
L 18.40625 64.59375 
L 9.421875 64.59375 
z
" id="DejaVuSans-105"/>
    <path d="M 54.890625 33.015625 
L 54.890625 0 
L 45.90625 0 
L 45.90625 32.71875 
Q 45.90625 40.484375 42.875 44.328125 
Q 39.84375 48.1875 33.796875 48.1875 
Q 26.515625 48.1875 22.3125 43.546875 
Q 18.109375 38.921875 18.109375 30.90625 
L 18.109375 0 
L 9.078125 0 
L 9.078125 54.6875 
L 18.109375 54.6875 
L 18.109375 46.1875 
Q 21.34375 51.125 25.703125 53.5625 
Q 30.078125 56 35.796875 56 
Q 45.21875 56 50.046875 50.171875 
Q 54.890625 44.34375 54.890625 33.015625 
z
" id="DejaVuSans-110"/>
    <path d="M 50.984375 -16.609375 
L 50.984375 -23.578125 
L -0.984375 -23.578125 
L -0.984375 -16.609375 
z
" id="DejaVuSans-95"/>
    <path d="M 37.109375 75.984375 
L 37.109375 68.5 
L 28.515625 68.5 
Q 23.6875 68.5 21.796875 66.546875 
Q 19.921875 64.59375 19.921875 59.515625 
L 19.921875 54.6875 
L 34.71875 54.6875 
L 34.71875 47.703125 
L 19.921875 47.703125 
L 19.921875 0 
L 10.890625 0 
L 10.890625 47.703125 
L 2.296875 47.703125 
L 2.296875 54.6875 
L 10.890625 54.6875 
L 10.890625 58.5 
Q 10.890625 67.625 15.140625 71.796875 
Q 19.390625 75.984375 28.609375 75.984375 
z
" id="DejaVuSans-102"/>
    <path d="M 9.421875 75.984375 
L 18.40625 75.984375 
L 18.40625 0 
L 9.421875 0 
z
" id="DejaVuSans-108"/>
    <path id="DejaVuSans-32"/>
    <path d="M 44.390625 34.1875 
Q 47.5625 33.109375 50.5625 29.59375 
Q 53.5625 26.078125 56.59375 19.921875 
L 66.609375 0 
L 56 0 
L 46.6875 18.703125 
Q 43.0625 26.03125 39.671875 28.421875 
Q 36.28125 30.8125 30.421875 30.8125 
L 19.671875 30.8125 
L 19.671875 0 
L 9.8125 0 
L 9.8125 72.90625 
L 32.078125 72.90625 
Q 44.578125 72.90625 50.734375 67.671875 
Q 56.890625 62.453125 56.890625 51.90625 
Q 56.890625 45.015625 53.6875 40.46875 
Q 50.484375 35.9375 44.390625 34.1875 
z
M 19.671875 64.796875 
L 19.671875 38.921875 
L 32.078125 38.921875 
Q 39.203125 38.921875 42.84375 42.21875 
Q 46.484375 45.515625 46.484375 51.90625 
Q 46.484375 58.296875 42.84375 61.546875 
Q 39.203125 64.796875 32.078125 64.796875 
z
" id="DejaVuSans-82"/>
    <path d="M 59.515625 10.40625 
L 59.515625 29.984375 
L 43.40625 29.984375 
L 43.40625 38.09375 
L 69.28125 38.09375 
L 69.28125 6.78125 
Q 63.578125 2.734375 56.6875 0.65625 
Q 49.8125 -1.421875 42 -1.421875 
Q 24.90625 -1.421875 15.25 8.5625 
Q 5.609375 18.5625 5.609375 36.375 
Q 5.609375 54.25 15.25 64.234375 
Q 24.90625 74.21875 42 74.21875 
Q 49.125 74.21875 55.546875 72.453125 
Q 61.96875 70.703125 67.390625 67.28125 
L 67.390625 56.78125 
Q 61.921875 61.421875 55.765625 63.765625 
Q 49.609375 66.109375 42.828125 66.109375 
Q 29.4375 66.109375 22.71875 58.640625 
Q 16.015625 51.171875 16.015625 36.375 
Q 16.015625 21.625 22.71875 14.15625 
Q 29.4375 6.6875 42.828125 6.6875 
Q 48.046875 6.6875 52.140625 7.59375 
Q 56.25 8.5 59.515625 10.40625 
z
" id="DejaVuSans-71"/>
    <path d="M 45.40625 46.390625 
L 45.40625 75.984375 
L 54.390625 75.984375 
L 54.390625 0 
L 45.40625 0 
L 45.40625 8.203125 
Q 42.578125 3.328125 38.25 0.953125 
Q 33.9375 -1.421875 27.875 -1.421875 
Q 17.96875 -1.421875 11.734375 6.484375 
Q 5.515625 14.40625 5.515625 27.296875 
Q 5.515625 40.1875 11.734375 48.09375 
Q 17.96875 56 27.875 56 
Q 33.9375 56 38.25 53.625 
Q 42.578125 51.265625 45.40625 46.390625 
z
M 14.796875 27.296875 
Q 14.796875 17.390625 18.875 11.75 
Q 22.953125 6.109375 30.078125 6.109375 
Q 37.203125 6.109375 41.296875 11.75 
Q 45.40625 17.390625 45.40625 27.296875 
Q 45.40625 37.203125 41.296875 42.84375 
Q 37.203125 48.484375 30.078125 48.484375 
Q 22.953125 48.484375 18.875 42.84375 
Q 14.796875 37.203125 14.796875 27.296875 
z
" id="DejaVuSans-100"/>
    <path d="M 56.203125 29.59375 
L 56.203125 25.203125 
L 14.890625 25.203125 
Q 15.484375 15.921875 20.484375 11.0625 
Q 25.484375 6.203125 34.421875 6.203125 
Q 39.59375 6.203125 44.453125 7.46875 
Q 49.3125 8.734375 54.109375 11.28125 
L 54.109375 2.78125 
Q 49.265625 0.734375 44.1875 -0.34375 
Q 39.109375 -1.421875 33.890625 -1.421875 
Q 20.796875 -1.421875 13.15625 6.1875 
Q 5.515625 13.8125 5.515625 26.8125 
Q 5.515625 40.234375 12.765625 48.109375 
Q 20.015625 56 32.328125 56 
Q 43.359375 56 49.78125 48.890625 
Q 56.203125 41.796875 56.203125 29.59375 
z
M 47.21875 32.234375 
Q 47.125 39.59375 43.09375 43.984375 
Q 39.0625 48.390625 32.421875 48.390625 
Q 24.90625 48.390625 20.390625 44.140625 
Q 15.875 39.890625 15.1875 32.171875 
z
" id="DejaVuSans-101"/>
   </defs>
   <g transform="translate(549.999844 30.957187)scale(0.18 -0.18)">
    <use xlink:href="#DejaVuSans-69"/>
    <use x="63.183594" xlink:href="#DejaVuSans-118"/>
    <use x="122.363281" xlink:href="#DejaVuSans-97"/>
    <use x="183.642578" xlink:href="#DejaVuSans-112"/>
    <use x="247.119141" xlink:href="#DejaVuSans-111"/>
    <use x="308.300781" xlink:href="#DejaVuSans-114"/>
    <use x="349.414062" xlink:href="#DejaVuSans-97"/>
    <use x="410.693359" xlink:href="#DejaVuSans-116"/>
    <use x="449.902344" xlink:href="#DejaVuSans-105"/>
    <use x="477.685547" xlink:href="#DejaVuSans-111"/>
    <use x="538.867188" xlink:href="#DejaVuSans-110"/>
    <use x="602.246094" xlink:href="#DejaVuSans-95"/>
    <use x="652.246094" xlink:href="#DejaVuSans-105"/>
    <use x="680.029297" xlink:href="#DejaVuSans-110"/>
    <use x="743.408203" xlink:href="#DejaVuSans-102"/>
    <use x="778.613281" xlink:href="#DejaVuSans-105"/>
    <use x="806.396484" xlink:href="#DejaVuSans-108"/>
    <use x="834.179688" xlink:href="#DejaVuSans-116"/>
    <use x="873.388672" xlink:href="#DejaVuSans-114"/>
    <use x="914.501953" xlink:href="#DejaVuSans-97"/>
    <use x="975.78125" xlink:href="#DejaVuSans-116"/>
    <use x="1014.990234" xlink:href="#DejaVuSans-105"/>
    <use x="1042.773438" xlink:href="#DejaVuSans-111"/>
    <use x="1103.955078" xlink:href="#DejaVuSans-110"/>
    <use x="1167.333984" xlink:href="#DejaVuSans-32"/>
    <use x="1199.121094" xlink:href="#DejaVuSans-45"/>
    <use x="1235.205078" xlink:href="#DejaVuSans-32"/>
    <use x="1266.992188" xlink:href="#DejaVuSans-82"/>
    <use x="1336.443359" xlink:href="#DejaVuSans-97"/>
    <use x="1397.722656" xlink:href="#DejaVuSans-105"/>
    <use x="1425.505859" xlink:href="#DejaVuSans-110"/>
    <use x="1488.884766" xlink:href="#DejaVuSans-32"/>
    <use x="1520.671875" xlink:href="#DejaVuSans-71"/>
    <use x="1598.162109" xlink:href="#DejaVuSans-97"/>
    <use x="1659.441406" xlink:href="#DejaVuSans-114"/>
    <use x="1700.539062" xlink:href="#DejaVuSans-100"/>
    <use x="1764.015625" xlink:href="#DejaVuSans-101"/>
    <use x="1825.539062" xlink:href="#DejaVuSans-110"/>
   </g>
  </g>
 </g>
 <defs>
  <clipPath id="pd302ee731a">
   <rect height="296.509091" width="328.235294" x="180" y="103.68"/>
  </clipPath>
  <clipPath id="p0780c03634">
   <rect height="296.509091" width="328.235294" x="573.882353" y="103.68"/>
  </clipPath>
  <clipPath id="pdd91f21950">
   <rect height="296.509091" width="328.235294" x="967.764706" y="103.68"/>
  </clipPath>
  <clipPath id="pda740bf250">
   <rect height="296.509091" width="328.235294" x="180" y="459.490909"/>
  </clipPath>
  <clipPath id="p7a8a64c6a8">
   <rect height="296.509091" width="328.235294" x="573.882353" y="459.490909"/>
  </clipPath>
 </defs>
</svg>
