<?xml version="1.0" encoding="utf-8" standalone="no"?>
<!DOCTYPE svg PUBLIC "-//W3C//DTD SVG 1.1//EN"
  "http://www.w3.org/Graphics/SVG/1.1/DTD/svg11.dtd">
<!-- Created with matplotlib (https://matplotlib.org/) -->
<svg height="864pt" version="1.1" viewBox="0 0 1440 864" width="1440pt" xmlns="http://www.w3.org/2000/svg" xmlns:xlink="http://www.w3.org/1999/xlink">
 <defs>
  <style type="text/css">
*{stroke-linecap:butt;stroke-linejoin:round;}
  </style>
 </defs>
 <g id="figure_1">
  <g id="patch_1">
   <path d="M 0 864 
L 1440 864 
L 1440 0 
L 0 0 
z
" style="fill:#ffffff;"/>
  </g>
  <g id="axes_1">
   <g id="patch_2">
    <path d="M 180 400.189091 
L 508.235294 400.189091 
L 508.235294 103.68 
L 180 103.68 
z
" style="fill:#ffffff;"/>
   </g>
   <g id="matplotlib.axis_1">
    <g id="xtick_1">
     <g id="line2d_1">
      <defs>
       <path d="M 0 0 
L 0 3.5 
" id="m004a0d1c0e" style="stroke:#000000;stroke-width:0.8;"/>
      </defs>
      <g>
       <use style="stroke:#000000;stroke-width:0.8;" x="194.919786" xlink:href="#m004a0d1c0e" y="400.189091"/>
      </g>
     </g>
     <g id="text_1">
      <!-- 2014-01 -->
      <defs>
       <path d="M 19.1875 8.296875 
L 53.609375 8.296875 
L 53.609375 0 
L 7.328125 0 
L 7.328125 8.296875 
Q 12.9375 14.109375 22.625 23.890625 
Q 32.328125 33.6875 34.8125 36.53125 
Q 39.546875 41.84375 41.421875 45.53125 
Q 43.3125 49.21875 43.3125 52.78125 
Q 43.3125 58.59375 39.234375 62.25 
Q 35.15625 65.921875 28.609375 65.921875 
Q 23.96875 65.921875 18.8125 64.3125 
Q 13.671875 62.703125 7.8125 59.421875 
L 7.8125 69.390625 
Q 13.765625 71.78125 18.9375 73 
Q 24.125 74.21875 28.421875 74.21875 
Q 39.75 74.21875 46.484375 68.546875 
Q 53.21875 62.890625 53.21875 53.421875 
Q 53.21875 48.921875 51.53125 44.890625 
Q 49.859375 40.875 45.40625 35.40625 
Q 44.1875 33.984375 37.640625 27.21875 
Q 31.109375 20.453125 19.1875 8.296875 
z
" id="DejaVuSans-50"/>
       <path d="M 31.78125 66.40625 
Q 24.171875 66.40625 20.328125 58.90625 
Q 16.5 51.421875 16.5 36.375 
Q 16.5 21.390625 20.328125 13.890625 
Q 24.171875 6.390625 31.78125 6.390625 
Q 39.453125 6.390625 43.28125 13.890625 
Q 47.125 21.390625 47.125 36.375 
Q 47.125 51.421875 43.28125 58.90625 
Q 39.453125 66.40625 31.78125 66.40625 
z
M 31.78125 74.21875 
Q 44.046875 74.21875 50.515625 64.515625 
Q 56.984375 54.828125 56.984375 36.375 
Q 56.984375 17.96875 50.515625 8.265625 
Q 44.046875 -1.421875 31.78125 -1.421875 
Q 19.53125 -1.421875 13.0625 8.265625 
Q 6.59375 17.96875 6.59375 36.375 
Q 6.59375 54.828125 13.0625 64.515625 
Q 19.53125 74.21875 31.78125 74.21875 
z
" id="DejaVuSans-48"/>
       <path d="M 12.40625 8.296875 
L 28.515625 8.296875 
L 28.515625 63.921875 
L 10.984375 60.40625 
L 10.984375 69.390625 
L 28.421875 72.90625 
L 38.28125 72.90625 
L 38.28125 8.296875 
L 54.390625 8.296875 
L 54.390625 0 
L 12.40625 0 
z
" id="DejaVuSans-49"/>
       <path d="M 37.796875 64.3125 
L 12.890625 25.390625 
L 37.796875 25.390625 
z
M 35.203125 72.90625 
L 47.609375 72.90625 
L 47.609375 25.390625 
L 58.015625 25.390625 
L 58.015625 17.1875 
L 47.609375 17.1875 
L 47.609375 0 
L 37.796875 0 
L 37.796875 17.1875 
L 4.890625 17.1875 
L 4.890625 26.703125 
z
" id="DejaVuSans-52"/>
       <path d="M 4.890625 31.390625 
L 31.203125 31.390625 
L 31.203125 23.390625 
L 4.890625 23.390625 
z
" id="DejaVuSans-45"/>
      </defs>
      <g transform="translate(174.02838 414.787528)scale(0.1 -0.1)">
       <use xlink:href="#DejaVuSans-50"/>
       <use x="63.623047" xlink:href="#DejaVuSans-48"/>
       <use x="127.246094" xlink:href="#DejaVuSans-49"/>
       <use x="190.869141" xlink:href="#DejaVuSans-52"/>
       <use x="254.492188" xlink:href="#DejaVuSans-45"/>
       <use x="290.576172" xlink:href="#DejaVuSans-48"/>
       <use x="354.199219" xlink:href="#DejaVuSans-49"/>
      </g>
     </g>
    </g>
    <g id="xtick_2">
     <g id="line2d_2">
      <g>
       <use style="stroke:#000000;stroke-width:0.8;" x="243.286126" xlink:href="#m004a0d1c0e" y="400.189091"/>
      </g>
     </g>
     <g id="text_2">
      <!-- 2014-03 -->
      <defs>
       <path d="M 40.578125 39.3125 
Q 47.65625 37.796875 51.625 33 
Q 55.609375 28.21875 55.609375 21.1875 
Q 55.609375 10.40625 48.1875 4.484375 
Q 40.765625 -1.421875 27.09375 -1.421875 
Q 22.515625 -1.421875 17.65625 -0.515625 
Q 12.796875 0.390625 7.625 2.203125 
L 7.625 11.71875 
Q 11.71875 9.328125 16.59375 8.109375 
Q 21.484375 6.890625 26.8125 6.890625 
Q 36.078125 6.890625 40.9375 10.546875 
Q 45.796875 14.203125 45.796875 21.1875 
Q 45.796875 27.640625 41.28125 31.265625 
Q 36.765625 34.90625 28.71875 34.90625 
L 20.21875 34.90625 
L 20.21875 43.015625 
L 29.109375 43.015625 
Q 36.375 43.015625 40.234375 45.921875 
Q 44.09375 48.828125 44.09375 54.296875 
Q 44.09375 59.90625 40.109375 62.90625 
Q 36.140625 65.921875 28.71875 65.921875 
Q 24.65625 65.921875 20.015625 65.03125 
Q 15.375 64.15625 9.8125 62.3125 
L 9.8125 71.09375 
Q 15.4375 72.65625 20.34375 73.4375 
Q 25.25 74.21875 29.59375 74.21875 
Q 40.828125 74.21875 47.359375 69.109375 
Q 53.90625 64.015625 53.90625 55.328125 
Q 53.90625 49.265625 50.4375 45.09375 
Q 46.96875 40.921875 40.578125 39.3125 
z
" id="DejaVuSans-51"/>
      </defs>
      <g transform="translate(222.394719 414.787528)scale(0.1 -0.1)">
       <use xlink:href="#DejaVuSans-50"/>
       <use x="63.623047" xlink:href="#DejaVuSans-48"/>
       <use x="127.246094" xlink:href="#DejaVuSans-49"/>
       <use x="190.869141" xlink:href="#DejaVuSans-52"/>
       <use x="254.492188" xlink:href="#DejaVuSans-45"/>
       <use x="290.576172" xlink:href="#DejaVuSans-48"/>
       <use x="354.199219" xlink:href="#DejaVuSans-51"/>
      </g>
     </g>
    </g>
    <g id="xtick_3">
     <g id="line2d_3">
      <g>
       <use style="stroke:#000000;stroke-width:0.8;" x="293.292002" xlink:href="#m004a0d1c0e" y="400.189091"/>
      </g>
     </g>
     <g id="text_3">
      <!-- 2014-05 -->
      <defs>
       <path d="M 10.796875 72.90625 
L 49.515625 72.90625 
L 49.515625 64.59375 
L 19.828125 64.59375 
L 19.828125 46.734375 
Q 21.96875 47.46875 24.109375 47.828125 
Q 26.265625 48.1875 28.421875 48.1875 
Q 40.625 48.1875 47.75 41.5 
Q 54.890625 34.8125 54.890625 23.390625 
Q 54.890625 11.625 47.5625 5.09375 
Q 40.234375 -1.421875 26.90625 -1.421875 
Q 22.3125 -1.421875 17.546875 -0.640625 
Q 12.796875 0.140625 7.71875 1.703125 
L 7.71875 11.625 
Q 12.109375 9.234375 16.796875 8.0625 
Q 21.484375 6.890625 26.703125 6.890625 
Q 35.15625 6.890625 40.078125 11.328125 
Q 45.015625 15.765625 45.015625 23.390625 
Q 45.015625 31 40.078125 35.4375 
Q 35.15625 39.890625 26.703125 39.890625 
Q 22.75 39.890625 18.8125 39.015625 
Q 14.890625 38.140625 10.796875 36.28125 
z
" id="DejaVuSans-53"/>
      </defs>
      <g transform="translate(272.400596 414.787528)scale(0.1 -0.1)">
       <use xlink:href="#DejaVuSans-50"/>
       <use x="63.623047" xlink:href="#DejaVuSans-48"/>
       <use x="127.246094" xlink:href="#DejaVuSans-49"/>
       <use x="190.869141" xlink:href="#DejaVuSans-52"/>
       <use x="254.492188" xlink:href="#DejaVuSans-45"/>
       <use x="290.576172" xlink:href="#DejaVuSans-48"/>
       <use x="354.199219" xlink:href="#DejaVuSans-53"/>
      </g>
     </g>
    </g>
    <g id="xtick_4">
     <g id="line2d_4">
      <g>
       <use style="stroke:#000000;stroke-width:0.8;" x="343.297879" xlink:href="#m004a0d1c0e" y="400.189091"/>
      </g>
     </g>
     <g id="text_4">
      <!-- 2014-07 -->
      <defs>
       <path d="M 8.203125 72.90625 
L 55.078125 72.90625 
L 55.078125 68.703125 
L 28.609375 0 
L 18.3125 0 
L 43.21875 64.59375 
L 8.203125 64.59375 
z
" id="DejaVuSans-55"/>
      </defs>
      <g transform="translate(322.406472 414.787528)scale(0.1 -0.1)">
       <use xlink:href="#DejaVuSans-50"/>
       <use x="63.623047" xlink:href="#DejaVuSans-48"/>
       <use x="127.246094" xlink:href="#DejaVuSans-49"/>
       <use x="190.869141" xlink:href="#DejaVuSans-52"/>
       <use x="254.492188" xlink:href="#DejaVuSans-45"/>
       <use x="290.576172" xlink:href="#DejaVuSans-48"/>
       <use x="354.199219" xlink:href="#DejaVuSans-55"/>
      </g>
     </g>
    </g>
    <g id="xtick_5">
     <g id="line2d_5">
      <g>
       <use style="stroke:#000000;stroke-width:0.8;" x="394.123524" xlink:href="#m004a0d1c0e" y="400.189091"/>
      </g>
     </g>
     <g id="text_5">
      <!-- 2014-09 -->
      <defs>
       <path d="M 10.984375 1.515625 
L 10.984375 10.5 
Q 14.703125 8.734375 18.5 7.8125 
Q 22.3125 6.890625 25.984375 6.890625 
Q 35.75 6.890625 40.890625 13.453125 
Q 46.046875 20.015625 46.78125 33.40625 
Q 43.953125 29.203125 39.59375 26.953125 
Q 35.25 24.703125 29.984375 24.703125 
Q 19.046875 24.703125 12.671875 31.3125 
Q 6.296875 37.9375 6.296875 49.421875 
Q 6.296875 60.640625 12.9375 67.421875 
Q 19.578125 74.21875 30.609375 74.21875 
Q 43.265625 74.21875 49.921875 64.515625 
Q 56.59375 54.828125 56.59375 36.375 
Q 56.59375 19.140625 48.40625 8.859375 
Q 40.234375 -1.421875 26.421875 -1.421875 
Q 22.703125 -1.421875 18.890625 -0.6875 
Q 15.09375 0.046875 10.984375 1.515625 
z
M 30.609375 32.421875 
Q 37.25 32.421875 41.125 36.953125 
Q 45.015625 41.5 45.015625 49.421875 
Q 45.015625 57.28125 41.125 61.84375 
Q 37.25 66.40625 30.609375 66.40625 
Q 23.96875 66.40625 20.09375 61.84375 
Q 16.21875 57.28125 16.21875 49.421875 
Q 16.21875 41.5 20.09375 36.953125 
Q 23.96875 32.421875 30.609375 32.421875 
z
" id="DejaVuSans-57"/>
      </defs>
      <g transform="translate(373.232117 414.787528)scale(0.1 -0.1)">
       <use xlink:href="#DejaVuSans-50"/>
       <use x="63.623047" xlink:href="#DejaVuSans-48"/>
       <use x="127.246094" xlink:href="#DejaVuSans-49"/>
       <use x="190.869141" xlink:href="#DejaVuSans-52"/>
       <use x="254.492188" xlink:href="#DejaVuSans-45"/>
       <use x="290.576172" xlink:href="#DejaVuSans-48"/>
       <use x="354.199219" xlink:href="#DejaVuSans-57"/>
      </g>
     </g>
    </g>
    <g id="xtick_6">
     <g id="line2d_6">
      <g>
       <use style="stroke:#000000;stroke-width:0.8;" x="444.1294" xlink:href="#m004a0d1c0e" y="400.189091"/>
      </g>
     </g>
     <g id="text_6">
      <!-- 2014-11 -->
      <g transform="translate(423.237994 414.787528)scale(0.1 -0.1)">
       <use xlink:href="#DejaVuSans-50"/>
       <use x="63.623047" xlink:href="#DejaVuSans-48"/>
       <use x="127.246094" xlink:href="#DejaVuSans-49"/>
       <use x="190.869141" xlink:href="#DejaVuSans-52"/>
       <use x="254.492188" xlink:href="#DejaVuSans-45"/>
       <use x="290.576172" xlink:href="#DejaVuSans-49"/>
       <use x="354.199219" xlink:href="#DejaVuSans-49"/>
      </g>
     </g>
    </g>
    <g id="xtick_7">
     <g id="line2d_7">
      <g>
       <use style="stroke:#000000;stroke-width:0.8;" x="494.135276" xlink:href="#m004a0d1c0e" y="400.189091"/>
      </g>
     </g>
     <g id="text_7">
      <!-- 2015-01 -->
      <g transform="translate(473.24387 414.787528)scale(0.1 -0.1)">
       <use xlink:href="#DejaVuSans-50"/>
       <use x="63.623047" xlink:href="#DejaVuSans-48"/>
       <use x="127.246094" xlink:href="#DejaVuSans-49"/>
       <use x="190.869141" xlink:href="#DejaVuSans-53"/>
       <use x="254.492188" xlink:href="#DejaVuSans-45"/>
       <use x="290.576172" xlink:href="#DejaVuSans-48"/>
       <use x="354.199219" xlink:href="#DejaVuSans-49"/>
      </g>
     </g>
    </g>
   </g>
   <g id="matplotlib.axis_2">
    <g id="ytick_1">
     <g id="line2d_8">
      <defs>
       <path d="M 0 0 
L -3.5 0 
" id="m8340fb397e" style="stroke:#000000;stroke-width:0.8;"/>
      </defs>
      <g>
       <use style="stroke:#000000;stroke-width:0.8;" x="180" xlink:href="#m8340fb397e" y="386.711405"/>
      </g>
     </g>
     <g id="text_8">
      <!-- 0.00 -->
      <defs>
       <path d="M 10.6875 12.40625 
L 21 12.40625 
L 21 0 
L 10.6875 0 
z
" id="DejaVuSans-46"/>
      </defs>
      <g transform="translate(150.734375 390.510624)scale(0.1 -0.1)">
       <use xlink:href="#DejaVuSans-48"/>
       <use x="63.623047" xlink:href="#DejaVuSans-46"/>
       <use x="95.410156" xlink:href="#DejaVuSans-48"/>
       <use x="159.033203" xlink:href="#DejaVuSans-48"/>
      </g>
     </g>
    </g>
    <g id="ytick_2">
     <g id="line2d_9">
      <g>
       <use style="stroke:#000000;stroke-width:0.8;" x="180" xlink:href="#m8340fb397e" y="335.329307"/>
      </g>
     </g>
     <g id="text_9">
      <!-- 0.02 -->
      <g transform="translate(150.734375 339.128526)scale(0.1 -0.1)">
       <use xlink:href="#DejaVuSans-48"/>
       <use x="63.623047" xlink:href="#DejaVuSans-46"/>
       <use x="95.410156" xlink:href="#DejaVuSans-48"/>
       <use x="159.033203" xlink:href="#DejaVuSans-50"/>
      </g>
     </g>
    </g>
    <g id="ytick_3">
     <g id="line2d_10">
      <g>
       <use style="stroke:#000000;stroke-width:0.8;" x="180" xlink:href="#m8340fb397e" y="283.94721"/>
      </g>
     </g>
     <g id="text_10">
      <!-- 0.04 -->
      <g transform="translate(150.734375 287.746428)scale(0.1 -0.1)">
       <use xlink:href="#DejaVuSans-48"/>
       <use x="63.623047" xlink:href="#DejaVuSans-46"/>
       <use x="95.410156" xlink:href="#DejaVuSans-48"/>
       <use x="159.033203" xlink:href="#DejaVuSans-52"/>
      </g>
     </g>
    </g>
    <g id="ytick_4">
     <g id="line2d_11">
      <g>
       <use style="stroke:#000000;stroke-width:0.8;" x="180" xlink:href="#m8340fb397e" y="232.565112"/>
      </g>
     </g>
     <g id="text_11">
      <!-- 0.06 -->
      <defs>
       <path d="M 33.015625 40.375 
Q 26.375 40.375 22.484375 35.828125 
Q 18.609375 31.296875 18.609375 23.390625 
Q 18.609375 15.53125 22.484375 10.953125 
Q 26.375 6.390625 33.015625 6.390625 
Q 39.65625 6.390625 43.53125 10.953125 
Q 47.40625 15.53125 47.40625 23.390625 
Q 47.40625 31.296875 43.53125 35.828125 
Q 39.65625 40.375 33.015625 40.375 
z
M 52.59375 71.296875 
L 52.59375 62.3125 
Q 48.875 64.0625 45.09375 64.984375 
Q 41.3125 65.921875 37.59375 65.921875 
Q 27.828125 65.921875 22.671875 59.328125 
Q 17.53125 52.734375 16.796875 39.40625 
Q 19.671875 43.65625 24.015625 45.921875 
Q 28.375 48.1875 33.59375 48.1875 
Q 44.578125 48.1875 50.953125 41.515625 
Q 57.328125 34.859375 57.328125 23.390625 
Q 57.328125 12.15625 50.6875 5.359375 
Q 44.046875 -1.421875 33.015625 -1.421875 
Q 20.359375 -1.421875 13.671875 8.265625 
Q 6.984375 17.96875 6.984375 36.375 
Q 6.984375 53.65625 15.1875 63.9375 
Q 23.390625 74.21875 37.203125 74.21875 
Q 40.921875 74.21875 44.703125 73.484375 
Q 48.484375 72.75 52.59375 71.296875 
z
" id="DejaVuSans-54"/>
      </defs>
      <g transform="translate(150.734375 236.364331)scale(0.1 -0.1)">
       <use xlink:href="#DejaVuSans-48"/>
       <use x="63.623047" xlink:href="#DejaVuSans-46"/>
       <use x="95.410156" xlink:href="#DejaVuSans-48"/>
       <use x="159.033203" xlink:href="#DejaVuSans-54"/>
      </g>
     </g>
    </g>
    <g id="ytick_5">
     <g id="line2d_12">
      <g>
       <use style="stroke:#000000;stroke-width:0.8;" x="180" xlink:href="#m8340fb397e" y="181.183014"/>
      </g>
     </g>
     <g id="text_12">
      <!-- 0.08 -->
      <defs>
       <path d="M 31.78125 34.625 
Q 24.75 34.625 20.71875 30.859375 
Q 16.703125 27.09375 16.703125 20.515625 
Q 16.703125 13.921875 20.71875 10.15625 
Q 24.75 6.390625 31.78125 6.390625 
Q 38.8125 6.390625 42.859375 10.171875 
Q 46.921875 13.96875 46.921875 20.515625 
Q 46.921875 27.09375 42.890625 30.859375 
Q 38.875 34.625 31.78125 34.625 
z
M 21.921875 38.8125 
Q 15.578125 40.375 12.03125 44.71875 
Q 8.5 49.078125 8.5 55.328125 
Q 8.5 64.0625 14.71875 69.140625 
Q 20.953125 74.21875 31.78125 74.21875 
Q 42.671875 74.21875 48.875 69.140625 
Q 55.078125 64.0625 55.078125 55.328125 
Q 55.078125 49.078125 51.53125 44.71875 
Q 48 40.375 41.703125 38.8125 
Q 48.828125 37.15625 52.796875 32.3125 
Q 56.78125 27.484375 56.78125 20.515625 
Q 56.78125 9.90625 50.3125 4.234375 
Q 43.84375 -1.421875 31.78125 -1.421875 
Q 19.734375 -1.421875 13.25 4.234375 
Q 6.78125 9.90625 6.78125 20.515625 
Q 6.78125 27.484375 10.78125 32.3125 
Q 14.796875 37.15625 21.921875 38.8125 
z
M 18.3125 54.390625 
Q 18.3125 48.734375 21.84375 45.5625 
Q 25.390625 42.390625 31.78125 42.390625 
Q 38.140625 42.390625 41.71875 45.5625 
Q 45.3125 48.734375 45.3125 54.390625 
Q 45.3125 60.0625 41.71875 63.234375 
Q 38.140625 66.40625 31.78125 66.40625 
Q 25.390625 66.40625 21.84375 63.234375 
Q 18.3125 60.0625 18.3125 54.390625 
z
" id="DejaVuSans-56"/>
      </defs>
      <g transform="translate(150.734375 184.982233)scale(0.1 -0.1)">
       <use xlink:href="#DejaVuSans-48"/>
       <use x="63.623047" xlink:href="#DejaVuSans-46"/>
       <use x="95.410156" xlink:href="#DejaVuSans-48"/>
       <use x="159.033203" xlink:href="#DejaVuSans-56"/>
      </g>
     </g>
    </g>
    <g id="ytick_6">
     <g id="line2d_13">
      <g>
       <use style="stroke:#000000;stroke-width:0.8;" x="180" xlink:href="#m8340fb397e" y="129.800916"/>
      </g>
     </g>
     <g id="text_13">
      <!-- 0.10 -->
      <g transform="translate(150.734375 133.600135)scale(0.1 -0.1)">
       <use xlink:href="#DejaVuSans-48"/>
       <use x="63.623047" xlink:href="#DejaVuSans-46"/>
       <use x="95.410156" xlink:href="#DejaVuSans-49"/>
       <use x="159.033203" xlink:href="#DejaVuSans-48"/>
      </g>
     </g>
    </g>
   </g>
   <g id="line2d_14">
    <path clip-path="url(#p08abc9a1e0)" d="M 194.919786 386.711405 
L 195.739555 343.892988 
L 196.559323 371.750245 
L 197.379091 386.711405 
L 198.19886 386.711405 
L 199.018628 376.428242 
L 199.838397 386.711405 
L 201.477934 386.711405 
L 202.297702 365.723638 
L 203.117471 307.606906 
L 203.937239 276.546698 
L 204.757008 386.711405 
L 205.576776 336.096335 
L 206.396545 386.711405 
L 207.216313 384.857064 
L 208.036082 386.711405 
L 216.233766 386.711405 
L 217.053535 375.416784 
L 217.873303 386.711405 
L 221.152377 386.711405 
L 221.972146 339.510003 
L 222.791914 384.81492 
L 223.611682 296.101569 
L 224.431451 386.711405 
L 227.710525 386.711405 
L 228.530293 318.648669 
L 229.350062 230.019597 
L 230.16983 349.498156 
L 230.989599 386.711405 
L 231.809367 366.524377 
L 232.629136 386.711405 
L 233.448904 386.711405 
L 234.268673 384.81492 
L 235.088441 386.711405 
L 235.908209 386.711405 
L 236.727978 256.654681 
L 237.547746 386.711405 
L 240.007052 386.711405 
L 240.82682 369.010879 
L 241.646589 381.949121 
L 242.466357 386.711405 
L 243.286126 385.152073 
L 244.105894 386.711405 
L 244.925663 370.907363 
L 245.745431 381.190527 
L 246.5652 366.313655 
L 247.384968 386.711405 
L 248.204736 326.571761 
L 249.024505 386.711405 
L 251.48381 386.711405 
L 252.303579 312.874924 
L 253.123347 386.711405 
L 254.762884 386.711405 
L 255.582653 258.972619 
L 256.402421 275.493112 
L 257.22219 376.596818 
L 258.041958 384.730632 
L 258.861727 386.711405 
L 261.321032 386.711405 
L 262.1408 348.655275 
L 262.960569 386.711405 
L 264.600106 386.711405 
L 265.419874 294.542231 
L 266.239643 183.323918 
L 267.059411 386.711405 
L 268.698948 386.711405 
L 269.518717 386.584973 
L 270.338485 386.711405 
L 271.158254 386.711405 
L 272.79779 322.94737 
L 273.617559 176.496591 
L 274.437327 329.311133 
L 275.257096 385.236361 
L 276.076864 386.711405 
L 279.355938 386.711405 
L 280.175707 228.755284 
L 280.995475 381.316959 
L 281.815244 386.711405 
L 282.635012 373.141003 
L 283.454781 260.194792 
L 284.274549 385.194217 
L 285.094317 386.711405 
L 285.914086 386.711405 
L 286.733854 378.493303 
L 287.553623 386.711405 
L 288.373391 380.726942 
L 289.19316 386.711405 
L 290.012928 386.711405 
L 290.832697 383.002723 
L 291.652465 209.326851 
L 292.472234 367.872989 
L 293.292002 362.984268 
L 294.111771 386.711405 
L 299.85015 386.711405 
L 300.669918 297.155175 
L 301.489687 375.037488 
L 302.309455 384.983496 
L 303.129224 382.918435 
L 303.948992 386.711405 
L 304.768761 144.972804 
L 305.588529 386.711405 
L 314.605982 386.711405 
L 315.425751 330.786168 
L 316.245519 332.935518 
L 317.065288 384.772776 
L 317.885056 355.904063 
L 318.704825 368.842304 
L 319.524593 383.803461 
L 320.344362 386.711405 
L 322.803667 386.711405 
L 323.623435 311.189162 
L 324.443204 318.564376 
L 325.262972 379.37833 
L 326.082741 386.711405 
L 326.902509 321.430176 
L 327.722278 309.039807 
L 328.542046 386.711405 
L 331.82112 386.711405 
L 332.640889 370.907363 
L 333.460657 386.669261 
L 334.280425 384.056326 
L 335.100194 386.711405 
L 335.919962 385.53137 
L 336.739731 383.466309 
L 337.559499 328.84754 
L 338.379268 383.255588 
L 339.199036 386.711405 
L 340.018805 375.711792 
L 340.838573 295.34297 
L 341.658342 368.673725 
L 342.47811 383.424164 
L 343.297879 386.711405 
L 344.117647 386.711405 
L 344.937416 369.390177 
L 345.757184 386.711405 
L 349.856026 386.711405 
L 350.675795 331.081179 
L 351.495563 373.436011 
L 352.315332 386.711405 
L 353.954869 386.711405 
L 354.774637 386.289964 
L 355.594406 366.903674 
L 356.414174 386.711405 
L 357.233943 386.711405 
L 358.053711 353.586135 
L 358.873479 306.300439 
L 359.693248 350.425331 
L 360.513016 378.282583 
L 361.332785 381.991265 
L 362.152553 386.711405 
L 362.972322 385.657802 
L 363.79209 386.711405 
L 371.989775 386.711405 
L 372.809543 376.765396 
L 373.629312 386.711405 
L 374.44908 384.519911 
L 375.268849 386.711405 
L 376.088617 177.971641 
L 376.908386 383.297732 
L 377.728154 386.711405 
L 381.826997 386.711405 
L 382.646765 316.878619 
L 383.466533 333.609829 
L 384.286302 377.22898 
L 385.10607 386.711405 
L 387.565376 386.711405 
L 388.385144 383.087011 
L 389.204913 386.711405 
L 392.483987 386.711405 
L 393.303755 326.571761 
L 394.123524 385.152073 
L 394.943292 386.711405 
L 395.76306 386.711405 
L 396.582829 352.490387 
L 397.402597 386.374252 
L 398.222366 386.711405 
L 399.042134 384.983496 
L 399.861903 336.222758 
L 400.681671 386.711405 
L 403.140977 386.711405 
L 403.960745 376.386098 
L 404.780514 386.711405 
L 405.600282 360.624201 
L 406.420051 372.255975 
L 407.239819 386.711405 
L 408.879356 386.711405 
L 409.699124 386.542829 
L 410.518893 386.711405 
L 411.338661 385.320649 
L 412.15843 352.616823 
L 412.978198 386.711405 
L 416.257272 386.711405 
L 417.077041 321.767327 
L 417.896809 268.834333 
L 418.716578 386.711405 
L 419.536346 386.711405 
L 420.356114 369.980193 
L 421.175883 321.093031 
L 421.995651 386.711405 
L 426.094494 386.711405 
L 426.914262 364.332885 
L 427.734031 385.067785 
L 428.553799 386.711405 
L 429.373568 258.087581 
L 430.193336 378.493303 
L 431.013105 386.711405 
L 441.670095 386.711405 
L 442.489863 373.520299 
L 443.309632 386.711405 
L 444.1294 382.960579 
L 444.949168 386.711405 
L 448.228242 386.711405 
L 449.048011 385.02564 
L 449.867779 386.711405 
L 456.425927 386.711405 
L 457.245695 305.204694 
L 458.065464 381.106239 
L 458.885232 386.711405 
L 461.344538 386.711405 
L 462.164306 374.784622 
L 462.984075 314.897836 
L 463.803843 386.711405 
L 472.821296 386.711405 
L 473.641065 353.164696 
L 474.460833 386.711405 
L 480.199213 386.711405 
L 481.018981 365.512919 
L 481.838749 386.711405 
L 483.478286 386.711405 
L 484.298055 354.13401 
L 485.117823 381.906976 
L 485.937592 384.857064 
L 486.75736 314.054962 
L 487.577129 117.157686 
L 488.396897 384.772776 
L 489.216666 386.711405 
L 490.036434 386.711405 
L 490.856203 253.03029 
L 491.675971 341.53292 
L 492.49574 386.711405 
L 493.315508 386.711405 
L 493.315508 386.711405 
" style="fill:none;stroke:#1f77b4;stroke-linecap:square;stroke-width:1.5;"/>
   </g>
   <g id="patch_3">
    <path d="M 180 400.189091 
L 180 103.68 
" style="fill:none;stroke:#000000;stroke-linecap:square;stroke-linejoin:miter;stroke-width:0.8;"/>
   </g>
   <g id="patch_4">
    <path d="M 508.235294 400.189091 
L 508.235294 103.68 
" style="fill:none;stroke:#000000;stroke-linecap:square;stroke-linejoin:miter;stroke-width:0.8;"/>
   </g>
   <g id="patch_5">
    <path d="M 180 400.189091 
L 508.235294 400.189091 
" style="fill:none;stroke:#000000;stroke-linecap:square;stroke-linejoin:miter;stroke-width:0.8;"/>
   </g>
   <g id="patch_6">
    <path d="M 180 103.68 
L 508.235294 103.68 
" style="fill:none;stroke:#000000;stroke-linecap:square;stroke-linejoin:miter;stroke-width:0.8;"/>
   </g>
   <g id="text_14">
    <!-- 01:00:00 -->
    <defs>
     <path d="M 11.71875 12.40625 
L 22.015625 12.40625 
L 22.015625 0 
L 11.71875 0 
z
M 11.71875 51.703125 
L 22.015625 51.703125 
L 22.015625 39.3125 
L 11.71875 39.3125 
z
" id="DejaVuSans-58"/>
    </defs>
    <g transform="translate(317.170147 97.68)scale(0.12 -0.12)">
     <use xlink:href="#DejaVuSans-48"/>
     <use x="63.623047" xlink:href="#DejaVuSans-49"/>
     <use x="127.246094" xlink:href="#DejaVuSans-58"/>
     <use x="160.9375" xlink:href="#DejaVuSans-48"/>
     <use x="224.560547" xlink:href="#DejaVuSans-48"/>
     <use x="288.183594" xlink:href="#DejaVuSans-58"/>
     <use x="321.875" xlink:href="#DejaVuSans-48"/>
     <use x="385.498047" xlink:href="#DejaVuSans-48"/>
    </g>
   </g>
  </g>
  <g id="axes_2">
   <g id="patch_7">
    <path d="M 573.882353 400.189091 
L 902.117647 400.189091 
L 902.117647 103.68 
L 573.882353 103.68 
z
" style="fill:#ffffff;"/>
   </g>
   <g id="matplotlib.axis_3">
    <g id="xtick_8">
     <g id="line2d_15">
      <g>
       <use style="stroke:#000000;stroke-width:0.8;" x="588.802139" xlink:href="#m004a0d1c0e" y="400.189091"/>
      </g>
     </g>
     <g id="text_15">
      <!-- 2014-01 -->
      <g transform="translate(567.910733 414.787528)scale(0.1 -0.1)">
       <use xlink:href="#DejaVuSans-50"/>
       <use x="63.623047" xlink:href="#DejaVuSans-48"/>
       <use x="127.246094" xlink:href="#DejaVuSans-49"/>
       <use x="190.869141" xlink:href="#DejaVuSans-52"/>
       <use x="254.492188" xlink:href="#DejaVuSans-45"/>
       <use x="290.576172" xlink:href="#DejaVuSans-48"/>
       <use x="354.199219" xlink:href="#DejaVuSans-49"/>
      </g>
     </g>
    </g>
    <g id="xtick_9">
     <g id="line2d_16">
      <g>
       <use style="stroke:#000000;stroke-width:0.8;" x="637.168479" xlink:href="#m004a0d1c0e" y="400.189091"/>
      </g>
     </g>
     <g id="text_16">
      <!-- 2014-03 -->
      <g transform="translate(616.277072 414.787528)scale(0.1 -0.1)">
       <use xlink:href="#DejaVuSans-50"/>
       <use x="63.623047" xlink:href="#DejaVuSans-48"/>
       <use x="127.246094" xlink:href="#DejaVuSans-49"/>
       <use x="190.869141" xlink:href="#DejaVuSans-52"/>
       <use x="254.492188" xlink:href="#DejaVuSans-45"/>
       <use x="290.576172" xlink:href="#DejaVuSans-48"/>
       <use x="354.199219" xlink:href="#DejaVuSans-51"/>
      </g>
     </g>
    </g>
    <g id="xtick_10">
     <g id="line2d_17">
      <g>
       <use style="stroke:#000000;stroke-width:0.8;" x="687.174355" xlink:href="#m004a0d1c0e" y="400.189091"/>
      </g>
     </g>
     <g id="text_17">
      <!-- 2014-05 -->
      <g transform="translate(666.282949 414.787528)scale(0.1 -0.1)">
       <use xlink:href="#DejaVuSans-50"/>
       <use x="63.623047" xlink:href="#DejaVuSans-48"/>
       <use x="127.246094" xlink:href="#DejaVuSans-49"/>
       <use x="190.869141" xlink:href="#DejaVuSans-52"/>
       <use x="254.492188" xlink:href="#DejaVuSans-45"/>
       <use x="290.576172" xlink:href="#DejaVuSans-48"/>
       <use x="354.199219" xlink:href="#DejaVuSans-53"/>
      </g>
     </g>
    </g>
    <g id="xtick_11">
     <g id="line2d_18">
      <g>
       <use style="stroke:#000000;stroke-width:0.8;" x="737.180232" xlink:href="#m004a0d1c0e" y="400.189091"/>
      </g>
     </g>
     <g id="text_18">
      <!-- 2014-07 -->
      <g transform="translate(716.288825 414.787528)scale(0.1 -0.1)">
       <use xlink:href="#DejaVuSans-50"/>
       <use x="63.623047" xlink:href="#DejaVuSans-48"/>
       <use x="127.246094" xlink:href="#DejaVuSans-49"/>
       <use x="190.869141" xlink:href="#DejaVuSans-52"/>
       <use x="254.492188" xlink:href="#DejaVuSans-45"/>
       <use x="290.576172" xlink:href="#DejaVuSans-48"/>
       <use x="354.199219" xlink:href="#DejaVuSans-55"/>
      </g>
     </g>
    </g>
    <g id="xtick_12">
     <g id="line2d_19">
      <g>
       <use style="stroke:#000000;stroke-width:0.8;" x="788.005876" xlink:href="#m004a0d1c0e" y="400.189091"/>
      </g>
     </g>
     <g id="text_19">
      <!-- 2014-09 -->
      <g transform="translate(767.11447 414.787528)scale(0.1 -0.1)">
       <use xlink:href="#DejaVuSans-50"/>
       <use x="63.623047" xlink:href="#DejaVuSans-48"/>
       <use x="127.246094" xlink:href="#DejaVuSans-49"/>
       <use x="190.869141" xlink:href="#DejaVuSans-52"/>
       <use x="254.492188" xlink:href="#DejaVuSans-45"/>
       <use x="290.576172" xlink:href="#DejaVuSans-48"/>
       <use x="354.199219" xlink:href="#DejaVuSans-57"/>
      </g>
     </g>
    </g>
    <g id="xtick_13">
     <g id="line2d_20">
      <g>
       <use style="stroke:#000000;stroke-width:0.8;" x="838.011753" xlink:href="#m004a0d1c0e" y="400.189091"/>
      </g>
     </g>
     <g id="text_20">
      <!-- 2014-11 -->
      <g transform="translate(817.120347 414.787528)scale(0.1 -0.1)">
       <use xlink:href="#DejaVuSans-50"/>
       <use x="63.623047" xlink:href="#DejaVuSans-48"/>
       <use x="127.246094" xlink:href="#DejaVuSans-49"/>
       <use x="190.869141" xlink:href="#DejaVuSans-52"/>
       <use x="254.492188" xlink:href="#DejaVuSans-45"/>
       <use x="290.576172" xlink:href="#DejaVuSans-49"/>
       <use x="354.199219" xlink:href="#DejaVuSans-49"/>
      </g>
     </g>
    </g>
    <g id="xtick_14">
     <g id="line2d_21">
      <g>
       <use style="stroke:#000000;stroke-width:0.8;" x="888.017629" xlink:href="#m004a0d1c0e" y="400.189091"/>
      </g>
     </g>
     <g id="text_21">
      <!-- 2015-01 -->
      <g transform="translate(867.126223 414.787528)scale(0.1 -0.1)">
       <use xlink:href="#DejaVuSans-50"/>
       <use x="63.623047" xlink:href="#DejaVuSans-48"/>
       <use x="127.246094" xlink:href="#DejaVuSans-49"/>
       <use x="190.869141" xlink:href="#DejaVuSans-53"/>
       <use x="254.492188" xlink:href="#DejaVuSans-45"/>
       <use x="290.576172" xlink:href="#DejaVuSans-48"/>
       <use x="354.199219" xlink:href="#DejaVuSans-49"/>
      </g>
     </g>
    </g>
   </g>
   <g id="matplotlib.axis_4">
    <g id="ytick_7">
     <g id="line2d_22">
      <g>
       <use style="stroke:#000000;stroke-width:0.8;" x="573.882353" xlink:href="#m8340fb397e" y="386.711405"/>
      </g>
     </g>
    </g>
    <g id="ytick_8">
     <g id="line2d_23">
      <g>
       <use style="stroke:#000000;stroke-width:0.8;" x="573.882353" xlink:href="#m8340fb397e" y="335.329307"/>
      </g>
     </g>
    </g>
    <g id="ytick_9">
     <g id="line2d_24">
      <g>
       <use style="stroke:#000000;stroke-width:0.8;" x="573.882353" xlink:href="#m8340fb397e" y="283.94721"/>
      </g>
     </g>
    </g>
    <g id="ytick_10">
     <g id="line2d_25">
      <g>
       <use style="stroke:#000000;stroke-width:0.8;" x="573.882353" xlink:href="#m8340fb397e" y="232.565112"/>
      </g>
     </g>
    </g>
    <g id="ytick_11">
     <g id="line2d_26">
      <g>
       <use style="stroke:#000000;stroke-width:0.8;" x="573.882353" xlink:href="#m8340fb397e" y="181.183014"/>
      </g>
     </g>
    </g>
    <g id="ytick_12">
     <g id="line2d_27">
      <g>
       <use style="stroke:#000000;stroke-width:0.8;" x="573.882353" xlink:href="#m8340fb397e" y="129.800916"/>
      </g>
     </g>
    </g>
   </g>
   <g id="line2d_28">
    <path clip-path="url(#pe649431d8e)" d="M 588.802139 386.711405 
L 589.621908 343.892988 
L 590.441676 371.750245 
L 591.261444 386.711405 
L 592.081213 386.711405 
L 592.900981 376.428242 
L 593.72075 386.711405 
L 595.360287 386.711405 
L 596.180055 365.723638 
L 596.999824 307.606906 
L 597.819592 276.546698 
L 598.639361 386.711405 
L 599.459129 336.096335 
L 600.278898 386.711405 
L 601.098666 384.857064 
L 601.918435 386.711405 
L 610.116119 386.711405 
L 610.935888 375.416784 
L 611.755656 386.711405 
L 615.03473 386.711405 
L 615.854498 339.510003 
L 616.674267 384.81492 
L 617.494035 296.101569 
L 618.313804 386.711405 
L 621.592878 386.711405 
L 622.412646 318.648669 
L 623.232415 230.019597 
L 624.052183 349.498156 
L 624.871952 386.711405 
L 625.69172 366.524377 
L 626.511489 386.711405 
L 627.331257 386.711405 
L 628.151025 384.81492 
L 628.970794 386.711405 
L 629.790562 386.711405 
L 630.610331 256.654681 
L 631.430099 386.711405 
L 633.889405 386.711405 
L 634.709173 369.010879 
L 635.528942 381.949121 
L 636.34871 386.711405 
L 637.168479 385.152073 
L 637.988247 386.711405 
L 638.808016 370.907363 
L 639.627784 381.190527 
L 640.447552 366.313655 
L 641.267321 386.711405 
L 642.087089 326.571761 
L 642.906858 386.711405 
L 645.366163 386.711405 
L 646.185932 312.874924 
L 647.0057 386.711405 
L 648.645237 386.711405 
L 649.465006 258.972619 
L 650.284774 275.493112 
L 651.104543 376.596818 
L 651.924311 384.730632 
L 652.744079 386.711405 
L 655.203385 386.711405 
L 656.023153 348.655275 
L 656.842922 386.711405 
L 658.482459 386.711405 
L 659.302227 294.542231 
L 660.121996 183.323918 
L 660.941764 386.711405 
L 662.581301 386.711405 
L 663.40107 386.584973 
L 664.220838 386.711405 
L 665.040606 386.711405 
L 666.680143 322.94737 
L 667.499912 176.496591 
L 668.31968 329.311133 
L 669.139449 385.236361 
L 669.959217 386.711405 
L 673.238291 386.711405 
L 674.05806 228.755284 
L 674.877828 381.316959 
L 675.697597 386.711405 
L 676.517365 373.141003 
L 677.337133 260.194792 
L 678.156902 385.194217 
L 678.97667 386.711405 
L 679.796439 386.711405 
L 680.616207 378.493303 
L 681.435976 386.711405 
L 682.255744 380.726942 
L 683.075513 386.711405 
L 683.895281 386.711405 
L 684.71505 383.002723 
L 685.534818 209.326851 
L 686.354587 367.872989 
L 687.174355 362.984268 
L 687.994124 386.711405 
L 693.732503 386.711405 
L 694.552271 297.155175 
L 695.37204 375.037488 
L 696.191808 384.983496 
L 697.011577 382.918435 
L 697.831345 386.711405 
L 698.651114 144.972804 
L 699.470882 386.711405 
L 708.488335 386.711405 
L 709.308104 330.786168 
L 710.127872 332.935518 
L 710.947641 384.772776 
L 711.767409 355.904063 
L 712.587178 368.842304 
L 713.406946 383.803461 
L 714.226714 386.711405 
L 716.68602 386.711405 
L 717.505788 311.189162 
L 718.325557 318.564376 
L 719.145325 379.37833 
L 719.965094 386.711405 
L 720.784862 321.430176 
L 721.604631 309.039807 
L 722.424399 386.711405 
L 725.703473 386.711405 
L 726.523241 370.907363 
L 727.34301 386.669261 
L 728.162778 384.056326 
L 728.982547 386.711405 
L 729.802315 385.53137 
L 730.622084 383.466309 
L 731.441852 328.84754 
L 732.261621 383.255588 
L 733.081389 386.711405 
L 733.901158 375.711792 
L 734.720926 295.34297 
L 735.540695 368.673725 
L 736.360463 383.424164 
L 737.180232 386.711405 
L 738 386.711405 
L 738.819768 369.390177 
L 739.639537 386.711405 
L 743.738379 386.711405 
L 744.558148 331.081179 
L 745.377916 373.436011 
L 746.197685 386.711405 
L 747.837222 386.711405 
L 748.65699 386.289964 
L 749.476759 366.903674 
L 750.296527 386.711405 
L 751.116295 386.711405 
L 751.936064 353.586135 
L 752.755832 306.300439 
L 753.575601 350.425331 
L 754.395369 378.282583 
L 755.215138 381.991265 
L 756.034906 386.711405 
L 756.854675 385.657802 
L 757.674443 386.711405 
L 765.872128 386.711405 
L 766.691896 376.765396 
L 767.511665 386.711405 
L 768.331433 384.519911 
L 769.151202 386.711405 
L 769.97097 177.971641 
L 770.790739 383.297732 
L 771.610507 386.711405 
L 775.709349 386.711405 
L 776.529118 316.878619 
L 777.348886 333.609829 
L 778.168655 377.22898 
L 778.988423 386.711405 
L 781.447729 386.711405 
L 782.267497 383.087011 
L 783.087266 386.711405 
L 786.36634 386.711405 
L 787.186108 326.571761 
L 788.005876 385.152073 
L 788.825645 386.711405 
L 789.645413 386.711405 
L 790.465182 352.490387 
L 791.28495 386.374252 
L 792.104719 386.711405 
L 792.924487 384.983496 
L 793.744256 336.222758 
L 794.564024 386.711405 
L 797.02333 386.711405 
L 797.843098 376.386098 
L 798.662867 386.711405 
L 799.482635 360.624201 
L 800.302403 372.255975 
L 801.122172 386.711405 
L 802.761709 386.711405 
L 803.581477 386.542829 
L 804.401246 386.711405 
L 805.221014 385.320649 
L 806.040783 352.616823 
L 806.860551 386.711405 
L 810.139625 386.711405 
L 810.959394 321.767327 
L 811.779162 268.834333 
L 812.59893 386.711405 
L 813.418699 386.711405 
L 814.238467 369.980193 
L 815.058236 321.093031 
L 815.878004 386.711405 
L 819.976847 386.711405 
L 820.796615 364.332885 
L 821.616384 385.067785 
L 822.436152 386.711405 
L 823.255921 258.087581 
L 824.075689 378.493303 
L 824.895457 386.711405 
L 835.552448 386.711405 
L 836.372216 373.520299 
L 837.191984 386.711405 
L 838.011753 382.960579 
L 838.831521 386.711405 
L 842.110595 386.711405 
L 842.930364 385.02564 
L 843.750132 386.711405 
L 850.30828 386.711405 
L 851.128048 305.204694 
L 851.947817 381.106239 
L 852.767585 386.711405 
L 855.226891 386.711405 
L 856.046659 374.784622 
L 856.866428 314.897836 
L 857.686196 386.711405 
L 866.703649 386.711405 
L 867.523418 353.164696 
L 868.343186 386.711405 
L 874.081565 386.711405 
L 874.901334 365.512919 
L 875.721102 386.711405 
L 877.360639 386.711405 
L 878.180408 354.13401 
L 879.000176 381.906976 
L 879.819945 384.857064 
L 880.639713 314.054962 
L 881.459482 117.157686 
L 882.27925 384.772776 
L 883.099019 386.711405 
L 883.918787 386.711405 
L 884.738556 253.03029 
L 885.558324 341.53292 
L 886.378092 386.711405 
L 887.197861 386.711405 
L 887.197861 386.711405 
" style="fill:none;stroke:#1f77b4;stroke-linecap:square;stroke-width:1.5;"/>
   </g>
   <g id="patch_8">
    <path d="M 573.882353 400.189091 
L 573.882353 103.68 
" style="fill:none;stroke:#000000;stroke-linecap:square;stroke-linejoin:miter;stroke-width:0.8;"/>
   </g>
   <g id="patch_9">
    <path d="M 902.117647 400.189091 
L 902.117647 103.68 
" style="fill:none;stroke:#000000;stroke-linecap:square;stroke-linejoin:miter;stroke-width:0.8;"/>
   </g>
   <g id="patch_10">
    <path d="M 573.882353 400.189091 
L 902.117647 400.189091 
" style="fill:none;stroke:#000000;stroke-linecap:square;stroke-linejoin:miter;stroke-width:0.8;"/>
   </g>
   <g id="patch_11">
    <path d="M 573.882353 103.68 
L 902.117647 103.68 
" style="fill:none;stroke:#000000;stroke-linecap:square;stroke-linejoin:miter;stroke-width:0.8;"/>
   </g>
   <g id="text_22">
    <!-- 03:00:00 -->
    <g transform="translate(711.0525 97.68)scale(0.12 -0.12)">
     <use xlink:href="#DejaVuSans-48"/>
     <use x="63.623047" xlink:href="#DejaVuSans-51"/>
     <use x="127.246094" xlink:href="#DejaVuSans-58"/>
     <use x="160.9375" xlink:href="#DejaVuSans-48"/>
     <use x="224.560547" xlink:href="#DejaVuSans-48"/>
     <use x="288.183594" xlink:href="#DejaVuSans-58"/>
     <use x="321.875" xlink:href="#DejaVuSans-48"/>
     <use x="385.498047" xlink:href="#DejaVuSans-48"/>
    </g>
   </g>
  </g>
  <g id="axes_3">
   <g id="patch_12">
    <path d="M 967.764706 400.189091 
L 1296 400.189091 
L 1296 103.68 
L 967.764706 103.68 
z
" style="fill:#ffffff;"/>
   </g>
   <g id="matplotlib.axis_5">
    <g id="xtick_15">
     <g id="line2d_29">
      <g>
       <use style="stroke:#000000;stroke-width:0.8;" x="982.684492" xlink:href="#m004a0d1c0e" y="400.189091"/>
      </g>
     </g>
     <g id="text_23">
      <!-- 2014-01 -->
      <g transform="translate(961.793086 414.787528)scale(0.1 -0.1)">
       <use xlink:href="#DejaVuSans-50"/>
       <use x="63.623047" xlink:href="#DejaVuSans-48"/>
       <use x="127.246094" xlink:href="#DejaVuSans-49"/>
       <use x="190.869141" xlink:href="#DejaVuSans-52"/>
       <use x="254.492188" xlink:href="#DejaVuSans-45"/>
       <use x="290.576172" xlink:href="#DejaVuSans-48"/>
       <use x="354.199219" xlink:href="#DejaVuSans-49"/>
      </g>
     </g>
    </g>
    <g id="xtick_16">
     <g id="line2d_30">
      <g>
       <use style="stroke:#000000;stroke-width:0.8;" x="1031.050832" xlink:href="#m004a0d1c0e" y="400.189091"/>
      </g>
     </g>
     <g id="text_24">
      <!-- 2014-03 -->
      <g transform="translate(1010.159425 414.787528)scale(0.1 -0.1)">
       <use xlink:href="#DejaVuSans-50"/>
       <use x="63.623047" xlink:href="#DejaVuSans-48"/>
       <use x="127.246094" xlink:href="#DejaVuSans-49"/>
       <use x="190.869141" xlink:href="#DejaVuSans-52"/>
       <use x="254.492188" xlink:href="#DejaVuSans-45"/>
       <use x="290.576172" xlink:href="#DejaVuSans-48"/>
       <use x="354.199219" xlink:href="#DejaVuSans-51"/>
      </g>
     </g>
    </g>
    <g id="xtick_17">
     <g id="line2d_31">
      <g>
       <use style="stroke:#000000;stroke-width:0.8;" x="1081.056708" xlink:href="#m004a0d1c0e" y="400.189091"/>
      </g>
     </g>
     <g id="text_25">
      <!-- 2014-05 -->
      <g transform="translate(1060.165302 414.787528)scale(0.1 -0.1)">
       <use xlink:href="#DejaVuSans-50"/>
       <use x="63.623047" xlink:href="#DejaVuSans-48"/>
       <use x="127.246094" xlink:href="#DejaVuSans-49"/>
       <use x="190.869141" xlink:href="#DejaVuSans-52"/>
       <use x="254.492188" xlink:href="#DejaVuSans-45"/>
       <use x="290.576172" xlink:href="#DejaVuSans-48"/>
       <use x="354.199219" xlink:href="#DejaVuSans-53"/>
      </g>
     </g>
    </g>
    <g id="xtick_18">
     <g id="line2d_32">
      <g>
       <use style="stroke:#000000;stroke-width:0.8;" x="1131.062584" xlink:href="#m004a0d1c0e" y="400.189091"/>
      </g>
     </g>
     <g id="text_26">
      <!-- 2014-07 -->
      <g transform="translate(1110.171178 414.787528)scale(0.1 -0.1)">
       <use xlink:href="#DejaVuSans-50"/>
       <use x="63.623047" xlink:href="#DejaVuSans-48"/>
       <use x="127.246094" xlink:href="#DejaVuSans-49"/>
       <use x="190.869141" xlink:href="#DejaVuSans-52"/>
       <use x="254.492188" xlink:href="#DejaVuSans-45"/>
       <use x="290.576172" xlink:href="#DejaVuSans-48"/>
       <use x="354.199219" xlink:href="#DejaVuSans-55"/>
      </g>
     </g>
    </g>
    <g id="xtick_19">
     <g id="line2d_33">
      <g>
       <use style="stroke:#000000;stroke-width:0.8;" x="1181.888229" xlink:href="#m004a0d1c0e" y="400.189091"/>
      </g>
     </g>
     <g id="text_27">
      <!-- 2014-09 -->
      <g transform="translate(1160.996823 414.787528)scale(0.1 -0.1)">
       <use xlink:href="#DejaVuSans-50"/>
       <use x="63.623047" xlink:href="#DejaVuSans-48"/>
       <use x="127.246094" xlink:href="#DejaVuSans-49"/>
       <use x="190.869141" xlink:href="#DejaVuSans-52"/>
       <use x="254.492188" xlink:href="#DejaVuSans-45"/>
       <use x="290.576172" xlink:href="#DejaVuSans-48"/>
       <use x="354.199219" xlink:href="#DejaVuSans-57"/>
      </g>
     </g>
    </g>
    <g id="xtick_20">
     <g id="line2d_34">
      <g>
       <use style="stroke:#000000;stroke-width:0.8;" x="1231.894106" xlink:href="#m004a0d1c0e" y="400.189091"/>
      </g>
     </g>
     <g id="text_28">
      <!-- 2014-11 -->
      <g transform="translate(1211.0027 414.787528)scale(0.1 -0.1)">
       <use xlink:href="#DejaVuSans-50"/>
       <use x="63.623047" xlink:href="#DejaVuSans-48"/>
       <use x="127.246094" xlink:href="#DejaVuSans-49"/>
       <use x="190.869141" xlink:href="#DejaVuSans-52"/>
       <use x="254.492188" xlink:href="#DejaVuSans-45"/>
       <use x="290.576172" xlink:href="#DejaVuSans-49"/>
       <use x="354.199219" xlink:href="#DejaVuSans-49"/>
      </g>
     </g>
    </g>
    <g id="xtick_21">
     <g id="line2d_35">
      <g>
       <use style="stroke:#000000;stroke-width:0.8;" x="1281.899982" xlink:href="#m004a0d1c0e" y="400.189091"/>
      </g>
     </g>
     <g id="text_29">
      <!-- 2015-01 -->
      <g transform="translate(1261.008576 414.787528)scale(0.1 -0.1)">
       <use xlink:href="#DejaVuSans-50"/>
       <use x="63.623047" xlink:href="#DejaVuSans-48"/>
       <use x="127.246094" xlink:href="#DejaVuSans-49"/>
       <use x="190.869141" xlink:href="#DejaVuSans-53"/>
       <use x="254.492188" xlink:href="#DejaVuSans-45"/>
       <use x="290.576172" xlink:href="#DejaVuSans-48"/>
       <use x="354.199219" xlink:href="#DejaVuSans-49"/>
      </g>
     </g>
    </g>
   </g>
   <g id="matplotlib.axis_6">
    <g id="ytick_13">
     <g id="line2d_36">
      <g>
       <use style="stroke:#000000;stroke-width:0.8;" x="967.764706" xlink:href="#m8340fb397e" y="386.711405"/>
      </g>
     </g>
    </g>
    <g id="ytick_14">
     <g id="line2d_37">
      <g>
       <use style="stroke:#000000;stroke-width:0.8;" x="967.764706" xlink:href="#m8340fb397e" y="335.329307"/>
      </g>
     </g>
    </g>
    <g id="ytick_15">
     <g id="line2d_38">
      <g>
       <use style="stroke:#000000;stroke-width:0.8;" x="967.764706" xlink:href="#m8340fb397e" y="283.94721"/>
      </g>
     </g>
    </g>
    <g id="ytick_16">
     <g id="line2d_39">
      <g>
       <use style="stroke:#000000;stroke-width:0.8;" x="967.764706" xlink:href="#m8340fb397e" y="232.565112"/>
      </g>
     </g>
    </g>
    <g id="ytick_17">
     <g id="line2d_40">
      <g>
       <use style="stroke:#000000;stroke-width:0.8;" x="967.764706" xlink:href="#m8340fb397e" y="181.183014"/>
      </g>
     </g>
    </g>
    <g id="ytick_18">
     <g id="line2d_41">
      <g>
       <use style="stroke:#000000;stroke-width:0.8;" x="967.764706" xlink:href="#m8340fb397e" y="129.800916"/>
      </g>
     </g>
    </g>
   </g>
   <g id="line2d_42">
    <path clip-path="url(#pe47ab10d18)" d="M 982.684492 386.711405 
L 983.50426 343.892988 
L 984.324029 371.750245 
L 985.143797 386.711405 
L 985.963566 386.711405 
L 986.783334 376.428242 
L 987.603103 386.711405 
L 989.24264 386.711405 
L 990.062408 365.723638 
L 990.882177 307.606906 
L 991.701945 276.546698 
L 992.521714 386.711405 
L 993.341482 336.096335 
L 994.161251 386.711405 
L 994.981019 384.857064 
L 995.800787 386.711405 
L 1003.998472 386.711405 
L 1004.818241 375.416784 
L 1005.638009 386.711405 
L 1008.917083 386.711405 
L 1009.736851 339.510003 
L 1010.55662 384.81492 
L 1011.376388 296.101569 
L 1012.196157 386.711405 
L 1015.475231 386.711405 
L 1016.294999 318.648669 
L 1017.114768 230.019597 
L 1017.934536 349.498156 
L 1018.754305 386.711405 
L 1019.574073 366.524377 
L 1020.393841 386.711405 
L 1021.21361 386.711405 
L 1022.033378 384.81492 
L 1022.853147 386.711405 
L 1023.672915 386.711405 
L 1024.492684 256.654681 
L 1025.312452 386.711405 
L 1027.771758 386.711405 
L 1028.591526 369.010879 
L 1029.411295 381.949121 
L 1030.231063 386.711405 
L 1031.050832 385.152073 
L 1031.8706 386.711405 
L 1032.690368 370.907363 
L 1033.510137 381.190527 
L 1034.329905 366.313655 
L 1035.149674 386.711405 
L 1035.969442 326.571761 
L 1036.789211 386.711405 
L 1039.248516 386.711405 
L 1040.068285 312.874924 
L 1040.888053 386.711405 
L 1042.52759 386.711405 
L 1043.347359 258.972619 
L 1044.167127 275.493112 
L 1044.986895 376.596818 
L 1045.806664 384.730632 
L 1046.626432 386.711405 
L 1049.085738 386.711405 
L 1049.905506 348.655275 
L 1050.725275 386.711405 
L 1052.364812 386.711405 
L 1053.18458 294.542231 
L 1054.004349 183.323918 
L 1054.824117 386.711405 
L 1056.463654 386.711405 
L 1057.283422 386.584973 
L 1058.103191 386.711405 
L 1058.922959 386.711405 
L 1060.562496 322.94737 
L 1061.382265 176.496591 
L 1062.202033 329.311133 
L 1063.021802 385.236361 
L 1063.84157 386.711405 
L 1067.120644 386.711405 
L 1067.940413 228.755284 
L 1068.760181 381.316959 
L 1069.579949 386.711405 
L 1070.399718 373.141003 
L 1071.219486 260.194792 
L 1072.039255 385.194217 
L 1072.859023 386.711405 
L 1073.678792 386.711405 
L 1074.49856 378.493303 
L 1075.318329 386.711405 
L 1076.138097 380.726942 
L 1076.957866 386.711405 
L 1077.777634 386.711405 
L 1078.597403 383.002723 
L 1079.417171 209.326851 
L 1080.23694 367.872989 
L 1081.056708 362.984268 
L 1081.876476 386.711405 
L 1087.614856 386.711405 
L 1088.434624 297.155175 
L 1089.254393 375.037488 
L 1090.074161 384.983496 
L 1090.89393 382.918435 
L 1091.713698 386.711405 
L 1092.533467 144.972804 
L 1093.353235 386.711405 
L 1102.370688 386.711405 
L 1103.190457 330.786168 
L 1104.010225 332.935518 
L 1104.829994 384.772776 
L 1105.649762 355.904063 
L 1106.46953 368.842304 
L 1107.289299 383.803461 
L 1108.109067 386.711405 
L 1110.568373 386.711405 
L 1111.388141 311.189162 
L 1112.20791 318.564376 
L 1113.027678 379.37833 
L 1113.847447 386.711405 
L 1114.667215 321.430176 
L 1115.486984 309.039807 
L 1116.306752 386.711405 
L 1119.585826 386.711405 
L 1120.405594 370.907363 
L 1121.225363 386.669261 
L 1122.045131 384.056326 
L 1122.8649 386.711405 
L 1123.684668 385.53137 
L 1124.504437 383.466309 
L 1125.324205 328.84754 
L 1126.143974 383.255588 
L 1126.963742 386.711405 
L 1127.783511 375.711792 
L 1128.603279 295.34297 
L 1129.423048 368.673725 
L 1130.242816 383.424164 
L 1131.062584 386.711405 
L 1131.882353 386.711405 
L 1132.702121 369.390177 
L 1133.52189 386.711405 
L 1137.620732 386.711405 
L 1138.440501 331.081179 
L 1139.260269 373.436011 
L 1140.080038 386.711405 
L 1141.719575 386.711405 
L 1142.539343 386.289964 
L 1143.359111 366.903674 
L 1144.17888 386.711405 
L 1144.998648 386.711405 
L 1145.818417 353.586135 
L 1146.638185 306.300439 
L 1147.457954 350.425331 
L 1148.277722 378.282583 
L 1149.097491 381.991265 
L 1149.917259 386.711405 
L 1150.737028 385.657802 
L 1151.556796 386.711405 
L 1159.754481 386.711405 
L 1160.574249 376.765396 
L 1161.394018 386.711405 
L 1162.213786 384.519911 
L 1163.033555 386.711405 
L 1163.853323 177.971641 
L 1164.673092 383.297732 
L 1165.49286 386.711405 
L 1169.591702 386.711405 
L 1170.411471 316.878619 
L 1171.231239 333.609829 
L 1172.051008 377.22898 
L 1172.870776 386.711405 
L 1175.330082 386.711405 
L 1176.14985 383.087011 
L 1176.969619 386.711405 
L 1180.248692 386.711405 
L 1181.068461 326.571761 
L 1181.888229 385.152073 
L 1182.707998 386.711405 
L 1183.527766 386.711405 
L 1184.347535 352.490387 
L 1185.167303 386.374252 
L 1185.987072 386.711405 
L 1186.80684 384.983496 
L 1187.626609 336.222758 
L 1188.446377 386.711405 
L 1190.905683 386.711405 
L 1191.725451 376.386098 
L 1192.545219 386.711405 
L 1193.364988 360.624201 
L 1194.184756 372.255975 
L 1195.004525 386.711405 
L 1196.644062 386.711405 
L 1197.46383 386.542829 
L 1198.283599 386.711405 
L 1199.103367 385.320649 
L 1199.923136 352.616823 
L 1200.742904 386.711405 
L 1204.021978 386.711405 
L 1204.841746 321.767327 
L 1205.661515 268.834333 
L 1206.481283 386.711405 
L 1207.301052 386.711405 
L 1208.12082 369.980193 
L 1208.940589 321.093031 
L 1209.760357 386.711405 
L 1213.8592 386.711405 
L 1214.678968 364.332885 
L 1215.498737 385.067785 
L 1216.318505 386.711405 
L 1217.138273 258.087581 
L 1217.958042 378.493303 
L 1218.77781 386.711405 
L 1229.4348 386.711405 
L 1230.254569 373.520299 
L 1231.074337 386.711405 
L 1231.894106 382.960579 
L 1232.713874 386.711405 
L 1235.992948 386.711405 
L 1236.812717 385.02564 
L 1237.632485 386.711405 
L 1244.190633 386.711405 
L 1245.010401 305.204694 
L 1245.83017 381.106239 
L 1246.649938 386.711405 
L 1249.109244 386.711405 
L 1249.929012 374.784622 
L 1250.748781 314.897836 
L 1251.568549 386.711405 
L 1260.586002 386.711405 
L 1261.405771 353.164696 
L 1262.225539 386.711405 
L 1267.963918 386.711405 
L 1268.783687 365.512919 
L 1269.603455 386.711405 
L 1271.242992 386.711405 
L 1272.062761 354.13401 
L 1272.882529 381.906976 
L 1273.702298 384.857064 
L 1274.522066 314.054962 
L 1275.341835 117.157686 
L 1276.161603 384.772776 
L 1276.981372 386.711405 
L 1277.80114 386.711405 
L 1278.620909 253.03029 
L 1279.440677 341.53292 
L 1280.260445 386.711405 
L 1281.080214 386.711405 
L 1281.080214 386.711405 
" style="fill:none;stroke:#1f77b4;stroke-linecap:square;stroke-width:1.5;"/>
   </g>
   <g id="patch_13">
    <path d="M 967.764706 400.189091 
L 967.764706 103.68 
" style="fill:none;stroke:#000000;stroke-linecap:square;stroke-linejoin:miter;stroke-width:0.8;"/>
   </g>
   <g id="patch_14">
    <path d="M 1296 400.189091 
L 1296 103.68 
" style="fill:none;stroke:#000000;stroke-linecap:square;stroke-linejoin:miter;stroke-width:0.8;"/>
   </g>
   <g id="patch_15">
    <path d="M 967.764706 400.189091 
L 1296 400.189091 
" style="fill:none;stroke:#000000;stroke-linecap:square;stroke-linejoin:miter;stroke-width:0.8;"/>
   </g>
   <g id="patch_16">
    <path d="M 967.764706 103.68 
L 1296 103.68 
" style="fill:none;stroke:#000000;stroke-linecap:square;stroke-linejoin:miter;stroke-width:0.8;"/>
   </g>
   <g id="text_30">
    <!-- 06:00:00 -->
    <g transform="translate(1104.934853 97.68)scale(0.12 -0.12)">
     <use xlink:href="#DejaVuSans-48"/>
     <use x="63.623047" xlink:href="#DejaVuSans-54"/>
     <use x="127.246094" xlink:href="#DejaVuSans-58"/>
     <use x="160.9375" xlink:href="#DejaVuSans-48"/>
     <use x="224.560547" xlink:href="#DejaVuSans-48"/>
     <use x="288.183594" xlink:href="#DejaVuSans-58"/>
     <use x="321.875" xlink:href="#DejaVuSans-48"/>
     <use x="385.498047" xlink:href="#DejaVuSans-48"/>
    </g>
   </g>
  </g>
  <g id="axes_4">
   <g id="patch_17">
    <path d="M 180 756 
L 508.235294 756 
L 508.235294 459.490909 
L 180 459.490909 
z
" style="fill:#ffffff;"/>
   </g>
   <g id="matplotlib.axis_7">
    <g id="xtick_22">
     <g id="line2d_43">
      <g>
       <use style="stroke:#000000;stroke-width:0.8;" x="194.919786" xlink:href="#m004a0d1c0e" y="756"/>
      </g>
     </g>
     <g id="text_31">
      <!-- 2014-01 -->
      <g transform="translate(174.02838 770.598437)scale(0.1 -0.1)">
       <use xlink:href="#DejaVuSans-50"/>
       <use x="63.623047" xlink:href="#DejaVuSans-48"/>
       <use x="127.246094" xlink:href="#DejaVuSans-49"/>
       <use x="190.869141" xlink:href="#DejaVuSans-52"/>
       <use x="254.492188" xlink:href="#DejaVuSans-45"/>
       <use x="290.576172" xlink:href="#DejaVuSans-48"/>
       <use x="354.199219" xlink:href="#DejaVuSans-49"/>
      </g>
     </g>
    </g>
    <g id="xtick_23">
     <g id="line2d_44">
      <g>
       <use style="stroke:#000000;stroke-width:0.8;" x="243.286126" xlink:href="#m004a0d1c0e" y="756"/>
      </g>
     </g>
     <g id="text_32">
      <!-- 2014-03 -->
      <g transform="translate(222.394719 770.598437)scale(0.1 -0.1)">
       <use xlink:href="#DejaVuSans-50"/>
       <use x="63.623047" xlink:href="#DejaVuSans-48"/>
       <use x="127.246094" xlink:href="#DejaVuSans-49"/>
       <use x="190.869141" xlink:href="#DejaVuSans-52"/>
       <use x="254.492188" xlink:href="#DejaVuSans-45"/>
       <use x="290.576172" xlink:href="#DejaVuSans-48"/>
       <use x="354.199219" xlink:href="#DejaVuSans-51"/>
      </g>
     </g>
    </g>
    <g id="xtick_24">
     <g id="line2d_45">
      <g>
       <use style="stroke:#000000;stroke-width:0.8;" x="293.292002" xlink:href="#m004a0d1c0e" y="756"/>
      </g>
     </g>
     <g id="text_33">
      <!-- 2014-05 -->
      <g transform="translate(272.400596 770.598437)scale(0.1 -0.1)">
       <use xlink:href="#DejaVuSans-50"/>
       <use x="63.623047" xlink:href="#DejaVuSans-48"/>
       <use x="127.246094" xlink:href="#DejaVuSans-49"/>
       <use x="190.869141" xlink:href="#DejaVuSans-52"/>
       <use x="254.492188" xlink:href="#DejaVuSans-45"/>
       <use x="290.576172" xlink:href="#DejaVuSans-48"/>
       <use x="354.199219" xlink:href="#DejaVuSans-53"/>
      </g>
     </g>
    </g>
    <g id="xtick_25">
     <g id="line2d_46">
      <g>
       <use style="stroke:#000000;stroke-width:0.8;" x="343.297879" xlink:href="#m004a0d1c0e" y="756"/>
      </g>
     </g>
     <g id="text_34">
      <!-- 2014-07 -->
      <g transform="translate(322.406472 770.598437)scale(0.1 -0.1)">
       <use xlink:href="#DejaVuSans-50"/>
       <use x="63.623047" xlink:href="#DejaVuSans-48"/>
       <use x="127.246094" xlink:href="#DejaVuSans-49"/>
       <use x="190.869141" xlink:href="#DejaVuSans-52"/>
       <use x="254.492188" xlink:href="#DejaVuSans-45"/>
       <use x="290.576172" xlink:href="#DejaVuSans-48"/>
       <use x="354.199219" xlink:href="#DejaVuSans-55"/>
      </g>
     </g>
    </g>
    <g id="xtick_26">
     <g id="line2d_47">
      <g>
       <use style="stroke:#000000;stroke-width:0.8;" x="394.123524" xlink:href="#m004a0d1c0e" y="756"/>
      </g>
     </g>
     <g id="text_35">
      <!-- 2014-09 -->
      <g transform="translate(373.232117 770.598437)scale(0.1 -0.1)">
       <use xlink:href="#DejaVuSans-50"/>
       <use x="63.623047" xlink:href="#DejaVuSans-48"/>
       <use x="127.246094" xlink:href="#DejaVuSans-49"/>
       <use x="190.869141" xlink:href="#DejaVuSans-52"/>
       <use x="254.492188" xlink:href="#DejaVuSans-45"/>
       <use x="290.576172" xlink:href="#DejaVuSans-48"/>
       <use x="354.199219" xlink:href="#DejaVuSans-57"/>
      </g>
     </g>
    </g>
    <g id="xtick_27">
     <g id="line2d_48">
      <g>
       <use style="stroke:#000000;stroke-width:0.8;" x="444.1294" xlink:href="#m004a0d1c0e" y="756"/>
      </g>
     </g>
     <g id="text_36">
      <!-- 2014-11 -->
      <g transform="translate(423.237994 770.598437)scale(0.1 -0.1)">
       <use xlink:href="#DejaVuSans-50"/>
       <use x="63.623047" xlink:href="#DejaVuSans-48"/>
       <use x="127.246094" xlink:href="#DejaVuSans-49"/>
       <use x="190.869141" xlink:href="#DejaVuSans-52"/>
       <use x="254.492188" xlink:href="#DejaVuSans-45"/>
       <use x="290.576172" xlink:href="#DejaVuSans-49"/>
       <use x="354.199219" xlink:href="#DejaVuSans-49"/>
      </g>
     </g>
    </g>
    <g id="xtick_28">
     <g id="line2d_49">
      <g>
       <use style="stroke:#000000;stroke-width:0.8;" x="494.135276" xlink:href="#m004a0d1c0e" y="756"/>
      </g>
     </g>
     <g id="text_37">
      <!-- 2015-01 -->
      <g transform="translate(473.24387 770.598437)scale(0.1 -0.1)">
       <use xlink:href="#DejaVuSans-50"/>
       <use x="63.623047" xlink:href="#DejaVuSans-48"/>
       <use x="127.246094" xlink:href="#DejaVuSans-49"/>
       <use x="190.869141" xlink:href="#DejaVuSans-53"/>
       <use x="254.492188" xlink:href="#DejaVuSans-45"/>
       <use x="290.576172" xlink:href="#DejaVuSans-48"/>
       <use x="354.199219" xlink:href="#DejaVuSans-49"/>
      </g>
     </g>
    </g>
   </g>
   <g id="matplotlib.axis_8">
    <g id="ytick_19">
     <g id="line2d_50">
      <g>
       <use style="stroke:#000000;stroke-width:0.8;" x="180" xlink:href="#m8340fb397e" y="742.522314"/>
      </g>
     </g>
     <g id="text_38">
      <!-- 0.00 -->
      <g transform="translate(150.734375 746.321533)scale(0.1 -0.1)">
       <use xlink:href="#DejaVuSans-48"/>
       <use x="63.623047" xlink:href="#DejaVuSans-46"/>
       <use x="95.410156" xlink:href="#DejaVuSans-48"/>
       <use x="159.033203" xlink:href="#DejaVuSans-48"/>
      </g>
     </g>
    </g>
    <g id="ytick_20">
     <g id="line2d_51">
      <g>
       <use style="stroke:#000000;stroke-width:0.8;" x="180" xlink:href="#m8340fb397e" y="691.140216"/>
      </g>
     </g>
     <g id="text_39">
      <!-- 0.02 -->
      <g transform="translate(150.734375 694.939435)scale(0.1 -0.1)">
       <use xlink:href="#DejaVuSans-48"/>
       <use x="63.623047" xlink:href="#DejaVuSans-46"/>
       <use x="95.410156" xlink:href="#DejaVuSans-48"/>
       <use x="159.033203" xlink:href="#DejaVuSans-50"/>
      </g>
     </g>
    </g>
    <g id="ytick_21">
     <g id="line2d_52">
      <g>
       <use style="stroke:#000000;stroke-width:0.8;" x="180" xlink:href="#m8340fb397e" y="639.758119"/>
      </g>
     </g>
     <g id="text_40">
      <!-- 0.04 -->
      <g transform="translate(150.734375 643.557337)scale(0.1 -0.1)">
       <use xlink:href="#DejaVuSans-48"/>
       <use x="63.623047" xlink:href="#DejaVuSans-46"/>
       <use x="95.410156" xlink:href="#DejaVuSans-48"/>
       <use x="159.033203" xlink:href="#DejaVuSans-52"/>
      </g>
     </g>
    </g>
    <g id="ytick_22">
     <g id="line2d_53">
      <g>
       <use style="stroke:#000000;stroke-width:0.8;" x="180" xlink:href="#m8340fb397e" y="588.376021"/>
      </g>
     </g>
     <g id="text_41">
      <!-- 0.06 -->
      <g transform="translate(150.734375 592.17524)scale(0.1 -0.1)">
       <use xlink:href="#DejaVuSans-48"/>
       <use x="63.623047" xlink:href="#DejaVuSans-46"/>
       <use x="95.410156" xlink:href="#DejaVuSans-48"/>
       <use x="159.033203" xlink:href="#DejaVuSans-54"/>
      </g>
     </g>
    </g>
    <g id="ytick_23">
     <g id="line2d_54">
      <g>
       <use style="stroke:#000000;stroke-width:0.8;" x="180" xlink:href="#m8340fb397e" y="536.993923"/>
      </g>
     </g>
     <g id="text_42">
      <!-- 0.08 -->
      <g transform="translate(150.734375 540.793142)scale(0.1 -0.1)">
       <use xlink:href="#DejaVuSans-48"/>
       <use x="63.623047" xlink:href="#DejaVuSans-46"/>
       <use x="95.410156" xlink:href="#DejaVuSans-48"/>
       <use x="159.033203" xlink:href="#DejaVuSans-56"/>
      </g>
     </g>
    </g>
    <g id="ytick_24">
     <g id="line2d_55">
      <g>
       <use style="stroke:#000000;stroke-width:0.8;" x="180" xlink:href="#m8340fb397e" y="485.611826"/>
      </g>
     </g>
     <g id="text_43">
      <!-- 0.10 -->
      <g transform="translate(150.734375 489.411044)scale(0.1 -0.1)">
       <use xlink:href="#DejaVuSans-48"/>
       <use x="63.623047" xlink:href="#DejaVuSans-46"/>
       <use x="95.410156" xlink:href="#DejaVuSans-49"/>
       <use x="159.033203" xlink:href="#DejaVuSans-48"/>
      </g>
     </g>
    </g>
   </g>
   <g id="line2d_56">
    <path clip-path="url(#p341661e1a8)" d="M 194.919786 742.522314 
L 195.739555 699.703897 
L 196.559323 727.561155 
L 197.379091 742.522314 
L 198.19886 742.522314 
L 199.018628 732.239151 
L 199.838397 742.522314 
L 201.477934 742.522314 
L 202.297702 721.534547 
L 203.117471 663.417815 
L 203.937239 632.357607 
L 204.757008 742.522314 
L 205.576776 691.907244 
L 206.396545 742.522314 
L 207.216313 740.667973 
L 208.036082 742.522314 
L 216.233766 742.522314 
L 217.053535 731.227693 
L 217.873303 742.522314 
L 221.152377 742.522314 
L 221.972146 695.320912 
L 222.791914 740.625829 
L 223.611682 651.912478 
L 224.431451 742.522314 
L 227.710525 742.522314 
L 228.530293 674.459579 
L 229.350062 585.830506 
L 230.16983 705.309065 
L 230.989599 742.522314 
L 231.809367 722.335286 
L 232.629136 742.522314 
L 233.448904 742.522314 
L 234.268673 740.625829 
L 235.088441 742.522314 
L 235.908209 742.522314 
L 236.727978 612.46559 
L 237.547746 742.522314 
L 240.007052 742.522314 
L 240.82682 724.821788 
L 241.646589 737.76003 
L 242.466357 742.522314 
L 243.286126 740.962982 
L 244.105894 742.522314 
L 244.925663 726.718272 
L 245.745431 737.001436 
L 246.5652 722.124564 
L 247.384968 742.522314 
L 248.204736 682.38267 
L 249.024505 742.522314 
L 251.48381 742.522314 
L 252.303579 668.685833 
L 253.123347 742.522314 
L 254.762884 742.522314 
L 255.582653 614.783528 
L 256.402421 631.304021 
L 257.22219 732.407727 
L 258.041958 740.541541 
L 258.861727 742.522314 
L 261.321032 742.522314 
L 262.1408 704.466184 
L 262.960569 742.522314 
L 264.600106 742.522314 
L 265.419874 650.35314 
L 266.239643 539.134827 
L 267.059411 742.522314 
L 268.698948 742.522314 
L 269.518717 742.395882 
L 270.338485 742.522314 
L 271.158254 742.522314 
L 272.79779 678.758279 
L 273.617559 532.3075 
L 274.437327 685.122042 
L 275.257096 741.04727 
L 276.076864 742.522314 
L 279.355938 742.522314 
L 280.175707 584.566193 
L 280.995475 737.127868 
L 281.815244 742.522314 
L 282.635012 728.951912 
L 283.454781 616.005701 
L 284.274549 741.005126 
L 285.094317 742.522314 
L 285.914086 742.522314 
L 286.733854 734.304212 
L 287.553623 742.522314 
L 288.373391 736.537851 
L 289.19316 742.522314 
L 290.012928 742.522314 
L 290.832697 738.813632 
L 291.652465 565.13776 
L 292.472234 723.683898 
L 293.292002 718.795177 
L 294.111771 742.522314 
L 299.85015 742.522314 
L 300.669918 652.966084 
L 301.489687 730.848397 
L 302.309455 740.794405 
L 303.129224 738.729344 
L 303.948992 742.522314 
L 304.768761 500.783713 
L 305.588529 742.522314 
L 314.605982 742.522314 
L 315.425751 686.597077 
L 316.245519 688.746428 
L 317.065288 740.583685 
L 317.885056 711.714972 
L 318.704825 724.653213 
L 319.524593 739.61437 
L 320.344362 742.522314 
L 322.803667 742.522314 
L 323.623435 667.000071 
L 324.443204 674.375285 
L 325.262972 735.189239 
L 326.082741 742.522314 
L 326.902509 677.241086 
L 327.722278 664.850716 
L 328.542046 742.522314 
L 331.82112 742.522314 
L 332.640889 726.718272 
L 333.460657 742.48017 
L 334.280425 739.867235 
L 335.100194 742.522314 
L 335.919962 741.342279 
L 336.739731 739.277218 
L 337.559499 684.658449 
L 338.379268 739.066497 
L 339.199036 742.522314 
L 340.018805 731.522701 
L 340.838573 651.153879 
L 341.658342 724.484634 
L 342.47811 739.235074 
L 343.297879 742.522314 
L 344.117647 742.522314 
L 344.937416 725.201086 
L 345.757184 742.522314 
L 349.856026 742.522314 
L 350.675795 686.892088 
L 351.495563 729.24692 
L 352.315332 742.522314 
L 353.954869 742.522314 
L 354.774637 742.100873 
L 355.594406 722.714583 
L 356.414174 742.522314 
L 357.233943 742.522314 
L 358.053711 709.397044 
L 358.873479 662.111348 
L 359.693248 706.23624 
L 360.513016 734.093492 
L 361.332785 737.802174 
L 362.152553 742.522314 
L 362.972322 741.468711 
L 363.79209 742.522314 
L 371.989775 742.522314 
L 372.809543 732.576305 
L 373.629312 742.522314 
L 374.44908 740.33082 
L 375.268849 742.522314 
L 376.088617 533.78255 
L 376.908386 739.108641 
L 377.728154 742.522314 
L 381.826997 742.522314 
L 382.646765 672.689528 
L 383.466533 689.420738 
L 384.286302 733.039889 
L 385.10607 742.522314 
L 387.565376 742.522314 
L 388.385144 738.89792 
L 389.204913 742.522314 
L 392.483987 742.522314 
L 393.303755 682.38267 
L 394.123524 740.962982 
L 394.943292 742.522314 
L 395.76306 742.522314 
L 396.582829 708.301296 
L 397.402597 742.185161 
L 398.222366 742.522314 
L 399.042134 740.794405 
L 399.861903 692.033667 
L 400.681671 742.522314 
L 403.140977 742.522314 
L 403.960745 732.197007 
L 404.780514 742.522314 
L 405.600282 716.43511 
L 406.420051 728.066884 
L 407.239819 742.522314 
L 408.879356 742.522314 
L 409.699124 742.353738 
L 410.518893 742.522314 
L 411.338661 741.131558 
L 412.15843 708.427732 
L 412.978198 742.522314 
L 416.257272 742.522314 
L 417.077041 677.578236 
L 417.896809 624.645242 
L 418.716578 742.522314 
L 419.536346 742.522314 
L 420.356114 725.791103 
L 421.175883 676.90394 
L 421.995651 742.522314 
L 426.094494 742.522314 
L 426.914262 720.143794 
L 427.734031 740.878694 
L 428.553799 742.522314 
L 429.373568 613.89849 
L 430.193336 734.304212 
L 431.013105 742.522314 
L 441.670095 742.522314 
L 442.489863 729.331208 
L 443.309632 742.522314 
L 444.1294 738.771488 
L 444.949168 742.522314 
L 448.228242 742.522314 
L 449.048011 740.83655 
L 449.867779 742.522314 
L 456.425927 742.522314 
L 457.245695 661.015603 
L 458.065464 736.917148 
L 458.885232 742.522314 
L 461.344538 742.522314 
L 462.164306 730.595532 
L 462.984075 670.708745 
L 463.803843 742.522314 
L 472.821296 742.522314 
L 473.641065 708.975605 
L 474.460833 742.522314 
L 480.199213 742.522314 
L 481.018981 721.323828 
L 481.838749 742.522314 
L 483.478286 742.522314 
L 484.298055 709.944919 
L 485.117823 737.717885 
L 485.937592 740.667973 
L 486.75736 669.865872 
L 487.577129 472.968595 
L 488.396897 740.583685 
L 489.216666 742.522314 
L 490.036434 742.522314 
L 490.856203 608.8412 
L 491.675971 697.343829 
L 492.49574 742.522314 
L 493.315508 742.522314 
L 493.315508 742.522314 
" style="fill:none;stroke:#1f77b4;stroke-linecap:square;stroke-width:1.5;"/>
   </g>
   <g id="patch_18">
    <path d="M 180 756 
L 180 459.490909 
" style="fill:none;stroke:#000000;stroke-linecap:square;stroke-linejoin:miter;stroke-width:0.8;"/>
   </g>
   <g id="patch_19">
    <path d="M 508.235294 756 
L 508.235294 459.490909 
" style="fill:none;stroke:#000000;stroke-linecap:square;stroke-linejoin:miter;stroke-width:0.8;"/>
   </g>
   <g id="patch_20">
    <path d="M 180 756 
L 508.235294 756 
" style="fill:none;stroke:#000000;stroke-linecap:square;stroke-linejoin:miter;stroke-width:0.8;"/>
   </g>
   <g id="patch_21">
    <path d="M 180 459.490909 
L 508.235294 459.490909 
" style="fill:none;stroke:#000000;stroke-linecap:square;stroke-linejoin:miter;stroke-width:0.8;"/>
   </g>
   <g id="text_44">
    <!-- 12:00:00 -->
    <g transform="translate(317.170147 453.490909)scale(0.12 -0.12)">
     <use xlink:href="#DejaVuSans-49"/>
     <use x="63.623047" xlink:href="#DejaVuSans-50"/>
     <use x="127.246094" xlink:href="#DejaVuSans-58"/>
     <use x="160.9375" xlink:href="#DejaVuSans-48"/>
     <use x="224.560547" xlink:href="#DejaVuSans-48"/>
     <use x="288.183594" xlink:href="#DejaVuSans-58"/>
     <use x="321.875" xlink:href="#DejaVuSans-48"/>
     <use x="385.498047" xlink:href="#DejaVuSans-48"/>
    </g>
   </g>
  </g>
  <g id="axes_5">
   <g id="patch_22">
    <path d="M 573.882353 756 
L 902.117647 756 
L 902.117647 459.490909 
L 573.882353 459.490909 
z
" style="fill:#ffffff;"/>
   </g>
   <g id="matplotlib.axis_9">
    <g id="xtick_29">
     <g id="line2d_57">
      <g>
       <use style="stroke:#000000;stroke-width:0.8;" x="588.802139" xlink:href="#m004a0d1c0e" y="756"/>
      </g>
     </g>
     <g id="text_45">
      <!-- 2014-01 -->
      <g transform="translate(567.910733 770.598437)scale(0.1 -0.1)">
       <use xlink:href="#DejaVuSans-50"/>
       <use x="63.623047" xlink:href="#DejaVuSans-48"/>
       <use x="127.246094" xlink:href="#DejaVuSans-49"/>
       <use x="190.869141" xlink:href="#DejaVuSans-52"/>
       <use x="254.492188" xlink:href="#DejaVuSans-45"/>
       <use x="290.576172" xlink:href="#DejaVuSans-48"/>
       <use x="354.199219" xlink:href="#DejaVuSans-49"/>
      </g>
     </g>
    </g>
    <g id="xtick_30">
     <g id="line2d_58">
      <g>
       <use style="stroke:#000000;stroke-width:0.8;" x="637.168479" xlink:href="#m004a0d1c0e" y="756"/>
      </g>
     </g>
     <g id="text_46">
      <!-- 2014-03 -->
      <g transform="translate(616.277072 770.598437)scale(0.1 -0.1)">
       <use xlink:href="#DejaVuSans-50"/>
       <use x="63.623047" xlink:href="#DejaVuSans-48"/>
       <use x="127.246094" xlink:href="#DejaVuSans-49"/>
       <use x="190.869141" xlink:href="#DejaVuSans-52"/>
       <use x="254.492188" xlink:href="#DejaVuSans-45"/>
       <use x="290.576172" xlink:href="#DejaVuSans-48"/>
       <use x="354.199219" xlink:href="#DejaVuSans-51"/>
      </g>
     </g>
    </g>
    <g id="xtick_31">
     <g id="line2d_59">
      <g>
       <use style="stroke:#000000;stroke-width:0.8;" x="687.174355" xlink:href="#m004a0d1c0e" y="756"/>
      </g>
     </g>
     <g id="text_47">
      <!-- 2014-05 -->
      <g transform="translate(666.282949 770.598437)scale(0.1 -0.1)">
       <use xlink:href="#DejaVuSans-50"/>
       <use x="63.623047" xlink:href="#DejaVuSans-48"/>
       <use x="127.246094" xlink:href="#DejaVuSans-49"/>
       <use x="190.869141" xlink:href="#DejaVuSans-52"/>
       <use x="254.492188" xlink:href="#DejaVuSans-45"/>
       <use x="290.576172" xlink:href="#DejaVuSans-48"/>
       <use x="354.199219" xlink:href="#DejaVuSans-53"/>
      </g>
     </g>
    </g>
    <g id="xtick_32">
     <g id="line2d_60">
      <g>
       <use style="stroke:#000000;stroke-width:0.8;" x="737.180232" xlink:href="#m004a0d1c0e" y="756"/>
      </g>
     </g>
     <g id="text_48">
      <!-- 2014-07 -->
      <g transform="translate(716.288825 770.598437)scale(0.1 -0.1)">
       <use xlink:href="#DejaVuSans-50"/>
       <use x="63.623047" xlink:href="#DejaVuSans-48"/>
       <use x="127.246094" xlink:href="#DejaVuSans-49"/>
       <use x="190.869141" xlink:href="#DejaVuSans-52"/>
       <use x="254.492188" xlink:href="#DejaVuSans-45"/>
       <use x="290.576172" xlink:href="#DejaVuSans-48"/>
       <use x="354.199219" xlink:href="#DejaVuSans-55"/>
      </g>
     </g>
    </g>
    <g id="xtick_33">
     <g id="line2d_61">
      <g>
       <use style="stroke:#000000;stroke-width:0.8;" x="788.005876" xlink:href="#m004a0d1c0e" y="756"/>
      </g>
     </g>
     <g id="text_49">
      <!-- 2014-09 -->
      <g transform="translate(767.11447 770.598437)scale(0.1 -0.1)">
       <use xlink:href="#DejaVuSans-50"/>
       <use x="63.623047" xlink:href="#DejaVuSans-48"/>
       <use x="127.246094" xlink:href="#DejaVuSans-49"/>
       <use x="190.869141" xlink:href="#DejaVuSans-52"/>
       <use x="254.492188" xlink:href="#DejaVuSans-45"/>
       <use x="290.576172" xlink:href="#DejaVuSans-48"/>
       <use x="354.199219" xlink:href="#DejaVuSans-57"/>
      </g>
     </g>
    </g>
    <g id="xtick_34">
     <g id="line2d_62">
      <g>
       <use style="stroke:#000000;stroke-width:0.8;" x="838.011753" xlink:href="#m004a0d1c0e" y="756"/>
      </g>
     </g>
     <g id="text_50">
      <!-- 2014-11 -->
      <g transform="translate(817.120347 770.598437)scale(0.1 -0.1)">
       <use xlink:href="#DejaVuSans-50"/>
       <use x="63.623047" xlink:href="#DejaVuSans-48"/>
       <use x="127.246094" xlink:href="#DejaVuSans-49"/>
       <use x="190.869141" xlink:href="#DejaVuSans-52"/>
       <use x="254.492188" xlink:href="#DejaVuSans-45"/>
       <use x="290.576172" xlink:href="#DejaVuSans-49"/>
       <use x="354.199219" xlink:href="#DejaVuSans-49"/>
      </g>
     </g>
    </g>
    <g id="xtick_35">
     <g id="line2d_63">
      <g>
       <use style="stroke:#000000;stroke-width:0.8;" x="888.017629" xlink:href="#m004a0d1c0e" y="756"/>
      </g>
     </g>
     <g id="text_51">
      <!-- 2015-01 -->
      <g transform="translate(867.126223 770.598437)scale(0.1 -0.1)">
       <use xlink:href="#DejaVuSans-50"/>
       <use x="63.623047" xlink:href="#DejaVuSans-48"/>
       <use x="127.246094" xlink:href="#DejaVuSans-49"/>
       <use x="190.869141" xlink:href="#DejaVuSans-53"/>
       <use x="254.492188" xlink:href="#DejaVuSans-45"/>
       <use x="290.576172" xlink:href="#DejaVuSans-48"/>
       <use x="354.199219" xlink:href="#DejaVuSans-49"/>
      </g>
     </g>
    </g>
   </g>
   <g id="matplotlib.axis_10">
    <g id="ytick_25">
     <g id="line2d_64">
      <g>
       <use style="stroke:#000000;stroke-width:0.8;" x="573.882353" xlink:href="#m8340fb397e" y="742.522314"/>
      </g>
     </g>
    </g>
    <g id="ytick_26">
     <g id="line2d_65">
      <g>
       <use style="stroke:#000000;stroke-width:0.8;" x="573.882353" xlink:href="#m8340fb397e" y="691.140216"/>
      </g>
     </g>
    </g>
    <g id="ytick_27">
     <g id="line2d_66">
      <g>
       <use style="stroke:#000000;stroke-width:0.8;" x="573.882353" xlink:href="#m8340fb397e" y="639.758119"/>
      </g>
     </g>
    </g>
    <g id="ytick_28">
     <g id="line2d_67">
      <g>
       <use style="stroke:#000000;stroke-width:0.8;" x="573.882353" xlink:href="#m8340fb397e" y="588.376021"/>
      </g>
     </g>
    </g>
    <g id="ytick_29">
     <g id="line2d_68">
      <g>
       <use style="stroke:#000000;stroke-width:0.8;" x="573.882353" xlink:href="#m8340fb397e" y="536.993923"/>
      </g>
     </g>
    </g>
    <g id="ytick_30">
     <g id="line2d_69">
      <g>
       <use style="stroke:#000000;stroke-width:0.8;" x="573.882353" xlink:href="#m8340fb397e" y="485.611826"/>
      </g>
     </g>
    </g>
   </g>
   <g id="line2d_70">
    <path clip-path="url(#p44a2c64446)" d="M 588.802139 742.522314 
L 589.621908 699.703897 
L 590.441676 727.561155 
L 591.261444 742.522314 
L 592.081213 742.522314 
L 592.900981 732.239151 
L 593.72075 742.522314 
L 595.360287 742.522314 
L 596.180055 721.534547 
L 596.999824 663.417815 
L 597.819592 632.357607 
L 598.639361 742.522314 
L 599.459129 691.907244 
L 600.278898 742.522314 
L 601.098666 740.667973 
L 601.918435 742.522314 
L 610.116119 742.522314 
L 610.935888 731.227693 
L 611.755656 742.522314 
L 615.03473 742.522314 
L 615.854498 695.320912 
L 616.674267 740.625829 
L 617.494035 651.912478 
L 618.313804 742.522314 
L 621.592878 742.522314 
L 622.412646 674.459579 
L 623.232415 585.830506 
L 624.052183 705.309065 
L 624.871952 742.522314 
L 625.69172 722.335286 
L 626.511489 742.522314 
L 627.331257 742.522314 
L 628.151025 740.625829 
L 628.970794 742.522314 
L 629.790562 742.522314 
L 630.610331 612.46559 
L 631.430099 742.522314 
L 633.889405 742.522314 
L 634.709173 724.821788 
L 635.528942 737.76003 
L 636.34871 742.522314 
L 637.168479 740.962982 
L 637.988247 742.522314 
L 638.808016 726.718272 
L 639.627784 737.001436 
L 640.447552 722.124564 
L 641.267321 742.522314 
L 642.087089 682.38267 
L 642.906858 742.522314 
L 645.366163 742.522314 
L 646.185932 668.685833 
L 647.0057 742.522314 
L 648.645237 742.522314 
L 649.465006 614.783528 
L 650.284774 631.304021 
L 651.104543 732.407727 
L 651.924311 740.541541 
L 652.744079 742.522314 
L 655.203385 742.522314 
L 656.023153 704.466184 
L 656.842922 742.522314 
L 658.482459 742.522314 
L 659.302227 650.35314 
L 660.121996 539.134827 
L 660.941764 742.522314 
L 662.581301 742.522314 
L 663.40107 742.395882 
L 664.220838 742.522314 
L 665.040606 742.522314 
L 666.680143 678.758279 
L 667.499912 532.3075 
L 668.31968 685.122042 
L 669.139449 741.04727 
L 669.959217 742.522314 
L 673.238291 742.522314 
L 674.05806 584.566193 
L 674.877828 737.127868 
L 675.697597 742.522314 
L 676.517365 728.951912 
L 677.337133 616.005701 
L 678.156902 741.005126 
L 678.97667 742.522314 
L 679.796439 742.522314 
L 680.616207 734.304212 
L 681.435976 742.522314 
L 682.255744 736.537851 
L 683.075513 742.522314 
L 683.895281 742.522314 
L 684.71505 738.813632 
L 685.534818 565.13776 
L 686.354587 723.683898 
L 687.174355 718.795177 
L 687.994124 742.522314 
L 693.732503 742.522314 
L 694.552271 652.966084 
L 695.37204 730.848397 
L 696.191808 740.794405 
L 697.011577 738.729344 
L 697.831345 742.522314 
L 698.651114 500.783713 
L 699.470882 742.522314 
L 708.488335 742.522314 
L 709.308104 686.597077 
L 710.127872 688.746428 
L 710.947641 740.583685 
L 711.767409 711.714972 
L 712.587178 724.653213 
L 713.406946 739.61437 
L 714.226714 742.522314 
L 716.68602 742.522314 
L 717.505788 667.000071 
L 718.325557 674.375285 
L 719.145325 735.189239 
L 719.965094 742.522314 
L 720.784862 677.241086 
L 721.604631 664.850716 
L 722.424399 742.522314 
L 725.703473 742.522314 
L 726.523241 726.718272 
L 727.34301 742.48017 
L 728.162778 739.867235 
L 728.982547 742.522314 
L 729.802315 741.342279 
L 730.622084 739.277218 
L 731.441852 684.658449 
L 732.261621 739.066497 
L 733.081389 742.522314 
L 733.901158 731.522701 
L 734.720926 651.153879 
L 735.540695 724.484634 
L 736.360463 739.235074 
L 737.180232 742.522314 
L 738 742.522314 
L 738.819768 725.201086 
L 739.639537 742.522314 
L 743.738379 742.522314 
L 744.558148 686.892088 
L 745.377916 729.24692 
L 746.197685 742.522314 
L 747.837222 742.522314 
L 748.65699 742.100873 
L 749.476759 722.714583 
L 750.296527 742.522314 
L 751.116295 742.522314 
L 751.936064 709.397044 
L 752.755832 662.111348 
L 753.575601 706.23624 
L 754.395369 734.093492 
L 755.215138 737.802174 
L 756.034906 742.522314 
L 756.854675 741.468711 
L 757.674443 742.522314 
L 765.872128 742.522314 
L 766.691896 732.576305 
L 767.511665 742.522314 
L 768.331433 740.33082 
L 769.151202 742.522314 
L 769.97097 533.78255 
L 770.790739 739.108641 
L 771.610507 742.522314 
L 775.709349 742.522314 
L 776.529118 672.689528 
L 777.348886 689.420738 
L 778.168655 733.039889 
L 778.988423 742.522314 
L 781.447729 742.522314 
L 782.267497 738.89792 
L 783.087266 742.522314 
L 786.36634 742.522314 
L 787.186108 682.38267 
L 788.005876 740.962982 
L 788.825645 742.522314 
L 789.645413 742.522314 
L 790.465182 708.301296 
L 791.28495 742.185161 
L 792.104719 742.522314 
L 792.924487 740.794405 
L 793.744256 692.033667 
L 794.564024 742.522314 
L 797.02333 742.522314 
L 797.843098 732.197007 
L 798.662867 742.522314 
L 799.482635 716.43511 
L 800.302403 728.066884 
L 801.122172 742.522314 
L 802.761709 742.522314 
L 803.581477 742.353738 
L 804.401246 742.522314 
L 805.221014 741.131558 
L 806.040783 708.427732 
L 806.860551 742.522314 
L 810.139625 742.522314 
L 810.959394 677.578236 
L 811.779162 624.645242 
L 812.59893 742.522314 
L 813.418699 742.522314 
L 814.238467 725.791103 
L 815.058236 676.90394 
L 815.878004 742.522314 
L 819.976847 742.522314 
L 820.796615 720.143794 
L 821.616384 740.878694 
L 822.436152 742.522314 
L 823.255921 613.89849 
L 824.075689 734.304212 
L 824.895457 742.522314 
L 835.552448 742.522314 
L 836.372216 729.331208 
L 837.191984 742.522314 
L 838.011753 738.771488 
L 838.831521 742.522314 
L 842.110595 742.522314 
L 842.930364 740.83655 
L 843.750132 742.522314 
L 850.30828 742.522314 
L 851.128048 661.015603 
L 851.947817 736.917148 
L 852.767585 742.522314 
L 855.226891 742.522314 
L 856.046659 730.595532 
L 856.866428 670.708745 
L 857.686196 742.522314 
L 866.703649 742.522314 
L 867.523418 708.975605 
L 868.343186 742.522314 
L 874.081565 742.522314 
L 874.901334 721.323828 
L 875.721102 742.522314 
L 877.360639 742.522314 
L 878.180408 709.944919 
L 879.000176 737.717885 
L 879.819945 740.667973 
L 880.639713 669.865872 
L 881.459482 472.968595 
L 882.27925 740.583685 
L 883.099019 742.522314 
L 883.918787 742.522314 
L 884.738556 608.8412 
L 885.558324 697.343829 
L 886.378092 742.522314 
L 887.197861 742.522314 
L 887.197861 742.522314 
" style="fill:none;stroke:#1f77b4;stroke-linecap:square;stroke-width:1.5;"/>
   </g>
   <g id="patch_23">
    <path d="M 573.882353 756 
L 573.882353 459.490909 
" style="fill:none;stroke:#000000;stroke-linecap:square;stroke-linejoin:miter;stroke-width:0.8;"/>
   </g>
   <g id="patch_24">
    <path d="M 902.117647 756 
L 902.117647 459.490909 
" style="fill:none;stroke:#000000;stroke-linecap:square;stroke-linejoin:miter;stroke-width:0.8;"/>
   </g>
   <g id="patch_25">
    <path d="M 573.882353 756 
L 902.117647 756 
" style="fill:none;stroke:#000000;stroke-linecap:square;stroke-linejoin:miter;stroke-width:0.8;"/>
   </g>
   <g id="patch_26">
    <path d="M 573.882353 459.490909 
L 902.117647 459.490909 
" style="fill:none;stroke:#000000;stroke-linecap:square;stroke-linejoin:miter;stroke-width:0.8;"/>
   </g>
   <g id="text_52">
    <!-- 24:00:00 -->
    <g transform="translate(711.0525 453.490909)scale(0.12 -0.12)">
     <use xlink:href="#DejaVuSans-50"/>
     <use x="63.623047" xlink:href="#DejaVuSans-52"/>
     <use x="127.246094" xlink:href="#DejaVuSans-58"/>
     <use x="160.9375" xlink:href="#DejaVuSans-48"/>
     <use x="224.560547" xlink:href="#DejaVuSans-48"/>
     <use x="288.183594" xlink:href="#DejaVuSans-58"/>
     <use x="321.875" xlink:href="#DejaVuSans-48"/>
     <use x="385.498047" xlink:href="#DejaVuSans-48"/>
    </g>
   </g>
  </g>
  <g id="text_53">
   <!-- Rainfall - Rain Barrel -->
   <defs>
    <path d="M 44.390625 34.1875 
Q 47.5625 33.109375 50.5625 29.59375 
Q 53.5625 26.078125 56.59375 19.921875 
L 66.609375 0 
L 56 0 
L 46.6875 18.703125 
Q 43.0625 26.03125 39.671875 28.421875 
Q 36.28125 30.8125 30.421875 30.8125 
L 19.671875 30.8125 
L 19.671875 0 
L 9.8125 0 
L 9.8125 72.90625 
L 32.078125 72.90625 
Q 44.578125 72.90625 50.734375 67.671875 
Q 56.890625 62.453125 56.890625 51.90625 
Q 56.890625 45.015625 53.6875 40.46875 
Q 50.484375 35.9375 44.390625 34.1875 
z
M 19.671875 64.796875 
L 19.671875 38.921875 
L 32.078125 38.921875 
Q 39.203125 38.921875 42.84375 42.21875 
Q 46.484375 45.515625 46.484375 51.90625 
Q 46.484375 58.296875 42.84375 61.546875 
Q 39.203125 64.796875 32.078125 64.796875 
z
" id="DejaVuSans-82"/>
    <path d="M 34.28125 27.484375 
Q 23.390625 27.484375 19.1875 25 
Q 14.984375 22.515625 14.984375 16.5 
Q 14.984375 11.71875 18.140625 8.90625 
Q 21.296875 6.109375 26.703125 6.109375 
Q 34.1875 6.109375 38.703125 11.40625 
Q 43.21875 16.703125 43.21875 25.484375 
L 43.21875 27.484375 
z
M 52.203125 31.203125 
L 52.203125 0 
L 43.21875 0 
L 43.21875 8.296875 
Q 40.140625 3.328125 35.546875 0.953125 
Q 30.953125 -1.421875 24.3125 -1.421875 
Q 15.921875 -1.421875 10.953125 3.296875 
Q 6 8.015625 6 15.921875 
Q 6 25.140625 12.171875 29.828125 
Q 18.359375 34.515625 30.609375 34.515625 
L 43.21875 34.515625 
L 43.21875 35.40625 
Q 43.21875 41.609375 39.140625 45 
Q 35.0625 48.390625 27.6875 48.390625 
Q 23 48.390625 18.546875 47.265625 
Q 14.109375 46.140625 10.015625 43.890625 
L 10.015625 52.203125 
Q 14.9375 54.109375 19.578125 55.046875 
Q 24.21875 56 28.609375 56 
Q 40.484375 56 46.34375 49.84375 
Q 52.203125 43.703125 52.203125 31.203125 
z
" id="DejaVuSans-97"/>
    <path d="M 9.421875 54.6875 
L 18.40625 54.6875 
L 18.40625 0 
L 9.421875 0 
z
M 9.421875 75.984375 
L 18.40625 75.984375 
L 18.40625 64.59375 
L 9.421875 64.59375 
z
" id="DejaVuSans-105"/>
    <path d="M 54.890625 33.015625 
L 54.890625 0 
L 45.90625 0 
L 45.90625 32.71875 
Q 45.90625 40.484375 42.875 44.328125 
Q 39.84375 48.1875 33.796875 48.1875 
Q 26.515625 48.1875 22.3125 43.546875 
Q 18.109375 38.921875 18.109375 30.90625 
L 18.109375 0 
L 9.078125 0 
L 9.078125 54.6875 
L 18.109375 54.6875 
L 18.109375 46.1875 
Q 21.34375 51.125 25.703125 53.5625 
Q 30.078125 56 35.796875 56 
Q 45.21875 56 50.046875 50.171875 
Q 54.890625 44.34375 54.890625 33.015625 
z
" id="DejaVuSans-110"/>
    <path d="M 37.109375 75.984375 
L 37.109375 68.5 
L 28.515625 68.5 
Q 23.6875 68.5 21.796875 66.546875 
Q 19.921875 64.59375 19.921875 59.515625 
L 19.921875 54.6875 
L 34.71875 54.6875 
L 34.71875 47.703125 
L 19.921875 47.703125 
L 19.921875 0 
L 10.890625 0 
L 10.890625 47.703125 
L 2.296875 47.703125 
L 2.296875 54.6875 
L 10.890625 54.6875 
L 10.890625 58.5 
Q 10.890625 67.625 15.140625 71.796875 
Q 19.390625 75.984375 28.609375 75.984375 
z
" id="DejaVuSans-102"/>
    <path d="M 9.421875 75.984375 
L 18.40625 75.984375 
L 18.40625 0 
L 9.421875 0 
z
" id="DejaVuSans-108"/>
    <path id="DejaVuSans-32"/>
    <path d="M 19.671875 34.8125 
L 19.671875 8.109375 
L 35.5 8.109375 
Q 43.453125 8.109375 47.28125 11.40625 
Q 51.125 14.703125 51.125 21.484375 
Q 51.125 28.328125 47.28125 31.5625 
Q 43.453125 34.8125 35.5 34.8125 
z
M 19.671875 64.796875 
L 19.671875 42.828125 
L 34.28125 42.828125 
Q 41.5 42.828125 45.03125 45.53125 
Q 48.578125 48.25 48.578125 53.8125 
Q 48.578125 59.328125 45.03125 62.0625 
Q 41.5 64.796875 34.28125 64.796875 
z
M 9.8125 72.90625 
L 35.015625 72.90625 
Q 46.296875 72.90625 52.390625 68.21875 
Q 58.5 63.53125 58.5 54.890625 
Q 58.5 48.1875 55.375 44.234375 
Q 52.25 40.28125 46.1875 39.3125 
Q 53.46875 37.75 57.5 32.78125 
Q 61.53125 27.828125 61.53125 20.40625 
Q 61.53125 10.640625 54.890625 5.3125 
Q 48.25 0 35.984375 0 
L 9.8125 0 
z
" id="DejaVuSans-66"/>
    <path d="M 41.109375 46.296875 
Q 39.59375 47.171875 37.8125 47.578125 
Q 36.03125 48 33.890625 48 
Q 26.265625 48 22.1875 43.046875 
Q 18.109375 38.09375 18.109375 28.8125 
L 18.109375 0 
L 9.078125 0 
L 9.078125 54.6875 
L 18.109375 54.6875 
L 18.109375 46.1875 
Q 20.953125 51.171875 25.484375 53.578125 
Q 30.03125 56 36.53125 56 
Q 37.453125 56 38.578125 55.875 
Q 39.703125 55.765625 41.0625 55.515625 
z
" id="DejaVuSans-114"/>
    <path d="M 56.203125 29.59375 
L 56.203125 25.203125 
L 14.890625 25.203125 
Q 15.484375 15.921875 20.484375 11.0625 
Q 25.484375 6.203125 34.421875 6.203125 
Q 39.59375 6.203125 44.453125 7.46875 
Q 49.3125 8.734375 54.109375 11.28125 
L 54.109375 2.78125 
Q 49.265625 0.734375 44.1875 -0.34375 
Q 39.109375 -1.421875 33.890625 -1.421875 
Q 20.796875 -1.421875 13.15625 6.1875 
Q 5.515625 13.8125 5.515625 26.8125 
Q 5.515625 40.234375 12.765625 48.109375 
Q 20.015625 56 32.328125 56 
Q 43.359375 56 49.78125 48.890625 
Q 56.203125 41.796875 56.203125 29.59375 
z
M 47.21875 32.234375 
Q 47.125 39.59375 43.09375 43.984375 
Q 39.0625 48.390625 32.421875 48.390625 
Q 24.90625 48.390625 20.390625 44.140625 
Q 15.875 39.890625 15.1875 32.171875 
z
" id="DejaVuSans-101"/>
   </defs>
   <g transform="translate(627.42375 30.957187)scale(0.18 -0.18)">
    <use xlink:href="#DejaVuSans-82"/>
    <use x="69.451172" xlink:href="#DejaVuSans-97"/>
    <use x="130.730469" xlink:href="#DejaVuSans-105"/>
    <use x="158.513672" xlink:href="#DejaVuSans-110"/>
    <use x="221.892578" xlink:href="#DejaVuSans-102"/>
    <use x="257.097656" xlink:href="#DejaVuSans-97"/>
    <use x="318.376953" xlink:href="#DejaVuSans-108"/>
    <use x="346.160156" xlink:href="#DejaVuSans-108"/>
    <use x="373.943359" xlink:href="#DejaVuSans-32"/>
    <use x="405.730469" xlink:href="#DejaVuSans-45"/>
    <use x="441.814453" xlink:href="#DejaVuSans-32"/>
    <use x="473.601562" xlink:href="#DejaVuSans-82"/>
    <use x="543.052734" xlink:href="#DejaVuSans-97"/>
    <use x="604.332031" xlink:href="#DejaVuSans-105"/>
    <use x="632.115234" xlink:href="#DejaVuSans-110"/>
    <use x="695.494141" xlink:href="#DejaVuSans-32"/>
    <use x="727.28125" xlink:href="#DejaVuSans-66"/>
    <use x="795.884766" xlink:href="#DejaVuSans-97"/>
    <use x="857.164062" xlink:href="#DejaVuSans-114"/>
    <use x="898.261719" xlink:href="#DejaVuSans-114"/>
    <use x="939.34375" xlink:href="#DejaVuSans-101"/>
    <use x="1000.867188" xlink:href="#DejaVuSans-108"/>
   </g>
  </g>
 </g>
 <defs>
  <clipPath id="p08abc9a1e0">
   <rect height="296.509091" width="328.235294" x="180" y="103.68"/>
  </clipPath>
  <clipPath id="pe649431d8e">
   <rect height="296.509091" width="328.235294" x="573.882353" y="103.68"/>
  </clipPath>
  <clipPath id="pe47ab10d18">
   <rect height="296.509091" width="328.235294" x="967.764706" y="103.68"/>
  </clipPath>
  <clipPath id="p341661e1a8">
   <rect height="296.509091" width="328.235294" x="180" y="459.490909"/>
  </clipPath>
  <clipPath id="p44a2c64446">
   <rect height="296.509091" width="328.235294" x="573.882353" y="459.490909"/>
  </clipPath>
 </defs>
</svg>
