<?xml version="1.0" encoding="utf-8" standalone="no"?>
<!DOCTYPE svg PUBLIC "-//W3C//DTD SVG 1.1//EN"
  "http://www.w3.org/Graphics/SVG/1.1/DTD/svg11.dtd">
<!-- Created with matplotlib (https://matplotlib.org/) -->
<svg height="864pt" version="1.1" viewBox="0 0 1440 864" width="1440pt" xmlns="http://www.w3.org/2000/svg" xmlns:xlink="http://www.w3.org/1999/xlink">
 <defs>
  <style type="text/css">
*{stroke-linecap:butt;stroke-linejoin:round;}
  </style>
 </defs>
 <g id="figure_1">
  <g id="patch_1">
   <path d="M 0 864 
L 1440 864 
L 1440 0 
L 0 0 
z
" style="fill:#ffffff;"/>
  </g>
  <g id="axes_1">
   <g id="patch_2">
    <path d="M 180 400.189091 
L 508.235294 400.189091 
L 508.235294 103.68 
L 180 103.68 
z
" style="fill:#ffffff;"/>
   </g>
   <g id="matplotlib.axis_1">
    <g id="xtick_1">
     <g id="line2d_1">
      <defs>
       <path d="M 0 0 
L 0 3.5 
" id="mdfd6b22468" style="stroke:#000000;stroke-width:0.8;"/>
      </defs>
      <g>
       <use style="stroke:#000000;stroke-width:0.8;" x="194.919786" xlink:href="#mdfd6b22468" y="400.189091"/>
      </g>
     </g>
     <g id="text_1">
      <!-- 2014-01 -->
      <defs>
       <path d="M 19.1875 8.296875 
L 53.609375 8.296875 
L 53.609375 0 
L 7.328125 0 
L 7.328125 8.296875 
Q 12.9375 14.109375 22.625 23.890625 
Q 32.328125 33.6875 34.8125 36.53125 
Q 39.546875 41.84375 41.421875 45.53125 
Q 43.3125 49.21875 43.3125 52.78125 
Q 43.3125 58.59375 39.234375 62.25 
Q 35.15625 65.921875 28.609375 65.921875 
Q 23.96875 65.921875 18.8125 64.3125 
Q 13.671875 62.703125 7.8125 59.421875 
L 7.8125 69.390625 
Q 13.765625 71.78125 18.9375 73 
Q 24.125 74.21875 28.421875 74.21875 
Q 39.75 74.21875 46.484375 68.546875 
Q 53.21875 62.890625 53.21875 53.421875 
Q 53.21875 48.921875 51.53125 44.890625 
Q 49.859375 40.875 45.40625 35.40625 
Q 44.1875 33.984375 37.640625 27.21875 
Q 31.109375 20.453125 19.1875 8.296875 
z
" id="DejaVuSans-50"/>
       <path d="M 31.78125 66.40625 
Q 24.171875 66.40625 20.328125 58.90625 
Q 16.5 51.421875 16.5 36.375 
Q 16.5 21.390625 20.328125 13.890625 
Q 24.171875 6.390625 31.78125 6.390625 
Q 39.453125 6.390625 43.28125 13.890625 
Q 47.125 21.390625 47.125 36.375 
Q 47.125 51.421875 43.28125 58.90625 
Q 39.453125 66.40625 31.78125 66.40625 
z
M 31.78125 74.21875 
Q 44.046875 74.21875 50.515625 64.515625 
Q 56.984375 54.828125 56.984375 36.375 
Q 56.984375 17.96875 50.515625 8.265625 
Q 44.046875 -1.421875 31.78125 -1.421875 
Q 19.53125 -1.421875 13.0625 8.265625 
Q 6.59375 17.96875 6.59375 36.375 
Q 6.59375 54.828125 13.0625 64.515625 
Q 19.53125 74.21875 31.78125 74.21875 
z
" id="DejaVuSans-48"/>
       <path d="M 12.40625 8.296875 
L 28.515625 8.296875 
L 28.515625 63.921875 
L 10.984375 60.40625 
L 10.984375 69.390625 
L 28.421875 72.90625 
L 38.28125 72.90625 
L 38.28125 8.296875 
L 54.390625 8.296875 
L 54.390625 0 
L 12.40625 0 
z
" id="DejaVuSans-49"/>
       <path d="M 37.796875 64.3125 
L 12.890625 25.390625 
L 37.796875 25.390625 
z
M 35.203125 72.90625 
L 47.609375 72.90625 
L 47.609375 25.390625 
L 58.015625 25.390625 
L 58.015625 17.1875 
L 47.609375 17.1875 
L 47.609375 0 
L 37.796875 0 
L 37.796875 17.1875 
L 4.890625 17.1875 
L 4.890625 26.703125 
z
" id="DejaVuSans-52"/>
       <path d="M 4.890625 31.390625 
L 31.203125 31.390625 
L 31.203125 23.390625 
L 4.890625 23.390625 
z
" id="DejaVuSans-45"/>
      </defs>
      <g transform="translate(174.02838 414.787528)scale(0.1 -0.1)">
       <use xlink:href="#DejaVuSans-50"/>
       <use x="63.623047" xlink:href="#DejaVuSans-48"/>
       <use x="127.246094" xlink:href="#DejaVuSans-49"/>
       <use x="190.869141" xlink:href="#DejaVuSans-52"/>
       <use x="254.492188" xlink:href="#DejaVuSans-45"/>
       <use x="290.576172" xlink:href="#DejaVuSans-48"/>
       <use x="354.199219" xlink:href="#DejaVuSans-49"/>
      </g>
     </g>
    </g>
    <g id="xtick_2">
     <g id="line2d_2">
      <g>
       <use style="stroke:#000000;stroke-width:0.8;" x="243.286126" xlink:href="#mdfd6b22468" y="400.189091"/>
      </g>
     </g>
     <g id="text_2">
      <!-- 2014-03 -->
      <defs>
       <path d="M 40.578125 39.3125 
Q 47.65625 37.796875 51.625 33 
Q 55.609375 28.21875 55.609375 21.1875 
Q 55.609375 10.40625 48.1875 4.484375 
Q 40.765625 -1.421875 27.09375 -1.421875 
Q 22.515625 -1.421875 17.65625 -0.515625 
Q 12.796875 0.390625 7.625 2.203125 
L 7.625 11.71875 
Q 11.71875 9.328125 16.59375 8.109375 
Q 21.484375 6.890625 26.8125 6.890625 
Q 36.078125 6.890625 40.9375 10.546875 
Q 45.796875 14.203125 45.796875 21.1875 
Q 45.796875 27.640625 41.28125 31.265625 
Q 36.765625 34.90625 28.71875 34.90625 
L 20.21875 34.90625 
L 20.21875 43.015625 
L 29.109375 43.015625 
Q 36.375 43.015625 40.234375 45.921875 
Q 44.09375 48.828125 44.09375 54.296875 
Q 44.09375 59.90625 40.109375 62.90625 
Q 36.140625 65.921875 28.71875 65.921875 
Q 24.65625 65.921875 20.015625 65.03125 
Q 15.375 64.15625 9.8125 62.3125 
L 9.8125 71.09375 
Q 15.4375 72.65625 20.34375 73.4375 
Q 25.25 74.21875 29.59375 74.21875 
Q 40.828125 74.21875 47.359375 69.109375 
Q 53.90625 64.015625 53.90625 55.328125 
Q 53.90625 49.265625 50.4375 45.09375 
Q 46.96875 40.921875 40.578125 39.3125 
z
" id="DejaVuSans-51"/>
      </defs>
      <g transform="translate(222.394719 414.787528)scale(0.1 -0.1)">
       <use xlink:href="#DejaVuSans-50"/>
       <use x="63.623047" xlink:href="#DejaVuSans-48"/>
       <use x="127.246094" xlink:href="#DejaVuSans-49"/>
       <use x="190.869141" xlink:href="#DejaVuSans-52"/>
       <use x="254.492188" xlink:href="#DejaVuSans-45"/>
       <use x="290.576172" xlink:href="#DejaVuSans-48"/>
       <use x="354.199219" xlink:href="#DejaVuSans-51"/>
      </g>
     </g>
    </g>
    <g id="xtick_3">
     <g id="line2d_3">
      <g>
       <use style="stroke:#000000;stroke-width:0.8;" x="293.292002" xlink:href="#mdfd6b22468" y="400.189091"/>
      </g>
     </g>
     <g id="text_3">
      <!-- 2014-05 -->
      <defs>
       <path d="M 10.796875 72.90625 
L 49.515625 72.90625 
L 49.515625 64.59375 
L 19.828125 64.59375 
L 19.828125 46.734375 
Q 21.96875 47.46875 24.109375 47.828125 
Q 26.265625 48.1875 28.421875 48.1875 
Q 40.625 48.1875 47.75 41.5 
Q 54.890625 34.8125 54.890625 23.390625 
Q 54.890625 11.625 47.5625 5.09375 
Q 40.234375 -1.421875 26.90625 -1.421875 
Q 22.3125 -1.421875 17.546875 -0.640625 
Q 12.796875 0.140625 7.71875 1.703125 
L 7.71875 11.625 
Q 12.109375 9.234375 16.796875 8.0625 
Q 21.484375 6.890625 26.703125 6.890625 
Q 35.15625 6.890625 40.078125 11.328125 
Q 45.015625 15.765625 45.015625 23.390625 
Q 45.015625 31 40.078125 35.4375 
Q 35.15625 39.890625 26.703125 39.890625 
Q 22.75 39.890625 18.8125 39.015625 
Q 14.890625 38.140625 10.796875 36.28125 
z
" id="DejaVuSans-53"/>
      </defs>
      <g transform="translate(272.400596 414.787528)scale(0.1 -0.1)">
       <use xlink:href="#DejaVuSans-50"/>
       <use x="63.623047" xlink:href="#DejaVuSans-48"/>
       <use x="127.246094" xlink:href="#DejaVuSans-49"/>
       <use x="190.869141" xlink:href="#DejaVuSans-52"/>
       <use x="254.492188" xlink:href="#DejaVuSans-45"/>
       <use x="290.576172" xlink:href="#DejaVuSans-48"/>
       <use x="354.199219" xlink:href="#DejaVuSans-53"/>
      </g>
     </g>
    </g>
    <g id="xtick_4">
     <g id="line2d_4">
      <g>
       <use style="stroke:#000000;stroke-width:0.8;" x="343.297879" xlink:href="#mdfd6b22468" y="400.189091"/>
      </g>
     </g>
     <g id="text_4">
      <!-- 2014-07 -->
      <defs>
       <path d="M 8.203125 72.90625 
L 55.078125 72.90625 
L 55.078125 68.703125 
L 28.609375 0 
L 18.3125 0 
L 43.21875 64.59375 
L 8.203125 64.59375 
z
" id="DejaVuSans-55"/>
      </defs>
      <g transform="translate(322.406472 414.787528)scale(0.1 -0.1)">
       <use xlink:href="#DejaVuSans-50"/>
       <use x="63.623047" xlink:href="#DejaVuSans-48"/>
       <use x="127.246094" xlink:href="#DejaVuSans-49"/>
       <use x="190.869141" xlink:href="#DejaVuSans-52"/>
       <use x="254.492188" xlink:href="#DejaVuSans-45"/>
       <use x="290.576172" xlink:href="#DejaVuSans-48"/>
       <use x="354.199219" xlink:href="#DejaVuSans-55"/>
      </g>
     </g>
    </g>
    <g id="xtick_5">
     <g id="line2d_5">
      <g>
       <use style="stroke:#000000;stroke-width:0.8;" x="394.123524" xlink:href="#mdfd6b22468" y="400.189091"/>
      </g>
     </g>
     <g id="text_5">
      <!-- 2014-09 -->
      <defs>
       <path d="M 10.984375 1.515625 
L 10.984375 10.5 
Q 14.703125 8.734375 18.5 7.8125 
Q 22.3125 6.890625 25.984375 6.890625 
Q 35.75 6.890625 40.890625 13.453125 
Q 46.046875 20.015625 46.78125 33.40625 
Q 43.953125 29.203125 39.59375 26.953125 
Q 35.25 24.703125 29.984375 24.703125 
Q 19.046875 24.703125 12.671875 31.3125 
Q 6.296875 37.9375 6.296875 49.421875 
Q 6.296875 60.640625 12.9375 67.421875 
Q 19.578125 74.21875 30.609375 74.21875 
Q 43.265625 74.21875 49.921875 64.515625 
Q 56.59375 54.828125 56.59375 36.375 
Q 56.59375 19.140625 48.40625 8.859375 
Q 40.234375 -1.421875 26.421875 -1.421875 
Q 22.703125 -1.421875 18.890625 -0.6875 
Q 15.09375 0.046875 10.984375 1.515625 
z
M 30.609375 32.421875 
Q 37.25 32.421875 41.125 36.953125 
Q 45.015625 41.5 45.015625 49.421875 
Q 45.015625 57.28125 41.125 61.84375 
Q 37.25 66.40625 30.609375 66.40625 
Q 23.96875 66.40625 20.09375 61.84375 
Q 16.21875 57.28125 16.21875 49.421875 
Q 16.21875 41.5 20.09375 36.953125 
Q 23.96875 32.421875 30.609375 32.421875 
z
" id="DejaVuSans-57"/>
      </defs>
      <g transform="translate(373.232117 414.787528)scale(0.1 -0.1)">
       <use xlink:href="#DejaVuSans-50"/>
       <use x="63.623047" xlink:href="#DejaVuSans-48"/>
       <use x="127.246094" xlink:href="#DejaVuSans-49"/>
       <use x="190.869141" xlink:href="#DejaVuSans-52"/>
       <use x="254.492188" xlink:href="#DejaVuSans-45"/>
       <use x="290.576172" xlink:href="#DejaVuSans-48"/>
       <use x="354.199219" xlink:href="#DejaVuSans-57"/>
      </g>
     </g>
    </g>
    <g id="xtick_6">
     <g id="line2d_6">
      <g>
       <use style="stroke:#000000;stroke-width:0.8;" x="444.1294" xlink:href="#mdfd6b22468" y="400.189091"/>
      </g>
     </g>
     <g id="text_6">
      <!-- 2014-11 -->
      <g transform="translate(423.237994 414.787528)scale(0.1 -0.1)">
       <use xlink:href="#DejaVuSans-50"/>
       <use x="63.623047" xlink:href="#DejaVuSans-48"/>
       <use x="127.246094" xlink:href="#DejaVuSans-49"/>
       <use x="190.869141" xlink:href="#DejaVuSans-52"/>
       <use x="254.492188" xlink:href="#DejaVuSans-45"/>
       <use x="290.576172" xlink:href="#DejaVuSans-49"/>
       <use x="354.199219" xlink:href="#DejaVuSans-49"/>
      </g>
     </g>
    </g>
    <g id="xtick_7">
     <g id="line2d_7">
      <g>
       <use style="stroke:#000000;stroke-width:0.8;" x="494.135276" xlink:href="#mdfd6b22468" y="400.189091"/>
      </g>
     </g>
     <g id="text_7">
      <!-- 2015-01 -->
      <g transform="translate(473.24387 414.787528)scale(0.1 -0.1)">
       <use xlink:href="#DejaVuSans-50"/>
       <use x="63.623047" xlink:href="#DejaVuSans-48"/>
       <use x="127.246094" xlink:href="#DejaVuSans-49"/>
       <use x="190.869141" xlink:href="#DejaVuSans-53"/>
       <use x="254.492188" xlink:href="#DejaVuSans-45"/>
       <use x="290.576172" xlink:href="#DejaVuSans-48"/>
       <use x="354.199219" xlink:href="#DejaVuSans-49"/>
      </g>
     </g>
    </g>
   </g>
   <g id="matplotlib.axis_2">
    <g id="ytick_1">
     <g id="line2d_8">
      <defs>
       <path d="M 0 0 
L -3.5 0 
" id="m57a52a1432" style="stroke:#000000;stroke-width:0.8;"/>
      </defs>
      <g>
       <use style="stroke:#000000;stroke-width:0.8;" x="180" xlink:href="#m57a52a1432" y="386.711405"/>
      </g>
     </g>
     <g id="text_8">
      <!-- 0 -->
      <g transform="translate(166.6375 390.510624)scale(0.1 -0.1)">
       <use xlink:href="#DejaVuSans-48"/>
      </g>
     </g>
    </g>
    <g id="ytick_2">
     <g id="line2d_9">
      <g>
       <use style="stroke:#000000;stroke-width:0.8;" x="180" xlink:href="#m57a52a1432" y="342.620102"/>
      </g>
     </g>
     <g id="text_9">
      <!-- 1 -->
      <g transform="translate(166.6375 346.419321)scale(0.1 -0.1)">
       <use xlink:href="#DejaVuSans-49"/>
      </g>
     </g>
    </g>
    <g id="ytick_3">
     <g id="line2d_10">
      <g>
       <use style="stroke:#000000;stroke-width:0.8;" x="180" xlink:href="#m57a52a1432" y="298.5288"/>
      </g>
     </g>
     <g id="text_10">
      <!-- 2 -->
      <g transform="translate(166.6375 302.328018)scale(0.1 -0.1)">
       <use xlink:href="#DejaVuSans-50"/>
      </g>
     </g>
    </g>
    <g id="ytick_4">
     <g id="line2d_11">
      <g>
       <use style="stroke:#000000;stroke-width:0.8;" x="180" xlink:href="#m57a52a1432" y="254.437497"/>
      </g>
     </g>
     <g id="text_11">
      <!-- 3 -->
      <g transform="translate(166.6375 258.236716)scale(0.1 -0.1)">
       <use xlink:href="#DejaVuSans-51"/>
      </g>
     </g>
    </g>
    <g id="ytick_5">
     <g id="line2d_12">
      <g>
       <use style="stroke:#000000;stroke-width:0.8;" x="180" xlink:href="#m57a52a1432" y="210.346194"/>
      </g>
     </g>
     <g id="text_12">
      <!-- 4 -->
      <g transform="translate(166.6375 214.145413)scale(0.1 -0.1)">
       <use xlink:href="#DejaVuSans-52"/>
      </g>
     </g>
    </g>
    <g id="ytick_6">
     <g id="line2d_13">
      <g>
       <use style="stroke:#000000;stroke-width:0.8;" x="180" xlink:href="#m57a52a1432" y="166.254891"/>
      </g>
     </g>
     <g id="text_13">
      <!-- 5 -->
      <g transform="translate(166.6375 170.05411)scale(0.1 -0.1)">
       <use xlink:href="#DejaVuSans-53"/>
      </g>
     </g>
    </g>
    <g id="ytick_7">
     <g id="line2d_14">
      <g>
       <use style="stroke:#000000;stroke-width:0.8;" x="180" xlink:href="#m57a52a1432" y="122.163589"/>
      </g>
     </g>
     <g id="text_14">
      <!-- 6 -->
      <defs>
       <path d="M 33.015625 40.375 
Q 26.375 40.375 22.484375 35.828125 
Q 18.609375 31.296875 18.609375 23.390625 
Q 18.609375 15.53125 22.484375 10.953125 
Q 26.375 6.390625 33.015625 6.390625 
Q 39.65625 6.390625 43.53125 10.953125 
Q 47.40625 15.53125 47.40625 23.390625 
Q 47.40625 31.296875 43.53125 35.828125 
Q 39.65625 40.375 33.015625 40.375 
z
M 52.59375 71.296875 
L 52.59375 62.3125 
Q 48.875 64.0625 45.09375 64.984375 
Q 41.3125 65.921875 37.59375 65.921875 
Q 27.828125 65.921875 22.671875 59.328125 
Q 17.53125 52.734375 16.796875 39.40625 
Q 19.671875 43.65625 24.015625 45.921875 
Q 28.375 48.1875 33.59375 48.1875 
Q 44.578125 48.1875 50.953125 41.515625 
Q 57.328125 34.859375 57.328125 23.390625 
Q 57.328125 12.15625 50.6875 5.359375 
Q 44.046875 -1.421875 33.015625 -1.421875 
Q 20.359375 -1.421875 13.671875 8.265625 
Q 6.984375 17.96875 6.984375 36.375 
Q 6.984375 53.65625 15.1875 63.9375 
Q 23.390625 74.21875 37.203125 74.21875 
Q 40.921875 74.21875 44.703125 73.484375 
Q 48.484375 72.75 52.59375 71.296875 
z
" id="DejaVuSans-54"/>
      </defs>
      <g transform="translate(166.6375 125.962808)scale(0.1 -0.1)">
       <use xlink:href="#DejaVuSans-54"/>
      </g>
     </g>
    </g>
   </g>
   <g id="line2d_15">
    <path clip-path="url(#pcf84ab7ec3)" d="M 194.919786 386.711405 
L 195.739555 351.179753 
L 196.559323 377.233114 
L 197.379091 386.376348 
L 198.19886 386.711405 
L 199.018628 384.234642 
L 199.838397 386.481112 
L 200.658165 386.711405 
L 201.477934 386.711405 
L 202.297702 378.727521 
L 203.117471 310.344528 
L 203.937239 278.166734 
L 204.757008 382.151036 
L 205.576776 340.870551 
L 206.396545 384.601484 
L 207.216313 386.711405 
L 216.233766 386.711405 
L 217.053535 383.710397 
L 217.873303 386.458461 
L 218.693072 386.711405 
L 221.152377 386.711405 
L 221.972146 345.782253 
L 222.791914 384.683878 
L 223.611682 299.763016 
L 224.431451 382.931036 
L 225.251219 386.711405 
L 227.710525 386.711405 
L 228.530293 325.519608 
L 229.350062 233.532797 
L 230.16983 361.005075 
L 230.989599 385.87801 
L 231.809367 379.053544 
L 232.629136 386.259314 
L 233.448904 386.711405 
L 235.908209 386.711405 
L 236.727978 267.34474 
L 237.547746 381.285646 
L 238.367515 386.711405 
L 240.007052 386.711405 
L 240.82682 380.385354 
L 241.646589 383.855915 
L 242.466357 386.604753 
L 244.105894 386.711405 
L 244.925663 381.411342 
L 245.745431 383.509235 
L 246.5652 376.082549 
L 247.384968 386.254595 
L 248.204736 334.122965 
L 249.024505 384.203093 
L 249.844273 386.711405 
L 251.48381 386.711405 
L 252.303579 319.528561 
L 253.123347 383.649907 
L 253.943116 386.711405 
L 254.762884 386.711405 
L 255.582653 269.550084 
L 256.402421 273.919773 
L 257.22219 376.817162 
L 258.041958 386.484888 
L 258.861727 386.711405 
L 261.321032 386.711405 
L 262.1408 369.685705 
L 262.960569 385.859134 
L 263.780337 386.711405 
L 264.600106 386.711405 
L 265.419874 302.118996 
L 266.239643 187.88881 
L 267.059411 378.236162 
L 267.87918 386.711405 
L 271.158254 386.711405 
L 271.978022 373.717491 
L 272.79779 324.920239 
L 273.617559 182.517576 
L 274.437327 322.674506 
L 275.257096 384.309813 
L 276.076864 386.711405 
L 279.355938 386.711405 
L 280.175707 235.894668 
L 280.995475 377.329423 
L 281.815244 386.590596 
L 282.635012 382.508226 
L 283.454781 265.016986 
L 284.274549 381.373961 
L 285.094317 386.711405 
L 285.914086 386.711405 
L 286.733854 385.325781 
L 287.553623 386.52736 
L 288.373391 386.488641 
L 290.832697 386.711405 
L 291.652465 216.498397 
L 292.472234 369.603768 
L 293.292002 374.068193 
L 294.111771 386.180033 
L 294.931539 386.711405 
L 299.85015 386.711405 
L 300.669918 304.523822 
L 301.489687 376.956432 
L 302.309455 386.449966 
L 303.129224 384.760834 
L 303.948992 386.626461 
L 304.768761 154.886069 
L 305.588529 376.626631 
L 306.408298 386.711405 
L 314.605982 386.711405 
L 315.425751 337.894999 
L 316.245519 332.650922 
L 317.065288 384.402773 
L 317.885056 370.844182 
L 318.704825 376.816455 
L 319.524593 384.803323 
L 320.344362 386.646281 
L 321.983898 386.711405 
L 322.803667 386.711405 
L 323.623435 317.880335 
L 324.443204 317.920095 
L 325.262972 380.08118 
L 326.082741 386.54718 
L 326.902509 329.476476 
L 327.722278 309.733912 
L 328.542046 383.479016 
L 329.361815 386.711405 
L 331.82112 386.711405 
L 332.640889 381.411342 
L 333.460657 386.357472 
L 334.280425 385.404062 
L 335.100194 386.651944 
L 336.739731 386.711405 
L 337.559499 331.3723 
L 338.379268 382.523789 
L 339.199036 386.634012 
L 340.018805 383.873311 
L 340.838573 298.788239 
L 341.658342 373.605675 
L 342.47811 384.605126 
L 343.297879 386.637787 
L 344.117647 386.711405 
L 344.937416 380.543905 
L 345.757184 386.323494 
L 346.576952 386.711405 
L 349.856026 386.711405 
L 350.675795 337.800635 
L 351.495563 377.543728 
L 352.315332 386.414101 
L 353.1351 386.711405 
L 354.774637 386.711405 
L 355.594406 379.173239 
L 356.414174 386.267809 
L 357.233943 386.711405 
L 358.053711 372.410086 
L 358.873479 308.817252 
L 359.693248 364.665957 
L 360.513016 381.552172 
L 362.152553 386.605697 
L 363.79209 386.711405 
L 371.989775 386.711405 
L 372.809543 384.488839 
L 373.629312 386.488663 
L 374.44908 386.711405 
L 375.268849 386.711405 
L 376.088617 186.626253 
L 376.908386 376.227131 
L 377.728154 386.634955 
L 379.367691 386.711405 
L 381.826997 386.711405 
L 382.646765 323.348649 
L 383.466533 332.653376 
L 384.286302 379.60027 
L 385.10607 386.499045 
L 385.925839 386.711405 
L 392.483987 386.711405 
L 393.303755 334.122965 
L 394.123524 384.203093 
L 394.943292 386.711405 
L 395.76306 386.711405 
L 396.582829 371.667866 
L 397.402597 385.945021 
L 398.222366 386.711405 
L 399.042134 386.711405 
L 399.861903 340.510877 
L 400.681671 384.590522 
L 401.50144 386.711405 
L 403.140977 386.711405 
L 403.960745 384.21371 
L 404.780514 386.480169 
L 405.600282 376.12584 
L 406.420051 378.680167 
L 407.239819 386.387674 
L 408.059587 386.711405 
L 411.338661 386.711405 
L 412.15843 371.024817 
L 412.978198 385.947853 
L 413.797967 386.711405 
L 416.257272 386.711405 
L 417.896809 270.898465 
L 418.716578 381.794655 
L 419.536346 386.711405 
L 420.356114 380.859274 
L 421.175883 323.419958 
L 421.995651 383.977378 
L 422.81542 386.711405 
L 426.094494 386.711405 
L 426.914262 377.90867 
L 427.734031 386.210235 
L 428.553799 386.711405 
L 429.373568 269.468581 
L 430.193336 377.139367 
L 431.013105 386.52736 
L 431.832873 386.711405 
L 441.670095 386.711405 
L 442.489863 382.737586 
L 443.309632 386.415989 
L 444.1294 386.711405 
L 456.425927 386.711405 
L 457.245695 311.967242 
L 458.065464 380.411885 
L 458.885232 386.585877 
L 459.705001 386.711405 
L 461.344538 386.711405 
L 462.164306 383.408702 
L 462.984075 317.560396 
L 463.803843 383.717503 
L 464.623612 386.711405 
L 472.821296 386.711405 
L 473.641065 372.114987 
L 474.460833 385.960123 
L 475.280602 386.711405 
L 480.199213 386.711405 
L 481.018981 378.645267 
L 481.838749 386.236662 
L 482.658518 386.711405 
L 483.478286 386.711405 
L 484.298055 372.785585 
L 485.117823 383.497999 
L 485.937592 386.603809 
L 486.75736 317.016594 
L 487.577129 125.204446 
L 488.396897 375.408873 
L 489.216666 386.711405 
L 490.036434 386.711405 
L 490.856203 261.767006 
L 491.675971 337.610938 
L 492.49574 384.817841 
L 493.315508 386.711405 
L 493.315508 386.711405 
" style="fill:none;stroke:#1f77b4;stroke-linecap:square;stroke-width:1.5;"/>
   </g>
   <g id="patch_3">
    <path d="M 180 400.189091 
L 180 103.68 
" style="fill:none;stroke:#000000;stroke-linecap:square;stroke-linejoin:miter;stroke-width:0.8;"/>
   </g>
   <g id="patch_4">
    <path d="M 508.235294 400.189091 
L 508.235294 103.68 
" style="fill:none;stroke:#000000;stroke-linecap:square;stroke-linejoin:miter;stroke-width:0.8;"/>
   </g>
   <g id="patch_5">
    <path d="M 180 400.189091 
L 508.235294 400.189091 
" style="fill:none;stroke:#000000;stroke-linecap:square;stroke-linejoin:miter;stroke-width:0.8;"/>
   </g>
   <g id="patch_6">
    <path d="M 180 103.68 
L 508.235294 103.68 
" style="fill:none;stroke:#000000;stroke-linecap:square;stroke-linejoin:miter;stroke-width:0.8;"/>
   </g>
   <g id="text_15">
    <!-- 01:00:00 -->
    <defs>
     <path d="M 11.71875 12.40625 
L 22.015625 12.40625 
L 22.015625 0 
L 11.71875 0 
z
M 11.71875 51.703125 
L 22.015625 51.703125 
L 22.015625 39.3125 
L 11.71875 39.3125 
z
" id="DejaVuSans-58"/>
    </defs>
    <g transform="translate(317.170147 97.68)scale(0.12 -0.12)">
     <use xlink:href="#DejaVuSans-48"/>
     <use x="63.623047" xlink:href="#DejaVuSans-49"/>
     <use x="127.246094" xlink:href="#DejaVuSans-58"/>
     <use x="160.9375" xlink:href="#DejaVuSans-48"/>
     <use x="224.560547" xlink:href="#DejaVuSans-48"/>
     <use x="288.183594" xlink:href="#DejaVuSans-58"/>
     <use x="321.875" xlink:href="#DejaVuSans-48"/>
     <use x="385.498047" xlink:href="#DejaVuSans-48"/>
    </g>
   </g>
  </g>
  <g id="axes_2">
   <g id="patch_7">
    <path d="M 573.882353 400.189091 
L 902.117647 400.189091 
L 902.117647 103.68 
L 573.882353 103.68 
z
" style="fill:#ffffff;"/>
   </g>
   <g id="matplotlib.axis_3">
    <g id="xtick_8">
     <g id="line2d_16">
      <g>
       <use style="stroke:#000000;stroke-width:0.8;" x="588.802139" xlink:href="#mdfd6b22468" y="400.189091"/>
      </g>
     </g>
     <g id="text_16">
      <!-- 2014-01 -->
      <g transform="translate(567.910733 414.787528)scale(0.1 -0.1)">
       <use xlink:href="#DejaVuSans-50"/>
       <use x="63.623047" xlink:href="#DejaVuSans-48"/>
       <use x="127.246094" xlink:href="#DejaVuSans-49"/>
       <use x="190.869141" xlink:href="#DejaVuSans-52"/>
       <use x="254.492188" xlink:href="#DejaVuSans-45"/>
       <use x="290.576172" xlink:href="#DejaVuSans-48"/>
       <use x="354.199219" xlink:href="#DejaVuSans-49"/>
      </g>
     </g>
    </g>
    <g id="xtick_9">
     <g id="line2d_17">
      <g>
       <use style="stroke:#000000;stroke-width:0.8;" x="637.168479" xlink:href="#mdfd6b22468" y="400.189091"/>
      </g>
     </g>
     <g id="text_17">
      <!-- 2014-03 -->
      <g transform="translate(616.277072 414.787528)scale(0.1 -0.1)">
       <use xlink:href="#DejaVuSans-50"/>
       <use x="63.623047" xlink:href="#DejaVuSans-48"/>
       <use x="127.246094" xlink:href="#DejaVuSans-49"/>
       <use x="190.869141" xlink:href="#DejaVuSans-52"/>
       <use x="254.492188" xlink:href="#DejaVuSans-45"/>
       <use x="290.576172" xlink:href="#DejaVuSans-48"/>
       <use x="354.199219" xlink:href="#DejaVuSans-51"/>
      </g>
     </g>
    </g>
    <g id="xtick_10">
     <g id="line2d_18">
      <g>
       <use style="stroke:#000000;stroke-width:0.8;" x="687.174355" xlink:href="#mdfd6b22468" y="400.189091"/>
      </g>
     </g>
     <g id="text_18">
      <!-- 2014-05 -->
      <g transform="translate(666.282949 414.787528)scale(0.1 -0.1)">
       <use xlink:href="#DejaVuSans-50"/>
       <use x="63.623047" xlink:href="#DejaVuSans-48"/>
       <use x="127.246094" xlink:href="#DejaVuSans-49"/>
       <use x="190.869141" xlink:href="#DejaVuSans-52"/>
       <use x="254.492188" xlink:href="#DejaVuSans-45"/>
       <use x="290.576172" xlink:href="#DejaVuSans-48"/>
       <use x="354.199219" xlink:href="#DejaVuSans-53"/>
      </g>
     </g>
    </g>
    <g id="xtick_11">
     <g id="line2d_19">
      <g>
       <use style="stroke:#000000;stroke-width:0.8;" x="737.180232" xlink:href="#mdfd6b22468" y="400.189091"/>
      </g>
     </g>
     <g id="text_19">
      <!-- 2014-07 -->
      <g transform="translate(716.288825 414.787528)scale(0.1 -0.1)">
       <use xlink:href="#DejaVuSans-50"/>
       <use x="63.623047" xlink:href="#DejaVuSans-48"/>
       <use x="127.246094" xlink:href="#DejaVuSans-49"/>
       <use x="190.869141" xlink:href="#DejaVuSans-52"/>
       <use x="254.492188" xlink:href="#DejaVuSans-45"/>
       <use x="290.576172" xlink:href="#DejaVuSans-48"/>
       <use x="354.199219" xlink:href="#DejaVuSans-55"/>
      </g>
     </g>
    </g>
    <g id="xtick_12">
     <g id="line2d_20">
      <g>
       <use style="stroke:#000000;stroke-width:0.8;" x="788.005876" xlink:href="#mdfd6b22468" y="400.189091"/>
      </g>
     </g>
     <g id="text_20">
      <!-- 2014-09 -->
      <g transform="translate(767.11447 414.787528)scale(0.1 -0.1)">
       <use xlink:href="#DejaVuSans-50"/>
       <use x="63.623047" xlink:href="#DejaVuSans-48"/>
       <use x="127.246094" xlink:href="#DejaVuSans-49"/>
       <use x="190.869141" xlink:href="#DejaVuSans-52"/>
       <use x="254.492188" xlink:href="#DejaVuSans-45"/>
       <use x="290.576172" xlink:href="#DejaVuSans-48"/>
       <use x="354.199219" xlink:href="#DejaVuSans-57"/>
      </g>
     </g>
    </g>
    <g id="xtick_13">
     <g id="line2d_21">
      <g>
       <use style="stroke:#000000;stroke-width:0.8;" x="838.011753" xlink:href="#mdfd6b22468" y="400.189091"/>
      </g>
     </g>
     <g id="text_21">
      <!-- 2014-11 -->
      <g transform="translate(817.120347 414.787528)scale(0.1 -0.1)">
       <use xlink:href="#DejaVuSans-50"/>
       <use x="63.623047" xlink:href="#DejaVuSans-48"/>
       <use x="127.246094" xlink:href="#DejaVuSans-49"/>
       <use x="190.869141" xlink:href="#DejaVuSans-52"/>
       <use x="254.492188" xlink:href="#DejaVuSans-45"/>
       <use x="290.576172" xlink:href="#DejaVuSans-49"/>
       <use x="354.199219" xlink:href="#DejaVuSans-49"/>
      </g>
     </g>
    </g>
    <g id="xtick_14">
     <g id="line2d_22">
      <g>
       <use style="stroke:#000000;stroke-width:0.8;" x="888.017629" xlink:href="#mdfd6b22468" y="400.189091"/>
      </g>
     </g>
     <g id="text_22">
      <!-- 2015-01 -->
      <g transform="translate(867.126223 414.787528)scale(0.1 -0.1)">
       <use xlink:href="#DejaVuSans-50"/>
       <use x="63.623047" xlink:href="#DejaVuSans-48"/>
       <use x="127.246094" xlink:href="#DejaVuSans-49"/>
       <use x="190.869141" xlink:href="#DejaVuSans-53"/>
       <use x="254.492188" xlink:href="#DejaVuSans-45"/>
       <use x="290.576172" xlink:href="#DejaVuSans-48"/>
       <use x="354.199219" xlink:href="#DejaVuSans-49"/>
      </g>
     </g>
    </g>
   </g>
   <g id="matplotlib.axis_4">
    <g id="ytick_8">
     <g id="line2d_23">
      <g>
       <use style="stroke:#000000;stroke-width:0.8;" x="573.882353" xlink:href="#m57a52a1432" y="386.711405"/>
      </g>
     </g>
    </g>
    <g id="ytick_9">
     <g id="line2d_24">
      <g>
       <use style="stroke:#000000;stroke-width:0.8;" x="573.882353" xlink:href="#m57a52a1432" y="342.620102"/>
      </g>
     </g>
    </g>
    <g id="ytick_10">
     <g id="line2d_25">
      <g>
       <use style="stroke:#000000;stroke-width:0.8;" x="573.882353" xlink:href="#m57a52a1432" y="298.5288"/>
      </g>
     </g>
    </g>
    <g id="ytick_11">
     <g id="line2d_26">
      <g>
       <use style="stroke:#000000;stroke-width:0.8;" x="573.882353" xlink:href="#m57a52a1432" y="254.437497"/>
      </g>
     </g>
    </g>
    <g id="ytick_12">
     <g id="line2d_27">
      <g>
       <use style="stroke:#000000;stroke-width:0.8;" x="573.882353" xlink:href="#m57a52a1432" y="210.346194"/>
      </g>
     </g>
    </g>
    <g id="ytick_13">
     <g id="line2d_28">
      <g>
       <use style="stroke:#000000;stroke-width:0.8;" x="573.882353" xlink:href="#m57a52a1432" y="166.254891"/>
      </g>
     </g>
    </g>
    <g id="ytick_14">
     <g id="line2d_29">
      <g>
       <use style="stroke:#000000;stroke-width:0.8;" x="573.882353" xlink:href="#m57a52a1432" y="122.163589"/>
      </g>
     </g>
    </g>
   </g>
   <g id="line2d_30">
    <path clip-path="url(#p0f4a82f052)" d="M 588.802139 386.711405 
L 589.621908 354.684924 
L 590.441676 374.365636 
L 591.261444 385.706234 
L 592.081213 386.711405 
L 592.900981 384.638795 
L 593.72075 386.020527 
L 594.540518 386.711405 
L 595.360287 386.711405 
L 596.180055 379.661054 
L 596.999824 316.004596 
L 597.819592 280.872201 
L 598.639361 373.030298 
L 599.459129 342.403955 
L 600.278898 380.381643 
L 601.098666 386.711405 
L 610.116119 386.711405 
L 610.935888 383.778003 
L 611.755656 385.952572 
L 612.575425 386.711405 
L 615.03473 386.711405 
L 615.854498 346.173167 
L 616.674267 380.811185 
L 617.494035 307.323665 
L 618.313804 375.370299 
L 619.133572 386.711405 
L 621.592878 386.711405 
L 622.412646 327.365245 
L 623.232415 240.975704 
L 624.052183 349.597601 
L 624.871952 384.21122 
L 625.69172 379.930044 
L 626.511489 385.355133 
L 627.331257 386.711405 
L 629.790562 386.711405 
L 630.610331 272.77047 
L 631.430099 370.434129 
L 632.249868 386.711405 
L 633.889405 386.711405 
L 634.709173 380.765517 
L 635.528942 383.282475 
L 636.34871 386.391449 
L 637.168479 386.711405 
L 637.988247 386.711405 
L 638.808016 381.429082 
L 639.627784 383.053139 
L 640.447552 376.747474 
L 641.267321 385.340975 
L 642.087089 334.136965 
L 642.906858 379.18647 
L 643.726626 386.711405 
L 645.366163 386.711405 
L 646.185932 322.275041 
L 647.0057 377.526911 
L 647.825469 386.711405 
L 648.645237 386.711405 
L 649.465006 274.875558 
L 650.284774 272.583985 
L 651.104543 367.923637 
L 651.924311 386.031853 
L 652.744079 386.711405 
L 655.203385 386.711405 
L 656.023153 371.370521 
L 656.842922 384.154591 
L 657.66269 386.711405 
L 658.482459 386.711405 
L 659.302227 305.956572 
L 660.121996 197.147216 
L 660.941764 361.285676 
L 661.761533 386.711405 
L 665.040606 386.711405 
L 665.860375 374.394547 
L 666.680143 328.859899 
L 667.499912 194.721148 
L 668.31968 309.977746 
L 669.139449 379.506629 
L 669.959217 386.711405 
L 673.238291 386.711405 
L 674.05806 248.367028 
L 674.877828 364.410875 
L 675.697597 386.348977 
L 676.517365 383.064484 
L 677.337133 274.964855 
L 678.156902 370.877871 
L 678.97667 386.711405 
L 679.796439 386.711405 
L 680.616207 385.607222 
L 682.255744 386.711405 
L 683.075513 386.309449 
L 683.895281 386.711405 
L 684.71505 386.711405 
L 685.534818 231.299222 
L 686.354587 355.649913 
L 687.174355 374.28693 
L 687.994124 385.117289 
L 688.813892 386.711405 
L 693.732503 386.711405 
L 694.552271 308.247413 
L 695.37204 370.012051 
L 696.191808 385.927089 
L 697.011577 384.927603 
L 697.831345 386.456573 
L 698.651114 175.053762 
L 699.470882 356.457082 
L 700.290651 386.711405 
L 708.488335 386.711405 
L 709.308104 338.123067 
L 710.127872 332.531176 
L 710.947641 379.9726 
L 711.767409 372.222792 
L 712.587178 376.237811 
L 713.406946 384.143145 
L 714.226714 386.516034 
L 715.046483 386.711405 
L 716.68602 386.711405 
L 717.505788 320.821459 
L 718.325557 317.547981 
L 719.145325 374.729418 
L 719.965094 386.21873 
L 720.784862 329.5635 
L 721.604631 310.759081 
L 722.424399 377.014237 
L 723.244168 386.711405 
L 725.703473 386.711405 
L 726.523241 381.429082 
L 727.34301 385.649605 
L 728.162778 385.462892 
L 728.982547 386.533023 
L 729.802315 386.711405 
L 730.622084 386.711405 
L 731.441852 336.18212 
L 732.261621 377.909699 
L 733.081389 386.479225 
L 733.901158 384.104763 
L 734.720926 305.91957 
L 735.540695 366.792214 
L 736.360463 383.953472 
L 737.180232 386.490551 
L 738 386.711405 
L 738.819768 380.893231 
L 739.639537 385.547672 
L 740.459305 386.711405 
L 743.738379 386.711405 
L 744.558148 337.843473 
L 745.377916 373.489015 
L 746.197685 385.819493 
L 747.017453 386.711405 
L 748.65699 386.711405 
L 749.476759 380.05746 
L 750.296527 385.380616 
L 751.116295 386.711405 
L 751.936064 373.358211 
L 752.755832 314.042617 
L 753.575601 359.582588 
L 754.395369 380.309456 
L 755.215138 383.925232 
L 756.034906 386.394281 
L 756.854675 386.711405 
L 765.872128 386.711405 
L 766.691896 384.706902 
L 767.511665 386.043179 
L 768.331433 386.711405 
L 769.151202 386.711405 
L 769.97097 203.986624 
L 770.790739 358.995232 
L 771.610507 386.482056 
L 772.430276 386.711405 
L 775.709349 386.711405 
L 776.529118 325.55645 
L 777.348886 331.341038 
L 778.168655 375.587759 
L 778.988423 386.074325 
L 779.808192 386.711405 
L 786.36634 386.711405 
L 787.186108 334.136965 
L 788.005876 379.18647 
L 788.825645 386.711405 
L 789.645413 386.711405 
L 790.465182 372.916501 
L 791.28495 384.412254 
L 792.104719 386.711405 
L 792.924487 386.711405 
L 793.744256 342.341178 
L 794.564024 380.348755 
L 795.383793 386.711405 
L 797.02333 386.711405 
L 797.843098 384.630296 
L 798.662867 386.017696 
L 799.482635 376.199558 
L 800.302403 378.160376 
L 801.122172 385.740212 
L 801.94194 386.711405 
L 805.221014 386.711405 
L 806.040783 371.71989 
L 806.860551 384.420749 
L 807.68032 386.711405 
L 810.139625 386.711405 
L 811.779162 275.330595 
L 812.59893 371.961155 
L 813.418699 386.711405 
L 814.238467 381.093153 
L 815.058236 328.142147 
L 815.878004 378.509324 
L 816.697773 386.711405 
L 819.976847 386.711405 
L 820.796615 378.343516 
L 821.616384 385.207896 
L 822.436152 386.711405 
L 823.255921 274.79769 
L 824.075689 366.859232 
L 824.895457 386.159269 
L 825.715226 386.711405 
L 835.552448 386.711405 
L 836.372216 383.166441 
L 837.191984 385.825156 
L 838.011753 386.711405 
L 850.30828 386.711405 
L 851.128048 315.307079 
L 851.947817 373.874538 
L 852.767585 386.33482 
L 853.587354 386.711405 
L 855.226891 386.711405 
L 856.046659 383.512257 
L 856.866428 323.014162 
L 857.686196 377.7297 
L 858.505965 386.711405 
L 866.703649 386.711405 
L 867.523418 373.188323 
L 868.343186 384.457558 
L 869.162955 386.711405 
L 874.081565 386.711405 
L 874.901334 379.590267 
L 875.721102 385.287177 
L 876.540871 386.711405 
L 877.360639 386.711405 
L 878.180408 373.579067 
L 879.000176 382.263137 
L 879.819945 386.388618 
L 880.639713 323.074927 
L 881.459482 141.624275 
L 882.27925 353.01719 
L 883.099019 386.711405 
L 883.918787 386.711405 
L 884.738556 269.767398 
L 885.558324 330.211121 
L 886.378092 381.030714 
L 887.197861 386.711405 
L 887.197861 386.711405 
" style="fill:none;stroke:#1f77b4;stroke-linecap:square;stroke-width:1.5;"/>
   </g>
   <g id="patch_8">
    <path d="M 573.882353 400.189091 
L 573.882353 103.68 
" style="fill:none;stroke:#000000;stroke-linecap:square;stroke-linejoin:miter;stroke-width:0.8;"/>
   </g>
   <g id="patch_9">
    <path d="M 902.117647 400.189091 
L 902.117647 103.68 
" style="fill:none;stroke:#000000;stroke-linecap:square;stroke-linejoin:miter;stroke-width:0.8;"/>
   </g>
   <g id="patch_10">
    <path d="M 573.882353 400.189091 
L 902.117647 400.189091 
" style="fill:none;stroke:#000000;stroke-linecap:square;stroke-linejoin:miter;stroke-width:0.8;"/>
   </g>
   <g id="patch_11">
    <path d="M 573.882353 103.68 
L 902.117647 103.68 
" style="fill:none;stroke:#000000;stroke-linecap:square;stroke-linejoin:miter;stroke-width:0.8;"/>
   </g>
   <g id="text_23">
    <!-- 03:00:00 -->
    <g transform="translate(711.0525 97.68)scale(0.12 -0.12)">
     <use xlink:href="#DejaVuSans-48"/>
     <use x="63.623047" xlink:href="#DejaVuSans-51"/>
     <use x="127.246094" xlink:href="#DejaVuSans-58"/>
     <use x="160.9375" xlink:href="#DejaVuSans-48"/>
     <use x="224.560547" xlink:href="#DejaVuSans-48"/>
     <use x="288.183594" xlink:href="#DejaVuSans-58"/>
     <use x="321.875" xlink:href="#DejaVuSans-48"/>
     <use x="385.498047" xlink:href="#DejaVuSans-48"/>
    </g>
   </g>
  </g>
  <g id="axes_3">
   <g id="patch_12">
    <path d="M 967.764706 400.189091 
L 1296 400.189091 
L 1296 103.68 
L 967.764706 103.68 
z
" style="fill:#ffffff;"/>
   </g>
   <g id="matplotlib.axis_5">
    <g id="xtick_15">
     <g id="line2d_31">
      <g>
       <use style="stroke:#000000;stroke-width:0.8;" x="982.684492" xlink:href="#mdfd6b22468" y="400.189091"/>
      </g>
     </g>
     <g id="text_24">
      <!-- 2014-01 -->
      <g transform="translate(961.793086 414.787528)scale(0.1 -0.1)">
       <use xlink:href="#DejaVuSans-50"/>
       <use x="63.623047" xlink:href="#DejaVuSans-48"/>
       <use x="127.246094" xlink:href="#DejaVuSans-49"/>
       <use x="190.869141" xlink:href="#DejaVuSans-52"/>
       <use x="254.492188" xlink:href="#DejaVuSans-45"/>
       <use x="290.576172" xlink:href="#DejaVuSans-48"/>
       <use x="354.199219" xlink:href="#DejaVuSans-49"/>
      </g>
     </g>
    </g>
    <g id="xtick_16">
     <g id="line2d_32">
      <g>
       <use style="stroke:#000000;stroke-width:0.8;" x="1031.050832" xlink:href="#mdfd6b22468" y="400.189091"/>
      </g>
     </g>
     <g id="text_25">
      <!-- 2014-03 -->
      <g transform="translate(1010.159425 414.787528)scale(0.1 -0.1)">
       <use xlink:href="#DejaVuSans-50"/>
       <use x="63.623047" xlink:href="#DejaVuSans-48"/>
       <use x="127.246094" xlink:href="#DejaVuSans-49"/>
       <use x="190.869141" xlink:href="#DejaVuSans-52"/>
       <use x="254.492188" xlink:href="#DejaVuSans-45"/>
       <use x="290.576172" xlink:href="#DejaVuSans-48"/>
       <use x="354.199219" xlink:href="#DejaVuSans-51"/>
      </g>
     </g>
    </g>
    <g id="xtick_17">
     <g id="line2d_33">
      <g>
       <use style="stroke:#000000;stroke-width:0.8;" x="1081.056708" xlink:href="#mdfd6b22468" y="400.189091"/>
      </g>
     </g>
     <g id="text_26">
      <!-- 2014-05 -->
      <g transform="translate(1060.165302 414.787528)scale(0.1 -0.1)">
       <use xlink:href="#DejaVuSans-50"/>
       <use x="63.623047" xlink:href="#DejaVuSans-48"/>
       <use x="127.246094" xlink:href="#DejaVuSans-49"/>
       <use x="190.869141" xlink:href="#DejaVuSans-52"/>
       <use x="254.492188" xlink:href="#DejaVuSans-45"/>
       <use x="290.576172" xlink:href="#DejaVuSans-48"/>
       <use x="354.199219" xlink:href="#DejaVuSans-53"/>
      </g>
     </g>
    </g>
    <g id="xtick_18">
     <g id="line2d_34">
      <g>
       <use style="stroke:#000000;stroke-width:0.8;" x="1131.062584" xlink:href="#mdfd6b22468" y="400.189091"/>
      </g>
     </g>
     <g id="text_27">
      <!-- 2014-07 -->
      <g transform="translate(1110.171178 414.787528)scale(0.1 -0.1)">
       <use xlink:href="#DejaVuSans-50"/>
       <use x="63.623047" xlink:href="#DejaVuSans-48"/>
       <use x="127.246094" xlink:href="#DejaVuSans-49"/>
       <use x="190.869141" xlink:href="#DejaVuSans-52"/>
       <use x="254.492188" xlink:href="#DejaVuSans-45"/>
       <use x="290.576172" xlink:href="#DejaVuSans-48"/>
       <use x="354.199219" xlink:href="#DejaVuSans-55"/>
      </g>
     </g>
    </g>
    <g id="xtick_19">
     <g id="line2d_35">
      <g>
       <use style="stroke:#000000;stroke-width:0.8;" x="1181.888229" xlink:href="#mdfd6b22468" y="400.189091"/>
      </g>
     </g>
     <g id="text_28">
      <!-- 2014-09 -->
      <g transform="translate(1160.996823 414.787528)scale(0.1 -0.1)">
       <use xlink:href="#DejaVuSans-50"/>
       <use x="63.623047" xlink:href="#DejaVuSans-48"/>
       <use x="127.246094" xlink:href="#DejaVuSans-49"/>
       <use x="190.869141" xlink:href="#DejaVuSans-52"/>
       <use x="254.492188" xlink:href="#DejaVuSans-45"/>
       <use x="290.576172" xlink:href="#DejaVuSans-48"/>
       <use x="354.199219" xlink:href="#DejaVuSans-57"/>
      </g>
     </g>
    </g>
    <g id="xtick_20">
     <g id="line2d_36">
      <g>
       <use style="stroke:#000000;stroke-width:0.8;" x="1231.894106" xlink:href="#mdfd6b22468" y="400.189091"/>
      </g>
     </g>
     <g id="text_29">
      <!-- 2014-11 -->
      <g transform="translate(1211.0027 414.787528)scale(0.1 -0.1)">
       <use xlink:href="#DejaVuSans-50"/>
       <use x="63.623047" xlink:href="#DejaVuSans-48"/>
       <use x="127.246094" xlink:href="#DejaVuSans-49"/>
       <use x="190.869141" xlink:href="#DejaVuSans-52"/>
       <use x="254.492188" xlink:href="#DejaVuSans-45"/>
       <use x="290.576172" xlink:href="#DejaVuSans-49"/>
       <use x="354.199219" xlink:href="#DejaVuSans-49"/>
      </g>
     </g>
    </g>
    <g id="xtick_21">
     <g id="line2d_37">
      <g>
       <use style="stroke:#000000;stroke-width:0.8;" x="1281.899982" xlink:href="#mdfd6b22468" y="400.189091"/>
      </g>
     </g>
     <g id="text_30">
      <!-- 2015-01 -->
      <g transform="translate(1261.008576 414.787528)scale(0.1 -0.1)">
       <use xlink:href="#DejaVuSans-50"/>
       <use x="63.623047" xlink:href="#DejaVuSans-48"/>
       <use x="127.246094" xlink:href="#DejaVuSans-49"/>
       <use x="190.869141" xlink:href="#DejaVuSans-53"/>
       <use x="254.492188" xlink:href="#DejaVuSans-45"/>
       <use x="290.576172" xlink:href="#DejaVuSans-48"/>
       <use x="354.199219" xlink:href="#DejaVuSans-49"/>
      </g>
     </g>
    </g>
   </g>
   <g id="matplotlib.axis_6">
    <g id="ytick_15">
     <g id="line2d_38">
      <g>
       <use style="stroke:#000000;stroke-width:0.8;" x="967.764706" xlink:href="#m57a52a1432" y="386.711405"/>
      </g>
     </g>
    </g>
    <g id="ytick_16">
     <g id="line2d_39">
      <g>
       <use style="stroke:#000000;stroke-width:0.8;" x="967.764706" xlink:href="#m57a52a1432" y="342.620102"/>
      </g>
     </g>
    </g>
    <g id="ytick_17">
     <g id="line2d_40">
      <g>
       <use style="stroke:#000000;stroke-width:0.8;" x="967.764706" xlink:href="#m57a52a1432" y="298.5288"/>
      </g>
     </g>
    </g>
    <g id="ytick_18">
     <g id="line2d_41">
      <g>
       <use style="stroke:#000000;stroke-width:0.8;" x="967.764706" xlink:href="#m57a52a1432" y="254.437497"/>
      </g>
     </g>
    </g>
    <g id="ytick_19">
     <g id="line2d_42">
      <g>
       <use style="stroke:#000000;stroke-width:0.8;" x="967.764706" xlink:href="#m57a52a1432" y="210.346194"/>
      </g>
     </g>
    </g>
    <g id="ytick_20">
     <g id="line2d_43">
      <g>
       <use style="stroke:#000000;stroke-width:0.8;" x="967.764706" xlink:href="#m57a52a1432" y="166.254891"/>
      </g>
     </g>
    </g>
    <g id="ytick_21">
     <g id="line2d_44">
      <g>
       <use style="stroke:#000000;stroke-width:0.8;" x="967.764706" xlink:href="#m57a52a1432" y="122.163589"/>
      </g>
     </g>
    </g>
   </g>
   <g id="line2d_45">
    <path clip-path="url(#pf4bb367e05)" d="M 982.684492 386.711405 
L 983.50426 354.715766 
L 985.143797 384.701064 
L 985.963566 386.711405 
L 986.783334 385.329649 
L 987.603103 385.329649 
L 988.422871 386.711405 
L 989.24264 386.711405 
L 990.062408 381.071124 
L 990.882177 324.489503 
L 991.701945 284.82312 
L 992.521714 359.349192 
L 993.341482 348.732957 
L 994.161251 374.051882 
L 994.981019 386.711405 
L 1003.998472 386.711405 
L 1004.818241 383.879933 
L 1006.457778 386.711405 
L 1008.917083 386.711405 
L 1009.736851 351.31258 
L 1010.55662 374.910965 
L 1011.376388 318.66477 
L 1012.196157 364.029193 
L 1013.015925 386.711405 
L 1015.475231 386.711405 
L 1016.294999 336.022377 
L 1017.114768 252.14006 
L 1017.934536 332.485275 
L 1018.754305 381.711035 
L 1019.574073 381.286316 
L 1021.21361 386.711405 
L 1023.672915 386.711405 
L 1024.492684 289.047749 
L 1025.312452 354.156853 
L 1026.132221 386.711405 
L 1027.771758 386.711405 
L 1028.591526 381.954541 
L 1029.411295 382.413239 
L 1030.231063 386.071494 
L 1031.050832 386.711405 
L 1031.8706 386.711405 
L 1032.690368 382.464205 
L 1033.510137 382.362273 
L 1034.329905 377.746982 
L 1035.149674 383.970545 
L 1035.969442 341.611825 
L 1036.789211 371.661536 
L 1037.608979 386.711405 
L 1039.248516 386.711405 
L 1040.068285 331.603929 
L 1040.888053 368.342417 
L 1041.707822 386.711405 
L 1042.52759 386.711405 
L 1043.347359 290.852124 
L 1044.167127 270.562254 
L 1044.986895 354.572291 
L 1045.806664 385.352301 
L 1046.626432 386.711405 
L 1049.085738 386.711405 
L 1049.905506 371.370521 
L 1050.725275 381.597777 
L 1051.545043 386.711405 
L 1052.364812 386.711405 
L 1053.18458 317.492974 
L 1054.004349 211.033878 
L 1054.824117 335.859947 
L 1055.643886 386.711405 
L 1058.922959 386.711405 
L 1059.742728 374.394569 
L 1060.562496 334.775069 
L 1061.382265 212.983867 
L 1063.021802 372.301853 
L 1063.84157 386.711405 
L 1067.120644 386.711405 
L 1067.940413 268.130433 
L 1068.760181 345.009851 
L 1069.579949 385.98655 
L 1070.399718 383.064491 
L 1071.219486 289.886685 
L 1072.039255 355.044336 
L 1072.859023 386.711405 
L 1073.678792 386.711405 
L 1074.49856 385.607311 
L 1075.318329 385.607133 
L 1076.138097 386.711405 
L 1076.957866 385.907494 
L 1077.777634 386.711405 
L 1078.597403 386.711405 
L 1079.417171 253.500877 
L 1080.23694 334.713745 
L 1081.056708 374.61538 
L 1081.876476 383.523174 
L 1082.696245 386.711405 
L 1087.614856 386.711405 
L 1088.434624 319.456567 
L 1089.254393 359.587229 
L 1090.074161 385.142773 
L 1090.89393 385.182413 
L 1091.713698 386.201741 
L 1092.533467 205.277281 
L 1093.353235 326.202759 
L 1094.173003 386.711405 
L 1102.370688 386.711405 
L 1103.190457 345.085523 
L 1104.010225 332.336714 
L 1104.829994 373.233796 
L 1106.46953 375.368551 
L 1107.289299 383.138094 
L 1108.109067 386.320663 
L 1108.928836 386.711405 
L 1110.568373 386.711405 
L 1111.388141 330.127322 
L 1112.20791 316.650565 
L 1113.027678 366.688852 
L 1113.847447 385.726055 
L 1114.667215 337.756157 
L 1115.486984 312.210606 
L 1116.306752 367.317069 
L 1117.126521 386.711405 
L 1119.585826 386.711405 
L 1120.405594 382.464205 
L 1121.225363 384.587805 
L 1122.045131 385.641111 
L 1122.8649 386.35464 
L 1123.684668 386.711405 
L 1124.504437 386.711405 
L 1125.324205 343.364776 
L 1126.143974 370.965687 
L 1126.963742 386.247044 
L 1127.783511 384.454172 
L 1128.603279 316.616674 
L 1129.423048 356.567964 
L 1130.242816 382.962543 
L 1131.062584 386.269696 
L 1131.882353 386.711405 
L 1132.702121 382.056474 
L 1134.341658 386.711405 
L 1137.620732 386.711405 
L 1138.440501 344.809554 
L 1139.260269 367.40192 
L 1140.080038 384.927581 
L 1140.899806 386.711405 
L 1142.539343 386.711405 
L 1143.359111 381.388249 
L 1144.998648 386.711405 
L 1145.818417 373.358213 
L 1146.638185 321.877968 
L 1148.277722 378.437861 
L 1149.097491 383.676073 
L 1149.917259 386.077157 
L 1150.737028 386.711405 
L 1159.754481 386.711405 
L 1160.574249 385.374953 
L 1161.394018 385.374953 
L 1162.213786 386.711405 
L 1163.033555 386.711405 
L 1163.853323 230.080615 
L 1164.673092 333.114211 
L 1165.49286 386.252707 
L 1166.312629 386.711405 
L 1169.591702 386.711405 
L 1170.411471 334.317746 
L 1171.231239 329.334401 
L 1172.051008 369.560759 
L 1172.870776 385.437245 
L 1173.690545 386.711405 
L 1180.248692 386.711405 
L 1181.068461 341.611825 
L 1181.888229 371.661536 
L 1182.707998 386.711405 
L 1183.527766 386.711405 
L 1184.347535 372.916502 
L 1185.167303 382.113104 
L 1185.987072 386.711405 
L 1186.80684 386.711405 
L 1187.626609 348.737223 
L 1188.446377 373.986105 
L 1189.266146 386.711405 
L 1190.905683 386.711405 
L 1191.725451 385.323986 
L 1192.545219 385.323986 
L 1193.364988 376.203777 
L 1194.184756 377.378892 
L 1195.004525 384.769019 
L 1195.824293 386.711405 
L 1199.103367 386.711405 
L 1199.923136 372.967467 
L 1200.742904 382.130092 
L 1201.562673 386.711405 
L 1204.021978 386.711405 
L 1204.841746 337.99107 
L 1205.661515 281.955306 
L 1206.481283 357.210906 
L 1207.301052 386.711405 
L 1208.12082 382.215036 
L 1208.940589 335.228696 
L 1209.760357 370.307243 
L 1210.580126 386.711405 
L 1213.8592 386.711405 
L 1214.678968 378.996679 
L 1215.498737 383.704388 
L 1216.318505 386.711405 
L 1217.138273 290.785784 
L 1217.958042 351.424163 
L 1218.77781 385.607133 
L 1219.597579 386.711405 
L 1229.4348 386.711405 
L 1230.254569 383.166473 
L 1231.894106 386.711405 
L 1244.190633 386.711405 
L 1245.010401 325.506075 
L 1245.83017 364.050412 
L 1246.649938 385.958235 
L 1247.469707 386.711405 
L 1249.109244 386.711405 
L 1249.929012 383.518328 
L 1250.748781 331.218556 
L 1251.568549 368.747995 
L 1252.388318 386.711405 
L 1260.586002 386.711405 
L 1261.405771 373.188324 
L 1262.225539 382.203711 
L 1263.045308 386.711405 
L 1267.963918 386.711405 
L 1268.783687 381.014494 
L 1270.423224 386.711405 
L 1271.242992 386.711405 
L 1272.062761 373.579069 
L 1272.882529 380.397235 
L 1273.702298 386.065831 
L 1274.522066 332.1846 
L 1275.341835 166.289749 
L 1276.161603 319.322975 
L 1276.981372 386.711405 
L 1277.80114 386.711405 
L 1278.620909 286.343523 
L 1279.440677 319.246716 
L 1280.260445 375.350023 
L 1281.080214 386.711405 
L 1281.080214 386.711405 
" style="fill:none;stroke:#1f77b4;stroke-linecap:square;stroke-width:1.5;"/>
   </g>
   <g id="patch_13">
    <path d="M 967.764706 400.189091 
L 967.764706 103.68 
" style="fill:none;stroke:#000000;stroke-linecap:square;stroke-linejoin:miter;stroke-width:0.8;"/>
   </g>
   <g id="patch_14">
    <path d="M 1296 400.189091 
L 1296 103.68 
" style="fill:none;stroke:#000000;stroke-linecap:square;stroke-linejoin:miter;stroke-width:0.8;"/>
   </g>
   <g id="patch_15">
    <path d="M 967.764706 400.189091 
L 1296 400.189091 
" style="fill:none;stroke:#000000;stroke-linecap:square;stroke-linejoin:miter;stroke-width:0.8;"/>
   </g>
   <g id="patch_16">
    <path d="M 967.764706 103.68 
L 1296 103.68 
" style="fill:none;stroke:#000000;stroke-linecap:square;stroke-linejoin:miter;stroke-width:0.8;"/>
   </g>
   <g id="text_31">
    <!-- 06:00:00 -->
    <g transform="translate(1104.934853 97.68)scale(0.12 -0.12)">
     <use xlink:href="#DejaVuSans-48"/>
     <use x="63.623047" xlink:href="#DejaVuSans-54"/>
     <use x="127.246094" xlink:href="#DejaVuSans-58"/>
     <use x="160.9375" xlink:href="#DejaVuSans-48"/>
     <use x="224.560547" xlink:href="#DejaVuSans-48"/>
     <use x="288.183594" xlink:href="#DejaVuSans-58"/>
     <use x="321.875" xlink:href="#DejaVuSans-48"/>
     <use x="385.498047" xlink:href="#DejaVuSans-48"/>
    </g>
   </g>
  </g>
  <g id="axes_4">
   <g id="patch_17">
    <path d="M 180 756 
L 508.235294 756 
L 508.235294 459.490909 
L 180 459.490909 
z
" style="fill:#ffffff;"/>
   </g>
   <g id="matplotlib.axis_7">
    <g id="xtick_22">
     <g id="line2d_46">
      <g>
       <use style="stroke:#000000;stroke-width:0.8;" x="194.919786" xlink:href="#mdfd6b22468" y="756"/>
      </g>
     </g>
     <g id="text_32">
      <!-- 2014-01 -->
      <g transform="translate(174.02838 770.598437)scale(0.1 -0.1)">
       <use xlink:href="#DejaVuSans-50"/>
       <use x="63.623047" xlink:href="#DejaVuSans-48"/>
       <use x="127.246094" xlink:href="#DejaVuSans-49"/>
       <use x="190.869141" xlink:href="#DejaVuSans-52"/>
       <use x="254.492188" xlink:href="#DejaVuSans-45"/>
       <use x="290.576172" xlink:href="#DejaVuSans-48"/>
       <use x="354.199219" xlink:href="#DejaVuSans-49"/>
      </g>
     </g>
    </g>
    <g id="xtick_23">
     <g id="line2d_47">
      <g>
       <use style="stroke:#000000;stroke-width:0.8;" x="243.286126" xlink:href="#mdfd6b22468" y="756"/>
      </g>
     </g>
     <g id="text_33">
      <!-- 2014-03 -->
      <g transform="translate(222.394719 770.598437)scale(0.1 -0.1)">
       <use xlink:href="#DejaVuSans-50"/>
       <use x="63.623047" xlink:href="#DejaVuSans-48"/>
       <use x="127.246094" xlink:href="#DejaVuSans-49"/>
       <use x="190.869141" xlink:href="#DejaVuSans-52"/>
       <use x="254.492188" xlink:href="#DejaVuSans-45"/>
       <use x="290.576172" xlink:href="#DejaVuSans-48"/>
       <use x="354.199219" xlink:href="#DejaVuSans-51"/>
      </g>
     </g>
    </g>
    <g id="xtick_24">
     <g id="line2d_48">
      <g>
       <use style="stroke:#000000;stroke-width:0.8;" x="293.292002" xlink:href="#mdfd6b22468" y="756"/>
      </g>
     </g>
     <g id="text_34">
      <!-- 2014-05 -->
      <g transform="translate(272.400596 770.598437)scale(0.1 -0.1)">
       <use xlink:href="#DejaVuSans-50"/>
       <use x="63.623047" xlink:href="#DejaVuSans-48"/>
       <use x="127.246094" xlink:href="#DejaVuSans-49"/>
       <use x="190.869141" xlink:href="#DejaVuSans-52"/>
       <use x="254.492188" xlink:href="#DejaVuSans-45"/>
       <use x="290.576172" xlink:href="#DejaVuSans-48"/>
       <use x="354.199219" xlink:href="#DejaVuSans-53"/>
      </g>
     </g>
    </g>
    <g id="xtick_25">
     <g id="line2d_49">
      <g>
       <use style="stroke:#000000;stroke-width:0.8;" x="343.297879" xlink:href="#mdfd6b22468" y="756"/>
      </g>
     </g>
     <g id="text_35">
      <!-- 2014-07 -->
      <g transform="translate(322.406472 770.598437)scale(0.1 -0.1)">
       <use xlink:href="#DejaVuSans-50"/>
       <use x="63.623047" xlink:href="#DejaVuSans-48"/>
       <use x="127.246094" xlink:href="#DejaVuSans-49"/>
       <use x="190.869141" xlink:href="#DejaVuSans-52"/>
       <use x="254.492188" xlink:href="#DejaVuSans-45"/>
       <use x="290.576172" xlink:href="#DejaVuSans-48"/>
       <use x="354.199219" xlink:href="#DejaVuSans-55"/>
      </g>
     </g>
    </g>
    <g id="xtick_26">
     <g id="line2d_50">
      <g>
       <use style="stroke:#000000;stroke-width:0.8;" x="394.123524" xlink:href="#mdfd6b22468" y="756"/>
      </g>
     </g>
     <g id="text_36">
      <!-- 2014-09 -->
      <g transform="translate(373.232117 770.598437)scale(0.1 -0.1)">
       <use xlink:href="#DejaVuSans-50"/>
       <use x="63.623047" xlink:href="#DejaVuSans-48"/>
       <use x="127.246094" xlink:href="#DejaVuSans-49"/>
       <use x="190.869141" xlink:href="#DejaVuSans-52"/>
       <use x="254.492188" xlink:href="#DejaVuSans-45"/>
       <use x="290.576172" xlink:href="#DejaVuSans-48"/>
       <use x="354.199219" xlink:href="#DejaVuSans-57"/>
      </g>
     </g>
    </g>
    <g id="xtick_27">
     <g id="line2d_51">
      <g>
       <use style="stroke:#000000;stroke-width:0.8;" x="444.1294" xlink:href="#mdfd6b22468" y="756"/>
      </g>
     </g>
     <g id="text_37">
      <!-- 2014-11 -->
      <g transform="translate(423.237994 770.598437)scale(0.1 -0.1)">
       <use xlink:href="#DejaVuSans-50"/>
       <use x="63.623047" xlink:href="#DejaVuSans-48"/>
       <use x="127.246094" xlink:href="#DejaVuSans-49"/>
       <use x="190.869141" xlink:href="#DejaVuSans-52"/>
       <use x="254.492188" xlink:href="#DejaVuSans-45"/>
       <use x="290.576172" xlink:href="#DejaVuSans-49"/>
       <use x="354.199219" xlink:href="#DejaVuSans-49"/>
      </g>
     </g>
    </g>
    <g id="xtick_28">
     <g id="line2d_52">
      <g>
       <use style="stroke:#000000;stroke-width:0.8;" x="494.135276" xlink:href="#mdfd6b22468" y="756"/>
      </g>
     </g>
     <g id="text_38">
      <!-- 2015-01 -->
      <g transform="translate(473.24387 770.598437)scale(0.1 -0.1)">
       <use xlink:href="#DejaVuSans-50"/>
       <use x="63.623047" xlink:href="#DejaVuSans-48"/>
       <use x="127.246094" xlink:href="#DejaVuSans-49"/>
       <use x="190.869141" xlink:href="#DejaVuSans-53"/>
       <use x="254.492188" xlink:href="#DejaVuSans-45"/>
       <use x="290.576172" xlink:href="#DejaVuSans-48"/>
       <use x="354.199219" xlink:href="#DejaVuSans-49"/>
      </g>
     </g>
    </g>
   </g>
   <g id="matplotlib.axis_8">
    <g id="ytick_22">
     <g id="line2d_53">
      <g>
       <use style="stroke:#000000;stroke-width:0.8;" x="180" xlink:href="#m57a52a1432" y="742.522314"/>
      </g>
     </g>
     <g id="text_39">
      <!-- 0 -->
      <g transform="translate(166.6375 746.321533)scale(0.1 -0.1)">
       <use xlink:href="#DejaVuSans-48"/>
      </g>
     </g>
    </g>
    <g id="ytick_23">
     <g id="line2d_54">
      <g>
       <use style="stroke:#000000;stroke-width:0.8;" x="180" xlink:href="#m57a52a1432" y="698.431011"/>
      </g>
     </g>
     <g id="text_40">
      <!-- 1 -->
      <g transform="translate(166.6375 702.23023)scale(0.1 -0.1)">
       <use xlink:href="#DejaVuSans-49"/>
      </g>
     </g>
    </g>
    <g id="ytick_24">
     <g id="line2d_55">
      <g>
       <use style="stroke:#000000;stroke-width:0.8;" x="180" xlink:href="#m57a52a1432" y="654.339709"/>
      </g>
     </g>
     <g id="text_41">
      <!-- 2 -->
      <g transform="translate(166.6375 658.138927)scale(0.1 -0.1)">
       <use xlink:href="#DejaVuSans-50"/>
      </g>
     </g>
    </g>
    <g id="ytick_25">
     <g id="line2d_56">
      <g>
       <use style="stroke:#000000;stroke-width:0.8;" x="180" xlink:href="#m57a52a1432" y="610.248406"/>
      </g>
     </g>
     <g id="text_42">
      <!-- 3 -->
      <g transform="translate(166.6375 614.047625)scale(0.1 -0.1)">
       <use xlink:href="#DejaVuSans-51"/>
      </g>
     </g>
    </g>
    <g id="ytick_26">
     <g id="line2d_57">
      <g>
       <use style="stroke:#000000;stroke-width:0.8;" x="180" xlink:href="#m57a52a1432" y="566.157103"/>
      </g>
     </g>
     <g id="text_43">
      <!-- 4 -->
      <g transform="translate(166.6375 569.956322)scale(0.1 -0.1)">
       <use xlink:href="#DejaVuSans-52"/>
      </g>
     </g>
    </g>
    <g id="ytick_27">
     <g id="line2d_58">
      <g>
       <use style="stroke:#000000;stroke-width:0.8;" x="180" xlink:href="#m57a52a1432" y="522.065801"/>
      </g>
     </g>
     <g id="text_44">
      <!-- 5 -->
      <g transform="translate(166.6375 525.865019)scale(0.1 -0.1)">
       <use xlink:href="#DejaVuSans-53"/>
      </g>
     </g>
    </g>
    <g id="ytick_28">
     <g id="line2d_59">
      <g>
       <use style="stroke:#000000;stroke-width:0.8;" x="180" xlink:href="#m57a52a1432" y="477.974498"/>
      </g>
     </g>
     <g id="text_45">
      <!-- 6 -->
      <g transform="translate(166.6375 481.773717)scale(0.1 -0.1)">
       <use xlink:href="#DejaVuSans-54"/>
      </g>
     </g>
    </g>
   </g>
   <g id="line2d_60">
    <path clip-path="url(#p7b3e24f632)" d="M 194.919786 742.522314 
L 195.739555 721.148841 
L 196.559323 717.26333 
L 197.379091 738.501632 
L 198.19886 742.522314 
L 199.018628 742.522314 
L 199.838397 739.758803 
L 200.658165 742.522314 
L 201.477934 742.522314 
L 202.297702 736.882033 
L 203.117471 697.280853 
L 203.937239 648.196014 
L 204.757008 687.797888 
L 205.576776 717.203273 
L 206.396545 717.203268 
L 207.216313 742.522314 
L 216.233766 742.522314 
L 217.053535 739.894702 
L 217.873303 739.486982 
L 218.693072 742.522314 
L 221.152377 742.522314 
L 221.972146 718.922181 
L 222.791914 718.921435 
L 223.611682 697.157891 
L 224.431451 697.157891 
L 225.251219 742.522314 
L 227.710525 742.522314 
L 228.530293 708.72975 
L 229.350062 630.27971 
L 230.16983 654.071534 
L 230.989599 732.521574 
L 231.809367 737.097225 
L 232.629136 737.097225 
L 233.448904 742.522314 
L 235.908209 742.522314 
L 236.727978 677.41321 
L 237.547746 677.41321 
L 238.367515 742.522314 
L 240.007052 742.522314 
L 240.82682 737.76545 
L 241.646589 736.485628 
L 242.466357 741.242491 
L 243.286126 742.522314 
L 244.105894 742.522314 
L 244.925663 738.275114 
L 245.745431 736.791426 
L 246.5652 735.556907 
L 247.384968 737.040595 
L 248.204736 712.422045 
L 249.024505 712.422576 
L 249.844273 742.522314 
L 251.48381 742.522314 
L 252.303579 705.784338 
L 253.123347 705.784338 
L 253.943116 742.522314 
L 254.762884 742.522314 
L 256.402421 622.46602 
L 258.041958 739.804106 
L 258.861727 742.522314 
L 261.321032 742.522314 
L 262.1408 732.295058 
L 262.960569 732.295058 
L 263.780337 742.522314 
L 264.600106 742.522314 
L 265.419874 696.376694 
L 266.239643 594.625632 
L 267.059411 640.819398 
L 267.87918 742.522314 
L 271.158254 742.522314 
L 271.978022 734.311061 
L 272.79779 702.438687 
L 273.617559 605.445972 
L 274.437327 608.54939 
L 275.257096 713.703209 
L 276.076864 742.522314 
L 279.355938 742.522314 
L 280.175707 663.468338 
L 280.995475 662.018628 
L 281.815244 741.072603 
L 282.635012 738.875415 
L 283.454781 675.541232 
L 284.274549 679.188177 
L 285.094317 742.522314 
L 286.733854 742.522314 
L 287.553623 740.31377 
L 288.373391 742.522314 
L 289.19316 740.914492 
L 290.012928 742.522314 
L 290.832697 742.522314 
L 291.652465 653.715232 
L 292.472234 648.652318 
L 293.292002 731.08319 
L 294.111771 736.145851 
L 294.931539 742.522314 
L 299.85015 742.522314 
L 300.669918 697.685755 
L 301.489687 694.548491 
L 302.309455 739.385049 
L 303.129224 741.502986 
L 303.948992 741.502986 
L 304.768761 621.490285 
L 305.588529 621.505023 
L 306.408298 742.522314 
L 314.605982 742.522314 
L 316.245519 687.665219 
L 317.065288 715.567096 
L 317.885056 734.243106 
L 318.704825 729.44094 
L 319.524593 736.938662 
L 320.344362 741.740829 
L 321.16413 742.522314 
L 322.803667 742.522314 
L 324.443204 670.666642 
L 326.082741 740.551613 
L 326.902509 709.886114 
L 327.722278 671.098519 
L 328.542046 703.733642 
L 329.361815 742.522314 
L 331.82112 742.522314 
L 332.640889 738.275114 
L 333.460657 738.275114 
L 334.280425 741.808784 
L 335.100194 741.808784 
L 335.919962 742.522314 
L 336.739731 742.522314 
L 337.559499 713.626957 
L 338.379268 712.88832 
L 339.199036 741.593593 
L 340.018805 740.963899 
L 340.838573 693.821793 
L 341.658342 691.930373 
L 342.47811 736.791426 
L 343.297879 741.638897 
L 344.117647 742.522314 
L 344.937416 737.867383 
L 345.757184 737.867383 
L 346.576952 742.522314 
L 349.856026 742.522314 
L 350.675795 714.501284 
L 351.495563 711.03864 
L 352.315332 738.954666 
L 353.1351 742.522314 
L 354.774637 742.522314 
L 355.594406 737.199158 
L 356.414174 737.199158 
L 357.233943 742.522314 
L 358.053711 733.620184 
L 358.873479 693.365364 
L 359.693248 692.516463 
L 360.513016 730.505572 
L 361.332785 738.988644 
L 362.152553 741.253817 
L 362.972322 742.522314 
L 372.809543 742.522314 
L 373.629312 739.84941 
L 374.44908 742.522314 
L 375.268849 742.522314 
L 376.088617 638.068863 
L 376.908386 637.162716 
L 377.728154 741.604919 
L 378.547923 742.522314 
L 381.826997 742.522314 
L 382.646765 707.593227 
L 383.466533 680.978108 
L 384.286302 713.317661 
L 385.10607 739.973994 
L 385.925839 742.522314 
L 392.483987 742.522314 
L 393.303755 712.422045 
L 394.123524 712.422576 
L 394.943292 742.522314 
L 395.76306 742.522314 
L 396.582829 733.325711 
L 397.402597 733.325711 
L 398.222366 742.522314 
L 399.042134 742.522314 
L 399.861903 717.191573 
L 400.681671 717.071713 
L 401.50144 742.522314 
L 403.960745 742.522314 
L 404.780514 739.747477 
L 406.420051 731.626831 
L 407.239819 738.637542 
L 408.059587 742.522314 
L 411.338661 742.522314 
L 412.15843 733.359689 
L 412.978198 733.359689 
L 413.797967 742.522314 
L 416.257272 742.522314 
L 417.077041 710.057689 
L 417.896809 651.012397 
L 418.716578 683.521316 
L 419.536346 742.522314 
L 420.356114 738.025945 
L 421.175883 705.179089 
L 421.995651 709.71399 
L 422.81542 742.522314 
L 426.094494 742.522314 
L 426.914262 736.508279 
L 427.734031 736.508279 
L 428.553799 742.522314 
L 429.373568 678.572226 
L 430.193336 676.364917 
L 431.013105 740.31377 
L 431.832873 742.522314 
L 441.670095 742.522314 
L 442.489863 738.977446 
L 443.309632 738.977318 
L 444.1294 742.522314 
L 456.425927 742.522314 
L 457.245695 701.71895 
L 458.065464 700.213009 
L 458.885232 741.015974 
L 459.705001 742.522314 
L 461.344538 742.522314 
L 462.164306 739.341381 
L 462.984075 703.390275 
L 463.803843 706.595495 
L 464.623612 742.522314 
L 472.821296 742.522314 
L 473.641065 733.506926 
L 474.460833 733.506926 
L 475.280602 742.522314 
L 480.199213 742.522314 
L 481.018981 736.825403 
L 481.838749 736.825403 
L 482.658518 742.522314 
L 483.478286 742.522314 
L 484.298055 733.76742 
L 485.117823 732.476271 
L 485.937592 741.231165 
L 486.75736 706.17111 
L 487.577129 571.499288 
L 488.396897 607.745455 
L 489.216666 742.522314 
L 490.036434 742.522314 
L 490.856203 675.592373 
L 491.675971 653.027491 
L 492.49574 719.799549 
L 493.315508 742.522314 
L 493.315508 742.522314 
" style="fill:none;stroke:#1f77b4;stroke-linecap:square;stroke-width:1.5;"/>
   </g>
   <g id="patch_18">
    <path d="M 180 756 
L 180 459.490909 
" style="fill:none;stroke:#000000;stroke-linecap:square;stroke-linejoin:miter;stroke-width:0.8;"/>
   </g>
   <g id="patch_19">
    <path d="M 508.235294 756 
L 508.235294 459.490909 
" style="fill:none;stroke:#000000;stroke-linecap:square;stroke-linejoin:miter;stroke-width:0.8;"/>
   </g>
   <g id="patch_20">
    <path d="M 180 756 
L 508.235294 756 
" style="fill:none;stroke:#000000;stroke-linecap:square;stroke-linejoin:miter;stroke-width:0.8;"/>
   </g>
   <g id="patch_21">
    <path d="M 180 459.490909 
L 508.235294 459.490909 
" style="fill:none;stroke:#000000;stroke-linecap:square;stroke-linejoin:miter;stroke-width:0.8;"/>
   </g>
   <g id="text_46">
    <!-- 12:00:00 -->
    <g transform="translate(317.170147 453.490909)scale(0.12 -0.12)">
     <use xlink:href="#DejaVuSans-49"/>
     <use x="63.623047" xlink:href="#DejaVuSans-50"/>
     <use x="127.246094" xlink:href="#DejaVuSans-58"/>
     <use x="160.9375" xlink:href="#DejaVuSans-48"/>
     <use x="224.560547" xlink:href="#DejaVuSans-48"/>
     <use x="288.183594" xlink:href="#DejaVuSans-58"/>
     <use x="321.875" xlink:href="#DejaVuSans-48"/>
     <use x="385.498047" xlink:href="#DejaVuSans-48"/>
    </g>
   </g>
  </g>
  <g id="axes_5">
   <g id="patch_22">
    <path d="M 573.882353 756 
L 902.117647 756 
L 902.117647 459.490909 
L 573.882353 459.490909 
z
" style="fill:#ffffff;"/>
   </g>
   <g id="matplotlib.axis_9">
    <g id="xtick_29">
     <g id="line2d_61">
      <g>
       <use style="stroke:#000000;stroke-width:0.8;" x="588.802139" xlink:href="#mdfd6b22468" y="756"/>
      </g>
     </g>
     <g id="text_47">
      <!-- 2014-01 -->
      <g transform="translate(567.910733 770.598437)scale(0.1 -0.1)">
       <use xlink:href="#DejaVuSans-50"/>
       <use x="63.623047" xlink:href="#DejaVuSans-48"/>
       <use x="127.246094" xlink:href="#DejaVuSans-49"/>
       <use x="190.869141" xlink:href="#DejaVuSans-52"/>
       <use x="254.492188" xlink:href="#DejaVuSans-45"/>
       <use x="290.576172" xlink:href="#DejaVuSans-48"/>
       <use x="354.199219" xlink:href="#DejaVuSans-49"/>
      </g>
     </g>
    </g>
    <g id="xtick_30">
     <g id="line2d_62">
      <g>
       <use style="stroke:#000000;stroke-width:0.8;" x="637.168479" xlink:href="#mdfd6b22468" y="756"/>
      </g>
     </g>
     <g id="text_48">
      <!-- 2014-03 -->
      <g transform="translate(616.277072 770.598437)scale(0.1 -0.1)">
       <use xlink:href="#DejaVuSans-50"/>
       <use x="63.623047" xlink:href="#DejaVuSans-48"/>
       <use x="127.246094" xlink:href="#DejaVuSans-49"/>
       <use x="190.869141" xlink:href="#DejaVuSans-52"/>
       <use x="254.492188" xlink:href="#DejaVuSans-45"/>
       <use x="290.576172" xlink:href="#DejaVuSans-48"/>
       <use x="354.199219" xlink:href="#DejaVuSans-51"/>
      </g>
     </g>
    </g>
    <g id="xtick_31">
     <g id="line2d_63">
      <g>
       <use style="stroke:#000000;stroke-width:0.8;" x="687.174355" xlink:href="#mdfd6b22468" y="756"/>
      </g>
     </g>
     <g id="text_49">
      <!-- 2014-05 -->
      <g transform="translate(666.282949 770.598437)scale(0.1 -0.1)">
       <use xlink:href="#DejaVuSans-50"/>
       <use x="63.623047" xlink:href="#DejaVuSans-48"/>
       <use x="127.246094" xlink:href="#DejaVuSans-49"/>
       <use x="190.869141" xlink:href="#DejaVuSans-52"/>
       <use x="254.492188" xlink:href="#DejaVuSans-45"/>
       <use x="290.576172" xlink:href="#DejaVuSans-48"/>
       <use x="354.199219" xlink:href="#DejaVuSans-53"/>
      </g>
     </g>
    </g>
    <g id="xtick_32">
     <g id="line2d_64">
      <g>
       <use style="stroke:#000000;stroke-width:0.8;" x="737.180232" xlink:href="#mdfd6b22468" y="756"/>
      </g>
     </g>
     <g id="text_50">
      <!-- 2014-07 -->
      <g transform="translate(716.288825 770.598437)scale(0.1 -0.1)">
       <use xlink:href="#DejaVuSans-50"/>
       <use x="63.623047" xlink:href="#DejaVuSans-48"/>
       <use x="127.246094" xlink:href="#DejaVuSans-49"/>
       <use x="190.869141" xlink:href="#DejaVuSans-52"/>
       <use x="254.492188" xlink:href="#DejaVuSans-45"/>
       <use x="290.576172" xlink:href="#DejaVuSans-48"/>
       <use x="354.199219" xlink:href="#DejaVuSans-55"/>
      </g>
     </g>
    </g>
    <g id="xtick_33">
     <g id="line2d_65">
      <g>
       <use style="stroke:#000000;stroke-width:0.8;" x="788.005876" xlink:href="#mdfd6b22468" y="756"/>
      </g>
     </g>
     <g id="text_51">
      <!-- 2014-09 -->
      <g transform="translate(767.11447 770.598437)scale(0.1 -0.1)">
       <use xlink:href="#DejaVuSans-50"/>
       <use x="63.623047" xlink:href="#DejaVuSans-48"/>
       <use x="127.246094" xlink:href="#DejaVuSans-49"/>
       <use x="190.869141" xlink:href="#DejaVuSans-52"/>
       <use x="254.492188" xlink:href="#DejaVuSans-45"/>
       <use x="290.576172" xlink:href="#DejaVuSans-48"/>
       <use x="354.199219" xlink:href="#DejaVuSans-57"/>
      </g>
     </g>
    </g>
    <g id="xtick_34">
     <g id="line2d_66">
      <g>
       <use style="stroke:#000000;stroke-width:0.8;" x="838.011753" xlink:href="#mdfd6b22468" y="756"/>
      </g>
     </g>
     <g id="text_52">
      <!-- 2014-11 -->
      <g transform="translate(817.120347 770.598437)scale(0.1 -0.1)">
       <use xlink:href="#DejaVuSans-50"/>
       <use x="63.623047" xlink:href="#DejaVuSans-48"/>
       <use x="127.246094" xlink:href="#DejaVuSans-49"/>
       <use x="190.869141" xlink:href="#DejaVuSans-52"/>
       <use x="254.492188" xlink:href="#DejaVuSans-45"/>
       <use x="290.576172" xlink:href="#DejaVuSans-49"/>
       <use x="354.199219" xlink:href="#DejaVuSans-49"/>
      </g>
     </g>
    </g>
    <g id="xtick_35">
     <g id="line2d_67">
      <g>
       <use style="stroke:#000000;stroke-width:0.8;" x="888.017629" xlink:href="#mdfd6b22468" y="756"/>
      </g>
     </g>
     <g id="text_53">
      <!-- 2015-01 -->
      <g transform="translate(867.126223 770.598437)scale(0.1 -0.1)">
       <use xlink:href="#DejaVuSans-50"/>
       <use x="63.623047" xlink:href="#DejaVuSans-48"/>
       <use x="127.246094" xlink:href="#DejaVuSans-49"/>
       <use x="190.869141" xlink:href="#DejaVuSans-53"/>
       <use x="254.492188" xlink:href="#DejaVuSans-45"/>
       <use x="290.576172" xlink:href="#DejaVuSans-48"/>
       <use x="354.199219" xlink:href="#DejaVuSans-49"/>
      </g>
     </g>
    </g>
   </g>
   <g id="matplotlib.axis_10">
    <g id="ytick_29">
     <g id="line2d_68">
      <g>
       <use style="stroke:#000000;stroke-width:0.8;" x="573.882353" xlink:href="#m57a52a1432" y="742.522314"/>
      </g>
     </g>
    </g>
    <g id="ytick_30">
     <g id="line2d_69">
      <g>
       <use style="stroke:#000000;stroke-width:0.8;" x="573.882353" xlink:href="#m57a52a1432" y="698.431011"/>
      </g>
     </g>
    </g>
    <g id="ytick_31">
     <g id="line2d_70">
      <g>
       <use style="stroke:#000000;stroke-width:0.8;" x="573.882353" xlink:href="#m57a52a1432" y="654.339709"/>
      </g>
     </g>
    </g>
    <g id="ytick_32">
     <g id="line2d_71">
      <g>
       <use style="stroke:#000000;stroke-width:0.8;" x="573.882353" xlink:href="#m57a52a1432" y="610.248406"/>
      </g>
     </g>
    </g>
    <g id="ytick_33">
     <g id="line2d_72">
      <g>
       <use style="stroke:#000000;stroke-width:0.8;" x="573.882353" xlink:href="#m57a52a1432" y="566.157103"/>
      </g>
     </g>
    </g>
    <g id="ytick_34">
     <g id="line2d_73">
      <g>
       <use style="stroke:#000000;stroke-width:0.8;" x="573.882353" xlink:href="#m57a52a1432" y="522.065801"/>
      </g>
     </g>
    </g>
    <g id="ytick_35">
     <g id="line2d_74">
      <g>
       <use style="stroke:#000000;stroke-width:0.8;" x="573.882353" xlink:href="#m57a52a1432" y="477.974498"/>
      </g>
     </g>
    </g>
   </g>
   <g id="line2d_75">
    <path clip-path="url(#p69ce812a2d)" d="M 588.802139 742.522314 
L 589.621908 742.522314 
L 590.441676 700.045709 
L 591.261444 734.48095 
L 592.081213 742.522314 
L 592.900981 742.522314 
L 593.72075 736.995291 
L 594.540518 742.522314 
L 596.180055 742.522314 
L 596.999824 731.241752 
L 597.819592 663.319922 
L 598.639361 633.073462 
L 599.459129 742.522314 
L 600.278898 691.884222 
L 601.098666 742.522314 
L 610.935888 742.522314 
L 611.755656 736.45165 
L 612.575425 742.522314 
L 615.854498 742.522314 
L 616.674267 695.320555 
L 617.494035 742.522314 
L 618.313804 651.793468 
L 619.133572 742.522314 
L 622.412646 742.522314 
L 623.232415 674.937186 
L 624.052183 585.622234 
L 624.871952 722.520835 
L 625.69172 742.522314 
L 626.511489 731.672135 
L 627.331257 742.522314 
L 630.610331 742.522314 
L 631.430099 612.304106 
L 632.249868 742.522314 
L 634.709173 742.522314 
L 635.528942 733.008587 
L 636.34871 739.962668 
L 637.168479 742.522314 
L 638.808016 742.522314 
L 639.627784 734.027915 
L 640.447552 739.554938 
L 641.267321 731.558876 
L 642.087089 742.522314 
L 642.906858 682.322837 
L 643.726626 742.522314 
L 646.185932 742.522314 
L 647.0057 669.046362 
L 647.825469 742.522314 
L 649.465006 742.522314 
L 650.284774 614.710072 
L 651.104543 630.275108 
L 651.924311 737.085898 
L 652.744079 742.522314 
L 656.023153 742.522314 
L 656.842922 722.067802 
L 657.66269 742.522314 
L 659.302227 742.522314 
L 660.121996 650.231073 
L 660.941764 539.116482 
L 661.761533 742.522314 
L 665.860375 742.522314 
L 666.680143 726.099808 
L 667.499912 678.690209 
L 668.31968 532.199842 
L 669.139449 684.884105 
L 669.959217 742.522314 
L 674.05806 742.522314 
L 674.877828 584.414363 
L 675.697597 739.622893 
L 676.517365 742.522314 
L 677.337133 735.228456 
L 678.156902 615.85404 
L 678.97667 742.522314 
L 680.616207 742.522314 
L 681.435976 738.105226 
L 682.255744 742.522314 
L 683.075513 739.30667 
L 683.895281 742.522314 
L 685.534818 742.522314 
L 686.354587 564.907646 
L 687.174355 732.396991 
L 687.994124 729.769389 
L 688.813892 742.522314 
L 694.552271 742.522314 
L 695.37204 652.849196 
L 696.191808 736.247785 
L 697.011577 742.522314 
L 697.831345 740.483658 
L 698.651114 742.522314 
L 699.470882 500.487731 
L 700.290651 742.522314 
L 709.308104 742.522314 
L 710.127872 687.021159 
L 710.947641 688.611878 
L 711.767409 742.522314 
L 712.587178 725.963899 
L 713.406946 732.91798 
L 714.226714 740.959345 
L 715.046483 742.522314 
L 717.505788 742.522314 
L 718.325557 667.076977 
L 719.145325 674.256306 
L 719.965094 738.580913 
L 720.784862 742.522314 
L 721.604631 677.252121 
L 722.424399 664.944969 
L 723.244168 742.522314 
L 726.523241 742.522314 
L 727.34301 734.027915 
L 728.162778 742.522314 
L 728.982547 741.095255 
L 729.802315 742.522314 
L 731.441852 742.522314 
L 732.261621 685.111767 
L 733.081389 740.664872 
L 733.901158 742.522314 
L 734.720926 736.610212 
L 735.540695 651.033374 
L 736.360463 732.827373 
L 737.180232 740.755479 
L 738 742.522314 
L 738.819768 742.522314 
L 739.639537 733.212452 
L 740.459305 742.522314 
L 744.558148 742.522314 
L 745.377916 686.690261 
L 746.197685 735.387019 
L 747.017453 742.522314 
L 749.476759 742.522314 
L 750.296527 731.876001 
L 751.116295 742.522314 
L 751.936064 742.522314 
L 752.755832 724.718054 
L 753.575601 662.013751 
L 754.395369 723.019175 
L 755.215138 737.991968 
L 756.034906 739.98532 
L 756.854675 742.522314 
L 766.691896 742.522314 
L 767.511665 737.176506 
L 768.331433 742.522314 
L 769.97097 742.522314 
L 770.790739 533.637909 
L 771.610507 740.687524 
L 772.430276 742.522314 
L 776.529118 742.522314 
L 777.348886 672.664141 
L 778.168655 689.209648 
L 778.988423 737.425674 
L 779.808192 742.522314 
L 787.186108 742.522314 
L 788.005876 682.322837 
L 788.825645 742.522314 
L 790.465182 742.522314 
L 791.28495 724.129108 
L 792.104719 742.522314 
L 793.744256 742.522314 
L 794.564024 691.621112 
L 795.383793 742.522314 
L 797.843098 742.522314 
L 798.662867 736.97264 
L 799.482635 742.522314 
L 800.302403 728.500893 
L 801.122172 734.75277 
L 801.94194 742.522314 
L 806.040783 742.522314 
L 806.860551 724.197063 
L 807.68032 742.522314 
L 810.959394 742.522314 
L 811.779162 677.50454 
L 812.59893 624.520317 
L 813.418699 742.522314 
L 814.238467 742.522314 
L 815.058236 733.529576 
L 815.878004 676.905666 
L 816.697773 742.522314 
L 820.796615 742.522314 
L 821.616384 730.494245 
L 822.436152 742.522314 
L 823.255921 742.522314 
L 824.075689 614.624608 
L 824.895457 738.105226 
L 825.715226 742.522314 
L 836.372216 742.522314 
L 837.191984 735.432322 
L 838.011753 742.522314 
L 851.128048 742.522314 
L 851.947817 660.916384 
L 852.767585 739.509634 
L 853.587354 742.522314 
L 856.046659 742.522314 
L 856.866428 736.111875 
L 857.686196 670.668676 
L 858.505965 742.522314 
L 867.523418 742.522314 
L 868.343186 724.491537 
L 869.162955 742.522314 
L 874.901334 742.522314 
L 875.721102 731.128492 
L 876.540871 742.522314 
L 878.180408 742.522314 
L 879.000176 725.012526 
L 879.819945 739.940017 
L 880.639713 742.522314 
L 881.459482 669.819906 
L 882.27925 472.968595 
L 883.099019 742.522314 
L 884.738556 742.522314 
L 885.558324 608.887162 
L 886.378092 697.076784 
L 887.197861 742.522314 
L 887.197861 742.522314 
" style="fill:none;stroke:#1f77b4;stroke-linecap:square;stroke-width:1.5;"/>
   </g>
   <g id="patch_23">
    <path d="M 573.882353 756 
L 573.882353 459.490909 
" style="fill:none;stroke:#000000;stroke-linecap:square;stroke-linejoin:miter;stroke-width:0.8;"/>
   </g>
   <g id="patch_24">
    <path d="M 902.117647 756 
L 902.117647 459.490909 
" style="fill:none;stroke:#000000;stroke-linecap:square;stroke-linejoin:miter;stroke-width:0.8;"/>
   </g>
   <g id="patch_25">
    <path d="M 573.882353 756 
L 902.117647 756 
" style="fill:none;stroke:#000000;stroke-linecap:square;stroke-linejoin:miter;stroke-width:0.8;"/>
   </g>
   <g id="patch_26">
    <path d="M 573.882353 459.490909 
L 902.117647 459.490909 
" style="fill:none;stroke:#000000;stroke-linecap:square;stroke-linejoin:miter;stroke-width:0.8;"/>
   </g>
   <g id="text_54">
    <!-- 24:00:00 -->
    <g transform="translate(711.0525 453.490909)scale(0.12 -0.12)">
     <use xlink:href="#DejaVuSans-50"/>
     <use x="63.623047" xlink:href="#DejaVuSans-52"/>
     <use x="127.246094" xlink:href="#DejaVuSans-58"/>
     <use x="160.9375" xlink:href="#DejaVuSans-48"/>
     <use x="224.560547" xlink:href="#DejaVuSans-48"/>
     <use x="288.183594" xlink:href="#DejaVuSans-58"/>
     <use x="321.875" xlink:href="#DejaVuSans-48"/>
     <use x="385.498047" xlink:href="#DejaVuSans-48"/>
    </g>
   </g>
  </g>
  <g id="text_55">
   <!-- Runoff - Rain Barrel -->
   <defs>
    <path d="M 44.390625 34.1875 
Q 47.5625 33.109375 50.5625 29.59375 
Q 53.5625 26.078125 56.59375 19.921875 
L 66.609375 0 
L 56 0 
L 46.6875 18.703125 
Q 43.0625 26.03125 39.671875 28.421875 
Q 36.28125 30.8125 30.421875 30.8125 
L 19.671875 30.8125 
L 19.671875 0 
L 9.8125 0 
L 9.8125 72.90625 
L 32.078125 72.90625 
Q 44.578125 72.90625 50.734375 67.671875 
Q 56.890625 62.453125 56.890625 51.90625 
Q 56.890625 45.015625 53.6875 40.46875 
Q 50.484375 35.9375 44.390625 34.1875 
z
M 19.671875 64.796875 
L 19.671875 38.921875 
L 32.078125 38.921875 
Q 39.203125 38.921875 42.84375 42.21875 
Q 46.484375 45.515625 46.484375 51.90625 
Q 46.484375 58.296875 42.84375 61.546875 
Q 39.203125 64.796875 32.078125 64.796875 
z
" id="DejaVuSans-82"/>
    <path d="M 8.5 21.578125 
L 8.5 54.6875 
L 17.484375 54.6875 
L 17.484375 21.921875 
Q 17.484375 14.15625 20.5 10.265625 
Q 23.53125 6.390625 29.59375 6.390625 
Q 36.859375 6.390625 41.078125 11.03125 
Q 45.3125 15.671875 45.3125 23.6875 
L 45.3125 54.6875 
L 54.296875 54.6875 
L 54.296875 0 
L 45.3125 0 
L 45.3125 8.40625 
Q 42.046875 3.421875 37.71875 1 
Q 33.40625 -1.421875 27.6875 -1.421875 
Q 18.265625 -1.421875 13.375 4.4375 
Q 8.5 10.296875 8.5 21.578125 
z
M 31.109375 56 
z
" id="DejaVuSans-117"/>
    <path d="M 54.890625 33.015625 
L 54.890625 0 
L 45.90625 0 
L 45.90625 32.71875 
Q 45.90625 40.484375 42.875 44.328125 
Q 39.84375 48.1875 33.796875 48.1875 
Q 26.515625 48.1875 22.3125 43.546875 
Q 18.109375 38.921875 18.109375 30.90625 
L 18.109375 0 
L 9.078125 0 
L 9.078125 54.6875 
L 18.109375 54.6875 
L 18.109375 46.1875 
Q 21.34375 51.125 25.703125 53.5625 
Q 30.078125 56 35.796875 56 
Q 45.21875 56 50.046875 50.171875 
Q 54.890625 44.34375 54.890625 33.015625 
z
" id="DejaVuSans-110"/>
    <path d="M 30.609375 48.390625 
Q 23.390625 48.390625 19.1875 42.75 
Q 14.984375 37.109375 14.984375 27.296875 
Q 14.984375 17.484375 19.15625 11.84375 
Q 23.34375 6.203125 30.609375 6.203125 
Q 37.796875 6.203125 41.984375 11.859375 
Q 46.1875 17.53125 46.1875 27.296875 
Q 46.1875 37.015625 41.984375 42.703125 
Q 37.796875 48.390625 30.609375 48.390625 
z
M 30.609375 56 
Q 42.328125 56 49.015625 48.375 
Q 55.71875 40.765625 55.71875 27.296875 
Q 55.71875 13.875 49.015625 6.21875 
Q 42.328125 -1.421875 30.609375 -1.421875 
Q 18.84375 -1.421875 12.171875 6.21875 
Q 5.515625 13.875 5.515625 27.296875 
Q 5.515625 40.765625 12.171875 48.375 
Q 18.84375 56 30.609375 56 
z
" id="DejaVuSans-111"/>
    <path d="M 37.109375 75.984375 
L 37.109375 68.5 
L 28.515625 68.5 
Q 23.6875 68.5 21.796875 66.546875 
Q 19.921875 64.59375 19.921875 59.515625 
L 19.921875 54.6875 
L 34.71875 54.6875 
L 34.71875 47.703125 
L 19.921875 47.703125 
L 19.921875 0 
L 10.890625 0 
L 10.890625 47.703125 
L 2.296875 47.703125 
L 2.296875 54.6875 
L 10.890625 54.6875 
L 10.890625 58.5 
Q 10.890625 67.625 15.140625 71.796875 
Q 19.390625 75.984375 28.609375 75.984375 
z
" id="DejaVuSans-102"/>
    <path id="DejaVuSans-32"/>
    <path d="M 34.28125 27.484375 
Q 23.390625 27.484375 19.1875 25 
Q 14.984375 22.515625 14.984375 16.5 
Q 14.984375 11.71875 18.140625 8.90625 
Q 21.296875 6.109375 26.703125 6.109375 
Q 34.1875 6.109375 38.703125 11.40625 
Q 43.21875 16.703125 43.21875 25.484375 
L 43.21875 27.484375 
z
M 52.203125 31.203125 
L 52.203125 0 
L 43.21875 0 
L 43.21875 8.296875 
Q 40.140625 3.328125 35.546875 0.953125 
Q 30.953125 -1.421875 24.3125 -1.421875 
Q 15.921875 -1.421875 10.953125 3.296875 
Q 6 8.015625 6 15.921875 
Q 6 25.140625 12.171875 29.828125 
Q 18.359375 34.515625 30.609375 34.515625 
L 43.21875 34.515625 
L 43.21875 35.40625 
Q 43.21875 41.609375 39.140625 45 
Q 35.0625 48.390625 27.6875 48.390625 
Q 23 48.390625 18.546875 47.265625 
Q 14.109375 46.140625 10.015625 43.890625 
L 10.015625 52.203125 
Q 14.9375 54.109375 19.578125 55.046875 
Q 24.21875 56 28.609375 56 
Q 40.484375 56 46.34375 49.84375 
Q 52.203125 43.703125 52.203125 31.203125 
z
" id="DejaVuSans-97"/>
    <path d="M 9.421875 54.6875 
L 18.40625 54.6875 
L 18.40625 0 
L 9.421875 0 
z
M 9.421875 75.984375 
L 18.40625 75.984375 
L 18.40625 64.59375 
L 9.421875 64.59375 
z
" id="DejaVuSans-105"/>
    <path d="M 19.671875 34.8125 
L 19.671875 8.109375 
L 35.5 8.109375 
Q 43.453125 8.109375 47.28125 11.40625 
Q 51.125 14.703125 51.125 21.484375 
Q 51.125 28.328125 47.28125 31.5625 
Q 43.453125 34.8125 35.5 34.8125 
z
M 19.671875 64.796875 
L 19.671875 42.828125 
L 34.28125 42.828125 
Q 41.5 42.828125 45.03125 45.53125 
Q 48.578125 48.25 48.578125 53.8125 
Q 48.578125 59.328125 45.03125 62.0625 
Q 41.5 64.796875 34.28125 64.796875 
z
M 9.8125 72.90625 
L 35.015625 72.90625 
Q 46.296875 72.90625 52.390625 68.21875 
Q 58.5 63.53125 58.5 54.890625 
Q 58.5 48.1875 55.375 44.234375 
Q 52.25 40.28125 46.1875 39.3125 
Q 53.46875 37.75 57.5 32.78125 
Q 61.53125 27.828125 61.53125 20.40625 
Q 61.53125 10.640625 54.890625 5.3125 
Q 48.25 0 35.984375 0 
L 9.8125 0 
z
" id="DejaVuSans-66"/>
    <path d="M 41.109375 46.296875 
Q 39.59375 47.171875 37.8125 47.578125 
Q 36.03125 48 33.890625 48 
Q 26.265625 48 22.1875 43.046875 
Q 18.109375 38.09375 18.109375 28.8125 
L 18.109375 0 
L 9.078125 0 
L 9.078125 54.6875 
L 18.109375 54.6875 
L 18.109375 46.1875 
Q 20.953125 51.171875 25.484375 53.578125 
Q 30.03125 56 36.53125 56 
Q 37.453125 56 38.578125 55.875 
Q 39.703125 55.765625 41.0625 55.515625 
z
" id="DejaVuSans-114"/>
    <path d="M 56.203125 29.59375 
L 56.203125 25.203125 
L 14.890625 25.203125 
Q 15.484375 15.921875 20.484375 11.0625 
Q 25.484375 6.203125 34.421875 6.203125 
Q 39.59375 6.203125 44.453125 7.46875 
Q 49.3125 8.734375 54.109375 11.28125 
L 54.109375 2.78125 
Q 49.265625 0.734375 44.1875 -0.34375 
Q 39.109375 -1.421875 33.890625 -1.421875 
Q 20.796875 -1.421875 13.15625 6.1875 
Q 5.515625 13.8125 5.515625 26.8125 
Q 5.515625 40.234375 12.765625 48.109375 
Q 20.015625 56 32.328125 56 
Q 43.359375 56 49.78125 48.890625 
Q 56.203125 41.796875 56.203125 29.59375 
z
M 47.21875 32.234375 
Q 47.125 39.59375 43.09375 43.984375 
Q 39.0625 48.390625 32.421875 48.390625 
Q 24.90625 48.390625 20.390625 44.140625 
Q 15.875 39.890625 15.1875 32.171875 
z
" id="DejaVuSans-101"/>
    <path d="M 9.421875 75.984375 
L 18.40625 75.984375 
L 18.40625 0 
L 9.421875 0 
z
" id="DejaVuSans-108"/>
   </defs>
   <g transform="translate(631.579219 30.957187)scale(0.18 -0.18)">
    <use xlink:href="#DejaVuSans-82"/>
    <use x="69.419922" xlink:href="#DejaVuSans-117"/>
    <use x="132.798828" xlink:href="#DejaVuSans-110"/>
    <use x="196.177734" xlink:href="#DejaVuSans-111"/>
    <use x="257.359375" xlink:href="#DejaVuSans-102"/>
    <use x="292.564453" xlink:href="#DejaVuSans-102"/>
    <use x="327.769531" xlink:href="#DejaVuSans-32"/>
    <use x="359.556641" xlink:href="#DejaVuSans-45"/>
    <use x="395.640625" xlink:href="#DejaVuSans-32"/>
    <use x="427.427734" xlink:href="#DejaVuSans-82"/>
    <use x="496.878906" xlink:href="#DejaVuSans-97"/>
    <use x="558.158203" xlink:href="#DejaVuSans-105"/>
    <use x="585.941406" xlink:href="#DejaVuSans-110"/>
    <use x="649.320312" xlink:href="#DejaVuSans-32"/>
    <use x="681.107422" xlink:href="#DejaVuSans-66"/>
    <use x="749.710938" xlink:href="#DejaVuSans-97"/>
    <use x="810.990234" xlink:href="#DejaVuSans-114"/>
    <use x="852.087891" xlink:href="#DejaVuSans-114"/>
    <use x="893.169922" xlink:href="#DejaVuSans-101"/>
    <use x="954.693359" xlink:href="#DejaVuSans-108"/>
   </g>
  </g>
 </g>
 <defs>
  <clipPath id="pcf84ab7ec3">
   <rect height="296.509091" width="328.235294" x="180" y="103.68"/>
  </clipPath>
  <clipPath id="p0f4a82f052">
   <rect height="296.509091" width="328.235294" x="573.882353" y="103.68"/>
  </clipPath>
  <clipPath id="pf4bb367e05">
   <rect height="296.509091" width="328.235294" x="967.764706" y="103.68"/>
  </clipPath>
  <clipPath id="p7b3e24f632">
   <rect height="296.509091" width="328.235294" x="180" y="459.490909"/>
  </clipPath>
  <clipPath id="p69ce812a2d">
   <rect height="296.509091" width="328.235294" x="573.882353" y="459.490909"/>
  </clipPath>
 </defs>
</svg>
