<?xml version="1.0" encoding="utf-8" standalone="no"?>
<!DOCTYPE svg PUBLIC "-//W3C//DTD SVG 1.1//EN"
  "http://www.w3.org/Graphics/SVG/1.1/DTD/svg11.dtd">
<!-- Created with matplotlib (https://matplotlib.org/) -->
<svg height="864pt" version="1.1" viewBox="0 0 1440 864" width="1440pt" xmlns="http://www.w3.org/2000/svg" xmlns:xlink="http://www.w3.org/1999/xlink">
 <defs>
  <style type="text/css">
*{stroke-linecap:butt;stroke-linejoin:round;}
  </style>
 </defs>
 <g id="figure_1">
  <g id="patch_1">
   <path d="M 0 864 
L 1440 864 
L 1440 0 
L 0 0 
z
" style="fill:#ffffff;"/>
  </g>
  <g id="axes_1">
   <g id="patch_2">
    <path d="M 180 400.189091 
L 508.235294 400.189091 
L 508.235294 103.68 
L 180 103.68 
z
" style="fill:#ffffff;"/>
   </g>
   <g id="matplotlib.axis_1">
    <g id="xtick_1">
     <g id="line2d_1">
      <defs>
       <path d="M 0 0 
L 0 3.5 
" id="m196f979903" style="stroke:#000000;stroke-width:0.8;"/>
      </defs>
      <g>
       <use style="stroke:#000000;stroke-width:0.8;" x="194.919786" xlink:href="#m196f979903" y="400.189091"/>
      </g>
     </g>
     <g id="text_1">
      <!-- 2014-01 -->
      <defs>
       <path d="M 19.1875 8.296875 
L 53.609375 8.296875 
L 53.609375 0 
L 7.328125 0 
L 7.328125 8.296875 
Q 12.9375 14.109375 22.625 23.890625 
Q 32.328125 33.6875 34.8125 36.53125 
Q 39.546875 41.84375 41.421875 45.53125 
Q 43.3125 49.21875 43.3125 52.78125 
Q 43.3125 58.59375 39.234375 62.25 
Q 35.15625 65.921875 28.609375 65.921875 
Q 23.96875 65.921875 18.8125 64.3125 
Q 13.671875 62.703125 7.8125 59.421875 
L 7.8125 69.390625 
Q 13.765625 71.78125 18.9375 73 
Q 24.125 74.21875 28.421875 74.21875 
Q 39.75 74.21875 46.484375 68.546875 
Q 53.21875 62.890625 53.21875 53.421875 
Q 53.21875 48.921875 51.53125 44.890625 
Q 49.859375 40.875 45.40625 35.40625 
Q 44.1875 33.984375 37.640625 27.21875 
Q 31.109375 20.453125 19.1875 8.296875 
z
" id="DejaVuSans-50"/>
       <path d="M 31.78125 66.40625 
Q 24.171875 66.40625 20.328125 58.90625 
Q 16.5 51.421875 16.5 36.375 
Q 16.5 21.390625 20.328125 13.890625 
Q 24.171875 6.390625 31.78125 6.390625 
Q 39.453125 6.390625 43.28125 13.890625 
Q 47.125 21.390625 47.125 36.375 
Q 47.125 51.421875 43.28125 58.90625 
Q 39.453125 66.40625 31.78125 66.40625 
z
M 31.78125 74.21875 
Q 44.046875 74.21875 50.515625 64.515625 
Q 56.984375 54.828125 56.984375 36.375 
Q 56.984375 17.96875 50.515625 8.265625 
Q 44.046875 -1.421875 31.78125 -1.421875 
Q 19.53125 -1.421875 13.0625 8.265625 
Q 6.59375 17.96875 6.59375 36.375 
Q 6.59375 54.828125 13.0625 64.515625 
Q 19.53125 74.21875 31.78125 74.21875 
z
" id="DejaVuSans-48"/>
       <path d="M 12.40625 8.296875 
L 28.515625 8.296875 
L 28.515625 63.921875 
L 10.984375 60.40625 
L 10.984375 69.390625 
L 28.421875 72.90625 
L 38.28125 72.90625 
L 38.28125 8.296875 
L 54.390625 8.296875 
L 54.390625 0 
L 12.40625 0 
z
" id="DejaVuSans-49"/>
       <path d="M 37.796875 64.3125 
L 12.890625 25.390625 
L 37.796875 25.390625 
z
M 35.203125 72.90625 
L 47.609375 72.90625 
L 47.609375 25.390625 
L 58.015625 25.390625 
L 58.015625 17.1875 
L 47.609375 17.1875 
L 47.609375 0 
L 37.796875 0 
L 37.796875 17.1875 
L 4.890625 17.1875 
L 4.890625 26.703125 
z
" id="DejaVuSans-52"/>
       <path d="M 4.890625 31.390625 
L 31.203125 31.390625 
L 31.203125 23.390625 
L 4.890625 23.390625 
z
" id="DejaVuSans-45"/>
      </defs>
      <g transform="translate(174.02838 414.787528)scale(0.1 -0.1)">
       <use xlink:href="#DejaVuSans-50"/>
       <use x="63.623047" xlink:href="#DejaVuSans-48"/>
       <use x="127.246094" xlink:href="#DejaVuSans-49"/>
       <use x="190.869141" xlink:href="#DejaVuSans-52"/>
       <use x="254.492188" xlink:href="#DejaVuSans-45"/>
       <use x="290.576172" xlink:href="#DejaVuSans-48"/>
       <use x="354.199219" xlink:href="#DejaVuSans-49"/>
      </g>
     </g>
    </g>
    <g id="xtick_2">
     <g id="line2d_2">
      <g>
       <use style="stroke:#000000;stroke-width:0.8;" x="243.286126" xlink:href="#m196f979903" y="400.189091"/>
      </g>
     </g>
     <g id="text_2">
      <!-- 2014-03 -->
      <defs>
       <path d="M 40.578125 39.3125 
Q 47.65625 37.796875 51.625 33 
Q 55.609375 28.21875 55.609375 21.1875 
Q 55.609375 10.40625 48.1875 4.484375 
Q 40.765625 -1.421875 27.09375 -1.421875 
Q 22.515625 -1.421875 17.65625 -0.515625 
Q 12.796875 0.390625 7.625 2.203125 
L 7.625 11.71875 
Q 11.71875 9.328125 16.59375 8.109375 
Q 21.484375 6.890625 26.8125 6.890625 
Q 36.078125 6.890625 40.9375 10.546875 
Q 45.796875 14.203125 45.796875 21.1875 
Q 45.796875 27.640625 41.28125 31.265625 
Q 36.765625 34.90625 28.71875 34.90625 
L 20.21875 34.90625 
L 20.21875 43.015625 
L 29.109375 43.015625 
Q 36.375 43.015625 40.234375 45.921875 
Q 44.09375 48.828125 44.09375 54.296875 
Q 44.09375 59.90625 40.109375 62.90625 
Q 36.140625 65.921875 28.71875 65.921875 
Q 24.65625 65.921875 20.015625 65.03125 
Q 15.375 64.15625 9.8125 62.3125 
L 9.8125 71.09375 
Q 15.4375 72.65625 20.34375 73.4375 
Q 25.25 74.21875 29.59375 74.21875 
Q 40.828125 74.21875 47.359375 69.109375 
Q 53.90625 64.015625 53.90625 55.328125 
Q 53.90625 49.265625 50.4375 45.09375 
Q 46.96875 40.921875 40.578125 39.3125 
z
" id="DejaVuSans-51"/>
      </defs>
      <g transform="translate(222.394719 414.787528)scale(0.1 -0.1)">
       <use xlink:href="#DejaVuSans-50"/>
       <use x="63.623047" xlink:href="#DejaVuSans-48"/>
       <use x="127.246094" xlink:href="#DejaVuSans-49"/>
       <use x="190.869141" xlink:href="#DejaVuSans-52"/>
       <use x="254.492188" xlink:href="#DejaVuSans-45"/>
       <use x="290.576172" xlink:href="#DejaVuSans-48"/>
       <use x="354.199219" xlink:href="#DejaVuSans-51"/>
      </g>
     </g>
    </g>
    <g id="xtick_3">
     <g id="line2d_3">
      <g>
       <use style="stroke:#000000;stroke-width:0.8;" x="293.292002" xlink:href="#m196f979903" y="400.189091"/>
      </g>
     </g>
     <g id="text_3">
      <!-- 2014-05 -->
      <defs>
       <path d="M 10.796875 72.90625 
L 49.515625 72.90625 
L 49.515625 64.59375 
L 19.828125 64.59375 
L 19.828125 46.734375 
Q 21.96875 47.46875 24.109375 47.828125 
Q 26.265625 48.1875 28.421875 48.1875 
Q 40.625 48.1875 47.75 41.5 
Q 54.890625 34.8125 54.890625 23.390625 
Q 54.890625 11.625 47.5625 5.09375 
Q 40.234375 -1.421875 26.90625 -1.421875 
Q 22.3125 -1.421875 17.546875 -0.640625 
Q 12.796875 0.140625 7.71875 1.703125 
L 7.71875 11.625 
Q 12.109375 9.234375 16.796875 8.0625 
Q 21.484375 6.890625 26.703125 6.890625 
Q 35.15625 6.890625 40.078125 11.328125 
Q 45.015625 15.765625 45.015625 23.390625 
Q 45.015625 31 40.078125 35.4375 
Q 35.15625 39.890625 26.703125 39.890625 
Q 22.75 39.890625 18.8125 39.015625 
Q 14.890625 38.140625 10.796875 36.28125 
z
" id="DejaVuSans-53"/>
      </defs>
      <g transform="translate(272.400596 414.787528)scale(0.1 -0.1)">
       <use xlink:href="#DejaVuSans-50"/>
       <use x="63.623047" xlink:href="#DejaVuSans-48"/>
       <use x="127.246094" xlink:href="#DejaVuSans-49"/>
       <use x="190.869141" xlink:href="#DejaVuSans-52"/>
       <use x="254.492188" xlink:href="#DejaVuSans-45"/>
       <use x="290.576172" xlink:href="#DejaVuSans-48"/>
       <use x="354.199219" xlink:href="#DejaVuSans-53"/>
      </g>
     </g>
    </g>
    <g id="xtick_4">
     <g id="line2d_4">
      <g>
       <use style="stroke:#000000;stroke-width:0.8;" x="343.297879" xlink:href="#m196f979903" y="400.189091"/>
      </g>
     </g>
     <g id="text_4">
      <!-- 2014-07 -->
      <defs>
       <path d="M 8.203125 72.90625 
L 55.078125 72.90625 
L 55.078125 68.703125 
L 28.609375 0 
L 18.3125 0 
L 43.21875 64.59375 
L 8.203125 64.59375 
z
" id="DejaVuSans-55"/>
      </defs>
      <g transform="translate(322.406472 414.787528)scale(0.1 -0.1)">
       <use xlink:href="#DejaVuSans-50"/>
       <use x="63.623047" xlink:href="#DejaVuSans-48"/>
       <use x="127.246094" xlink:href="#DejaVuSans-49"/>
       <use x="190.869141" xlink:href="#DejaVuSans-52"/>
       <use x="254.492188" xlink:href="#DejaVuSans-45"/>
       <use x="290.576172" xlink:href="#DejaVuSans-48"/>
       <use x="354.199219" xlink:href="#DejaVuSans-55"/>
      </g>
     </g>
    </g>
    <g id="xtick_5">
     <g id="line2d_5">
      <g>
       <use style="stroke:#000000;stroke-width:0.8;" x="394.123524" xlink:href="#m196f979903" y="400.189091"/>
      </g>
     </g>
     <g id="text_5">
      <!-- 2014-09 -->
      <defs>
       <path d="M 10.984375 1.515625 
L 10.984375 10.5 
Q 14.703125 8.734375 18.5 7.8125 
Q 22.3125 6.890625 25.984375 6.890625 
Q 35.75 6.890625 40.890625 13.453125 
Q 46.046875 20.015625 46.78125 33.40625 
Q 43.953125 29.203125 39.59375 26.953125 
Q 35.25 24.703125 29.984375 24.703125 
Q 19.046875 24.703125 12.671875 31.3125 
Q 6.296875 37.9375 6.296875 49.421875 
Q 6.296875 60.640625 12.9375 67.421875 
Q 19.578125 74.21875 30.609375 74.21875 
Q 43.265625 74.21875 49.921875 64.515625 
Q 56.59375 54.828125 56.59375 36.375 
Q 56.59375 19.140625 48.40625 8.859375 
Q 40.234375 -1.421875 26.421875 -1.421875 
Q 22.703125 -1.421875 18.890625 -0.6875 
Q 15.09375 0.046875 10.984375 1.515625 
z
M 30.609375 32.421875 
Q 37.25 32.421875 41.125 36.953125 
Q 45.015625 41.5 45.015625 49.421875 
Q 45.015625 57.28125 41.125 61.84375 
Q 37.25 66.40625 30.609375 66.40625 
Q 23.96875 66.40625 20.09375 61.84375 
Q 16.21875 57.28125 16.21875 49.421875 
Q 16.21875 41.5 20.09375 36.953125 
Q 23.96875 32.421875 30.609375 32.421875 
z
" id="DejaVuSans-57"/>
      </defs>
      <g transform="translate(373.232117 414.787528)scale(0.1 -0.1)">
       <use xlink:href="#DejaVuSans-50"/>
       <use x="63.623047" xlink:href="#DejaVuSans-48"/>
       <use x="127.246094" xlink:href="#DejaVuSans-49"/>
       <use x="190.869141" xlink:href="#DejaVuSans-52"/>
       <use x="254.492188" xlink:href="#DejaVuSans-45"/>
       <use x="290.576172" xlink:href="#DejaVuSans-48"/>
       <use x="354.199219" xlink:href="#DejaVuSans-57"/>
      </g>
     </g>
    </g>
    <g id="xtick_6">
     <g id="line2d_6">
      <g>
       <use style="stroke:#000000;stroke-width:0.8;" x="444.1294" xlink:href="#m196f979903" y="400.189091"/>
      </g>
     </g>
     <g id="text_6">
      <!-- 2014-11 -->
      <g transform="translate(423.237994 414.787528)scale(0.1 -0.1)">
       <use xlink:href="#DejaVuSans-50"/>
       <use x="63.623047" xlink:href="#DejaVuSans-48"/>
       <use x="127.246094" xlink:href="#DejaVuSans-49"/>
       <use x="190.869141" xlink:href="#DejaVuSans-52"/>
       <use x="254.492188" xlink:href="#DejaVuSans-45"/>
       <use x="290.576172" xlink:href="#DejaVuSans-49"/>
       <use x="354.199219" xlink:href="#DejaVuSans-49"/>
      </g>
     </g>
    </g>
    <g id="xtick_7">
     <g id="line2d_7">
      <g>
       <use style="stroke:#000000;stroke-width:0.8;" x="494.135276" xlink:href="#m196f979903" y="400.189091"/>
      </g>
     </g>
     <g id="text_7">
      <!-- 2015-01 -->
      <g transform="translate(473.24387 414.787528)scale(0.1 -0.1)">
       <use xlink:href="#DejaVuSans-50"/>
       <use x="63.623047" xlink:href="#DejaVuSans-48"/>
       <use x="127.246094" xlink:href="#DejaVuSans-49"/>
       <use x="190.869141" xlink:href="#DejaVuSans-53"/>
       <use x="254.492188" xlink:href="#DejaVuSans-45"/>
       <use x="290.576172" xlink:href="#DejaVuSans-48"/>
       <use x="354.199219" xlink:href="#DejaVuSans-49"/>
      </g>
     </g>
    </g>
   </g>
   <g id="matplotlib.axis_2">
    <g id="ytick_1">
     <g id="line2d_8">
      <defs>
       <path d="M 0 0 
L -3.5 0 
" id="mac6d4db002" style="stroke:#000000;stroke-width:0.8;"/>
      </defs>
      <g>
       <use style="stroke:#000000;stroke-width:0.8;" x="180" xlink:href="#mac6d4db002" y="386.711405"/>
      </g>
     </g>
     <g id="text_8">
      <!-- 0 -->
      <g transform="translate(166.6375 390.510624)scale(0.1 -0.1)">
       <use xlink:href="#DejaVuSans-48"/>
      </g>
     </g>
    </g>
    <g id="ytick_2">
     <g id="line2d_9">
      <g>
       <use style="stroke:#000000;stroke-width:0.8;" x="180" xlink:href="#mac6d4db002" y="342.681708"/>
      </g>
     </g>
     <g id="text_9">
      <!-- 1 -->
      <g transform="translate(166.6375 346.480927)scale(0.1 -0.1)">
       <use xlink:href="#DejaVuSans-49"/>
      </g>
     </g>
    </g>
    <g id="ytick_3">
     <g id="line2d_10">
      <g>
       <use style="stroke:#000000;stroke-width:0.8;" x="180" xlink:href="#mac6d4db002" y="298.652011"/>
      </g>
     </g>
     <g id="text_10">
      <!-- 2 -->
      <g transform="translate(166.6375 302.45123)scale(0.1 -0.1)">
       <use xlink:href="#DejaVuSans-50"/>
      </g>
     </g>
    </g>
    <g id="ytick_4">
     <g id="line2d_11">
      <g>
       <use style="stroke:#000000;stroke-width:0.8;" x="180" xlink:href="#mac6d4db002" y="254.622314"/>
      </g>
     </g>
     <g id="text_11">
      <!-- 3 -->
      <g transform="translate(166.6375 258.421533)scale(0.1 -0.1)">
       <use xlink:href="#DejaVuSans-51"/>
      </g>
     </g>
    </g>
    <g id="ytick_5">
     <g id="line2d_12">
      <g>
       <use style="stroke:#000000;stroke-width:0.8;" x="180" xlink:href="#mac6d4db002" y="210.592617"/>
      </g>
     </g>
     <g id="text_12">
      <!-- 4 -->
      <g transform="translate(166.6375 214.391836)scale(0.1 -0.1)">
       <use xlink:href="#DejaVuSans-52"/>
      </g>
     </g>
    </g>
    <g id="ytick_6">
     <g id="line2d_13">
      <g>
       <use style="stroke:#000000;stroke-width:0.8;" x="180" xlink:href="#mac6d4db002" y="166.562921"/>
      </g>
     </g>
     <g id="text_13">
      <!-- 5 -->
      <g transform="translate(166.6375 170.362139)scale(0.1 -0.1)">
       <use xlink:href="#DejaVuSans-53"/>
      </g>
     </g>
    </g>
    <g id="ytick_7">
     <g id="line2d_14">
      <g>
       <use style="stroke:#000000;stroke-width:0.8;" x="180" xlink:href="#mac6d4db002" y="122.533224"/>
      </g>
     </g>
     <g id="text_14">
      <!-- 6 -->
      <defs>
       <path d="M 33.015625 40.375 
Q 26.375 40.375 22.484375 35.828125 
Q 18.609375 31.296875 18.609375 23.390625 
Q 18.609375 15.53125 22.484375 10.953125 
Q 26.375 6.390625 33.015625 6.390625 
Q 39.65625 6.390625 43.53125 10.953125 
Q 47.40625 15.53125 47.40625 23.390625 
Q 47.40625 31.296875 43.53125 35.828125 
Q 39.65625 40.375 33.015625 40.375 
z
M 52.59375 71.296875 
L 52.59375 62.3125 
Q 48.875 64.0625 45.09375 64.984375 
Q 41.3125 65.921875 37.59375 65.921875 
Q 27.828125 65.921875 22.671875 59.328125 
Q 17.53125 52.734375 16.796875 39.40625 
Q 19.671875 43.65625 24.015625 45.921875 
Q 28.375 48.1875 33.59375 48.1875 
Q 44.578125 48.1875 50.953125 41.515625 
Q 57.328125 34.859375 57.328125 23.390625 
Q 57.328125 12.15625 50.6875 5.359375 
Q 44.046875 -1.421875 33.015625 -1.421875 
Q 20.359375 -1.421875 13.671875 8.265625 
Q 6.984375 17.96875 6.984375 36.375 
Q 6.984375 53.65625 15.1875 63.9375 
Q 23.390625 74.21875 37.203125 74.21875 
Q 40.921875 74.21875 44.703125 73.484375 
Q 48.484375 72.75 52.59375 71.296875 
z
" id="DejaVuSans-54"/>
      </defs>
      <g transform="translate(166.6375 126.332442)scale(0.1 -0.1)">
       <use xlink:href="#DejaVuSans-54"/>
      </g>
     </g>
    </g>
   </g>
   <g id="line2d_15">
    <path clip-path="url(#pc028171f06)" d="M 194.919786 386.711405 
L 195.739555 351.024026 
L 196.559323 384.927036 
L 197.379091 386.711405 
L 201.477934 386.711405 
L 202.297702 371.842835 
L 203.117471 310.017008 
L 203.937239 278.27969 
L 204.757008 382.140025 
L 205.576776 340.370233 
L 206.396545 384.602126 
L 207.216313 386.711405 
L 221.152377 386.711405 
L 221.972146 345.410806 
L 222.791914 384.744384 
L 223.611682 299.86599 
L 224.431451 382.935427 
L 225.251219 386.711405 
L 227.710525 386.711405 
L 228.530293 324.399083 
L 229.350062 234.163574 
L 230.16983 344.516929 
L 230.989599 385.16062 
L 231.809367 372.41012 
L 232.629136 385.870152 
L 233.448904 386.711405 
L 235.908209 386.711405 
L 236.727978 267.827946 
L 237.547746 381.311298 
L 238.367515 386.711405 
L 245.745431 386.711405 
L 246.5652 367.160622 
L 247.384968 385.861371 
L 248.204736 334.081312 
L 249.024505 384.20521 
L 249.844273 386.711405 
L 251.48381 386.711405 
L 252.303579 319.010839 
L 253.123347 383.634422 
L 253.943116 386.711405 
L 254.762884 386.711405 
L 255.582653 270.01757 
L 256.402421 274.381204 
L 257.22219 382.059854 
L 258.041958 386.711405 
L 261.321032 386.711405 
L 262.1408 354.993206 
L 262.960569 385.125494 
L 263.780337 386.711405 
L 264.600106 386.711405 
L 265.419874 302.215618 
L 266.239643 188.056315 
L 267.059411 378.237226 
L 267.87918 386.711405 
L 271.158254 386.711405 
L 271.978022 362.518805 
L 272.79779 324.321727 
L 273.617559 182.731695 
L 274.437327 322.94138 
L 275.257096 384.319367 
L 276.076864 386.711405 
L 279.355938 386.711405 
L 280.175707 235.741312 
L 280.995475 380.171997 
L 281.815244 386.711405 
L 282.635012 386.711405 
L 283.454781 265.800869 
L 284.274549 381.451131 
L 285.094317 386.711405 
L 290.832697 386.711405 
L 291.652465 217.199421 
L 292.472234 379.321288 
L 293.292002 363.969483 
L 294.111771 385.722626 
L 294.931539 386.711405 
L 299.85015 386.711405 
L 300.669918 304.617262 
L 301.489687 382.979334 
L 302.309455 386.711405 
L 303.948992 386.711405 
L 304.768761 155.62325 
L 305.588529 376.672779 
L 306.408298 386.711405 
L 314.605982 386.711405 
L 315.425751 337.769486 
L 316.245519 332.837868 
L 317.065288 384.470406 
L 317.885056 357.18326 
L 318.704825 385.427573 
L 319.524593 386.711405 
L 322.803667 386.711405 
L 323.623435 317.478292 
L 324.443204 318.246777 
L 325.262972 383.871518 
L 326.082741 386.711405 
L 326.902509 328.639626 
L 327.722278 309.544575 
L 328.542046 383.474602 
L 329.361815 386.711405 
L 336.739731 386.711405 
L 337.559499 331.250274 
L 338.379268 384.300048 
L 339.199036 386.711405 
L 340.018805 386.711405 
L 340.838573 299.138984 
L 341.658342 382.903815 
L 342.47811 386.711405 
L 349.856026 386.711405 
L 350.675795 338.027668 
L 351.495563 384.393131 
L 352.315332 386.711405 
L 354.774637 386.711405 
L 355.594406 372.67882 
L 356.414174 385.885959 
L 357.233943 386.711405 
L 358.053711 359.286342 
L 358.873479 308.259031 
L 360.513016 385.199258 
L 361.332785 386.711405 
L 375.268849 386.711405 
L 376.088617 186.748026 
L 376.908386 378.014564 
L 377.728154 386.711405 
L 381.826997 386.711405 
L 382.646765 322.584771 
L 383.466533 332.904601 
L 384.286302 384.498506 
L 385.10607 386.711405 
L 392.483987 386.711405 
L 393.303755 334.081312 
L 394.123524 384.20521 
L 394.943292 386.711405 
L 395.76306 386.711405 
L 396.582829 358.202766 
L 397.402597 385.285315 
L 398.222366 386.711405 
L 399.042134 386.711405 
L 399.861903 340.430633 
L 400.681671 384.607395 
L 401.50144 386.711405 
L 404.780514 386.711405 
L 405.600282 367.14306 
L 406.420051 385.624275 
L 407.239819 386.711405 
L 411.338661 386.711405 
L 412.15843 356.902612 
L 412.978198 385.290584 
L 413.797967 386.711405 
L 416.257272 386.711405 
L 417.896809 271.57579 
L 418.716578 381.832877 
L 419.536346 386.711405 
L 420.356114 386.711405 
L 421.175883 323.817677 
L 421.995651 383.976895 
L 422.81542 386.711405 
L 426.094494 386.711405 
L 426.914262 369.937312 
L 427.734031 385.778826 
L 428.553799 386.711405 
L 429.373568 269.260071 
L 430.193336 381.356436 
L 431.013105 386.711405 
L 456.425927 386.711405 
L 457.245695 311.988384 
L 458.065464 383.314781 
L 458.885232 386.711405 
L 462.164306 386.711405 
L 462.984075 317.879737 
L 463.803843 383.718723 
L 464.623612 386.711405 
L 472.821296 386.711405 
L 473.641065 358.81036 
L 474.460833 385.313415 
L 475.280602 386.711405 
L 480.199213 386.711405 
L 481.018981 371.693552 
L 481.838749 385.828002 
L 482.658518 386.711405 
L 483.478286 386.711405 
L 484.298055 360.917089 
L 485.117823 385.353809 
L 485.937592 386.711405 
L 486.75736 317.071869 
L 487.577129 125.36129 
L 488.396897 375.48 
L 489.216666 386.711405 
L 490.036434 386.711405 
L 490.856203 261.297551 
L 491.675971 337.865098 
L 492.49574 384.828685 
L 493.315508 386.711405 
L 493.315508 386.711405 
" style="fill:none;stroke:#1f77b4;stroke-linecap:square;stroke-width:1.5;"/>
   </g>
   <g id="patch_3">
    <path d="M 180 400.189091 
L 180 103.68 
" style="fill:none;stroke:#000000;stroke-linecap:square;stroke-linejoin:miter;stroke-width:0.8;"/>
   </g>
   <g id="patch_4">
    <path d="M 508.235294 400.189091 
L 508.235294 103.68 
" style="fill:none;stroke:#000000;stroke-linecap:square;stroke-linejoin:miter;stroke-width:0.8;"/>
   </g>
   <g id="patch_5">
    <path d="M 180 400.189091 
L 508.235294 400.189091 
" style="fill:none;stroke:#000000;stroke-linecap:square;stroke-linejoin:miter;stroke-width:0.8;"/>
   </g>
   <g id="patch_6">
    <path d="M 180 103.68 
L 508.235294 103.68 
" style="fill:none;stroke:#000000;stroke-linecap:square;stroke-linejoin:miter;stroke-width:0.8;"/>
   </g>
   <g id="text_15">
    <!-- 01:00:00 -->
    <defs>
     <path d="M 11.71875 12.40625 
L 22.015625 12.40625 
L 22.015625 0 
L 11.71875 0 
z
M 11.71875 51.703125 
L 22.015625 51.703125 
L 22.015625 39.3125 
L 11.71875 39.3125 
z
" id="DejaVuSans-58"/>
    </defs>
    <g transform="translate(317.170147 97.68)scale(0.12 -0.12)">
     <use xlink:href="#DejaVuSans-48"/>
     <use x="63.623047" xlink:href="#DejaVuSans-49"/>
     <use x="127.246094" xlink:href="#DejaVuSans-58"/>
     <use x="160.9375" xlink:href="#DejaVuSans-48"/>
     <use x="224.560547" xlink:href="#DejaVuSans-48"/>
     <use x="288.183594" xlink:href="#DejaVuSans-58"/>
     <use x="321.875" xlink:href="#DejaVuSans-48"/>
     <use x="385.498047" xlink:href="#DejaVuSans-48"/>
    </g>
   </g>
  </g>
  <g id="axes_2">
   <g id="patch_7">
    <path d="M 573.882353 400.189091 
L 902.117647 400.189091 
L 902.117647 103.68 
L 573.882353 103.68 
z
" style="fill:#ffffff;"/>
   </g>
   <g id="matplotlib.axis_3">
    <g id="xtick_8">
     <g id="line2d_16">
      <g>
       <use style="stroke:#000000;stroke-width:0.8;" x="588.802139" xlink:href="#m196f979903" y="400.189091"/>
      </g>
     </g>
     <g id="text_16">
      <!-- 2014-01 -->
      <g transform="translate(567.910733 414.787528)scale(0.1 -0.1)">
       <use xlink:href="#DejaVuSans-50"/>
       <use x="63.623047" xlink:href="#DejaVuSans-48"/>
       <use x="127.246094" xlink:href="#DejaVuSans-49"/>
       <use x="190.869141" xlink:href="#DejaVuSans-52"/>
       <use x="254.492188" xlink:href="#DejaVuSans-45"/>
       <use x="290.576172" xlink:href="#DejaVuSans-48"/>
       <use x="354.199219" xlink:href="#DejaVuSans-49"/>
      </g>
     </g>
    </g>
    <g id="xtick_9">
     <g id="line2d_17">
      <g>
       <use style="stroke:#000000;stroke-width:0.8;" x="637.168479" xlink:href="#m196f979903" y="400.189091"/>
      </g>
     </g>
     <g id="text_17">
      <!-- 2014-03 -->
      <g transform="translate(616.277072 414.787528)scale(0.1 -0.1)">
       <use xlink:href="#DejaVuSans-50"/>
       <use x="63.623047" xlink:href="#DejaVuSans-48"/>
       <use x="127.246094" xlink:href="#DejaVuSans-49"/>
       <use x="190.869141" xlink:href="#DejaVuSans-52"/>
       <use x="254.492188" xlink:href="#DejaVuSans-45"/>
       <use x="290.576172" xlink:href="#DejaVuSans-48"/>
       <use x="354.199219" xlink:href="#DejaVuSans-51"/>
      </g>
     </g>
    </g>
    <g id="xtick_10">
     <g id="line2d_18">
      <g>
       <use style="stroke:#000000;stroke-width:0.8;" x="687.174355" xlink:href="#m196f979903" y="400.189091"/>
      </g>
     </g>
     <g id="text_18">
      <!-- 2014-05 -->
      <g transform="translate(666.282949 414.787528)scale(0.1 -0.1)">
       <use xlink:href="#DejaVuSans-50"/>
       <use x="63.623047" xlink:href="#DejaVuSans-48"/>
       <use x="127.246094" xlink:href="#DejaVuSans-49"/>
       <use x="190.869141" xlink:href="#DejaVuSans-52"/>
       <use x="254.492188" xlink:href="#DejaVuSans-45"/>
       <use x="290.576172" xlink:href="#DejaVuSans-48"/>
       <use x="354.199219" xlink:href="#DejaVuSans-53"/>
      </g>
     </g>
    </g>
    <g id="xtick_11">
     <g id="line2d_19">
      <g>
       <use style="stroke:#000000;stroke-width:0.8;" x="737.180232" xlink:href="#m196f979903" y="400.189091"/>
      </g>
     </g>
     <g id="text_19">
      <!-- 2014-07 -->
      <g transform="translate(716.288825 414.787528)scale(0.1 -0.1)">
       <use xlink:href="#DejaVuSans-50"/>
       <use x="63.623047" xlink:href="#DejaVuSans-48"/>
       <use x="127.246094" xlink:href="#DejaVuSans-49"/>
       <use x="190.869141" xlink:href="#DejaVuSans-52"/>
       <use x="254.492188" xlink:href="#DejaVuSans-45"/>
       <use x="290.576172" xlink:href="#DejaVuSans-48"/>
       <use x="354.199219" xlink:href="#DejaVuSans-55"/>
      </g>
     </g>
    </g>
    <g id="xtick_12">
     <g id="line2d_20">
      <g>
       <use style="stroke:#000000;stroke-width:0.8;" x="788.005876" xlink:href="#m196f979903" y="400.189091"/>
      </g>
     </g>
     <g id="text_20">
      <!-- 2014-09 -->
      <g transform="translate(767.11447 414.787528)scale(0.1 -0.1)">
       <use xlink:href="#DejaVuSans-50"/>
       <use x="63.623047" xlink:href="#DejaVuSans-48"/>
       <use x="127.246094" xlink:href="#DejaVuSans-49"/>
       <use x="190.869141" xlink:href="#DejaVuSans-52"/>
       <use x="254.492188" xlink:href="#DejaVuSans-45"/>
       <use x="290.576172" xlink:href="#DejaVuSans-48"/>
       <use x="354.199219" xlink:href="#DejaVuSans-57"/>
      </g>
     </g>
    </g>
    <g id="xtick_13">
     <g id="line2d_21">
      <g>
       <use style="stroke:#000000;stroke-width:0.8;" x="838.011753" xlink:href="#m196f979903" y="400.189091"/>
      </g>
     </g>
     <g id="text_21">
      <!-- 2014-11 -->
      <g transform="translate(817.120347 414.787528)scale(0.1 -0.1)">
       <use xlink:href="#DejaVuSans-50"/>
       <use x="63.623047" xlink:href="#DejaVuSans-48"/>
       <use x="127.246094" xlink:href="#DejaVuSans-49"/>
       <use x="190.869141" xlink:href="#DejaVuSans-52"/>
       <use x="254.492188" xlink:href="#DejaVuSans-45"/>
       <use x="290.576172" xlink:href="#DejaVuSans-49"/>
       <use x="354.199219" xlink:href="#DejaVuSans-49"/>
      </g>
     </g>
    </g>
    <g id="xtick_14">
     <g id="line2d_22">
      <g>
       <use style="stroke:#000000;stroke-width:0.8;" x="888.017629" xlink:href="#m196f979903" y="400.189091"/>
      </g>
     </g>
     <g id="text_22">
      <!-- 2015-01 -->
      <g transform="translate(867.126223 414.787528)scale(0.1 -0.1)">
       <use xlink:href="#DejaVuSans-50"/>
       <use x="63.623047" xlink:href="#DejaVuSans-48"/>
       <use x="127.246094" xlink:href="#DejaVuSans-49"/>
       <use x="190.869141" xlink:href="#DejaVuSans-53"/>
       <use x="254.492188" xlink:href="#DejaVuSans-45"/>
       <use x="290.576172" xlink:href="#DejaVuSans-48"/>
       <use x="354.199219" xlink:href="#DejaVuSans-49"/>
      </g>
     </g>
    </g>
   </g>
   <g id="matplotlib.axis_4">
    <g id="ytick_8">
     <g id="line2d_23">
      <g>
       <use style="stroke:#000000;stroke-width:0.8;" x="573.882353" xlink:href="#mac6d4db002" y="386.711405"/>
      </g>
     </g>
    </g>
    <g id="ytick_9">
     <g id="line2d_24">
      <g>
       <use style="stroke:#000000;stroke-width:0.8;" x="573.882353" xlink:href="#mac6d4db002" y="342.681708"/>
      </g>
     </g>
    </g>
    <g id="ytick_10">
     <g id="line2d_25">
      <g>
       <use style="stroke:#000000;stroke-width:0.8;" x="573.882353" xlink:href="#mac6d4db002" y="298.652011"/>
      </g>
     </g>
    </g>
    <g id="ytick_11">
     <g id="line2d_26">
      <g>
       <use style="stroke:#000000;stroke-width:0.8;" x="573.882353" xlink:href="#mac6d4db002" y="254.622314"/>
      </g>
     </g>
    </g>
    <g id="ytick_12">
     <g id="line2d_27">
      <g>
       <use style="stroke:#000000;stroke-width:0.8;" x="573.882353" xlink:href="#mac6d4db002" y="210.592617"/>
      </g>
     </g>
    </g>
    <g id="ytick_13">
     <g id="line2d_28">
      <g>
       <use style="stroke:#000000;stroke-width:0.8;" x="573.882353" xlink:href="#mac6d4db002" y="166.562921"/>
      </g>
     </g>
    </g>
    <g id="ytick_14">
     <g id="line2d_29">
      <g>
       <use style="stroke:#000000;stroke-width:0.8;" x="573.882353" xlink:href="#mac6d4db002" y="122.533224"/>
      </g>
     </g>
    </g>
   </g>
   <g id="line2d_30">
    <path clip-path="url(#p4fc7b6064d)" d="M 588.802139 386.711405 
L 589.621908 354.592764 
L 590.441676 381.358298 
L 591.261444 386.711405 
L 595.360287 386.711405 
L 596.180055 373.592078 
L 596.999824 314.860697 
L 597.819592 280.885843 
L 598.639361 372.997267 
L 599.459129 342.416554 
L 600.278898 380.383569 
L 601.098666 386.711405 
L 615.03473 386.711405 
L 615.854498 345.424486 
L 616.674267 380.810342 
L 617.494035 307.41603 
L 618.313804 375.383472 
L 619.133572 386.711405 
L 621.592878 386.711405 
L 622.412646 327.147563 
L 623.232415 241.149367 
L 624.052183 334.565664 
L 624.871952 382.059049 
L 625.69172 374.092615 
L 626.511489 384.187647 
L 627.331257 386.711405 
L 629.790562 386.711405 
L 630.610331 273.26934 
L 631.430099 370.511085 
L 632.249868 386.711405 
L 639.627784 386.711405 
L 640.447552 368.86069 
L 641.267321 384.161303 
L 642.087089 334.081331 
L 642.906858 379.192819 
L 643.726626 386.711405 
L 645.366163 386.711405 
L 646.185932 322.094752 
L 647.0057 377.480457 
L 647.825469 386.711405 
L 648.645237 386.711405 
L 649.465006 275.341244 
L 650.284774 273.050606 
L 651.104543 372.756752 
L 651.924311 386.711405 
L 655.203385 386.711405 
L 656.023153 358.165017 
L 656.842922 381.953674 
L 657.66269 386.711405 
L 658.482459 386.711405 
L 659.302227 306.054394 
L 660.121996 197.241927 
L 660.941764 361.288869 
L 661.761533 386.711405 
L 665.040606 386.711405 
L 665.860375 363.792099 
L 666.680143 327.089602 
L 667.499912 194.923509 
L 668.31968 310.219152 
L 669.139449 379.535291 
L 669.959217 386.711405 
L 673.238291 386.711405 
L 674.05806 249.409534 
L 674.877828 367.093182 
L 675.697597 386.711405 
L 676.517365 386.711405 
L 677.337133 276.327242 
L 678.156902 370.930583 
L 678.97667 386.711405 
L 684.71505 386.711405 
L 685.534818 231.51898 
L 686.354587 364.541054 
L 687.174355 365.947041 
L 687.994124 383.745067 
L 688.813892 386.711405 
L 693.732503 386.711405 
L 694.552271 308.341475 
L 695.37204 375.515192 
L 696.191808 386.711405 
L 697.831345 386.711405 
L 698.651114 175.700433 
L 699.470882 356.595527 
L 700.290651 386.711405 
L 708.488335 386.711405 
L 709.308104 337.769525 
L 710.127872 332.658729 
L 710.947641 379.988409 
L 711.767409 359.750925 
L 712.587178 382.859908 
L 713.406946 386.711405 
L 716.68602 386.711405 
L 717.505788 320.619532 
L 718.325557 317.632087 
L 719.145325 378.191745 
L 719.965094 386.711405 
L 720.784862 329.581749 
L 721.604631 310.577156 
L 722.424399 377.000995 
L 723.244168 386.711405 
L 730.622084 386.711405 
L 731.441852 336.072912 
L 732.261621 379.477335 
L 733.081389 386.711405 
L 733.901158 386.711405 
L 734.720926 306.752244 
L 735.540695 375.288634 
L 736.360463 386.711405 
L 743.738379 386.711405 
L 744.558148 338.027719 
L 745.377916 379.756582 
L 746.197685 386.711405 
L 748.65699 386.711405 
L 749.476759 374.329712 
L 750.296527 384.235066 
L 751.116295 386.711405 
L 751.936064 361.863718 
L 752.755832 312.199953 
L 753.575601 344.903433 
L 754.395369 382.174963 
L 755.215138 386.711405 
L 769.151202 386.711405 
L 769.97097 204.151849 
L 770.790739 360.620882 
L 771.610507 386.711405 
L 775.709349 386.711405 
L 776.529118 325.598519 
L 777.348886 331.510125 
L 778.168655 380.072709 
L 778.988423 386.711405 
L 786.36634 386.711405 
L 787.186108 334.081331 
L 788.005876 379.192819 
L 788.825645 386.711405 
L 789.645413 386.711405 
L 790.465182 361.041783 
L 791.28495 382.433135 
L 792.104719 386.711405 
L 792.924487 386.711405 
L 793.744256 342.5272 
L 794.564024 380.399376 
L 795.383793 386.711405 
L 798.662867 386.711405 
L 799.482635 367.14306 
L 800.302403 383.450014 
L 801.122172 386.711405 
L 805.221014 386.711405 
L 806.040783 356.959522 
L 806.860551 382.448941 
L 807.68032 386.711405 
L 810.139625 386.711405 
L 811.779162 275.8432 
L 812.59893 372.075822 
L 813.418699 386.711405 
L 814.238467 386.711405 
L 815.058236 329.286694 
L 815.878004 378.507875 
L 816.697773 386.711405 
L 819.976847 386.711405 
L 820.796615 369.961954 
L 821.616384 383.913669 
L 822.436152 386.711405 
L 823.255921 274.56411 
L 824.075689 370.646499 
L 824.895457 386.711405 
L 850.30828 386.711405 
L 851.128048 315.382398 
L 851.947817 376.521534 
L 852.767585 386.711405 
L 856.046659 386.711405 
L 856.866428 323.865083 
L 857.686196 377.733359 
L 858.505965 386.711405 
L 866.703649 386.711405 
L 867.523418 361.54759 
L 868.343186 382.517436 
L 869.162955 386.711405 
L 874.081565 386.711405 
L 874.901334 373.460358 
L 875.721102 384.061196 
L 876.540871 386.711405 
L 877.360639 386.711405 
L 878.180408 362.274685 
L 879.000176 382.638618 
L 879.819945 386.711405 
L 880.639713 323.127457 
L 881.459482 141.76848 
L 882.27925 353.01719 
L 883.099019 386.711405 
L 883.918787 386.711405 
L 884.738556 270.238349 
L 885.558324 330.54305 
L 886.378092 381.063245 
L 887.197861 386.711405 
L 887.197861 386.711405 
" style="fill:none;stroke:#1f77b4;stroke-linecap:square;stroke-width:1.5;"/>
   </g>
   <g id="patch_8">
    <path d="M 573.882353 400.189091 
L 573.882353 103.68 
" style="fill:none;stroke:#000000;stroke-linecap:square;stroke-linejoin:miter;stroke-width:0.8;"/>
   </g>
   <g id="patch_9">
    <path d="M 902.117647 400.189091 
L 902.117647 103.68 
" style="fill:none;stroke:#000000;stroke-linecap:square;stroke-linejoin:miter;stroke-width:0.8;"/>
   </g>
   <g id="patch_10">
    <path d="M 573.882353 400.189091 
L 902.117647 400.189091 
" style="fill:none;stroke:#000000;stroke-linecap:square;stroke-linejoin:miter;stroke-width:0.8;"/>
   </g>
   <g id="patch_11">
    <path d="M 573.882353 103.68 
L 902.117647 103.68 
" style="fill:none;stroke:#000000;stroke-linecap:square;stroke-linejoin:miter;stroke-width:0.8;"/>
   </g>
   <g id="text_23">
    <!-- 03:00:00 -->
    <g transform="translate(711.0525 97.68)scale(0.12 -0.12)">
     <use xlink:href="#DejaVuSans-48"/>
     <use x="63.623047" xlink:href="#DejaVuSans-51"/>
     <use x="127.246094" xlink:href="#DejaVuSans-58"/>
     <use x="160.9375" xlink:href="#DejaVuSans-48"/>
     <use x="224.560547" xlink:href="#DejaVuSans-48"/>
     <use x="288.183594" xlink:href="#DejaVuSans-58"/>
     <use x="321.875" xlink:href="#DejaVuSans-48"/>
     <use x="385.498047" xlink:href="#DejaVuSans-48"/>
    </g>
   </g>
  </g>
  <g id="axes_3">
   <g id="patch_12">
    <path d="M 967.764706 400.189091 
L 1296 400.189091 
L 1296 103.68 
L 967.764706 103.68 
z
" style="fill:#ffffff;"/>
   </g>
   <g id="matplotlib.axis_5">
    <g id="xtick_15">
     <g id="line2d_31">
      <g>
       <use style="stroke:#000000;stroke-width:0.8;" x="982.684492" xlink:href="#m196f979903" y="400.189091"/>
      </g>
     </g>
     <g id="text_24">
      <!-- 2014-01 -->
      <g transform="translate(961.793086 414.787528)scale(0.1 -0.1)">
       <use xlink:href="#DejaVuSans-50"/>
       <use x="63.623047" xlink:href="#DejaVuSans-48"/>
       <use x="127.246094" xlink:href="#DejaVuSans-49"/>
       <use x="190.869141" xlink:href="#DejaVuSans-52"/>
       <use x="254.492188" xlink:href="#DejaVuSans-45"/>
       <use x="290.576172" xlink:href="#DejaVuSans-48"/>
       <use x="354.199219" xlink:href="#DejaVuSans-49"/>
      </g>
     </g>
    </g>
    <g id="xtick_16">
     <g id="line2d_32">
      <g>
       <use style="stroke:#000000;stroke-width:0.8;" x="1031.050832" xlink:href="#m196f979903" y="400.189091"/>
      </g>
     </g>
     <g id="text_25">
      <!-- 2014-03 -->
      <g transform="translate(1010.159425 414.787528)scale(0.1 -0.1)">
       <use xlink:href="#DejaVuSans-50"/>
       <use x="63.623047" xlink:href="#DejaVuSans-48"/>
       <use x="127.246094" xlink:href="#DejaVuSans-49"/>
       <use x="190.869141" xlink:href="#DejaVuSans-52"/>
       <use x="254.492188" xlink:href="#DejaVuSans-45"/>
       <use x="290.576172" xlink:href="#DejaVuSans-48"/>
       <use x="354.199219" xlink:href="#DejaVuSans-51"/>
      </g>
     </g>
    </g>
    <g id="xtick_17">
     <g id="line2d_33">
      <g>
       <use style="stroke:#000000;stroke-width:0.8;" x="1081.056708" xlink:href="#m196f979903" y="400.189091"/>
      </g>
     </g>
     <g id="text_26">
      <!-- 2014-05 -->
      <g transform="translate(1060.165302 414.787528)scale(0.1 -0.1)">
       <use xlink:href="#DejaVuSans-50"/>
       <use x="63.623047" xlink:href="#DejaVuSans-48"/>
       <use x="127.246094" xlink:href="#DejaVuSans-49"/>
       <use x="190.869141" xlink:href="#DejaVuSans-52"/>
       <use x="254.492188" xlink:href="#DejaVuSans-45"/>
       <use x="290.576172" xlink:href="#DejaVuSans-48"/>
       <use x="354.199219" xlink:href="#DejaVuSans-53"/>
      </g>
     </g>
    </g>
    <g id="xtick_18">
     <g id="line2d_34">
      <g>
       <use style="stroke:#000000;stroke-width:0.8;" x="1131.062584" xlink:href="#m196f979903" y="400.189091"/>
      </g>
     </g>
     <g id="text_27">
      <!-- 2014-07 -->
      <g transform="translate(1110.171178 414.787528)scale(0.1 -0.1)">
       <use xlink:href="#DejaVuSans-50"/>
       <use x="63.623047" xlink:href="#DejaVuSans-48"/>
       <use x="127.246094" xlink:href="#DejaVuSans-49"/>
       <use x="190.869141" xlink:href="#DejaVuSans-52"/>
       <use x="254.492188" xlink:href="#DejaVuSans-45"/>
       <use x="290.576172" xlink:href="#DejaVuSans-48"/>
       <use x="354.199219" xlink:href="#DejaVuSans-55"/>
      </g>
     </g>
    </g>
    <g id="xtick_19">
     <g id="line2d_35">
      <g>
       <use style="stroke:#000000;stroke-width:0.8;" x="1181.888229" xlink:href="#m196f979903" y="400.189091"/>
      </g>
     </g>
     <g id="text_28">
      <!-- 2014-09 -->
      <g transform="translate(1160.996823 414.787528)scale(0.1 -0.1)">
       <use xlink:href="#DejaVuSans-50"/>
       <use x="63.623047" xlink:href="#DejaVuSans-48"/>
       <use x="127.246094" xlink:href="#DejaVuSans-49"/>
       <use x="190.869141" xlink:href="#DejaVuSans-52"/>
       <use x="254.492188" xlink:href="#DejaVuSans-45"/>
       <use x="290.576172" xlink:href="#DejaVuSans-48"/>
       <use x="354.199219" xlink:href="#DejaVuSans-57"/>
      </g>
     </g>
    </g>
    <g id="xtick_20">
     <g id="line2d_36">
      <g>
       <use style="stroke:#000000;stroke-width:0.8;" x="1231.894106" xlink:href="#m196f979903" y="400.189091"/>
      </g>
     </g>
     <g id="text_29">
      <!-- 2014-11 -->
      <g transform="translate(1211.0027 414.787528)scale(0.1 -0.1)">
       <use xlink:href="#DejaVuSans-50"/>
       <use x="63.623047" xlink:href="#DejaVuSans-48"/>
       <use x="127.246094" xlink:href="#DejaVuSans-49"/>
       <use x="190.869141" xlink:href="#DejaVuSans-52"/>
       <use x="254.492188" xlink:href="#DejaVuSans-45"/>
       <use x="290.576172" xlink:href="#DejaVuSans-49"/>
       <use x="354.199219" xlink:href="#DejaVuSans-49"/>
      </g>
     </g>
    </g>
    <g id="xtick_21">
     <g id="line2d_37">
      <g>
       <use style="stroke:#000000;stroke-width:0.8;" x="1281.899982" xlink:href="#m196f979903" y="400.189091"/>
      </g>
     </g>
     <g id="text_30">
      <!-- 2015-01 -->
      <g transform="translate(1261.008576 414.787528)scale(0.1 -0.1)">
       <use xlink:href="#DejaVuSans-50"/>
       <use x="63.623047" xlink:href="#DejaVuSans-48"/>
       <use x="127.246094" xlink:href="#DejaVuSans-49"/>
       <use x="190.869141" xlink:href="#DejaVuSans-53"/>
       <use x="254.492188" xlink:href="#DejaVuSans-45"/>
       <use x="290.576172" xlink:href="#DejaVuSans-48"/>
       <use x="354.199219" xlink:href="#DejaVuSans-49"/>
      </g>
     </g>
    </g>
   </g>
   <g id="matplotlib.axis_6">
    <g id="ytick_15">
     <g id="line2d_38">
      <g>
       <use style="stroke:#000000;stroke-width:0.8;" x="967.764706" xlink:href="#mac6d4db002" y="386.711405"/>
      </g>
     </g>
    </g>
    <g id="ytick_16">
     <g id="line2d_39">
      <g>
       <use style="stroke:#000000;stroke-width:0.8;" x="967.764706" xlink:href="#mac6d4db002" y="342.681708"/>
      </g>
     </g>
    </g>
    <g id="ytick_17">
     <g id="line2d_40">
      <g>
       <use style="stroke:#000000;stroke-width:0.8;" x="967.764706" xlink:href="#mac6d4db002" y="298.652011"/>
      </g>
     </g>
    </g>
    <g id="ytick_18">
     <g id="line2d_41">
      <g>
       <use style="stroke:#000000;stroke-width:0.8;" x="967.764706" xlink:href="#mac6d4db002" y="254.622314"/>
      </g>
     </g>
    </g>
    <g id="ytick_19">
     <g id="line2d_42">
      <g>
       <use style="stroke:#000000;stroke-width:0.8;" x="967.764706" xlink:href="#mac6d4db002" y="210.592617"/>
      </g>
     </g>
    </g>
    <g id="ytick_20">
     <g id="line2d_43">
      <g>
       <use style="stroke:#000000;stroke-width:0.8;" x="967.764706" xlink:href="#mac6d4db002" y="166.562921"/>
      </g>
     </g>
    </g>
    <g id="ytick_21">
     <g id="line2d_44">
      <g>
       <use style="stroke:#000000;stroke-width:0.8;" x="967.764706" xlink:href="#mac6d4db002" y="122.533224"/>
      </g>
     </g>
    </g>
   </g>
   <g id="line2d_45">
    <path clip-path="url(#p34bf4e1efd)" d="M 982.684492 386.711405 
L 983.50426 354.592764 
L 984.324029 376.005191 
L 985.143797 386.711405 
L 989.24264 386.711405 
L 990.062408 376.215944 
L 990.882177 322.126381 
L 991.701945 284.697471 
L 992.521714 359.283128 
L 993.341482 348.74439 
L 994.161251 374.055733 
L 994.981019 386.711405 
L 1008.917083 386.711405 
L 1009.736851 351.305029 
L 1010.55662 374.909279 
L 1011.376388 318.74381 
L 1012.196157 364.05554 
L 1013.015925 386.711405 
L 1015.475231 386.711405 
L 1016.294999 335.656676 
L 1017.114768 252.219179 
L 1017.934536 319.638768 
L 1018.754305 377.406694 
L 1019.574073 376.616373 
L 1021.21361 386.711405 
L 1023.672915 386.711405 
L 1024.492684 289.436457 
L 1025.312452 354.310765 
L 1026.132221 386.711405 
L 1033.510137 386.711405 
L 1034.329905 371.410792 
L 1035.149674 381.611201 
L 1035.969442 341.599888 
L 1036.789211 371.674233 
L 1037.608979 386.711405 
L 1039.248516 386.711405 
L 1040.068285 331.325718 
L 1040.888053 368.249509 
L 1041.707822 386.711405 
L 1042.52759 386.711405 
L 1043.347359 291.302002 
L 1044.167127 271.109711 
L 1044.986895 358.802099 
L 1045.806664 386.711405 
L 1049.085738 386.711405 
L 1049.905506 358.165017 
L 1050.725275 377.195942 
L 1051.545043 386.711405 
L 1052.364812 386.711405 
L 1053.18458 317.574255 
L 1054.004349 211.152961 
L 1054.824117 335.866334 
L 1055.643886 386.711405 
L 1058.922959 386.711405 
L 1059.742728 363.792099 
L 1060.562496 331.24142 
L 1061.382265 213.21126 
L 1063.021802 372.359177 
L 1063.84157 386.711405 
L 1067.120644 386.711405 
L 1067.940413 269.022672 
L 1068.760181 347.47496 
L 1069.579949 386.711405 
L 1070.399718 386.711405 
L 1071.219486 292.187201 
L 1072.039255 355.149762 
L 1072.859023 386.711405 
L 1078.597403 386.711405 
L 1079.417171 253.689302 
L 1080.23694 342.370704 
L 1081.056708 368.913379 
L 1081.876476 380.77873 
L 1082.696245 386.711405 
L 1087.614856 386.711405 
L 1088.434624 319.534145 
L 1089.254393 364.31898 
L 1090.074161 386.711405 
L 1091.713698 386.711405 
L 1092.533467 206.016155 
L 1093.353235 326.47965 
L 1094.173003 386.711405 
L 1102.370688 386.711405 
L 1103.190457 344.761172 
L 1104.010225 332.390019 
L 1104.829994 373.265413 
L 1105.649762 363.602422 
L 1106.46953 379.008411 
L 1107.289299 386.711405 
L 1110.568373 386.711405 
L 1111.388141 330.061204 
L 1112.20791 316.710047 
L 1113.027678 369.672086 
L 1113.847447 386.711405 
L 1114.667215 337.743121 
L 1115.486984 312.126185 
L 1116.306752 367.290585 
L 1117.126521 386.711405 
L 1124.504437 386.711405 
L 1125.324205 343.306982 
L 1126.143974 372.243264 
L 1126.963742 386.711405 
L 1127.783511 386.711405 
L 1128.603279 318.174783 
L 1129.423048 363.865863 
L 1130.242816 386.711405 
L 1137.620732 386.711405 
L 1138.440501 344.982466 
L 1139.260269 372.801759 
L 1140.080038 386.711405 
L 1142.539343 386.711405 
L 1143.359111 376.806051 
L 1144.998648 386.711405 
L 1145.818417 361.863718 
L 1146.638185 318.111553 
L 1147.457954 339.386993 
L 1148.277722 377.638522 
L 1149.097491 386.711405 
L 1163.033555 386.711405 
L 1163.853323 230.215238 
L 1164.673092 334.530359 
L 1165.49286 386.711405 
L 1169.591702 386.711405 
L 1170.411471 334.328941 
L 1171.231239 329.41841 
L 1172.051008 373.434014 
L 1172.870776 386.711405 
L 1180.248692 386.711405 
L 1181.068461 341.599888 
L 1181.888229 371.674233 
L 1182.707998 386.711405 
L 1183.527766 386.711405 
L 1184.347535 361.041783 
L 1185.167303 378.154864 
L 1185.987072 386.711405 
L 1186.80684 386.711405 
L 1187.626609 348.839229 
L 1188.446377 374.087346 
L 1189.266146 386.711405 
L 1192.545219 386.711405 
L 1193.364988 367.14306 
L 1194.184756 380.188623 
L 1195.004525 386.711405 
L 1199.103367 386.711405 
L 1199.923136 361.136621 
L 1200.742904 378.186477 
L 1201.562673 386.711405 
L 1204.021978 386.711405 
L 1204.841746 337.996025 
L 1205.661515 282.418385 
L 1206.481283 357.44024 
L 1207.301052 386.711405 
L 1208.12082 386.711405 
L 1208.940589 337.490224 
L 1209.760357 370.304345 
L 1210.580126 386.711405 
L 1213.8592 386.711405 
L 1214.678968 369.998918 
L 1215.498737 381.115934 
L 1216.318505 386.711405 
L 1217.138273 290.624808 
L 1217.958042 354.581593 
L 1218.77781 386.711405 
L 1244.190633 386.711405 
L 1245.010401 325.572182 
L 1245.83017 366.331664 
L 1246.649938 386.711405 
L 1249.929012 386.711405 
L 1250.748781 332.843129 
L 1251.568549 368.755313 
L 1252.388318 386.711405 
L 1260.586002 386.711405 
L 1261.405771 361.54759 
L 1262.225539 378.323467 
L 1263.045308 386.711405 
L 1267.963918 386.711405 
L 1268.783687 376.110567 
L 1270.423224 386.711405 
L 1271.242992 386.711405 
L 1272.062761 362.274685 
L 1272.882529 378.565832 
L 1273.702298 386.711405 
L 1274.522066 332.210878 
L 1275.341835 166.379273 
L 1276.161603 319.322975 
L 1276.981372 386.711405 
L 1277.80114 386.711405 
L 1278.620909 286.990315 
L 1279.440677 319.559977 
L 1280.260445 375.415084 
L 1281.080214 386.711405 
L 1281.080214 386.711405 
" style="fill:none;stroke:#1f77b4;stroke-linecap:square;stroke-width:1.5;"/>
   </g>
   <g id="patch_13">
    <path d="M 967.764706 400.189091 
L 967.764706 103.68 
" style="fill:none;stroke:#000000;stroke-linecap:square;stroke-linejoin:miter;stroke-width:0.8;"/>
   </g>
   <g id="patch_14">
    <path d="M 1296 400.189091 
L 1296 103.68 
" style="fill:none;stroke:#000000;stroke-linecap:square;stroke-linejoin:miter;stroke-width:0.8;"/>
   </g>
   <g id="patch_15">
    <path d="M 967.764706 400.189091 
L 1296 400.189091 
" style="fill:none;stroke:#000000;stroke-linecap:square;stroke-linejoin:miter;stroke-width:0.8;"/>
   </g>
   <g id="patch_16">
    <path d="M 967.764706 103.68 
L 1296 103.68 
" style="fill:none;stroke:#000000;stroke-linecap:square;stroke-linejoin:miter;stroke-width:0.8;"/>
   </g>
   <g id="text_31">
    <!-- 06:00:00 -->
    <g transform="translate(1104.934853 97.68)scale(0.12 -0.12)">
     <use xlink:href="#DejaVuSans-48"/>
     <use x="63.623047" xlink:href="#DejaVuSans-54"/>
     <use x="127.246094" xlink:href="#DejaVuSans-58"/>
     <use x="160.9375" xlink:href="#DejaVuSans-48"/>
     <use x="224.560547" xlink:href="#DejaVuSans-48"/>
     <use x="288.183594" xlink:href="#DejaVuSans-58"/>
     <use x="321.875" xlink:href="#DejaVuSans-48"/>
     <use x="385.498047" xlink:href="#DejaVuSans-48"/>
    </g>
   </g>
  </g>
  <g id="axes_4">
   <g id="patch_17">
    <path d="M 180 756 
L 508.235294 756 
L 508.235294 459.490909 
L 180 459.490909 
z
" style="fill:#ffffff;"/>
   </g>
   <g id="matplotlib.axis_7">
    <g id="xtick_22">
     <g id="line2d_46">
      <g>
       <use style="stroke:#000000;stroke-width:0.8;" x="194.919786" xlink:href="#m196f979903" y="756"/>
      </g>
     </g>
     <g id="text_32">
      <!-- 2014-01 -->
      <g transform="translate(174.02838 770.598437)scale(0.1 -0.1)">
       <use xlink:href="#DejaVuSans-50"/>
       <use x="63.623047" xlink:href="#DejaVuSans-48"/>
       <use x="127.246094" xlink:href="#DejaVuSans-49"/>
       <use x="190.869141" xlink:href="#DejaVuSans-52"/>
       <use x="254.492188" xlink:href="#DejaVuSans-45"/>
       <use x="290.576172" xlink:href="#DejaVuSans-48"/>
       <use x="354.199219" xlink:href="#DejaVuSans-49"/>
      </g>
     </g>
    </g>
    <g id="xtick_23">
     <g id="line2d_47">
      <g>
       <use style="stroke:#000000;stroke-width:0.8;" x="243.286126" xlink:href="#m196f979903" y="756"/>
      </g>
     </g>
     <g id="text_33">
      <!-- 2014-03 -->
      <g transform="translate(222.394719 770.598437)scale(0.1 -0.1)">
       <use xlink:href="#DejaVuSans-50"/>
       <use x="63.623047" xlink:href="#DejaVuSans-48"/>
       <use x="127.246094" xlink:href="#DejaVuSans-49"/>
       <use x="190.869141" xlink:href="#DejaVuSans-52"/>
       <use x="254.492188" xlink:href="#DejaVuSans-45"/>
       <use x="290.576172" xlink:href="#DejaVuSans-48"/>
       <use x="354.199219" xlink:href="#DejaVuSans-51"/>
      </g>
     </g>
    </g>
    <g id="xtick_24">
     <g id="line2d_48">
      <g>
       <use style="stroke:#000000;stroke-width:0.8;" x="293.292002" xlink:href="#m196f979903" y="756"/>
      </g>
     </g>
     <g id="text_34">
      <!-- 2014-05 -->
      <g transform="translate(272.400596 770.598437)scale(0.1 -0.1)">
       <use xlink:href="#DejaVuSans-50"/>
       <use x="63.623047" xlink:href="#DejaVuSans-48"/>
       <use x="127.246094" xlink:href="#DejaVuSans-49"/>
       <use x="190.869141" xlink:href="#DejaVuSans-52"/>
       <use x="254.492188" xlink:href="#DejaVuSans-45"/>
       <use x="290.576172" xlink:href="#DejaVuSans-48"/>
       <use x="354.199219" xlink:href="#DejaVuSans-53"/>
      </g>
     </g>
    </g>
    <g id="xtick_25">
     <g id="line2d_49">
      <g>
       <use style="stroke:#000000;stroke-width:0.8;" x="343.297879" xlink:href="#m196f979903" y="756"/>
      </g>
     </g>
     <g id="text_35">
      <!-- 2014-07 -->
      <g transform="translate(322.406472 770.598437)scale(0.1 -0.1)">
       <use xlink:href="#DejaVuSans-50"/>
       <use x="63.623047" xlink:href="#DejaVuSans-48"/>
       <use x="127.246094" xlink:href="#DejaVuSans-49"/>
       <use x="190.869141" xlink:href="#DejaVuSans-52"/>
       <use x="254.492188" xlink:href="#DejaVuSans-45"/>
       <use x="290.576172" xlink:href="#DejaVuSans-48"/>
       <use x="354.199219" xlink:href="#DejaVuSans-55"/>
      </g>
     </g>
    </g>
    <g id="xtick_26">
     <g id="line2d_50">
      <g>
       <use style="stroke:#000000;stroke-width:0.8;" x="394.123524" xlink:href="#m196f979903" y="756"/>
      </g>
     </g>
     <g id="text_36">
      <!-- 2014-09 -->
      <g transform="translate(373.232117 770.598437)scale(0.1 -0.1)">
       <use xlink:href="#DejaVuSans-50"/>
       <use x="63.623047" xlink:href="#DejaVuSans-48"/>
       <use x="127.246094" xlink:href="#DejaVuSans-49"/>
       <use x="190.869141" xlink:href="#DejaVuSans-52"/>
       <use x="254.492188" xlink:href="#DejaVuSans-45"/>
       <use x="290.576172" xlink:href="#DejaVuSans-48"/>
       <use x="354.199219" xlink:href="#DejaVuSans-57"/>
      </g>
     </g>
    </g>
    <g id="xtick_27">
     <g id="line2d_51">
      <g>
       <use style="stroke:#000000;stroke-width:0.8;" x="444.1294" xlink:href="#m196f979903" y="756"/>
      </g>
     </g>
     <g id="text_37">
      <!-- 2014-11 -->
      <g transform="translate(423.237994 770.598437)scale(0.1 -0.1)">
       <use xlink:href="#DejaVuSans-50"/>
       <use x="63.623047" xlink:href="#DejaVuSans-48"/>
       <use x="127.246094" xlink:href="#DejaVuSans-49"/>
       <use x="190.869141" xlink:href="#DejaVuSans-52"/>
       <use x="254.492188" xlink:href="#DejaVuSans-45"/>
       <use x="290.576172" xlink:href="#DejaVuSans-49"/>
       <use x="354.199219" xlink:href="#DejaVuSans-49"/>
      </g>
     </g>
    </g>
    <g id="xtick_28">
     <g id="line2d_52">
      <g>
       <use style="stroke:#000000;stroke-width:0.8;" x="494.135276" xlink:href="#m196f979903" y="756"/>
      </g>
     </g>
     <g id="text_38">
      <!-- 2015-01 -->
      <g transform="translate(473.24387 770.598437)scale(0.1 -0.1)">
       <use xlink:href="#DejaVuSans-50"/>
       <use x="63.623047" xlink:href="#DejaVuSans-48"/>
       <use x="127.246094" xlink:href="#DejaVuSans-49"/>
       <use x="190.869141" xlink:href="#DejaVuSans-53"/>
       <use x="254.492188" xlink:href="#DejaVuSans-45"/>
       <use x="290.576172" xlink:href="#DejaVuSans-48"/>
       <use x="354.199219" xlink:href="#DejaVuSans-49"/>
      </g>
     </g>
    </g>
   </g>
   <g id="matplotlib.axis_8">
    <g id="ytick_22">
     <g id="line2d_53">
      <g>
       <use style="stroke:#000000;stroke-width:0.8;" x="180" xlink:href="#mac6d4db002" y="742.522314"/>
      </g>
     </g>
     <g id="text_39">
      <!-- 0 -->
      <g transform="translate(166.6375 746.321533)scale(0.1 -0.1)">
       <use xlink:href="#DejaVuSans-48"/>
      </g>
     </g>
    </g>
    <g id="ytick_23">
     <g id="line2d_54">
      <g>
       <use style="stroke:#000000;stroke-width:0.8;" x="180" xlink:href="#mac6d4db002" y="698.492617"/>
      </g>
     </g>
     <g id="text_40">
      <!-- 1 -->
      <g transform="translate(166.6375 702.291836)scale(0.1 -0.1)">
       <use xlink:href="#DejaVuSans-49"/>
      </g>
     </g>
    </g>
    <g id="ytick_24">
     <g id="line2d_55">
      <g>
       <use style="stroke:#000000;stroke-width:0.8;" x="180" xlink:href="#mac6d4db002" y="654.46292"/>
      </g>
     </g>
     <g id="text_41">
      <!-- 2 -->
      <g transform="translate(166.6375 658.262139)scale(0.1 -0.1)">
       <use xlink:href="#DejaVuSans-50"/>
      </g>
     </g>
    </g>
    <g id="ytick_25">
     <g id="line2d_56">
      <g>
       <use style="stroke:#000000;stroke-width:0.8;" x="180" xlink:href="#mac6d4db002" y="610.433223"/>
      </g>
     </g>
     <g id="text_42">
      <!-- 3 -->
      <g transform="translate(166.6375 614.232442)scale(0.1 -0.1)">
       <use xlink:href="#DejaVuSans-51"/>
      </g>
     </g>
    </g>
    <g id="ytick_26">
     <g id="line2d_57">
      <g>
       <use style="stroke:#000000;stroke-width:0.8;" x="180" xlink:href="#mac6d4db002" y="566.403526"/>
      </g>
     </g>
     <g id="text_43">
      <!-- 4 -->
      <g transform="translate(166.6375 570.202745)scale(0.1 -0.1)">
       <use xlink:href="#DejaVuSans-52"/>
      </g>
     </g>
    </g>
    <g id="ytick_27">
     <g id="line2d_58">
      <g>
       <use style="stroke:#000000;stroke-width:0.8;" x="180" xlink:href="#mac6d4db002" y="522.37383"/>
      </g>
     </g>
     <g id="text_44">
      <!-- 5 -->
      <g transform="translate(166.6375 526.173048)scale(0.1 -0.1)">
       <use xlink:href="#DejaVuSans-53"/>
      </g>
     </g>
    </g>
    <g id="ytick_28">
     <g id="line2d_59">
      <g>
       <use style="stroke:#000000;stroke-width:0.8;" x="180" xlink:href="#mac6d4db002" y="478.344133"/>
      </g>
     </g>
     <g id="text_45">
      <!-- 6 -->
      <g transform="translate(166.6375 482.143351)scale(0.1 -0.1)">
       <use xlink:href="#DejaVuSans-54"/>
      </g>
     </g>
    </g>
   </g>
   <g id="line2d_60">
    <path clip-path="url(#pd8e247d971)" d="M 194.919786 742.522314 
L 195.739555 721.109887 
L 196.559323 721.109887 
L 197.379091 742.522314 
L 201.477934 742.522314 
L 202.297702 732.026853 
L 203.937239 648.101691 
L 204.757008 687.66576 
L 205.576776 717.21097 
L 206.396545 717.21097 
L 207.216313 742.522314 
L 221.152377 742.522314 
L 221.972146 718.918063 
L 222.791914 718.918063 
L 223.611682 697.210584 
L 224.431451 697.210584 
L 225.251219 742.522314 
L 227.710525 742.522314 
L 228.530293 708.485828 
L 229.350062 630.169771 
L 230.16983 645.595885 
L 230.989599 723.912892 
L 231.809367 732.427282 
L 232.629136 732.427282 
L 233.448904 742.522314 
L 235.908209 742.522314 
L 236.727978 677.742413 
L 237.547746 677.721035 
L 238.367515 742.522314 
L 245.745431 742.522314 
L 246.5652 732.321905 
L 247.384968 732.321905 
L 248.204736 712.44797 
L 249.024505 712.44797 
L 249.844273 742.522314 
L 251.48381 742.522314 
L 252.303579 705.598523 
L 253.123347 705.598523 
L 253.943116 742.522314 
L 254.762884 742.522314 
L 256.402421 623.206668 
L 258.041958 742.522314 
L 261.321032 742.522314 
L 262.1408 723.491389 
L 262.960569 723.491389 
L 263.780337 742.522314 
L 264.600106 742.522314 
L 265.419874 696.430798 
L 266.239643 594.740635 
L 267.059411 640.832171 
L 267.87918 742.522314 
L 271.158254 742.522314 
L 271.978022 727.242777 
L 272.79779 695.355966 
L 273.617559 605.597677 
L 274.437327 608.780033 
L 275.257096 713.817859 
L 276.076864 742.522314 
L 279.355938 742.522314 
L 280.175707 664.06146 
L 280.995475 664.049424 
L 281.815244 742.522314 
L 282.635012 742.522314 
L 283.454781 679.39021 
L 284.274549 679.399028 
L 285.094317 742.522314 
L 290.832697 742.522314 
L 291.652465 653.840912 
L 292.472234 653.840912 
L 293.292002 730.656963 
L 294.111771 730.656963 
L 294.931539 742.522314 
L 299.85015 742.522314 
L 300.669918 697.737464 
L 301.489687 697.737464 
L 302.309455 742.522314 
L 303.948992 742.522314 
L 304.768761 622.058803 
L 305.588529 622.058803 
L 306.408298 742.522314 
L 314.605982 742.522314 
L 316.245519 687.663509 
L 317.065288 715.630331 
L 317.885056 727.116325 
L 318.704825 727.116325 
L 319.524593 742.522314 
L 322.803667 742.522314 
L 324.443204 670.676875 
L 326.082741 742.522314 
L 326.902509 709.876791 
L 327.722278 671.035152 
L 328.542046 703.680675 
L 329.361815 742.522314 
L 336.739731 742.522314 
L 337.559499 713.586032 
L 338.379268 713.586032 
L 339.199036 742.522314 
L 340.018805 742.522314 
L 340.838573 696.831231 
L 341.658342 696.831231 
L 342.47811 742.522314 
L 349.856026 742.522314 
L 350.675795 714.703021 
L 351.495563 714.703021 
L 352.315332 742.522314 
L 354.774637 742.522314 
L 355.594406 732.61696 
L 356.414174 732.61696 
L 357.233943 742.522314 
L 358.053711 725.957189 
L 358.873479 685.745663 
L 359.693248 684.165022 
L 360.513016 724.376548 
L 361.332785 742.522314 
L 375.268849 742.522314 
L 376.088617 638.192754 
L 376.908386 638.160222 
L 377.728154 742.522314 
L 381.826997 742.522314 
L 382.646765 707.600671 
L 383.466533 681.045889 
L 384.286302 715.967531 
L 385.10607 742.522314 
L 392.483987 742.522314 
L 393.303755 712.44797 
L 394.123524 712.44797 
L 394.943292 742.522314 
L 395.76306 742.522314 
L 396.582829 725.409233 
L 397.402597 725.409233 
L 398.222366 742.522314 
L 399.042134 742.522314 
L 399.861903 717.274197 
L 400.681671 717.274197 
L 401.50144 742.522314 
L 404.780514 742.522314 
L 405.600282 729.476751 
L 406.420051 729.476751 
L 407.239819 742.522314 
L 411.338661 742.522314 
L 412.15843 725.472458 
L 412.978198 725.472458 
L 413.797967 742.522314 
L 416.257272 742.522314 
L 417.077041 710.045394 
L 417.896809 651.52048 
L 418.716578 683.979984 
L 419.536346 742.522314 
L 420.356114 742.522314 
L 421.175883 709.708194 
L 421.995651 709.708194 
L 422.81542 742.522314 
L 426.094494 742.522314 
L 426.914262 731.331371 
L 427.734031 731.331371 
L 428.553799 742.522314 
L 429.373568 678.501728 
L 430.193336 678.26269 
L 431.013105 742.522314 
L 456.425927 742.522314 
L 457.245695 701.762832 
L 458.065464 701.762832 
L 458.885232 742.522314 
L 462.164306 742.522314 
L 462.984075 706.61013 
L 463.803843 706.61013 
L 464.623612 742.522314 
L 472.821296 742.522314 
L 473.641065 725.746437 
L 474.460833 725.746437 
L 475.280602 742.522314 
L 480.199213 742.522314 
L 481.018981 731.921476 
L 481.838749 731.921476 
L 482.658518 742.522314 
L 483.478286 742.522314 
L 484.298055 726.231167 
L 485.117823 726.231167 
L 485.937592 742.522314 
L 486.75736 706.188629 
L 487.577129 571.41177 
L 488.396897 607.745455 
L 489.216666 742.522314 
L 490.036434 742.522314 
L 490.856203 676.048594 
L 491.675971 653.404741 
L 492.49574 719.929673 
L 493.315508 742.522314 
L 493.315508 742.522314 
" style="fill:none;stroke:#1f77b4;stroke-linecap:square;stroke-width:1.5;"/>
   </g>
   <g id="patch_18">
    <path d="M 180 756 
L 180 459.490909 
" style="fill:none;stroke:#000000;stroke-linecap:square;stroke-linejoin:miter;stroke-width:0.8;"/>
   </g>
   <g id="patch_19">
    <path d="M 508.235294 756 
L 508.235294 459.490909 
" style="fill:none;stroke:#000000;stroke-linecap:square;stroke-linejoin:miter;stroke-width:0.8;"/>
   </g>
   <g id="patch_20">
    <path d="M 180 756 
L 508.235294 756 
" style="fill:none;stroke:#000000;stroke-linecap:square;stroke-linejoin:miter;stroke-width:0.8;"/>
   </g>
   <g id="patch_21">
    <path d="M 180 459.490909 
L 508.235294 459.490909 
" style="fill:none;stroke:#000000;stroke-linecap:square;stroke-linejoin:miter;stroke-width:0.8;"/>
   </g>
   <g id="text_46">
    <!-- 12:00:00 -->
    <g transform="translate(317.170147 453.490909)scale(0.12 -0.12)">
     <use xlink:href="#DejaVuSans-49"/>
     <use x="63.623047" xlink:href="#DejaVuSans-50"/>
     <use x="127.246094" xlink:href="#DejaVuSans-58"/>
     <use x="160.9375" xlink:href="#DejaVuSans-48"/>
     <use x="224.560547" xlink:href="#DejaVuSans-48"/>
     <use x="288.183594" xlink:href="#DejaVuSans-58"/>
     <use x="321.875" xlink:href="#DejaVuSans-48"/>
     <use x="385.498047" xlink:href="#DejaVuSans-48"/>
    </g>
   </g>
  </g>
  <g id="axes_5">
   <g id="patch_22">
    <path d="M 573.882353 756 
L 902.117647 756 
L 902.117647 459.490909 
L 573.882353 459.490909 
z
" style="fill:#ffffff;"/>
   </g>
   <g id="matplotlib.axis_9">
    <g id="xtick_29">
     <g id="line2d_61">
      <g>
       <use style="stroke:#000000;stroke-width:0.8;" x="588.802139" xlink:href="#m196f979903" y="756"/>
      </g>
     </g>
     <g id="text_47">
      <!-- 2014-01 -->
      <g transform="translate(567.910733 770.598437)scale(0.1 -0.1)">
       <use xlink:href="#DejaVuSans-50"/>
       <use x="63.623047" xlink:href="#DejaVuSans-48"/>
       <use x="127.246094" xlink:href="#DejaVuSans-49"/>
       <use x="190.869141" xlink:href="#DejaVuSans-52"/>
       <use x="254.492188" xlink:href="#DejaVuSans-45"/>
       <use x="290.576172" xlink:href="#DejaVuSans-48"/>
       <use x="354.199219" xlink:href="#DejaVuSans-49"/>
      </g>
     </g>
    </g>
    <g id="xtick_30">
     <g id="line2d_62">
      <g>
       <use style="stroke:#000000;stroke-width:0.8;" x="637.168479" xlink:href="#m196f979903" y="756"/>
      </g>
     </g>
     <g id="text_48">
      <!-- 2014-03 -->
      <g transform="translate(616.277072 770.598437)scale(0.1 -0.1)">
       <use xlink:href="#DejaVuSans-50"/>
       <use x="63.623047" xlink:href="#DejaVuSans-48"/>
       <use x="127.246094" xlink:href="#DejaVuSans-49"/>
       <use x="190.869141" xlink:href="#DejaVuSans-52"/>
       <use x="254.492188" xlink:href="#DejaVuSans-45"/>
       <use x="290.576172" xlink:href="#DejaVuSans-48"/>
       <use x="354.199219" xlink:href="#DejaVuSans-51"/>
      </g>
     </g>
    </g>
    <g id="xtick_31">
     <g id="line2d_63">
      <g>
       <use style="stroke:#000000;stroke-width:0.8;" x="687.174355" xlink:href="#m196f979903" y="756"/>
      </g>
     </g>
     <g id="text_49">
      <!-- 2014-05 -->
      <g transform="translate(666.282949 770.598437)scale(0.1 -0.1)">
       <use xlink:href="#DejaVuSans-50"/>
       <use x="63.623047" xlink:href="#DejaVuSans-48"/>
       <use x="127.246094" xlink:href="#DejaVuSans-49"/>
       <use x="190.869141" xlink:href="#DejaVuSans-52"/>
       <use x="254.492188" xlink:href="#DejaVuSans-45"/>
       <use x="290.576172" xlink:href="#DejaVuSans-48"/>
       <use x="354.199219" xlink:href="#DejaVuSans-53"/>
      </g>
     </g>
    </g>
    <g id="xtick_32">
     <g id="line2d_64">
      <g>
       <use style="stroke:#000000;stroke-width:0.8;" x="737.180232" xlink:href="#m196f979903" y="756"/>
      </g>
     </g>
     <g id="text_50">
      <!-- 2014-07 -->
      <g transform="translate(716.288825 770.598437)scale(0.1 -0.1)">
       <use xlink:href="#DejaVuSans-50"/>
       <use x="63.623047" xlink:href="#DejaVuSans-48"/>
       <use x="127.246094" xlink:href="#DejaVuSans-49"/>
       <use x="190.869141" xlink:href="#DejaVuSans-52"/>
       <use x="254.492188" xlink:href="#DejaVuSans-45"/>
       <use x="290.576172" xlink:href="#DejaVuSans-48"/>
       <use x="354.199219" xlink:href="#DejaVuSans-55"/>
      </g>
     </g>
    </g>
    <g id="xtick_33">
     <g id="line2d_65">
      <g>
       <use style="stroke:#000000;stroke-width:0.8;" x="788.005876" xlink:href="#m196f979903" y="756"/>
      </g>
     </g>
     <g id="text_51">
      <!-- 2014-09 -->
      <g transform="translate(767.11447 770.598437)scale(0.1 -0.1)">
       <use xlink:href="#DejaVuSans-50"/>
       <use x="63.623047" xlink:href="#DejaVuSans-48"/>
       <use x="127.246094" xlink:href="#DejaVuSans-49"/>
       <use x="190.869141" xlink:href="#DejaVuSans-52"/>
       <use x="254.492188" xlink:href="#DejaVuSans-45"/>
       <use x="290.576172" xlink:href="#DejaVuSans-48"/>
       <use x="354.199219" xlink:href="#DejaVuSans-57"/>
      </g>
     </g>
    </g>
    <g id="xtick_34">
     <g id="line2d_66">
      <g>
       <use style="stroke:#000000;stroke-width:0.8;" x="838.011753" xlink:href="#m196f979903" y="756"/>
      </g>
     </g>
     <g id="text_52">
      <!-- 2014-11 -->
      <g transform="translate(817.120347 770.598437)scale(0.1 -0.1)">
       <use xlink:href="#DejaVuSans-50"/>
       <use x="63.623047" xlink:href="#DejaVuSans-48"/>
       <use x="127.246094" xlink:href="#DejaVuSans-49"/>
       <use x="190.869141" xlink:href="#DejaVuSans-52"/>
       <use x="254.492188" xlink:href="#DejaVuSans-45"/>
       <use x="290.576172" xlink:href="#DejaVuSans-49"/>
       <use x="354.199219" xlink:href="#DejaVuSans-49"/>
      </g>
     </g>
    </g>
    <g id="xtick_35">
     <g id="line2d_67">
      <g>
       <use style="stroke:#000000;stroke-width:0.8;" x="888.017629" xlink:href="#m196f979903" y="756"/>
      </g>
     </g>
     <g id="text_53">
      <!-- 2015-01 -->
      <g transform="translate(867.126223 770.598437)scale(0.1 -0.1)">
       <use xlink:href="#DejaVuSans-50"/>
       <use x="63.623047" xlink:href="#DejaVuSans-48"/>
       <use x="127.246094" xlink:href="#DejaVuSans-49"/>
       <use x="190.869141" xlink:href="#DejaVuSans-53"/>
       <use x="254.492188" xlink:href="#DejaVuSans-45"/>
       <use x="290.576172" xlink:href="#DejaVuSans-48"/>
       <use x="354.199219" xlink:href="#DejaVuSans-49"/>
      </g>
     </g>
    </g>
   </g>
   <g id="matplotlib.axis_10">
    <g id="ytick_29">
     <g id="line2d_68">
      <g>
       <use style="stroke:#000000;stroke-width:0.8;" x="573.882353" xlink:href="#mac6d4db002" y="742.522314"/>
      </g>
     </g>
    </g>
    <g id="ytick_30">
     <g id="line2d_69">
      <g>
       <use style="stroke:#000000;stroke-width:0.8;" x="573.882353" xlink:href="#mac6d4db002" y="698.492617"/>
      </g>
     </g>
    </g>
    <g id="ytick_31">
     <g id="line2d_70">
      <g>
       <use style="stroke:#000000;stroke-width:0.8;" x="573.882353" xlink:href="#mac6d4db002" y="654.46292"/>
      </g>
     </g>
    </g>
    <g id="ytick_32">
     <g id="line2d_71">
      <g>
       <use style="stroke:#000000;stroke-width:0.8;" x="573.882353" xlink:href="#mac6d4db002" y="610.433223"/>
      </g>
     </g>
    </g>
    <g id="ytick_33">
     <g id="line2d_72">
      <g>
       <use style="stroke:#000000;stroke-width:0.8;" x="573.882353" xlink:href="#mac6d4db002" y="566.403526"/>
      </g>
     </g>
    </g>
    <g id="ytick_34">
     <g id="line2d_73">
      <g>
       <use style="stroke:#000000;stroke-width:0.8;" x="573.882353" xlink:href="#mac6d4db002" y="522.37383"/>
      </g>
     </g>
    </g>
    <g id="ytick_35">
     <g id="line2d_74">
      <g>
       <use style="stroke:#000000;stroke-width:0.8;" x="573.882353" xlink:href="#mac6d4db002" y="478.344133"/>
      </g>
     </g>
    </g>
   </g>
   <g id="line2d_75">
    <path clip-path="url(#p27f67d062b)" d="M 588.802139 742.522314 
L 589.621908 742.522314 
L 590.441676 699.69746 
L 591.261444 742.522314 
L 596.180055 742.522314 
L 596.999824 721.531392 
L 597.819592 663.405922 
L 598.639361 632.809207 
L 599.459129 742.522314 
L 600.278898 691.899627 
L 601.098666 742.522314 
L 615.854498 742.522314 
L 616.674267 695.313812 
L 617.494035 742.522314 
L 618.313804 651.898854 
L 619.133572 742.522314 
L 622.412646 742.522314 
L 623.232415 674.449342 
L 624.052183 585.8883 
L 624.871952 705.30347 
L 625.69172 742.522314 
L 626.511489 722.332251 
L 627.331257 742.522314 
L 630.610331 742.522314 
L 631.430099 612.919755 
L 632.249868 742.522314 
L 640.447552 742.522314 
L 641.267321 722.121497 
L 642.087089 742.522314 
L 642.906858 682.373625 
L 643.726626 742.522314 
L 646.185932 742.522314 
L 647.0057 668.674732 
L 647.825469 742.522314 
L 649.465006 742.522314 
L 650.284774 615.389974 
L 651.104543 630.885089 
L 651.924311 742.522314 
L 656.023153 742.522314 
L 656.842922 704.460463 
L 657.66269 742.522314 
L 659.302227 742.522314 
L 660.121996 650.339283 
L 660.941764 539.142029 
L 661.761533 742.522314 
L 665.860375 742.522314 
L 667.499912 678.748692 
L 668.31968 532.446662 
L 669.139449 685.113404 
L 669.959217 742.522314 
L 674.05806 742.522314 
L 674.877828 585.576534 
L 675.697597 742.522314 
L 677.337133 742.522314 
L 678.156902 616.275742 
L 678.97667 742.522314 
L 685.534818 742.522314 
L 686.354587 565.15951 
L 687.174355 742.522314 
L 687.994124 718.791613 
L 688.813892 742.522314 
L 694.552271 742.522314 
L 695.37204 652.952614 
L 696.191808 742.522314 
L 698.651114 742.522314 
L 699.470882 501.595292 
L 700.290651 742.522314 
L 709.308104 742.522314 
L 710.127872 686.58867 
L 710.947641 688.738347 
L 711.767409 742.522314 
L 712.587178 711.710337 
L 713.406946 742.522314 
L 717.505788 742.522314 
L 718.325557 666.988713 
L 719.145325 674.365037 
L 719.965094 742.522314 
L 720.784862 742.522314 
L 721.604631 677.231269 
L 722.424399 664.839035 
L 723.244168 742.522314 
L 731.441852 742.522314 
L 732.261621 684.649751 
L 733.081389 742.522314 
L 734.720926 742.522314 
L 735.540695 651.140147 
L 736.360463 742.522314 
L 744.558148 742.522314 
L 745.377916 686.883728 
L 746.197685 742.522314 
L 749.476759 742.522314 
L 750.296527 722.711606 
L 751.116295 742.522314 
L 751.936064 742.522314 
L 752.755832 709.392064 
L 753.575601 662.099262 
L 754.395369 706.230782 
L 755.215138 742.522314 
L 769.97097 742.522314 
L 770.790739 533.79813 
L 771.610507 742.522314 
L 776.529118 742.522314 
L 777.348886 672.679029 
L 778.168655 689.412749 
L 778.988423 742.522314 
L 787.186108 742.522314 
L 788.005876 682.373625 
L 788.825645 742.522314 
L 790.465182 742.522314 
L 791.28495 708.296152 
L 792.104719 742.522314 
L 793.744256 742.522314 
L 794.564024 692.02608 
L 795.383793 742.522314 
L 799.482635 742.522314 
L 800.302403 716.431187 
L 801.122172 742.522314 
L 806.040783 742.522314 
L 806.860551 708.422602 
L 807.68032 742.522314 
L 810.959394 742.522314 
L 811.779162 677.568474 
L 812.59893 625.437654 
L 813.418699 742.522314 
L 815.058236 742.522314 
L 815.878004 676.894073 
L 816.697773 742.522314 
L 820.796615 742.522314 
L 821.616384 720.140428 
L 822.436152 742.522314 
L 823.255921 742.522314 
L 824.075689 614.003065 
L 824.895457 742.522314 
L 851.128048 742.522314 
L 851.947817 661.00335 
L 852.767585 742.522314 
L 856.866428 742.522314 
L 857.686196 670.697946 
L 858.505965 742.522314 
L 867.523418 742.522314 
L 868.343186 708.970561 
L 869.162955 742.522314 
L 874.901334 742.522314 
L 875.721102 721.320639 
L 876.540871 742.522314 
L 878.180408 742.522314 
L 879.000176 709.94002 
L 879.819945 742.522314 
L 880.639713 742.522314 
L 881.459482 669.854945 
L 882.27925 472.968595 
L 883.099019 742.522314 
L 884.738556 742.522314 
L 885.558324 609.47245 
L 886.378092 697.337032 
L 887.197861 742.522314 
L 887.197861 742.522314 
" style="fill:none;stroke:#1f77b4;stroke-linecap:square;stroke-width:1.5;"/>
   </g>
   <g id="patch_23">
    <path d="M 573.882353 756 
L 573.882353 459.490909 
" style="fill:none;stroke:#000000;stroke-linecap:square;stroke-linejoin:miter;stroke-width:0.8;"/>
   </g>
   <g id="patch_24">
    <path d="M 902.117647 756 
L 902.117647 459.490909 
" style="fill:none;stroke:#000000;stroke-linecap:square;stroke-linejoin:miter;stroke-width:0.8;"/>
   </g>
   <g id="patch_25">
    <path d="M 573.882353 756 
L 902.117647 756 
" style="fill:none;stroke:#000000;stroke-linecap:square;stroke-linejoin:miter;stroke-width:0.8;"/>
   </g>
   <g id="patch_26">
    <path d="M 573.882353 459.490909 
L 902.117647 459.490909 
" style="fill:none;stroke:#000000;stroke-linecap:square;stroke-linejoin:miter;stroke-width:0.8;"/>
   </g>
   <g id="text_54">
    <!-- 24:00:00 -->
    <g transform="translate(711.0525 453.490909)scale(0.12 -0.12)">
     <use xlink:href="#DejaVuSans-50"/>
     <use x="63.623047" xlink:href="#DejaVuSans-52"/>
     <use x="127.246094" xlink:href="#DejaVuSans-58"/>
     <use x="160.9375" xlink:href="#DejaVuSans-48"/>
     <use x="224.560547" xlink:href="#DejaVuSans-48"/>
     <use x="288.183594" xlink:href="#DejaVuSans-58"/>
     <use x="321.875" xlink:href="#DejaVuSans-48"/>
     <use x="385.498047" xlink:href="#DejaVuSans-48"/>
    </g>
   </g>
  </g>
  <g id="text_55">
   <!-- Runoff - No Green Infrastructure -->
   <defs>
    <path d="M 44.390625 34.1875 
Q 47.5625 33.109375 50.5625 29.59375 
Q 53.5625 26.078125 56.59375 19.921875 
L 66.609375 0 
L 56 0 
L 46.6875 18.703125 
Q 43.0625 26.03125 39.671875 28.421875 
Q 36.28125 30.8125 30.421875 30.8125 
L 19.671875 30.8125 
L 19.671875 0 
L 9.8125 0 
L 9.8125 72.90625 
L 32.078125 72.90625 
Q 44.578125 72.90625 50.734375 67.671875 
Q 56.890625 62.453125 56.890625 51.90625 
Q 56.890625 45.015625 53.6875 40.46875 
Q 50.484375 35.9375 44.390625 34.1875 
z
M 19.671875 64.796875 
L 19.671875 38.921875 
L 32.078125 38.921875 
Q 39.203125 38.921875 42.84375 42.21875 
Q 46.484375 45.515625 46.484375 51.90625 
Q 46.484375 58.296875 42.84375 61.546875 
Q 39.203125 64.796875 32.078125 64.796875 
z
" id="DejaVuSans-82"/>
    <path d="M 8.5 21.578125 
L 8.5 54.6875 
L 17.484375 54.6875 
L 17.484375 21.921875 
Q 17.484375 14.15625 20.5 10.265625 
Q 23.53125 6.390625 29.59375 6.390625 
Q 36.859375 6.390625 41.078125 11.03125 
Q 45.3125 15.671875 45.3125 23.6875 
L 45.3125 54.6875 
L 54.296875 54.6875 
L 54.296875 0 
L 45.3125 0 
L 45.3125 8.40625 
Q 42.046875 3.421875 37.71875 1 
Q 33.40625 -1.421875 27.6875 -1.421875 
Q 18.265625 -1.421875 13.375 4.4375 
Q 8.5 10.296875 8.5 21.578125 
z
M 31.109375 56 
z
" id="DejaVuSans-117"/>
    <path d="M 54.890625 33.015625 
L 54.890625 0 
L 45.90625 0 
L 45.90625 32.71875 
Q 45.90625 40.484375 42.875 44.328125 
Q 39.84375 48.1875 33.796875 48.1875 
Q 26.515625 48.1875 22.3125 43.546875 
Q 18.109375 38.921875 18.109375 30.90625 
L 18.109375 0 
L 9.078125 0 
L 9.078125 54.6875 
L 18.109375 54.6875 
L 18.109375 46.1875 
Q 21.34375 51.125 25.703125 53.5625 
Q 30.078125 56 35.796875 56 
Q 45.21875 56 50.046875 50.171875 
Q 54.890625 44.34375 54.890625 33.015625 
z
" id="DejaVuSans-110"/>
    <path d="M 30.609375 48.390625 
Q 23.390625 48.390625 19.1875 42.75 
Q 14.984375 37.109375 14.984375 27.296875 
Q 14.984375 17.484375 19.15625 11.84375 
Q 23.34375 6.203125 30.609375 6.203125 
Q 37.796875 6.203125 41.984375 11.859375 
Q 46.1875 17.53125 46.1875 27.296875 
Q 46.1875 37.015625 41.984375 42.703125 
Q 37.796875 48.390625 30.609375 48.390625 
z
M 30.609375 56 
Q 42.328125 56 49.015625 48.375 
Q 55.71875 40.765625 55.71875 27.296875 
Q 55.71875 13.875 49.015625 6.21875 
Q 42.328125 -1.421875 30.609375 -1.421875 
Q 18.84375 -1.421875 12.171875 6.21875 
Q 5.515625 13.875 5.515625 27.296875 
Q 5.515625 40.765625 12.171875 48.375 
Q 18.84375 56 30.609375 56 
z
" id="DejaVuSans-111"/>
    <path d="M 37.109375 75.984375 
L 37.109375 68.5 
L 28.515625 68.5 
Q 23.6875 68.5 21.796875 66.546875 
Q 19.921875 64.59375 19.921875 59.515625 
L 19.921875 54.6875 
L 34.71875 54.6875 
L 34.71875 47.703125 
L 19.921875 47.703125 
L 19.921875 0 
L 10.890625 0 
L 10.890625 47.703125 
L 2.296875 47.703125 
L 2.296875 54.6875 
L 10.890625 54.6875 
L 10.890625 58.5 
Q 10.890625 67.625 15.140625 71.796875 
Q 19.390625 75.984375 28.609375 75.984375 
z
" id="DejaVuSans-102"/>
    <path id="DejaVuSans-32"/>
    <path d="M 9.8125 72.90625 
L 23.09375 72.90625 
L 55.421875 11.921875 
L 55.421875 72.90625 
L 64.984375 72.90625 
L 64.984375 0 
L 51.703125 0 
L 19.390625 60.984375 
L 19.390625 0 
L 9.8125 0 
z
" id="DejaVuSans-78"/>
    <path d="M 59.515625 10.40625 
L 59.515625 29.984375 
L 43.40625 29.984375 
L 43.40625 38.09375 
L 69.28125 38.09375 
L 69.28125 6.78125 
Q 63.578125 2.734375 56.6875 0.65625 
Q 49.8125 -1.421875 42 -1.421875 
Q 24.90625 -1.421875 15.25 8.5625 
Q 5.609375 18.5625 5.609375 36.375 
Q 5.609375 54.25 15.25 64.234375 
Q 24.90625 74.21875 42 74.21875 
Q 49.125 74.21875 55.546875 72.453125 
Q 61.96875 70.703125 67.390625 67.28125 
L 67.390625 56.78125 
Q 61.921875 61.421875 55.765625 63.765625 
Q 49.609375 66.109375 42.828125 66.109375 
Q 29.4375 66.109375 22.71875 58.640625 
Q 16.015625 51.171875 16.015625 36.375 
Q 16.015625 21.625 22.71875 14.15625 
Q 29.4375 6.6875 42.828125 6.6875 
Q 48.046875 6.6875 52.140625 7.59375 
Q 56.25 8.5 59.515625 10.40625 
z
" id="DejaVuSans-71"/>
    <path d="M 41.109375 46.296875 
Q 39.59375 47.171875 37.8125 47.578125 
Q 36.03125 48 33.890625 48 
Q 26.265625 48 22.1875 43.046875 
Q 18.109375 38.09375 18.109375 28.8125 
L 18.109375 0 
L 9.078125 0 
L 9.078125 54.6875 
L 18.109375 54.6875 
L 18.109375 46.1875 
Q 20.953125 51.171875 25.484375 53.578125 
Q 30.03125 56 36.53125 56 
Q 37.453125 56 38.578125 55.875 
Q 39.703125 55.765625 41.0625 55.515625 
z
" id="DejaVuSans-114"/>
    <path d="M 56.203125 29.59375 
L 56.203125 25.203125 
L 14.890625 25.203125 
Q 15.484375 15.921875 20.484375 11.0625 
Q 25.484375 6.203125 34.421875 6.203125 
Q 39.59375 6.203125 44.453125 7.46875 
Q 49.3125 8.734375 54.109375 11.28125 
L 54.109375 2.78125 
Q 49.265625 0.734375 44.1875 -0.34375 
Q 39.109375 -1.421875 33.890625 -1.421875 
Q 20.796875 -1.421875 13.15625 6.1875 
Q 5.515625 13.8125 5.515625 26.8125 
Q 5.515625 40.234375 12.765625 48.109375 
Q 20.015625 56 32.328125 56 
Q 43.359375 56 49.78125 48.890625 
Q 56.203125 41.796875 56.203125 29.59375 
z
M 47.21875 32.234375 
Q 47.125 39.59375 43.09375 43.984375 
Q 39.0625 48.390625 32.421875 48.390625 
Q 24.90625 48.390625 20.390625 44.140625 
Q 15.875 39.890625 15.1875 32.171875 
z
" id="DejaVuSans-101"/>
    <path d="M 9.8125 72.90625 
L 19.671875 72.90625 
L 19.671875 0 
L 9.8125 0 
z
" id="DejaVuSans-73"/>
    <path d="M 34.28125 27.484375 
Q 23.390625 27.484375 19.1875 25 
Q 14.984375 22.515625 14.984375 16.5 
Q 14.984375 11.71875 18.140625 8.90625 
Q 21.296875 6.109375 26.703125 6.109375 
Q 34.1875 6.109375 38.703125 11.40625 
Q 43.21875 16.703125 43.21875 25.484375 
L 43.21875 27.484375 
z
M 52.203125 31.203125 
L 52.203125 0 
L 43.21875 0 
L 43.21875 8.296875 
Q 40.140625 3.328125 35.546875 0.953125 
Q 30.953125 -1.421875 24.3125 -1.421875 
Q 15.921875 -1.421875 10.953125 3.296875 
Q 6 8.015625 6 15.921875 
Q 6 25.140625 12.171875 29.828125 
Q 18.359375 34.515625 30.609375 34.515625 
L 43.21875 34.515625 
L 43.21875 35.40625 
Q 43.21875 41.609375 39.140625 45 
Q 35.0625 48.390625 27.6875 48.390625 
Q 23 48.390625 18.546875 47.265625 
Q 14.109375 46.140625 10.015625 43.890625 
L 10.015625 52.203125 
Q 14.9375 54.109375 19.578125 55.046875 
Q 24.21875 56 28.609375 56 
Q 40.484375 56 46.34375 49.84375 
Q 52.203125 43.703125 52.203125 31.203125 
z
" id="DejaVuSans-97"/>
    <path d="M 44.28125 53.078125 
L 44.28125 44.578125 
Q 40.484375 46.53125 36.375 47.5 
Q 32.28125 48.484375 27.875 48.484375 
Q 21.1875 48.484375 17.84375 46.4375 
Q 14.5 44.390625 14.5 40.28125 
Q 14.5 37.15625 16.890625 35.375 
Q 19.28125 33.59375 26.515625 31.984375 
L 29.59375 31.296875 
Q 39.15625 29.25 43.1875 25.515625 
Q 47.21875 21.78125 47.21875 15.09375 
Q 47.21875 7.46875 41.1875 3.015625 
Q 35.15625 -1.421875 24.609375 -1.421875 
Q 20.21875 -1.421875 15.453125 -0.5625 
Q 10.6875 0.296875 5.421875 2 
L 5.421875 11.28125 
Q 10.40625 8.6875 15.234375 7.390625 
Q 20.0625 6.109375 24.8125 6.109375 
Q 31.15625 6.109375 34.5625 8.28125 
Q 37.984375 10.453125 37.984375 14.40625 
Q 37.984375 18.0625 35.515625 20.015625 
Q 33.0625 21.96875 24.703125 23.78125 
L 21.578125 24.515625 
Q 13.234375 26.265625 9.515625 29.90625 
Q 5.8125 33.546875 5.8125 39.890625 
Q 5.8125 47.609375 11.28125 51.796875 
Q 16.75 56 26.8125 56 
Q 31.78125 56 36.171875 55.265625 
Q 40.578125 54.546875 44.28125 53.078125 
z
" id="DejaVuSans-115"/>
    <path d="M 18.3125 70.21875 
L 18.3125 54.6875 
L 36.8125 54.6875 
L 36.8125 47.703125 
L 18.3125 47.703125 
L 18.3125 18.015625 
Q 18.3125 11.328125 20.140625 9.421875 
Q 21.96875 7.515625 27.59375 7.515625 
L 36.8125 7.515625 
L 36.8125 0 
L 27.59375 0 
Q 17.1875 0 13.234375 3.875 
Q 9.28125 7.765625 9.28125 18.015625 
L 9.28125 47.703125 
L 2.6875 47.703125 
L 2.6875 54.6875 
L 9.28125 54.6875 
L 9.28125 70.21875 
z
" id="DejaVuSans-116"/>
    <path d="M 48.78125 52.59375 
L 48.78125 44.1875 
Q 44.96875 46.296875 41.140625 47.34375 
Q 37.3125 48.390625 33.40625 48.390625 
Q 24.65625 48.390625 19.8125 42.84375 
Q 14.984375 37.3125 14.984375 27.296875 
Q 14.984375 17.28125 19.8125 11.734375 
Q 24.65625 6.203125 33.40625 6.203125 
Q 37.3125 6.203125 41.140625 7.25 
Q 44.96875 8.296875 48.78125 10.40625 
L 48.78125 2.09375 
Q 45.015625 0.34375 40.984375 -0.53125 
Q 36.96875 -1.421875 32.421875 -1.421875 
Q 20.0625 -1.421875 12.78125 6.34375 
Q 5.515625 14.109375 5.515625 27.296875 
Q 5.515625 40.671875 12.859375 48.328125 
Q 20.21875 56 33.015625 56 
Q 37.15625 56 41.109375 55.140625 
Q 45.0625 54.296875 48.78125 52.59375 
z
" id="DejaVuSans-99"/>
   </defs>
   <g transform="translate(574.344844 30.957187)scale(0.18 -0.18)">
    <use xlink:href="#DejaVuSans-82"/>
    <use x="69.419922" xlink:href="#DejaVuSans-117"/>
    <use x="132.798828" xlink:href="#DejaVuSans-110"/>
    <use x="196.177734" xlink:href="#DejaVuSans-111"/>
    <use x="257.359375" xlink:href="#DejaVuSans-102"/>
    <use x="292.564453" xlink:href="#DejaVuSans-102"/>
    <use x="327.769531" xlink:href="#DejaVuSans-32"/>
    <use x="359.556641" xlink:href="#DejaVuSans-45"/>
    <use x="395.640625" xlink:href="#DejaVuSans-32"/>
    <use x="427.427734" xlink:href="#DejaVuSans-78"/>
    <use x="502.232422" xlink:href="#DejaVuSans-111"/>
    <use x="563.414062" xlink:href="#DejaVuSans-32"/>
    <use x="595.201172" xlink:href="#DejaVuSans-71"/>
    <use x="672.691406" xlink:href="#DejaVuSans-114"/>
    <use x="713.773438" xlink:href="#DejaVuSans-101"/>
    <use x="775.296875" xlink:href="#DejaVuSans-101"/>
    <use x="836.820312" xlink:href="#DejaVuSans-110"/>
    <use x="900.199219" xlink:href="#DejaVuSans-32"/>
    <use x="931.986328" xlink:href="#DejaVuSans-73"/>
    <use x="961.478516" xlink:href="#DejaVuSans-110"/>
    <use x="1024.857422" xlink:href="#DejaVuSans-102"/>
    <use x="1060.0625" xlink:href="#DejaVuSans-114"/>
    <use x="1101.175781" xlink:href="#DejaVuSans-97"/>
    <use x="1162.455078" xlink:href="#DejaVuSans-115"/>
    <use x="1214.554688" xlink:href="#DejaVuSans-116"/>
    <use x="1253.763672" xlink:href="#DejaVuSans-114"/>
    <use x="1294.876953" xlink:href="#DejaVuSans-117"/>
    <use x="1358.255859" xlink:href="#DejaVuSans-99"/>
    <use x="1413.236328" xlink:href="#DejaVuSans-116"/>
    <use x="1452.445312" xlink:href="#DejaVuSans-117"/>
    <use x="1515.824219" xlink:href="#DejaVuSans-114"/>
    <use x="1556.90625" xlink:href="#DejaVuSans-101"/>
   </g>
  </g>
 </g>
 <defs>
  <clipPath id="pc028171f06">
   <rect height="296.509091" width="328.235294" x="180" y="103.68"/>
  </clipPath>
  <clipPath id="p4fc7b6064d">
   <rect height="296.509091" width="328.235294" x="573.882353" y="103.68"/>
  </clipPath>
  <clipPath id="p34bf4e1efd">
   <rect height="296.509091" width="328.235294" x="967.764706" y="103.68"/>
  </clipPath>
  <clipPath id="pd8e247d971">
   <rect height="296.509091" width="328.235294" x="180" y="459.490909"/>
  </clipPath>
  <clipPath id="p27f67d062b">
   <rect height="296.509091" width="328.235294" x="573.882353" y="459.490909"/>
  </clipPath>
 </defs>
</svg>
